<?xml version="1.0" standalone="no"?>
<svg xmlns="http://www.w3.org/2000/svg" version="1.2" baseProfile="tiny" width="256" height="144" viewBox="0 0 256 144">
<rect x="0" y="0" width="256" height="144" id="0" fill="rgb(122,68,58)" fill-opacity="1" />
<polygon points="184,144 110,0 238,19" id="1" fill="rgb(255,236,213)" fill-opacity="0.501961" />
<polygon points="0,144 137,35 0,0" id="2" fill="rgb(44,0,0)" fill-opacity="0.501961" />
<polygon points="255,0 205,102 255,144" id="3" fill="rgb(0,0,0)" fill-opacity="0.501961" />
<polygon points="102,55 166,144 234,47" id="4" fill="rgb(255,176,143)" fill-opacity="0.501961" />
<polygon points="213,106 229,144 92,144" id="5" fill="rgb(100,153,251)" fill-opacity="0.501961" />
<polygon points="254,144 221,0 256,0" id="6" fill="rgb(0,0,0)" fill-opacity="0.501961" />
<polygon points="118,0 183,0 208,33" id="7" fill="rgb(255,255,221)" fill-opacity="0.501961" />
<polygon points="34,144 85,29 0,99" id="8" fill="rgb(5,0,0)" fill-opacity="0.501961" />
<polygon points="0,143 99,144 0,104" id="9" fill="rgb(4,0,0)" fill-opacity="0.501961" />
<polygon points="118,122 45,121 70,71" id="10" fill="rgb(243,147,61)" fill-opacity="0.501961" />
<polygon points="0,127 121,0 0,0" id="11" fill="rgb(107,0,0)" fill-opacity="0.501961" />
<polygon points="170,46 172,17 95,56" id="12" fill="rgb(116,54,10)" fill-opacity="0.501961" />
<polygon points="232,0 256,144 225,144" id="13" fill="rgb(0,0,0)" fill-opacity="0.501961" />
<polygon points="136,117 69,31 136,144" id="14" fill="rgb(0,0,0)" fill-opacity="0.501961" />
<polygon points="164,76 112,87 168,144" id="15" fill="rgb(179,82,33)" fill-opacity="0.501961" />
<polygon points="149,78 221,61 211,0" id="16" fill="rgb(250,189,184)" fill-opacity="0.501961" />
<polygon points="256,0 256,66 194,-25" id="17" fill="rgb(0,0,0)" fill-opacity="0.501961" />
<polygon points="118,122 111,141 141,144" id="18" fill="rgb(145,183,255)" fill-opacity="0.501961" />
<polygon points="110,32 118,0 191,0" id="19" fill="rgb(255,196,131)" fill-opacity="0.501961" />
<polygon points="56,102 67,72 114,93" id="20" fill="rgb(80,114,117)" fill-opacity="0.501961" />
<polygon points="0,0 108,89 105,0" id="21" fill="rgb(93,0,0)" fill-opacity="0.501961" />
<polygon points="170,22 145,34 178,34" id="22" fill="rgb(0,0,0)" fill-opacity="0.501961" />
<polygon points="207,103 250,144 256,0" id="23" fill="rgb(0,0,0)" fill-opacity="0.501961" />
<polygon points="107,43 154,43 117,91" id="24" fill="rgb(233,164,101)" fill-opacity="0.501961" />
<polygon points="98,140 118,91 50,122" id="25" fill="rgb(232,79,0)" fill-opacity="0.501961" />
<polygon points="228,126 172,144 206,104" id="26" fill="rgb(132,165,240)" fill-opacity="0.501961" />
<polygon points="192,118 230,46 152,118" id="27" fill="rgb(251,184,180)" fill-opacity="0.501961" />
<polygon points="112,16 0,55 0,8" id="28" fill="rgb(152,18,0)" fill-opacity="0.501961" />
</svg>