<?xml version="1.0" standalone="no"?>
<svg xmlns="http://www.w3.org/2000/svg" version="1.2" baseProfile="tiny" width="256" height="144" viewBox="0 0 256 144">
<rect x="0" y="0" width="256" height="144" id="0" fill="rgb(129,120,112)" fill-opacity="1" />
<polygon points="158,66 0,0 256,0" id="1" fill="rgb(238,218,195)" fill-opacity="0.501961" />
<polygon points="220,144 256,54 40,144" id="2" fill="rgb(19,22,24)" fill-opacity="0.501961" />
<polygon points="46,122 130,32 240,102" id="3" fill="rgb(72,73,69)" fill-opacity="0.501961" />
<polygon points="0,64 250,41 0,0" id="4" fill="rgb(186,169,155)" fill-opacity="0.501961" />
<polygon points="134,144 225,113 220,78" id="5" fill="rgb(22,22,24)" fill-opacity="0.501961" />
<polygon points="150,128 135,115 173,136" id="6" fill="rgb(255,255,255)" fill-opacity="0.501961" />
<polygon points="183,4 208,9 223,17" id="7" fill="rgb(0,1,7)" fill-opacity="0.501961" />
<polygon points="38,21 92,38 175,0" id="8" fill="rgb(220,207,189)" fill-opacity="0.501961" />
<polygon points="37,107 62,76 66,97" id="9" fill="rgb(31,33,36)" fill-opacity="0.501961" />
<polygon points="26,13 0,50 35,9" id="10" fill="rgb(255,255,255)" fill-opacity="0.501961" />
<polygon points="230,16 194,0 263,0" id="11" fill="rgb(251,237,199)" fill-opacity="0.501961" />
<polygon points="169,59 256,64 62,144" id="12" fill="rgb(89,87,81)" fill-opacity="0.501961" />
<polygon points="74,78 244,58 113,15" id="13" fill="rgb(146,139,129)" fill-opacity="0.501961" />
<polygon points="209,144 256,144 256,114" id="14" fill="rgb(201,173,133)" fill-opacity="0.501961" />
<polygon points="145,96 208,97 136,97" id="15" fill="rgb(215,218,221)" fill-opacity="0.501961" />
<polygon points="168,10 138,32 227,32" id="16" fill="rgb(225,208,190)" fill-opacity="0.501961" />
<polygon points="200,144 130,127 132,144" id="17" fill="rgb(15,13,12)" fill-opacity="0.501961" />
<polygon points="230,105 186,144 229,120" id="18" fill="rgb(139,136,135)" fill-opacity="0.501961" />
<polygon points="67,66 48,92 20,111" id="19" fill="rgb(215,214,219)" fill-opacity="0.501961" />
<polygon points="176,5 138,21 148,11" id="20" fill="rgb(47,46,45)" fill-opacity="0.501961" />
<polygon points="237,121 242,25 256,81" id="21" fill="rgb(78,74,66)" fill-opacity="0.501961" />
<polygon points="256,66 222,69 256,28" id="22" fill="rgb(162,148,131)" fill-opacity="0.501961" />
<polygon points="12,144 104,144 86,102" id="23" fill="rgb(114,109,112)" fill-opacity="0.501961" />
<polygon points="57,115 81,73 51,114" id="24" fill="rgb(212,214,219)" fill-opacity="0.501961" />
<polygon points="206,9 236,29 218,14" id="25" fill="rgb(0,0,0)" fill-opacity="0.501961" />
<polygon points="146,70 244,90 161,93" id="26" fill="rgb(50,49,40)" fill-opacity="0.501961" />
<polygon points="73,27 3,144 51,35" id="27" fill="rgb(111,103,101)" fill-opacity="0.501961" />
<polygon points="115,80 86,66 56,121" id="28" fill="rgb(75,71,67)" fill-opacity="0.501961" />
<polygon points="0,85 9,39 11,38" id="29" fill="rgb(255,255,255)" fill-opacity="0.501961" />
<polygon points="157,144 113,95 117,112" id="30" fill="rgb(16,13,15)" fill-opacity="0.501961" />
<polygon points="196,135 196,127 174,136" id="31" fill="rgb(187,180,172)" fill-opacity="0.501961" />
<polygon points="172,134 160,109 221,119" id="32" fill="rgb(19,20,22)" fill-opacity="0.501961" />
<polygon points="139,116 134,118 123,92" id="33" fill="rgb(198,193,187)" fill-opacity="0.501961" />
</svg>