<?xml version="1.0" standalone="no"?>
<svg xmlns="http://www.w3.org/2000/svg" version="1.2" baseProfile="tiny" width="256" height="170" viewBox="0 0 256 170">
<rect x="0" y="0" width="256" height="170" id="0" fill="rgb(60,54,54)" fill-opacity="1" />
<polygon points="256,0 0,0 105,68" id="1" fill="rgb(147,164,178)" fill-opacity="0.501961" />
<polygon points="256,170 0,170 0,74" id="2" fill="rgb(0,0,0)" fill-opacity="0.501961" />
<polygon points="65,142 100,95 147,118" id="3" fill="rgb(222,219,175)" fill-opacity="0.501961" />
<polygon points="95,170 208,59 256,170" id="4" fill="rgb(0,0,0)" fill-opacity="0.501961" />
<polygon points="111,7 256,0 256,128" id="5" fill="rgb(105,86,88)" fill-opacity="0.501961" />
<polygon points="33,61 149,0 0,0" id="6" fill="rgb(129,143,156)" fill-opacity="0.501961" />
<polygon points="122,102 254,170 256,105" id="7" fill="rgb(2,0,0)" fill-opacity="0.501961" />
<polygon points="122,93 140,72 117,73" id="8" fill="rgb(255,247,192)" fill-opacity="0.501961" />
<polygon points="0,170 87,151 0,54" id="9" fill="rgb(0,0,0)" fill-opacity="0.501961" />
<polygon points="256,102 229,101 256,76" id="10" fill="rgb(255,175,196)" fill-opacity="0.501961" />
<polygon points="70,82 175,131 169,139" id="11" fill="rgb(226,187,131)" fill-opacity="0.501961" />
<polygon points="105,115 197,140 54,156" id="12" fill="rgb(32,26,16)" fill-opacity="0.501961" />
<polygon points="36,94 174,55 35,44" id="13" fill="rgb(53,35,32)" fill-opacity="0.501961" />
<polygon points="114,80 74,17 108,0" id="14" fill="rgb(166,169,166)" fill-opacity="0.501961" />
<polygon points="205,30 193,108 243,93" id="15" fill="rgb(69,15,1)" fill-opacity="0.501961" />
<polygon points="256,35 183,57 165,81" id="16" fill="rgb(165,146,131)" fill-opacity="0.501961" />
<polygon points="217,66 225,102 203,93" id="17" fill="rgb(202,101,71)" fill-opacity="0.501961" />
<polygon points="107,138 93,101 99,147" id="18" fill="rgb(192,211,202)" fill-opacity="0.501961" />
<polygon points="0,170 20,62 95,107" id="19" fill="rgb(0,0,0)" fill-opacity="0.501961" />
<polygon points="256,73 152,170 245,66" id="20" fill="rgb(13,0,0)" fill-opacity="0.501961" />
<polygon points="249,0 102,7 256,15" id="21" fill="rgb(43,47,39)" fill-opacity="0.501961" />
<polygon points="256,44 233,13 127,15" id="22" fill="rgb(109,129,142)" fill-opacity="0.501961" />
<polygon points="113,35 53,116 71,52" id="23" fill="rgb(68,64,68)" fill-opacity="0.501961" />
<polygon points="136,121 62,72 133,112" id="24" fill="rgb(223,205,186)" fill-opacity="0.501961" />
<polygon points="185,170 171,129 217,29" id="25" fill="rgb(0,0,3)" fill-opacity="0.501961" />
<polygon points="70,159 59,170 55,149" id="26" fill="rgb(144,146,141)" fill-opacity="0.501961" />
<polygon points="74,78 80,61 58,80" id="27" fill="rgb(171,177,180)" fill-opacity="0.501961" />
<polygon points="0,59 0,0 76,27" id="28" fill="rgb(79,86,97)" fill-opacity="0.501961" />
<polygon points="209,54 256,12 113,49" id="29" fill="rgb(71,74,80)" fill-opacity="0.501961" />
<polygon points="152,126 132,95 167,52" id="30" fill="rgb(25,2,0)" fill-opacity="0.501961" />
<polygon points="123,0 106,29 94,0" id="31" fill="rgb(173,194,213)" fill-opacity="0.501961" />
<polygon points="161,114 160,97 172,77" id="32" fill="rgb(108,159,202)" fill-opacity="0.501961" />
<polygon points="116,122 129,114 125,88" id="33" fill="rgb(232,214,163)" fill-opacity="0.501961" />
<polygon points="45,68 8,72 31,49" id="34" fill="rgb(152,96,65)" fill-opacity="0.501961" />
<polygon points="58,170 256,117 239,170" id="35" fill="rgb(2,0,0)" fill-opacity="0.501961" />
<polygon points="203,34 178,71 195,58" id="36" fill="rgb(196,165,140)" fill-opacity="0.501961" />
<polygon points="117,37 85,98 144,65" id="37" fill="rgb(95,57,47)" fill-opacity="0.501961" />
<polygon points="256,56 228,68 256,49" id="38" fill="rgb(205,199,193)" fill-opacity="0.501961" />
<polygon points="100,113 108,107 127,170" id="39" fill="rgb(1,0,0)" fill-opacity="0.501961" />
<polygon points="47,74 80,59 21,123" id="40" fill="rgb(0,1,8)" fill-opacity="0.501961" />
<polygon points="82,44 86,80 97,50" id="41" fill="rgb(0,0,4)" fill-opacity="0.501961" />
<polygon points="239,106 248,82 256,78" id="42" fill="rgb(234,245,231)" fill-opacity="0.501961" />
<polygon points="252,117 203,97 220,90" id="43" fill="rgb(122,0,0)" fill-opacity="0.501961" />
<polygon points="0,170 84,113 50,170" id="44" fill="rgb(2,0,0)" fill-opacity="0.501961" />
<polygon points="153,0 117,0 133,60" id="45" fill="rgb(81,96,111)" fill-opacity="0.501961" />
<polygon points="158,105 183,147 207,67" id="46" fill="rgb(0,0,24)" fill-opacity="0.501961" />
<polygon points="231,33 253,33 219,57" id="47" fill="rgb(184,154,127)" fill-opacity="0.501961" />
<polygon points="231,170 256,152 256,170" id="48" fill="rgb(96,75,72)" fill-opacity="0.501961" />
<polygon points="226,58 225,41 172,51" id="49" fill="rgb(70,35,24)" fill-opacity="0.501961" />
<polygon points="91,117 100,94 107,102" id="50" fill="rgb(250,245,196)" fill-opacity="0.501961" />
<polygon points="256,87 241,104 256,114" id="51" fill="rgb(184,42,86)" fill-opacity="0.501961" />
<polygon points="164,144 125,116 170,133" id="52" fill="rgb(115,67,10)" fill-opacity="0.501961" />
<polygon points="122,95 94,78 113,101" id="53" fill="rgb(0,0,0)" fill-opacity="0.501961" />
<polygon points="231,95 243,94 222,56" id="54" fill="rgb(0,0,0)" fill-opacity="0.501961" />
<polygon points="241,144 240,131 234,148" id="55" fill="rgb(181,53,64)" fill-opacity="0.501961" />
<polygon points="126,23 55,7 84,39" id="56" fill="rgb(138,161,182)" fill-opacity="0.501961" />
<polygon points="135,59 139,40 129,58" id="57" fill="rgb(218,199,172)" fill-opacity="0.501961" />
<polygon points="217,20 202,14 229,14" id="58" fill="rgb(225,212,190)" fill-opacity="0.501961" />
<polygon points="180,60 206,57 183,57" id="59" fill="rgb(242,243,237)" fill-opacity="0.501961" />
<polygon points="139,57 142,72 169,32" id="60" fill="rgb(6,3,5)" fill-opacity="0.501961" />
<polygon points="245,35 256,25 221,0" id="61" fill="rgb(15,41,78)" fill-opacity="0.501961" />
<polygon points="89,3 67,18 63,63" id="62" fill="rgb(106,113,123)" fill-opacity="0.501961" />
<polygon points="220,170 122,122 73,170" id="63" fill="rgb(6,4,3)" fill-opacity="0.501961" />
<polygon points="142,114 113,107 112,119" id="64" fill="rgb(238,235,192)" fill-opacity="0.501961" />
<polygon points="64,98 55,112 55,105" id="65" fill="rgb(206,199,188)" fill-opacity="0.501961" />
<polygon points="250,79 232,48 274,90" id="66" fill="rgb(19,20,21)" fill-opacity="0.501961" />
<polygon points="148,51 212,50 199,26" id="67" fill="rgb(105,101,100)" fill-opacity="0.501961" />
<polygon points="88,79 101,89 93,107" id="68" fill="rgb(185,81,79)" fill-opacity="0.501961" />
<polygon points="208,88 215,87 208,96" id="69" fill="rgb(255,255,244)" fill-opacity="0.501961" />
<polygon points="156,88 113,101 149,108" id="70" fill="rgb(94,43,0)" fill-opacity="0.501961" />
<polygon points="18,34 27,39 0,78" id="71" fill="rgb(19,16,17)" fill-opacity="0.501961" />
<polygon points="132,53 122,45 112,66" id="72" fill="rgb(0,0,10)" fill-opacity="0.501961" />
<polygon points="176,30 153,12 85,37" id="73" fill="rgb(95,119,144)" fill-opacity="0.501961" />
<polygon points="37,72 51,61 39,64" id="74" fill="rgb(165,200,209)" fill-opacity="0.501961" />
<polygon points="256,30 256,33 210,58" id="75" fill="rgb(189,177,153)" fill-opacity="0.501961" />
<polygon points="0,51 29,48 54,55" id="76" fill="rgb(154,124,86)" fill-opacity="0.501961" />
<polygon points="189,75 168,88 161,98" id="77" fill="rgb(118,165,214)" fill-opacity="0.501961" />
<polygon points="158,120 171,86 210,82" id="78" fill="rgb(0,10,45)" fill-opacity="0.501961" />
<polygon points="85,143 89,137 73,139" id="79" fill="rgb(124,138,135)" fill-opacity="0.501961" />
<polygon points="227,63 240,63 238,77" id="80" fill="rgb(160,162,162)" fill-opacity="0.501961" />
<polygon points="153,76 127,86 137,73" id="81" fill="rgb(158,121,71)" fill-opacity="0.501961" />
<polygon points="125,14 133,0 202,11" id="82" fill="rgb(65,62,58)" fill-opacity="0.501961" />
<polygon points="93,124 85,122 106,170" id="83" fill="rgb(7,5,8)" fill-opacity="0.501961" />
<polygon points="97,67 115,64 104,32" id="84" fill="rgb(172,132,88)" fill-opacity="0.501961" />
<polygon points="53,39 42,34 21,82" id="85" fill="rgb(39,30,36)" fill-opacity="0.501961" />
<polygon points="156,54 156,111 170,49" id="86" fill="rgb(0,11,29)" fill-opacity="0.501961" />
<polygon points="158,50 198,21 167,21" id="87" fill="rgb(54,70,89)" fill-opacity="0.501961" />
<polygon points="245,27 244,76 236,55" id="88" fill="rgb(46,51,56)" fill-opacity="0.501961" />
<polygon points="77,72 0,154 92,65" id="89" fill="rgb(1,3,11)" fill-opacity="0.501961" />
</svg>