<?xml version="1.0" standalone="no"?>
<svg xmlns="http://www.w3.org/2000/svg" version="1.2" baseProfile="tiny" width="256" height="170" viewBox="0 0 256 170">
<rect x="0" y="0" width="256" height="170" id="0" fill="rgb(77,69,64)" fill-opacity="1" />
<polygon points="126,105 239,170 14,170" id="1" fill="rgb(255,255,255)" fill-opacity="0.501961" />
<polygon points="256,0 0,92 0,0" id="2" fill="rgb(0,0,0)" fill-opacity="0.501961" />
<polygon points="256,0 0,0 256,79" id="3" fill="rgb(0,0,0)" fill-opacity="0.501961" />
<polygon points="203,133 220,170 48,140" id="4" fill="rgb(245,255,255)" fill-opacity="0.501961" />
<polygon points="72,170 216,170 43,110" id="5" fill="rgb(207,225,230)" fill-opacity="0.501961" />
<polygon points="91,63 94,86 111,70" id="6" fill="rgb(255,255,255)" fill-opacity="0.501961" />
<polygon points="189,47 174,85 208,83" id="7" fill="rgb(245,199,197)" fill-opacity="0.501961" />
<polygon points="49,0 256,15 122,89" id="8" fill="rgb(31,0,0)" fill-opacity="0.501961" />
<polygon points="0,170 74,34 52,170" id="9" fill="rgb(86,109,108)" fill-opacity="0.501961" />
<polygon points="0,0 256,51 0,63" id="10" fill="rgb(19,0,0)" fill-opacity="0.501961" />
<polygon points="214,169 256,170 255,0" id="11" fill="rgb(25,24,14)" fill-opacity="0.501961" />
<polygon points="80,59 47,79 73,90" id="12" fill="rgb(250,183,181)" fill-opacity="0.501961" />
<polygon points="70,88 120,124 180,84" id="13" fill="rgb(86,47,16)" fill-opacity="0.501961" />
<polygon points="21,87 121,132 54,140" id="14" fill="rgb(109,129,125)" fill-opacity="0.501961" />
<polygon points="103,61 85,84 105,86" id="15" fill="rgb(255,255,255)" fill-opacity="0.501961" />
</svg>