<?xml version="1.0" standalone="no"?>
<svg xmlns="http://www.w3.org/2000/svg" version="1.2" baseProfile="tiny" width="256" height="144" viewBox="0 0 256 144">
<rect x="0" y="0" width="256" height="144" id="0" fill="rgb(229,152,28)" fill-opacity="1" />
<polygon points="11,57 11,144 78,137" id="1" fill="rgb(0,0,30)" fill-opacity="0.501961" />
<polygon points="68,123 10,144 38,71" id="2" fill="rgb(3,25,30)" fill-opacity="0.501961" />
<polygon points="104,144 0,0 256,0" id="3" fill="rgb(255,173,22)" fill-opacity="0.501961" />
<polygon points="10,103 77,144 44,144" id="4" fill="rgb(149,109,37)" fill-opacity="0.501961" />
<polygon points="59,141 256,144 256,6" id="5" fill="rgb(255,167,39)" fill-opacity="0.501961" />
<polygon points="20,125 13,37 28,118" id="6" fill="rgb(240,170,35)" fill-opacity="0.501961" />
<polygon points="53,68 0,79 0,68" id="7" fill="rgb(34,42,24)" fill-opacity="0.501961" />
<polygon points="17,76 77,96 35,69" id="8" fill="rgb(254,173,33)" fill-opacity="0.501961" />
<polygon points="43,88 72,144 0,71" id="9" fill="rgb(12,24,28)" fill-opacity="0.501961" />
<polygon points="20,144 11,144 12,76" id="10" fill="rgb(0,0,17)" fill-opacity="0.501961" />
<polygon points="0,71 0,0 182,0" id="11" fill="rgb(255,173,19)" fill-opacity="0.501961" />
<polygon points="256,0 256,144 247,106" id="12" fill="rgb(247,160,96)" fill-opacity="0.501961" />
<polygon points="52,110 242,126 55,0" id="13" fill="rgb(250,169,30)" fill-opacity="0.501961" />
<polygon points="67,138 61,144 78,144" id="14" fill="rgb(0,0,30)" fill-opacity="0.501961" />
<polygon points="28,104 68,117 68,139" id="15" fill="rgb(7,21,30)" fill-opacity="0.501961" />
<polygon points="35,143 13,110 11,144" id="16" fill="rgb(0,18,26)" fill-opacity="0.501961" />
<polygon points="242,22 217,37 214,12" id="17" fill="rgb(243,68,40)" fill-opacity="0.501961" />
<polygon points="49,95 34,144 53,111" id="18" fill="rgb(9,20,26)" fill-opacity="0.501961" />
<polygon points="55,84 20,120 29,130" id="19" fill="rgb(36,35,29)" fill-opacity="0.501961" />
</svg>