<?xml version="1.0" standalone="no"?>
<svg xmlns="http://www.w3.org/2000/svg" version="1.2" baseProfile="tiny" width="256" height="185" viewBox="0 0 256 185">
<rect x="0" y="0" width="256" height="185" id="0" fill="rgb(114,88,66)" fill-opacity="1" />
<polygon points="61,57 114,154 0,153" id="1" fill="rgb(0,0,0)" fill-opacity="0.501961" />
<polygon points="40,185 188,184 177,141" id="2" fill="rgb(230,240,252)" fill-opacity="0.501961" />
<polygon points="256,144 171,70 144,140" id="3" fill="rgb(0,0,0)" fill-opacity="0.501961" />
<polygon points="64,63 139,185 96,81" id="4" fill="rgb(182,204,255)" fill-opacity="0.501961" />
<polygon points="245,135 243,185 183,185" id="5" fill="rgb(202,207,215)" fill-opacity="0.501961" />
<polygon points="0,171 0,185 105,181" id="6" fill="rgb(255,255,255)" fill-opacity="0.501961" />
<polygon points="50,185 14,87 106,129" id="7" fill="rgb(0,0,4)" fill-opacity="0.501961" />
<polygon points="0,81 219,74 105,32" id="8" fill="rgb(198,138,79)" fill-opacity="0.501961" />
<polygon points="256,132 243,94 208,67" id="9" fill="rgb(238,241,255)" fill-opacity="0.501961" />
<polygon points="116,185 105,165 168,139" id="10" fill="rgb(33,24,34)" fill-opacity="0.501961" />
<polygon points="256,138 172,161 207,65" id="11" fill="rgb(15,19,24)" fill-opacity="0.501961" />
<polygon points="0,115 0,0 86,0" id="12" fill="rgb(190,113,44)" fill-opacity="0.501961" />
<polygon points="53,59 115,22 80,8" id="13" fill="rgb(6,0,0)" fill-opacity="0.501961" />
<polygon points="45,173 3,157 41,156" id="14" fill="rgb(243,245,232)" fill-opacity="0.501961" />
<polygon points="256,0 49,0 256,75" id="15" fill="rgb(165,97,42)" fill-opacity="0.501961" />
<polygon points="150,58 105,84 152,160" id="16" fill="rgb(209,133,52)" fill-opacity="0.501961" />
<polygon points="5,106 12,170 69,65" id="17" fill="rgb(2,7,15)" fill-opacity="0.501961" />
<polygon points="137,185 192,185 143,159" id="18" fill="rgb(255,255,255)" fill-opacity="0.501961" />
<polygon points="75,185 102,185 94,145" id="19" fill="rgb(239,242,240)" fill-opacity="0.501961" />
<polygon points="227,21 160,33 213,60" id="20" fill="rgb(46,18,10)" fill-opacity="0.501961" />
<polygon points="94,60 92,104 116,112" id="21" fill="rgb(31,25,49)" fill-opacity="0.501961" />
<polygon points="129,146 84,78 129,185" id="22" fill="rgb(161,175,233)" fill-opacity="0.501961" />
<polygon points="187,154 167,166 256,162" id="23" fill="rgb(26,25,33)" fill-opacity="0.501961" />
</svg>