<?xml version="1.0" standalone="no"?>
<svg xmlns="http://www.w3.org/2000/svg" version="1.2" baseProfile="tiny" width="256" height="144" viewBox="0 0 256 144">
<rect x="0" y="0" width="256" height="144" id="0" fill="rgb(118,106,99)" fill-opacity="1" />
<polygon points="81,138 0,41 0,144" id="1" fill="rgb(0,0,3)" fill-opacity="0.501961" />
<polygon points="109,144 55,66 119,0" id="2" fill="rgb(236,230,193)" fill-opacity="0.501961" />
<polygon points="129,144 256,95 256,144" id="3" fill="rgb(3,4,18)" fill-opacity="0.501961" />
<polygon points="97,55 199,80 164,140" id="4" fill="rgb(183,184,182)" fill-opacity="0.501961" />
<polygon points="256,62 220,107 231,56" id="5" fill="rgb(255,255,249)" fill-opacity="0.501961" />
<polygon points="74,144 121,144 87,93" id="6" fill="rgb(219,230,226)" fill-opacity="0.501961" />
<polygon points="239,0 180,0 177,39" id="7" fill="rgb(245,205,174)" fill-opacity="0.501961" />
<polygon points="115,144 140,93 156,144" id="8" fill="rgb(0,0,0)" fill-opacity="0.501961" />
<polygon points="83,118 0,144 59,81" id="9" fill="rgb(1,9,21)" fill-opacity="0.501961" />
<polygon points="86,0 38,78 10,0" id="10" fill="rgb(104,58,24)" fill-opacity="0.501961" />
<polygon points="76,55 116,0 87,1" id="11" fill="rgb(217,223,157)" fill-opacity="0.501961" />
<polygon points="237,70 221,0 115,102" id="12" fill="rgb(149,105,80)" fill-opacity="0.501961" />
<polygon points="0,28 37,74 30,84" id="13" fill="rgb(206,218,228)" fill-opacity="0.501961" />
<polygon points="0,41 0,0 10,36" id="14" fill="rgb(0,89,255)" fill-opacity="0.501961" />
<polygon points="84,68 66,105 103,91" id="15" fill="rgb(106,54,32)" fill-opacity="0.501961" />
<polygon points="256,27 209,125 263,51" id="16" fill="rgb(231,199,201)" fill-opacity="0.501961" />
<polygon points="38,74 132,40 124,90" id="17" fill="rgb(191,180,171)" fill-opacity="0.501961" />
<polygon points="256,64 197,144 256,143" id="18" fill="rgb(32,31,33)" fill-opacity="0.501961" />
<polygon points="159,140 213,144 219,69" id="19" fill="rgb(85,71,86)" fill-opacity="0.501961" />
<polygon points="151,118 238,78 134,93" id="20" fill="rgb(171,172,173)" fill-opacity="0.501961" />
<polygon points="158,144 118,138 116,105" id="21" fill="rgb(22,16,14)" fill-opacity="0.501961" />
<polygon points="38,19 15,0 53,0" id="22" fill="rgb(0,9,12)" fill-opacity="0.501961" />
<polygon points="256,40 223,0 255,10" id="23" fill="rgb(173,171,188)" fill-opacity="0.501961" />
<polygon points="61,124 66,144 57,136" id="24" fill="rgb(231,222,207)" fill-opacity="0.501961" />
<polygon points="25,57 76,41 58,69" id="25" fill="rgb(80,45,31)" fill-opacity="0.501961" />
<polygon points="136,80 184,34 127,124" id="26" fill="rgb(96,90,88)" fill-opacity="0.501961" />
<polygon points="122,41 127,0 171,3" id="27" fill="rgb(62,65,63)" fill-opacity="0.501961" />
<polygon points="256,58 181,59 180,25" id="28" fill="rgb(194,131,98)" fill-opacity="0.501961" />
<polygon points="2,44 56,144 0,144" id="29" fill="rgb(23,30,41)" fill-opacity="0.501961" />
<polygon points="154,144 145,88 196,73" id="30" fill="rgb(170,172,168)" fill-opacity="0.501961" />
<polygon points="8,36 66,0 76,44" id="31" fill="rgb(160,114,84)" fill-opacity="0.501961" />
<polygon points="226,37 211,130 195,144" id="32" fill="rgb(154,70,54)" fill-opacity="0.501961" />
<polygon points="115,144 112,77 71,129" id="33" fill="rgb(180,184,181)" fill-opacity="0.501961" />
<polygon points="76,144 75,112 36,55" id="34" fill="rgb(29,38,56)" fill-opacity="0.501961" />
<polygon points="180,144 214,87 184,98" id="35" fill="rgb(64,99,131)" fill-opacity="0.501961" />
<polygon points="122,144 113,130 77,144" id="36" fill="rgb(212,206,190)" fill-opacity="0.501961" />
<polygon points="56,111 0,115 37,79" id="37" fill="rgb(66,67,81)" fill-opacity="0.501961" />
<polygon points="203,99 188,144 196,144" id="38" fill="rgb(6,14,10)" fill-opacity="0.501961" />
<polygon points="159,100 198,67 116,59" id="39" fill="rgb(111,117,118)" fill-opacity="0.501961" />
<polygon points="122,98 180,-9 193,0" id="40" fill="rgb(143,150,146)" fill-opacity="0.501961" />
<polygon points="179,27 182,11 203,0" id="41" fill="rgb(240,230,236)" fill-opacity="0.501961" />
<polygon points="97,64 105,90 57,84" id="42" fill="rgb(166,114,86)" fill-opacity="0.501961" />
<polygon points="243,51 243,13 224,26" id="43" fill="rgb(70,58,54)" fill-opacity="0.501961" />
<polygon points="208,90 256,65 231,90" id="44" fill="rgb(209,216,201)" fill-opacity="0.501961" />
<polygon points="178,135 172,159 125,142" id="45" fill="rgb(9,15,18)" fill-opacity="0.501961" />
<polygon points="212,88 182,61 249,59" id="46" fill="rgb(139,88,58)" fill-opacity="0.501961" />
<polygon points="65,84 31,144 81,113" id="47" fill="rgb(32,32,34)" fill-opacity="0.501961" />
<polygon points="17,53 6,33 2,44" id="48" fill="rgb(212,230,242)" fill-opacity="0.501961" />
<polygon points="136,70 78,106 87,123" id="49" fill="rgb(195,195,194)" fill-opacity="0.501961" />
<polygon points="142,92 109,105 136,125" id="50" fill="rgb(143,85,56)" fill-opacity="0.501961" />
<polygon points="209,88 207,102 192,129" id="51" fill="rgb(7,4,6)" fill-opacity="0.501961" />
<polygon points="123,11 65,5 97,52" id="52" fill="rgb(167,164,127)" fill-opacity="0.501961" />
</svg>