<?xml version="1.0" standalone="no"?>
<svg xmlns="http://www.w3.org/2000/svg" version="1.2" baseProfile="tiny" width="256" height="183" viewBox="0 0 256 183">
<rect x="0" y="0" width="256" height="183" id="0" fill="rgb(95,50,38)" fill-opacity="1" />
<polygon points="256,163 131,113 131,183" id="1" fill="rgb(255,229,216)" fill-opacity="0.501961" />
<polygon points="0,167 33,22 99,141" id="2" fill="rgb(0,0,11)" fill-opacity="0.501961" />
<polygon points="28,183 162,183 129,119" id="3" fill="rgb(189,119,80)" fill-opacity="0.501961" />
<polygon points="256,140 256,0 77,75" id="4" fill="rgb(64,1,0)" fill-opacity="0.501961" />
<polygon points="83,81 65,74 105,142" id="5" fill="rgb(190,220,255)" fill-opacity="0.501961" />
<polygon points="256,160 154,155 256,148" id="6" fill="rgb(255,255,255)" fill-opacity="0.501961" />
<polygon points="0,163 31,175 0,181" id="7" fill="rgb(255,251,241)" fill-opacity="0.501961" />
<polygon points="184,110 169,138 130,140" id="8" fill="rgb(241,245,255)" fill-opacity="0.501961" />
<polygon points="53,58 24,172 73,163" id="9" fill="rgb(0,6,14)" fill-opacity="0.501961" />
<polygon points="159,137 256,134 221,158" id="10" fill="rgb(187,64,6)" fill-opacity="0.501961" />
<polygon points="0,0 0,53 256,0" id="11" fill="rgb(71,12,0)" fill-opacity="0.501961" />
<polygon points="94,76 27,50 97,31" id="12" fill="rgb(177,115,80)" fill-opacity="0.501961" />
<polygon points="256,129 209,136 256,46" id="13" fill="rgb(0,0,8)" fill-opacity="0.501961" />
<polygon points="199,161 71,150 145,121" id="14" fill="rgb(170,165,173)" fill-opacity="0.501961" />
<polygon points="81,69 150,121 100,120" id="15" fill="rgb(0,8,22)" fill-opacity="0.501961" />
<polygon points="228,183 65,162 0,182" id="16" fill="rgb(176,80,25)" fill-opacity="0.501961" />
<polygon points="157,176 174,147 211,154" id="17" fill="rgb(241,243,250)" fill-opacity="0.501961" />
</svg>