<?xml version="1.0" standalone="no"?>
<svg xmlns="http://www.w3.org/2000/svg" version="1.2" baseProfile="tiny" width="256" height="170" viewBox="0 0 256 170">
<rect x="0" y="0" width="256" height="170" id="0" fill="rgb(56,83,140)" fill-opacity="1" />
<polygon points="139,170 154,88 185,170" id="1" fill="rgb(0,0,0)" fill-opacity="0.501961" />
<polygon points="127,0 199,89 133,100" id="2" fill="rgb(113,187,255)" fill-opacity="0.501961" />
<polygon points="101,170 0,0 0,169" id="3" fill="rgb(32,40,99)" fill-opacity="0.501961" />
<polygon points="134,0 192,170 256,6" id="4" fill="rgb(67,113,174)" fill-opacity="0.501961" />
<polygon points="182,170 137,170 162,101" id="5" fill="rgb(10,0,0)" fill-opacity="0.501961" />
<polygon points="117,0 150,98 150,0" id="6" fill="rgb(115,182,255)" fill-opacity="0.501961" />
<polygon points="174,98 147,170 141,100" id="7" fill="rgb(55,25,0)" fill-opacity="0.501961" />
<polygon points="67,0 1,0 65,109" id="8" fill="rgb(41,46,104)" fill-opacity="0.501961" />
<polygon points="159,0 256,170 169,135" id="9" fill="rgb(64,104,159)" fill-opacity="0.501961" />
<polygon points="108,170 150,144 119,0" id="10" fill="rgb(70,105,172)" fill-opacity="0.501961" />
<polygon points="187,108 119,170 131,153" id="11" fill="rgb(99,132,178)" fill-opacity="0.501961" />
<polygon points="138,131 150,97 160,139" id="12" fill="rgb(73,24,0)" fill-opacity="0.501961" />
<polygon points="142,155 174,181 182,143" id="13" fill="rgb(0,0,0)" fill-opacity="0.501961" />
<polygon points="184,170 256,170 147,0" id="14" fill="rgb(65,103,158)" fill-opacity="0.501961" />
<polygon points="163,91 147,57 136,103" id="15" fill="rgb(111,177,244)" fill-opacity="0.501961" />
<polygon points="121,0 116,170 42,132" id="16" fill="rgb(53,81,152)" fill-opacity="0.501961" />
</svg>