<?xml version="1.0" standalone="no"?>
<svg xmlns="http://www.w3.org/2000/svg" version="1.2" baseProfile="tiny" width="256" height="181" viewBox="0 0 256 181">
<rect x="0" y="0" width="256" height="181" id="0" fill="rgb(105,53,26)" fill-opacity="1" />
<polygon points="132,149 99,33 152,24" id="1" fill="rgb(220,204,202)" fill-opacity="0.501961" />
<polygon points="79,181 0,93 228,173" id="2" fill="rgb(0,0,0)" fill-opacity="0.501961" />
<polygon points="113,53 251,115 256,58" id="3" fill="rgb(255,149,45)" fill-opacity="0.501961" />
<polygon points="125,73 174,148 103,134" id="4" fill="rgb(187,185,195)" fill-opacity="0.501961" />
<polygon points="0,181 82,181 0,131" id="5" fill="rgb(255,115,87)" fill-opacity="0.501961" />
<polygon points="162,0 255,0 256,65" id="6" fill="rgb(0,0,0)" fill-opacity="0.501961" />
<polygon points="222,146 141,63 182,169" id="7" fill="rgb(0,0,12)" fill-opacity="0.501961" />
<polygon points="93,172 113,63 0,125" id="8" fill="rgb(0,0,13)" fill-opacity="0.501961" />
<polygon points="0,158 0,0 148,0" id="9" fill="rgb(159,42,0)" fill-opacity="0.501961" />
<polygon points="143,67 145,119 214,130" id="10" fill="rgb(0,12,21)" fill-opacity="0.501961" />
<polygon points="70,181 184,181 128,134" id="11" fill="rgb(0,0,8)" fill-opacity="0.501961" />
<polygon points="256,81 256,181 172,181" id="12" fill="rgb(149,44,0)" fill-opacity="0.501961" />
<polygon points="0,23 95,0 132,84" id="13" fill="rgb(151,66,0)" fill-opacity="0.501961" />
<polygon points="255,0 176,55 256,55" id="14" fill="rgb(0,0,0)" fill-opacity="0.501961" />
<polygon points="232,181 256,87 180,84" id="15" fill="rgb(137,50,0)" fill-opacity="0.501961" />
<polygon points="214,161 170,160 182,85" id="16" fill="rgb(0,4,8)" fill-opacity="0.501961" />
</svg>