<?xml version="1.0" standalone="no"?>
<svg xmlns="http://www.w3.org/2000/svg" version="1.2" baseProfile="tiny" width="256" height="170" viewBox="0 0 256 170">
<rect x="0" y="0" width="256" height="170" id="0" fill="rgb(93,72,65)" fill-opacity="1" />
<polygon points="119,1 0,77 0,0" id="1" fill="rgb(255,218,135)" fill-opacity="0.501961" />
<polygon points="54,170 238,84 256,170" id="2" fill="rgb(0,0,23)" fill-opacity="0.501961" />
<polygon points="0,23 192,82 157,128" id="3" fill="rgb(213,153,134)" fill-opacity="0.501961" />
<polygon points="97,86 5,59 0,137" id="4" fill="rgb(0,0,0)" fill-opacity="0.501961" />
<polygon points="256,32 42,170 0,152" id="5" fill="rgb(188,122,107)" fill-opacity="0.501961" />
<polygon points="95,0 206,52 67,54" id="6" fill="rgb(15,17,20)" fill-opacity="0.501961" />
<polygon points="2,53 79,0 70,58" id="7" fill="rgb(220,194,140)" fill-opacity="0.501961" />
<polygon points="188,0 253,0 256,45" id="8" fill="rgb(3,9,15)" fill-opacity="0.501961" />
<polygon points="160,95 217,21 247,63" id="9" fill="rgb(174,117,105)" fill-opacity="0.501961" />
<polygon points="106,43 149,56 58,170" id="10" fill="rgb(175,117,103)" fill-opacity="0.501961" />
<polygon points="132,40 170,83 202,13" id="11" fill="rgb(14,22,30)" fill-opacity="0.501961" />
<polygon points="49,141 10,63 81,60" id="12" fill="rgb(13,17,21)" fill-opacity="0.501961" />
<polygon points="137,105 63,170 142,139" id="13" fill="rgb(12,16,35)" fill-opacity="0.501961" />
<polygon points="92,142 106,140 74,109" id="14" fill="rgb(206,214,229)" fill-opacity="0.501961" />
<polygon points="9,152 26,170 14,170" id="15" fill="rgb(237,255,255)" fill-opacity="0.501961" />
<polygon points="170,129 256,170 173,170" id="16" fill="rgb(0,0,0)" fill-opacity="0.501961" />
<polygon points="93,21 232,0 80,0" id="17" fill="rgb(98,60,24)" fill-opacity="0.501961" />
<polygon points="229,105 256,9 256,108" id="18" fill="rgb(67,19,10)" fill-opacity="0.501961" />
<polygon points="88,0 1,76 19,0" id="19" fill="rgb(199,166,116)" fill-opacity="0.501961" />
<polygon points="83,149 23,118 5,148" id="20" fill="rgb(176,106,84)" fill-opacity="0.501961" />
<polygon points="240,111 256,112 247,123" id="21" fill="rgb(195,200,220)" fill-opacity="0.501961" />
<polygon points="46,135 166,98 83,97" id="22" fill="rgb(133,76,63)" fill-opacity="0.501961" />
<polygon points="0,130 0,81 97,94" id="23" fill="rgb(13,16,20)" fill-opacity="0.501961" />
<polygon points="203,39 197,13 230,27" id="24" fill="rgb(127,137,156)" fill-opacity="0.501961" />
<polygon points="99,170 79,137 89,137" id="25" fill="rgb(0,0,2)" fill-opacity="0.501961" />
<polygon points="97,170 116,170 98,108" id="26" fill="rgb(96,54,74)" fill-opacity="0.501961" />
<polygon points="14,28 0,83 0,0" id="27" fill="rgb(153,97,47)" fill-opacity="0.501961" />
<polygon points="0,170 16,170 0,148" id="28" fill="rgb(0,0,3)" fill-opacity="0.501961" />
<polygon points="149,60 113,42 106,62" id="29" fill="rgb(194,141,121)" fill-opacity="0.501961" />
<polygon points="81,33 140,28 82,62" id="30" fill="rgb(21,19,21)" fill-opacity="0.501961" />
<polygon points="165,31 190,11 92,16" id="31" fill="rgb(82,88,98)" fill-opacity="0.501961" />
</svg>