<?xml version="1.0" standalone="no"?>
<svg xmlns="http://www.w3.org/2000/svg" version="1.2" baseProfile="tiny" width="256" height="158" viewBox="0 0 256 158">
<rect x="0" y="0" width="256" height="158" id="0" fill="rgb(114,112,112)" fill-opacity="1" />
<polygon points="256,0 140,0 256,73" id="1" fill="rgb(21,13,0)" fill-opacity="0.501961" />
<polygon points="137,143 0,123 256,116" id="2" fill="rgb(201,209,224)" fill-opacity="0.501961" />
<polygon points="157,0 0,40 109,70" id="3" fill="rgb(167,176,189)" fill-opacity="0.501961" />
<polygon points="150,134 197,158 0,151" id="4" fill="rgb(66,46,21)" fill-opacity="0.501961" />
<polygon points="0,122 72,136 0,140" id="5" fill="rgb(224,229,246)" fill-opacity="0.501961" />
<polygon points="134,67 46,123 42,54" id="6" fill="rgb(73,58,52)" fill-opacity="0.501961" />
<polygon points="185,67 130,60 256,71" id="7" fill="rgb(255,255,255)" fill-opacity="0.501961" />
<polygon points="256,136 256,119 114,137" id="8" fill="rgb(215,221,233)" fill-opacity="0.501961" />
<polygon points="0,130 0,41 49,61" id="9" fill="rgb(74,52,33)" fill-opacity="0.501961" />
<polygon points="145,0 238,82 76,54" id="10" fill="rgb(148,156,169)" fill-opacity="0.501961" />
<polygon points="0,22 113,59 0,44" id="11" fill="rgb(200,203,208)" fill-opacity="0.501961" />
<polygon points="49,23 155,0 19,0" id="12" fill="rgb(158,172,186)" fill-opacity="0.501961" />
<polygon points="170,99 179,72 127,64" id="13" fill="rgb(17,27,49)" fill-opacity="0.501961" />
<polygon points="256,20 148,0 223,67" id="14" fill="rgb(53,49,37)" fill-opacity="0.501961" />
<polygon points="41,139 35,89 43,68" id="15" fill="rgb(253,218,211)" fill-opacity="0.501961" />
<polygon points="0,120 120,82 153,115" id="16" fill="rgb(100,72,57)" fill-opacity="0.501961" />
<polygon points="0,0 62,29 80,60" id="17" fill="rgb(89,79,69)" fill-opacity="0.501961" />
<polygon points="109,26 147,55 97,11" id="18" fill="rgb(15,32,20)" fill-opacity="0.501961" />
<polygon points="68,34 52,35 45,76" id="19" fill="rgb(201,194,195)" fill-opacity="0.501961" />
<polygon points="0,142 104,139 0,158" id="20" fill="rgb(70,56,45)" fill-opacity="0.501961" />
<polygon points="227,0 272,29 256,0" id="21" fill="rgb(161,127,115)" fill-opacity="0.501961" />
<polygon points="22,0 58,35 0,22" id="22" fill="rgb(63,56,46)" fill-opacity="0.501961" />
<polygon points="102,131 88,139 40,134" id="23" fill="rgb(232,227,230)" fill-opacity="0.501961" />
<polygon points="256,83 205,76 162,74" id="24" fill="rgb(186,205,218)" fill-opacity="0.501961" />
<polygon points="89,76 55,62 129,73" id="25" fill="rgb(19,23,37)" fill-opacity="0.501961" />
<polygon points="192,126 185,158 224,158" id="26" fill="rgb(158,162,174)" fill-opacity="0.501961" />
<polygon points="141,71 110,78 141,95" id="27" fill="rgb(213,155,160)" fill-opacity="0.501961" />
<polygon points="243,137 110,139 140,158" id="28" fill="rgb(52,58,56)" fill-opacity="0.501961" />
<polygon points="59,11 174,62 121,58" id="29" fill="rgb(102,106,112)" fill-opacity="0.501961" />
<polygon points="6,122 34,75 36,110" id="30" fill="rgb(86,63,39)" fill-opacity="0.501961" />
<polygon points="62,59 35,65 20,47" id="31" fill="rgb(44,45,41)" fill-opacity="0.501961" />
<polygon points="191,151 161,116 232,115" id="32" fill="rgb(154,162,174)" fill-opacity="0.501961" />
<polygon points="233,111 192,116 175,69" id="33" fill="rgb(63,84,111)" fill-opacity="0.501961" />
<polygon points="33,123 59,158 54,119" id="34" fill="rgb(174,167,172)" fill-opacity="0.501961" />
<polygon points="136,130 192,133 86,134" id="35" fill="rgb(225,221,221)" fill-opacity="0.501961" />
<polygon points="132,136 114,158 74,137" id="36" fill="rgb(137,101,77)" fill-opacity="0.501961" />
<polygon points="153,64 74,54 182,64" id="37" fill="rgb(255,255,255)" fill-opacity="0.501961" />
<polygon points="48,86 96,77 137,110" id="38" fill="rgb(131,110,105)" fill-opacity="0.501961" />
<polygon points="191,67 251,75 256,69" id="39" fill="rgb(226,227,232)" fill-opacity="0.501961" />
<polygon points="111,49 67,9 69,18" id="40" fill="rgb(68,60,54)" fill-opacity="0.501961" />
<polygon points="210,83 243,110 240,113" id="41" fill="rgb(26,27,27)" fill-opacity="0.501961" />
<polygon points="63,0 126,57 57,0" id="42" fill="rgb(187,192,196)" fill-opacity="0.501961" />
<polygon points="40,130 45,75 36,71" id="43" fill="rgb(214,191,185)" fill-opacity="0.501961" />
<polygon points="29,50 0,22 48,35" id="44" fill="rgb(186,190,199)" fill-opacity="0.501961" />
<polygon points="108,68 133,83 137,80" id="45" fill="rgb(26,33,60)" fill-opacity="0.501961" />
<polygon points="251,136 256,152 239,136" id="46" fill="rgb(13,36,55)" fill-opacity="0.501961" />
<polygon points="112,0 167,47 181,56" id="47" fill="rgb(53,45,33)" fill-opacity="0.501961" />
<polygon points="110,69 62,63 66,54" id="48" fill="rgb(134,150,170)" fill-opacity="0.501961" />
<polygon points="43,138 0,157 122,155" id="49" fill="rgb(97,83,69)" fill-opacity="0.501961" />
<polygon points="256,113 232,113 256,76" id="50" fill="rgb(80,88,95)" fill-opacity="0.501961" />
<polygon points="182,85 158,73 127,67" id="51" fill="rgb(2,5,14)" fill-opacity="0.501961" />
<polygon points="66,41 27,5 0,3" id="52" fill="rgb(100,91,82)" fill-opacity="0.501961" />
<polygon points="2,51 0,42 41,54" id="53" fill="rgb(38,41,42)" fill-opacity="0.501961" />
<polygon points="188,118 147,118 147,88" id="54" fill="rgb(135,140,152)" fill-opacity="0.501961" />
<polygon points="245,72 256,74 197,70" id="55" fill="rgb(77,84,94)" fill-opacity="0.501961" />
<polygon points="256,128 253,113 206,127" id="56" fill="rgb(133,144,161)" fill-opacity="0.501961" />
<polygon points="176,7 210,0 256,26" id="57" fill="rgb(34,44,32)" fill-opacity="0.501961" />
<polygon points="155,90 127,88 136,86" id="58" fill="rgb(255,138,44)" fill-opacity="0.501961" />
<polygon points="77,54 63,52 41,52" id="59" fill="rgb(254,253,254)" fill-opacity="0.501961" />
<polygon points="223,64 167,-1 147,0" id="60" fill="rgb(83,72,60)" fill-opacity="0.501961" />
<polygon points="47,33 0,9 0,21" id="61" fill="rgb(62,59,57)" fill-opacity="0.501961" />
<polygon points="145,72 140,80 190,119" id="62" fill="rgb(71,74,77)" fill-opacity="0.501961" />
<polygon points="237,68 229,12 192,41" id="63" fill="rgb(65,56,48)" fill-opacity="0.501961" />
<polygon points="42,0 22,0 58,19" id="64" fill="rgb(173,179,188)" fill-opacity="0.501961" />
<polygon points="57,51 36,100 36,80" id="65" fill="rgb(205,177,171)" fill-opacity="0.501961" />
<polygon points="80,53 62,45 75,46" id="66" fill="rgb(48,40,39)" fill-opacity="0.501961" />
<polygon points="140,117 0,136 0,122" id="67" fill="rgb(151,156,171)" fill-opacity="0.501961" />
<polygon points="249,72 272,72 263,49" id="68" fill="rgb(200,190,193)" fill-opacity="0.501961" />
<polygon points="180,87 202,106 223,125" id="69" fill="rgb(174,172,182)" fill-opacity="0.501961" />
<polygon points="217,67 138,0 162,17" id="70" fill="rgb(204,201,205)" fill-opacity="0.501961" />
<polygon points="98,85 136,66 102,62" id="71" fill="rgb(46,57,76)" fill-opacity="0.501961" />
<polygon points="183,105 233,150 148,74" id="72" fill="rgb(185,184,197)" fill-opacity="0.501961" />
<polygon points="101,0 185,67 106,0" id="73" fill="rgb(188,188,195)" fill-opacity="0.501961" />
<polygon points="82,16 139,51 85,3" id="74" fill="rgb(125,138,155)" fill-opacity="0.501961" />
<polygon points="0,46 34,76 33,67" id="75" fill="rgb(147,117,114)" fill-opacity="0.501961" />
<polygon points="184,140 145,138 134,171" id="76" fill="rgb(47,51,39)" fill-opacity="0.501961" />
<polygon points="16,147 13,158 45,158" id="77" fill="rgb(130,123,125)" fill-opacity="0.501961" />
<polygon points="237,136 153,137 156,136" id="78" fill="rgb(252,255,255)" fill-opacity="0.501961" />
<polygon points="256,70 193,65 203,58" id="79" fill="rgb(123,112,115)" fill-opacity="0.501961" />
<polygon points="130,101 104,117 146,110" id="80" fill="rgb(69,58,56)" fill-opacity="0.501961" />
<polygon points="31,69 0,97 27,118" id="81" fill="rgb(72,65,54)" fill-opacity="0.501961" />
<polygon points="37,25 62,30 85,2" id="82" fill="rgb(127,128,131)" fill-opacity="0.501961" />
<polygon points="96,0 169,57 121,31" id="83" fill="rgb(111,124,142)" fill-opacity="0.501961" />
<polygon points="14,105 13,122 2,106" id="84" fill="rgb(148,127,109)" fill-opacity="0.501961" />
<polygon points="0,35 12,28 102,45" id="85" fill="rgb(173,179,187)" fill-opacity="0.501961" />
<polygon points="66,140 91,138 87,153" id="86" fill="rgb(43,42,33)" fill-opacity="0.501961" />
<polygon points="43,139 -7,135 54,134" id="87" fill="rgb(217,215,218)" fill-opacity="0.501961" />
<polygon points="114,75 151,71 122,82" id="88" fill="rgb(147,180,199)" fill-opacity="0.501961" />
<polygon points="256,135 214,145 256,148" id="89" fill="rgb(63,81,105)" fill-opacity="0.501961" />
</svg>