<?xml version="1.0" standalone="no"?>
<svg xmlns="http://www.w3.org/2000/svg" version="1.2" baseProfile="tiny" width="210" height="256" viewBox="0 0 210 256">
<rect x="0" y="0" width="210" height="256" id="0" fill="rgb(156,149,150)" fill-opacity="1" />
<polygon points="0,0 210,0 0,121" id="1" fill="rgb(255,255,255)" fill-opacity="0.501961" />
<polygon points="72,64 206,256 0,256" id="2" fill="rgb(59,33,37)" fill-opacity="0.501961" />
<polygon points="0,154 129,256 0,62" id="3" fill="rgb(234,242,252)" fill-opacity="0.501961" />
<polygon points="210,130 109,59 210,0" id="4" fill="rgb(255,254,255)" fill-opacity="0.501961" />
<polygon points="46,173 0,256 100,256" id="5" fill="rgb(0,0,4)" fill-opacity="0.501961" />
<polygon points="89,66 141,90 49,107" id="6" fill="rgb(0,0,0)" fill-opacity="0.501961" />
<polygon points="167,219 43,124 142,101" id="7" fill="rgb(231,129,103)" fill-opacity="0.501961" />
<polygon points="210,242 130,256 110,188" id="8" fill="rgb(0,8,22)" fill-opacity="0.501961" />
<polygon points="53,187 0,256 0,205" id="9" fill="rgb(0,0,21)" fill-opacity="0.501961" />
<polygon points="135,103 120,11 107,62" id="10" fill="rgb(218,14,0)" fill-opacity="0.501961" />
<polygon points="0,207 16,0 58,167" id="11" fill="rgb(230,240,244)" fill-opacity="0.501961" />
</svg>