<?xml version="1.0" standalone="no"?>
<svg xmlns="http://www.w3.org/2000/svg" version="1.2" baseProfile="tiny" width="256" height="217" viewBox="0 0 256 217">
<rect x="0" y="0" width="256" height="217" id="0" fill="rgb(207,193,174)" fill-opacity="1" />
<polygon points="38,31 221,38 234,167" id="1" fill="rgb(141,91,0)" fill-opacity="0.501961" />
<polygon points="87,153 0,209 0,140" id="2" fill="rgb(0,0,0)" fill-opacity="0.501961" />
<polygon points="140,101 209,217 5,217" id="3" fill="rgb(255,255,255)" fill-opacity="0.501961" />
<polygon points="223,66 180,121 235,208" id="4" fill="rgb(0,26,104)" fill-opacity="0.501961" />
<polygon points="81,0 0,151 0,0" id="5" fill="rgb(255,255,255)" fill-opacity="0.501961" />
<polygon points="71,130 203,43 63,13" id="6" fill="rgb(255,171,11)" fill-opacity="0.501961" />
<polygon points="256,0 174,35 4,0" id="7" fill="rgb(255,255,255)" fill-opacity="0.501961" />
<polygon points="0,198 53,185 31,123" id="8" fill="rgb(0,0,16)" fill-opacity="0.501961" />
<polygon points="256,0 256,217 227,217" id="9" fill="rgb(255,255,255)" fill-opacity="0.501961" />
<polygon points="0,0 89,100 0,140" id="10" fill="rgb(255,255,255)" fill-opacity="0.501961" />
<polygon points="204,208 192,191 239,81" id="11" fill="rgb(0,30,64)" fill-opacity="0.501961" />
</svg>