<?xml version="1.0" standalone="no"?>
<svg xmlns="http://www.w3.org/2000/svg" version="1.2" baseProfile="tiny" width="256" height="193" viewBox="0 0 256 193">
<rect x="0" y="0" width="256" height="193" id="0" fill="rgb(165,157,140)" fill-opacity="1" />
<polygon points="14,163 75,171 53,43" id="1" fill="rgb(218,209,185)" fill-opacity="0.501961" />
<polygon points="130,41 231,112 250,68" id="2" fill="rgb(223,206,188)" fill-opacity="0.501961" />
<polygon points="184,88 156,125 65,117" id="3" fill="rgb(105,98,86)" fill-opacity="0.501961" />
<polygon points="158,185 251,115 240,193" id="4" fill="rgb(118,110,102)" fill-opacity="0.501961" />
<polygon points="96,34 77,0 101,0" id="5" fill="rgb(45,45,42)" fill-opacity="0.501961" />
<polygon points="189,58 131,103 57,81" id="6" fill="rgb(216,202,182)" fill-opacity="0.501961" />
<polygon points="0,112 25,0 0,3" id="7" fill="rgb(106,98,84)" fill-opacity="0.501961" />
<polygon points="169,14 169,0 122,0" id="8" fill="rgb(38,39,42)" fill-opacity="0.501961" />
<polygon points="176,147 186,124 209,149" id="9" fill="rgb(255,243,222)" fill-opacity="0.501961" />
<polygon points="47,0 36,55 7,26" id="10" fill="rgb(213,202,181)" fill-opacity="0.501961" />
<polygon points="181,120 202,115 199,99" id="11" fill="rgb(26,25,19)" fill-opacity="0.501961" />
<polygon points="75,193 94,193 87,157" id="12" fill="rgb(85,80,65)" fill-opacity="0.501961" />
<polygon points="33,193 66,193 0,67" id="13" fill="rgb(204,195,172)" fill-opacity="0.501961" />
<polygon points="57,89 116,130 126,121" id="14" fill="rgb(88,87,77)" fill-opacity="0.501961" />
<polygon points="169,155 144,132 90,193" id="15" fill="rgb(206,194,177)" fill-opacity="0.501961" />
<polygon points="190,66 135,117 205,36" id="16" fill="rgb(102,99,93)" fill-opacity="0.501961" />
<polygon points="97,67 149,19 90,86" id="17" fill="rgb(93,88,76)" fill-opacity="0.501961" />
<polygon points="85,46 25,77 99,48" id="18" fill="rgb(94,92,80)" fill-opacity="0.501961" />
<polygon points="176,35 146,27 204,7" id="19" fill="rgb(233,214,198)" fill-opacity="0.501961" />
<polygon points="192,13 182,37 207,40" id="20" fill="rgb(80,76,71)" fill-opacity="0.501961" />
<polygon points="16,57 0,101 24,59" id="21" fill="rgb(67,69,63)" fill-opacity="0.501961" />
<polygon points="223,79 229,26 205,73" id="22" fill="rgb(120,113,103)" fill-opacity="0.501961" />
<polygon points="107,39 159,0 77,86" id="23" fill="rgb(219,204,186)" fill-opacity="0.501961" />
<polygon points="221,66 173,32 215,46" id="24" fill="rgb(229,214,196)" fill-opacity="0.501961" />
<polygon points="155,146 172,49 144,55" id="25" fill="rgb(204,192,177)" fill-opacity="0.501961" />
<polygon points="18,150 0,136 17,136" id="26" fill="rgb(29,32,29)" fill-opacity="0.501961" />
<polygon points="28,168 0,180 0,162" id="27" fill="rgb(87,88,71)" fill-opacity="0.501961" />
<polygon points="182,161 233,182 200,193" id="28" fill="rgb(203,189,167)" fill-opacity="0.501961" />
<polygon points="237,145 256,193 220,193" id="29" fill="rgb(99,92,81)" fill-opacity="0.501961" />
<polygon points="32,37 48,0 88,18" id="30" fill="rgb(126,119,102)" fill-opacity="0.501961" />
<polygon points="25,135 21,98 35,106" id="31" fill="rgb(93,93,78)" fill-opacity="0.501961" />
<polygon points="240,163 256,160 256,123" id="32" fill="rgb(233,222,215)" fill-opacity="0.501961" />
<polygon points="196,2 253,0 236,5" id="33" fill="rgb(65,59,56)" fill-opacity="0.501961" />
<polygon points="141,115 162,100 143,100" id="34" fill="rgb(40,38,32)" fill-opacity="0.501961" />
<polygon points="64,163 66,184 58,170" id="35" fill="rgb(29,32,29)" fill-opacity="0.501961" />
<polygon points="33,75 74,54 26,98" id="36" fill="rgb(219,212,187)" fill-opacity="0.501961" />
<polygon points="242,139 206,135 256,121" id="37" fill="rgb(83,81,76)" fill-opacity="0.501961" />
<polygon points="82,146 195,84 67,176" id="38" fill="rgb(195,182,161)" fill-opacity="0.501961" />
<polygon points="178,96 169,164 156,115" id="39" fill="rgb(114,109,97)" fill-opacity="0.501961" />
<polygon points="35,6 19,0 11,18" id="40" fill="rgb(48,46,38)" fill-opacity="0.501961" />
<polygon points="150,7 109,17 137,1" id="41" fill="rgb(65,62,60)" fill-opacity="0.501961" />
<polygon points="99,193 138,158 142,188" id="42" fill="rgb(131,125,113)" fill-opacity="0.501961" />
<polygon points="84,120 90,95 64,119" id="43" fill="rgb(220,209,187)" fill-opacity="0.501961" />
<polygon points="194,10 209,51 207,0" id="44" fill="rgb(230,212,198)" fill-opacity="0.501961" />
<polygon points="95,48 121,67 105,0" id="45" fill="rgb(201,186,167)" fill-opacity="0.501961" />
<polygon points="91,177 87,193 109,167" id="46" fill="rgb(40,43,40)" fill-opacity="0.501961" />
<polygon points="132,43 142,31 137,24" id="47" fill="rgb(14,16,15)" fill-opacity="0.501961" />
<polygon points="190,131 251,82 241,58" id="48" fill="rgb(227,209,189)" fill-opacity="0.501961" />
<polygon points="3,40 14,11 -10,39" id="49" fill="rgb(46,45,33)" fill-opacity="0.501961" />
<polygon points="150,119 109,159 135,130" id="50" fill="rgb(47,46,42)" fill-opacity="0.501961" />
<polygon points="177,112 230,82 179,59" id="51" fill="rgb(203,190,171)" fill-opacity="0.501961" />
<polygon points="105,84 109,62 106,89" id="52" fill="rgb(18,18,13)" fill-opacity="0.501961" />
<polygon points="252,31 248,-12 244,41" id="53" fill="rgb(249,224,211)" fill-opacity="0.501961" />
<polygon points="90,105 32,85 150,114" id="54" fill="rgb(102,99,88)" fill-opacity="0.501961" />
<polygon points="108,128 124,124 149,87" id="55" fill="rgb(63,61,49)" fill-opacity="0.501961" />
<polygon points="56,144 80,148 75,115" id="56" fill="rgb(133,111,99)" fill-opacity="0.501961" />
<polygon points="105,119 118,123 117,103" id="57" fill="rgb(204,191,169)" fill-opacity="0.501961" />
<polygon points="221,166 235,156 205,161" id="58" fill="rgb(236,225,201)" fill-opacity="0.501961" />
<polygon points="207,129 208,118 220,118" id="59" fill="rgb(55,52,44)" fill-opacity="0.501961" />
<polygon points="49,181 37,163 29,162" id="60" fill="rgb(47,58,61)" fill-opacity="0.501961" />
<polygon points="144,112 219,78 170,101" id="61" fill="rgb(77,73,64)" fill-opacity="0.501961" />
<polygon points="82,188 19,178 76,193" id="62" fill="rgb(239,227,199)" fill-opacity="0.501961" />
<polygon points="20,111 12,134 0,99" id="63" fill="rgb(226,219,199)" fill-opacity="0.501961" />
<polygon points="189,134 179,163 222,140" id="64" fill="rgb(218,205,186)" fill-opacity="0.501961" />
<polygon points="192,186 200,193 170,181" id="65" fill="rgb(21,20,17)" fill-opacity="0.501961" />
<polygon points="0,57 0,64 32,87" id="66" fill="rgb(58,58,51)" fill-opacity="0.501961" />
<polygon points="113,103 87,148 82,138" id="67" fill="rgb(88,86,79)" fill-opacity="0.501961" />
<polygon points="246,42 226,44 270,45" id="68" fill="rgb(38,34,31)" fill-opacity="0.501961" />
<polygon points="187,37 221,26 199,41" id="69" fill="rgb(74,72,67)" fill-opacity="0.501961" />
<polygon points="206,158 179,162 214,170" id="70" fill="rgb(75,73,64)" fill-opacity="0.501961" />
<polygon points="68,0 52,57 70,31" id="71" fill="rgb(212,197,171)" fill-opacity="0.501961" />
</svg>