<?xml version="1.0" standalone="no"?>
<svg xmlns="http://www.w3.org/2000/svg" version="1.2" baseProfile="tiny" width="256" height="217" viewBox="0 0 256 217">
<rect x="0" y="0" width="256" height="217" id="0" fill="rgb(133,128,125)" fill-opacity="1" />
<polygon points="0,6 165,135 0,217" id="1" fill="rgb(7,6,3)" fill-opacity="0.501961" />
<polygon points="256,0 252,167 42,0" id="2" fill="rgb(236,231,229)" fill-opacity="0.501961" />
<polygon points="141,217 256,217 174,148" id="3" fill="rgb(251,248,246)" fill-opacity="0.501961" />
<polygon points="254,125 70,93 35,158" id="4" fill="rgb(174,154,124)" fill-opacity="0.501961" />
<polygon points="220,9 146,81 244,0" id="5" fill="rgb(0,0,0)" fill-opacity="0.501961" />
<polygon points="144,153 231,99 251,142" id="6" fill="rgb(96,58,12)" fill-opacity="0.501961" />
<polygon points="56,212 0,217 0,10" id="7" fill="rgb(1,3,9)" fill-opacity="0.501961" />
<polygon points="86,199 134,217 150,184" id="8" fill="rgb(0,0,0)" fill-opacity="0.501961" />
<polygon points="151,103 193,0 68,17" id="9" fill="rgb(219,220,228)" fill-opacity="0.501961" />
<polygon points="131,98 0,19 0,84" id="10" fill="rgb(13,10,12)" fill-opacity="0.501961" />
<polygon points="183,200 208,217 211,193" id="11" fill="rgb(0,0,0)" fill-opacity="0.501961" />
<polygon points="49,3 155,106 32,0" id="12" fill="rgb(0,0,0)" fill-opacity="0.501961" />
<polygon points="0,10 31,1 162,114" id="13" fill="rgb(227,226,233)" fill-opacity="0.501961" />
<polygon points="254,204 195,161 253,151" id="14" fill="rgb(83,67,44)" fill-opacity="0.501961" />
<polygon points="35,163 102,133 38,134" id="15" fill="rgb(188,201,207)" fill-opacity="0.501961" />
<polygon points="185,146 250,149 189,160" id="16" fill="rgb(255,255,254)" fill-opacity="0.501961" />
<polygon points="256,208 193,172 220,217" id="17" fill="rgb(255,255,255)" fill-opacity="0.501961" />
<polygon points="120,171 63,51 129,99" id="18" fill="rgb(46,43,45)" fill-opacity="0.501961" />
<polygon points="228,103 134,154 126,95" id="19" fill="rgb(195,161,114)" fill-opacity="0.501961" />
<polygon points="177,109 191,164 193,216" id="20" fill="rgb(54,44,36)" fill-opacity="0.501961" />
<polygon points="180,150 182,112 245,140" id="21" fill="rgb(105,83,63)" fill-opacity="0.501961" />
<polygon points="170,202 116,210 102,190" id="22" fill="rgb(0,0,2)" fill-opacity="0.501961" />
<polygon points="162,79 173,57 171,86" id="23" fill="rgb(0,0,0)" fill-opacity="0.501961" />
<polygon points="147,97 247,2 269,104" id="24" fill="rgb(210,211,214)" fill-opacity="0.501961" />
<polygon points="56,105 90,149 85,87" id="25" fill="rgb(162,162,157)" fill-opacity="0.501961" />
<polygon points="212,20 278,-16 235,0" id="26" fill="rgb(0,0,0)" fill-opacity="0.501961" />
<polygon points="185,217 163,202 182,147" id="27" fill="rgb(255,255,255)" fill-opacity="0.501961" />
<polygon points="111,184 107,192 191,189" id="28" fill="rgb(210,210,215)" fill-opacity="0.501961" />
<polygon points="72,217 103,202 106,217" id="29" fill="rgb(247,248,244)" fill-opacity="0.501961" />
<polygon points="180,46 173,63 229,5" id="30" fill="rgb(0,0,0)" fill-opacity="0.501961" />
<polygon points="256,154 241,141 233,34" id="31" fill="rgb(202,190,165)" fill-opacity="0.501961" />
</svg>