<?xml version="1.0" standalone="no"?>
<svg xmlns="http://www.w3.org/2000/svg" version="1.2" baseProfile="tiny" width="256" height="176" viewBox="0 0 256 176">
<rect x="0" y="0" width="256" height="176" id="0" fill="rgb(105,61,36)" fill-opacity="1" />
<polygon points="139,176 0,176 69,81" id="1" fill="rgb(0,0,0)" fill-opacity="0.501961" />
<polygon points="160,176 42,60 248,54" id="2" fill="rgb(186,115,68)" fill-opacity="0.501961" />
<polygon points="0,176 5,97 145,176" id="3" fill="rgb(0,0,6)" fill-opacity="0.501961" />
<polygon points="73,85 147,176 112,114" id="4" fill="rgb(156,226,255)" fill-opacity="0.501961" />
<polygon points="256,85 224,124 255,176" id="5" fill="rgb(0,0,0)" fill-opacity="0.501961" />
<polygon points="53,25 112,20 65,73" id="6" fill="rgb(0,0,0)" fill-opacity="0.501961" />
<polygon points="0,58 91,84 0,110" id="7" fill="rgb(205,129,72)" fill-opacity="0.501961" />
<polygon points="248,176 215,145 151,176" id="8" fill="rgb(252,91,98)" fill-opacity="0.501961" />
<polygon points="0,2 256,7 0,31" id="9" fill="rgb(173,100,48)" fill-opacity="0.501961" />
<polygon points="154,176 108,110 123,112" id="10" fill="rgb(0,0,9)" fill-opacity="0.501961" />
<polygon points="85,55 115,33 142,102" id="11" fill="rgb(214,141,111)" fill-opacity="0.501961" />
<polygon points="138,175 81,95 -19,126" id="12" fill="rgb(0,2,16)" fill-opacity="0.501961" />
<polygon points="152,176 91,108 141,176" id="13" fill="rgb(110,158,225)" fill-opacity="0.501961" />
<polygon points="0,105 48,104 59,93" id="14" fill="rgb(158,187,204)" fill-opacity="0.501961" />
<polygon points="256,75 256,16 100,30" id="15" fill="rgb(92,34,0)" fill-opacity="0.501961" />
<polygon points="128,140 231,160 239,95" id="16" fill="rgb(117,56,11)" fill-opacity="0.501961" />
<polygon points="86,20 68,100 60,36" id="17" fill="rgb(0,0,9)" fill-opacity="0.501961" />
<polygon points="123,53 256,89 132,130" id="18" fill="rgb(178,102,42)" fill-opacity="0.501961" />
</svg>