<?xml version="1.0" standalone="no"?>
<svg xmlns="http://www.w3.org/2000/svg" version="1.2" baseProfile="tiny" width="256" height="170" viewBox="0 0 256 170">
<rect x="0" y="0" width="256" height="170" id="0" fill="rgb(132,136,111)" fill-opacity="1" />
<polygon points="256,0 0,0 0,92" id="1" fill="rgb(215,255,255)" fill-opacity="0.501961" />
<polygon points="248,56 0,169 256,170" id="2" fill="rgb(48,38,0)" fill-opacity="0.501961" />
<polygon points="0,13 256,81 256,0" id="3" fill="rgb(195,232,255)" fill-opacity="0.501961" />
<polygon points="252,58 9,93 0,170" id="4" fill="rgb(93,69,11)" fill-opacity="0.501961" />
<polygon points="256,159 -2,174 1,110" id="5" fill="rgb(86,69,0)" fill-opacity="0.501961" />
<polygon points="119,0 134,76 256,28" id="6" fill="rgb(193,218,225)" fill-opacity="0.501961" />
<polygon points="19,69 119,45 168,131" id="7" fill="rgb(157,122,73)" fill-opacity="0.501961" />
<polygon points="256,170 247,109 153,170" id="8" fill="rgb(38,48,7)" fill-opacity="0.501961" />
<polygon points="134,75 247,54 256,107" id="9" fill="rgb(139,124,86)" fill-opacity="0.501961" />
<polygon points="77,50 94,48 79,85" id="10" fill="rgb(99,60,15)" fill-opacity="0.501961" />
<polygon points="220,89 111,145 26,80" id="11" fill="rgb(110,113,77)" fill-opacity="0.501961" />
</svg>