<?xml version="1.0" standalone="no"?>
<svg xmlns="http://www.w3.org/2000/svg" version="1.2" baseProfile="tiny" width="256" height="170" viewBox="0 0 256 170">
<rect x="0" y="0" width="256" height="170" id="0" fill="rgb(78,73,74)" fill-opacity="1" />
<polygon points="96,170 160,141 169,0" id="1" fill="rgb(190,161,141)" fill-opacity="0.501961" />
<polygon points="86,63 173,54 157,-5" id="2" fill="rgb(148,126,121)" fill-opacity="0.501961" />
<polygon points="192,0 265,109 190,170" id="3" fill="rgb(31,36,42)" fill-opacity="0.501961" />
<polygon points="0,157 0,41 183,67" id="4" fill="rgb(50,48,48)" fill-opacity="0.501961" />
<polygon points="256,83 255,9 225,16" id="5" fill="rgb(183,153,130)" fill-opacity="0.501961" />
<polygon points="184,170 187,77 190,165" id="6" fill="rgb(156,176,202)" fill-opacity="0.501961" />
<polygon points="184,170 162,166 181,0" id="7" fill="rgb(13,24,38)" fill-opacity="0.501961" />
<polygon points="122,0 147,122 127,155" id="8" fill="rgb(168,150,145)" fill-opacity="0.501961" />
<polygon points="198,99 202,133 203,93" id="9" fill="rgb(224,194,173)" fill-opacity="0.501961" />
<polygon points="108,149 112,170 41,168" id="10" fill="rgb(157,136,110)" fill-opacity="0.501961" />
<polygon points="0,96 47,20 111,33" id="11" fill="rgb(37,39,43)" fill-opacity="0.501961" />
<polygon points="153,0 256,0 182,26" id="12" fill="rgb(28,34,40)" fill-opacity="0.501961" />
<polygon points="174,83 130,94 128,0" id="13" fill="rgb(85,78,77)" fill-opacity="0.501961" />
<polygon points="117,64 135,40 103,50" id="14" fill="rgb(235,153,129)" fill-opacity="0.501961" />
<polygon points="112,110 156,94 157,122" id="15" fill="rgb(215,177,149)" fill-opacity="0.501961" />
<polygon points="187,0 191,15 184,104" id="16" fill="rgb(135,155,187)" fill-opacity="0.501961" />
<polygon points="256,62 230,48 229,27" id="17" fill="rgb(171,147,131)" fill-opacity="0.501961" />
<polygon points="172,21 168,62 138,9" id="18" fill="rgb(142,137,132)" fill-opacity="0.501961" />
<polygon points="213,83 187,175 256,170" id="19" fill="rgb(50,58,70)" fill-opacity="0.501961" />
<polygon points="136,33 102,140 119,170" id="20" fill="rgb(100,90,90)" fill-opacity="0.501961" />
<polygon points="201,66 248,59 256,132" id="21" fill="rgb(40,39,42)" fill-opacity="0.501961" />
<polygon points="178,122 109,170 184,170" id="22" fill="rgb(52,61,76)" fill-opacity="0.501961" />
<polygon points="39,39 20,14 21,50" id="23" fill="rgb(131,116,108)" fill-opacity="0.501961" />
<polygon points="118,0 116,20 115,41" id="24" fill="rgb(210,209,219)" fill-opacity="0.501961" />
<polygon points="183,0 178,68 170,0" id="25" fill="rgb(14,17,18)" fill-opacity="0.501961" />
<polygon points="34,113 22,96 76,69" id="26" fill="rgb(106,92,70)" fill-opacity="0.501961" />
<polygon points="185,1 185,71 187,-14" id="27" fill="rgb(154,170,198)" fill-opacity="0.501961" />
<polygon points="16,110 14,18 -7,70" id="28" fill="rgb(38,37,40)" fill-opacity="0.501961" />
<polygon points="163,136 154,45 167,75" id="29" fill="rgb(149,121,101)" fill-opacity="0.501961" />
</svg>