<?xml version="1.0" standalone="no"?>
<svg xmlns="http://www.w3.org/2000/svg" version="1.2" baseProfile="tiny" width="192" height="256" viewBox="0 0 192 256">
<rect x="0" y="0" width="192" height="256" id="0" fill="rgb(42,84,86)" fill-opacity="1" />
<polygon points="26,130 172,92 60,0" id="1" fill="rgb(75,162,156)" fill-opacity="0.501961" />
<polygon points="0,118 100,256 0,218" id="2" fill="rgb(5,1,3)" fill-opacity="0.501961" />
<polygon points="7,256 192,175 148,256" id="3" fill="rgb(7,0,0)" fill-opacity="0.501961" />
<polygon points="60,203 114,199 128,212" id="4" fill="rgb(255,237,236)" fill-opacity="0.501961" />
<polygon points="52,69 35,115 46,149" id="5" fill="rgb(255,255,255)" fill-opacity="0.501961" />
<polygon points="192,240 120,193 192,116" id="6" fill="rgb(6,14,17)" fill-opacity="0.501961" />
<polygon points="164,177 0,14 175,0" id="7" fill="rgb(45,123,124)" fill-opacity="0.501961" />
<polygon points="187,249 178,231 150,241" id="8" fill="rgb(255,227,226)" fill-opacity="0.501961" />
<polygon points="42,224 153,223 72,202" id="9" fill="rgb(121,119,119)" fill-opacity="0.501961" />
<polygon points="31,239 0,251 23,218" id="10" fill="rgb(188,155,153)" fill-opacity="0.501961" />
<polygon points="139,68 103,55 166,117" id="11" fill="rgb(136,179,182)" fill-opacity="0.501961" />
<polygon points="141,178 134,137 175,110" id="12" fill="rgb(119,139,157)" fill-opacity="0.501961" />
<polygon points="50,212 60,65 168,101" id="13" fill="rgb(37,73,75)" fill-opacity="0.501961" />
</svg>