<?xml version="1.0" standalone="no"?>
<svg xmlns="http://www.w3.org/2000/svg" version="1.2" baseProfile="tiny" width="192" height="256" viewBox="0 0 192 256">
<rect x="0" y="0" width="192" height="256" id="0" fill="rgb(149,152,154)" fill-opacity="1" />
<polygon points="192,94 0,0 0,140" id="1" fill="rgb(255,255,255)" fill-opacity="0.501961" />
<polygon points="0,256 0,142 192,256" id="2" fill="rgb(6,0,0)" fill-opacity="0.501961" />
<polygon points="192,151 192,256 51,146" id="3" fill="rgb(30,17,0)" fill-opacity="0.501961" />
<polygon points="192,144 0,0 192,0" id="4" fill="rgb(226,246,255)" fill-opacity="0.501961" />
<polygon points="98,241 186,103 43,211" id="5" fill="rgb(193,190,179)" fill-opacity="0.501961" />
<polygon points="0,167 94,138 0,244" id="6" fill="rgb(0,0,0)" fill-opacity="0.501961" />
<polygon points="192,98 0,41 18,135" id="7" fill="rgb(255,255,255)" fill-opacity="0.501961" />
<polygon points="192,218 143,241 173,130" id="8" fill="rgb(0,0,0)" fill-opacity="0.501961" />
<polygon points="25,22 192,31 31,62" id="9" fill="rgb(117,152,188)" fill-opacity="0.501961" />
<polygon points="111,127 152,109 0,141" id="10" fill="rgb(0,0,0)" fill-opacity="0.501961" />
<polygon points="178,173 42,153 97,132" id="11" fill="rgb(60,59,52)" fill-opacity="0.501961" />
<polygon points="151,216 160,163 44,210" id="12" fill="rgb(177,169,155)" fill-opacity="0.501961" />
<polygon points="192,135 64,117 192,143" id="13" fill="rgb(0,0,32)" fill-opacity="0.501961" />
<polygon points="132,123 192,93 165,131" id="14" fill="rgb(255,255,255)" fill-opacity="0.501961" />
<polygon points="163,139 97,125 139,154" id="15" fill="rgb(255,255,255)" fill-opacity="0.501961" />
<polygon points="0,148 104,125 19,154" id="16" fill="rgb(255,255,255)" fill-opacity="0.501961" />
<polygon points="160,256 151,213 72,256" id="17" fill="rgb(22,18,12)" fill-opacity="0.501961" />
<polygon points="168,179 204,209 189,256" id="18" fill="rgb(0,0,0)" fill-opacity="0.501961" />
<polygon points="192,165 192,145 41,164" id="19" fill="rgb(48,43,32)" fill-opacity="0.501961" />
<polygon points="0,218 58,233 30,182" id="20" fill="rgb(0,0,0)" fill-opacity="0.501961" />
</svg>