<?xml version="1.0" standalone="no"?>
<svg xmlns="http://www.w3.org/2000/svg" version="1.2" baseProfile="tiny" width="256" height="227" viewBox="0 0 256 227">
<rect x="0" y="0" width="256" height="227" id="0" fill="rgb(72,72,72)" fill-opacity="1" />
<polygon points="24,103 165,187 61,208" id="1" fill="rgb(255,255,255)" fill-opacity="0.501961" />
<polygon points="204,37 207,125 108,28" id="2" fill="rgb(255,255,255)" fill-opacity="0.501961" />
<polygon points="256,227 256,0 170,227" id="3" fill="rgb(0,0,0)" fill-opacity="0.501961" />
<polygon points="194,162 133,187 195,88" id="4" fill="rgb(255,255,255)" fill-opacity="0.501961" />
<polygon points="34,150 42,79 126,21" id="5" fill="rgb(242,242,242)" fill-opacity="0.501961" />
<polygon points="118,0 0,136 0,0" id="6" fill="rgb(0,0,0)" fill-opacity="0.501961" />
<polygon points="67,73 115,171 174,78" id="7" fill="rgb(0,0,0)" fill-opacity="0.501961" />
<polygon points="191,66 159,18 60,49" id="8" fill="rgb(214,214,214)" fill-opacity="0.501961" />
<polygon points="39,133 81,177 61,81" id="9" fill="rgb(255,255,255)" fill-opacity="0.501961" />
<polygon points="159,0 256,0 256,111" id="10" fill="rgb(1,1,1)" fill-opacity="0.501961" />
<polygon points="0,227 70,227 0,135" id="11" fill="rgb(0,0,0)" fill-opacity="0.501961" />
<polygon points="87,155 125,52 178,139" id="12" fill="rgb(0,0,0)" fill-opacity="0.501961" />
<polygon points="65,160 164,166 94,187" id="13" fill="rgb(255,255,255)" fill-opacity="0.501961" />
<polygon points="80,146 160,73 89,64" id="14" fill="rgb(0,0,0)" fill-opacity="0.501961" />
<polygon points="159,54 219,88 178,117" id="15" fill="rgb(230,230,230)" fill-opacity="0.501961" />
<polygon points="89,0 0,0 0,99" id="16" fill="rgb(0,0,0)" fill-opacity="0.501961" />
<polygon points="256,148 113,227 256,227" id="17" fill="rgb(0,0,0)" fill-opacity="0.501961" />
<polygon points="99,51 60,103 66,72" id="18" fill="rgb(255,255,255)" fill-opacity="0.501961" />
<polygon points="218,35 154,13 210,110" id="19" fill="rgb(117,117,117)" fill-opacity="0.501961" />
<polygon points="95,159 172,85 161,149" id="20" fill="rgb(2,2,2)" fill-opacity="0.501961" />
<polygon points="215,152 146,205 49,209" id="21" fill="rgb(126,126,126)" fill-opacity="0.501961" />
</svg>