<?xml version="1.0" standalone="no"?>
<svg xmlns="http://www.w3.org/2000/svg" version="1.2" baseProfile="tiny" width="194" height="256" viewBox="0 0 194 256">
<rect x="0" y="0" width="194" height="256" id="0" fill="rgb(152,149,149)" fill-opacity="1" />
<polygon points="0,9 194,12 34,66" id="1" fill="rgb(255,0,12)" fill-opacity="0.501961" />
<polygon points="105,122 0,49 0,119" id="2" fill="rgb(255,255,233)" fill-opacity="0.501961" />
<polygon points="58,54 174,8 178,54" id="3" fill="rgb(255,5,28)" fill-opacity="0.501961" />
<polygon points="171,142 72,256 50,53" id="4" fill="rgb(36,161,151)" fill-opacity="0.501961" />
<polygon points="161,153 80,255 113,256" id="5" fill="rgb(255,255,226)" fill-opacity="0.501961" />
<polygon points="24,188 0,148 72,147" id="6" fill="rgb(255,255,230)" fill-opacity="0.501961" />
<polygon points="0,163 0,238 52,235" id="7" fill="rgb(223,36,32)" fill-opacity="0.501961" />
<polygon points="70,0 164,49 52,48" id="8" fill="rgb(255,159,158)" fill-opacity="0.501961" />
<polygon points="168,251 170,118 155,256" id="9" fill="rgb(255,255,225)" fill-opacity="0.501961" />
<polygon points="165,127 194,194 174,256" id="10" fill="rgb(25,83,159)" fill-opacity="0.501961" />
<polygon points="71,128 96,250 40,256" id="11" fill="rgb(39,125,142)" fill-opacity="0.501961" />
<polygon points="62,157 36,191 -28,148" id="12" fill="rgb(255,255,207)" fill-opacity="0.501961" />
<polygon points="74,55 17,6 11,55" id="13" fill="rgb(250,5,15)" fill-opacity="0.501961" />
<polygon points="194,0 194,47 169,124" id="14" fill="rgb(255,255,227)" fill-opacity="0.501961" />
<polygon points="166,147 115,256 153,256" id="15" fill="rgb(39,118,186)" fill-opacity="0.501961" />
<polygon points="101,142 -11,112 0,148" id="16" fill="rgb(40,108,166)" fill-opacity="0.501961" />
<polygon points="149,63 164,32 165,123" id="17" fill="rgb(255,255,208)" fill-opacity="0.501961" />
<polygon points="0,0 26,0 5,23" id="18" fill="rgb(255,255,255)" fill-opacity="0.501961" />
<polygon points="56,57 47,73 0,53" id="19" fill="rgb(1,120,206)" fill-opacity="0.501961" />
<polygon points="39,256 0,237 0,256" id="20" fill="rgb(255,255,255)" fill-opacity="0.501961" />
<polygon points="119,136 119,71 101,112" id="21" fill="rgb(90,65,7)" fill-opacity="0.501961" />
<polygon points="92,136 58,162 89,181" id="22" fill="rgb(0,111,39)" fill-opacity="0.501961" />
<polygon points="81,57 151,66 166,162" id="23" fill="rgb(82,156,167)" fill-opacity="0.501961" />
<polygon points="0,51 0,116 115,132" id="24" fill="rgb(241,252,199)" fill-opacity="0.501961" />
<polygon points="170,134 194,105 194,177" id="25" fill="rgb(228,247,211)" fill-opacity="0.501961" />
<polygon points="74,10 174,11 179,34" id="26" fill="rgb(240,0,0)" fill-opacity="0.501961" />
<polygon points="46,0 99,0 103,11" id="27" fill="rgb(255,255,244)" fill-opacity="0.501961" />
</svg>