<?xml version="1.0" standalone="no"?>
<svg xmlns="http://www.w3.org/2000/svg" version="1.2" baseProfile="tiny" width="175" height="256" viewBox="0 0 175 256">
<rect x="0" y="0" width="175" height="256" id="0" fill="rgb(188,183,158)" fill-opacity="1" />
<polygon points="16,254 151,256 78,54" id="1" fill="rgb(107,102,76)" fill-opacity="0.501961" />
<polygon points="47,0 167,0 175,189" id="2" fill="rgb(246,241,220)" fill-opacity="0.501961" />
<polygon points="0,33 55,256 0,249" id="3" fill="rgb(234,229,201)" fill-opacity="0.501961" />
<polygon points="169,154 20,156 46,93" id="4" fill="rgb(106,102,79)" fill-opacity="0.501961" />
<polygon points="6,0 147,0 8,136" id="5" fill="rgb(234,229,205)" fill-opacity="0.501961" />
<polygon points="68,84 86,63 105,84" id="6" fill="rgb(13,14,0)" fill-opacity="0.501961" />
<polygon points="114,141 122,256 91,256" id="7" fill="rgb(86,81,51)" fill-opacity="0.501961" />
<polygon points="153,256 119,159 175,149" id="8" fill="rgb(234,230,208)" fill-opacity="0.501961" />
<polygon points="121,202 122,251 141,256" id="9" fill="rgb(255,255,236)" fill-opacity="0.501961" />
<polygon points="175,48 118,141 89,101" id="10" fill="rgb(231,227,207)" fill-opacity="0.501961" />
<polygon points="67,150 147,142 41,140" id="11" fill="rgb(213,207,181)" fill-opacity="0.501961" />
<polygon points="147,143 136,156 55,156" id="12" fill="rgb(45,46,27)" fill-opacity="0.501961" />
<polygon points="33,203 44,210 52,116" id="13" fill="rgb(94,89,58)" fill-opacity="0.501961" />
<polygon points="40,226 75,162 77,256" id="14" fill="rgb(189,181,149)" fill-opacity="0.501961" />
<polygon points="106,157 96,158 102,190" id="15" fill="rgb(255,255,247)" fill-opacity="0.501961" />
<polygon points="141,224 175,0 175,250" id="16" fill="rgb(217,212,187)" fill-opacity="0.501961" />
<polygon points="102,147 132,222 120,162" id="17" fill="rgb(78,76,53)" fill-opacity="0.501961" />
<polygon points="103,80 38,107 46,187" id="18" fill="rgb(129,124,98)" fill-opacity="0.501961" />
<polygon points="175,0 0,0 85,69" id="19" fill="rgb(217,211,187)" fill-opacity="0.501961" />
<polygon points="93,169 89,148 64,151" id="20" fill="rgb(53,53,35)" fill-opacity="0.501961" />
<polygon points="0,226 45,209 55,256" id="21" fill="rgb(221,218,196)" fill-opacity="0.501961" />
<polygon points="29,137 18,22 19,256" id="22" fill="rgb(220,216,189)" fill-opacity="0.501961" />
<polygon points="64,96 78,41 16,112" id="23" fill="rgb(227,222,201)" fill-opacity="0.501961" />
</svg>