<?xml version="1.0" standalone="no"?>
<svg xmlns="http://www.w3.org/2000/svg" version="1.2" baseProfile="tiny" width="256" height="182" viewBox="0 0 256 182">
<rect x="0" y="0" width="256" height="182" id="0" fill="rgb(85,86,82)" fill-opacity="1" />
<polygon points="0,121 255,182 255,130" id="1" fill="rgb(175,180,178)" fill-opacity="0.501961" />
<polygon points="0,182 0,94 256,181" id="2" fill="rgb(159,157,132)" fill-opacity="0.501961" />
<polygon points="0,0 256,0 247,134" id="3" fill="rgb(29,30,34)" fill-opacity="0.501961" />
<polygon points="176,182 50,176 185,0" id="4" fill="rgb(82,84,74)" fill-opacity="0.501961" />
<polygon points="0,121 96,122 0,154" id="5" fill="rgb(215,215,238)" fill-opacity="0.501961" />
<polygon points="0,0 180,100 3,62" id="6" fill="rgb(33,33,37)" fill-opacity="0.501961" />
<polygon points="256,166 175,156 247,205" id="7" fill="rgb(243,239,249)" fill-opacity="0.501961" />
<polygon points="95,92 237,137 7,114" id="8" fill="rgb(107,109,116)" fill-opacity="0.501961" />
<polygon points="256,0 256,114 156,38" id="9" fill="rgb(41,42,40)" fill-opacity="0.501961" />
<polygon points="251,151 256,137 173,139" id="10" fill="rgb(184,185,205)" fill-opacity="0.501961" />
<polygon points="106,115 216,152 0,182" id="11" fill="rgb(100,107,82)" fill-opacity="0.501961" />
<polygon points="2,57 59,117 78,52" id="12" fill="rgb(63,61,63)" fill-opacity="0.501961" />
<polygon points="142,119 164,141 104,133" id="13" fill="rgb(45,64,66)" fill-opacity="0.501961" />
<polygon points="11,145 151,150 56,185" id="14" fill="rgb(130,126,97)" fill-opacity="0.501961" />
<polygon points="176,140 256,150 167,132" id="15" fill="rgb(199,196,193)" fill-opacity="0.501961" />
<polygon points="122,94 234,140 231,97" id="16" fill="rgb(78,76,84)" fill-opacity="0.501961" />
<polygon points="226,145 256,166 208,160" id="17" fill="rgb(87,92,86)" fill-opacity="0.501961" />
<polygon points="222,41 148,80 97,71" id="18" fill="rgb(86,87,96)" fill-opacity="0.501961" />
<polygon points="6,35 108,0 63,57" id="19" fill="rgb(38,39,38)" fill-opacity="0.501961" />
<polygon points="110,80 78,97 89,115" id="20" fill="rgb(133,132,138)" fill-opacity="0.501961" />
<polygon points="256,142 219,152 256,112" id="21" fill="rgb(136,140,166)" fill-opacity="0.501961" />
<polygon points="182,171 177,156 214,182" id="22" fill="rgb(188,181,177)" fill-opacity="0.501961" />
<polygon points="52,182 4,182 9,157" id="23" fill="rgb(91,90,60)" fill-opacity="0.501961" />
<polygon points="118,0 67,66 108,58" id="24" fill="rgb(76,76,83)" fill-opacity="0.501961" />
<polygon points="176,59 184,0 221,0" id="25" fill="rgb(79,78,75)" fill-opacity="0.501961" />
<polygon points="169,182 191,142 70,182" id="26" fill="rgb(103,99,71)" fill-opacity="0.501961" />
<polygon points="29,107 0,131 0,83" id="27" fill="rgb(127,120,124)" fill-opacity="0.501961" />
<polygon points="111,116 156,119 66,107" id="28" fill="rgb(152,149,147)" fill-opacity="0.501961" />
<polygon points="131,63 157,72 151,34" id="29" fill="rgb(90,91,106)" fill-opacity="0.501961" />
<polygon points="0,150 64,132 0,161" id="30" fill="rgb(148,139,126)" fill-opacity="0.501961" />
<polygon points="66,88 180,99 211,84" id="31" fill="rgb(49,49,51)" fill-opacity="0.501961" />
<polygon points="10,164 0,173 0,166" id="32" fill="rgb(224,221,214)" fill-opacity="0.501961" />
<polygon points="180,26 126,0 115,45" id="33" fill="rgb(40,41,40)" fill-opacity="0.501961" />
<polygon points="72,182 69,167 47,177" id="34" fill="rgb(175,159,133)" fill-opacity="0.501961" />
<polygon points="27,120 0,146 86,121" id="35" fill="rgb(187,190,200)" fill-opacity="0.501961" />
<polygon points="212,60 185,57 200,97" id="36" fill="rgb(28,29,31)" fill-opacity="0.501961" />
<polygon points="203,179 255,182 256,168" id="37" fill="rgb(197,198,209)" fill-opacity="0.501961" />
<polygon points="198,157 256,158 240,147" id="38" fill="rgb(93,102,98)" fill-opacity="0.501961" />
<polygon points="211,106 169,97 227,101" id="39" fill="rgb(101,101,106)" fill-opacity="0.501961" />
<polygon points="7,55 -20,86 11,77" id="40" fill="rgb(119,113,112)" fill-opacity="0.501961" />
</svg>