<?xml version="1.0" standalone="no"?>
<svg xmlns="http://www.w3.org/2000/svg" version="1.2" baseProfile="tiny" width="256" height="174" viewBox="0 0 256 174">
<rect x="0" y="0" width="256" height="174" id="0" fill="rgb(109,119,123)" fill-opacity="1" />
<polygon points="256,174 83,174 254,0" id="1" fill="rgb(30,15,2)" fill-opacity="0.501961" />
<polygon points="65,142 0,0 248,0" id="2" fill="rgb(180,210,231)" fill-opacity="0.501961" />
<polygon points="123,57 124,172 140,59" id="3" fill="rgb(48,22,3)" fill-opacity="0.501961" />
<polygon points="192,28 135,33 145,174" id="4" fill="rgb(171,194,203)" fill-opacity="0.501961" />
<polygon points="172,91 185,174 0,172" id="5" fill="rgb(89,83,74)" fill-opacity="0.501961" />
<polygon points="121,90 0,23 0,94" id="6" fill="rgb(173,195,209)" fill-opacity="0.501961" />
<polygon points="184,54 255,174 255,0" id="7" fill="rgb(35,34,37)" fill-opacity="0.501961" />
<polygon points="245,120 0,138 0,174" id="8" fill="rgb(63,64,55)" fill-opacity="0.501961" />
<polygon points="69,145 156,99 15,91" id="9" fill="rgb(115,134,138)" fill-opacity="0.501961" />
<polygon points="57,159 156,136 182,174" id="10" fill="rgb(118,118,118)" fill-opacity="0.501961" />
<polygon points="41,173 62,124 62,174" id="11" fill="rgb(30,15,10)" fill-opacity="0.501961" />
<polygon points="4,94 122,0 123,86" id="12" fill="rgb(165,189,203)" fill-opacity="0.501961" />
<polygon points="205,20 138,88 167,94" id="13" fill="rgb(179,203,217)" fill-opacity="0.501961" />
<polygon points="27,61 0,0 56,0" id="14" fill="rgb(114,130,148)" fill-opacity="0.501961" />
<polygon points="218,19 256,8 256,37" id="15" fill="rgb(0,1,14)" fill-opacity="0.501961" />
<polygon points="117,145 134,51 142,121" id="16" fill="rgb(76,62,51)" fill-opacity="0.501961" />
<polygon points="120,122 121,95 97,121" id="17" fill="rgb(169,194,203)" fill-opacity="0.501961" />
<polygon points="186,76 213,45 216,74" id="18" fill="rgb(104,110,109)" fill-opacity="0.501961" />
<polygon points="256,119 252,174 140,129" id="19" fill="rgb(57,49,29)" fill-opacity="0.501961" />
<polygon points="122,174 97,137 96,174" id="20" fill="rgb(130,137,140)" fill-opacity="0.501961" />
<polygon points="119,168 143,119 136,170" id="21" fill="rgb(58,42,27)" fill-opacity="0.501961" />
<polygon points="95,125 83,164 95,174" id="22" fill="rgb(43,27,20)" fill-opacity="0.501961" />
<polygon points="59,93 1,140 108,128" id="23" fill="rgb(118,135,137)" fill-opacity="0.501961" />
<polygon points="45,96 46,174 0,93" id="24" fill="rgb(112,127,135)" fill-opacity="0.501961" />
<polygon points="176,90 90,22 172,0" id="25" fill="rgb(158,183,199)" fill-opacity="0.501961" />
<polygon points="63,114 85,155 63,174" id="26" fill="rgb(118,130,136)" fill-opacity="0.501961" />
<polygon points="211,53 208,10 188,0" id="27" fill="rgb(151,171,185)" fill-opacity="0.501961" />
<polygon points="116,141 123,138 119,170" id="28" fill="rgb(150,163,166)" fill-opacity="0.501961" />
<polygon points="180,173 147,131 138,174" id="29" fill="rgb(120,127,128)" fill-opacity="0.501961" />
</svg>