<?xml version="1.0" standalone="no"?>
<svg xmlns="http://www.w3.org/2000/svg" version="1.2" baseProfile="tiny" width="256" height="170" viewBox="0 0 256 170">
<rect x="0" y="0" width="256" height="170" id="0" fill="rgb(104,99,100)" fill-opacity="1" />
<polygon points="256,0 0,0 197,78" id="1" fill="rgb(255,255,255)" fill-opacity="0.501961" />
<polygon points="0,15 0,170 256,168" id="2" fill="rgb(23,16,11)" fill-opacity="0.501961" />
<polygon points="256,167 78,67 256,59" id="3" fill="rgb(42,32,26)" fill-opacity="0.501961" />
<polygon points="251,60 256,0 0,13" id="4" fill="rgb(226,226,243)" fill-opacity="0.501961" />
<polygon points="0,4 232,0 119,66" id="5" fill="rgb(214,212,224)" fill-opacity="0.501961" />
<polygon points="64,148 74,59 256,59" id="6" fill="rgb(108,97,88)" fill-opacity="0.501961" />
<polygon points="256,83 256,170 3,170" id="7" fill="rgb(33,33,35)" fill-opacity="0.501961" />
<polygon points="0,24 0,0 220,0" id="8" fill="rgb(218,217,229)" fill-opacity="0.501961" />
<polygon points="21,40 73,50 76,10" id="9" fill="rgb(113,115,120)" fill-opacity="0.501961" />
<polygon points="224,85 138,95 256,75" id="10" fill="rgb(183,181,181)" fill-opacity="0.501961" />
<polygon points="212,131 200,140 34,87" id="11" fill="rgb(124,119,118)" fill-opacity="0.501961" />
<polygon points="138,57 249,0 276,39" id="12" fill="rgb(186,186,195)" fill-opacity="0.501961" />
<polygon points="14,0 44,37 65,0" id="13" fill="rgb(197,195,208)" fill-opacity="0.501961" />
<polygon points="84,95 85,110 118,110" id="14" fill="rgb(157,165,176)" fill-opacity="0.501961" />
<polygon points="174,123 53,85 256,122" id="15" fill="rgb(34,36,38)" fill-opacity="0.501961" />
<polygon points="74,39 146,61 83,0" id="16" fill="rgb(203,202,212)" fill-opacity="0.501961" />
<polygon points="70,44 37,70 134,64" id="17" fill="rgb(93,85,81)" fill-opacity="0.501961" />
<polygon points="190,55 256,46 245,64" id="18" fill="rgb(138,141,146)" fill-opacity="0.501961" />
<polygon points="132,91 200,88 153,95" id="19" fill="rgb(172,164,155)" fill-opacity="0.501961" />
<polygon points="16,85 0,111 87,102" id="20" fill="rgb(104,81,65)" fill-opacity="0.501961" />
<polygon points="39,34 91,54 72,10" id="21" fill="rgb(135,135,141)" fill-opacity="0.501961" />
<polygon points="166,113 0,134 147,152" id="22" fill="rgb(69,57,49)" fill-opacity="0.501961" />
<polygon points="108,29 38,0 204,0" id="23" fill="rgb(222,219,227)" fill-opacity="0.501961" />
<polygon points="56,154 0,151 76,140" id="24" fill="rgb(122,98,72)" fill-opacity="0.501961" />
<polygon points="89,77 0,58 0,93" id="25" fill="rgb(42,38,42)" fill-opacity="0.501961" />
<polygon points="164,61 256,75 164,88" id="26" fill="rgb(78,65,62)" fill-opacity="0.501961" />
<polygon points="249,78 224,107 121,104" id="27" fill="rgb(79,70,60)" fill-opacity="0.501961" />
<polygon points="64,92 136,112 109,113" id="28" fill="rgb(136,140,146)" fill-opacity="0.501961" />
<polygon points="252,49 245,68 261,50" id="29" fill="rgb(40,43,42)" fill-opacity="0.501961" />
<polygon points="129,90 24,23 1,17" id="30" fill="rgb(73,71,69)" fill-opacity="0.501961" />
<polygon points="256,41 254,0 186,60" id="31" fill="rgb(179,178,186)" fill-opacity="0.501961" />
<polygon points="0,170 79,170 0,155" id="32" fill="rgb(22,23,31)" fill-opacity="0.501961" />
<polygon points="124,170 256,111 251,146" id="33" fill="rgb(33,33,38)" fill-opacity="0.501961" />
<polygon points="68,50 0,62 0,36" id="34" fill="rgb(36,41,50)" fill-opacity="0.501961" />
<polygon points="77,104 0,116 0,134" id="35" fill="rgb(36,37,44)" fill-opacity="0.501961" />
<polygon points="121,132 164,139 141,108" id="36" fill="rgb(39,37,41)" fill-opacity="0.501961" />
<polygon points="112,20 198,55 79,43" id="37" fill="rgb(202,200,210)" fill-opacity="0.501961" />
<polygon points="92,103 67,111 125,113" id="38" fill="rgb(129,131,135)" fill-opacity="0.501961" />
<polygon points="0,98 45,89 0,92" id="39" fill="rgb(125,100,79)" fill-opacity="0.501961" />
<polygon points="231,100 256,80 212,86" id="40" fill="rgb(46,40,46)" fill-opacity="0.501961" />
<polygon points="83,48 125,65 193,60" id="41" fill="rgb(129,127,127)" fill-opacity="0.501961" />
<polygon points="166,87 85,88 65,94" id="42" fill="rgb(56,51,47)" fill-opacity="0.501961" />
<polygon points="213,84 256,77 180,87" id="43" fill="rgb(167,167,169)" fill-opacity="0.501961" />
</svg>