<?xml version="1.0" standalone="no"?>
<svg xmlns="http://www.w3.org/2000/svg" version="1.2" baseProfile="tiny" width="192" height="256" viewBox="0 0 192 256">
<rect x="0" y="0" width="192" height="256" id="0" fill="rgb(158,137,117)" fill-opacity="1" />
<polygon points="0,256 95,65 192,255" id="1" fill="rgb(255,255,255)" fill-opacity="0.501961" />
<polygon points="192,0 0,194 0,0" id="2" fill="rgb(59,31,2)" fill-opacity="0.501961" />
<polygon points="192,0 192,219 102,84" id="3" fill="rgb(68,39,26)" fill-opacity="0.501961" />
<polygon points="0,223 159,167 73,112" id="4" fill="rgb(255,255,241)" fill-opacity="0.501961" />
<polygon points="123,117 192,223 134,256" id="5" fill="rgb(255,255,238)" fill-opacity="0.501961" />
<polygon points="0,0 192,31 192,0" id="6" fill="rgb(2,0,0)" fill-opacity="0.501961" />
<polygon points="75,60 192,25 17,26" id="7" fill="rgb(199,184,71)" fill-opacity="0.501961" />
<polygon points="63,195 65,205 148,198" id="8" fill="rgb(59,17,1)" fill-opacity="0.501961" />
<polygon points="153,33 192,94 148,130" id="9" fill="rgb(193,167,145)" fill-opacity="0.501961" />
<polygon points="140,113 22,85 156,51" id="10" fill="rgb(73,46,44)" fill-opacity="0.501961" />
<polygon points="13,211 68,256 192,234" id="11" fill="rgb(255,255,225)" fill-opacity="0.501961" />
<polygon points="0,60 18,181 31,68" id="12" fill="rgb(185,144,132)" fill-opacity="0.501961" />
<polygon points="0,37 0,0 100,0" id="13" fill="rgb(19,5,9)" fill-opacity="0.501961" />
<polygon points="45,230 6,225 15,256" id="14" fill="rgb(84,90,93)" fill-opacity="0.501961" />
<polygon points="0,256 60,132 0,220" id="15" fill="rgb(255,255,235)" fill-opacity="0.501961" />
<polygon points="192,216 70,142 192,256" id="16" fill="rgb(249,228,208)" fill-opacity="0.501961" />
<polygon points="85,103 38,146 151,146" id="17" fill="rgb(243,221,201)" fill-opacity="0.501961" />
<polygon points="179,226 128,202 173,253" id="18" fill="rgb(159,146,143)" fill-opacity="0.501961" />
<polygon points="192,0 192,65 142,0" id="19" fill="rgb(31,14,17)" fill-opacity="0.501961" />
<polygon points="31,54 61,54 29,28" id="20" fill="rgb(240,224,63)" fill-opacity="0.501961" />
<polygon points="0,219 74,107 1,122" id="21" fill="rgb(120,76,58)" fill-opacity="0.501961" />
<polygon points="32,211 192,254 46,256" id="22" fill="rgb(255,237,209)" fill-opacity="0.501961" />
<polygon points="178,105 181,128 199,106" id="23" fill="rgb(0,0,0)" fill-opacity="0.501961" />
<polygon points="172,158 150,151 192,151" id="24" fill="rgb(247,207,168)" fill-opacity="0.501961" />
<polygon points="121,115 192,223 111,190" id="25" fill="rgb(255,244,224)" fill-opacity="0.501961" />
<polygon points="131,9 126,104 154,130" id="26" fill="rgb(58,43,38)" fill-opacity="0.501961" />
<polygon points="119,105 46,105 94,44" id="27" fill="rgb(127,76,55)" fill-opacity="0.501961" />
<polygon points="28,54 32,109 75,56" id="28" fill="rgb(47,35,38)" fill-opacity="0.501961" />
<polygon points="75,71 79,73 76,46" id="29" fill="rgb(255,248,255)" fill-opacity="0.501961" />
<polygon points="124,193 71,204 122,205" id="30" fill="rgb(101,69,54)" fill-opacity="0.501961" />
</svg>