<?xml version="1.0" standalone="no"?>
<svg xmlns="http://www.w3.org/2000/svg" version="1.2" baseProfile="tiny" width="194" height="256" viewBox="0 0 194 256">
<rect x="0" y="0" width="194" height="256" id="0" fill="rgb(132,114,116)" fill-opacity="1" />
<polygon points="0,63 115,162 120,52" id="1" fill="rgb(164,224,255)" fill-opacity="0.501961" />
<polygon points="0,19 174,85 178,0" id="2" fill="rgb(255,35,37)" fill-opacity="0.501961" />
<polygon points="12,256 135,129 -21,71" id="3" fill="rgb(51,153,176)" fill-opacity="0.501961" />
<polygon points="134,256 120,138 0,235" id="4" fill="rgb(35,73,60)" fill-opacity="0.501961" />
<polygon points="16,59 194,43 9,1" id="5" fill="rgb(255,83,94)" fill-opacity="0.501961" />
<polygon points="193,0 191,256 122,94" id="6" fill="rgb(114,77,42)" fill-opacity="0.501961" />
<polygon points="0,235 38,256 0,256" id="7" fill="rgb(255,255,255)" fill-opacity="0.501961" />
<polygon points="98,0 180,39 194,0" id="8" fill="rgb(118,0,0)" fill-opacity="0.501961" />
<polygon points="133,81 0,133 0,48" id="9" fill="rgb(169,185,222)" fill-opacity="0.501961" />
<polygon points="13,55 16,9 83,53" id="10" fill="rgb(249,0,0)" fill-opacity="0.501961" />
<polygon points="171,30 167,48 46,47" id="11" fill="rgb(252,190,196)" fill-opacity="0.501961" />
<polygon points="0,6 97,12 69,-16" id="12" fill="rgb(181,219,255)" fill-opacity="0.501961" />
<polygon points="42,158 31,256 104,256" id="13" fill="rgb(27,95,95)" fill-opacity="0.501961" />
<polygon points="16,0 0,93 0,0" id="14" fill="rgb(163,207,253)" fill-opacity="0.501961" />
<polygon points="177,37 172,10 66,11" id="15" fill="rgb(255,0,18)" fill-opacity="0.501961" />
<polygon points="2,55 129,57 122,110" id="16" fill="rgb(177,193,223)" fill-opacity="0.501961" />
<polygon points="151,95 133,255 122,94" id="17" fill="rgb(205,136,89)" fill-opacity="0.501961" />
<polygon points="116,44 106,13 19,44" id="18" fill="rgb(226,143,140)" fill-opacity="0.501961" />
<polygon points="194,256 71,256 87,153" id="19" fill="rgb(114,83,67)" fill-opacity="0.501961" />
<polygon points="0,236 19,234 0,156" id="20" fill="rgb(0,83,82)" fill-opacity="0.501961" />
<polygon points="148,48 25,53 194,55" id="21" fill="rgb(238,0,0)" fill-opacity="0.501961" />
</svg>