<?xml version="1.0" standalone="no"?>
<svg xmlns="http://www.w3.org/2000/svg" version="1.2" baseProfile="tiny" width="256" height="170" viewBox="0 0 256 170">
<rect x="0" y="0" width="256" height="170" id="0" fill="rgb(108,128,145)" fill-opacity="1" />
<polygon points="0,0 256,0 138,90" id="1" fill="rgb(231,255,255)" fill-opacity="0.501961" />
<polygon points="256,80 0,167 256,170" id="2" fill="rgb(30,29,29)" fill-opacity="0.501961" />
<polygon points="150,115 0,72 0,170" id="3" fill="rgb(37,54,89)" fill-opacity="0.501961" />
<polygon points="0,0 0,33 256,26" id="4" fill="rgb(210,240,250)" fill-opacity="0.501961" />
<polygon points="93,170 212,92 4,25" id="5" fill="rgb(91,123,154)" fill-opacity="0.501961" />
<polygon points="256,0 181,0 139,141" id="6" fill="rgb(142,168,186)" fill-opacity="0.501961" />
<polygon points="109,169 220,123 268,173" id="7" fill="rgb(40,30,18)" fill-opacity="0.501961" />
<polygon points="59,50 0,0 172,0" id="8" fill="rgb(203,233,243)" fill-opacity="0.501961" />
<polygon points="0,109 104,170 0,170" id="9" fill="rgb(59,70,87)" fill-opacity="0.501961" />
<polygon points="256,86 166,72 220,132" id="10" fill="rgb(80,100,125)" fill-opacity="0.501961" />
<polygon points="256,4 256,31 123,59" id="11" fill="rgb(164,187,200)" fill-opacity="0.501961" />
<polygon points="170,154 149,73 0,76" id="12" fill="rgb(86,111,135)" fill-opacity="0.501961" />
<polygon points="133,170 82,103 23,170" id="13" fill="rgb(76,92,107)" fill-opacity="0.501961" />
<polygon points="68,85 172,76 9,28" id="14" fill="rgb(110,145,175)" fill-opacity="0.501961" />
<polygon points="181,105 158,157 263,150" id="15" fill="rgb(45,46,52)" fill-opacity="0.501961" />
<polygon points="0,21 206,11 129,61" id="16" fill="rgb(182,210,222)" fill-opacity="0.501961" />
<polygon points="184,11 131,24 166,111" id="17" fill="rgb(160,189,202)" fill-opacity="0.501961" />
<polygon points="0,30 105,128 0,94" id="18" fill="rgb(76,103,138)" fill-opacity="0.501961" />
</svg>