<?xml version="1.0" standalone="no"?>
<svg xmlns="http://www.w3.org/2000/svg" version="1.2" baseProfile="tiny" width="256" height="170" viewBox="0 0 256 170">
<rect x="0" y="0" width="256" height="170" id="0" fill="rgb(108,104,94)" fill-opacity="1" />
<polygon points="65,85 0,0 134,0" id="1" fill="rgb(219,218,211)" fill-opacity="0.501961" />
<polygon points="256,135 256,61 0,102" id="2" fill="rgb(11,11,17)" fill-opacity="0.501961" />
<polygon points="0,170 147,129 256,170" id="3" fill="rgb(227,209,188)" fill-opacity="0.501961" />
<polygon points="77,89 0,169 0,41" id="4" fill="rgb(16,17,26)" fill-opacity="0.501961" />
<polygon points="172,61 83,114 0,21" id="5" fill="rgb(140,129,115)" fill-opacity="0.501961" />
<polygon points="200,0 256,0 256,70" id="6" fill="rgb(29,37,22)" fill-opacity="0.501961" />
<polygon points="43,22 0,0 0,43" id="7" fill="rgb(221,217,225)" fill-opacity="0.501961" />
<polygon points="97,70 101,0 63,0" id="8" fill="rgb(231,228,231)" fill-opacity="0.501961" />
<polygon points="256,113 182,138 6,130" id="9" fill="rgb(80,77,66)" fill-opacity="0.501961" />
<polygon points="236,136 256,162 23,137" id="10" fill="rgb(192,175,151)" fill-opacity="0.501961" />
<polygon points="39,72 169,72 0,170" id="11" fill="rgb(73,70,67)" fill-opacity="0.501961" />
<polygon points="207,149 204,93 229,170" id="12" fill="rgb(178,161,134)" fill-opacity="0.501961" />
<polygon points="123,3 132,68 76,82" id="13" fill="rgb(162,152,125)" fill-opacity="0.501961" />
<polygon points="122,0 199,63 239,0" id="14" fill="rgb(92,101,60)" fill-opacity="0.501961" />
<polygon points="64,170 218,140 28,139" id="15" fill="rgb(174,164,153)" fill-opacity="0.501961" />
<polygon points="144,71 256,75 256,132" id="16" fill="rgb(33,32,35)" fill-opacity="0.501961" />
<polygon points="92,79 6,48 63,0" id="17" fill="rgb(131,131,118)" fill-opacity="0.501961" />
<polygon points="55,106 0,31 0,127" id="18" fill="rgb(38,39,43)" fill-opacity="0.501961" />
<polygon points="17,0 44,0 23,26" id="19" fill="rgb(230,224,234)" fill-opacity="0.501961" />
<polygon points="69,14 93,0 79,31" id="20" fill="rgb(255,255,255)" fill-opacity="0.501961" />
<polygon points="113,7 184,29 127,68" id="21" fill="rgb(132,136,91)" fill-opacity="0.501961" />
<polygon points="131,133 180,126 244,135" id="22" fill="rgb(41,40,38)" fill-opacity="0.501961" />
<polygon points="174,49 204,8 208,90" id="23" fill="rgb(77,72,60)" fill-opacity="0.501961" />
<polygon points="197,125 226,119 69,123" id="24" fill="rgb(139,132,115)" fill-opacity="0.501961" />
<polygon points="73,0 28,54 0,40" id="25" fill="rgb(157,157,146)" fill-opacity="0.501961" />
<polygon points="13,13 5,40 16,28" id="26" fill="rgb(249,245,254)" fill-opacity="0.501961" />
<polygon points="186,74 194,116 90,113" id="27" fill="rgb(33,35,41)" fill-opacity="0.501961" />
<polygon points="137,126 77,133 144,135" id="28" fill="rgb(40,41,35)" fill-opacity="0.501961" />
<polygon points="90,15 115,73 103,0" id="29" fill="rgb(146,144,125)" fill-opacity="0.501961" />
<polygon points="22,0 0,42 0,23" id="30" fill="rgb(113,110,103)" fill-opacity="0.501961" />
</svg>