<?xml version="1.0" standalone="no"?>
<svg xmlns="http://www.w3.org/2000/svg" version="1.2" baseProfile="tiny" width="194" height="256" viewBox="0 0 194 256">
<rect x="0" y="0" width="194" height="256" id="0" fill="rgb(116,59,52)" fill-opacity="1" />
<polygon points="194,9 98,108 0,11" id="1" fill="rgb(255,68,76)" fill-opacity="0.501961" />
<polygon points="0,232 194,256 110,42" id="2" fill="rgb(47,58,51)" fill-opacity="0.501961" />
<polygon points="0,256 0,234 39,254" id="3" fill="rgb(255,255,255)" fill-opacity="0.501961" />
<polygon points="194,50 82,10 0,44" id="4" fill="rgb(255,137,146)" fill-opacity="0.501961" />
<polygon points="9,118 194,151 158,77" id="5" fill="rgb(126,115,94)" fill-opacity="0.501961" />
<polygon points="65,243 0,111 0,232" id="6" fill="rgb(30,11,6)" fill-opacity="0.501961" />
<polygon points="31,256 31,235 0,256" id="7" fill="rgb(255,255,255)" fill-opacity="0.501961" />
<polygon points="0,44 194,54 0,107" id="8" fill="rgb(137,27,10)" fill-opacity="0.501961" />
<polygon points="75,35 178,27 178,6" id="9" fill="rgb(245,0,0)" fill-opacity="0.501961" />
<polygon points="194,112 105,256 194,256" id="10" fill="rgb(59,15,6)" fill-opacity="0.501961" />
<polygon points="130,214 22,207 132,201" id="11" fill="rgb(157,160,164)" fill-opacity="0.501961" />
<polygon points="18,0 76,55 8,52" id="12" fill="rgb(255,10,22)" fill-opacity="0.501961" />
<polygon points="145,87 102,171 181,216" id="13" fill="rgb(41,66,77)" fill-opacity="0.501961" />
<polygon points="194,0 166,0 194,247" id="14" fill="rgb(111,17,5)" fill-opacity="0.501961" />
<polygon points="33,47 172,32 168,49" id="15" fill="rgb(255,165,173)" fill-opacity="0.501961" />
<polygon points="31,82 27,123 67,151" id="16" fill="rgb(154,147,125)" fill-opacity="0.501961" />
<polygon points="176,147 179,106 126,131" id="17" fill="rgb(167,149,141)" fill-opacity="0.501961" />
<polygon points="30,220 194,251 33,256" id="18" fill="rgb(66,21,12)" fill-opacity="0.501961" />
<polygon points="37,54 106,141 141,58" id="19" fill="rgb(134,71,41)" fill-opacity="0.501961" />
<polygon points="98,17 96,49 105,14" id="20" fill="rgb(255,255,255)" fill-opacity="0.501961" />
<polygon points="144,48 48,55 194,53" id="21" fill="rgb(255,0,10)" fill-opacity="0.501961" />
<polygon points="57,49 69,5 70,46" id="22" fill="rgb(239,251,245)" fill-opacity="0.501961" />
<polygon points="84,39 82,0 64,5" id="23" fill="rgb(185,0,0)" fill-opacity="0.501961" />
</svg>