<?xml version="1.0" standalone="no"?>
<svg xmlns="http://www.w3.org/2000/svg" version="1.2" baseProfile="tiny" width="256" height="170" viewBox="0 0 256 170">
<rect x="0" y="0" width="256" height="170" id="0" fill="rgb(135,134,132)" fill-opacity="1" />
<polygon points="0,169 179,27 112,170" id="1" fill="rgb(255,254,255)" fill-opacity="0.501961" />
<polygon points="0,91 115,0 0,0" id="2" fill="rgb(0,0,0)" fill-opacity="0.501961" />
<polygon points="133,95 207,28 218,99" id="3" fill="rgb(255,255,255)" fill-opacity="0.501961" />
<polygon points="12,101 111,98 105,130" id="4" fill="rgb(9,2,13)" fill-opacity="0.501961" />
<polygon points="256,0 0,0 256,36" id="5" fill="rgb(35,34,31)" fill-opacity="0.501961" />
<polygon points="208,130 231,95 256,138" id="6" fill="rgb(0,0,2)" fill-opacity="0.501961" />
<polygon points="3,124 25,91 52,126" id="7" fill="rgb(0,0,0)" fill-opacity="0.501961" />
<polygon points="27,31 213,4 0,66" id="8" fill="rgb(149,151,148)" fill-opacity="0.501961" />
<polygon points="36,139 117,74 65,78" id="9" fill="rgb(210,215,216)" fill-opacity="0.501961" />
<polygon points="0,27 103,0 0,0" id="10" fill="rgb(0,0,0)" fill-opacity="0.501961" />
<polygon points="227,39 256,70 204,61" id="11" fill="rgb(0,0,0)" fill-opacity="0.501961" />
<polygon points="256,50 245,33 166,29" id="12" fill="rgb(255,255,255)" fill-opacity="0.501961" />
<polygon points="167,126 157,60 246,68" id="13" fill="rgb(231,227,226)" fill-opacity="0.501961" />
<polygon points="82,51 35,58 74,68" id="14" fill="rgb(0,0,0)" fill-opacity="0.501961" />
<polygon points="137,105 160,96 163,110" id="15" fill="rgb(0,0,0)" fill-opacity="0.501961" />
<polygon points="162,125 34,170 39,126" id="16" fill="rgb(239,238,233)" fill-opacity="0.501961" />
<polygon points="256,73 256,50 236,45" id="17" fill="rgb(0,0,0)" fill-opacity="0.501961" />
<polygon points="135,62 119,46 90,61" id="18" fill="rgb(11,0,0)" fill-opacity="0.501961" />
<polygon points="84,126 70,98 104,103" id="19" fill="rgb(29,0,0)" fill-opacity="0.501961" />
<polygon points="163,58 178,38 188,60" id="20" fill="rgb(27,0,0)" fill-opacity="0.501961" />
<polygon points="176,17 246,23 96,36" id="21" fill="rgb(42,38,33)" fill-opacity="0.501961" />
<polygon points="156,86 152,31 105,138" id="22" fill="rgb(249,254,254)" fill-opacity="0.501961" />
<polygon points="53,99 29,99 37,135" id="23" fill="rgb(0,0,0)" fill-opacity="0.501961" />
<polygon points="221,30 170,30 205,63" id="24" fill="rgb(237,237,237)" fill-opacity="0.501961" />
<polygon points="105,154 228,72 184,158" id="25" fill="rgb(164,167,165)" fill-opacity="0.501961" />
<polygon points="177,126 157,170 169,170" id="26" fill="rgb(62,62,54)" fill-opacity="0.501961" />
<polygon points="0,25 0,0 100,0" id="27" fill="rgb(0,0,0)" fill-opacity="0.501961" />
</svg>