<?xml version="1.0" standalone="no"?>
<svg xmlns="http://www.w3.org/2000/svg" version="1.2" baseProfile="tiny" width="256" height="174" viewBox="0 0 256 174">
<rect x="0" y="0" width="256" height="174" id="0" fill="rgb(79,79,69)" fill-opacity="1" />
<polygon points="0,29 219,1 0,0" id="1" fill="rgb(246,253,255)" fill-opacity="0.501961" />
<polygon points="167,31 80,0 191,9" id="2" fill="rgb(240,246,255)" fill-opacity="0.501961" />
<polygon points="200,0 256,0 254,174" id="3" fill="rgb(9,12,0)" fill-opacity="0.501961" />
<polygon points="0,85 146,131 0,170" id="4" fill="rgb(37,36,13)" fill-opacity="0.501961" />
<polygon points="143,0 0,0 0,12" id="5" fill="rgb(255,255,255)" fill-opacity="0.501961" />
<polygon points="17,28 256,80 92,3" id="6" fill="rgb(105,107,105)" fill-opacity="0.501961" />
<polygon points="154,57 65,37 118,174" id="7" fill="rgb(29,26,33)" fill-opacity="0.501961" />
<polygon points="256,174 151,163 255,91" id="8" fill="rgb(34,29,18)" fill-opacity="0.501961" />
<polygon points="158,88 148,0 220,71" id="9" fill="rgb(126,127,108)" fill-opacity="0.501961" />
<polygon points="115,75 102,43 140,77" id="10" fill="rgb(149,149,151)" fill-opacity="0.501961" />
<polygon points="142,0 168,19 226,0" id="11" fill="rgb(88,93,109)" fill-opacity="0.501961" />
<polygon points="108,129 38,83 46,23" id="12" fill="rgb(121,120,94)" fill-opacity="0.501961" />
<polygon points="0,41 83,6 196,38" id="13" fill="rgb(98,98,106)" fill-opacity="0.501961" />
<polygon points="145,20 72,0 133,0" id="14" fill="rgb(248,252,255)" fill-opacity="0.501961" />
<polygon points="143,152 157,78 187,131" id="15" fill="rgb(125,119,99)" fill-opacity="0.501961" />
<polygon points="27,10 0,49 0,11" id="16" fill="rgb(88,96,132)" fill-opacity="0.501961" />
<polygon points="112,58 81,39 94,75" id="17" fill="rgb(0,0,0)" fill-opacity="0.501961" />
<polygon points="88,0 64,12 0,0" id="18" fill="rgb(242,244,255)" fill-opacity="0.501961" />
<polygon points="103,126 143,38 152,88" id="19" fill="rgb(25,23,24)" fill-opacity="0.501961" />
</svg>