<?xml version="1.0" standalone="no"?>
<svg xmlns="http://www.w3.org/2000/svg" version="1.2" baseProfile="tiny" width="256" height="151" viewBox="0 0 256 151">
<rect x="0" y="0" width="256" height="151" id="0" fill="rgb(121,155,171)" fill-opacity="1" />
<polygon points="0,151 183,149 0,94" id="1" fill="rgb(129,35,0)" fill-opacity="0.501961" />
<polygon points="52,0 256,0 205,151" id="2" fill="rgb(128,197,231)" fill-opacity="0.501961" />
<polygon points="85,34 95,146 67,122" id="3" fill="rgb(47,30,17)" fill-opacity="0.501961" />
<polygon points="122,51 146,171 256,79" id="4" fill="rgb(160,192,202)" fill-opacity="0.501961" />
<polygon points="160,0 0,0 0,115" id="5" fill="rgb(86,153,199)" fill-opacity="0.501961" />
<polygon points="0,121 0,149 86,148" id="6" fill="rgb(63,38,15)" fill-opacity="0.501961" />
<polygon points="85,111 74,151 146,130" id="7" fill="rgb(147,89,42)" fill-opacity="0.501961" />
<polygon points="256,27 254,120 89,121" id="8" fill="rgb(152,187,202)" fill-opacity="0.501961" />
<polygon points="0,110 55,107 79,142" id="9" fill="rgb(210,134,77)" fill-opacity="0.501961" />
<polygon points="77,48 78,89 93,90" id="10" fill="rgb(0,1,8)" fill-opacity="0.501961" />
<polygon points="174,151 71,43 237,129" id="11" fill="rgb(140,173,184)" fill-opacity="0.501961" />
<polygon points="0,104 75,109 78,9" id="12" fill="rgb(115,159,184)" fill-opacity="0.501961" />
<polygon points="90,40 82,35 90,52" id="13" fill="rgb(17,0,0)" fill-opacity="0.501961" />
<polygon points="256,60 256,0 0,5" id="14" fill="rgb(107,174,210)" fill-opacity="0.501961" />
<polygon points="141,151 71,151 95,115" id="15" fill="rgb(109,77,48)" fill-opacity="0.501961" />
<polygon points="0,18 0,110 70,57" id="16" fill="rgb(90,138,174)" fill-opacity="0.501961" />
<polygon points="0,113 20,137 48,122" id="17" fill="rgb(173,95,48)" fill-opacity="0.501961" />
<polygon points="79,51 74,69 80,106" id="18" fill="rgb(21,31,42)" fill-opacity="0.501961" />
<polygon points="105,6 90,114 177,76" id="19" fill="rgb(121,170,195)" fill-opacity="0.501961" />
<polygon points="219,105 141,150 256,150" id="20" fill="rgb(127,155,161)" fill-opacity="0.501961" />
<polygon points="125,120 75,116 126,131" id="21" fill="rgb(197,133,91)" fill-opacity="0.501961" />
<polygon points="93,132 113,151 104,120" id="22" fill="rgb(51,47,46)" fill-opacity="0.501961" />
<polygon points="49,144 57,124 63,151" id="23" fill="rgb(48,40,33)" fill-opacity="0.501961" />
<polygon points="51,116 35,151 52,151" id="24" fill="rgb(166,106,65)" fill-opacity="0.501961" />
<polygon points="256,51 256,91 159,64" id="25" fill="rgb(152,194,214)" fill-opacity="0.501961" />
<polygon points="79,68 90,48 75,131" id="26" fill="rgb(33,40,43)" fill-opacity="0.501961" />
<polygon points="164,151 207,125 92,88" id="27" fill="rgb(150,183,193)" fill-opacity="0.501961" />
<polygon points="76,55 84,56 95,44" id="28" fill="rgb(212,211,221)" fill-opacity="0.501961" />
<polygon points="84,145 85,98 78,113" id="29" fill="rgb(156,138,124)" fill-opacity="0.501961" />
<polygon points="6,141 11,151 58,143" id="30" fill="rgb(39,42,40)" fill-opacity="0.501961" />
</svg>