<?xml version="1.0" standalone="no"?>
<svg xmlns="http://www.w3.org/2000/svg" version="1.2" baseProfile="tiny" width="256" height="185" viewBox="0 0 256 185">
<rect x="0" y="0" width="256" height="185" id="0" fill="rgb(140,80,75)" fill-opacity="1" />
<polygon points="256,121 243,185 0,184" id="1" fill="rgb(5,57,54)" fill-opacity="0.501961" />
<polygon points="256,3 9,12 93,103" id="2" fill="rgb(218,19,16)" fill-opacity="0.501961" />
<polygon points="151,89 145,185 81,110" id="3" fill="rgb(206,199,199)" fill-opacity="0.501961" />
<polygon points="170,142 174,0 222,146" id="4" fill="rgb(192,181,160)" fill-opacity="0.501961" />
<polygon points="39,118 0,83 0,173" id="5" fill="rgb(192,197,208)" fill-opacity="0.501961" />
<polygon points="248,73 163,75 248,0" id="6" fill="rgb(206,4,8)" fill-opacity="0.501961" />
<polygon points="188,0 0,0 67,11" id="7" fill="rgb(254,239,196)" fill-opacity="0.501961" />
<polygon points="30,0 0,0 0,70" id="8" fill="rgb(227,227,187)" fill-opacity="0.501961" />
<polygon points="0,176 66,69 122,185" id="9" fill="rgb(68,91,84)" fill-opacity="0.501961" />
<polygon points="256,149 241,53 199,185" id="10" fill="rgb(13,35,51)" fill-opacity="0.501961" />
</svg>