<?xml version="1.0" standalone="no"?>
<svg xmlns="http://www.w3.org/2000/svg" version="1.2" baseProfile="tiny" width="192" height="256" viewBox="0 0 192 256">
<rect x="0" y="0" width="192" height="256" id="0" fill="rgb(214,207,193)" fill-opacity="1" />
<polygon points="146,78 160,183 0,186" id="1" fill="rgb(167,138,86)" fill-opacity="0.501961" />
<polygon points="192,61 0,153 0,52" id="2" fill="rgb(255,255,255)" fill-opacity="0.501961" />
<polygon points="192,29 26,22 35,61" id="3" fill="rgb(154,128,73)" fill-opacity="0.501961" />
<polygon points="131,164 132,21 120,138" id="4" fill="rgb(255,255,255)" fill-opacity="0.501961" />
<polygon points="192,196 136,255 120,178" id="5" fill="rgb(255,255,255)" fill-opacity="0.501961" />
<polygon points="66,207 131,208 122,194" id="6" fill="rgb(48,54,63)" fill-opacity="0.501961" />
<polygon points="98,199 76,62 98,82" id="7" fill="rgb(255,255,255)" fill-opacity="0.501961" />
<polygon points="171,103 163,91 165,212" id="8" fill="rgb(124,79,0)" fill-opacity="0.501961" />
<polygon points="9,256 190,256 0,183" id="9" fill="rgb(242,247,255)" fill-opacity="0.501961" />
<polygon points="98,187 121,173 108,76" id="10" fill="rgb(125,91,28)" fill-opacity="0.501961" />
<polygon points="39,192 59,136 36,128" id="11" fill="rgb(138,98,22)" fill-opacity="0.501961" />
<polygon points="184,117 179,152 184,189" id="12" fill="rgb(73,24,0)" fill-opacity="0.501961" />
<polygon points="52,256 63,89 67,178" id="13" fill="rgb(255,255,255)" fill-opacity="0.501961" />
<polygon points="29,56 0,152 192,55" id="14" fill="rgb(255,255,255)" fill-opacity="0.501961" />
<polygon points="163,225 192,236 163,250" id="15" fill="rgb(48,53,68)" fill-opacity="0.501961" />
<polygon points="133,136 117,31 123,205" id="16" fill="rgb(255,255,255)" fill-opacity="0.501961" />
<polygon points="6,194 7,153 26,154" id="17" fill="rgb(126,82,2)" fill-opacity="0.501961" />
<polygon points="153,118 170,0 156,255" id="18" fill="rgb(255,255,255)" fill-opacity="0.501961" />
<polygon points="155,182 80,180 192,226" id="19" fill="rgb(255,255,255)" fill-opacity="0.501961" />
</svg>