<?xml version="1.0" standalone="no"?>
<svg xmlns="http://www.w3.org/2000/svg" version="1.2" baseProfile="tiny" width="256" height="170" viewBox="0 0 256 170">
<rect x="0" y="0" width="256" height="170" id="0" fill="rgb(82,62,57)" fill-opacity="1" />
<polygon points="165,153 31,0 173,0" id="1" fill="rgb(207,162,157)" fill-opacity="0.501961" />
<polygon points="157,170 186,0 256,121" id="2" fill="rgb(0,0,0)" fill-opacity="0.501961" />
<polygon points="165,4 256,170 249,0" id="3" fill="rgb(0,0,0)" fill-opacity="0.501961" />
<polygon points="147,59 31,0 37,170" id="4" fill="rgb(114,73,54)" fill-opacity="0.501961" />
<polygon points="56,1 178,49 157,-5" id="5" fill="rgb(211,167,149)" fill-opacity="0.501961" />
<polygon points="146,170 222,149 232,0" id="6" fill="rgb(0,1,4)" fill-opacity="0.501961" />
<polygon points="40,124 0,63 10,170" id="7" fill="rgb(0,0,0)" fill-opacity="0.501961" />
<polygon points="141,39 165,62 0,77" id="8" fill="rgb(47,42,56)" fill-opacity="0.501961" />
<polygon points="65,170 37,132 27,151" id="9" fill="rgb(148,170,193)" fill-opacity="0.501961" />
<polygon points="174,0 147,170 120,162" id="10" fill="rgb(136,125,154)" fill-opacity="0.501961" />
<polygon points="42,68 156,95 90,110" id="11" fill="rgb(166,112,103)" fill-opacity="0.501961" />
<polygon points="169,116 234,124 177,31" id="12" fill="rgb(0,0,0)" fill-opacity="0.501961" />
<polygon points="120,106 139,108 105,0" id="13" fill="rgb(185,145,146)" fill-opacity="0.501961" />
<polygon points="14,133 21,170 50,170" id="14" fill="rgb(0,3,2)" fill-opacity="0.501961" />
<polygon points="31,0 95,2 45,85" id="15" fill="rgb(153,98,56)" fill-opacity="0.501961" />
<polygon points="125,170 41,132 73,170" id="16" fill="rgb(19,13,15)" fill-opacity="0.501961" />
<polygon points="128,93 169,89 171,53" id="17" fill="rgb(190,164,175)" fill-opacity="0.501961" />
<polygon points="113,79 100,44 72,49" id="18" fill="rgb(36,26,25)" fill-opacity="0.501961" />
<polygon points="176,0 245,0 179,170" id="19" fill="rgb(8,12,13)" fill-opacity="0.501961" />
<polygon points="72,36 127,49 150,19" id="20" fill="rgb(196,147,139)" fill-opacity="0.501961" />
<polygon points="31,140 0,117 0,69" id="21" fill="rgb(4,6,0)" fill-opacity="0.501961" />
<polygon points="83,170 56,61 0,50" id="22" fill="rgb(85,45,24)" fill-opacity="0.501961" />
<polygon points="10,56 4,0 19,0" id="23" fill="rgb(144,143,114)" fill-opacity="0.501961" />
<polygon points="140,127 162,170 211,170" id="24" fill="rgb(53,51,60)" fill-opacity="0.501961" />
<polygon points="256,135 256,42 200,50" id="25" fill="rgb(42,31,26)" fill-opacity="0.501961" />
<polygon points="177,19 230,0 154,-17" id="26" fill="rgb(45,47,44)" fill-opacity="0.501961" />
<polygon points="132,26 169,112 161,145" id="27" fill="rgb(141,127,148)" fill-opacity="0.501961" />
<polygon points="239,131 256,170 203,168" id="28" fill="rgb(118,76,59)" fill-opacity="0.501961" />
<polygon points="37,153 81,170 49,170" id="29" fill="rgb(102,113,140)" fill-opacity="0.501961" />
<polygon points="144,40 61,74 139,73" id="30" fill="rgb(68,56,65)" fill-opacity="0.501961" />
<polygon points="107,28 133,0 53,0" id="31" fill="rgb(200,139,109)" fill-opacity="0.501961" />
<polygon points="117,72 34,71 103,134" id="32" fill="rgb(122,78,68)" fill-opacity="0.501961" />
<polygon points="169,87 166,134 114,130" id="33" fill="rgb(130,112,124)" fill-opacity="0.501961" />
<polygon points="252,0 232,58 250,81" id="34" fill="rgb(89,52,40)" fill-opacity="0.501961" />
<polygon points="167,98 175,35 166,0" id="35" fill="rgb(138,132,139)" fill-opacity="0.501961" />
<polygon points="9,170 0,107 45,168" id="36" fill="rgb(38,38,28)" fill-opacity="0.501961" />
<polygon points="27,0 14,0 22,77" id="37" fill="rgb(48,38,21)" fill-opacity="0.501961" />
<polygon points="14,55 14,20 4,49" id="38" fill="rgb(156,140,115)" fill-opacity="0.501961" />
<polygon points="141,130 72,141 130,148" id="39" fill="rgb(54,34,47)" fill-opacity="0.501961" />
<polygon points="28,35 29,-16 85,56" id="40" fill="rgb(122,91,66)" fill-opacity="0.501961" />
<polygon points="49,170 36,126 65,170" id="41" fill="rgb(112,115,127)" fill-opacity="0.501961" />
<polygon points="123,95 117,66 124,21" id="42" fill="rgb(170,136,141)" fill-opacity="0.501961" />
<polygon points="146,157 172,189 226,150" id="43" fill="rgb(51,41,42)" fill-opacity="0.501961" />
<polygon points="228,125 256,145 256,65" id="44" fill="rgb(15,17,14)" fill-opacity="0.501961" />
<polygon points="95,99 129,122 100,113" id="45" fill="rgb(36,14,11)" fill-opacity="0.501961" />
<polygon points="105,31 52,63 99,0" id="46" fill="rgb(167,113,86)" fill-opacity="0.501961" />
<polygon points="91,65 70,85 98,102" id="47" fill="rgb(131,102,106)" fill-opacity="0.501961" />
<polygon points="0,98 35,119 26,148" id="48" fill="rgb(5,7,5)" fill-opacity="0.501961" />
<polygon points="147,156 165,133 93,159" id="49" fill="rgb(124,96,107)" fill-opacity="0.501961" />
<polygon points="5,57 16,93 49,34" id="50" fill="rgb(70,36,20)" fill-opacity="0.501961" />
<polygon points="144,160 59,170 125,176" id="51" fill="rgb(40,40,60)" fill-opacity="0.501961" />
<polygon points="127,110 146,106 112,132" id="52" fill="rgb(76,70,92)" fill-opacity="0.501961" />
<polygon points="141,156 145,170 151,170" id="53" fill="rgb(161,176,231)" fill-opacity="0.501961" />
<polygon points="37,125 46,149 33,144" id="54" fill="rgb(187,183,186)" fill-opacity="0.501961" />
<polygon points="205,73 245,0 172,27" id="55" fill="rgb(9,9,10)" fill-opacity="0.501961" />
<polygon points="112,165 69,95 44,141" id="56" fill="rgb(80,49,38)" fill-opacity="0.501961" />
<polygon points="168,35 107,41 166,0" id="57" fill="rgb(171,146,147)" fill-opacity="0.501961" />
<polygon points="0,131 0,170 22,170" id="58" fill="rgb(73,68,50)" fill-opacity="0.501961" />
<polygon points="103,108 127,112 107,80" id="59" fill="rgb(140,82,57)" fill-opacity="0.501961" />
<polygon points="78,59 87,75 58,68" id="60" fill="rgb(37,29,24)" fill-opacity="0.501961" />
</svg>