<?xml version="1.0" standalone="no"?>
<svg xmlns="http://www.w3.org/2000/svg" version="1.2" baseProfile="tiny" width="256" height="152" viewBox="0 0 256 152">
<rect x="0" y="0" width="256" height="152" id="0" fill="rgb(33,24,63)" fill-opacity="1" />
<polygon points="256,136 11,134 256,125" id="1" fill="rgb(21,255,255)" fill-opacity="0.501961" />
<polygon points="0,85 47,0 86,106" id="2" fill="rgb(195,98,34)" fill-opacity="0.501961" />
<polygon points="173,91 112,13 72,31" id="3" fill="rgb(121,27,233)" fill-opacity="0.501961" />
<polygon points="76,44 256,82 256,20" id="4" fill="rgb(0,0,15)" fill-opacity="0.501961" />
<polygon points="150,77 256,77 167,92" id="5" fill="rgb(144,36,255)" fill-opacity="0.501961" />
<polygon points="74,46 256,129 85,127" id="6" fill="rgb(0,0,46)" fill-opacity="0.501961" />
<polygon points="239,136 224,72 235,60" id="7" fill="rgb(95,23,255)" fill-opacity="0.501961" />
<polygon points="70,7 59,152 0,128" id="8" fill="rgb(107,50,12)" fill-opacity="0.501961" />
<polygon points="141,25 204,28 214,20" id="9" fill="rgb(129,0,255)" fill-opacity="0.501961" />
<polygon points="0,129 0,152 39,152" id="10" fill="rgb(0,118,239)" fill-opacity="0.501961" />
<polygon points="0,15 0,0 256,3" id="11" fill="rgb(0,0,0)" fill-opacity="0.501961" />
<polygon points="67,128 67,136 256,133" id="12" fill="rgb(42,224,255)" fill-opacity="0.501961" />
<polygon points="256,134 30,149 256,152" id="13" fill="rgb(0,0,0)" fill-opacity="0.501961" />
<polygon points="98,32 65,28 190,21" id="14" fill="rgb(237,52,232)" fill-opacity="0.501961" />
<polygon points="62,21 17,8 0,76" id="15" fill="rgb(152,83,40)" fill-opacity="0.501961" />
<polygon points="255,3 256,113 201,0" id="16" fill="rgb(0,0,16)" fill-opacity="0.501961" />
<polygon points="100,37 73,122 148,91" id="17" fill="rgb(0,0,15)" fill-opacity="0.501961" />
<polygon points="116,27 137,73 122,62" id="18" fill="rgb(222,52,255)" fill-opacity="0.501961" />
<polygon points="230,124 231,89 249,115" id="19" fill="rgb(98,27,255)" fill-opacity="0.501961" />
<polygon points="5,37 59,47 92,34" id="20" fill="rgb(15,4,3)" fill-opacity="0.501961" />
</svg>