<?xml version="1.0" standalone="no"?>
<svg xmlns="http://www.w3.org/2000/svg" version="1.2" baseProfile="tiny" width="256" height="144" viewBox="0 0 256 144">
<rect x="0" y="0" width="256" height="144" id="0" fill="rgb(77,82,83)" fill-opacity="1" />
<polygon points="167,0 48,12 233,73" id="1" fill="rgb(209,255,255)" fill-opacity="0.501961" />
<polygon points="127,17 57,119 209,144" id="2" fill="rgb(0,0,0)" fill-opacity="0.501961" />
<polygon points="73,143 35,127 45,76" id="3" fill="rgb(255,255,255)" fill-opacity="0.501961" />
<polygon points="225,38 152,20 171,71" id="4" fill="rgb(244,255,255)" fill-opacity="0.501961" />
<polygon points="213,0 256,0 256,144" id="5" fill="rgb(0,0,0)" fill-opacity="0.501961" />
<polygon points="97,45 158,0 77,0" id="6" fill="rgb(169,236,255)" fill-opacity="0.501961" />
<polygon points="142,34 198,134 40,105" id="7" fill="rgb(0,0,0)" fill-opacity="0.501961" />
<polygon points="256,22 191,68 240,102" id="8" fill="rgb(24,13,11)" fill-opacity="0.501961" />
<polygon points="83,91 0,144 0,59" id="9" fill="rgb(160,157,151)" fill-opacity="0.501961" />
<polygon points="226,37 162,74 218,111" id="10" fill="rgb(110,126,147)" fill-opacity="0.501961" />
<polygon points="28,0 92,0 59,113" id="11" fill="rgb(66,130,159)" fill-opacity="0.501961" />
<polygon points="149,42 103,31 175,0" id="12" fill="rgb(82,124,136)" fill-opacity="0.501961" />
<polygon points="226,98 213,84 189,97" id="13" fill="rgb(255,255,255)" fill-opacity="0.501961" />
<polygon points="23,41 0,65 0,0" id="14" fill="rgb(32,0,0)" fill-opacity="0.501961" />
</svg>