<?xml version="1.0" standalone="no"?>
<svg xmlns="http://www.w3.org/2000/svg" version="1.2" baseProfile="tiny" width="256" height="178" viewBox="0 0 256 178">
<rect x="0" y="0" width="256" height="178" id="0" fill="rgb(96,84,61)" fill-opacity="1" />
<polygon points="0,0 144,0 0,128" id="1" fill="rgb(251,247,178)" fill-opacity="0.501961" />
<polygon points="10,178 0,83 180,149" id="2" fill="rgb(0,0,0)" fill-opacity="0.501961" />
<polygon points="256,17 193,178 256,178" id="3" fill="rgb(0,0,0)" fill-opacity="0.501961" />
<polygon points="141,0 103,61 233,22" id="4" fill="rgb(0,0,0)" fill-opacity="0.501961" />
<polygon points="196,178 189,23 113,178" id="5" fill="rgb(178,154,152)" fill-opacity="0.501961" />
<polygon points="108,88 0,88 108,38" id="6" fill="rgb(235,211,133)" fill-opacity="0.501961" />
<polygon points="95,68 0,177 120,178" id="7" fill="rgb(0,0,0)" fill-opacity="0.501961" />
<polygon points="82,86 64,0 115,0" id="8" fill="rgb(134,87,0)" fill-opacity="0.501961" />
<polygon points="206,145 146,33 216,46" id="9" fill="rgb(175,144,117)" fill-opacity="0.501961" />
<polygon points="0,95 64,0 -5,-1" id="10" fill="rgb(221,229,205)" fill-opacity="0.501961" />
<polygon points="256,178 256,71 192,157" id="11" fill="rgb(0,0,0)" fill-opacity="0.501961" />
<polygon points="155,178 121,178 120,147" id="12" fill="rgb(232,255,255)" fill-opacity="0.501961" />
<polygon points="80,116 159,178 123,18" id="13" fill="rgb(56,28,11)" fill-opacity="0.501961" />
<polygon points="166,177 198,155 190,178" id="14" fill="rgb(255,255,255)" fill-opacity="0.501961" />
<polygon points="200,21 219,31 247,178" id="15" fill="rgb(0,0,0)" fill-opacity="0.501961" />
<polygon points="0,65 92,81 0,92" id="16" fill="rgb(219,230,234)" fill-opacity="0.501961" />
</svg>