<?xml version="1.0" standalone="no"?>
<svg xmlns="http://www.w3.org/2000/svg" version="1.2" baseProfile="tiny" width="256" height="144" viewBox="0 0 256 144">
<rect x="0" y="0" width="256" height="144" id="0" fill="rgb(25,39,55)" fill-opacity="1" />
<polygon points="106,120 163,96 128,15" id="1" fill="rgb(255,217,255)" fill-opacity="0.501961" />
<polygon points="256,0 255,112 149,102" id="2" fill="rgb(0,0,0)" fill-opacity="0.501961" />
<polygon points="87,51 133,144 166,30" id="3" fill="rgb(143,134,185)" fill-opacity="0.501961" />
<polygon points="0,144 0,0 110,30" id="4" fill="rgb(0,0,0)" fill-opacity="0.501961" />
<polygon points="113,98 148,100 137,60" id="5" fill="rgb(255,210,255)" fill-opacity="0.501961" />
<polygon points="192,144 255,0 152,0" id="6" fill="rgb(0,6,7)" fill-opacity="0.501961" />
<polygon points="113,144 181,135 90,88" id="7" fill="rgb(70,86,122)" fill-opacity="0.501961" />
<polygon points="161,42 167,115 121,14" id="8" fill="rgb(69,92,124)" fill-opacity="0.501961" />
<polygon points="102,0 124,76 84,103" id="9" fill="rgb(30,75,105)" fill-opacity="0.501961" />
<polygon points="92,99 0,0 0,128" id="10" fill="rgb(0,2,8)" fill-opacity="0.501961" />
<polygon points="165,92 134,101 114,144" id="11" fill="rgb(125,87,131)" fill-opacity="0.501961" />
<polygon points="122,34 145,66 122,69" id="12" fill="rgb(244,213,199)" fill-opacity="0.501961" />
<polygon points="139,121 60,96 2,144" id="13" fill="rgb(5,41,73)" fill-opacity="0.501961" />
<polygon points="128,14 149,37 133,60" id="14" fill="rgb(145,102,97)" fill-opacity="0.501961" />
<polygon points="91,1 168,0 73,73" id="15" fill="rgb(27,64,77)" fill-opacity="0.501961" />
<polygon points="83,12 0,104 9,0" id="16" fill="rgb(0,6,7)" fill-opacity="0.501961" />
<polygon points="128,126 123,129 115,144" id="17" fill="rgb(241,251,255)" fill-opacity="0.501961" />
<polygon points="132,143 153,130 136,129" id="18" fill="rgb(157,155,185)" fill-opacity="0.501961" />
<polygon points="153,27 160,57 256,38" id="19" fill="rgb(0,38,47)" fill-opacity="0.501961" />
<polygon points="12,144 -8,115 151,144" id="20" fill="rgb(14,54,88)" fill-opacity="0.501961" />
<polygon points="151,60 139,36 146,81" id="21" fill="rgb(34,26,69)" fill-opacity="0.501961" />
<polygon points="253,106 171,56 256,42" id="22" fill="rgb(0,0,0)" fill-opacity="0.501961" />
<polygon points="126,77 107,37 83,79" id="23" fill="rgb(60,84,121)" fill-opacity="0.501961" />
<polygon points="255,116 232,144 123,110" id="24" fill="rgb(13,45,77)" fill-opacity="0.501961" />
<polygon points="156,94 150,28 167,98" id="25" fill="rgb(73,115,170)" fill-opacity="0.501961" />
<polygon points="90,56 106,29 85,33" id="26" fill="rgb(0,0,5)" fill-opacity="0.501961" />
<polygon points="111,103 156,96 136,84" id="27" fill="rgb(238,174,249)" fill-opacity="0.501961" />
<polygon points="132,39 158,40 127,18" id="28" fill="rgb(150,136,132)" fill-opacity="0.501961" />
<polygon points="126,144 142,109 131,121" id="29" fill="rgb(0,30,38)" fill-opacity="0.501961" />
<polygon points="163,144 145,144 176,50" id="30" fill="rgb(15,37,72)" fill-opacity="0.501961" />
<polygon points="180,80 198,0 173,0" id="31" fill="rgb(0,0,3)" fill-opacity="0.501961" />
<polygon points="89,9 65,2 84,-22" id="32" fill="rgb(50,106,122)" fill-opacity="0.501961" />
<polygon points="88,114 110,41 126,75" id="33" fill="rgb(54,68,115)" fill-opacity="0.501961" />
<polygon points="115,40 186,0 118,35" id="34" fill="rgb(42,39,44)" fill-opacity="0.501961" />
<polygon points="166,3 167,61 129,0" id="35" fill="rgb(19,54,69)" fill-opacity="0.501961" />
<polygon points="114,108 80,40 91,110" id="36" fill="rgb(23,77,94)" fill-opacity="0.501961" />
<polygon points="133,61 152,104 164,88" id="37" fill="rgb(144,114,205)" fill-opacity="0.501961" />
<polygon points="114,105 168,103 142,97" id="38" fill="rgb(137,54,117)" fill-opacity="0.501961" />
<polygon points="63,33 51,121 90,94" id="39" fill="rgb(0,26,38)" fill-opacity="0.501961" />
<polygon points="151,49 132,44 151,66" id="40" fill="rgb(43,32,58)" fill-opacity="0.501961" />
<polygon points="53,144 76,144 68,89" id="41" fill="rgb(30,60,95)" fill-opacity="0.501961" />
<polygon points="0,0 49,0 78,43" id="42" fill="rgb(0,7,7)" fill-opacity="0.501961" />
<polygon points="153,68 179,87 170,51" id="43" fill="rgb(0,49,78)" fill-opacity="0.501961" />
<polygon points="256,6 164,51 234,48" id="44" fill="rgb(2,39,44)" fill-opacity="0.501961" />
<polygon points="0,87 77,107 7,128" id="45" fill="rgb(5,18,25)" fill-opacity="0.501961" />
<polygon points="103,144 69,125 111,114" id="46" fill="rgb(0,24,44)" fill-opacity="0.501961" />
<polygon points="183,45 178,115 256,93" id="47" fill="rgb(1,1,7)" fill-opacity="0.501961" />
<polygon points="95,67 100,48 119,53" id="48" fill="rgb(81,130,154)" fill-opacity="0.501961" />
<polygon points="136,106 134,118 130,114" id="49" fill="rgb(207,184,194)" fill-opacity="0.501961" />
<polygon points="94,20 113,18 88,24" id="50" fill="rgb(117,139,150)" fill-opacity="0.501961" />
<polygon points="256,120 256,86 205,112" id="51" fill="rgb(0,33,43)" fill-opacity="0.501961" />
<polygon points="130,108 111,92 114,114" id="52" fill="rgb(160,108,177)" fill-opacity="0.501961" />
<polygon points="132,52 116,51 126,59" id="53" fill="rgb(253,228,204)" fill-opacity="0.501961" />
<polygon points="150,144 137,130 137,152" id="54" fill="rgb(15,44,75)" fill-opacity="0.501961" />
<polygon points="145,112 114,113 155,107" id="55" fill="rgb(39,30,56)" fill-opacity="0.501961" />
<polygon points="116,52 124,41 101,26" id="56" fill="rgb(54,50,71)" fill-opacity="0.501961" />
<polygon points="72,8 75,25 146,5" id="57" fill="rgb(7,41,49)" fill-opacity="0.501961" />
<polygon points="164,123 137,122 143,103" id="58" fill="rgb(74,51,98)" fill-opacity="0.501961" />
<polygon points="124,52 128,78 132,20" id="59" fill="rgb(216,196,195)" fill-opacity="0.501961" />
<polygon points="188,132 123,144 252,144" id="60" fill="rgb(5,44,78)" fill-opacity="0.501961" />
</svg>