<?xml version="1.0" standalone="no"?>
<svg xmlns="http://www.w3.org/2000/svg" version="1.2" baseProfile="tiny" width="256" height="144" viewBox="0 0 256 144">
<rect x="0" y="0" width="256" height="144" id="0" fill="rgb(139,140,141)" fill-opacity="1" />
<polygon points="191,132 71,135 37,25" id="1" fill="rgb(0,0,17)" fill-opacity="0.501961" />
<polygon points="128,0 168,72 39,98" id="2" fill="rgb(229,240,255)" fill-opacity="0.501961" />
<polygon points="165,60 199,37 207,85" id="3" fill="rgb(0,0,0)" fill-opacity="0.501961" />
<polygon points="256,91 256,0 148,0" id="4" fill="rgb(220,219,207)" fill-opacity="0.501961" />
<polygon points="0,0 83,0 0,89" id="5" fill="rgb(227,227,210)" fill-opacity="0.501961" />
<polygon points="189,135 52,130 178,87" id="6" fill="rgb(5,6,18)" fill-opacity="0.501961" />
<polygon points="123,52 58,0 192,0" id="7" fill="rgb(228,232,236)" fill-opacity="0.501961" />
<polygon points="98,17 26,64 72,88" id="8" fill="rgb(31,37,52)" fill-opacity="0.501961" />
<polygon points="121,51 153,114 87,130" id="9" fill="rgb(35,40,62)" fill-opacity="0.501961" />
<polygon points="65,37 70,8 84,24" id="10" fill="rgb(0,0,0)" fill-opacity="0.501961" />
<polygon points="175,45 153,26 178,19" id="11" fill="rgb(0,0,6)" fill-opacity="0.501961" />
<polygon points="162,118 111,28 128,7" id="12" fill="rgb(249,254,255)" fill-opacity="0.501961" />
<polygon points="68,110 52,82 67,89" id="13" fill="rgb(255,255,255)" fill-opacity="0.501961" />
<polygon points="174,115 180,91 234,56" id="14" fill="rgb(215,219,232)" fill-opacity="0.501961" />
<polygon points="90,55 79,39 47,29" id="15" fill="rgb(246,250,255)" fill-opacity="0.501961" />
<polygon points="224,86 203,89 225,94" id="16" fill="rgb(0,0,0)" fill-opacity="0.501961" />
<polygon points="0,144 70,144 15,9" id="17" fill="rgb(175,166,143)" fill-opacity="0.501961" />
<polygon points="23,77 0,82 46,86" id="18" fill="rgb(0,0,0)" fill-opacity="0.501961" />
<polygon points="77,66 137,70 175,88" id="19" fill="rgb(218,226,252)" fill-opacity="0.501961" />
<polygon points="39,65 79,95 46,35" id="20" fill="rgb(21,23,33)" fill-opacity="0.501961" />
<polygon points="202,82 201,40 171,52" id="21" fill="rgb(0,0,11)" fill-opacity="0.501961" />
<polygon points="167,65 142,15 102,51" id="22" fill="rgb(236,240,253)" fill-opacity="0.501961" />
<polygon points="143,8 94,7 137,15" id="23" fill="rgb(48,54,75)" fill-opacity="0.501961" />
<polygon points="256,68 256,132 176,135" id="24" fill="rgb(170,160,137)" fill-opacity="0.501961" />
<polygon points="186,73 176,92 140,1" id="25" fill="rgb(75,85,116)" fill-opacity="0.501961" />
<polygon points="63,76 47,81 71,110" id="26" fill="rgb(234,239,252)" fill-opacity="0.501961" />
<polygon points="69,133 60,116 170,135" id="27" fill="rgb(5,3,2)" fill-opacity="0.501961" />
<polygon points="217,24 215,4 159,55" id="28" fill="rgb(200,200,200)" fill-opacity="0.501961" />
<polygon points="11,78 42,40 35,78" id="29" fill="rgb(200,199,187)" fill-opacity="0.501961" />
<polygon points="166,63 184,86 177,90" id="30" fill="rgb(5,3,9)" fill-opacity="0.501961" />
<polygon points="83,119 93,89 133,62" id="31" fill="rgb(108,123,163)" fill-opacity="0.501961" />
<polygon points="214,85 183,94 183,87" id="32" fill="rgb(255,255,255)" fill-opacity="0.501961" />
</svg>