<?xml version="1.0" standalone="no"?>
<svg xmlns="http://www.w3.org/2000/svg" version="1.2" baseProfile="tiny" width="256" height="144" viewBox="0 0 256 144">
<rect x="0" y="0" width="256" height="144" id="0" fill="rgb(226,214,194)" fill-opacity="1" />
<polygon points="75,74 158,15 146,126" id="1" fill="rgb(148,65,0)" fill-opacity="0.501961" />
<polygon points="114,39 112,112 183,67" id="2" fill="rgb(202,118,0)" fill-opacity="0.501961" />
<polygon points="150,122 146,96 122,113" id="3" fill="rgb(0,0,0)" fill-opacity="0.501961" />
<polygon points="0,0 114,54 0,144" id="4" fill="rgb(252,249,243)" fill-opacity="0.501961" />
<polygon points="256,0 137,0 253,144" id="5" fill="rgb(255,253,246)" fill-opacity="0.501961" />
<polygon points="87,28 81,95 125,15" id="6" fill="rgb(146,129,65)" fill-opacity="0.501961" />
<polygon points="178,127 157,0 144,105" id="7" fill="rgb(142,153,158)" fill-opacity="0.501961" />
<polygon points="148,103 110,106 142,21" id="8" fill="rgb(248,139,0)" fill-opacity="0.501961" />
<polygon points="87,50 109,134 114,28" id="9" fill="rgb(198,218,233)" fill-opacity="0.501961" />
<polygon points="177,144 242,137 179,14" id="10" fill="rgb(253,248,241)" fill-opacity="0.501961" />
<polygon points="162,106 162,51 162,25" id="11" fill="rgb(0,0,0)" fill-opacity="0.501961" />
<polygon points="89,23 179,42 119,41" id="12" fill="rgb(199,218,243)" fill-opacity="0.501961" />
<polygon points="73,126 156,128 112,128" id="13" fill="rgb(0,0,8)" fill-opacity="0.501961" />
<polygon points="135,0 65,43 0,0" id="14" fill="rgb(255,250,243)" fill-opacity="0.501961" />
<polygon points="99,90 101,85 103,9" id="15" fill="rgb(36,12,0)" fill-opacity="0.501961" />
<polygon points="173,112 176,56 176,120" id="16" fill="rgb(33,42,58)" fill-opacity="0.501961" />
<polygon points="0,144 77,144 75,78" id="17" fill="rgb(255,251,244)" fill-opacity="0.501961" />
<polygon points="151,110 126,104 142,123" id="18" fill="rgb(0,0,0)" fill-opacity="0.501961" />
<polygon points="158,34 163,22 130,22" id="19" fill="rgb(193,129,0)" fill-opacity="0.501961" />
<polygon points="139,127 232,144 9,144" id="20" fill="rgb(252,247,240)" fill-opacity="0.501961" />
<polygon points="169,132 173,75 175,144" id="21" fill="rgb(255,255,255)" fill-opacity="0.501961" />
<polygon points="79,102 149,109 157,103" id="22" fill="rgb(109,59,0)" fill-opacity="0.501961" />
<polygon points="188,127 198,127 124,127" id="23" fill="rgb(0,0,0)" fill-opacity="0.501961" />
<polygon points="87,28 82,92 88,89" id="24" fill="rgb(137,90,0)" fill-opacity="0.501961" />
<polygon points="77,62 77,124 79,144" id="25" fill="rgb(68,71,75)" fill-opacity="0.501961" />
<polygon points="160,46 148,39 158,126" id="26" fill="rgb(181,194,216)" fill-opacity="0.501961" />
<polygon points="103,97 96,63 108,69" id="27" fill="rgb(147,116,7)" fill-opacity="0.501961" />
<polygon points="110,16 123,28 95,25" id="28" fill="rgb(145,97,0)" fill-opacity="0.501961" />
<polygon points="132,22 256,10 46,0" id="29" fill="rgb(248,241,231)" fill-opacity="0.501961" />
</svg>