<?xml version="1.0" standalone="no"?>
<svg xmlns="http://www.w3.org/2000/svg" version="1.2" baseProfile="tiny" width="256" height="144" viewBox="0 0 256 144">
<rect x="0" y="0" width="256" height="144" id="0" fill="rgb(226,212,190)" fill-opacity="1" />
<polygon points="81,132 151,0 146,124" id="1" fill="rgb(158,50,0)" fill-opacity="0.501961" />
<polygon points="141,142 150,18 113,21" id="2" fill="rgb(181,99,0)" fill-opacity="0.501961" />
<polygon points="126,0 256,0 256,144" id="3" fill="rgb(252,252,250)" fill-opacity="0.501961" />
<polygon points="135,0 0,144 0,0" id="4" fill="rgb(252,251,249)" fill-opacity="0.501961" />
<polygon points="97,69 164,89 114,130" id="5" fill="rgb(178,104,0)" fill-opacity="0.501961" />
<polygon points="170,97 196,112 193,70" id="6" fill="rgb(116,78,0)" fill-opacity="0.501961" />
<polygon points="99,5 101,144 0,144" id="7" fill="rgb(230,233,235)" fill-opacity="0.501961" />
<polygon points="47,127 106,127 70,128" id="8" fill="rgb(0,0,0)" fill-opacity="0.501961" />
<polygon points="113,18 148,28 150,89" id="9" fill="rgb(194,122,0)" fill-opacity="0.501961" />
<polygon points="138,144 153,82 255,141" id="10" fill="rgb(222,228,237)" fill-opacity="0.501961" />
<polygon points="136,22 137,130 101,118" id="11" fill="rgb(188,109,0)" fill-opacity="0.501961" />
<polygon points="54,14 128,54 81,26" id="12" fill="rgb(60,64,70)" fill-opacity="0.501961" />
<polygon points="121,127 211,128 210,126" id="13" fill="rgb(0,0,0)" fill-opacity="0.501961" />
<polygon points="180,18 189,22 184,122" id="14" fill="rgb(170,172,176)" fill-opacity="0.501961" />
<polygon points="184,99 133,103 200,106" id="15" fill="rgb(99,89,76)" fill-opacity="0.501961" />
<polygon points="59,121 69,122 40,115" id="16" fill="rgb(0,0,0)" fill-opacity="0.501961" />
<polygon points="149,105 148,62 149,37" id="17" fill="rgb(0,0,0)" fill-opacity="0.501961" />
<polygon points="143,111 164,126 218,126" id="18" fill="rgb(255,255,255)" fill-opacity="0.501961" />
<polygon points="156,49 163,19 156,52" id="19" fill="rgb(0,0,0)" fill-opacity="0.501961" />
<polygon points="84,65 76,59 56,41" id="20" fill="rgb(0,0,0)" fill-opacity="0.501961" />
<polygon points="104,109 21,85 108,96" id="21" fill="rgb(165,172,175)" fill-opacity="0.501961" />
<polygon points="95,144 115,129 231,128" id="22" fill="rgb(255,253,242)" fill-opacity="0.501961" />
</svg>