<?xml version="1.0" standalone="no"?>
<svg xmlns="http://www.w3.org/2000/svg" version="1.2" baseProfile="tiny" width="256" height="144" viewBox="0 0 256 144">
<rect x="0" y="0" width="256" height="144" id="0" fill="rgb(83,88,98)" fill-opacity="1" />
<polygon points="84,24 40,0 153,0" id="1" fill="rgb(255,255,255)" fill-opacity="0.501961" />
<polygon points="121,123 2,75 150,44" id="2" fill="rgb(217,212,213)" fill-opacity="0.501961" />
<polygon points="256,144 116,144 254,0" id="3" fill="rgb(16,20,31)" fill-opacity="0.501961" />
<polygon points="86,24 121,0 62,0" id="4" fill="rgb(255,255,255)" fill-opacity="0.501961" />
<polygon points="0,100 0,144 117,144" id="5" fill="rgb(22,28,40)" fill-opacity="0.501961" />
<polygon points="168,0 148,113 256,0" id="6" fill="rgb(33,44,60)" fill-opacity="0.501961" />
<polygon points="0,49 0,0 83,49" id="7" fill="rgb(22,30,45)" fill-opacity="0.501961" />
<polygon points="152,40 151,0 53,32" id="8" fill="rgb(146,155,159)" fill-opacity="0.501961" />
<polygon points="171,54 36,61 42,115" id="9" fill="rgb(171,175,180)" fill-opacity="0.501961" />
<polygon points="86,96 116,75 123,101" id="10" fill="rgb(255,234,217)" fill-opacity="0.501961" />
<polygon points="44,108 232,81 123,144" id="11" fill="rgb(90,95,106)" fill-opacity="0.501961" />
<polygon points="36,91 36,43 0,75" id="12" fill="rgb(59,72,92)" fill-opacity="0.501961" />
<polygon points="133,58 89,58 131,0" id="13" fill="rgb(70,75,83)" fill-opacity="0.501961" />
<polygon points="198,86 156,67 63,72" id="14" fill="rgb(79,84,91)" fill-opacity="0.501961" />
</svg>