<?xml version="1.0" standalone="no"?>
<svg xmlns="http://www.w3.org/2000/svg" version="1.2" baseProfile="tiny" width="256" height="144" viewBox="0 0 256 144">
<rect x="0" y="0" width="256" height="144" id="0" fill="rgb(54,54,52)" fill-opacity="1" />
<polygon points="123,23 55,144 218,144" id="1" fill="rgb(135,140,139)" fill-opacity="0.501961" />
<polygon points="256,0 0,0 256,64" id="2" fill="rgb(0,0,0)" fill-opacity="0.501961" />
<polygon points="195,0 0,0 0,59" id="3" fill="rgb(0,0,0)" fill-opacity="0.501961" />
<polygon points="227,39 110,144 16,30" id="4" fill="rgb(97,101,99)" fill-opacity="0.501961" />
<polygon points="98,121 0,76 0,127" id="5" fill="rgb(16,15,11)" fill-opacity="0.501961" />
<polygon points="211,47 202,45 202,0" id="6" fill="rgb(173,170,162)" fill-opacity="0.501961" />
<polygon points="255,144 200,0 256,0" id="7" fill="rgb(1,0,0)" fill-opacity="0.501961" />
<polygon points="108,55 158,75 111,40" id="8" fill="rgb(181,192,195)" fill-opacity="0.501961" />
<polygon points="174,67 96,117 38,70" id="9" fill="rgb(114,118,119)" fill-opacity="0.501961" />
<polygon points="256,8 0,32 0,0" id="10" fill="rgb(0,0,0)" fill-opacity="0.501961" />
<polygon points="20,29 2,57 129,72" id="11" fill="rgb(35,33,29)" fill-opacity="0.501961" />
<polygon points="205,72 214,144 131,105" id="12" fill="rgb(70,70,66)" fill-opacity="0.501961" />
<polygon points="256,51 210,30 235,144" id="13" fill="rgb(37,37,32)" fill-opacity="0.501961" />
<polygon points="119,30 138,59 233,66" id="14" fill="rgb(47,48,47)" fill-opacity="0.501961" />
<polygon points="97,73 163,55 192,95" id="15" fill="rgb(110,116,118)" fill-opacity="0.501961" />
<polygon points="103,114 107,86 109,103" id="16" fill="rgb(255,255,254)" fill-opacity="0.501961" />
<polygon points="256,140 163,96 244,79" id="17" fill="rgb(37,37,33)" fill-opacity="0.501961" />
</svg>