<?xml version="1.0" standalone="no"?>
<svg xmlns="http://www.w3.org/2000/svg" version="1.2" baseProfile="tiny" width="256" height="144" viewBox="0 0 256 144">
<rect x="0" y="0" width="256" height="144" id="0" fill="rgb(239,238,235)" fill-opacity="1" />
<polygon points="116,47 159,137 90,137" id="1" fill="rgb(88,72,38)" fill-opacity="0.501961" />
<polygon points="133,108 84,70 174,79" id="2" fill="rgb(192,136,6)" fill-opacity="0.501961" />
<polygon points="123,121 168,136 80,136" id="3" fill="rgb(0,0,0)" fill-opacity="0.501961" />
<polygon points="0,130 191,114 0,77" id="4" fill="rgb(255,255,255)" fill-opacity="0.501961" />
<polygon points="84,69 80,38 111,0" id="5" fill="rgb(100,101,104)" fill-opacity="0.501961" />
<polygon points="256,140 249,0 130,119" id="6" fill="rgb(255,255,255)" fill-opacity="0.501961" />
<polygon points="103,82 80,31 178,56" id="7" fill="rgb(228,227,228)" fill-opacity="0.501961" />
<polygon points="102,102 94,51 81,62" id="8" fill="rgb(129,117,83)" fill-opacity="0.501961" />
<polygon points="105,125 0,144 0,0" id="9" fill="rgb(255,255,255)" fill-opacity="0.501961" />
<polygon points="256,0 165,0 161,143" id="10" fill="rgb(255,255,255)" fill-opacity="0.501961" />
<polygon points="48,123 0,0 98,0" id="11" fill="rgb(255,255,255)" fill-opacity="0.501961" />
<polygon points="0,138 79,144 119,102" id="12" fill="rgb(255,255,255)" fill-opacity="0.501961" />
<polygon points="144,97 161,78 85,81" id="13" fill="rgb(217,158,8)" fill-opacity="0.501961" />
<polygon points="120,100 130,108 166,84" id="14" fill="rgb(74,93,145)" fill-opacity="0.501961" />
<polygon points="256,137 154,144 256,0" id="15" fill="rgb(255,255,255)" fill-opacity="0.501961" />
<polygon points="92,83 86,73 114,98" id="16" fill="rgb(0,0,20)" fill-opacity="0.501961" />
<polygon points="145,52 141,58 111,55" id="17" fill="rgb(65,67,69)" fill-opacity="0.501961" />
<polygon points="105,120 152,136 96,136" id="18" fill="rgb(0,3,14)" fill-opacity="0.501961" />
<polygon points="147,106 146,137 141,135" id="19" fill="rgb(0,0,1)" fill-opacity="0.501961" />
<polygon points="83,37 82,56 95,19" id="20" fill="rgb(25,25,25)" fill-opacity="0.501961" />
<polygon points="86,86 104,14 86,35" id="21" fill="rgb(242,245,249)" fill-opacity="0.501961" />
<polygon points="130,137 130,92 125,128" id="22" fill="rgb(15,16,18)" fill-opacity="0.501961" />
<polygon points="22,0 0,112 100,92" id="23" fill="rgb(255,255,255)" fill-opacity="0.501961" />
<polygon points="171,91 86,96 85,105" id="24" fill="rgb(164,160,159)" fill-opacity="0.501961" />
<polygon points="122,12 93,19 107,9" id="25" fill="rgb(72,72,74)" fill-opacity="0.501961" />
</svg>