<?xml version="1.0" standalone="no"?>
<svg xmlns="http://www.w3.org/2000/svg" version="1.2" baseProfile="tiny" width="256" height="144" viewBox="0 0 256 144">
<rect x="0" y="0" width="256" height="144" id="0" fill="rgb(140,74,77)" fill-opacity="1" />
<polygon points="65,0 181,0 130,101" id="1" fill="rgb(255,255,255)" fill-opacity="0.501961" />
<polygon points="97,143 32,144 30,0" id="2" fill="rgb(0,5,32)" fill-opacity="0.501961" />
<polygon points="185,0 256,136 180,144" id="3" fill="rgb(0,25,30)" fill-opacity="0.501961" />
<polygon points="82,96 160,57 153,0" id="4" fill="rgb(255,255,255)" fill-opacity="0.501961" />
<polygon points="107,89 64,39 109,14" id="5" fill="rgb(255,32,25)" fill-opacity="0.501961" />
<polygon points="222,0 211,51 256,0" id="6" fill="rgb(255,255,204)" fill-opacity="0.501961" />
<polygon points="57,56 116,0 85,0" id="7" fill="rgb(255,255,255)" fill-opacity="0.501961" />
<polygon points="0,87 35,64 0,0" id="8" fill="rgb(217,0,0)" fill-opacity="0.501961" />
<polygon points="137,72 197,87 69,92" id="9" fill="rgb(2,146,207)" fill-opacity="0.501961" />
<polygon points="52,139 177,144 186,86" id="10" fill="rgb(194,2,0)" fill-opacity="0.501961" />
<polygon points="126,24 107,0 150,0" id="11" fill="rgb(249,0,0)" fill-opacity="0.501961" />
<polygon points="164,98 0,144 0,98" id="12" fill="rgb(92,0,0)" fill-opacity="0.501961" />
<polygon points="83,144 25,144 71,33" id="13" fill="rgb(0,51,53)" fill-opacity="0.501961" />
<polygon points="187,53 165,0 150,95" id="14" fill="rgb(255,28,27)" fill-opacity="0.501961" />
<polygon points="253,71 250,8 221,49" id="15" fill="rgb(243,0,0)" fill-opacity="0.501961" />
<polygon points="111,77 151,62 107,0" id="16" fill="rgb(255,255,255)" fill-opacity="0.501961" />
<polygon points="182,34 237,84 196,0" id="17" fill="rgb(66,156,152)" fill-opacity="0.501961" />
<polygon points="240,29 221,144 256,134" id="18" fill="rgb(164,5,7)" fill-opacity="0.501961" />
<polygon points="28,0 54,0 39,95" id="19" fill="rgb(0,38,121)" fill-opacity="0.501961" />
<polygon points="0,91 85,93 82,49" id="20" fill="rgb(8,60,84)" fill-opacity="0.501961" />
<polygon points="85,144 192,93 80,89" id="21" fill="rgb(212,31,25)" fill-opacity="0.501961" />
<polygon points="219,90 256,87 256,68" id="22" fill="rgb(0,114,173)" fill-opacity="0.501961" />
<polygon points="180,136 224,144 224,41" id="23" fill="rgb(2,20,26)" fill-opacity="0.501961" />
<polygon points="25,0 0,28 36,64" id="24" fill="rgb(200,0,0)" fill-opacity="0.501961" />
<polygon points="132,13 178,4 137,46" id="25" fill="rgb(255,255,255)" fill-opacity="0.501961" />
</svg>