<svg xmlns="http://www.w3.org/2000/svg" width="256" height="170" baseProfile="tiny" version="1.2" viewBox="0 0 256 170"><rect id="0" width="256" height="170" x="0" y="0" fill="#68634F" fill-opacity="1"/><polygon id="1" fill="#A5A28B" fill-opacity=".502" points="97 29 256 51 43 115"/><polygon id="2" fill="#282412" fill-opacity=".502" points="0 170 256 168 0 119"/><polygon id="3" fill="#2E2C18" fill-opacity=".502" points="256 170 122 170 256 103"/><polygon id="4" fill="#D1D3C3" fill-opacity=".502" points="188 31 130 0 221 23"/><polygon id="5" fill="#918E74" fill-opacity=".502" points="153 141 256 79 108 25"/><polygon id="6" fill="#312E1D" fill-opacity=".502" points="126 0 256 0 256 26"/><polygon id="7" fill="#EDEEE4" fill-opacity=".502" points="137 52 164 58 105 72"/><polygon id="8" fill="#4D4734" fill-opacity=".502" points="115 82 169 57 256 67"/><polygon id="9" fill="#FFFFE6" fill-opacity=".502" points="80 39 85 33 130 29"/><polygon id="10" fill="#33311F" fill-opacity=".502" points="109 26 142 8 166 44"/><polygon id="11" fill="#716953" fill-opacity=".502" points="0 121 55 160 107 37"/><polygon id="12" fill="#D6D4BC" fill-opacity=".502" points="66 96 100 85 110 101"/><polygon id="13" fill="#090000" fill-opacity=".502" points="126 105 114 84 112 125"/><polygon id="14" fill="#FFFFFE" fill-opacity=".502" points="235 80 262 76 256 85"/><polygon id="15" fill="#AEADA5" fill-opacity=".502" points="100 19 14 13 76 23"/><polygon id="16" fill="#C4C4B0" fill-opacity=".502" points="100 24 169 59 183 51"/><polygon id="17" fill="#B7B7A4" fill-opacity=".502" points="183 55 224 40 256 44"/><polygon id="18" fill="#413D24" fill-opacity=".502" points="156 126 256 149 235 113"/><polygon id="19" fill="#292419" fill-opacity=".502" points="38 0 0 0 28 18"/><polygon id="20" fill="#A09D80" fill-opacity=".502" points="97 121 256 103 181 119"/><polygon id="21" fill="#897F6C" fill-opacity=".502" points="53 54 2 41 0 72"/><polygon id="22" fill="#5C5742" fill-opacity=".502" points="75 68 52 38 122 49"/><polygon id="23" fill="#928C73" fill-opacity=".502" points="95 105 0 92 119 122"/><polygon id="24" fill="#504B37" fill-opacity=".502" points="222 86 256 99 180 102"/><polygon id="25" fill="#C2BFAC" fill-opacity=".502" points="67 0 100 19 93 23"/><polygon id="26" fill="#3E3A29" fill-opacity=".502" points="106 18 158 26 39 35"/><polygon id="27" fill="#646048" fill-opacity=".502" points="157 114 234 151 145 159"/><polygon id="28" fill="#000" fill-opacity=".502" points="107 92 69 112 116 88"/><polygon id="29" fill="#68614A" fill-opacity=".502" points="116 87 28 77 163 67"/><polygon id="30" fill="#000" fill-opacity=".502" points="0 146 60 117 100 96"/><polygon id="31" fill="#AFAE96" fill-opacity=".502" points="206 100 230 110 163 105"/><polygon id="32" fill="#958E7F" fill-opacity=".502" points="33 33 50 10 15 22"/><polygon id="33" fill="#B6B6A3" fill-opacity=".502" points="213 18 199 35 155 7"/><polygon id="34" fill="#3B3826" fill-opacity=".502" points="219 0 218 32 256 27"/><polygon id="35" fill="#464330" fill-opacity=".502" points="166 44 188 34 86 2"/><polygon id="36" fill="#A77C71" fill-opacity=".502" points="159 96 124 101 120 86"/><polygon id="37" fill="#DEE0D7" fill-opacity=".502" points="119 62 114 72 138 67"/><polygon id="38" fill="#4B4533" fill-opacity=".502" points="64 14 81 35 0 43"/><polygon id="39" fill="#2F2D1B" fill-opacity=".502" points="196 170 259 127 256 170"/><polygon id="40" fill="#B7B8A8" fill-opacity=".502" points="221 38 198 60 221 61"/><polygon id="41" fill="#15130C" fill-opacity=".502" points="38 170 27 157 0 170"/><polygon id="42" fill="#B6B49E" fill-opacity=".502" points="70 100 53 76 98 101"/><polygon id="43" fill="#D2CFB4" fill-opacity=".502" points="184 81 252 83 230 78"/><polygon id="44" fill="#FFFFF3" fill-opacity=".502" points="97 43 82 39 100 38"/><polygon id="45" fill="#514C39" fill-opacity=".502" points="238 73 256 77 179 77"/><polygon id="46" fill="#ADAA9A" fill-opacity=".502" points="209 18 82 0 109 0"/></svg>