<?xml version="1.0" standalone="no"?>
<svg xmlns="http://www.w3.org/2000/svg" version="1.2" baseProfile="tiny" width="256" height="170" viewBox="0 0 256 170">
<rect x="0" y="0" width="256" height="170" id="0" fill="rgb(104,99,79)" fill-opacity="1" />
<polygon points="97,29 256,51 43,115" id="1" fill="rgb(165,162,139)" fill-opacity="0.501961" />
<polygon points="0,170 256,168 0,119" id="2" fill="rgb(40,36,18)" fill-opacity="0.501961" />
<polygon points="256,170 122,170 256,103" id="3" fill="rgb(46,44,24)" fill-opacity="0.501961" />
<polygon points="188,31 130,0 221,23" id="4" fill="rgb(209,211,195)" fill-opacity="0.501961" />
<polygon points="153,141 256,79 108,25" id="5" fill="rgb(145,142,116)" fill-opacity="0.501961" />
<polygon points="126,0 256,0 256,26" id="6" fill="rgb(49,46,29)" fill-opacity="0.501961" />
<polygon points="137,52 164,58 105,72" id="7" fill="rgb(237,238,228)" fill-opacity="0.501961" />
<polygon points="115,82 169,57 256,67" id="8" fill="rgb(77,71,52)" fill-opacity="0.501961" />
<polygon points="80,39 85,33 130,29" id="9" fill="rgb(255,255,230)" fill-opacity="0.501961" />
<polygon points="109,26 142,8 166,44" id="10" fill="rgb(51,49,31)" fill-opacity="0.501961" />
<polygon points="0,121 55,160 107,37" id="11" fill="rgb(113,105,83)" fill-opacity="0.501961" />
<polygon points="66,96 100,85 110,101" id="12" fill="rgb(214,212,188)" fill-opacity="0.501961" />
<polygon points="126,105 114,84 112,125" id="13" fill="rgb(9,0,0)" fill-opacity="0.501961" />
<polygon points="235,80 262,76 256,85" id="14" fill="rgb(255,255,254)" fill-opacity="0.501961" />
<polygon points="100,19 14,13 76,23" id="15" fill="rgb(174,173,165)" fill-opacity="0.501961" />
<polygon points="100,24 169,59 183,51" id="16" fill="rgb(196,196,176)" fill-opacity="0.501961" />
<polygon points="183,55 224,40 256,44" id="17" fill="rgb(183,183,164)" fill-opacity="0.501961" />
<polygon points="156,126 256,149 235,113" id="18" fill="rgb(65,61,36)" fill-opacity="0.501961" />
<polygon points="38,0 0,0 28,18" id="19" fill="rgb(41,36,25)" fill-opacity="0.501961" />
<polygon points="97,121 256,103 181,119" id="20" fill="rgb(160,157,128)" fill-opacity="0.501961" />
<polygon points="53,54 2,41 0,72" id="21" fill="rgb(137,127,108)" fill-opacity="0.501961" />
<polygon points="75,68 52,38 122,49" id="22" fill="rgb(92,87,66)" fill-opacity="0.501961" />
<polygon points="95,105 0,92 119,122" id="23" fill="rgb(146,140,115)" fill-opacity="0.501961" />
<polygon points="222,86 256,99 180,102" id="24" fill="rgb(80,75,55)" fill-opacity="0.501961" />
<polygon points="67,0 100,19 93,23" id="25" fill="rgb(194,191,172)" fill-opacity="0.501961" />
<polygon points="106,18 158,26 39,35" id="26" fill="rgb(62,58,41)" fill-opacity="0.501961" />
<polygon points="157,114 234,151 145,159" id="27" fill="rgb(100,96,72)" fill-opacity="0.501961" />
<polygon points="107,92 69,112 116,88" id="28" fill="rgb(0,0,0)" fill-opacity="0.501961" />
<polygon points="116,87 28,77 163,67" id="29" fill="rgb(104,97,74)" fill-opacity="0.501961" />
<polygon points="0,146 60,117 100,96" id="30" fill="rgb(0,0,0)" fill-opacity="0.501961" />
<polygon points="206,100 230,110 163,105" id="31" fill="rgb(175,174,150)" fill-opacity="0.501961" />
<polygon points="33,33 50,10 15,22" id="32" fill="rgb(149,142,127)" fill-opacity="0.501961" />
<polygon points="213,18 199,35 155,7" id="33" fill="rgb(182,182,163)" fill-opacity="0.501961" />
<polygon points="219,0 218,32 256,27" id="34" fill="rgb(59,56,38)" fill-opacity="0.501961" />
<polygon points="166,44 188,34 86,2" id="35" fill="rgb(70,67,48)" fill-opacity="0.501961" />
<polygon points="159,96 124,101 120,86" id="36" fill="rgb(167,124,113)" fill-opacity="0.501961" />
<polygon points="119,62 114,72 138,67" id="37" fill="rgb(222,224,215)" fill-opacity="0.501961" />
<polygon points="64,14 81,35 0,43" id="38" fill="rgb(75,69,51)" fill-opacity="0.501961" />
<polygon points="196,170 259,127 256,170" id="39" fill="rgb(47,45,27)" fill-opacity="0.501961" />
<polygon points="221,38 198,60 221,61" id="40" fill="rgb(183,184,168)" fill-opacity="0.501961" />
<polygon points="38,170 27,157 0,170" id="41" fill="rgb(21,19,12)" fill-opacity="0.501961" />
<polygon points="70,100 53,76 98,101" id="42" fill="rgb(182,180,158)" fill-opacity="0.501961" />
<polygon points="184,81 252,83 230,78" id="43" fill="rgb(210,207,180)" fill-opacity="0.501961" />
<polygon points="97,43 82,39 100,38" id="44" fill="rgb(255,255,243)" fill-opacity="0.501961" />
<polygon points="238,73 256,77 179,77" id="45" fill="rgb(81,76,57)" fill-opacity="0.501961" />
<polygon points="209,18 82,0 109,0" id="46" fill="rgb(173,170,154)" fill-opacity="0.501961" />
</svg>