<?xml version="1.0" standalone="no"?>
<svg xmlns="http://www.w3.org/2000/svg" version="1.2" baseProfile="tiny" width="256" height="170" viewBox="0 0 256 170">
<rect x="0" y="0" width="256" height="170" id="0" fill="rgb(119,124,106)" fill-opacity="1" />
<polygon points="173,0 256,0 208,114" id="1" fill="rgb(0,6,14)" fill-opacity="0.501961" />
<polygon points="189,159 85,170 83,0" id="2" fill="rgb(228,233,181)" fill-opacity="0.501961" />
<polygon points="0,112 96,128 0,170" id="3" fill="rgb(242,251,216)" fill-opacity="0.501961" />
<polygon points="0,0 0,121 51,0" id="4" fill="rgb(0,5,0)" fill-opacity="0.501961" />
<polygon points="127,0 163,115 197,53" id="5" fill="rgb(47,26,24)" fill-opacity="0.501961" />
<polygon points="162,133 69,100 84,136" id="6" fill="rgb(0,87,161)" fill-opacity="0.501961" />
<polygon points="76,0 87,80 121,34" id="7" fill="rgb(225,253,255)" fill-opacity="0.501961" />
<polygon points="0,112 0,46 69,66" id="8" fill="rgb(21,38,3)" fill-opacity="0.501961" />
<polygon points="138,155 62,109 0,111" id="9" fill="rgb(229,210,0)" fill-opacity="0.501961" />
<polygon points="65,43 11,56 15,26" id="10" fill="rgb(173,217,230)" fill-opacity="0.501961" />
<polygon points="194,0 112,20 95,0" id="11" fill="rgb(0,0,0)" fill-opacity="0.501961" />
<polygon points="74,73 23,94 111,92" id="12" fill="rgb(255,241,87)" fill-opacity="0.501961" />
<polygon points="163,0 108,29 76,162" id="13" fill="rgb(125,137,132)" fill-opacity="0.501961" />
<polygon points="170,148 125,184 81,156" id="14" fill="rgb(247,241,253)" fill-opacity="0.501961" />
<polygon points="157,133 154,153 83,149" id="15" fill="rgb(255,226,0)" fill-opacity="0.501961" />
<polygon points="256,0 256,112 197,101" id="16" fill="rgb(50,66,67)" fill-opacity="0.501961" />
<polygon points="256,167 187,149 256,111" id="17" fill="rgb(200,188,166)" fill-opacity="0.501961" />
<polygon points="169,116 99,108 88,118" id="18" fill="rgb(255,237,0)" fill-opacity="0.501961" />
<polygon points="0,0 84,0 49,32" id="19" fill="rgb(31,2,10)" fill-opacity="0.501961" />
<polygon points="67,137 145,136 154,115" id="20" fill="rgb(0,99,197)" fill-opacity="0.501961" />
<polygon points="79,94 0,107 88,110" id="21" fill="rgb(0,93,213)" fill-opacity="0.501961" />
<polygon points="54,170 60,121 0,124" id="22" fill="rgb(199,212,250)" fill-opacity="0.501961" />
<polygon points="199,93 194,71 171,89" id="23" fill="rgb(255,254,245)" fill-opacity="0.501961" />
<polygon points="156,136 138,85 181,130" id="24" fill="rgb(229,52,50)" fill-opacity="0.501961" />
<polygon points="67,170 87,147 98,111" id="25" fill="rgb(62,35,0)" fill-opacity="0.501961" />
<polygon points="75,14 100,3 107,76" id="26" fill="rgb(236,251,255)" fill-opacity="0.501961" />
<polygon points="206,28 212,-1 184,9" id="27" fill="rgb(200,152,135)" fill-opacity="0.501961" />
<polygon points="236,115 192,107 153,147" id="28" fill="rgb(201,191,185)" fill-opacity="0.501961" />
<polygon points="148,81 170,89 176,131" id="29" fill="rgb(0,0,0)" fill-opacity="0.501961" />
<polygon points="60,69 135,55 160,105" id="30" fill="rgb(140,147,123)" fill-opacity="0.501961" />
<polygon points="98,170 0,145 0,169" id="31" fill="rgb(109,142,169)" fill-opacity="0.501961" />
<polygon points="230,170 161,170 156,151" id="32" fill="rgb(164,44,36)" fill-opacity="0.501961" />
<polygon points="163,16 206,59 181,49" id="33" fill="rgb(216,179,138)" fill-opacity="0.501961" />
<polygon points="245,13 177,26 228,76" id="34" fill="rgb(0,36,32)" fill-opacity="0.501961" />
<polygon points="160,105 89,105 154,97" id="35" fill="rgb(255,250,248)" fill-opacity="0.501961" />
<polygon points="240,34 253,84 232,58" id="36" fill="rgb(144,186,202)" fill-opacity="0.501961" />
<polygon points="210,88 205,170 211,140" id="37" fill="rgb(14,21,20)" fill-opacity="0.501961" />
<polygon points="216,134 256,160 203,130" id="38" fill="rgb(0,3,7)" fill-opacity="0.501961" />
<polygon points="86,106 93,96 150,94" id="39" fill="rgb(253,205,11)" fill-opacity="0.501961" />
<polygon points="27,96 102,93 0,109" id="40" fill="rgb(2,111,188)" fill-opacity="0.501961" />
<polygon points="87,140 78,170 60,151" id="41" fill="rgb(69,49,0)" fill-opacity="0.501961" />
<polygon points="13,122 0,113 81,108" id="42" fill="rgb(244,209,0)" fill-opacity="0.501961" />
<polygon points="36,50 42,33 21,40" id="43" fill="rgb(231,255,255)" fill-opacity="0.501961" />
<polygon points="160,0 111,38 78,145" id="44" fill="rgb(132,147,148)" fill-opacity="0.501961" />
<polygon points="0,121 61,122 0,153" id="45" fill="rgb(220,228,240)" fill-opacity="0.501961" />
<polygon points="256,112 216,101 253,93" id="46" fill="rgb(9,11,6)" fill-opacity="0.501961" />
<polygon points="191,149 183,170 226,170" id="47" fill="rgb(35,62,63)" fill-opacity="0.501961" />
<polygon points="0,160 63,155 -20,151" id="48" fill="rgb(52,67,65)" fill-opacity="0.501961" />
<polygon points="256,49 234,97 175,98" id="49" fill="rgb(120,109,92)" fill-opacity="0.501961" />
<polygon points="69,0 84,69 74,0" id="50" fill="rgb(0,0,6)" fill-opacity="0.501961" />
<polygon points="101,96 93,84 93,118" id="51" fill="rgb(73,39,0)" fill-opacity="0.501961" />
<polygon points="199,158 159,136 164,154" id="52" fill="rgb(239,226,237)" fill-opacity="0.501961" />
<polygon points="57,33 58,79 69,18" id="53" fill="rgb(190,227,176)" fill-opacity="0.501961" />
<polygon points="247,17 196,12 252,6" id="54" fill="rgb(115,150,163)" fill-opacity="0.501961" />
<polygon points="157,137 87,137 86,153" id="55" fill="rgb(241,217,0)" fill-opacity="0.501961" />
<polygon points="167,0 193,30 185,0" id="56" fill="rgb(0,0,0)" fill-opacity="0.501961" />
<polygon points="56,126 79,133 38,170" id="57" fill="rgb(164,159,133)" fill-opacity="0.501961" />
<polygon points="53,67 58,0 44,84" id="58" fill="rgb(1,29,55)" fill-opacity="0.501961" />
<polygon points="125,87 98,78 136,74" id="59" fill="rgb(147,93,0)" fill-opacity="0.501961" />
<polygon points="157,139 116,120 147,117" id="60" fill="rgb(0,109,200)" fill-opacity="0.501961" />
<polygon points="122,83 150,86 44,89" id="61" fill="rgb(255,233,59)" fill-opacity="0.501961" />
<polygon points="241,170 197,131 205,148" id="62" fill="rgb(64,67,58)" fill-opacity="0.501961" />
<polygon points="20,73 107,64 9,51" id="63" fill="rgb(56,82,60)" fill-opacity="0.501961" />
<polygon points="132,0 188,35 174,1" id="64" fill="rgb(128,85,53)" fill-opacity="0.501961" />
<polygon points="129,18 131,0 83,0" id="65" fill="rgb(0,17,27)" fill-opacity="0.501961" />
<polygon points="89,154 78,170 167,151" id="66" fill="rgb(231,232,240)" fill-opacity="0.501961" />
<polygon points="85,100 97,82 58,58" id="67" fill="rgb(199,199,135)" fill-opacity="0.501961" />
<polygon points="148,116 95,102 130,96" id="68" fill="rgb(255,241,207)" fill-opacity="0.501961" />
<polygon points="0,107 67,121 0,121" id="69" fill="rgb(223,214,4)" fill-opacity="0.501961" />
<polygon points="176,65 171,107 138,41" id="70" fill="rgb(37,32,23)" fill-opacity="0.501961" />
<polygon points="0,85 36,0 0,0" id="71" fill="rgb(23,33,28)" fill-opacity="0.501961" />
</svg>