<?xml version="1.0" standalone="no"?>
<svg xmlns="http://www.w3.org/2000/svg" version="1.2" baseProfile="tiny" width="256" height="256" viewBox="0 0 256 256">
<rect x="0" y="0" width="256" height="256" id="0" fill="rgb(99,57,33)" fill-opacity="1" />
<polygon points="235,23 104,126 10,32" id="1" fill="rgb(255,233,198)" fill-opacity="0.501961" />
<polygon points="175,256 256,256 255,0" id="2" fill="rgb(13,0,0)" fill-opacity="0.501961" />
<polygon points="101,236 67,33 28,198" id="3" fill="rgb(239,134,0)" fill-opacity="0.501961" />
<polygon points="214,52 232,192 22,61" id="4" fill="rgb(155,48,0)" fill-opacity="0.501961" />
<polygon points="197,25 223,50 0,59" id="5" fill="rgb(255,255,255)" fill-opacity="0.501961" />
<polygon points="148,214 58,122 171,117" id="6" fill="rgb(0,4,32)" fill-opacity="0.501961" />
<polygon points="92,120 129,84 140,103" id="7" fill="rgb(232,255,255)" fill-opacity="0.501961" />
<polygon points="177,187 141,20 206,145" id="8" fill="rgb(220,130,11)" fill-opacity="0.501961" />
<polygon points="0,256 0,0 44,84" id="9" fill="rgb(0,0,0)" fill-opacity="0.501961" />
<polygon points="0,0 256,0 234,31" id="10" fill="rgb(0,0,0)" fill-opacity="0.501961" />
<polygon points="160,28 26,29 26,62" id="11" fill="rgb(251,255,255)" fill-opacity="0.501961" />
<polygon points="7,215 7,240 72,237" id="12" fill="rgb(180,214,247)" fill-opacity="0.501961" />
<polygon points="129,132 171,113 137,63" id="13" fill="rgb(13,68,108)" fill-opacity="0.501961" />
<polygon points="256,24 0,30 0,0" id="14" fill="rgb(0,0,0)" fill-opacity="0.501961" />
<polygon points="180,192 183,236 74,235" id="15" fill="rgb(197,182,6)" fill-opacity="0.501961" />
</svg>