<?xml version="1.0" standalone="no"?>
<svg xmlns="http://www.w3.org/2000/svg" version="1.2" baseProfile="tiny" width="256" height="217" viewBox="0 0 256 217">
<rect x="0" y="0" width="256" height="217" id="0" fill="rgb(107,120,122)" fill-opacity="1" />
<polygon points="0,0 256,35 0,91" id="1" fill="rgb(154,211,255)" fill-opacity="0.501961" />
<polygon points="256,212 120,78 132,217" id="2" fill="rgb(48,41,0)" fill-opacity="0.501961" />
<polygon points="141,163 49,152 58,208" id="3" fill="rgb(15,22,0)" fill-opacity="0.501961" />
<polygon points="256,52 0,0 256,0" id="4" fill="rgb(65,174,255)" fill-opacity="0.501961" />
<polygon points="256,92 256,177 150,113" id="5" fill="rgb(40,39,5)" fill-opacity="0.501961" />
<polygon points="256,8 256,75 0,62" id="6" fill="rgb(208,189,214)" fill-opacity="0.501961" />
<polygon points="0,163 0,123 138,111" id="7" fill="rgb(65,55,0)" fill-opacity="0.501961" />
<polygon points="0,0 256,0 0,34" id="8" fill="rgb(0,114,208)" fill-opacity="0.501961" />
<polygon points="167,124 187,183 106,129" id="9" fill="rgb(175,171,172)" fill-opacity="0.501961" />
<polygon points="96,163 188,217 147,145" id="10" fill="rgb(14,42,9)" fill-opacity="0.501961" />
<polygon points="256,205 219,173 130,213" id="11" fill="rgb(15,20,0)" fill-opacity="0.501961" />
<polygon points="245,42 256,98 96,97" id="12" fill="rgb(159,116,91)" fill-opacity="0.501961" />
<polygon points="37,160 0,165 14,206" id="13" fill="rgb(234,218,211)" fill-opacity="0.501961" />
<polygon points="222,160 216,205 256,148" id="14" fill="rgb(16,21,0)" fill-opacity="0.501961" />
<polygon points="0,126 11,96 125,108" id="15" fill="rgb(199,176,145)" fill-opacity="0.501961" />
<polygon points="0,87 167,82 0,97" id="16" fill="rgb(19,52,8)" fill-opacity="0.501961" />
<polygon points="209,202 194,217 256,217" id="17" fill="rgb(255,111,35)" fill-opacity="0.501961" />
<polygon points="0,217 124,197 0,195" id="18" fill="rgb(83,88,7)" fill-opacity="0.501961" />
<polygon points="106,169 99,127 28,146" id="19" fill="rgb(181,162,141)" fill-opacity="0.501961" />
<polygon points="4,138 79,168 99,217" id="20" fill="rgb(46,52,9)" fill-opacity="0.501961" />
<polygon points="91,217 124,217 127,199" id="21" fill="rgb(255,232,206)" fill-opacity="0.501961" />
<polygon points="234,180 255,187 256,173" id="22" fill="rgb(255,236,241)" fill-opacity="0.501961" />
<polygon points="77,213 68,128 98,217" id="23" fill="rgb(36,45,39)" fill-opacity="0.501961" />
<polygon points="173,192 188,189 167,137" id="24" fill="rgb(211,183,160)" fill-opacity="0.501961" />
<polygon points="256,11 0,30 0,76" id="25" fill="rgb(132,170,230)" fill-opacity="0.501961" />
<polygon points="256,125 244,152 160,178" id="26" fill="rgb(154,129,119)" fill-opacity="0.501961" />
<polygon points="187,187 185,114 216,109" id="27" fill="rgb(23,40,32)" fill-opacity="0.501961" />
<polygon points="54,132 40,136 48,203" id="28" fill="rgb(196,181,163)" fill-opacity="0.501961" />
<polygon points="0,89 92,82 5,76" id="29" fill="rgb(100,117,136)" fill-opacity="0.501961" />
<polygon points="0,164 32,155 4,124" id="30" fill="rgb(28,52,7)" fill-opacity="0.501961" />
<polygon points="227,162 197,166 198,157" id="31" fill="rgb(234,214,195)" fill-opacity="0.501961" />
<polygon points="256,200 256,217 190,193" id="32" fill="rgb(6,5,9)" fill-opacity="0.501961" />
<polygon points="31,112 140,122 0,136" id="33" fill="rgb(99,82,20)" fill-opacity="0.501961" />
<polygon points="90,184 27,158 170,157" id="34" fill="rgb(51,61,18)" fill-opacity="0.501961" />
<polygon points="0,216 31,216 34,185" id="35" fill="rgb(54,72,4)" fill-opacity="0.501961" />
<polygon points="186,138 193,127 99,123" id="36" fill="rgb(168,142,135)" fill-opacity="0.501961" />
<polygon points="74,191 87,196 49,217" id="37" fill="rgb(143,147,170)" fill-opacity="0.501961" />
<polygon points="255,25 256,49 96,47" id="38" fill="rgb(188,202,231)" fill-opacity="0.501961" />
<polygon points="0,19 226,0 -5,-9" id="39" fill="rgb(10,124,193)" fill-opacity="0.501961" />
<polygon points="67,152 92,161 90,145" id="40" fill="rgb(197,207,226)" fill-opacity="0.501961" />
<polygon points="134,104 139,132 171,112" id="41" fill="rgb(13,44,15)" fill-opacity="0.501961" />
<polygon points="0,77 104,78 0,48" id="42" fill="rgb(187,173,193)" fill-opacity="0.501961" />
<polygon points="147,166 129,217 199,217" id="43" fill="rgb(37,60,19)" fill-opacity="0.501961" />
<polygon points="146,80 207,76 153,35" id="44" fill="rgb(181,155,154)" fill-opacity="0.501961" />
<polygon points="256,170 216,140 232,178" id="45" fill="rgb(34,48,18)" fill-opacity="0.501961" />
<polygon points="105,182 135,189 131,210" id="46" fill="rgb(192,159,141)" fill-opacity="0.501961" />
<polygon points="97,139 102,141 132,189" id="47" fill="rgb(27,31,21)" fill-opacity="0.501961" />
<polygon points="227,120 244,47 246,153" id="48" fill="rgb(75,73,62)" fill-opacity="0.501961" />
<polygon points="177,166 250,132 160,158" id="49" fill="rgb(118,111,120)" fill-opacity="0.501961" />
<polygon points="209,116 211,57 185,101" id="50" fill="rgb(91,82,68)" fill-opacity="0.501961" />
<polygon points="37,205 37,169 56,189" id="51" fill="rgb(193,180,156)" fill-opacity="0.501961" />
<polygon points="142,128 122,151 126,197" id="52" fill="rgb(48,63,43)" fill-opacity="0.501961" />
<polygon points="51,38 0,26 256,2" id="53" fill="rgb(76,149,213)" fill-opacity="0.501961" />
<polygon points="230,101 172,82 174,107" id="54" fill="rgb(170,142,107)" fill-opacity="0.501961" />
<polygon points="209,90 125,84 88,92" id="55" fill="rgb(197,146,105)" fill-opacity="0.501961" />
<polygon points="155,151 147,184 175,164" id="56" fill="rgb(51,62,67)" fill-opacity="0.501961" />
<polygon points="207,107 256,106 208,129" id="57" fill="rgb(105,111,122)" fill-opacity="0.501961" />
<polygon points="122,148 107,147 136,130" id="58" fill="rgb(218,208,202)" fill-opacity="0.501961" />
<polygon points="165,77 179,132 156,123" id="59" fill="rgb(68,80,64)" fill-opacity="0.501961" />
<polygon points="180,149 178,162 134,125" id="60" fill="rgb(173,172,174)" fill-opacity="0.501961" />
<polygon points="111,204 96,179 109,217" id="61" fill="rgb(53,32,21)" fill-opacity="0.501961" />
<polygon points="0,78 0,83 58,81" id="62" fill="rgb(26,63,70)" fill-opacity="0.501961" />
<polygon points="87,126 130,121 63,140" id="63" fill="rgb(184,101,41)" fill-opacity="0.501961" />
<polygon points="0,179 32,179 9,202" id="64" fill="rgb(195,174,150)" fill-opacity="0.501961" />
<polygon points="0,110 95,94 0,98" id="65" fill="rgb(177,174,162)" fill-opacity="0.501961" />
<polygon points="181,194 184,217 202,199" id="66" fill="rgb(105,108,50)" fill-opacity="0.501961" />
</svg>