<?xml version="1.0" standalone="no"?>
<svg xmlns="http://www.w3.org/2000/svg" version="1.2" baseProfile="tiny" width="256" height="217" viewBox="0 0 256 217">
<rect x="0" y="0" width="256" height="217" id="0" fill="rgb(199,191,199)" fill-opacity="1" />
<polygon points="256,151 161,117 256,10" id="1" fill="rgb(201,0,0)" fill-opacity="0.501961" />
<polygon points="0,217 6,174 91,217" id="2" fill="rgb(0,0,0)" fill-opacity="0.501961" />
<polygon points="0,132 186,94 181,217" id="3" fill="rgb(246,255,255)" fill-opacity="0.501961" />
<polygon points="124,217 4,0 198,0" id="4" fill="rgb(220,253,255)" fill-opacity="0.501961" />
<polygon points="192,17 192,100 243,0" id="5" fill="rgb(226,23,49)" fill-opacity="0.501961" />
<polygon points="63,217 -22,228 29,134" id="6" fill="rgb(54,55,51)" fill-opacity="0.501961" />
<polygon points="256,38 256,0 196,46" id="7" fill="rgb(255,255,255)" fill-opacity="0.501961" />
<polygon points="256,150 187,136 256,47" id="8" fill="rgb(173,28,43)" fill-opacity="0.501961" />
<polygon points="0,188 23,180 1,147" id="9" fill="rgb(255,255,255)" fill-opacity="0.501961" />
<polygon points="141,86 178,108 256,121" id="10" fill="rgb(255,255,255)" fill-opacity="0.501961" />
</svg>