<?xml version="1.0" standalone="no"?>
<svg xmlns="http://www.w3.org/2000/svg" version="1.2" baseProfile="tiny" width="256" height="217" viewBox="0 0 256 217">
<rect x="0" y="0" width="256" height="217" id="0" fill="rgb(154,158,163)" fill-opacity="1" />
<polygon points="255,215 38,186 256,134" id="1" fill="rgb(0,16,33)" fill-opacity="0.501961" />
<polygon points="3,148 256,126 150,0" id="2" fill="rgb(251,245,238)" fill-opacity="0.501961" />
<polygon points="40,0 0,0 41,123" id="3" fill="rgb(6,18,28)" fill-opacity="0.501961" />
<polygon points="5,13 197,105 195,0" id="4" fill="rgb(234,229,226)" fill-opacity="0.501961" />
<polygon points="87,134 256,149 107,217" id="5" fill="rgb(39,60,69)" fill-opacity="0.501961" />
<polygon points="0,217 11,9 36,217" id="6" fill="rgb(255,255,255)" fill-opacity="0.501961" />
<polygon points="56,122 75,107 55,0" id="7" fill="rgb(0,11,33)" fill-opacity="0.501961" />
<polygon points="247,143 233,0 272,-14" id="8" fill="rgb(8,29,45)" fill-opacity="0.501961" />
<polygon points="0,0 0,127 6,0" id="9" fill="rgb(0,0,13)" fill-opacity="0.501961" />
<polygon points="22,16 19,115 45,116" id="10" fill="rgb(4,21,39)" fill-opacity="0.501961" />
<polygon points="235,141 228,0 209,50" id="11" fill="rgb(255,252,243)" fill-opacity="0.501961" />
<polygon points="96,217 39,123 43,217" id="12" fill="rgb(207,207,210)" fill-opacity="0.501961" />
<polygon points="64,139 43,121 42,10" id="13" fill="rgb(255,251,247)" fill-opacity="0.501961" />
</svg>