<?xml version="1.0" standalone="no"?>
<svg xmlns="http://www.w3.org/2000/svg" version="1.2" baseProfile="tiny" width="256" height="217" viewBox="0 0 256 217">
<rect x="0" y="0" width="256" height="217" id="0" fill="rgb(116,107,109)" fill-opacity="1" />
<polygon points="256,51 0,110 0,0" id="1" fill="rgb(255,255,195)" fill-opacity="0.501961" />
<polygon points="256,217 0,215 248,80" id="2" fill="rgb(0,0,18)" fill-opacity="0.501961" />
<polygon points="171,127 0,103 0,217" id="3" fill="rgb(0,23,66)" fill-opacity="0.501961" />
<polygon points="0,95 256,103 186,0" id="4" fill="rgb(255,195,151)" fill-opacity="0.501961" />
<polygon points="256,92 256,23 26,0" id="5" fill="rgb(198,193,214)" fill-opacity="0.501961" />
<polygon points="0,57 248,84 0,105" id="6" fill="rgb(255,139,51)" fill-opacity="0.501961" />
<polygon points="256,30 0,0 256,0" id="7" fill="rgb(59,111,176)" fill-opacity="0.501961" />
<polygon points="176,78 0,44 130,11" id="8" fill="rgb(255,225,208)" fill-opacity="0.501961" />
<polygon points="83,89 163,97 35,126" id="9" fill="rgb(231,133,134)" fill-opacity="0.501961" />
<polygon points="9,151 0,217 169,215" id="10" fill="rgb(11,24,28)" fill-opacity="0.501961" />
<polygon points="0,29 73,9 0,0" id="11" fill="rgb(67,86,158)" fill-opacity="0.501961" />
<polygon points="256,101 166,104 31,198" id="12" fill="rgb(26,70,104)" fill-opacity="0.501961" />
<polygon points="55,131 0,151 67,169" id="13" fill="rgb(0,82,156)" fill-opacity="0.501961" />
<polygon points="91,181 130,146 85,123" id="14" fill="rgb(0,105,158)" fill-opacity="0.501961" />
<polygon points="256,86 122,73 253,54" id="15" fill="rgb(236,179,126)" fill-opacity="0.501961" />
<polygon points="77,176 256,105 256,211" id="16" fill="rgb(29,42,51)" fill-opacity="0.501961" />
<polygon points="0,89 173,94 0,105" id="17" fill="rgb(214,98,70)" fill-opacity="0.501961" />
<polygon points="110,0 221,28 0,24" id="18" fill="rgb(167,159,179)" fill-opacity="0.501961" />
<polygon points="124,81 157,118 92,116" id="19" fill="rgb(148,125,153)" fill-opacity="0.501961" />
<polygon points="0,49 95,52 0,95" id="20" fill="rgb(255,177,114)" fill-opacity="0.501961" />
<polygon points="206,195 175,217 229,217" id="21" fill="rgb(108,112,131)" fill-opacity="0.501961" />
</svg>