<?xml version="1.0" standalone="no"?>
<svg xmlns="http://www.w3.org/2000/svg" version="1.2" baseProfile="tiny" width="256" height="170" viewBox="0 0 256 170">
<rect x="0" y="0" width="256" height="170" id="0" fill="rgb(179,149,144)" fill-opacity="1" />
<polygon points="256,170 197,170 256,80" id="1" fill="rgb(0,0,27)" fill-opacity="0.501961" />
<polygon points="132,48 141,6 205,45" id="2" fill="rgb(44,0,0)" fill-opacity="0.501961" />
<polygon points="127,45 244,69 42,99" id="3" fill="rgb(255,244,244)" fill-opacity="0.501961" />
<polygon points="112,56 89,21 54,69" id="4" fill="rgb(0,0,0)" fill-opacity="0.501961" />
<polygon points="40,0 37,139 18,14" id="5" fill="rgb(29,16,1)" fill-opacity="0.501961" />
<polygon points="54,31 222,0 49,0" id="6" fill="rgb(255,255,255)" fill-opacity="0.501961" />
<polygon points="46,170 0,0 0,170" id="7" fill="rgb(232,255,255)" fill-opacity="0.501961" />
<polygon points="96,142 184,129 126,117" id="8" fill="rgb(40,0,0)" fill-opacity="0.501961" />
<polygon points="231,0 256,149 211,0" id="9" fill="rgb(40,43,43)" fill-opacity="0.501961" />
<polygon points="256,0 256,78 228,0" id="10" fill="rgb(255,255,255)" fill-opacity="0.501961" />
<polygon points="181,0 219,136 220,14" id="11" fill="rgb(255,248,237)" fill-opacity="0.501961" />
<polygon points="47,143 18,99 64,103" id="12" fill="rgb(71,90,102)" fill-opacity="0.501961" />
<polygon points="157,84 110,92 124,137" id="13" fill="rgb(145,44,37)" fill-opacity="0.501961" />
<polygon points="23,13 0,-11 0,96" id="14" fill="rgb(249,255,255)" fill-opacity="0.501961" />
<polygon points="231,85 111,87 218,30" id="15" fill="rgb(255,217,213)" fill-opacity="0.501961" />
<polygon points="112,34 41,55 105,70" id="16" fill="rgb(73,22,18)" fill-opacity="0.501961" />
<polygon points="130,123 67,65 37,90" id="17" fill="rgb(255,211,209)" fill-opacity="0.501961" />
<polygon points="144,59 141,13 209,38" id="18" fill="rgb(90,39,23)" fill-opacity="0.501961" />
<polygon points="178,120 170,92 101,125" id="19" fill="rgb(255,178,176)" fill-opacity="0.501961" />
<polygon points="212,162 256,73 241,60" id="20" fill="rgb(158,97,67)" fill-opacity="0.501961" />
<polygon points="211,170 256,82 256,170" id="21" fill="rgb(0,38,88)" fill-opacity="0.501961" />
<polygon points="98,0 216,24 143,-15" id="22" fill="rgb(255,255,255)" fill-opacity="0.501961" />
<polygon points="179,170 93,170 157,156" id="23" fill="rgb(255,227,215)" fill-opacity="0.501961" />
<polygon points="236,117 151,170 214,70" id="24" fill="rgb(226,181,158)" fill-opacity="0.501961" />
<polygon points="64,0 167,0 45,37" id="25" fill="rgb(255,224,220)" fill-opacity="0.501961" />
<polygon points="159,139 107,149 149,158" id="26" fill="rgb(163,42,34)" fill-opacity="0.501961" />
<polygon points="146,65 118,29 119,91" id="27" fill="rgb(255,239,242)" fill-opacity="0.501961" />
<polygon points="205,0 250,82 229,0" id="28" fill="rgb(92,78,71)" fill-opacity="0.501961" />
<polygon points="163,133 84,144 114,122" id="29" fill="rgb(82,17,25)" fill-opacity="0.501961" />
<polygon points="119,91 104,104 159,95" id="30" fill="rgb(88,19,12)" fill-opacity="0.501961" />
<polygon points="48,152 39,117 73,125" id="31" fill="rgb(172,142,48)" fill-opacity="0.501961" />
<polygon points="239,114 177,170 202,170" id="32" fill="rgb(158,115,88)" fill-opacity="0.501961" />
<polygon points="45,0 18,0 29,98" id="33" fill="rgb(92,72,60)" fill-opacity="0.501961" />
<polygon points="91,22 177,20 99,42" id="34" fill="rgb(183,109,97)" fill-opacity="0.501961" />
<polygon points="249,65 256,0 233,3" id="35" fill="rgb(242,255,255)" fill-opacity="0.501961" />
<polygon points="48,99 46,123 65,113" id="36" fill="rgb(0,102,196)" fill-opacity="0.501961" />
<polygon points="245,98 229,110 230,75" id="37" fill="rgb(91,58,42)" fill-opacity="0.501961" />
<polygon points="162,115 229,85 143,72" id="38" fill="rgb(229,165,154)" fill-opacity="0.501961" />
<polygon points="73,116 108,80 142,86" id="39" fill="rgb(208,124,118)" fill-opacity="0.501961" />
<polygon points="45,18 44,67 83,0" id="40" fill="rgb(234,198,192)" fill-opacity="0.501961" />
<polygon points="211,165 221,190 239,116" id="41" fill="rgb(33,18,7)" fill-opacity="0.501961" />
<polygon points="137,117 92,130 170,124" id="42" fill="rgb(189,43,55)" fill-opacity="0.501961" />
<polygon points="175,73 211,28 227,65" id="43" fill="rgb(255,243,241)" fill-opacity="0.501961" />
<polygon points="128,13 173,14 129,48" id="44" fill="rgb(140,77,62)" fill-opacity="0.501961" />
<polygon points="149,61 181,62 121,38" id="45" fill="rgb(199,133,117)" fill-opacity="0.501961" />
<polygon points="39,79 79,29 38,50" id="46" fill="rgb(180,137,134)" fill-opacity="0.501961" />
<polygon points="83,113 38,53 43,93" id="47" fill="rgb(225,194,191)" fill-opacity="0.501961" />
<polygon points="53,170 16,83 24,170" id="48" fill="rgb(217,217,215)" fill-opacity="0.501961" />
<polygon points="110,41 61,39 99,19" id="49" fill="rgb(137,71,63)" fill-opacity="0.501961" />
<polygon points="99,130 132,0 86,100" id="50" fill="rgb(231,178,172)" fill-opacity="0.501961" />
<polygon points="182,45 186,33 157,40" id="51" fill="rgb(0,6,12)" fill-opacity="0.501961" />
<polygon points="16,43 19,-17 0,0" id="52" fill="rgb(231,241,240)" fill-opacity="0.501961" />
<polygon points="256,47 239,72 256,0" id="53" fill="rgb(231,234,234)" fill-opacity="0.501961" />
<polygon points="256,130 256,159 228,170" id="54" fill="rgb(68,100,155)" fill-opacity="0.501961" />
<polygon points="39,81 39,137 17,48" id="55" fill="rgb(105,80,65)" fill-opacity="0.501961" />
<polygon points="147,135 176,129 154,121" id="56" fill="rgb(59,0,0)" fill-opacity="0.501961" />
<polygon points="147,115 171,121 163,86" id="57" fill="rgb(249,226,221)" fill-opacity="0.501961" />
<polygon points="207,38 148,20 181,17" id="58" fill="rgb(189,125,107)" fill-opacity="0.501961" />
<polygon points="77,139 70,121 101,93" id="59" fill="rgb(177,102,83)" fill-opacity="0.501961" />
<polygon points="248,65 256,86 239,69" id="60" fill="rgb(131,5,0)" fill-opacity="0.501961" />
<polygon points="144,88 105,107 153,97" id="61" fill="rgb(103,38,27)" fill-opacity="0.501961" />
<polygon points="198,0 144,0 216,31" id="62" fill="rgb(255,238,235)" fill-opacity="0.501961" />
<polygon points="188,136 154,134 95,146" id="63" fill="rgb(255,169,189)" fill-opacity="0.501961" />
<polygon points="123,108 101,107 64,168" id="64" fill="rgb(220,176,169)" fill-opacity="0.501961" />
<polygon points="49,64 87,67 102,40" id="65" fill="rgb(52,34,38)" fill-opacity="0.501961" />
<polygon points="29,114 36,97 48,134" id="66" fill="rgb(112,60,48)" fill-opacity="0.501961" />
<polygon points="24,0 16,22 32,111" id="67" fill="rgb(128,109,93)" fill-opacity="0.501961" />
</svg>