<?xml version="1.0" standalone="no"?>
<svg xmlns="http://www.w3.org/2000/svg" version="1.2" baseProfile="tiny" width="256" height="176" viewBox="0 0 256 176">
<rect x="0" y="0" width="256" height="176" id="0" fill="rgb(150,157,169)" fill-opacity="1" />
<polygon points="256,176 66,125 256,81" id="1" fill="rgb(62,28,1)" fill-opacity="0.501961" />
<polygon points="15,97 247,47 0,0" id="2" fill="rgb(219,245,255)" fill-opacity="0.501961" />
<polygon points="246,100 95,0 256,0" id="3" fill="rgb(85,168,244)" fill-opacity="0.501961" />
<polygon points="9,133 102,136 16,176" id="4" fill="rgb(255,255,247)" fill-opacity="0.501961" />
<polygon points="0,134 40,99 55,130" id="5" fill="rgb(31,5,0)" fill-opacity="0.501961" />
<polygon points="184,98 67,115 196,120" id="6" fill="rgb(255,218,143)" fill-opacity="0.501961" />
<polygon points="235,174 239,81 267,188" id="7" fill="rgb(0,0,7)" fill-opacity="0.501961" />
<polygon points="124,101 83,143 93,170" id="8" fill="rgb(79,29,1)" fill-opacity="0.501961" />
<polygon points="158,176 175,180 183,111" id="9" fill="rgb(47,11,15)" fill-opacity="0.501961" />
<polygon points="47,0 147,17 138,94" id="10" fill="rgb(218,229,251)" fill-opacity="0.501961" />
<polygon points="165,159 154,121 91,176" id="11" fill="rgb(215,199,192)" fill-opacity="0.501961" />
<polygon points="204,100 246,133 195,153" id="12" fill="rgb(37,22,13)" fill-opacity="0.501961" />
<polygon points="78,176 85,132 8,134" id="13" fill="rgb(255,242,233)" fill-opacity="0.501961" />
<polygon points="0,150 51,97 0,85" id="14" fill="rgb(128,101,89)" fill-opacity="0.501961" />
<polygon points="231,154 172,154 236,172" id="15" fill="rgb(211,193,190)" fill-opacity="0.501961" />
<polygon points="160,103 154,62 90,103" id="16" fill="rgb(95,104,109)" fill-opacity="0.501961" />
<polygon points="164,97 256,76 157,49" id="17" fill="rgb(170,211,242)" fill-opacity="0.501961" />
</svg>