<?xml version="1.0" standalone="no"?>
<svg xmlns="http://www.w3.org/2000/svg" version="1.2" baseProfile="tiny" width="256" height="144" viewBox="0 0 256 144">
<rect x="0" y="0" width="256" height="144" id="0" fill="rgb(103,109,109)" fill-opacity="1" />
<polygon points="0,0 256,0 256,63" id="1" fill="rgb(255,255,255)" fill-opacity="0.501961" />
<polygon points="256,144 0,143 131,20" id="2" fill="rgb(0,0,0)" fill-opacity="0.501961" />
<polygon points="0,77 200,0 0,0" id="3" fill="rgb(169,235,255)" fill-opacity="0.501961" />
<polygon points="231,73 256,0 98,0" id="4" fill="rgb(255,255,255)" fill-opacity="0.501961" />
<polygon points="256,144 256,72 0,127" id="5" fill="rgb(15,0,0)" fill-opacity="0.501961" />
<polygon points="151,79 0,72 0,135" id="6" fill="rgb(101,80,8)" fill-opacity="0.501961" />
<polygon points="41,85 224,90 174,74" id="7" fill="rgb(166,170,169)" fill-opacity="0.501961" />
<polygon points="96,33 64,79 189,65" id="8" fill="rgb(2,4,7)" fill-opacity="0.501961" />
<polygon points="84,18 256,0 256,49" id="9" fill="rgb(255,255,251)" fill-opacity="0.501961" />
</svg>