<?xml version="1.0" standalone="no"?>
<svg xmlns="http://www.w3.org/2000/svg" version="1.2" baseProfile="tiny" width="256" height="182" viewBox="0 0 256 182">
<rect x="0" y="0" width="256" height="182" id="0" fill="rgb(147,147,147)" fill-opacity="1" />
<polygon points="256,182 221,182 256,9" id="1" fill="rgb(0,0,0)" fill-opacity="0.501961" />
<polygon points="113,56 27,31 232,27" id="2" fill="rgb(5,5,5)" fill-opacity="0.501961" />
<polygon points="27,109 0,178 30,182" id="3" fill="rgb(0,0,0)" fill-opacity="0.501961" />
<polygon points="0,34 231,81 0,130" id="4" fill="rgb(221,221,221)" fill-opacity="0.501961" />
<polygon points="117,28 245,0 0,0" id="5" fill="rgb(255,255,255)" fill-opacity="0.501961" />
<polygon points="109,125 203,168 47,176" id="6" fill="rgb(55,55,55)" fill-opacity="0.501961" />
<polygon points="184,182 223,182 226,138" id="7" fill="rgb(255,255,255)" fill-opacity="0.501961" />
<polygon points="248,46 233,0 145,156" id="8" fill="rgb(230,230,230)" fill-opacity="0.501961" />
<polygon points="31,127 0,146 0,182" id="9" fill="rgb(0,0,0)" fill-opacity="0.501961" />
<polygon points="224,120 227,182 256,179" id="10" fill="rgb(0,0,0)" fill-opacity="0.501961" />
<polygon points="256,35 256,144 233,68" id="11" fill="rgb(0,0,0)" fill-opacity="0.501961" />
<polygon points="12,91 59,182 52,71" id="12" fill="rgb(90,90,90)" fill-opacity="0.501961" />
<polygon points="124,0 159,118 119,137" id="13" fill="rgb(215,215,215)" fill-opacity="0.501961" />
<polygon points="217,117 256,152 241,115" id="14" fill="rgb(254,254,254)" fill-opacity="0.501961" />
<polygon points="33,182 60,182 30,134" id="15" fill="rgb(255,255,255)" fill-opacity="0.501961" />
<polygon points="113,98 87,128 95,90" id="16" fill="rgb(49,49,49)" fill-opacity="0.501961" />
<polygon points="40,0 0,16 0,147" id="17" fill="rgb(240,240,240)" fill-opacity="0.501961" />
<polygon points="29,114 0,182 27,182" id="18" fill="rgb(0,0,0)" fill-opacity="0.501961" />
<polygon points="140,52 165,13 227,35" id="19" fill="rgb(37,37,37)" fill-opacity="0.501961" />
<polygon points="256,9 48,0 31,26" id="20" fill="rgb(233,233,233)" fill-opacity="0.501961" />
<polygon points="89,23 125,46 40,42" id="21" fill="rgb(0,0,0)" fill-opacity="0.501961" />
<polygon points="198,141 124,58 250,36" id="22" fill="rgb(196,196,196)" fill-opacity="0.501961" />
<polygon points="0,45 24,128 -18,156" id="23" fill="rgb(255,255,255)" fill-opacity="0.501961" />
<polygon points="0,149 0,182 28,120" id="24" fill="rgb(0,0,0)" fill-opacity="0.501961" />
<polygon points="142,91 184,114 167,133" id="25" fill="rgb(87,87,87)" fill-opacity="0.501961" />
<polygon points="125,159 18,119 80,103" id="26" fill="rgb(173,173,173)" fill-opacity="0.501961" />
</svg>