<?xml version="1.0" standalone="no"?>
<svg xmlns="http://www.w3.org/2000/svg" version="1.2" baseProfile="tiny" width="256" height="217" viewBox="0 0 256 217">
<rect x="0" y="0" width="256" height="217" id="0" fill="rgb(186,180,184)" fill-opacity="1" />
<polygon points="106,31 69,71 87,217" id="1" fill="rgb(0,0,22)" fill-opacity="0.501961" />
<polygon points="187,208 203,83 152,60" id="2" fill="rgb(60,17,33)" fill-opacity="0.501961" />
<polygon points="0,192 256,197 9,217" id="3" fill="rgb(255,255,255)" fill-opacity="0.501961" />
<polygon points="0,7 97,15 20,192" id="4" fill="rgb(236,243,248)" fill-opacity="0.501961" />
<polygon points="67,52 178,127 185,45" id="5" fill="rgb(182,118,77)" fill-opacity="0.501961" />
<polygon points="76,63 96,217 98,75" id="6" fill="rgb(12,8,89)" fill-opacity="0.501961" />
<polygon points="214,92 242,54 256,91" id="7" fill="rgb(88,75,71)" fill-opacity="0.501961" />
<polygon points="254,71 190,166 256,217" id="8" fill="rgb(230,235,239)" fill-opacity="0.501961" />
<polygon points="177,191 177,121 201,188" id="9" fill="rgb(0,8,105)" fill-opacity="0.501961" />
<polygon points="176,168 105,86 107,195" id="10" fill="rgb(231,237,234)" fill-opacity="0.501961" />
</svg>