<?xml version="1.0" standalone="no"?>
<svg xmlns="http://www.w3.org/2000/svg" version="1.2" baseProfile="tiny" width="256" height="163" viewBox="0 0 256 163">
<rect x="0" y="0" width="256" height="163" id="0" fill="rgb(150,142,127)" fill-opacity="1" />
<polygon points="93,0 256,0 256,113" id="1" fill="rgb(51,54,55)" fill-opacity="0.501961" />
<polygon points="0,49 154,163 0,163" id="2" fill="rgb(224,217,201)" fill-opacity="0.501961" />
<polygon points="209,24 210,146 0,138" id="3" fill="rgb(179,144,79)" fill-opacity="0.501961" />
<polygon points="0,161 256,163 256,133" id="4" fill="rgb(207,215,224)" fill-opacity="0.501961" />
<polygon points="195,137 193,51 210,62" id="5" fill="rgb(255,255,236)" fill-opacity="0.501961" />
<polygon points="0,163 0,38 113,37" id="6" fill="rgb(183,187,192)" fill-opacity="0.501961" />
<polygon points="256,122 205,26 205,116" id="7" fill="rgb(94,90,83)" fill-opacity="0.501961" />
<polygon points="247,0 150,0 190,27" id="8" fill="rgb(38,42,46)" fill-opacity="0.501961" />
<polygon points="0,163 12,83 40,163" id="9" fill="rgb(216,220,225)" fill-opacity="0.501961" />
<polygon points="224,38 33,124 34,104" id="10" fill="rgb(172,132,52)" fill-opacity="0.501961" />
<polygon points="52,106 63,84 56,163" id="11" fill="rgb(222,239,255)" fill-opacity="0.501961" />
<polygon points="79,56 87,163 94,67" id="12" fill="rgb(188,201,224)" fill-opacity="0.501961" />
<polygon points="183,67 93,140 198,143" id="13" fill="rgb(138,119,88)" fill-opacity="0.501961" />
<polygon points="159,80 171,134 171,69" id="14" fill="rgb(239,207,142)" fill-opacity="0.501961" />
</svg>