<?xml version="1.0" standalone="no"?>
<svg xmlns="http://www.w3.org/2000/svg" version="1.2" baseProfile="tiny" width="256" height="217" viewBox="0 0 256 217">
<rect x="0" y="0" width="256" height="217" id="0" fill="rgb(135,97,71)" fill-opacity="1" />
<polygon points="112,0 0,0 0,201" id="1" fill="rgb(255,240,189)" fill-opacity="0.501961" />
<polygon points="256,18 256,217 68,190" id="2" fill="rgb(54,22,15)" fill-opacity="0.501961" />
<polygon points="65,0 0,0 0,98" id="3" fill="rgb(255,255,224)" fill-opacity="0.501961" />
<polygon points="242,124 211,186 192,64" id="4" fill="rgb(198,167,126)" fill-opacity="0.501961" />
<polygon points="84,217 0,92 209,0" id="5" fill="rgb(113,69,41)" fill-opacity="0.501961" />
<polygon points="164,72 144,217 146,0" id="6" fill="rgb(219,189,153)" fill-opacity="0.501961" />
<polygon points="230,0 256,0 251,217" id="7" fill="rgb(22,0,0)" fill-opacity="0.501961" />
<polygon points="165,10 206,5 170,82" id="8" fill="rgb(4,0,0)" fill-opacity="0.501961" />
<polygon points="73,72 55,217 -18,205" id="9" fill="rgb(216,149,80)" fill-opacity="0.501961" />
<polygon points="256,217 256,142 182,214" id="10" fill="rgb(14,0,0)" fill-opacity="0.501961" />
<polygon points="123,174 186,199 228,169" id="11" fill="rgb(195,157,109)" fill-opacity="0.501961" />
<polygon points="123,175 7,158 209,217" id="12" fill="rgb(17,0,0)" fill-opacity="0.501961" />
<polygon points="111,61 110,137 90,22" id="13" fill="rgb(252,219,173)" fill-opacity="0.501961" />
<polygon points="213,56 145,92 201,98" id="14" fill="rgb(188,162,137)" fill-opacity="0.501961" />
<polygon points="46,57 58,172 64,72" id="15" fill="rgb(59,32,24)" fill-opacity="0.501961" />
</svg>