<?xml version="1.0" standalone="no"?>
<svg xmlns="http://www.w3.org/2000/svg" version="1.2" baseProfile="tiny" width="256" height="217" viewBox="0 0 256 217">
<rect x="0" y="0" width="256" height="217" id="0" fill="rgb(136,146,152)" fill-opacity="1" />
<polygon points="125,0 55,0 40,217" id="1" fill="rgb(255,255,255)" fill-opacity="0.501961" />
<polygon points="252,115 256,0 166,0" id="2" fill="rgb(255,255,255)" fill-opacity="0.501961" />
<polygon points="103,217 111,0 256,214" id="3" fill="rgb(47,79,94)" fill-opacity="0.501961" />
<polygon points="0,217 0,0 56,0" id="4" fill="rgb(59,54,50)" fill-opacity="0.501961" />
<polygon points="108,0 103,205 38,217" id="5" fill="rgb(239,241,242)" fill-opacity="0.501961" />
<polygon points="112,0 168,83 176,0" id="6" fill="rgb(42,38,35)" fill-opacity="0.501961" />
<polygon points="254,0 167,51 256,68" id="7" fill="rgb(255,255,255)" fill-opacity="0.501961" />
<polygon points="39,217 52,23 0,217" id="8" fill="rgb(64,72,79)" fill-opacity="0.501961" />
<polygon points="256,217 165,86 256,69" id="9" fill="rgb(80,100,109)" fill-opacity="0.501961" />
<polygon points="40,217 55,0 106,0" id="10" fill="rgb(255,255,255)" fill-opacity="0.501961" />
<polygon points="256,0 174,66 177,0" id="11" fill="rgb(255,252,246)" fill-opacity="0.501961" />
<polygon points="41,217 87,51 70,217" id="12" fill="rgb(251,251,255)" fill-opacity="0.501961" />
<polygon points="96,194 70,217 86,100" id="13" fill="rgb(94,114,118)" fill-opacity="0.501961" />
<polygon points="251,115 255,80 209,92" id="14" fill="rgb(215,234,234)" fill-opacity="0.501961" />
<polygon points="144,82 241,82 148,111" id="15" fill="rgb(175,127,42)" fill-opacity="0.501961" />
<polygon points="178,65 256,59 256,0" id="16" fill="rgb(255,255,255)" fill-opacity="0.501961" />
</svg>