<?xml version="1.0" standalone="no"?>
<svg xmlns="http://www.w3.org/2000/svg" version="1.2" baseProfile="tiny" width="256" height="217" viewBox="0 0 256 217">
<rect x="0" y="0" width="256" height="217" id="0" fill="rgb(95,100,87)" fill-opacity="1" />
<polygon points="70,0 51,217 0,0" id="1" fill="rgb(255,255,255)" fill-opacity="0.501961" />
<polygon points="57,0 256,0 256,150" id="2" fill="rgb(3,0,22)" fill-opacity="0.501961" />
<polygon points="33,156 256,182 0,217" id="3" fill="rgb(164,198,67)" fill-opacity="0.501961" />
<polygon points="1,34 107,50 0,49" id="4" fill="rgb(0,0,0)" fill-opacity="0.501961" />
<polygon points="60,48 138,129 65,176" id="5" fill="rgb(25,25,41)" fill-opacity="0.501961" />
<polygon points="135,160 168,134 132,131" id="6" fill="rgb(255,255,255)" fill-opacity="0.501961" />
<polygon points="61,170 57,40 0,97" id="7" fill="rgb(219,219,241)" fill-opacity="0.501961" />
<polygon points="70,0 228,3 76,57" id="8" fill="rgb(0,0,8)" fill-opacity="0.501961" />
<polygon points="0,181 44,133 0,129" id="9" fill="rgb(8,13,0)" fill-opacity="0.501961" />
</svg>