<?xml version="1.0" standalone="no"?>
<svg xmlns="http://www.w3.org/2000/svg" version="1.2" baseProfile="tiny" width="256" height="184" viewBox="0 0 256 184">
<rect x="0" y="0" width="256" height="184" id="0" fill="rgb(75,66,56)" fill-opacity="1" />
<polygon points="211,158 46,109 223,18" id="1" fill="rgb(164,131,115)" fill-opacity="0.501961" />
<polygon points="82,0 0,28 0,184" id="2" fill="rgb(0,8,5)" fill-opacity="0.501961" />
<polygon points="0,178 89,78 81,153" id="3" fill="rgb(208,137,116)" fill-opacity="0.501961" />
<polygon points="256,25 204,184 256,184" id="4" fill="rgb(0,21,18)" fill-opacity="0.501961" />
<polygon points="75,168 213,170 103,128" id="5" fill="rgb(4,8,4)" fill-opacity="0.501961" />
<polygon points="172,65 230,81 173,94" id="6" fill="rgb(250,181,176)" fill-opacity="0.501961" />
<polygon points="256,80 213,0 256,0" id="7" fill="rgb(0,18,0)" fill-opacity="0.501961" />
<polygon points="110,109 75,121 120,40" id="8" fill="rgb(0,62,13)" fill-opacity="0.501961" />
<polygon points="49,145 80,0 17,0" id="9" fill="rgb(7,28,20)" fill-opacity="0.501961" />
<polygon points="174,41 150,184 140,104" id="10" fill="rgb(44,67,30)" fill-opacity="0.501961" />
<polygon points="19,0 -14,-6 15,53" id="11" fill="rgb(217,115,65)" fill-opacity="0.501961" />
<polygon points="197,0 149,0 182,34" id="12" fill="rgb(0,0,0)" fill-opacity="0.501961" />
<polygon points="68,75 99,85 44,156" id="13" fill="rgb(151,139,137)" fill-opacity="0.501961" />
<polygon points="174,184 146,155 133,184" id="14" fill="rgb(160,146,111)" fill-opacity="0.501961" />
<polygon points="32,184 98,127 29,134" id="15" fill="rgb(187,90,59)" fill-opacity="0.501961" />
<polygon points="169,184 224,184 158,150" id="16" fill="rgb(0,16,10)" fill-opacity="0.501961" />
<polygon points="151,70 111,103 141,112" id="17" fill="rgb(212,152,136)" fill-opacity="0.501961" />
<polygon points="116,109 71,184 23,184" id="18" fill="rgb(94,36,14)" fill-opacity="0.501961" />
<polygon points="19,162 0,155 0,184" id="19" fill="rgb(106,127,151)" fill-opacity="0.501961" />
<polygon points="54,56 54,78 69,52" id="20" fill="rgb(127,177,178)" fill-opacity="0.501961" />
<polygon points="124,63 114,69 157,71" id="21" fill="rgb(238,194,159)" fill-opacity="0.501961" />
<polygon points="59,82 0,93 55,142" id="22" fill="rgb(28,53,63)" fill-opacity="0.501961" />
<polygon points="162,43 144,21 137,38" id="23" fill="rgb(170,150,160)" fill-opacity="0.501961" />
<polygon points="106,110 155,124 96,95" id="24" fill="rgb(0,50,0)" fill-opacity="0.501961" />
<polygon points="224,20 199,52 196,5" id="25" fill="rgb(149,139,134)" fill-opacity="0.501961" />
<polygon points="0,77 104,59 39,93" id="26" fill="rgb(0,21,3)" fill-opacity="0.501961" />
<polygon points="72,139 54,114 91,127" id="27" fill="rgb(218,175,171)" fill-opacity="0.501961" />
<polygon points="120,157 113,189 138,175" id="28" fill="rgb(0,0,0)" fill-opacity="0.501961" />
<polygon points="217,96 196,74 225,74" id="29" fill="rgb(232,171,152)" fill-opacity="0.501961" />
<polygon points="239,123 224,92 155,82" id="30" fill="rgb(89,77,106)" fill-opacity="0.501961" />
<polygon points="112,0 144,33 84,73" id="31" fill="rgb(86,31,18)" fill-opacity="0.501961" />
<polygon points="158,71 252,56 153,32" id="32" fill="rgb(113,88,74)" fill-opacity="0.501961" />
<polygon points="105,77 138,14 103,112" id="33" fill="rgb(1,63,0)" fill-opacity="0.501961" />
<polygon points="221,45 225,0 256,51" id="34" fill="rgb(1,26,20)" fill-opacity="0.501961" />
<polygon points="134,0 146,0 147,42" id="35" fill="rgb(136,139,159)" fill-opacity="0.501961" />
<polygon points="0,96 0,85 22,95" id="36" fill="rgb(102,156,169)" fill-opacity="0.501961" />
</svg>