<?xml version="1.0" standalone="no"?>
<svg xmlns="http://www.w3.org/2000/svg" version="1.2" baseProfile="tiny" width="256" height="170" viewBox="0 0 256 170">
<rect x="0" y="0" width="256" height="170" id="0" fill="rgb(72,69,69)" fill-opacity="1" />
<polygon points="83,22 136,0 141,170" id="1" fill="rgb(232,225,222)" fill-opacity="0.501961" />
<polygon points="69,0 0,170 0,0" id="2" fill="rgb(0,0,0)" fill-opacity="0.501961" />
<polygon points="256,170 256,23 137,26" id="3" fill="rgb(3,4,7)" fill-opacity="0.501961" />
<polygon points="74,107 209,170 232,129" id="4" fill="rgb(145,157,169)" fill-opacity="0.501961" />
<polygon points="116,57 116,0 159,66" id="5" fill="rgb(241,246,248)" fill-opacity="0.501961" />
<polygon points="143,170 163,53 48,18" id="6" fill="rgb(130,126,121)" fill-opacity="0.501961" />
<polygon points="14,0 89,170 0,170" id="7" fill="rgb(19,15,20)" fill-opacity="0.501961" />
<polygon points="231,91 153,74 154,146" id="8" fill="rgb(32,24,18)" fill-opacity="0.501961" />
<polygon points="247,19 247,0 79,0" id="9" fill="rgb(168,131,111)" fill-opacity="0.501961" />
<polygon points="83,0 83,135 107,0" id="10" fill="rgb(84,50,43)" fill-opacity="0.501961" />
<polygon points="78,69 56,83 55,14" id="11" fill="rgb(157,165,155)" fill-opacity="0.501961" />
<polygon points="159,170 217,170 204,114" id="12" fill="rgb(152,155,161)" fill-opacity="0.501961" />
<polygon points="116,88 136,0 113,0" id="13" fill="rgb(236,233,236)" fill-opacity="0.501961" />
<polygon points="179,98 252,170 220,54" id="14" fill="rgb(25,44,56)" fill-opacity="0.501961" />
<polygon points="138,170 189,151 32,106" id="15" fill="rgb(90,97,113)" fill-opacity="0.501961" />
<polygon points="73,113 8,66 162,98" id="16" fill="rgb(51,54,57)" fill-opacity="0.501961" />
<polygon points="111,0 183,36 147,0" id="17" fill="rgb(165,138,123)" fill-opacity="0.501961" />
<polygon points="221,100 250,14 263,83" id="18" fill="rgb(16,0,0)" fill-opacity="0.501961" />
<polygon points="216,64 236,80 192,82" id="19" fill="rgb(25,117,158)" fill-opacity="0.501961" />
<polygon points="0,0 114,18 8,19" id="20" fill="rgb(13,2,0)" fill-opacity="0.501961" />
<polygon points="200,0 202,99 158,8" id="21" fill="rgb(85,69,59)" fill-opacity="0.501961" />
<polygon points="149,41 149,76 156,78" id="22" fill="rgb(227,230,223)" fill-opacity="0.501961" />
<polygon points="156,101 164,130 164,80" id="23" fill="rgb(152,137,143)" fill-opacity="0.501961" />
<polygon points="107,74 147,84 104,97" id="24" fill="rgb(186,182,171)" fill-opacity="0.501961" />
<polygon points="208,123 237,73 176,104" id="25" fill="rgb(16,7,2)" fill-opacity="0.501961" />
<polygon points="22,146 0,170 0,79" id="26" fill="rgb(0,0,0)" fill-opacity="0.501961" />
<polygon points="246,142 211,159 249,177" id="27" fill="rgb(0,15,38)" fill-opacity="0.501961" />
</svg>