<?xml version="1.0" standalone="no"?>
<svg xmlns="http://www.w3.org/2000/svg" version="1.2" baseProfile="tiny" width="256" height="245" viewBox="0 0 256 245">
<rect x="0" y="0" width="256" height="245" id="0" fill="rgb(129,99,74)" fill-opacity="1" />
<polygon points="256,142 185,0 0,36" id="1" fill="rgb(226,196,163)" fill-opacity="0.501961" />
<polygon points="0,245 0,138 221,90" id="2" fill="rgb(60,32,17)" fill-opacity="0.501961" />
<polygon points="256,245 221,127 129,245" id="3" fill="rgb(39,24,11)" fill-opacity="0.501961" />
<polygon points="192,125 256,87 256,144" id="4" fill="rgb(255,255,235)" fill-opacity="0.501961" />
<polygon points="110,125 0,93 44,20" id="5" fill="rgb(211,171,131)" fill-opacity="0.501961" />
<polygon points="149,245 0,245 0,195" id="6" fill="rgb(22,16,3)" fill-opacity="0.501961" />
<polygon points="220,215 88,97 128,71" id="7" fill="rgb(46,26,22)" fill-opacity="0.501961" />
<polygon points="256,245 167,169 256,163" id="8" fill="rgb(46,31,18)" fill-opacity="0.501961" />
<polygon points="121,117 52,210 153,144" id="9" fill="rgb(185,124,84)" fill-opacity="0.501961" />
<polygon points="127,0 227,124 26,3" id="10" fill="rgb(199,171,142)" fill-opacity="0.501961" />
<polygon points="110,142 39,139 64,177" id="11" fill="rgb(0,0,0)" fill-opacity="0.501961" />
<polygon points="183,153 117,187 174,87" id="12" fill="rgb(67,36,21)" fill-opacity="0.501961" />
<polygon points="44,190 38,102 0,145" id="13" fill="rgb(167,111,74)" fill-opacity="0.501961" />
<polygon points="193,234 44,164 192,186" id="14" fill="rgb(157,112,78)" fill-opacity="0.501961" />
<polygon points="179,79 162,76 144,26" id="15" fill="rgb(255,255,255)" fill-opacity="0.501961" />
<polygon points="186,151 182,0 248,61" id="16" fill="rgb(175,132,88)" fill-opacity="0.501961" />
<polygon points="65,0 0,104 0,1" id="17" fill="rgb(129,101,58)" fill-opacity="0.501961" />
<polygon points="72,78 153,120 146,74" id="18" fill="rgb(97,78,70)" fill-opacity="0.501961" />
<polygon points="107,0 256,0 256,47" id="19" fill="rgb(122,94,51)" fill-opacity="0.501961" />
<polygon points="42,154 25,212 155,245" id="20" fill="rgb(108,73,51)" fill-opacity="0.501961" />
<polygon points="189,128 256,122 270,77" id="21" fill="rgb(240,223,206)" fill-opacity="0.501961" />
<polygon points="148,0 40,22 227,51" id="22" fill="rgb(171,138,100)" fill-opacity="0.501961" />
<polygon points="58,40 66,116 130,38" id="23" fill="rgb(202,173,149)" fill-opacity="0.501961" />
<polygon points="141,144 113,141 130,171" id="24" fill="rgb(48,15,11)" fill-opacity="0.501961" />
<polygon points="192,116 256,136 178,140" id="25" fill="rgb(213,140,88)" fill-opacity="0.501961" />
<polygon points="57,82 39,127 49,82" id="26" fill="rgb(50,21,10)" fill-opacity="0.501961" />
<polygon points="248,191 221,210 206,183" id="27" fill="rgb(145,114,83)" fill-opacity="0.501961" />
<polygon points="173,144 162,90 185,123" id="28" fill="rgb(11,13,9)" fill-opacity="0.501961" />
<polygon points="93,105 171,148 84,76" id="29" fill="rgb(21,19,20)" fill-opacity="0.501961" />
<polygon points="171,141 256,190 232,137" id="30" fill="rgb(86,40,21)" fill-opacity="0.501961" />
<polygon points="99,171 107,119 129,121" id="31" fill="rgb(188,140,99)" fill-opacity="0.501961" />
<polygon points="91,0 28,129 10,52" id="32" fill="rgb(185,152,114)" fill-opacity="0.501961" />
<polygon points="164,73 163,102 139,113" id="33" fill="rgb(233,199,87)" fill-opacity="0.501961" />
<polygon points="188,245 256,245 256,213" id="34" fill="rgb(35,26,13)" fill-opacity="0.501961" />
<polygon points="125,77 149,76 137,125" id="35" fill="rgb(66,37,32)" fill-opacity="0.501961" />
<polygon points="131,245 235,216 18,208" id="36" fill="rgb(99,79,57)" fill-opacity="0.501961" />
<polygon points="148,149 139,131 69,98" id="37" fill="rgb(194,137,98)" fill-opacity="0.501961" />
<polygon points="218,159 176,161 167,145" id="38" fill="rgb(191,127,83)" fill-opacity="0.501961" />
<polygon points="15,26 0,80 45,170" id="39" fill="rgb(155,113,73)" fill-opacity="0.501961" />
<polygon points="256,193 191,173 256,171" id="40" fill="rgb(19,14,6)" fill-opacity="0.501961" />
<polygon points="146,154 129,149 145,170" id="41" fill="rgb(209,129,89)" fill-opacity="0.501961" />
<polygon points="44,187 110,120 99,154" id="42" fill="rgb(23,15,13)" fill-opacity="0.501961" />
<polygon points="118,110 132,108 107,65" id="43" fill="rgb(133,125,110)" fill-opacity="0.501961" />
<polygon points="137,168 84,191 101,143" id="44" fill="rgb(161,118,79)" fill-opacity="0.501961" />
<polygon points="49,160 40,121 91,162" id="45" fill="rgb(6,11,11)" fill-opacity="0.501961" />
<polygon points="74,106 50,119 75,126" id="46" fill="rgb(243,75,49)" fill-opacity="0.501961" />
<polygon points="150,86 221,109 250,83" id="47" fill="rgb(175,132,98)" fill-opacity="0.501961" />
<polygon points="0,0 48,0 0,42" id="48" fill="rgb(96,74,43)" fill-opacity="0.501961" />
<polygon points="256,138 256,149 199,125" id="49" fill="rgb(206,135,76)" fill-opacity="0.501961" />
<polygon points="256,28 215,0 256,0" id="50" fill="rgb(81,59,33)" fill-opacity="0.501961" />
<polygon points="176,162 129,184 133,162" id="51" fill="rgb(61,41,32)" fill-opacity="0.501961" />
<polygon points="227,102 241,40 175,0" id="52" fill="rgb(152,118,81)" fill-opacity="0.501961" />
<polygon points="168,75 161,102 134,27" id="53" fill="rgb(181,145,124)" fill-opacity="0.501961" />
<polygon points="116,193 176,196 172,168" id="54" fill="rgb(171,117,78)" fill-opacity="0.501961" />
<polygon points="183,129 250,112 187,133" id="55" fill="rgb(235,220,194)" fill-opacity="0.501961" />
<polygon points="86,245 0,220 53,219" id="56" fill="rgb(34,25,14)" fill-opacity="0.501961" />
<polygon points="155,96 210,84 114,99" id="57" fill="rgb(203,150,122)" fill-opacity="0.501961" />
<polygon points="148,65 91,76 91,41" id="58" fill="rgb(203,176,158)" fill-opacity="0.501961" />
<polygon points="0,109 0,166 112,222" id="59" fill="rgb(125,83,58)" fill-opacity="0.501961" />
<polygon points="211,127 256,157 180,151" id="60" fill="rgb(105,54,32)" fill-opacity="0.501961" />
<polygon points="128,29 49,0 173,0" id="61" fill="rgb(164,135,99)" fill-opacity="0.501961" />
<polygon points="88,68 85,80 82,8" id="62" fill="rgb(122,97,73)" fill-opacity="0.501961" />
<polygon points="157,44 189,94 142,42" id="63" fill="rgb(248,247,249)" fill-opacity="0.501961" />
<polygon points="239,146 214,155 256,167" id="64" fill="rgb(154,98,60)" fill-opacity="0.501961" />
<polygon points="182,129 186,116 104,112" id="65" fill="rgb(31,28,17)" fill-opacity="0.501961" />
<polygon points="114,136 130,103 115,150" id="66" fill="rgb(75,27,19)" fill-opacity="0.501961" />
<polygon points="79,83 43,57 88,9" id="67" fill="rgb(202,172,143)" fill-opacity="0.501961" />
<polygon points="131,179 64,189 58,218" id="68" fill="rgb(145,105,73)" fill-opacity="0.501961" />
<polygon points="161,141 142,135 129,103" id="69" fill="rgb(2,10,8)" fill-opacity="0.501961" />
<polygon points="98,110 90,97 49,115" id="70" fill="rgb(210,162,131)" fill-opacity="0.501961" />
<polygon points="212,90 160,22 191,116" id="71" fill="rgb(191,153,123)" fill-opacity="0.501961" />
<polygon points="157,105 143,107 159,92" id="72" fill="rgb(255,243,56)" fill-opacity="0.501961" />
<polygon points="173,61 123,13 147,30" id="73" fill="rgb(160,133,111)" fill-opacity="0.501961" />
<polygon points="93,147 85,124 102,125" id="74" fill="rgb(5,4,11)" fill-opacity="0.501961" />
<polygon points="136,135 148,138 167,199" id="75" fill="rgb(167,102,68)" fill-opacity="0.501961" />
<polygon points="50,155 65,122 40,128" id="76" fill="rgb(27,26,27)" fill-opacity="0.501961" />
<polygon points="69,129 90,133 77,139" id="77" fill="rgb(166,163,145)" fill-opacity="0.501961" />
<polygon points="36,188 157,230 187,190" id="78" fill="rgb(131,98,71)" fill-opacity="0.501961" />
<polygon points="0,241 22,255 31,199" id="79" fill="rgb(32,25,12)" fill-opacity="0.501961" />
<polygon points="7,201 45,205 74,196" id="80" fill="rgb(51,29,17)" fill-opacity="0.501961" />
<polygon points="235,235 256,221 171,173" id="81" fill="rgb(69,52,37)" fill-opacity="0.501961" />
<polygon points="109,68 94,82 109,113" id="82" fill="rgb(88,66,61)" fill-opacity="0.501961" />
<polygon points="116,99 109,92 98,107" id="83" fill="rgb(5,17,16)" fill-opacity="0.501961" />
<polygon points="0,29 59,0 10,64" id="84" fill="rgb(141,112,76)" fill-opacity="0.501961" />
<polygon points="185,130 188,103 160,95" id="85" fill="rgb(58,40,34)" fill-opacity="0.501961" />
<polygon points="38,115 60,64 43,128" id="86" fill="rgb(86,53,36)" fill-opacity="0.501961" />
<polygon points="10,245 0,227 59,212" id="87" fill="rgb(42,31,18)" fill-opacity="0.501961" />
<polygon points="137,62 142,91 122,39" id="88" fill="rgb(210,188,172)" fill-opacity="0.501961" />
<polygon points="116,166 108,104 106,163" id="89" fill="rgb(185,142,98)" fill-opacity="0.501961" />
<polygon points="44,93 36,59 68,50" id="90" fill="rgb(198,166,135)" fill-opacity="0.501961" />
<polygon points="131,133 90,110 161,146" id="91" fill="rgb(202,142,100)" fill-opacity="0.501961" />
<polygon points="224,155 198,143 199,204" id="92" fill="rgb(52,32,21)" fill-opacity="0.501961" />
<polygon points="95,117 79,66 80,120" id="93" fill="rgb(191,160,127)" fill-opacity="0.501961" />
<polygon points="162,142 113,152 126,158" id="94" fill="rgb(68,35,25)" fill-opacity="0.501961" />
<polygon points="136,131 148,136 104,94" id="95" fill="rgb(39,17,15)" fill-opacity="0.501961" />
<polygon points="256,191 229,223 239,191" id="96" fill="rgb(101,78,53)" fill-opacity="0.501961" />
<polygon points="164,99 151,118 157,127" id="97" fill="rgb(113,91,46)" fill-opacity="0.501961" />
<polygon points="191,125 218,121 179,139" id="98" fill="rgb(235,208,171)" fill-opacity="0.501961" />
<polygon points="65,178 135,192 106,150" id="99" fill="rgb(159,111,77)" fill-opacity="0.501961" />
<polygon points="244,42 208,112 256,87" id="100" fill="rgb(149,111,70)" fill-opacity="0.501961" />
<polygon points="27,184 40,187 86,183" id="101" fill="rgb(57,26,17)" fill-opacity="0.501961" />
<polygon points="176,135 171,160 140,148" id="102" fill="rgb(71,35,27)" fill-opacity="0.501961" />
<polygon points="187,166 256,153 196,155" id="103" fill="rgb(138,84,54)" fill-opacity="0.501961" />
<polygon points="256,91 256,132 199,119" id="104" fill="rgb(223,211,193)" fill-opacity="0.501961" />
<polygon points="167,147 210,132 179,152" id="105" fill="rgb(168,103,69)" fill-opacity="0.501961" />
<polygon points="71,196 154,245 81,242" id="106" fill="rgb(95,73,52)" fill-opacity="0.501961" />
<polygon points="11,140 51,162 0,78" id="107" fill="rgb(145,97,61)" fill-opacity="0.501961" />
<polygon points="38,172 59,179 23,178" id="108" fill="rgb(162,55,38)" fill-opacity="0.501961" />
<polygon points="106,75 153,78 133,73" id="109" fill="rgb(103,58,51)" fill-opacity="0.501961" />
<polygon points="79,0 42,14 0,83" id="110" fill="rgb(160,132,94)" fill-opacity="0.501961" />
<polygon points="35,235 62,245 39,244" id="111" fill="rgb(128,103,75)" fill-opacity="0.501961" />
<polygon points="61,69 43,128 55,126" id="112" fill="rgb(149,111,76)" fill-opacity="0.501961" />
<polygon points="158,83 134,21 180,101" id="113" fill="rgb(198,165,141)" fill-opacity="0.501961" />
<polygon points="65,200 27,212 71,208" id="114" fill="rgb(170,118,78)" fill-opacity="0.501961" />
<polygon points="153,36 158,45 187,83" id="115" fill="rgb(115,96,87)" fill-opacity="0.501961" />
<polygon points="169,233 200,200 210,199" id="116" fill="rgb(61,53,40)" fill-opacity="0.501961" />
<polygon points="0,208 38,223 0,162" id="117" fill="rgb(70,48,27)" fill-opacity="0.501961" />
<polygon points="130,96 143,97 183,95" id="118" fill="rgb(172,96,53)" fill-opacity="0.501961" />
<polygon points="40,139 49,156 41,112" id="119" fill="rgb(27,19,17)" fill-opacity="0.501961" />
<polygon points="256,206 208,245 135,245" id="120" fill="rgb(74,56,38)" fill-opacity="0.501961" />
<polygon points="137,96 133,81 116,96" id="121" fill="rgb(51,35,35)" fill-opacity="0.501961" />
<polygon points="158,132 175,121 166,137" id="122" fill="rgb(130,105,41)" fill-opacity="0.501961" />
<polygon points="130,125 127,147 117,131" id="123" fill="rgb(210,145,109)" fill-opacity="0.501961" />
<polygon points="145,0 256,46 193,0" id="124" fill="rgb(138,106,70)" fill-opacity="0.501961" />
<polygon points="121,120 130,99 150,96" id="125" fill="rgb(52,32,28)" fill-opacity="0.501961" />
<polygon points="177,98 164,128 162,102" id="126" fill="rgb(23,21,20)" fill-opacity="0.501961" />
<polygon points="145,23 93,54 182,34" id="127" fill="rgb(186,156,127)" fill-opacity="0.501961" />
<polygon points="178,172 177,149 186,178" id="128" fill="rgb(71,33,20)" fill-opacity="0.501961" />
<polygon points="156,106 178,82 151,105" id="129" fill="rgb(221,185,58)" fill-opacity="0.501961" />
<polygon points="134,125 125,146 136,161" id="130" fill="rgb(121,55,35)" fill-opacity="0.501961" />
<polygon points="161,167 189,192 128,193" id="131" fill="rgb(159,113,77)" fill-opacity="0.501961" />
<polygon points="129,101 115,99 122,107" id="132" fill="rgb(203,184,175)" fill-opacity="0.501961" />
<polygon points="256,130 256,141 200,122" id="133" fill="rgb(212,176,136)" fill-opacity="0.501961" />
<polygon points="0,131 33,175 -10,189" id="134" fill="rgb(100,76,54)" fill-opacity="0.501961" />
<polygon points="98,132 79,118 74,130" id="135" fill="rgb(18,23,21)" fill-opacity="0.501961" />
<polygon points="192,109 184,82 183,92" id="136" fill="rgb(197,179,168)" fill-opacity="0.501961" />
<polygon points="129,10 27,49 77,5" id="137" fill="rgb(177,148,114)" fill-opacity="0.501961" />
<polygon points="147,57 132,35 145,65" id="138" fill="rgb(208,193,194)" fill-opacity="0.501961" />
<polygon points="79,197 44,187 63,186" id="139" fill="rgb(181,117,77)" fill-opacity="0.501961" />
<polygon points="91,181 69,175 70,168" id="140" fill="rgb(196,142,101)" fill-opacity="0.501961" />
<polygon points="158,61 144,106 173,83" id="141" fill="rgb(187,152,127)" fill-opacity="0.501961" />
<polygon points="65,187 107,227 201,228" id="142" fill="rgb(114,91,67)" fill-opacity="0.501961" />
<polygon points="52,140 76,122 74,141" id="143" fill="rgb(118,97,78)" fill-opacity="0.501961" />
<polygon points="206,74 221,95 181,135" id="144" fill="rgb(179,136,98)" fill-opacity="0.501961" />
<polygon points="218,181 171,175 229,168" id="145" fill="rgb(28,16,10)" fill-opacity="0.501961" />
<polygon points="84,120 74,117 107,119" id="146" fill="rgb(198,146,104)" fill-opacity="0.501961" />
<polygon points="132,175 139,185 160,158" id="147" fill="rgb(63,48,38)" fill-opacity="0.501961" />
<polygon points="243,165 228,138 256,150" id="148" fill="rgb(130,79,45)" fill-opacity="0.501961" />
<polygon points="79,168 131,169 100,200" id="149" fill="rgb(139,99,69)" fill-opacity="0.501961" />
<polygon points="106,137 68,136 76,146" id="150" fill="rgb(68,58,46)" fill-opacity="0.501961" />
<polygon points="83,70 87,106 66,98" id="151" fill="rgb(195,165,136)" fill-opacity="0.501961" />
<polygon points="129,70 81,18 94,76" id="152" fill="rgb(193,166,142)" fill-opacity="0.501961" />
<polygon points="51,70 32,133 46,95" id="153" fill="rgb(186,145,106)" fill-opacity="0.501961" />
<polygon points="176,150 237,145 210,155" id="154" fill="rgb(49,30,21)" fill-opacity="0.501961" />
<polygon points="103,116 129,90 99,105" id="155" fill="rgb(43,42,38)" fill-opacity="0.501961" />
<polygon points="134,148 129,149 154,174" id="156" fill="rgb(188,126,84)" fill-opacity="0.501961" />
<polygon points="55,123 65,128 42,146" id="157" fill="rgb(23,24,23)" fill-opacity="0.501961" />
<polygon points="68,124 69,118 49,123" id="158" fill="rgb(133,48,38)" fill-opacity="0.501961" />
<polygon points="49,173 73,170 60,184" id="159" fill="rgb(82,34,29)" fill-opacity="0.501961" />
<polygon points="80,117 119,127 80,96" id="160" fill="rgb(178,141,106)" fill-opacity="0.501961" />
<polygon points="107,179 106,147 128,164" id="161" fill="rgb(174,128,83)" fill-opacity="0.501961" />
<polygon points="179,93 180,112 184,85" id="162" fill="rgb(139,98,80)" fill-opacity="0.501961" />
<polygon points="147,94 146,76 151,90" id="163" fill="rgb(76,54,46)" fill-opacity="0.501961" />
<polygon points="230,138 201,132 213,122" id="164" fill="rgb(173,103,62)" fill-opacity="0.501961" />
<polygon points="233,0 256,33 201,0" id="165" fill="rgb(113,83,51)" fill-opacity="0.501961" />
<polygon points="153,42 180,88 147,43" id="166" fill="rgb(255,255,254)" fill-opacity="0.501961" />
<polygon points="119,205 161,187 164,190" id="167" fill="rgb(106,81,62)" fill-opacity="0.501961" />
<polygon points="93,149 50,146 77,163" id="168" fill="rgb(5,10,4)" fill-opacity="0.501961" />
<polygon points="30,0 0,19 0,0" id="169" fill="rgb(91,70,43)" fill-opacity="0.501961" />
<polygon points="23,171 59,169 0,112" id="170" fill="rgb(130,92,66)" fill-opacity="0.501961" />
<polygon points="196,152 182,154 189,159" id="171" fill="rgb(228,190,150)" fill-opacity="0.501961" />
<polygon points="146,55 152,70 132,25" id="172" fill="rgb(111,81,71)" fill-opacity="0.501961" />
<polygon points="161,96 182,88 149,67" id="173" fill="rgb(187,150,123)" fill-opacity="0.501961" />
<polygon points="220,184 248,193 217,203" id="174" fill="rgb(116,90,64)" fill-opacity="0.501961" />
<polygon points="201,207 190,187 139,233" id="175" fill="rgb(113,92,68)" fill-opacity="0.501961" />
<polygon points="126,161 156,167 205,166" id="176" fill="rgb(70,36,25)" fill-opacity="0.501961" />
<polygon points="200,205 179,220 228,204" id="177" fill="rgb(56,46,35)" fill-opacity="0.501961" />
<polygon points="161,150 121,143 132,150" id="178" fill="rgb(56,25,17)" fill-opacity="0.501961" />
<polygon points="108,62 106,83 115,86" id="179" fill="rgb(111,114,86)" fill-opacity="0.501961" />
<polygon points="177,240 256,209 246,190" id="180" fill="rgb(84,64,45)" fill-opacity="0.501961" />
<polygon points="218,245 256,201 260,255" id="181" fill="rgb(50,37,21)" fill-opacity="0.501961" />
<polygon points="113,149 120,143 147,179" id="182" fill="rgb(47,36,29)" fill-opacity="0.501961" />
<polygon points="61,60 71,88 47,129" id="183" fill="rgb(163,126,91)" fill-opacity="0.501961" />
<polygon points="153,0 156,22 236,43" id="184" fill="rgb(155,124,87)" fill-opacity="0.501961" />
<polygon points="72,166 47,174 61,175" id="185" fill="rgb(76,21,20)" fill-opacity="0.501961" />
<polygon points="151,99 163,93 156,103" id="186" fill="rgb(227,207,21)" fill-opacity="0.501961" />
<polygon points="0,55 49,0 0,29" id="187" fill="rgb(126,97,62)" fill-opacity="0.501961" />
<polygon points="143,46 184,19 139,38" id="188" fill="rgb(179,146,113)" fill-opacity="0.501961" />
<polygon points="43,223 51,218 116,238" id="189" fill="rgb(86,63,45)" fill-opacity="0.501961" />
<polygon points="224,50 219,108 192,120" id="190" fill="rgb(170,129,93)" fill-opacity="0.501961" />
<polygon points="246,121 221,110 263,143" id="191" fill="rgb(207,186,162)" fill-opacity="0.501961" />
<polygon points="12,49 47,162 0,82" id="192" fill="rgb(154,115,78)" fill-opacity="0.501961" />
<polygon points="193,164 220,157 248,175" id="193" fill="rgb(66,45,30)" fill-opacity="0.501961" />
<polygon points="190,187 185,191 165,151" id="194" fill="rgb(66,37,27)" fill-opacity="0.501961" />
<polygon points="135,198 115,187 129,180" id="195" fill="rgb(169,120,82)" fill-opacity="0.501961" />
<polygon points="13,132 -18,164 0,82" id="196" fill="rgb(124,81,49)" fill-opacity="0.501961" />
<polygon points="67,107 86,105 58,114" id="197" fill="rgb(214,164,143)" fill-opacity="0.501961" />
<polygon points="219,35 256,44 254,89" id="198" fill="rgb(133,102,63)" fill-opacity="0.501961" />
<polygon points="148,114 150,127 125,115" id="199" fill="rgb(13,19,15)" fill-opacity="0.501961" />
<polygon points="148,40 170,32 118,16" id="200" fill="rgb(191,158,126)" fill-opacity="0.501961" />
<polygon points="141,69 122,72 104,53" id="201" fill="rgb(207,178,155)" fill-opacity="0.501961" />
<polygon points="199,215 179,227 195,229" id="202" fill="rgb(125,103,79)" fill-opacity="0.501961" />
<polygon points="87,65 87,23 100,72" id="203" fill="rgb(195,170,152)" fill-opacity="0.501961" />
<polygon points="151,174 174,191 172,168" id="204" fill="rgb(162,116,80)" fill-opacity="0.501961" />
<polygon points="160,150 157,142 195,152" id="205" fill="rgb(119,68,49)" fill-opacity="0.501961" />
<polygon points="120,160 107,138 94,158" id="206" fill="rgb(169,126,83)" fill-opacity="0.501961" />
<polygon points="177,96 160,96 187,102" id="207" fill="rgb(100,39,28)" fill-opacity="0.501961" />
<polygon points="256,145 229,135 283,172" id="208" fill="rgb(192,126,73)" fill-opacity="0.501961" />
<polygon points="145,107 164,112 163,114" id="209" fill="rgb(141,122,79)" fill-opacity="0.501961" />
<polygon points="46,128 47,108 61,68" id="210" fill="rgb(152,111,76)" fill-opacity="0.501961" />
<polygon points="207,125 256,89 256,111" id="211" fill="rgb(227,214,199)" fill-opacity="0.501961" />
<polygon points="175,43 196,38 191,106" id="212" fill="rgb(186,150,117)" fill-opacity="0.501961" />
<polygon points="70,121 55,112 65,130" id="213" fill="rgb(157,45,33)" fill-opacity="0.501961" />
<polygon points="118,111 115,94 111,114" id="214" fill="rgb(11,17,12)" fill-opacity="0.501961" />
<polygon points="106,163 71,175 72,168" id="215" fill="rgb(148,103,71)" fill-opacity="0.501961" />
<polygon points="94,80 96,27 92,89" id="216" fill="rgb(194,168,150)" fill-opacity="0.501961" />
<polygon points="119,29 133,31 126,16" id="217" fill="rgb(150,119,89)" fill-opacity="0.501961" />
<polygon points="255,150 215,132 256,165" id="218" fill="rgb(127,77,47)" fill-opacity="0.501961" />
<polygon points="146,140 124,122 143,146" id="219" fill="rgb(208,142,96)" fill-opacity="0.501961" />
<polygon points="189,118 216,96 187,69" id="220" fill="rgb(184,144,109)" fill-opacity="0.501961" />
<polygon points="196,130 183,132 179,139" id="221" fill="rgb(229,194,154)" fill-opacity="0.501961" />
<polygon points="177,180 139,202 196,201" id="222" fill="rgb(147,105,74)" fill-opacity="0.501961" />
<polygon points="214,180 251,188 219,160" id="223" fill="rgb(53,34,22)" fill-opacity="0.501961" />
<polygon points="158,213 73,196 88,176" id="224" fill="rgb(135,99,71)" fill-opacity="0.501961" />
<polygon points="81,184 62,185 69,188" id="225" fill="rgb(54,29,22)" fill-opacity="0.501961" />
<polygon points="136,165 112,184 119,169" id="226" fill="rgb(106,81,60)" fill-opacity="0.501961" />
<polygon points="232,187 215,183 209,200" id="227" fill="rgb(122,94,70)" fill-opacity="0.501961" />
<polygon points="39,119 41,138 68,147" id="228" fill="rgb(45,37,32)" fill-opacity="0.501961" />
<polygon points="127,93 94,102 89,94" id="229" fill="rgb(41,37,34)" fill-opacity="0.501961" />
<polygon points="114,0 64,0 40,30" id="230" fill="rgb(164,136,100)" fill-opacity="0.501961" />
<polygon points="5,69 67,2 24,25" id="231" fill="rgb(151,121,85)" fill-opacity="0.501961" />
<polygon points="132,130 145,120 160,143" id="232" fill="rgb(29,22,17)" fill-opacity="0.501961" />
<polygon points="48,90 21,74 28,113" id="233" fill="rgb(177,138,101)" fill-opacity="0.501961" />
<polygon points="108,131 57,168 92,158" id="234" fill="rgb(18,15,11)" fill-opacity="0.501961" />
<polygon points="190,111 187,93 177,71" id="235" fill="rgb(200,184,172)" fill-opacity="0.501961" />
<polygon points="56,71 37,49 45,96" id="236" fill="rgb(189,156,123)" fill-opacity="0.501961" />
<polygon points="0,212 45,201 63,199" id="237" fill="rgb(46,28,17)" fill-opacity="0.501961" />
<polygon points="98,51 64,21 109,11" id="238" fill="rgb(185,155,123)" fill-opacity="0.501961" />
<polygon points="114,94 116,104 127,120" id="239" fill="rgb(96,55,47)" fill-opacity="0.501961" />
<polygon points="0,208 37,220 0,245" id="240" fill="rgb(43,33,18)" fill-opacity="0.501961" />
<polygon points="126,71 106,74 112,88" id="241" fill="rgb(120,111,86)" fill-opacity="0.501961" />
<polygon points="216,94 222,58 177,16" id="242" fill="rgb(167,133,97)" fill-opacity="0.501961" />
<polygon points="109,130 109,108 110,138" id="243" fill="rgb(209,163,129)" fill-opacity="0.501961" />
<polygon points="171,79 176,83 179,80" id="244" fill="rgb(255,255,255)" fill-opacity="0.501961" />
<polygon points="129,152 156,154 153,158" id="245" fill="rgb(202,134,96)" fill-opacity="0.501961" />
<polygon points="168,153 176,179 181,181" id="246" fill="rgb(44,26,16)" fill-opacity="0.501961" />
<polygon points="150,168 137,138 130,134" id="247" fill="rgb(108,47,30)" fill-opacity="0.501961" />
<polygon points="142,163 124,158 116,135" id="248" fill="rgb(82,37,27)" fill-opacity="0.501961" />
<polygon points="45,178 82,182 0,185" id="249" fill="rgb(106,62,43)" fill-opacity="0.501961" />
<polygon points="179,68 156,36 170,46" id="250" fill="rgb(206,169,138)" fill-opacity="0.501961" />
<polygon points="89,161 81,167 102,137" id="251" fill="rgb(13,16,10)" fill-opacity="0.501961" />
<polygon points="177,96 162,94 147,75" id="252" fill="rgb(194,154,127)" fill-opacity="0.501961" />
<polygon points="134,54 125,34 140,78" id="253" fill="rgb(212,191,176)" fill-opacity="0.501961" />
<polygon points="95,105 60,103 110,124" id="254" fill="rgb(175,138,103)" fill-opacity="0.501961" />
<polygon points="43,102 35,134 26,101" id="255" fill="rgb(170,124,84)" fill-opacity="0.501961" />
<polygon points="196,232 130,223 124,245" id="256" fill="rgb(94,70,48)" fill-opacity="0.501961" />
<polygon points="190,188 196,195 128,227" id="257" fill="rgb(123,96,70)" fill-opacity="0.501961" />
<polygon points="118,51 135,42 158,36" id="258" fill="rgb(156,129,108)" fill-opacity="0.501961" />
<polygon points="188,176 184,175 198,205" id="259" fill="rgb(116,75,57)" fill-opacity="0.501961" />
<polygon points="76,83 60,62 87,24" id="260" fill="rgb(201,170,141)" fill-opacity="0.501961" />
<polygon points="110,129 94,168 117,130" id="261" fill="rgb(176,134,93)" fill-opacity="0.501961" />
<polygon points="161,155 130,146 175,153" id="262" fill="rgb(49,31,22)" fill-opacity="0.501961" />
<polygon points="186,164 182,157 196,156" id="263" fill="rgb(213,148,104)" fill-opacity="0.501961" />
<polygon points="186,169 197,173 198,200" id="264" fill="rgb(27,17,11)" fill-opacity="0.501961" />
<polygon points="176,189 147,176 143,174" id="265" fill="rgb(172,133,96)" fill-opacity="0.501961" />
<polygon points="38,245 22,236 27,245" id="266" fill="rgb(113,94,69)" fill-opacity="0.501961" />
<polygon points="135,36 136,41 145,64" id="267" fill="rgb(231,218,212)" fill-opacity="0.501961" />
<polygon points="151,91 155,67 145,73" id="268" fill="rgb(153,122,106)" fill-opacity="0.501961" />
<polygon points="142,104 144,110 151,98" id="269" fill="rgb(171,165,155)" fill-opacity="0.501961" />
<polygon points="219,213 156,245 212,235" id="270" fill="rgb(78,59,40)" fill-opacity="0.501961" />
<polygon points="153,112 155,108 175,103" id="271" fill="rgb(37,35,29)" fill-opacity="0.501961" />
<polygon points="253,145 273,146 200,120" id="272" fill="rgb(211,165,117)" fill-opacity="0.501961" />
<polygon points="76,167 64,163 75,169" id="273" fill="rgb(92,66,51)" fill-opacity="0.501961" />
<polygon points="182,141 170,137 160,151" id="274" fill="rgb(85,47,37)" fill-opacity="0.501961" />
<polygon points="26,222 53,213 58,241" id="275" fill="rgb(57,41,27)" fill-opacity="0.501961" />
<polygon points="94,121 86,126 89,140" id="276" fill="rgb(25,24,17)" fill-opacity="0.501961" />
<polygon points="89,98 85,118 68,82" id="277" fill="rgb(192,161,134)" fill-opacity="0.501961" />
<polygon points="208,202 227,193 216,194" id="278" fill="rgb(118,93,68)" fill-opacity="0.501961" />
<polygon points="114,187 129,198 106,187" id="279" fill="rgb(97,76,57)" fill-opacity="0.501961" />
<polygon points="239,154 229,164 228,152" id="280" fill="rgb(164,106,67)" fill-opacity="0.501961" />
<polygon points="120,80 133,94 112,77" id="281" fill="rgb(40,78,74)" fill-opacity="0.501961" />
<polygon points="66,236 79,236 61,227" id="282" fill="rgb(32,24,13)" fill-opacity="0.501961" />
<polygon points="126,101 116,101 135,96" id="283" fill="rgb(196,164,151)" fill-opacity="0.501961" />
<polygon points="0,245 35,246 0,233" id="284" fill="rgb(38,32,18)" fill-opacity="0.501961" />
<polygon points="175,148 236,161 256,170" id="285" fill="rgb(103,67,42)" fill-opacity="0.501961" />
<polygon points="139,87 131,98 116,135" id="286" fill="rgb(64,34,27)" fill-opacity="0.501961" />
<polygon points="8,52 58,0 39,0" id="287" fill="rgb(136,109,74)" fill-opacity="0.501961" />
<polygon points="74,97 114,133 117,126" id="288" fill="rgb(180,138,102)" fill-opacity="0.501961" />
<polygon points="154,192 105,191 93,158" id="289" fill="rgb(155,110,76)" fill-opacity="0.501961" />
<polygon points="256,190 230,226 249,221" id="290" fill="rgb(76,55,36)" fill-opacity="0.501961" />
<polygon points="59,29 50,81 84,29" id="291" fill="rgb(194,164,133)" fill-opacity="0.501961" />
<polygon points="245,198 222,194 223,206" id="292" fill="rgb(113,86,60)" fill-opacity="0.501961" />
<polygon points="155,95 147,94 127,97" id="293" fill="rgb(214,138,120)" fill-opacity="0.501961" />
<polygon points="77,116 56,113 71,123" id="294" fill="rgb(221,72,38)" fill-opacity="0.501961" />
<polygon points="102,115 90,88 101,95" id="295" fill="rgb(44,35,31)" fill-opacity="0.501961" />
<polygon points="106,117 109,102 106,138" id="296" fill="rgb(102,74,60)" fill-opacity="0.501961" />
<polygon points="216,110 220,60 240,86" id="297" fill="rgb(162,123,87)" fill-opacity="0.501961" />
<polygon points="160,198 155,204 116,198" id="298" fill="rgb(159,112,77)" fill-opacity="0.501961" />
<polygon points="86,165 114,204 102,149" id="299" fill="rgb(153,107,74)" fill-opacity="0.501961" />
<polygon points="131,15 105,0 186,24" id="300" fill="rgb(162,131,96)" fill-opacity="0.501961" />
<polygon points="158,131 169,136 179,118" id="301" fill="rgb(95,73,36)" fill-opacity="0.501961" />
<polygon points="133,237 184,245 44,245" id="302" fill="rgb(80,59,40)" fill-opacity="0.501961" />
<polygon points="118,61 126,9 124,62" id="303" fill="rgb(180,148,118)" fill-opacity="0.501961" />
<polygon points="135,69 130,72 96,72" id="304" fill="rgb(207,174,151)" fill-opacity="0.501961" />
<polygon points="254,220 202,245 160,245" id="305" fill="rgb(66,48,32)" fill-opacity="0.501961" />
<polygon points="203,66 130,18 162,20" id="306" fill="rgb(183,150,116)" fill-opacity="0.501961" />
<polygon points="181,97 156,92 149,51" id="307" fill="rgb(195,161,132)" fill-opacity="0.501961" />
<polygon points="199,211 158,212 194,190" id="308" fill="rgb(113,89,66)" fill-opacity="0.501961" />
<polygon points="41,166 0,127 24,183" id="309" fill="rgb(121,86,61)" fill-opacity="0.501961" />
<polygon points="86,33 83,53 86,97" id="310" fill="rgb(111,84,65)" fill-opacity="0.501961" />
<polygon points="115,15 141,56 146,74" id="311" fill="rgb(173,140,116)" fill-opacity="0.501961" />
<polygon points="88,122 103,124 102,145" id="312" fill="rgb(51,27,24)" fill-opacity="0.501961" />
<polygon points="122,77 87,91 87,85" id="313" fill="rgb(104,78,71)" fill-opacity="0.501961" />
<polygon points="48,174 14,126 35,130" id="314" fill="rgb(142,94,65)" fill-opacity="0.501961" />
<polygon points="116,114 108,79 121,124" id="315" fill="rgb(26,26,21)" fill-opacity="0.501961" />
<polygon points="123,108 103,48 123,105" id="316" fill="rgb(171,158,137)" fill-opacity="0.501961" />
<polygon points="164,116 181,118 181,126" id="317" fill="rgb(14,19,19)" fill-opacity="0.501961" />
<polygon points="71,40 91,30 56,70" id="318" fill="rgb(198,169,141)" fill-opacity="0.501961" />
<polygon points="188,151 224,154 220,150" id="319" fill="rgb(37,25,18)" fill-opacity="0.501961" />
<polygon points="92,87 102,75 107,79" id="320" fill="rgb(69,26,29)" fill-opacity="0.501961" />
<polygon points="188,109 181,120 186,105" id="321" fill="rgb(59,46,39)" fill-opacity="0.501961" />
<polygon points="215,155 245,146 232,155" id="322" fill="rgb(149,95,61)" fill-opacity="0.501961" />
<polygon points="80,83 89,105 80,60" id="323" fill="rgb(198,165,138)" fill-opacity="0.501961" />
<polygon points="41,207 27,213 70,210" id="324" fill="rgb(126,88,59)" fill-opacity="0.501961" />
<polygon points="129,100 134,132 129,106" id="325" fill="rgb(66,38,31)" fill-opacity="0.501961" />
<polygon points="4,188 44,205 0,201" id="326" fill="rgb(76,51,29)" fill-opacity="0.501961" />
<polygon points="54,190 36,188 28,194" id="327" fill="rgb(143,85,56)" fill-opacity="0.501961" />
<polygon points="98,62 112,39 91,87" id="328" fill="rgb(195,166,140)" fill-opacity="0.501961" />
<polygon points="146,98 122,38 128,40" id="329" fill="rgb(196,173,155)" fill-opacity="0.501961" />
<polygon points="72,110 77,108 73,134" id="330" fill="rgb(216,87,54)" fill-opacity="0.501961" />
<polygon points="23,56 38,76 71,15" id="331" fill="rgb(180,150,115)" fill-opacity="0.501961" />
<polygon points="173,160 184,136 187,143" id="332" fill="rgb(157,102,67)" fill-opacity="0.501961" />
<polygon points="256,0 256,11 233,0" id="333" fill="rgb(83,65,39)" fill-opacity="0.501961" />
<polygon points="110,73 108,91 98,91" id="334" fill="rgb(139,108,87)" fill-opacity="0.501961" />
<polygon points="63,212 69,209 72,210" id="335" fill="rgb(220,154,103)" fill-opacity="0.501961" />
<polygon points="26,148 0,102 0,69" id="336" fill="rgb(137,98,61)" fill-opacity="0.501961" />
<polygon points="163,95 163,101 158,101" id="337" fill="rgb(238,206,28)" fill-opacity="0.501961" />
<polygon points="154,111 148,137 140,130" id="338" fill="rgb(17,19,16)" fill-opacity="0.501961" />
<polygon points="138,41 142,45 136,32" id="339" fill="rgb(86,62,43)" fill-opacity="0.501961" />
<polygon points="168,230 189,210 99,230" id="340" fill="rgb(107,82,59)" fill-opacity="0.501961" />
<polygon points="120,139 124,118 135,135" id="341" fill="rgb(202,144,104)" fill-opacity="0.501961" />
<polygon points="243,177 213,150 215,147" id="342" fill="rgb(85,54,36)" fill-opacity="0.501961" />
<polygon points="184,137 170,146 161,158" id="343" fill="rgb(67,43,34)" fill-opacity="0.501961" />
<polygon points="68,63 63,103 86,111" id="344" fill="rgb(186,154,124)" fill-opacity="0.501961" />
<polygon points="195,217 205,188 211,192" id="345" fill="rgb(53,37,28)" fill-opacity="0.501961" />
<polygon points="47,102 43,102 60,69" id="346" fill="rgb(86,55,36)" fill-opacity="0.501961" />
<polygon points="148,48 132,47 159,60" id="347" fill="rgb(203,184,173)" fill-opacity="0.501961" />
<polygon points="34,232 41,245 44,232" id="348" fill="rgb(110,88,64)" fill-opacity="0.501961" />
<polygon points="125,144 114,134 138,152" id="349" fill="rgb(148,80,50)" fill-opacity="0.501961" />
<polygon points="78,238 60,237 55,225" id="350" fill="rgb(34,27,16)" fill-opacity="0.501961" />
<polygon points="198,101 175,73 178,72" id="351" fill="rgb(168,134,111)" fill-opacity="0.501961" />
<polygon points="206,64 188,116 189,101" id="352" fill="rgb(183,143,109)" fill-opacity="0.501961" />
<polygon points="47,125 44,116 53,123" id="353" fill="rgb(126,86,66)" fill-opacity="0.501961" />
<polygon points="246,41 256,20 256,62" id="354" fill="rgb(117,86,53)" fill-opacity="0.501961" />
<polygon points="77,215 62,216 28,228" id="355" fill="rgb(83,58,38)" fill-opacity="0.501961" />
<polygon points="168,183 124,188 146,194" id="356" fill="rgb(173,121,83)" fill-opacity="0.501961" />
<polygon points="132,97 147,80 146,89" id="357" fill="rgb(79,57,48)" fill-opacity="0.501961" />
<polygon points="119,77 120,79 108,75" id="358" fill="rgb(170,140,62)" fill-opacity="0.501961" />
<polygon points="129,112 135,132 133,97" id="359" fill="rgb(60,38,29)" fill-opacity="0.501961" />
<polygon points="34,217 0,243 33,229" id="360" fill="rgb(40,30,17)" fill-opacity="0.501961" />
<polygon points="119,155 106,173 102,147" id="361" fill="rgb(163,119,78)" fill-opacity="0.501961" />
<polygon points="157,107 155,115 159,112" id="362" fill="rgb(195,174,108)" fill-opacity="0.501961" />
<polygon points="204,219 174,227 201,223" id="363" fill="rgb(131,103,75)" fill-opacity="0.501961" />
<polygon points="96,78 89,80 91,67" id="364" fill="rgb(204,183,172)" fill-opacity="0.501961" />
<polygon points="152,144 136,135 148,145" id="365" fill="rgb(206,137,97)" fill-opacity="0.501961" />
<polygon points="229,210 207,224 237,199" id="366" fill="rgb(49,41,30)" fill-opacity="0.501961" />
<polygon points="163,141 163,130 150,108" id="367" fill="rgb(85,58,27)" fill-opacity="0.501961" />
<polygon points="113,18 134,30 102,25" id="368" fill="rgb(161,131,99)" fill-opacity="0.501961" />
<polygon points="89,110 63,92 76,111" id="369" fill="rgb(180,151,119)" fill-opacity="0.501961" />
<polygon points="0,193 26,187 -15,159" id="370" fill="rgb(86,60,36)" fill-opacity="0.501961" />
<polygon points="107,73 106,45 81,31" id="371" fill="rgb(193,164,138)" fill-opacity="0.501961" />
<polygon points="245,107 266,149 243,119" id="372" fill="rgb(226,210,185)" fill-opacity="0.501961" />
<polygon points="112,185 114,188 115,175" id="373" fill="rgb(67,60,49)" fill-opacity="0.501961" />
<polygon points="187,154 164,143 163,145" id="374" fill="rgb(158,106,76)" fill-opacity="0.501961" />
<polygon points="159,143 133,148 142,145" id="375" fill="rgb(114,49,32)" fill-opacity="0.501961" />
<polygon points="132,17 66,31 117,18" id="376" fill="rgb(187,156,123)" fill-opacity="0.501961" />
<polygon points="133,92 124,72 130,76" id="377" fill="rgb(76,29,22)" fill-opacity="0.501961" />
<polygon points="35,220 22,200 0,210" id="378" fill="rgb(55,36,22)" fill-opacity="0.501961" />
<polygon points="70,41 44,41 47,90" id="379" fill="rgb(192,160,129)" fill-opacity="0.501961" />
<polygon points="56,183 24,176 41,171" id="380" fill="rgb(148,66,45)" fill-opacity="0.501961" />
<polygon points="120,109 119,117 131,121" id="381" fill="rgb(64,20,19)" fill-opacity="0.501961" />
<polygon points="223,245 254,254 256,221" id="382" fill="rgb(45,34,19)" fill-opacity="0.501961" />
<polygon points="183,94 185,121 185,125" id="383" fill="rgb(84,47,30)" fill-opacity="0.501961" />
<polygon points="82,33 73,100 83,59" id="384" fill="rgb(203,172,144)" fill-opacity="0.501961" />
<polygon points="196,160 185,167 196,170" id="385" fill="rgb(105,62,42)" fill-opacity="0.501961" />
<polygon points="226,143 176,150 223,135" id="386" fill="rgb(108,59,39)" fill-opacity="0.501961" />
<polygon points="123,118 119,131 119,135" id="387" fill="rgb(95,33,22)" fill-opacity="0.501961" />
<polygon points="242,166 232,144 256,152" id="388" fill="rgb(114,76,50)" fill-opacity="0.501961" />
<polygon points="198,181 186,183 206,196" id="389" fill="rgb(56,36,25)" fill-opacity="0.501961" />
</svg>