<?xml version="1.0" standalone="no"?>
<svg xmlns="http://www.w3.org/2000/svg" version="1.2" baseProfile="tiny" width="256" height="170" viewBox="0 0 256 170">
<rect x="0" y="0" width="256" height="170" id="0" fill="rgb(48,62,80)" fill-opacity="1" />
<polygon points="214,0 0,0 187,54" id="1" fill="rgb(248,253,255)" fill-opacity="0.501961" />
<polygon points="0,24 256,169 0,170" id="2" fill="rgb(0,0,3)" fill-opacity="0.501961" />
<polygon points="256,40 142,92 256,1" id="3" fill="rgb(201,174,181)" fill-opacity="0.501961" />
<polygon points="77,144 241,113 40,54" id="4" fill="rgb(51,86,119)" fill-opacity="0.501961" />
<polygon points="0,170 0,36 93,170" id="5" fill="rgb(0,0,0)" fill-opacity="0.501961" />
<polygon points="255,122 255,170 135,146" id="6" fill="rgb(0,0,0)" fill-opacity="0.501961" />
<polygon points="176,0 256,0 256,18" id="7" fill="rgb(154,201,244)" fill-opacity="0.501961" />
<polygon points="131,52 90,33 149,170" id="8" fill="rgb(0,0,18)" fill-opacity="0.501961" />
<polygon points="134,30 0,0 18,30" id="9" fill="rgb(54,114,163)" fill-opacity="0.501961" />
<polygon points="231,9 221,38 191,18" id="10" fill="rgb(0,0,0)" fill-opacity="0.501961" />
<polygon points="209,60 120,29 146,102" id="11" fill="rgb(86,103,139)" fill-opacity="0.501961" />
<polygon points="222,39 256,105 256,48" id="12" fill="rgb(8,0,0)" fill-opacity="0.501961" />
<polygon points="239,0 64,0 128,46" id="13" fill="rgb(166,180,207)" fill-opacity="0.501961" />
<polygon points="82,93 104,112 100,53" id="14" fill="rgb(120,156,181)" fill-opacity="0.501961" />
<polygon points="77,32 128,45 55,89" id="15" fill="rgb(0,5,28)" fill-opacity="0.501961" />
<polygon points="210,64 130,34 256,32" id="16" fill="rgb(190,127,123)" fill-opacity="0.501961" />
<polygon points="210,127 242,115 142,85" id="17" fill="rgb(108,127,166)" fill-opacity="0.501961" />
<polygon points="225,26 256,46 262,10" id="18" fill="rgb(167,204,221)" fill-opacity="0.501961" />
<polygon points="256,170 256,141 138,103" id="19" fill="rgb(0,0,14)" fill-opacity="0.501961" />
<polygon points="245,75 256,109 120,43" id="20" fill="rgb(24,60,95)" fill-opacity="0.501961" />
<polygon points="0,30 34,100 59,34" id="21" fill="rgb(0,17,52)" fill-opacity="0.501961" />
<polygon points="203,61 238,55 213,47" id="22" fill="rgb(250,129,24)" fill-opacity="0.501961" />
<polygon points="138,64 170,68 148,127" id="23" fill="rgb(91,126,159)" fill-opacity="0.501961" />
<polygon points="97,108 137,85 152,118" id="24" fill="rgb(0,10,27)" fill-opacity="0.501961" />
<polygon points="92,170 0,170 0,61" id="25" fill="rgb(0,0,0)" fill-opacity="0.501961" />
<polygon points="51,60 93,17 55,42" id="26" fill="rgb(92,139,180)" fill-opacity="0.501961" />
<polygon points="204,61 256,87 256,57" id="27" fill="rgb(0,0,24)" fill-opacity="0.501961" />
<polygon points="166,158 130,94 135,170" id="28" fill="rgb(39,62,81)" fill-opacity="0.501961" />
<polygon points="220,46 193,20 231,14" id="29" fill="rgb(6,6,28)" fill-opacity="0.501961" />
<polygon points="93,118 117,109 105,137" id="30" fill="rgb(70,123,166)" fill-opacity="0.501961" />
<polygon points="156,44 151,15 185,32" id="31" fill="rgb(244,182,163)" fill-opacity="0.501961" />
<polygon points="238,73 224,87 141,76" id="32" fill="rgb(57,97,136)" fill-opacity="0.501961" />
<polygon points="110,80 123,44 144,99" id="33" fill="rgb(0,0,13)" fill-opacity="0.501961" />
<polygon points="89,24 58,89 89,119" id="34" fill="rgb(13,30,43)" fill-opacity="0.501961" />
<polygon points="256,128 256,170 187,170" id="35" fill="rgb(0,0,0)" fill-opacity="0.501961" />
<polygon points="250,101 177,81 180,100" id="36" fill="rgb(1,29,64)" fill-opacity="0.501961" />
<polygon points="219,43 256,43 232,62" id="37" fill="rgb(85,36,38)" fill-opacity="0.501961" />
<polygon points="104,81 98,44 114,58" id="38" fill="rgb(53,102,142)" fill-opacity="0.501961" />
<polygon points="129,146 154,178 135,146" id="39" fill="rgb(106,133,148)" fill-opacity="0.501961" />
<polygon points="144,161 140,133 167,170" id="40" fill="rgb(0,0,0)" fill-opacity="0.501961" />
<polygon points="242,87 256,95 228,114" id="41" fill="rgb(95,127,126)" fill-opacity="0.501961" />
<polygon points="48,67 -20,63 6,6" id="42" fill="rgb(2,32,61)" fill-opacity="0.501961" />
<polygon points="179,45 143,64 139,44" id="43" fill="rgb(45,32,50)" fill-opacity="0.501961" />
<polygon points="115,35 53,15 75,16" id="44" fill="rgb(30,69,100)" fill-opacity="0.501961" />
<polygon points="116,98 89,98 97,88" id="45" fill="rgb(132,167,190)" fill-opacity="0.501961" />
<polygon points="47,126 43,71 70,38" id="46" fill="rgb(28,64,104)" fill-opacity="0.501961" />
<polygon points="256,0 256,35 215,43" id="47" fill="rgb(144,168,187)" fill-opacity="0.501961" />
</svg>