<?xml version="1.0" standalone="no"?>
<svg xmlns="http://www.w3.org/2000/svg" version="1.2" baseProfile="tiny" width="256" height="170" viewBox="0 0 256 170">
<rect x="0" y="0" width="256" height="170" id="0" fill="rgb(113,140,167)" fill-opacity="1" />
<polygon points="54,149 246,114 97,43" id="1" fill="rgb(26,21,11)" fill-opacity="0.501961" />
<polygon points="78,0 256,109 256,0" id="2" fill="rgb(183,226,255)" fill-opacity="0.501961" />
<polygon points="0,0 111,0 51,154" id="3" fill="rgb(145,211,255)" fill-opacity="0.501961" />
<polygon points="256,92 256,170 195,170" id="4" fill="rgb(3,14,0)" fill-opacity="0.501961" />
<polygon points="208,72 136,34 126,81" id="5" fill="rgb(216,249,255)" fill-opacity="0.501961" />
<polygon points="102,78 160,20 103,20" id="6" fill="rgb(21,0,0)" fill-opacity="0.501961" />
<polygon points="0,0 101,0 0,112" id="7" fill="rgb(106,180,255)" fill-opacity="0.501961" />
<polygon points="124,24 71,136 125,146" id="8" fill="rgb(13,15,23)" fill-opacity="0.501961" />
<polygon points="85,93 256,148 200,66" id="9" fill="rgb(82,83,85)" fill-opacity="0.501961" />
<polygon points="216,153 123,147 138,111" id="10" fill="rgb(175,198,191)" fill-opacity="0.501961" />
<polygon points="139,0 256,0 236,107" id="11" fill="rgb(166,206,255)" fill-opacity="0.501961" />
<polygon points="256,168 0,170 0,132" id="12" fill="rgb(108,113,100)" fill-opacity="0.501961" />
<polygon points="104,25 57,138 0,94" id="13" fill="rgb(170,198,217)" fill-opacity="0.501961" />
<polygon points="125,38 131,85 256,5" id="14" fill="rgb(156,200,255)" fill-opacity="0.501961" />
</svg>