<?xml version="1.0" standalone="no"?>
<svg xmlns="http://www.w3.org/2000/svg" version="1.2" baseProfile="tiny" width="256" height="168" viewBox="0 0 256 168">
<rect x="0" y="0" width="256" height="168" id="0" fill="rgb(63,54,121)" fill-opacity="1" />
<polygon points="196,33 58,168 203,168" id="1" fill="rgb(0,0,0)" fill-opacity="0.501961" />
<polygon points="0,31 0,168 73,168" id="2" fill="rgb(87,106,255)" fill-opacity="0.501961" />
<polygon points="4,36 167,0 167,69" id="3" fill="rgb(192,151,134)" fill-opacity="0.501961" />
<polygon points="99,0 208,168 43,130" id="4" fill="rgb(62,35,9)" fill-opacity="0.501961" />
<polygon points="253,31 195,166 256,168" id="5" fill="rgb(58,72,255)" fill-opacity="0.501961" />
<polygon points="90,48 129,38 85,165" id="6" fill="rgb(220,141,151)" fill-opacity="0.501961" />
<polygon points="84,0 37,153 35,7" id="7" fill="rgb(127,130,234)" fill-opacity="0.501961" />
<polygon points="208,166 113,112 122,50" id="8" fill="rgb(0,0,2)" fill-opacity="0.501961" />
<polygon points="160,40 254,0 256,120" id="9" fill="rgb(25,21,151)" fill-opacity="0.501961" />
<polygon points="118,126 102,126 106,67" id="10" fill="rgb(242,204,194)" fill-opacity="0.501961" />
<polygon points="54,80 78,168 93,52" id="11" fill="rgb(2,3,0)" fill-opacity="0.501961" />
<polygon points="196,61 128,168 211,129" id="12" fill="rgb(0,0,0)" fill-opacity="0.501961" />
<polygon points="0,80 0,168 72,151" id="13" fill="rgb(90,98,255)" fill-opacity="0.501961" />
<polygon points="66,76 0,0 0,130" id="14" fill="rgb(34,27,180)" fill-opacity="0.501961" />
<polygon points="103,74 107,102 119,56" id="15" fill="rgb(255,255,255)" fill-opacity="0.501961" />
<polygon points="134,14 171,50 149,80" id="16" fill="rgb(251,179,152)" fill-opacity="0.501961" />
<polygon points="135,22 172,0 67,0" id="17" fill="rgb(74,90,246)" fill-opacity="0.501961" />
<polygon points="58,116 155,135 68,168" id="18" fill="rgb(104,51,45)" fill-opacity="0.501961" />
<polygon points="207,168 211,61 256,168" id="19" fill="rgb(72,80,252)" fill-opacity="0.501961" />
<polygon points="62,0 29,50 83,61" id="20" fill="rgb(170,169,184)" fill-opacity="0.501961" />
<polygon points="166,58 133,168 207,168" id="21" fill="rgb(0,0,0)" fill-opacity="0.501961" />
<polygon points="224,125 160,0 256,0" id="22" fill="rgb(30,27,147)" fill-opacity="0.501961" />
<polygon points="83,31 120,15 77,16" id="23" fill="rgb(0,0,0)" fill-opacity="0.501961" />
<polygon points="126,0 119,59 133,59" id="24" fill="rgb(81,100,250)" fill-opacity="0.501961" />
<polygon points="145,149 141,128 116,140" id="25" fill="rgb(185,139,129)" fill-opacity="0.501961" />
<polygon points="174,50 150,64 152,74" id="26" fill="rgb(255,255,255)" fill-opacity="0.501961" />
<polygon points="54,157 84,120 64,117" id="27" fill="rgb(190,161,146)" fill-opacity="0.501961" />
<polygon points="90,168 65,130 66,168" id="28" fill="rgb(0,0,0)" fill-opacity="0.501961" />
<polygon points="3,11 184,0 4,0" id="29" fill="rgb(26,16,186)" fill-opacity="0.501961" />
<polygon points="104,142 105,168 203,153" id="30" fill="rgb(0,0,0)" fill-opacity="0.501961" />
<polygon points="83,161 105,22 102,162" id="31" fill="rgb(153,35,49)" fill-opacity="0.501961" />
<polygon points="32,89 64,168 0,168" id="32" fill="rgb(83,97,255)" fill-opacity="0.501961" />
<polygon points="84,10 120,17 122,37" id="33" fill="rgb(5,10,28)" fill-opacity="0.501961" />
<polygon points="105,53 67,34 109,26" id="34" fill="rgb(188,127,105)" fill-opacity="0.501961" />
<polygon points="100,143 113,168 122,115" id="35" fill="rgb(0,0,0)" fill-opacity="0.501961" />
</svg>