<?xml version="1.0" standalone="no"?>
<svg xmlns="http://www.w3.org/2000/svg" version="1.2" baseProfile="tiny" width="256" height="144" viewBox="0 0 256 144">
<rect x="0" y="0" width="256" height="144" id="0" fill="rgb(191,139,61)" fill-opacity="1" />
<polygon points="174,127 256,116 251,56" id="1" fill="rgb(33,19,37)" fill-opacity="0.501961" />
<polygon points="91,79 230,82 59,106" id="2" fill="rgb(228,243,255)" fill-opacity="0.501961" />
<polygon points="55,144 -20,148 36,117" id="3" fill="rgb(0,0,0)" fill-opacity="0.501961" />
<polygon points="34,0 0,36 0,0" id="4" fill="rgb(0,0,0)" fill-opacity="0.501961" />
<polygon points="180,101 249,0 252,65" id="5" fill="rgb(211,199,197)" fill-opacity="0.501961" />
<polygon points="84,144 57,102 46,144" id="6" fill="rgb(255,253,184)" fill-opacity="0.501961" />
<polygon points="234,0 129,0 176,84" id="7" fill="rgb(255,182,62)" fill-opacity="0.501961" />
<polygon points="209,17 249,55 213,36" id="8" fill="rgb(0,146,255)" fill-opacity="0.501961" />
<polygon points="239,144 52,144 163,112" id="9" fill="rgb(255,171,50)" fill-opacity="0.501961" />
<polygon points="48,122 0,129 40,152" id="10" fill="rgb(0,0,0)" fill-opacity="0.501961" />
<polygon points="24,127 32,-7 179,22" id="11" fill="rgb(198,137,15)" fill-opacity="0.501961" />
<polygon points="188,127 176,94 222,119" id="12" fill="rgb(37,46,58)" fill-opacity="0.501961" />
<polygon points="256,117 226,105 256,95" id="13" fill="rgb(0,0,0)" fill-opacity="0.501961" />
<polygon points="80,96 59,133 256,91" id="14" fill="rgb(198,127,45)" fill-opacity="0.501961" />
<polygon points="250,0 235,0 250,29" id="15" fill="rgb(234,241,255)" fill-opacity="0.501961" />
<polygon points="168,77 244,70 203,19" id="16" fill="rgb(227,174,74)" fill-opacity="0.501961" />
<polygon points="52,123 0,27 0,123" id="17" fill="rgb(222,160,30)" fill-opacity="0.501961" />
<polygon points="171,97 210,89 116,81" id="18" fill="rgb(208,209,220)" fill-opacity="0.501961" />
<polygon points="0,25 31,0 0,0" id="19" fill="rgb(0,0,0)" fill-opacity="0.501961" />
</svg>