<?xml version="1.0" standalone="no"?>
<svg xmlns="http://www.w3.org/2000/svg" version="1.2" baseProfile="tiny" width="256" height="153" viewBox="0 0 256 153">
<rect x="0" y="0" width="256" height="153" id="0" fill="rgb(113,114,115)" fill-opacity="1" />
<polygon points="198,127 0,43 214,60" id="1" fill="rgb(189,193,197)" fill-opacity="0.501961" />
<polygon points="209,29 211,153 256,98" id="2" fill="rgb(18,4,6)" fill-opacity="0.501961" />
<polygon points="78,66 86,0 256,5" id="3" fill="rgb(52,57,35)" fill-opacity="0.501961" />
<polygon points="9,35 58,153 152,153" id="4" fill="rgb(172,167,161)" fill-opacity="0.501961" />
<polygon points="62,2 0,0 0,47" id="5" fill="rgb(12,81,229)" fill-opacity="0.501961" />
<polygon points="147,42 256,6 256,47" id="6" fill="rgb(61,62,23)" fill-opacity="0.501961" />
<polygon points="50,95 3,135 44,145" id="7" fill="rgb(61,37,16)" fill-opacity="0.501961" />
<polygon points="46,52 83,66 64,20" id="8" fill="rgb(210,218,229)" fill-opacity="0.501961" />
<polygon points="256,135 256,53 208,82" id="9" fill="rgb(34,32,39)" fill-opacity="0.501961" />
<polygon points="205,53 125,40 207,117" id="10" fill="rgb(174,180,191)" fill-opacity="0.501961" />
<polygon points="11,93 14,131 22,72" id="11" fill="rgb(8,9,8)" fill-opacity="0.501961" />
<polygon points="0,39 62,40 0,57" id="12" fill="rgb(198,195,188)" fill-opacity="0.501961" />
<polygon points="16,40 41,0 47,36" id="13" fill="rgb(22,86,201)" fill-opacity="0.501961" />
<polygon points="105,153 234,153 191,94" id="14" fill="rgb(132,132,132)" fill-opacity="0.501961" />
<polygon points="256,101 208,151 256,153" id="15" fill="rgb(98,73,56)" fill-opacity="0.501961" />
<polygon points="106,86 231,47 90,65" id="16" fill="rgb(182,185,192)" fill-opacity="0.501961" />
<polygon points="96,64 74,42 144,39" id="17" fill="rgb(46,48,52)" fill-opacity="0.501961" />
<polygon points="63,132 76,123 70,144" id="18" fill="rgb(14,4,0)" fill-opacity="0.501961" />
<polygon points="5,117 -12,113 2,58" id="19" fill="rgb(25,28,25)" fill-opacity="0.501961" />
<polygon points="207,59 193,0 253,0" id="20" fill="rgb(118,109,87)" fill-opacity="0.501961" />
<polygon points="75,28 122,0 40,0" id="21" fill="rgb(128,125,95)" fill-opacity="0.501961" />
<polygon points="82,82 53,153 45,84" id="22" fill="rgb(170,173,178)" fill-opacity="0.501961" />
</svg>