<?xml version="1.0" standalone="no"?>
<svg xmlns="http://www.w3.org/2000/svg" version="1.2" baseProfile="tiny" width="256" height="105" viewBox="0 0 256 105">
<rect x="0" y="0" width="256" height="105" id="0" fill="rgb(121,127,123)" fill-opacity="1" />
<polygon points="135,56 48,105 196,105" id="1" fill="rgb(114,93,57)" fill-opacity="0.501961" />
<polygon points="126,11 109,30 146,22" id="2" fill="rgb(40,6,0)" fill-opacity="0.501961" />
<polygon points="112,55 129,20 153,57" id="3" fill="rgb(233,156,113)" fill-opacity="0.501961" />
<polygon points="130,0 256,0 203,99" id="4" fill="rgb(129,147,151)" fill-opacity="0.501961" />
<polygon points="136,17 148,18 146,45" id="5" fill="rgb(25,6,0)" fill-opacity="0.501961" />
<polygon points="121,0 0,0 76,112" id="6" fill="rgb(117,135,138)" fill-opacity="0.501961" />
<polygon points="116,65 111,28 167,105" id="7" fill="rgb(139,104,78)" fill-opacity="0.501961" />
<polygon points="215,105 137,55 161,17" id="8" fill="rgb(119,133,134)" fill-opacity="0.501961" />
<polygon points="81,105 0,105 86,62" id="9" fill="rgb(100,117,118)" fill-opacity="0.501961" />
<polygon points="132,63 122,60 142,36" id="10" fill="rgb(227,169,138)" fill-opacity="0.501961" />
<polygon points="141,37 131,24 113,30" id="11" fill="rgb(253,191,152)" fill-opacity="0.501961" />
<polygon points="118,16 104,37 144,17" id="12" fill="rgb(60,51,35)" fill-opacity="0.501961" />
<polygon points="163,63 201,125 256,32" id="13" fill="rgb(115,131,132)" fill-opacity="0.501961" />
<polygon points="190,88 139,60 128,72" id="14" fill="rgb(146,125,95)" fill-opacity="0.501961" />
<polygon points="116,77 111,69 143,56" id="15" fill="rgb(95,73,51)" fill-opacity="0.501961" />
<polygon points="134,0 256,0 157,40" id="16" fill="rgb(130,142,143)" fill-opacity="0.501961" />
<polygon points="116,43 110,37 137,38" id="17" fill="rgb(118,80,60)" fill-opacity="0.501961" />
<polygon points="126,17 173,0 106,0" id="18" fill="rgb(128,140,140)" fill-opacity="0.501961" />
<polygon points="199,11 256,0 256,86" id="19" fill="rgb(127,141,142)" fill-opacity="0.501961" />
<polygon points="0,17 101,58 117,8" id="20" fill="rgb(123,135,134)" fill-opacity="0.501961" />
<polygon points="123,63 0,18 0,101" id="21" fill="rgb(115,130,129)" fill-opacity="0.501961" />
<polygon points="87,86 82,105 111,105" id="22" fill="rgb(96,88,65)" fill-opacity="0.501961" />
<polygon points="135,71 148,40 142,70" id="23" fill="rgb(181,132,105)" fill-opacity="0.501961" />
<polygon points="236,49 256,105 179,105" id="24" fill="rgb(110,127,129)" fill-opacity="0.501961" />
<polygon points="127,26 118,27 127,51" id="25" fill="rgb(228,171,140)" fill-opacity="0.501961" />
<polygon points="140,31 132,21 142,49" id="26" fill="rgb(209,155,113)" fill-opacity="0.501961" />
<polygon points="153,70 90,79 180,86" id="27" fill="rgb(119,113,87)" fill-opacity="0.501961" />
<polygon points="19,69 -13,103 55,105" id="28" fill="rgb(106,120,120)" fill-opacity="0.501961" />
<polygon points="113,55 107,0 32,97" id="29" fill="rgb(117,130,130)" fill-opacity="0.501961" />
<polygon points="139,54 256,87 256,28" id="30" fill="rgb(120,133,133)" fill-opacity="0.501961" />
<polygon points="144,38 136,59 129,44" id="31" fill="rgb(220,171,135)" fill-opacity="0.501961" />
<polygon points="5,36 36,36 4,0" id="32" fill="rgb(131,139,136)" fill-opacity="0.501961" />
<polygon points="82,93 121,61 141,105" id="33" fill="rgb(117,107,82)" fill-opacity="0.501961" />
<polygon points="128,64 121,59 113,73" id="34" fill="rgb(95,73,51)" fill-opacity="0.501961" />
<polygon points="144,39 145,96 141,39" id="35" fill="rgb(137,114,86)" fill-opacity="0.501961" />
<polygon points="256,105 187,105 174,80" id="36" fill="rgb(110,124,124)" fill-opacity="0.501961" />
<polygon points="114,44 110,22 115,56" id="37" fill="rgb(72,76,71)" fill-opacity="0.501961" />
<polygon points="146,105 170,90 120,65" id="38" fill="rgb(124,115,91)" fill-opacity="0.501961" />
<polygon points="90,76 42,105 79,105" id="39" fill="rgb(101,114,114)" fill-opacity="0.501961" />
<polygon points="103,24 25,0 150,0" id="40" fill="rgb(123,136,136)" fill-opacity="0.501961" />
<polygon points="155,30 129,2 159,8" id="41" fill="rgb(122,134,136)" fill-opacity="0.501961" />
<polygon points="144,54 161,17 162,69" id="42" fill="rgb(120,135,137)" fill-opacity="0.501961" />
<polygon points="110,33 116,62 0,44" id="43" fill="rgb(118,129,130)" fill-opacity="0.501961" />
<polygon points="150,46 114,33 149,41" id="44" fill="rgb(165,118,93)" fill-opacity="0.501961" />
<polygon points="35,60 65,83 35,88" id="45" fill="rgb(128,136,133)" fill-opacity="0.501961" />
<polygon points="153,68 121,77 134,79" id="46" fill="rgb(105,100,80)" fill-opacity="0.501961" />
<polygon points="129,15 148,28 148,34" id="47" fill="rgb(38,28,17)" fill-opacity="0.501961" />
<polygon points="23,105 0,56 36,57" id="48" fill="rgb(109,124,124)" fill-opacity="0.501961" />
<polygon points="77,39 87,14 46,11" id="49" fill="rgb(131,139,136)" fill-opacity="0.501961" />
<polygon points="228,28 233,10 212,24" id="50" fill="rgb(140,146,143)" fill-opacity="0.501961" />
<polygon points="146,54 127,63 113,48" id="51" fill="rgb(176,134,109)" fill-opacity="0.501961" />
<polygon points="88,75 183,105 174,78" id="52" fill="rgb(122,114,89)" fill-opacity="0.501961" />
<polygon points="168,89 169,105 165,105" id="53" fill="rgb(93,86,67)" fill-opacity="0.501961" />
<polygon points="49,0 23,45 76,77" id="54" fill="rgb(117,128,127)" fill-opacity="0.501961" />
<polygon points="213,65 212,105 187,54" id="55" fill="rgb(128,136,134)" fill-opacity="0.501961" />
<polygon points="118,62 93,63 85,81" id="56" fill="rgb(127,137,137)" fill-opacity="0.501961" />
<polygon points="182,98 255,102 237,75" id="57" fill="rgb(112,126,126)" fill-opacity="0.501961" />
<polygon points="59,0 130,5 104,28" id="58" fill="rgb(119,132,133)" fill-opacity="0.501961" />
<polygon points="128,62 122,60 141,54" id="59" fill="rgb(202,158,132)" fill-opacity="0.501961" />
<polygon points="189,64 184,105 175,71" id="60" fill="rgb(113,129,130)" fill-opacity="0.501961" />
<polygon points="162,34 168,75 141,54" id="61" fill="rgb(120,133,133)" fill-opacity="0.501961" />
<polygon points="86,88 110,105 92,75" id="62" fill="rgb(112,105,82)" fill-opacity="0.501961" />
<polygon points="98,52 60,63 59,90" id="63" fill="rgb(111,124,124)" fill-opacity="0.501961" />
<polygon points="120,54 125,59 130,45" id="64" fill="rgb(144,100,85)" fill-opacity="0.501961" />
<polygon points="94,79 111,82 109,68" id="65" fill="rgb(130,118,91)" fill-opacity="0.501961" />
<polygon points="128,25 125,40 138,27" id="66" fill="rgb(226,181,154)" fill-opacity="0.501961" />
<polygon points="23,0 21,35 10,37" id="67" fill="rgb(132,139,136)" fill-opacity="0.501961" />
<polygon points="125,0 123,12 122,0" id="68" fill="rgb(153,163,159)" fill-opacity="0.501961" />
<polygon points="146,78 165,72 158,88" id="69" fill="rgb(137,126,98)" fill-opacity="0.501961" />
<polygon points="87,88 85,105 80,105" id="70" fill="rgb(86,85,69)" fill-opacity="0.501961" />
<polygon points="114,30 123,38 123,54" id="71" fill="rgb(154,109,82)" fill-opacity="0.501961" />
<polygon points="198,21 173,50 143,17" id="72" fill="rgb(129,139,138)" fill-opacity="0.501961" />
<polygon points="101,85 98,128 160,99" id="73" fill="rgb(118,110,85)" fill-opacity="0.501961" />
<polygon points="75,17 75,27 70,31" id="74" fill="rgb(149,153,147)" fill-opacity="0.501961" />
<polygon points="144,62 130,69 143,70" id="75" fill="rgb(182,142,119)" fill-opacity="0.501961" />
<polygon points="145,48 130,79 120,86" id="76" fill="rgb(122,101,79)" fill-opacity="0.501961" />
<polygon points="113,28 114,22 138,19" id="77" fill="rgb(34,26,19)" fill-opacity="0.501961" />
<polygon points="139,48 134,43 114,44" id="78" fill="rgb(222,168,141)" fill-opacity="0.501961" />
<polygon points="144,19 128,12 111,23" id="79" fill="rgb(77,61,40)" fill-opacity="0.501961" />
<polygon points="131,73 119,66 124,71" id="80" fill="rgb(192,138,111)" fill-opacity="0.501961" />
<polygon points="90,66 115,18 53,49" id="81" fill="rgb(120,131,131)" fill-opacity="0.501961" />
<polygon points="76,23 108,19 173,0" id="82" fill="rgb(123,135,135)" fill-opacity="0.501961" />
<polygon points="0,25 0,0 122,0" id="83" fill="rgb(122,133,132)" fill-opacity="0.501961" />
<polygon points="139,45 142,44 136,25" id="84" fill="rgb(199,157,124)" fill-opacity="0.501961" />
<polygon points="54,74 27,105 53,105" id="85" fill="rgb(113,123,120)" fill-opacity="0.501961" />
<polygon points="140,72 115,75 146,73" id="86" fill="rgb(100,93,75)" fill-opacity="0.501961" />
<polygon points="29,8 24,14 29,34" id="87" fill="rgb(139,145,139)" fill-opacity="0.501961" />
<polygon points="136,38 137,41 124,35" id="88" fill="rgb(117,87,70)" fill-opacity="0.501961" />
<polygon points="215,5 211,59 150,49" id="89" fill="rgb(122,135,136)" fill-opacity="0.501961" />
<polygon points="236,34 248,31 215,35" id="90" fill="rgb(142,149,145)" fill-opacity="0.501961" />
<polygon points="241,12 213,15 215,12" id="91" fill="rgb(147,152,149)" fill-opacity="0.501961" />
<polygon points="96,105 106,105 88,97" id="92" fill="rgb(89,80,61)" fill-opacity="0.501961" />
<polygon points="116,45 125,47 118,49" id="93" fill="rgb(210,154,125)" fill-opacity="0.501961" />
<polygon points="124,44 124,51 113,41" id="94" fill="rgb(161,118,91)" fill-opacity="0.501961" />
<polygon points="252,78 266,49 256,81" id="95" fill="rgb(150,153,145)" fill-opacity="0.501961" />
<polygon points="243,91 244,44 244,74" id="96" fill="rgb(137,144,139)" fill-opacity="0.501961" />
<polygon points="57,83 58,66 55,59" id="97" fill="rgb(144,148,142)" fill-opacity="0.501961" />
<polygon points="256,38 207,81 256,56" id="98" fill="rgb(114,129,130)" fill-opacity="0.501961" />
<polygon points="227,55 256,0 256,43" id="99" fill="rgb(122,136,138)" fill-opacity="0.501961" />
<polygon points="98,63 120,0 83,15" id="100" fill="rgb(118,131,132)" fill-opacity="0.501961" />
<polygon points="160,15 180,12 173,33" id="101" fill="rgb(138,145,144)" fill-opacity="0.501961" />
<polygon points="135,76 145,68 145,73" id="102" fill="rgb(106,101,82)" fill-opacity="0.501961" />
<polygon points="41,31 41,80 37,81" id="103" fill="rgb(111,124,124)" fill-opacity="0.501961" />
<polygon points="196,73 206,69 202,81" id="104" fill="rgb(142,147,143)" fill-opacity="0.501961" />
<polygon points="164,81 183,90 98,105" id="105" fill="rgb(120,112,89)" fill-opacity="0.501961" />
<polygon points="192,87 189,76 193,46" id="106" fill="rgb(134,142,140)" fill-opacity="0.501961" />
<polygon points="180,89 256,103 256,85" id="107" fill="rgb(113,127,126)" fill-opacity="0.501961" />
<polygon points="227,59 171,63 196,43" id="108" fill="rgb(116,131,133)" fill-opacity="0.501961" />
<polygon points="220,15 222,44 196,79" id="109" fill="rgb(124,135,135)" fill-opacity="0.501961" />
<polygon points="55,74 17,57 9,26" id="110" fill="rgb(120,131,130)" fill-opacity="0.501961" />
<polygon points="186,5 183,39 183,0" id="111" fill="rgb(139,147,146)" fill-opacity="0.501961" />
<polygon points="121,26 115,31 131,44" id="112" fill="rgb(207,155,122)" fill-opacity="0.501961" />
<polygon points="186,16 180,0 239,8" id="113" fill="rgb(125,138,140)" fill-opacity="0.501961" />
<polygon points="165,45 171,0 164,18" id="114" fill="rgb(121,134,135)" fill-opacity="0.501961" />
<polygon points="121,81 166,105 146,72" id="115" fill="rgb(121,113,90)" fill-opacity="0.501961" />
<polygon points="5,0 45,12 0,12" id="116" fill="rgb(118,131,129)" fill-opacity="0.501961" />
<polygon points="151,72 171,75 175,80" id="117" fill="rgb(137,124,91)" fill-opacity="0.501961" />
<polygon points="61,60 100,42 117,58" id="118" fill="rgb(115,128,128)" fill-opacity="0.501961" />
<polygon points="129,13 158,14 113,7" id="119" fill="rgb(127,138,138)" fill-opacity="0.501961" />
<polygon points="179,66 149,45 149,8" id="120" fill="rgb(122,134,135)" fill-opacity="0.501961" />
<polygon points="86,83 51,105 29,88" id="121" fill="rgb(109,121,119)" fill-opacity="0.501961" />
<polygon points="178,95 174,96 171,105" id="122" fill="rgb(100,92,73)" fill-opacity="0.501961" />
<polygon points="136,13 129,14 120,27" id="123" fill="rgb(110,90,69)" fill-opacity="0.501961" />
<polygon points="50,70 42,79 46,77" id="124" fill="rgb(142,147,143)" fill-opacity="0.501961" />
<polygon points="55,86 39,85 50,83" id="125" fill="rgb(140,146,140)" fill-opacity="0.501961" />
<polygon points="110,61 35,61 31,51" id="126" fill="rgb(114,126,126)" fill-opacity="0.501961" />
<polygon points="239,13 236,28 237,11" id="127" fill="rgb(147,151,148)" fill-opacity="0.501961" />
<polygon points="169,66 147,63 153,61" id="128" fill="rgb(135,144,142)" fill-opacity="0.501961" />
<polygon points="101,99 119,61 99,105" id="129" fill="rgb(116,110,89)" fill-opacity="0.501961" />
<polygon points="86,49 119,66 94,0" id="130" fill="rgb(118,131,132)" fill-opacity="0.501961" />
<polygon points="29,64 50,65 65,62" id="131" fill="rgb(136,142,139)" fill-opacity="0.501961" />
<polygon points="234,92 208,105 249,105" id="132" fill="rgb(107,123,122)" fill-opacity="0.501961" />
<polygon points="143,40 140,33 139,50" id="133" fill="rgb(192,150,115)" fill-opacity="0.501961" />
<polygon points="59,105 78,105 84,90" id="134" fill="rgb(97,111,110)" fill-opacity="0.501961" />
<polygon points="173,55 145,54 190,81" id="135" fill="rgb(116,130,131)" fill-opacity="0.501961" />
<polygon points="91,78 4,39 96,65" id="136" fill="rgb(117,129,128)" fill-opacity="0.501961" />
<polygon points="138,61 128,66 127,64" id="137" fill="rgb(48,37,25)" fill-opacity="0.501961" />
<polygon points="53,1 54,25 94,75" id="138" fill="rgb(123,133,132)" fill-opacity="0.501961" />
<polygon points="7,15 25,13 25,15" id="139" fill="rgb(146,150,144)" fill-opacity="0.501961" />
<polygon points="243,82 221,103 212,56" id="140" fill="rgb(113,128,128)" fill-opacity="0.501961" />
<polygon points="256,63 285,64 244,62" id="141" fill="rgb(149,153,147)" fill-opacity="0.501961" />
<polygon points="29,30 64,0 45,53" id="142" fill="rgb(117,131,130)" fill-opacity="0.501961" />
<polygon points="95,56 88,81 87,67" id="143" fill="rgb(132,139,136)" fill-opacity="0.501961" />
<polygon points="88,69 23,102 85,81" id="144" fill="rgb(112,124,123)" fill-opacity="0.501961" />
<polygon points="138,48 134,52 131,44" id="145" fill="rgb(227,181,149)" fill-opacity="0.501961" />
<polygon points="208,87 211,63 195,98" id="146" fill="rgb(117,129,128)" fill-opacity="0.501961" />
<polygon points="83,33 81,2 81,48" id="147" fill="rgb(136,143,139)" fill-opacity="0.501961" />
<polygon points="80,19 81,57 76,22" id="148" fill="rgb(115,128,128)" fill-opacity="0.501961" />
<polygon points="71,67 96,60 52,61" id="149" fill="rgb(113,126,127)" fill-opacity="0.501961" />
<polygon points="184,105 179,84 256,94" id="150" fill="rgb(113,126,127)" fill-opacity="0.501961" />
<polygon points="141,14 209,19 125,11" id="151" fill="rgb(124,137,139)" fill-opacity="0.501961" />
<polygon points="189,92 163,68 207,97" id="152" fill="rgb(114,129,129)" fill-opacity="0.501961" />
<polygon points="105,72 115,67 135,77" id="153" fill="rgb(104,97,74)" fill-opacity="0.501961" />
<polygon points="134,22 142,29 137,54" id="154" fill="rgb(187,146,115)" fill-opacity="0.501961" />
<polygon points="95,79 102,105 145,74" id="155" fill="rgb(117,109,86)" fill-opacity="0.501961" />
<polygon points="237,54 149,35 244,38" id="156" fill="rgb(123,135,135)" fill-opacity="0.501961" />
<polygon points="46,4 61,0 30,3" id="157" fill="rgb(131,138,136)" fill-opacity="0.501961" />
<polygon points="170,55 157,46 193,42" id="158" fill="rgb(127,137,136)" fill-opacity="0.501961" />
<polygon points="9,68 9,105 0,105" id="159" fill="rgb(111,123,121)" fill-opacity="0.501961" />
<polygon points="93,33 15,47 75,53" id="160" fill="rgb(120,131,129)" fill-opacity="0.501961" />
<polygon points="127,76 96,89 118,73" id="161" fill="rgb(119,111,88)" fill-opacity="0.501961" />
<polygon points="173,18 174,23 173,31" id="162" fill="rgb(152,157,152)" fill-opacity="0.501961" />
<polygon points="71,33 82,36 59,34" id="163" fill="rgb(141,146,142)" fill-opacity="0.501961" />
<polygon points="87,14 57,0 89,0" id="164" fill="rgb(118,131,132)" fill-opacity="0.501961" />
<polygon points="88,36 12,39 86,40" id="165" fill="rgb(115,128,128)" fill-opacity="0.501961" />
<polygon points="3,0 7,49 0,55" id="166" fill="rgb(115,127,127)" fill-opacity="0.501961" />
<polygon points="112,29 112,37 116,18" id="167" fill="rgb(11,10,7)" fill-opacity="0.501961" />
<polygon points="0,51 0,82 3,90" id="168" fill="rgb(109,122,121)" fill-opacity="0.501961" />
<polygon points="61,22 61,31 61,18" id="169" fill="rgb(153,156,149)" fill-opacity="0.501961" />
<polygon points="70,0 121,13 103,32" id="170" fill="rgb(120,132,133)" fill-opacity="0.501961" />
<polygon points="22,1 27,0 24,58" id="171" fill="rgb(119,130,129)" fill-opacity="0.501961" />
<polygon points="128,0 173,0 225,18" id="172" fill="rgb(127,139,140)" fill-opacity="0.501961" />
<polygon points="25,96 36,59 0,52" id="173" fill="rgb(113,125,124)" fill-opacity="0.501961" />
<polygon points="71,89 57,105 84,108" id="174" fill="rgb(101,114,113)" fill-opacity="0.501961" />
<polygon points="4,77 4,68 0,64" id="175" fill="rgb(140,145,139)" fill-opacity="0.501961" />
<polygon points="87,79 58,76 85,53" id="176" fill="rgb(112,126,125)" fill-opacity="0.501961" />
</svg>