<?xml version="1.0" standalone="no"?>
<svg xmlns="http://www.w3.org/2000/svg" version="1.2" baseProfile="tiny" width="256" height="170" viewBox="0 0 256 170">
<rect x="0" y="0" width="256" height="170" id="0" fill="rgb(65,48,27)" fill-opacity="1" />
<polygon points="136,46 17,104 158,108" id="1" fill="rgb(224,140,82)" fill-opacity="0.501961" />
<polygon points="141,17 256,123 174,170" id="2" fill="rgb(0,0,0)" fill-opacity="0.501961" />
<polygon points="35,34 51,123 65,56" id="3" fill="rgb(255,207,0)" fill-opacity="0.501961" />
<polygon points="27,49 0,102 0,0" id="4" fill="rgb(208,184,132)" fill-opacity="0.501961" />
<polygon points="170,154 148,69 156,167" id="5" fill="rgb(255,190,160)" fill-opacity="0.501961" />
<polygon points="161,170 256,27 256,170" id="6" fill="rgb(0,0,0)" fill-opacity="0.501961" />
<polygon points="98,101 106,51 140,67" id="7" fill="rgb(255,180,156)" fill-opacity="0.501961" />
<polygon points="122,44 44,0 70,104" id="8" fill="rgb(27,19,18)" fill-opacity="0.501961" />
<polygon points="169,170 0,170 26,93" id="9" fill="rgb(23,23,12)" fill-opacity="0.501961" />
<polygon points="21,0 0,0 0,34" id="10" fill="rgb(0,15,201)" fill-opacity="0.501961" />
<polygon points="55,46 5,0 58,0" id="11" fill="rgb(0,0,43)" fill-opacity="0.501961" />
<polygon points="229,70 213,107 95,41" id="12" fill="rgb(1,4,0)" fill-opacity="0.501961" />
<polygon points="153,115 131,92 125,140" id="13" fill="rgb(0,0,0)" fill-opacity="0.501961" />
<polygon points="165,0 100,34 220,66" id="14" fill="rgb(113,79,42)" fill-opacity="0.501961" />
<polygon points="140,135 126,136 159,170" id="15" fill="rgb(246,151,122)" fill-opacity="0.501961" />
<polygon points="97,119 56,96 99,109" id="16" fill="rgb(255,167,102)" fill-opacity="0.501961" />
</svg>