<?xml version="1.0" standalone="no"?>
<svg xmlns="http://www.w3.org/2000/svg" version="1.2" baseProfile="tiny" width="256" height="170" viewBox="0 0 256 170">
<rect x="0" y="0" width="256" height="170" id="0" fill="rgb(162,132,139)" fill-opacity="1" />
<polygon points="91,0 10,170 127,170" id="1" fill="rgb(45,0,11)" fill-opacity="0.501961" />
<polygon points="256,128 45,13 256,15" id="2" fill="rgb(255,255,232)" fill-opacity="0.501961" />
<polygon points="0,162 0,10 65,22" id="3" fill="rgb(198,239,232)" fill-opacity="0.501961" />
<polygon points="128,95 107,29 32,89" id="4" fill="rgb(29,17,55)" fill-opacity="0.501961" />
<polygon points="120,112 256,84 133,19" id="5" fill="rgb(233,224,214)" fill-opacity="0.501961" />
<polygon points="160,170 181,111 256,163" id="6" fill="rgb(120,50,72)" fill-opacity="0.501961" />
<polygon points="114,170 112,49 18,170" id="7" fill="rgb(85,0,54)" fill-opacity="0.501961" />
<polygon points="54,85 4,131 121,111" id="8" fill="rgb(207,27,93)" fill-opacity="0.501961" />
<polygon points="0,170 8,107 26,170" id="9" fill="rgb(240,175,178)" fill-opacity="0.501961" />
<polygon points="91,27 40,63 120,115" id="10" fill="rgb(47,48,73)" fill-opacity="0.501961" />
<polygon points="0,0 72,41 147,0" id="11" fill="rgb(151,168,167)" fill-opacity="0.501961" />
<polygon points="36,102 28,170 16,148" id="12" fill="rgb(200,16,89)" fill-opacity="0.501961" />
<polygon points="253,104 133,132 256,163" id="13" fill="rgb(130,104,114)" fill-opacity="0.501961" />
<polygon points="156,20 256,0 139,0" id="14" fill="rgb(186,117,80)" fill-opacity="0.501961" />
<polygon points="118,170 155,170 121,76" id="15" fill="rgb(201,155,150)" fill-opacity="0.501961" />
<polygon points="40,80 47,99 0,111" id="16" fill="rgb(215,185,182)" fill-opacity="0.501961" />
<polygon points="256,115 210,89 99,115" id="17" fill="rgb(181,164,163)" fill-opacity="0.501961" />
<polygon points="256,11 151,90 82,15" id="18" fill="rgb(220,196,180)" fill-opacity="0.501961" />
<polygon points="123,125 122,159 95,102" id="19" fill="rgb(178,27,74)" fill-opacity="0.501961" />
<polygon points="71,108 39,170 114,167" id="20" fill="rgb(63,18,57)" fill-opacity="0.501961" />
<polygon points="139,152 182,119 234,170" id="21" fill="rgb(136,76,93)" fill-opacity="0.501961" />
<polygon points="256,47 152,102 110,35" id="22" fill="rgb(222,209,203)" fill-opacity="0.501961" />
<polygon points="0,51 0,12 104,22" id="23" fill="rgb(178,207,210)" fill-opacity="0.501961" />
<polygon points="113,113 32,145 34,116" id="24" fill="rgb(111,15,64)" fill-opacity="0.501961" />
<polygon points="253,21 256,0 168,0" id="25" fill="rgb(179,116,87)" fill-opacity="0.501961" />
<polygon points="158,19 0,9 153,0" id="26" fill="rgb(155,134,128)" fill-opacity="0.501961" />
<polygon points="25,170 11,155 21,116" id="27" fill="rgb(209,74,120)" fill-opacity="0.501961" />
<polygon points="256,82 158,36 256,13" id="28" fill="rgb(231,205,188)" fill-opacity="0.501961" />
<polygon points="55,45 123,54 97,32" id="29" fill="rgb(82,82,108)" fill-opacity="0.501961" />
<polygon points="0,166 48,58 0,79" id="30" fill="rgb(192,175,168)" fill-opacity="0.501961" />
<polygon points="4,129 0,170 22,170" id="31" fill="rgb(203,190,180)" fill-opacity="0.501961" />
<polygon points="159,27 128,10 253,12" id="32" fill="rgb(212,172,143)" fill-opacity="0.501961" />
<polygon points="41,88 45,56 75,30" id="33" fill="rgb(94,112,132)" fill-opacity="0.501961" />
<polygon points="51,86 24,170 19,134" id="34" fill="rgb(169,45,94)" fill-opacity="0.501961" />
<polygon points="117,101 115,56 58,73" id="35" fill="rgb(55,35,54)" fill-opacity="0.501961" />
<polygon points="167,109 133,150 233,116" id="36" fill="rgb(142,117,123)" fill-opacity="0.501961" />
<polygon points="256,170 237,153 157,170" id="37" fill="rgb(166,95,112)" fill-opacity="0.501961" />
<polygon points="140,80 129,13 85,13" id="38" fill="rgb(191,187,187)" fill-opacity="0.501961" />
<polygon points="120,111 31,102 73,89" id="39" fill="rgb(189,45,90)" fill-opacity="0.501961" />
<polygon points="256,103 173,95 256,135" id="40" fill="rgb(174,163,161)" fill-opacity="0.501961" />
<polygon points="256,54 256,97 118,91" id="41" fill="rgb(209,203,202)" fill-opacity="0.501961" />
<polygon points="107,46 45,89 60,49" id="42" fill="rgb(60,44,73)" fill-opacity="0.501961" />
<polygon points="141,170 123,170 130,91" id="43" fill="rgb(190,165,160)" fill-opacity="0.501961" />
<polygon points="0,14 0,3 104,4" id="44" fill="rgb(121,128,137)" fill-opacity="0.501961" />
<polygon points="225,167 256,170 256,115" id="45" fill="rgb(146,128,135)" fill-opacity="0.501961" />
<polygon points="55,92 9,142 22,105" id="46" fill="rgb(191,98,134)" fill-opacity="0.501961" />
<polygon points="106,106 125,149 118,114" id="47" fill="rgb(200,65,96)" fill-opacity="0.501961" />
<polygon points="101,133 96,170 117,148" id="48" fill="rgb(52,25,55)" fill-opacity="0.501961" />
<polygon points="256,107 126,100 201,82" id="49" fill="rgb(194,180,178)" fill-opacity="0.501961" />
<polygon points="229,137 160,136 184,193" id="50" fill="rgb(137,75,93)" fill-opacity="0.501961" />
<polygon points="53,45 79,28 104,32" id="51" fill="rgb(114,123,139)" fill-opacity="0.501961" />
<polygon points="41,50 40,94 0,128" id="52" fill="rgb(197,190,186)" fill-opacity="0.501961" />
<polygon points="86,170 82,108 123,146" id="53" fill="rgb(93,18,59)" fill-opacity="0.501961" />
<polygon points="129,146 107,184 124,139" id="54" fill="rgb(160,89,95)" fill-opacity="0.501961" />
<polygon points="123,129 116,109 170,93" id="55" fill="rgb(193,166,160)" fill-opacity="0.501961" />
<polygon points="28,135 51,113 24,188" id="56" fill="rgb(124,23,70)" fill-opacity="0.501961" />
<polygon points="123,17 256,39 256,16" id="57" fill="rgb(218,186,166)" fill-opacity="0.501961" />
<polygon points="124,169 164,170 166,157" id="58" fill="rgb(193,159,155)" fill-opacity="0.501961" />
<polygon points="0,38 29,27 0,11" id="59" fill="rgb(179,217,222)" fill-opacity="0.501961" />
<polygon points="41,62 47,40 79,27" id="60" fill="rgb(152,165,169)" fill-opacity="0.501961" />
<polygon points="74,56 110,98 53,87" id="61" fill="rgb(49,25,55)" fill-opacity="0.501961" />
<polygon points="113,101 112,54 92,45" id="62" fill="rgb(75,53,70)" fill-opacity="0.501961" />
<polygon points="0,0 155,0 60,3" id="63" fill="rgb(152,181,182)" fill-opacity="0.501961" />
<polygon points="41,44 0,75 0,36" id="64" fill="rgb(159,188,192)" fill-opacity="0.501961" />
<polygon points="218,11 191,-28 256,5" id="65" fill="rgb(161,98,86)" fill-opacity="0.501961" />
<polygon points="127,71 115,117 119,68" id="66" fill="rgb(142,105,108)" fill-opacity="0.501961" />
<polygon points="85,121 53,112 99,103" id="67" fill="rgb(129,23,65)" fill-opacity="0.501961" />
<polygon points="48,135 87,121 71,170" id="68" fill="rgb(60,26,58)" fill-opacity="0.501961" />
<polygon points="254,51 128,74 256,92" id="69" fill="rgb(219,210,204)" fill-opacity="0.501961" />
</svg>