<?xml version="1.0" standalone="no"?>
<svg xmlns="http://www.w3.org/2000/svg" version="1.2" baseProfile="tiny" width="256" height="217" viewBox="0 0 256 217">
<rect x="0" y="0" width="256" height="217" id="0" fill="rgb(153,130,115)" fill-opacity="1" />
<polygon points="0,0 230,106 256,0" id="1" fill="rgb(245,255,255)" fill-opacity="0.501961" />
<polygon points="256,217 0,188 256,90" id="2" fill="rgb(76,25,0)" fill-opacity="0.501961" />
<polygon points="137,128 222,88 64,102" id="3" fill="rgb(255,255,250)" fill-opacity="0.501961" />
<polygon points="58,217 223,187 0,57" id="4" fill="rgb(117,70,45)" fill-opacity="0.501961" />
<polygon points="256,71 24,67 76,102" id="5" fill="rgb(99,68,48)" fill-opacity="0.501961" />
<polygon points="256,0 162,49 39,0" id="6" fill="rgb(253,255,255)" fill-opacity="0.501961" />
<polygon points="0,143 0,209 38,136" id="7" fill="rgb(255,255,228)" fill-opacity="0.501961" />
<polygon points="111,217 211,205 134,181" id="8" fill="rgb(217,160,127)" fill-opacity="0.501961" />
<polygon points="256,22 117,67 249,113" id="9" fill="rgb(162,153,142)" fill-opacity="0.501961" />
<polygon points="182,71 0,42 0,0" id="10" fill="rgb(150,171,174)" fill-opacity="0.501961" />
<polygon points="121,133 256,137 213,98" id="11" fill="rgb(86,62,45)" fill-opacity="0.501961" />
<polygon points="110,131 216,148 110,167" id="12" fill="rgb(179,129,99)" fill-opacity="0.501961" />
<polygon points="75,217 0,188 0,217" id="13" fill="rgb(247,194,156)" fill-opacity="0.501961" />
<polygon points="101,217 166,155 18,196" id="14" fill="rgb(85,47,27)" fill-opacity="0.501961" />
<polygon points="135,126 47,100 223,93" id="15" fill="rgb(248,224,195)" fill-opacity="0.501961" />
<polygon points="212,166 256,145 227,217" id="16" fill="rgb(49,23,8)" fill-opacity="0.501961" />
<polygon points="0,68 85,155 2,134" id="17" fill="rgb(123,81,58)" fill-opacity="0.501961" />
<polygon points="220,205 168,217 246,217" id="18" fill="rgb(61,20,0)" fill-opacity="0.501961" />
<polygon points="256,0 256,29 47,0" id="19" fill="rgb(235,243,246)" fill-opacity="0.501961" />
<polygon points="256,69 93,103 176,68" id="20" fill="rgb(127,95,76)" fill-opacity="0.501961" />
<polygon points="12,180 72,119 134,174" id="21" fill="rgb(109,71,51)" fill-opacity="0.501961" />
<polygon points="107,70 49,1 0,66" id="22" fill="rgb(129,138,135)" fill-opacity="0.501961" />
<polygon points="0,130 0,180 34,155" id="23" fill="rgb(255,222,194)" fill-opacity="0.501961" />
<polygon points="237,100 256,82 157,81" id="24" fill="rgb(216,194,170)" fill-opacity="0.501961" />
<polygon points="122,126 235,114 160,154" id="25" fill="rgb(115,81,59)" fill-opacity="0.501961" />
<polygon points="212,128 256,127 185,89" id="26" fill="rgb(107,84,70)" fill-opacity="0.501961" />
<polygon points="183,210 196,162 157,155" id="27" fill="rgb(67,39,21)" fill-opacity="0.501961" />
<polygon points="94,217 234,187 198,217" id="28" fill="rgb(179,124,93)" fill-opacity="0.501961" />
<polygon points="132,188 153,197 126,201" id="29" fill="rgb(255,204,166)" fill-opacity="0.501961" />
<polygon points="60,185 28,179 84,111" id="30" fill="rgb(160,110,84)" fill-opacity="0.501961" />
</svg>