<?xml version="1.0" standalone="no"?>
<svg xmlns="http://www.w3.org/2000/svg" version="1.2" baseProfile="tiny" width="256" height="170" viewBox="0 0 256 170">
<rect x="0" y="0" width="256" height="170" id="0" fill="rgb(106,107,110)" fill-opacity="1" />
<polygon points="223,61 256,170 47,162" id="1" fill="rgb(0,0,0)" fill-opacity="0.501961" />
<polygon points="46,0 175,110 209,0" id="2" fill="rgb(209,212,209)" fill-opacity="0.501961" />
<polygon points="75,156 31,112 91,51" id="3" fill="rgb(255,255,255)" fill-opacity="0.501961" />
<polygon points="145,39 139,75 0,8" id="4" fill="rgb(55,54,48)" fill-opacity="0.501961" />
<polygon points="0,143 80,146 0,164" id="5" fill="rgb(246,251,255)" fill-opacity="0.501961" />
<polygon points="184,57 255,95 256,170" id="6" fill="rgb(0,12,80)" fill-opacity="0.501961" />
<polygon points="80,122 132,116 104,170" id="7" fill="rgb(3,0,0)" fill-opacity="0.501961" />
<polygon points="177,8 95,88 160,104" id="8" fill="rgb(195,197,197)" fill-opacity="0.501961" />
<polygon points="100,26 99,0 35,0" id="9" fill="rgb(249,255,255)" fill-opacity="0.501961" />
<polygon points="56,10 0,12 0,36" id="10" fill="rgb(0,0,0)" fill-opacity="0.501961" />
<polygon points="61,63 54,36 17,84" id="11" fill="rgb(210,208,214)" fill-opacity="0.501961" />
<polygon points="0,135 40,76 32,145" id="12" fill="rgb(31,29,25)" fill-opacity="0.501961" />
<polygon points="45,148 39,94 95,96" id="13" fill="rgb(241,237,231)" fill-opacity="0.501961" />
<polygon points="12,121 0,126 4,78" id="14" fill="rgb(255,254,250)" fill-opacity="0.501961" />
<polygon points="216,104 191,170 256,168" id="15" fill="rgb(31,0,1)" fill-opacity="0.501961" />
<polygon points="21,160 90,164 47,123" id="16" fill="rgb(133,131,132)" fill-opacity="0.501961" />
<polygon points="137,0 132,170 122,0" id="17" fill="rgb(81,82,81)" fill-opacity="0.501961" />
<polygon points="81,34 82,0 46,0" id="18" fill="rgb(231,247,254)" fill-opacity="0.501961" />
<polygon points="131,126 131,101 162,103" id="19" fill="rgb(0,0,0)" fill-opacity="0.501961" />
<polygon points="207,58 135,41 143,0" id="20" fill="rgb(200,212,215)" fill-opacity="0.501961" />
<polygon points="142,83 199,76 205,123" id="21" fill="rgb(120,101,98)" fill-opacity="0.501961" />
<polygon points="105,26 119,36 117,9" id="22" fill="rgb(255,255,255)" fill-opacity="0.501961" />
<polygon points="193,91 217,38 236,135" id="23" fill="rgb(8,56,64)" fill-opacity="0.501961" />
<polygon points="148,50 90,25 40,77" id="24" fill="rgb(92,91,85)" fill-opacity="0.501961" />
<polygon points="9,140 13,76 29,84" id="25" fill="rgb(41,40,36)" fill-opacity="0.501961" />
<polygon points="131,124 129,170 143,185" id="26" fill="rgb(128,165,188)" fill-opacity="0.501961" />
<polygon points="30,170 71,170 89,150" id="27" fill="rgb(30,15,15)" fill-opacity="0.501961" />
<polygon points="208,51 256,49 256,38" id="28" fill="rgb(5,10,14)" fill-opacity="0.501961" />
<polygon points="171,127 174,156 150,114" id="29" fill="rgb(136,168,130)" fill-opacity="0.501961" />
<polygon points="207,48 155,0 240,0" id="30" fill="rgb(139,141,136)" fill-opacity="0.501961" />
<polygon points="141,93 108,89 107,70" id="31" fill="rgb(234,235,235)" fill-opacity="0.501961" />
<polygon points="120,0 119,24 93,-18" id="32" fill="rgb(255,255,255)" fill-opacity="0.501961" />
<polygon points="256,130 222,120 227,76" id="33" fill="rgb(52,44,160)" fill-opacity="0.501961" />
<polygon points="41,94 89,69 91,89" id="34" fill="rgb(222,227,234)" fill-opacity="0.501961" />
<polygon points="0,141 30,148 0,165" id="35" fill="rgb(250,252,255)" fill-opacity="0.501961" />
<polygon points="239,140 255,170 267,138" id="36" fill="rgb(0,0,0)" fill-opacity="0.501961" />
<polygon points="0,5 0,0 17,0" id="37" fill="rgb(255,255,255)" fill-opacity="0.501961" />
<polygon points="256,170 132,141 146,170" id="38" fill="rgb(55,35,36)" fill-opacity="0.501961" />
<polygon points="77,116 107,110 72,92" id="39" fill="rgb(197,193,189)" fill-opacity="0.501961" />
<polygon points="147,66 55,67 144,42" id="40" fill="rgb(113,114,109)" fill-opacity="0.501961" />
<polygon points="0,96 0,29 31,17" id="41" fill="rgb(75,75,69)" fill-opacity="0.501961" />
<polygon points="121,122 128,170 70,152" id="42" fill="rgb(18,8,9)" fill-opacity="0.501961" />
<polygon points="173,70 147,69 147,14" id="43" fill="rgb(219,225,229)" fill-opacity="0.501961" />
<polygon points="30,0 60,25 0,18" id="44" fill="rgb(20,19,17)" fill-opacity="0.501961" />
<polygon points="73,43 116,0 77,0" id="45" fill="rgb(170,176,180)" fill-opacity="0.501961" />
<polygon points="61,40 102,93 110,43" id="46" fill="rgb(110,110,105)" fill-opacity="0.501961" />
<polygon points="133,78 132,88 156,86" id="47" fill="rgb(39,38,34)" fill-opacity="0.501961" />
<polygon points="76,115 91,164 94,118" id="48" fill="rgb(90,69,66)" fill-opacity="0.501961" />
<polygon points="0,91 50,28 42,81" id="49" fill="rgb(132,131,131)" fill-opacity="0.501961" />
<polygon points="182,102 192,47 153,104" id="50" fill="rgb(137,130,120)" fill-opacity="0.501961" />
<polygon points="203,162 213,45 228,83" id="51" fill="rgb(0,38,31)" fill-opacity="0.501961" />
<polygon points="10,89 0,125 0,87" id="52" fill="rgb(205,209,212)" fill-opacity="0.501961" />
<polygon points="108,94 74,93 103,83" id="53" fill="rgb(63,62,61)" fill-opacity="0.501961" />
<polygon points="69,131 78,88 35,123" id="54" fill="rgb(241,241,240)" fill-opacity="0.501961" />
<polygon points="80,163 52,190 91,163" id="55" fill="rgb(237,240,246)" fill-opacity="0.501961" />
<polygon points="46,67 57,36 57,62" id="56" fill="rgb(237,235,244)" fill-opacity="0.501961" />
<polygon points="103,31 122,49 87,32" id="57" fill="rgb(12,12,14)" fill-opacity="0.501961" />
<polygon points="182,170 186,143 205,161" id="58" fill="rgb(92,90,92)" fill-opacity="0.501961" />
<polygon points="12,170 46,127 74,133" id="59" fill="rgb(143,145,148)" fill-opacity="0.501961" />
<polygon points="169,100 157,119 187,144" id="60" fill="rgb(10,54,18)" fill-opacity="0.501961" />
<polygon points="220,41 226,74 240,72" id="61" fill="rgb(147,156,167)" fill-opacity="0.501961" />
<polygon points="0,89 55,89 82,57" id="62" fill="rgb(94,92,87)" fill-opacity="0.501961" />
<polygon points="219,39 209,54 201,42" id="63" fill="rgb(0,122,207)" fill-opacity="0.501961" />
<polygon points="180,96 112,95 128,86" id="64" fill="rgb(177,178,178)" fill-opacity="0.501961" />
<polygon points="189,51 202,73 188,73" id="65" fill="rgb(0,53,40)" fill-opacity="0.501961" />
</svg>