<?xml version="1.0" standalone="no"?>
<svg xmlns="http://www.w3.org/2000/svg" version="1.2" baseProfile="tiny" width="256" height="143" viewBox="0 0 256 143">
<rect x="0" y="0" width="256" height="143" id="0" fill="rgb(114,85,64)" fill-opacity="1" />
<polygon points="124,103 174,0 117,3" id="1" fill="rgb(255,238,162)" fill-opacity="0.501961" />
<polygon points="23,115 256,60 228,129" id="2" fill="rgb(0,8,26)" fill-opacity="0.501961" />
<polygon points="13,97 7,143 68,143" id="3" fill="rgb(253,200,88)" fill-opacity="0.501961" />
<polygon points="0,13 139,15 39,48" id="4" fill="rgb(161,148,177)" fill-opacity="0.501961" />
<polygon points="103,56 154,143 115,143" id="5" fill="rgb(0,15,67)" fill-opacity="0.501961" />
<polygon points="3,29 56,138 115,32" id="6" fill="rgb(61,46,78)" fill-opacity="0.501961" />
<polygon points="110,133 95,108 39,143" id="7" fill="rgb(215,165,53)" fill-opacity="0.501961" />
<polygon points="163,0 253,0 195,60" id="8" fill="rgb(186,123,72)" fill-opacity="0.501961" />
<polygon points="193,137 256,87 148,62" id="9" fill="rgb(37,11,0)" fill-opacity="0.501961" />
<polygon points="111,11 67,26 100,31" id="10" fill="rgb(221,244,255)" fill-opacity="0.501961" />
<polygon points="163,57 100,77 143,0" id="11" fill="rgb(231,194,118)" fill-opacity="0.501961" />
<polygon points="45,106 76,86 39,39" id="12" fill="rgb(148,126,147)" fill-opacity="0.501961" />
<polygon points="21,60 10,83 32,109" id="13" fill="rgb(255,175,98)" fill-opacity="0.501961" />
<polygon points="256,98 256,143 178,143" id="14" fill="rgb(176,124,44)" fill-opacity="0.501961" />
<polygon points="56,130 37,113 94,106" id="15" fill="rgb(0,0,0)" fill-opacity="0.501961" />
<polygon points="134,78 232,9 165,6" id="16" fill="rgb(134,81,40)" fill-opacity="0.501961" />
<polygon points="256,51 146,61 256,108" id="17" fill="rgb(81,47,31)" fill-opacity="0.501961" />
<polygon points="152,136 69,92 167,87" id="18" fill="rgb(42,69,112)" fill-opacity="0.501961" />
<polygon points="169,109 146,143 211,143" id="19" fill="rgb(164,92,19)" fill-opacity="0.501961" />
<polygon points="0,0 85,48 70,0" id="20" fill="rgb(119,55,43)" fill-opacity="0.501961" />
<polygon points="9,11 19,33 37,29" id="21" fill="rgb(224,248,255)" fill-opacity="0.501961" />
<polygon points="93,52 81,112 106,77" id="22" fill="rgb(181,144,101)" fill-opacity="0.501961" />
<polygon points="192,49 214,60 202,34" id="23" fill="rgb(225,224,200)" fill-opacity="0.501961" />
<polygon points="21,143 101,143 117,111" id="24" fill="rgb(173,117,51)" fill-opacity="0.501961" />
<polygon points="129,103 132,72 123,87" id="25" fill="rgb(255,255,255)" fill-opacity="0.501961" />
<polygon points="0,0 21,143 0,143" id="26" fill="rgb(161,82,12)" fill-opacity="0.501961" />
<polygon points="141,0 108,33 117,0" id="27" fill="rgb(127,81,21)" fill-opacity="0.501961" />
<polygon points="140,84 150,25 161,46" id="28" fill="rgb(216,189,75)" fill-opacity="0.501961" />
<polygon points="172,132 137,68 130,109" id="29" fill="rgb(17,37,76)" fill-opacity="0.501961" />
<polygon points="70,95 69,87 46,91" id="30" fill="rgb(201,221,236)" fill-opacity="0.501961" />
<polygon points="44,96 32,113 107,94" id="31" fill="rgb(21,27,54)" fill-opacity="0.501961" />
<polygon points="150,133 112,127 119,163" id="32" fill="rgb(14,0,0)" fill-opacity="0.501961" />
<polygon points="138,24 115,65 168,4" id="33" fill="rgb(252,237,192)" fill-opacity="0.501961" />
<polygon points="256,100 256,0 237,0" id="34" fill="rgb(137,62,6)" fill-opacity="0.501961" />
<polygon points="150,66 139,53 106,21" id="35" fill="rgb(40,1,0)" fill-opacity="0.501961" />
<polygon points="112,22 76,54 100,56" id="36" fill="rgb(23,15,15)" fill-opacity="0.501961" />
<polygon points="11,72 10,41 35,33" id="37" fill="rgb(60,24,1)" fill-opacity="0.501961" />
</svg>