<?xml version="1.0" standalone="no"?>
<svg xmlns="http://www.w3.org/2000/svg" version="1.2" baseProfile="tiny" width="256" height="144" viewBox="0 0 256 144">
<rect x="0" y="0" width="256" height="144" id="0" fill="rgb(83,74,76)" fill-opacity="1" />
<polygon points="154,0 11,0 158,105" id="1" fill="rgb(255,189,156)" fill-opacity="0.501961" />
<polygon points="118,143 254,0 256,144" id="2" fill="rgb(0,12,26)" fill-opacity="0.501961" />
<polygon points="0,76 140,142 0,144" id="3" fill="rgb(0,0,0)" fill-opacity="0.501961" />
<polygon points="3,42 139,30 125,-18" id="4" fill="rgb(255,215,161)" fill-opacity="0.501961" />
<polygon points="24,86 23,0 229,91" id="5" fill="rgb(124,104,110)" fill-opacity="0.501961" />
<polygon points="71,11 95,27 120,0" id="6" fill="rgb(255,255,253)" fill-opacity="0.501961" />
<polygon points="256,0 255,81 173,19" id="7" fill="rgb(5,18,40)" fill-opacity="0.501961" />
<polygon points="256,144 197,91 155,122" id="8" fill="rgb(0,0,0)" fill-opacity="0.501961" />
<polygon points="95,24 132,87 167,27" id="9" fill="rgb(228,105,87)" fill-opacity="0.501961" />
<polygon points="104,62 27,144 203,139" id="10" fill="rgb(46,66,74)" fill-opacity="0.501961" />
<polygon points="239,70 139,116 149,0" id="11" fill="rgb(107,79,90)" fill-opacity="0.501961" />
<polygon points="60,44 63,28 23,27" id="12" fill="rgb(255,226,180)" fill-opacity="0.501961" />
<polygon points="0,54 44,0 0,0" id="13" fill="rgb(52,40,61)" fill-opacity="0.501961" />
<polygon points="7,144 53,113 0,84" id="14" fill="rgb(0,0,0)" fill-opacity="0.501961" />
<polygon points="256,118 256,127 225,120" id="15" fill="rgb(182,179,179)" fill-opacity="0.501961" />
<polygon points="122,53 53,124 3,29" id="16" fill="rgb(87,105,110)" fill-opacity="0.501961" />
<polygon points="148,144 206,63 181,60" id="17" fill="rgb(20,30,39)" fill-opacity="0.501961" />
<polygon points="41,144 34,144 78,92" id="18" fill="rgb(152,162,157)" fill-opacity="0.501961" />
<polygon points="137,94 177,79 109,36" id="19" fill="rgb(208,116,101)" fill-opacity="0.501961" />
<polygon points="80,0 125,0 101,29" id="20" fill="rgb(255,255,173)" fill-opacity="0.501961" />
<polygon points="173,120 256,144 256,126" id="21" fill="rgb(0,0,0)" fill-opacity="0.501961" />
<polygon points="62,64 39,0 104,31" id="22" fill="rgb(168,129,130)" fill-opacity="0.501961" />
<polygon points="80,52 91,109 99,50" id="23" fill="rgb(138,151,153)" fill-opacity="0.501961" />
<polygon points="42,108 123,144 57,131" id="24" fill="rgb(1,4,8)" fill-opacity="0.501961" />
<polygon points="120,60 114,0 141,0" id="25" fill="rgb(255,157,104)" fill-opacity="0.501961" />
</svg>