<?xml version="1.0" standalone="no"?>
<svg xmlns="http://www.w3.org/2000/svg" version="1.2" baseProfile="tiny" width="256" height="198" viewBox="0 0 256 198">
<rect x="0" y="0" width="256" height="198" id="0" fill="rgb(83,69,65)" fill-opacity="1" />
<polygon points="100,141 0,198 256,197" id="1" fill="rgb(255,255,231)" fill-opacity="0.501961" />
<polygon points="256,156 13,166 256,196" id="2" fill="rgb(255,255,222)" fill-opacity="0.501961" />
<polygon points="196,158 184,0 10,0" id="3" fill="rgb(0,0,0)" fill-opacity="0.501961" />
<polygon points="0,198 0,148 70,158" id="4" fill="rgb(255,252,216)" fill-opacity="0.501961" />
<polygon points="0,39 253,159 0,149" id="5" fill="rgb(0,0,11)" fill-opacity="0.501961" />
<polygon points="256,44 185,57 189,8" id="6" fill="rgb(255,222,186)" fill-opacity="0.501961" />
<polygon points="141,198 234,182 163,166" id="7" fill="rgb(255,22,0)" fill-opacity="0.501961" />
<polygon points="149,86 87,96 118,68" id="8" fill="rgb(255,224,186)" fill-opacity="0.501961" />
<polygon points="256,160 168,159 256,196" id="9" fill="rgb(255,255,255)" fill-opacity="0.501961" />
<polygon points="109,144 154,197 48,198" id="10" fill="rgb(255,255,212)" fill-opacity="0.501961" />
<polygon points="48,65 72,26 28,38" id="11" fill="rgb(255,226,162)" fill-opacity="0.501961" />
<polygon points="126,0 0,0 0,49" id="12" fill="rgb(0,0,0)" fill-opacity="0.501961" />
<polygon points="216,158 232,20 277,107" id="13" fill="rgb(0,0,20)" fill-opacity="0.501961" />
<polygon points="256,122 91,59 149,0" id="14" fill="rgb(0,0,1)" fill-opacity="0.501961" />
<polygon points="216,0 181,25 218,68" id="15" fill="rgb(255,203,168)" fill-opacity="0.501961" />
<polygon points="256,39 210,0 256,0" id="16" fill="rgb(0,0,0)" fill-opacity="0.501961" />
<polygon points="0,186 17,147 122,198" id="17" fill="rgb(255,160,99)" fill-opacity="0.501961" />
<polygon points="122,110 97,119 56,112" id="18" fill="rgb(229,221,206)" fill-opacity="0.501961" />
<polygon points="211,0 53,0 146,40" id="19" fill="rgb(0,0,0)" fill-opacity="0.501961" />
<polygon points="209,136 228,107 192,119" id="20" fill="rgb(255,198,163)" fill-opacity="0.501961" />
<polygon points="84,18 150,38 147,41" id="21" fill="rgb(255,255,255)" fill-opacity="0.501961" />
<polygon points="0,198 24,198 0,159" id="22" fill="rgb(255,255,255)" fill-opacity="0.501961" />
<polygon points="218,170 202,194 141,178" id="23" fill="rgb(227,63,0)" fill-opacity="0.501961" />
<polygon points="256,152 256,132 5,135" id="24" fill="rgb(0,0,0)" fill-opacity="0.501961" />
<polygon points="0,87 45,163 126,38" id="25" fill="rgb(6,17,45)" fill-opacity="0.501961" />
<polygon points="66,181 86,148 177,169" id="26" fill="rgb(255,240,235)" fill-opacity="0.501961" />
<polygon points="93,145 124,87 191,122" id="27" fill="rgb(0,0,0)" fill-opacity="0.501961" />
<polygon points="237,39 256,37 256,48" id="28" fill="rgb(255,255,255)" fill-opacity="0.501961" />
<polygon points="26,198 178,191 235,198" id="29" fill="rgb(255,255,255)" fill-opacity="0.501961" />
<polygon points="33,40 72,32 62,63" id="30" fill="rgb(255,169,128)" fill-opacity="0.501961" />
</svg>