<?xml version="1.0" standalone="no"?>
<svg xmlns="http://www.w3.org/2000/svg" version="1.2" baseProfile="tiny" width="256" height="217" viewBox="0 0 256 217">
<rect x="0" y="0" width="256" height="217" id="0" fill="rgb(34,37,40)" fill-opacity="1" />
<polygon points="231,111 155,38 62,16" id="1" fill="rgb(255,255,234)" fill-opacity="0.501961" />
<polygon points="256,208 202,244 143,203" id="2" fill="rgb(255,255,255)" fill-opacity="0.501961" />
<polygon points="180,89 191,124 256,94" id="3" fill="rgb(254,219,205)" fill-opacity="0.501961" />
<polygon points="89,47 115,34 64,9" id="4" fill="rgb(229,251,255)" fill-opacity="0.501961" />
<polygon points="256,177 225,217 186,52" id="5" fill="rgb(6,0,0)" fill-opacity="0.501961" />
<polygon points="183,76 115,44 138,217" id="6" fill="rgb(0,0,0)" fill-opacity="0.501961" />
<polygon points="0,217 2,135 251,189" id="7" fill="rgb(0,0,12)" fill-opacity="0.501961" />
<polygon points="203,116 197,135 166,36" id="8" fill="rgb(223,255,255)" fill-opacity="0.501961" />
<polygon points="148,197 143,243 199,211" id="9" fill="rgb(243,255,255)" fill-opacity="0.501961" />
<polygon points="256,87 83,0 256,0" id="10" fill="rgb(0,2,1)" fill-opacity="0.501961" />
<polygon points="256,90 230,89 256,112" id="11" fill="rgb(255,255,255)" fill-opacity="0.501961" />
<polygon points="77,86 48,73 49,86" id="12" fill="rgb(224,237,255)" fill-opacity="0.501961" />
<polygon points="127,21 121,33 169,78" id="13" fill="rgb(205,255,255)" fill-opacity="0.501961" />
<polygon points="251,194 256,217 242,217" id="14" fill="rgb(255,255,255)" fill-opacity="0.501961" />
<polygon points="55,31 42,43 59,46" id="15" fill="rgb(255,255,255)" fill-opacity="0.501961" />
<polygon points="0,60 44,70 34,60" id="16" fill="rgb(244,254,240)" fill-opacity="0.501961" />
<polygon points="0,25 54,81 34,0" id="17" fill="rgb(0,0,0)" fill-opacity="0.501961" />
<polygon points="136,102 94,217 251,172" id="18" fill="rgb(0,4,10)" fill-opacity="0.501961" />
<polygon points="105,109 92,54 17,38" id="19" fill="rgb(0,0,0)" fill-opacity="0.501961" />
<polygon points="96,143 79,148 31,138" id="20" fill="rgb(132,146,191)" fill-opacity="0.501961" />
<polygon points="166,64 152,46 157,86" id="21" fill="rgb(164,216,227)" fill-opacity="0.501961" />
<polygon points="53,34 64,46 64,5" id="22" fill="rgb(209,37,30)" fill-opacity="0.501961" />
<polygon points="104,114 119,110 121,124" id="23" fill="rgb(235,207,228)" fill-opacity="0.501961" />
</svg>