<?xml version="1.0" standalone="no"?>
<svg xmlns="http://www.w3.org/2000/svg" version="1.2" baseProfile="tiny" width="256" height="144" viewBox="0 0 256 144">
<rect x="0" y="0" width="256" height="144" id="0" fill="rgb(29,33,31)" fill-opacity="1" />
<polygon points="132,0 169,133 72,123" id="1" fill="rgb(103,115,79)" fill-opacity="0.501961" />
<polygon points="165,64 118,93 128,136" id="2" fill="rgb(213,162,0)" fill-opacity="0.501961" />
<polygon points="256,143 129,144 206,0" id="3" fill="rgb(0,0,0)" fill-opacity="0.501961" />
<polygon points="61,116 128,144 101,42" id="4" fill="rgb(5,81,125)" fill-opacity="0.501961" />
<polygon points="56,63 60,0 36,0" id="5" fill="rgb(121,124,132)" fill-opacity="0.501961" />
<polygon points="171,0 160,91 149,0" id="6" fill="rgb(110,109,96)" fill-opacity="0.501961" />
<polygon points="194,144 192,96 170,109" id="7" fill="rgb(134,104,92)" fill-opacity="0.501961" />
<polygon points="256,144 251,38 151,61" id="8" fill="rgb(0,0,0)" fill-opacity="0.501961" />
<polygon points="162,31 143,80 8,144" id="9" fill="rgb(46,28,27)" fill-opacity="0.501961" />
<polygon points="109,144 0,144 29,82" id="10" fill="rgb(0,0,6)" fill-opacity="0.501961" />
<polygon points="133,58 142,9 109,27" id="11" fill="rgb(151,113,81)" fill-opacity="0.501961" />
<polygon points="148,34 57,59 105,61" id="12" fill="rgb(6,0,0)" fill-opacity="0.501961" />
<polygon points="168,113 169,8 241,0" id="13" fill="rgb(0,0,0)" fill-opacity="0.501961" />
<polygon points="29,58 61,23 66,144" id="14" fill="rgb(58,59,67)" fill-opacity="0.501961" />
<polygon points="115,55 104,78 74,77" id="15" fill="rgb(0,132,173)" fill-opacity="0.501961" />
<polygon points="121,134 83,130 116,97" id="16" fill="rgb(0,120,171)" fill-opacity="0.501961" />
<polygon points="45,29 0,81 14,0" id="17" fill="rgb(0,0,1)" fill-opacity="0.501961" />
<polygon points="142,128 131,68 159,134" id="18" fill="rgb(8,5,10)" fill-opacity="0.501961" />
<polygon points="84,86 93,107 110,74" id="19" fill="rgb(141,78,66)" fill-opacity="0.501961" />
<polygon points="136,132 154,144 59,144" id="20" fill="rgb(0,0,0)" fill-opacity="0.501961" />
<polygon points="141,128 133,87 125,132" id="21" fill="rgb(215,168,16)" fill-opacity="0.501961" />
<polygon points="256,39 224,16 234,34" id="22" fill="rgb(111,119,128)" fill-opacity="0.501961" />
<polygon points="157,144 167,144 154,45" id="23" fill="rgb(66,73,89)" fill-opacity="0.501961" />
<polygon points="64,13 0,90 44,66" id="24" fill="rgb(70,70,76)" fill-opacity="0.501961" />
<polygon points="254,48 254,144 183,144" id="25" fill="rgb(0,0,0)" fill-opacity="0.501961" />
<polygon points="192,120 177,116 183,135" id="26" fill="rgb(147,138,119)" fill-opacity="0.501961" />
<polygon points="167,0 256,32 239,0" id="27" fill="rgb(0,0,5)" fill-opacity="0.501961" />
</svg>