<?xml version="1.0" standalone="no"?>
<svg xmlns="http://www.w3.org/2000/svg" version="1.2" baseProfile="tiny" width="256" height="191" viewBox="0 0 256 191">
<rect x="0" y="0" width="256" height="191" id="0" fill="rgb(117,143,161)" fill-opacity="1" />
<polygon points="0,191 114,41 256,110" id="1" fill="rgb(255,255,255)" fill-opacity="0.501961" />
<polygon points="0,0 171,0 0,168" id="2" fill="rgb(0,0,58)" fill-opacity="0.501961" />
<polygon points="48,191 256,107 256,191" id="3" fill="rgb(0,0,71)" fill-opacity="0.501961" />
<polygon points="182,0 171,161 -8,178" id="4" fill="rgb(255,255,242)" fill-opacity="0.501961" />
<polygon points="124,41 247,0 256,113" id="5" fill="rgb(132,222,202)" fill-opacity="0.501961" />
<polygon points="114,62 49,124 80,46" id="6" fill="rgb(152,232,241)" fill-opacity="0.501961" />
<polygon points="145,177 81,176 196,130" id="7" fill="rgb(41,175,249)" fill-opacity="0.501961" />
<polygon points="256,191 119,190 256,107" id="8" fill="rgb(11,24,75)" fill-opacity="0.501961" />
<polygon points="193,131 32,191 144,48" id="9" fill="rgb(255,253,227)" fill-opacity="0.501961" />
<polygon points="52,39 61,81 87,71" id="10" fill="rgb(0,0,0)" fill-opacity="0.501961" />
<polygon points="43,71 86,91 61,100" id="11" fill="rgb(152,249,255)" fill-opacity="0.501961" />
<polygon points="0,93 148,0 0,0" id="12" fill="rgb(16,33,87)" fill-opacity="0.501961" />
<polygon points="52,186 0,191 0,169" id="13" fill="rgb(255,255,255)" fill-opacity="0.501961" />
<polygon points="120,52 240,0 171,0" id="14" fill="rgb(150,235,216)" fill-opacity="0.501961" />
<polygon points="75,175 0,170 52,118" id="15" fill="rgb(151,228,214)" fill-opacity="0.501961" />
<polygon points="89,172 142,191 36,191" id="16" fill="rgb(2,26,90)" fill-opacity="0.501961" />
<polygon points="116,54 54,49 99,67" id="17" fill="rgb(112,219,255)" fill-opacity="0.501961" />
<polygon points="0,169 0,0 53,116" id="18" fill="rgb(18,33,90)" fill-opacity="0.501961" />
<polygon points="256,58 256,0 218,0" id="19" fill="rgb(35,186,168)" fill-opacity="0.501961" />
<polygon points="228,54 174,0 188,136" id="20" fill="rgb(155,205,198)" fill-opacity="0.501961" />
<polygon points="46,0 168,0 120,50" id="21" fill="rgb(22,34,88)" fill-opacity="0.501961" />
</svg>