<?xml version="1.0" standalone="no"?>
<svg xmlns="http://www.w3.org/2000/svg" version="1.2" baseProfile="tiny" width="256" height="144" viewBox="0 0 256 144">
<rect x="0" y="0" width="256" height="144" id="0" fill="rgb(90,107,129)" fill-opacity="1" />
<polygon points="166,144 58,144 105,86" id="1" fill="rgb(0,0,0)" fill-opacity="0.501961" />
<polygon points="48,27 22,144 116,83" id="2" fill="rgb(243,142,71)" fill-opacity="0.501961" />
<polygon points="146,30 238,89 186,131" id="3" fill="rgb(255,177,107)" fill-opacity="0.501961" />
<polygon points="0,144 58,0 0,0" id="4" fill="rgb(10,151,255)" fill-opacity="0.501961" />
<polygon points="111,0 40,17 118,84" id="5" fill="rgb(27,0,0)" fill-opacity="0.501961" />
<polygon points="232,92 283,151 180,144" id="6" fill="rgb(0,0,0)" fill-opacity="0.501961" />
<polygon points="131,104 181,0 106,0" id="7" fill="rgb(13,146,255)" fill-opacity="0.501961" />
<polygon points="256,0 256,117 215,0" id="8" fill="rgb(12,140,255)" fill-opacity="0.501961" />
<polygon points="116,73 59,137 75,102" id="9" fill="rgb(255,255,255)" fill-opacity="0.501961" />
<polygon points="220,18 232,93 154,31" id="10" fill="rgb(183,103,36)" fill-opacity="0.501961" />
<polygon points="106,77 141,46 174,144" id="11" fill="rgb(35,145,253)" fill-opacity="0.501961" />
<polygon points="233,90 187,133 201,93" id="12" fill="rgb(255,255,255)" fill-opacity="0.501961" />
<polygon points="53,0 212,0 256,25" id="13" fill="rgb(35,134,236)" fill-opacity="0.501961" />
<polygon points="44,95 37,46 0,144" id="14" fill="rgb(121,178,227)" fill-opacity="0.501961" />
<polygon points="49,144 44,47 99,46" id="15" fill="rgb(171,101,61)" fill-opacity="0.501961" />
<polygon points="160,31 220,96 149,89" id="16" fill="rgb(211,135,89)" fill-opacity="0.501961" />
<polygon points="142,98 166,165 186,117" id="17" fill="rgb(35,143,249)" fill-opacity="0.501961" />
<polygon points="73,35 119,62 116,26" id="18" fill="rgb(0,0,0)" fill-opacity="0.501961" />
<polygon points="73,117 16,87 26,163" id="19" fill="rgb(197,153,128)" fill-opacity="0.501961" />
<polygon points="256,116 232,86 245,22" id="20" fill="rgb(34,133,236)" fill-opacity="0.501961" />
<polygon points="186,119 217,90 156,96" id="21" fill="rgb(173,90,47)" fill-opacity="0.501961" />
<polygon points="207,33 210,85 237,60" id="22" fill="rgb(73,45,25)" fill-opacity="0.501961" />
<polygon points="236,48 174,20 214,15" id="23" fill="rgb(203,154,104)" fill-opacity="0.501961" />
<polygon points="24,139 0,144 0,44" id="24" fill="rgb(42,138,232)" fill-opacity="0.501961" />
<polygon points="255,143 176,144 181,126" id="25" fill="rgb(38,19,11)" fill-opacity="0.501961" />
<polygon points="75,57 50,9 90,3" id="26" fill="rgb(60,42,15)" fill-opacity="0.501961" />
<polygon points="147,121 58,144 110,85" id="27" fill="rgb(35,28,26)" fill-opacity="0.501961" />
<polygon points="180,17 160,34 159,94" id="28" fill="rgb(204,171,141)" fill-opacity="0.501961" />
<polygon points="256,136 184,144 222,98" id="29" fill="rgb(30,26,20)" fill-opacity="0.501961" />
</svg>