<?xml version="1.0" standalone="no"?>
<svg xmlns="http://www.w3.org/2000/svg" version="1.2" baseProfile="tiny" width="256" height="169" viewBox="0 0 256 169">
<rect x="0" y="0" width="256" height="169" id="0" fill="rgb(113,93,91)" fill-opacity="1" />
<polygon points="237,107 193,0 249,96" id="1" fill="rgb(180,157,167)" fill-opacity="0.501961" />
<polygon points="105,56 256,2 118,24" id="2" fill="rgb(144,123,135)" fill-opacity="0.501961" />
<polygon points="0,80 65,0 0,16" id="3" fill="rgb(69,60,59)" fill-opacity="0.501961" />
<polygon points="165,46 0,69 161,69" id="4" fill="rgb(79,61,53)" fill-opacity="0.501961" />
<polygon points="153,62 232,138 231,108" id="5" fill="rgb(154,138,146)" fill-opacity="0.501961" />
<polygon points="121,98 106,89 122,67" id="6" fill="rgb(33,23,2)" fill-opacity="0.501961" />
<polygon points="3,105 12,125 32,112" id="7" fill="rgb(182,172,185)" fill-opacity="0.501961" />
<polygon points="23,92 94,99 93,64" id="8" fill="rgb(155,126,129)" fill-opacity="0.501961" />
<polygon points="228,56 256,24 219,34" id="9" fill="rgb(39,26,35)" fill-opacity="0.501961" />
<polygon points="82,31 189,0 123,0" id="10" fill="rgb(81,54,38)" fill-opacity="0.501961" />
<polygon points="222,37 212,15 223,24" id="11" fill="rgb(234,216,228)" fill-opacity="0.501961" />
<polygon points="122,125 212,124 182,111" id="12" fill="rgb(170,151,124)" fill-opacity="0.501961" />
<polygon points="47,169 34,146 28,164" id="13" fill="rgb(180,174,192)" fill-opacity="0.501961" />
<polygon points="177,0 205,0 199,38" id="14" fill="rgb(164,138,151)" fill-opacity="0.501961" />
<polygon points="0,39 28,94 0,67" id="15" fill="rgb(37,29,37)" fill-opacity="0.501961" />
<polygon points="230,147 227,137 184,169" id="16" fill="rgb(65,54,0)" fill-opacity="0.501961" />
<polygon points="156,115 144,169 147,95" id="17" fill="rgb(66,53,17)" fill-opacity="0.501961" />
<polygon points="234,76 249,97 174,23" id="18" fill="rgb(208,182,185)" fill-opacity="0.501961" />
<polygon points="27,166 43,121 0,118" id="19" fill="rgb(102,79,36)" fill-opacity="0.501961" />
<polygon points="215,44 205,33 181,140" id="20" fill="rgb(83,65,72)" fill-opacity="0.501961" />
<polygon points="82,132 133,116 24,89" id="21" fill="rgb(83,68,60)" fill-opacity="0.501961" />
<polygon points="256,169 233,84 225,90" id="22" fill="rgb(73,54,41)" fill-opacity="0.501961" />
<polygon points="130,43 108,69 76,45" id="23" fill="rgb(138,126,134)" fill-opacity="0.501961" />
<polygon points="65,102 146,141 123,144" id="24" fill="rgb(140,125,137)" fill-opacity="0.501961" />
<polygon points="26,73 0,35 38,115" id="25" fill="rgb(179,135,138)" fill-opacity="0.501961" />
<polygon points="183,37 172,76 170,13" id="26" fill="rgb(98,72,19)" fill-opacity="0.501961" />
<polygon points="107,112 57,18 58,31" id="27" fill="rgb(51,39,24)" fill-opacity="0.501961" />
<polygon points="137,100 134,124 126,101" id="28" fill="rgb(206,175,186)" fill-opacity="0.501961" />
<polygon points="141,55 149,19 158,30" id="29" fill="rgb(192,177,185)" fill-opacity="0.501961" />
<polygon points="154,53 165,46 160,72" id="30" fill="rgb(0,0,4)" fill-opacity="0.501961" />
<polygon points="202,81 169,0 199,96" id="31" fill="rgb(154,131,136)" fill-opacity="0.501961" />
<polygon points="41,82 35,58 81,109" id="32" fill="rgb(139,116,28)" fill-opacity="0.501961" />
<polygon points="243,117 265,91 242,159" id="33" fill="rgb(164,138,143)" fill-opacity="0.501961" />
<polygon points="167,21 170,36 142,14" id="34" fill="rgb(73,44,45)" fill-opacity="0.501961" />
<polygon points="175,53 165,53 162,58" id="35" fill="rgb(255,255,186)" fill-opacity="0.501961" />
<polygon points="119,112 124,141 85,106" id="36" fill="rgb(62,55,59)" fill-opacity="0.501961" />
<polygon points="89,41 121,41 172,25" id="37" fill="rgb(83,61,68)" fill-opacity="0.501961" />
<polygon points="59,1 53,0 73,42" id="38" fill="rgb(185,162,169)" fill-opacity="0.501961" />
<polygon points="188,68 206,117 208,140" id="39" fill="rgb(57,40,17)" fill-opacity="0.501961" />
<polygon points="188,136 215,118 199,148" id="40" fill="rgb(43,38,55)" fill-opacity="0.501961" />
<polygon points="237,55 262,54 245,39" id="41" fill="rgb(166,124,8)" fill-opacity="0.501961" />
<polygon points="77,88 103,113 78,97" id="42" fill="rgb(214,173,177)" fill-opacity="0.501961" />
<polygon points="38,55 0,38 29,42" id="43" fill="rgb(164,145,161)" fill-opacity="0.501961" />
<polygon points="9,32 27,20 26,15" id="44" fill="rgb(222,210,133)" fill-opacity="0.501961" />
<polygon points="10,99 18,79 17,119" id="45" fill="rgb(189,170,170)" fill-opacity="0.501961" />
<polygon points="21,114 12,96 36,65" id="46" fill="rgb(78,52,58)" fill-opacity="0.501961" />
<polygon points="211,164 180,157 132,97" id="47" fill="rgb(148,120,122)" fill-opacity="0.501961" />
<polygon points="68,88 64,80 57,84" id="48" fill="rgb(255,253,255)" fill-opacity="0.501961" />
<polygon points="104,32 108,0 108,20" id="49" fill="rgb(192,189,199)" fill-opacity="0.501961" />
<polygon points="253,76 256,97 235,74" id="50" fill="rgb(46,36,47)" fill-opacity="0.501961" />
<polygon points="88,47 35,35 60,56" id="51" fill="rgb(176,130,91)" fill-opacity="0.501961" />
<polygon points="58,6 56,169 51,28" id="52" fill="rgb(84,71,94)" fill-opacity="0.501961" />
<polygon points="230,70 225,72 205,30" id="53" fill="rgb(72,53,57)" fill-opacity="0.501961" />
<polygon points="176,148 195,168 135,132" id="54" fill="rgb(53,36,49)" fill-opacity="0.501961" />
<polygon points="231,100 160,126 166,116" id="55" fill="rgb(168,154,162)" fill-opacity="0.501961" />
<polygon points="148,35 132,28 130,19" id="56" fill="rgb(225,208,215)" fill-opacity="0.501961" />
<polygon points="0,104 34,58 1,84" id="57" fill="rgb(67,48,55)" fill-opacity="0.501961" />
<polygon points="256,93 237,94 241,103" id="58" fill="rgb(208,203,219)" fill-opacity="0.501961" />
<polygon points="119,90 107,49 131,83" id="59" fill="rgb(75,62,27)" fill-opacity="0.501961" />
<polygon points="72,129 48,117 93,150" id="60" fill="rgb(188,167,176)" fill-opacity="0.501961" />
<polygon points="244,71 245,64 233,64" id="61" fill="rgb(221,214,224)" fill-opacity="0.501961" />
<polygon points="43,134 72,137 93,149" id="62" fill="rgb(38,29,36)" fill-opacity="0.501961" />
<polygon points="52,100 12,150 51,131" id="63" fill="rgb(151,131,91)" fill-opacity="0.501961" />
<polygon points="184,21 175,13 178,21" id="64" fill="rgb(255,255,255)" fill-opacity="0.501961" />
<polygon points="11,55 7,16 0,18" id="65" fill="rgb(26,20,33)" fill-opacity="0.501961" />
<polygon points="77,34 81,27 69,33" id="66" fill="rgb(224,212,231)" fill-opacity="0.501961" />
<polygon points="105,159 93,162 131,130" id="67" fill="rgb(189,164,162)" fill-opacity="0.501961" />
<polygon points="68,150 91,164 55,132" id="68" fill="rgb(190,174,175)" fill-opacity="0.501961" />
<polygon points="242,129 229,137 261,137" id="69" fill="rgb(48,35,50)" fill-opacity="0.501961" />
<polygon points="194,67 159,75 165,76" id="70" fill="rgb(196,190,213)" fill-opacity="0.501961" />
<polygon points="234,11 227,28 225,11" id="71" fill="rgb(180,149,0)" fill-opacity="0.501961" />
<polygon points="71,78 74,128 61,108" id="72" fill="rgb(76,52,37)" fill-opacity="0.501961" />
<polygon points="64,107 58,89 17,64" id="73" fill="rgb(163,139,131)" fill-opacity="0.501961" />
<polygon points="17,46 9,0 41,108" id="74" fill="rgb(61,49,50)" fill-opacity="0.501961" />
<polygon points="67,141 0,127 0,137" id="75" fill="rgb(63,51,51)" fill-opacity="0.501961" />
<polygon points="158,14 201,43 185,44" id="76" fill="rgb(163,117,104)" fill-opacity="0.501961" />
<polygon points="22,93 32,105 53,155" id="77" fill="rgb(42,28,20)" fill-opacity="0.501961" />
<polygon points="175,25 179,33 208,17" id="78" fill="rgb(67,56,57)" fill-opacity="0.501961" />
<polygon points="78,85 60,50 92,99" id="79" fill="rgb(54,38,45)" fill-opacity="0.501961" />
<polygon points="72,61 96,95 74,74" id="80" fill="rgb(201,188,189)" fill-opacity="0.501961" />
<polygon points="77,158 44,165 113,169" id="81" fill="rgb(65,43,50)" fill-opacity="0.501961" />
<polygon points="86,50 98,81 99,66" id="82" fill="rgb(10,5,14)" fill-opacity="0.501961" />
<polygon points="211,23 232,101 218,62" id="83" fill="rgb(200,171,168)" fill-opacity="0.501961" />
<polygon points="256,104 229,124 211,108" id="84" fill="rgb(91,78,47)" fill-opacity="0.501961" />
<polygon points="155,63 87,28 148,49" id="85" fill="rgb(152,123,130)" fill-opacity="0.501961" />
<polygon points="141,46 152,78 127,58" id="86" fill="rgb(59,46,55)" fill-opacity="0.501961" />
<polygon points="140,160 133,169 146,169" id="87" fill="rgb(232,170,171)" fill-opacity="0.501961" />
<polygon points="149,132 136,126 115,135" id="88" fill="rgb(48,37,32)" fill-opacity="0.501961" />
<polygon points="124,122 125,133 140,155" id="89" fill="rgb(179,171,177)" fill-opacity="0.501961" />
<polygon points="135,63 119,63 112,80" id="90" fill="rgb(159,127,14)" fill-opacity="0.501961" />
<polygon points="247,19 253,24 242,6" id="91" fill="rgb(254,215,222)" fill-opacity="0.501961" />
<polygon points="92,49 93,23 100,18" id="92" fill="rgb(46,16,25)" fill-opacity="0.501961" />
<polygon points="186,169 188,165 169,161" id="93" fill="rgb(230,198,129)" fill-opacity="0.501961" />
<polygon points="226,128 216,124 232,123" id="94" fill="rgb(255,237,246)" fill-opacity="0.501961" />
<polygon points="155,129 155,119 143,128" id="95" fill="rgb(182,156,0)" fill-opacity="0.501961" />
<polygon points="242,112 256,102 256,90" id="96" fill="rgb(37,29,44)" fill-opacity="0.501961" />
<polygon points="204,59 219,72 221,108" id="97" fill="rgb(67,53,21)" fill-opacity="0.501961" />
<polygon points="72,117 80,133 90,116" id="98" fill="rgb(152,134,23)" fill-opacity="0.501961" />
<polygon points="36,66 36,51 40,52" id="99" fill="rgb(242,244,222)" fill-opacity="0.501961" />
<polygon points="104,104 116,107 111,103" id="100" fill="rgb(255,252,255)" fill-opacity="0.501961" />
<polygon points="27,94 8,80 15,90" id="101" fill="rgb(222,193,189)" fill-opacity="0.501961" />
<polygon points="214,88 203,80 211,92" id="102" fill="rgb(199,201,202)" fill-opacity="0.501961" />
<polygon points="214,112 121,144 213,105" id="103" fill="rgb(92,77,66)" fill-opacity="0.501961" />
<polygon points="193,95 167,124 184,98" id="104" fill="rgb(45,36,47)" fill-opacity="0.501961" />
<polygon points="220,21 201,0 221,33" id="105" fill="rgb(203,192,198)" fill-opacity="0.501961" />
<polygon points="0,32 65,10 60,31" id="106" fill="rgb(77,69,59)" fill-opacity="0.501961" />
<polygon points="83,7 95,26 71,0" id="107" fill="rgb(28,23,35)" fill-opacity="0.501961" />
<polygon points="142,13 123,24 119,35" id="108" fill="rgb(172,181,198)" fill-opacity="0.501961" />
<polygon points="245,147 227,149 246,150" id="109" fill="rgb(237,213,209)" fill-opacity="0.501961" />
<polygon points="171,59 166,54 163,64" id="110" fill="rgb(255,236,40)" fill-opacity="0.501961" />
<polygon points="165,87 178,84 158,75" id="111" fill="rgb(29,20,35)" fill-opacity="0.501961" />
<polygon points="142,36 151,45 99,25" id="112" fill="rgb(57,43,54)" fill-opacity="0.501961" />
<polygon points="101,74 99,73 106,43" id="113" fill="rgb(215,198,190)" fill-opacity="0.501961" />
<polygon points="202,146 216,135 214,145" id="114" fill="rgb(215,187,204)" fill-opacity="0.501961" />
<polygon points="53,121 53,137 44,112" id="115" fill="rgb(31,26,54)" fill-opacity="0.501961" />
<polygon points="193,147 153,134 136,136" id="116" fill="rgb(160,140,156)" fill-opacity="0.501961" />
<polygon points="85,58 86,73 79,49" id="117" fill="rgb(206,179,172)" fill-opacity="0.501961" />
<polygon points="128,84 189,88 126,92" id="118" fill="rgb(152,126,140)" fill-opacity="0.501961" />
<polygon points="98,128 86,141 108,130" id="119" fill="rgb(176,174,191)" fill-opacity="0.501961" />
<polygon points="248,141 243,108 253,144" id="120" fill="rgb(196,173,171)" fill-opacity="0.501961" />
<polygon points="111,58 127,44 72,71" id="121" fill="rgb(64,53,58)" fill-opacity="0.501961" />
<polygon points="37,33 45,80 47,52" id="122" fill="rgb(70,36,19)" fill-opacity="0.501961" />
<polygon points="193,73 193,80 157,102" id="123" fill="rgb(76,55,73)" fill-opacity="0.501961" />
<polygon points="124,140 128,168 121,173" id="124" fill="rgb(39,26,46)" fill-opacity="0.501961" />
<polygon points="92,136 104,135 97,153" id="125" fill="rgb(42,37,43)" fill-opacity="0.501961" />
<polygon points="79,20 94,37 79,12" id="126" fill="rgb(214,163,159)" fill-opacity="0.501961" />
<polygon points="101,91 127,100 121,75" id="127" fill="rgb(43,32,44)" fill-opacity="0.501961" />
<polygon points="57,48 42,36 61,61" id="128" fill="rgb(216,155,165)" fill-opacity="0.501961" />
<polygon points="187,36 183,22 155,-18" id="129" fill="rgb(186,166,172)" fill-opacity="0.501961" />
<polygon points="48,148 23,129 62,169" id="130" fill="rgb(164,137,152)" fill-opacity="0.501961" />
<polygon points="9,10 5,19 8,0" id="131" fill="rgb(212,208,221)" fill-opacity="0.501961" />
<polygon points="172,109 169,116 184,33" id="132" fill="rgb(180,168,172)" fill-opacity="0.501961" />
<polygon points="219,50 238,35 172,79" id="133" fill="rgb(65,38,44)" fill-opacity="0.501961" />
<polygon points="40,12 44,16 45,47" id="134" fill="rgb(186,148,148)" fill-opacity="0.501961" />
<polygon points="20,62 15,67 16,57" id="135" fill="rgb(255,231,240)" fill-opacity="0.501961" />
<polygon points="256,29 194,43 256,20" id="136" fill="rgb(75,59,67)" fill-opacity="0.501961" />
<polygon points="43,92 37,111 57,84" id="137" fill="rgb(52,27,44)" fill-opacity="0.501961" />
<polygon points="221,102 226,104 222,85" id="138" fill="rgb(201,178,186)" fill-opacity="0.501961" />
<polygon points="206,121 195,119 203,125" id="139" fill="rgb(255,225,47)" fill-opacity="0.501961" />
<polygon points="171,49 176,39 183,58" id="140" fill="rgb(23,21,35)" fill-opacity="0.501961" />
<polygon points="0,154 8,151 0,147" id="141" fill="rgb(229,199,214)" fill-opacity="0.501961" />
<polygon points="91,32 113,20 82,46" id="142" fill="rgb(182,146,142)" fill-opacity="0.501961" />
<polygon points="53,74 28,75 50,68" id="143" fill="rgb(204,200,97)" fill-opacity="0.501961" />
<polygon points="107,4 108,-19 118,0" id="144" fill="rgb(247,234,234)" fill-opacity="0.501961" />
<polygon points="102,130 82,120 103,123" id="145" fill="rgb(45,33,31)" fill-opacity="0.501961" />
<polygon points="184,98 109,91 159,112" id="146" fill="rgb(86,62,66)" fill-opacity="0.501961" />
<polygon points="256,87 256,61 252,66" id="147" fill="rgb(241,172,180)" fill-opacity="0.501961" />
<polygon points="202,107 209,109 197,89" id="148" fill="rgb(236,220,220)" fill-opacity="0.501961" />
<polygon points="185,135 184,129 149,165" id="149" fill="rgb(68,40,42)" fill-opacity="0.501961" />
</svg>