<?xml version="1.0" standalone="no"?>
<svg xmlns="http://www.w3.org/2000/svg" version="1.2" baseProfile="tiny" width="256" height="146" viewBox="0 0 256 146">
<rect x="0" y="0" width="256" height="146" id="0" fill="rgb(133,151,138)" fill-opacity="1" />
<polygon points="51,11 0,0 256,0" id="1" fill="rgb(255,255,255)" fill-opacity="0.501961" />
<polygon points="256,146 156,127 248,114" id="2" fill="rgb(0,47,64)" fill-opacity="0.501961" />
<polygon points="0,116 143,113 118,61" id="3" fill="rgb(52,94,58)" fill-opacity="0.501961" />
<polygon points="233,146 61,146 191,132" id="4" fill="rgb(255,250,255)" fill-opacity="0.501961" />
<polygon points="256,6 256,0 0,4" id="5" fill="rgb(255,255,255)" fill-opacity="0.501961" />
<polygon points="183,62 156,117 118,65" id="6" fill="rgb(221,221,224)" fill-opacity="0.501961" />
<polygon points="128,146 81,132 140,116" id="7" fill="rgb(27,64,46)" fill-opacity="0.501961" />
<polygon points="1,40 50,6 161,8" id="8" fill="rgb(96,109,93)" fill-opacity="0.501961" />
<polygon points="256,55 161,53 256,110" id="9" fill="rgb(77,104,102)" fill-opacity="0.501961" />
<polygon points="1,142 136,113 0,118" id="10" fill="rgb(216,214,158)" fill-opacity="0.501961" />
<polygon points="171,36 0,87 73,34" id="11" fill="rgb(176,177,192)" fill-opacity="0.501961" />
<polygon points="159,69 256,101 183,102" id="12" fill="rgb(134,155,62)" fill-opacity="0.501961" />
<polygon points="190,107 152,64 142,106" id="13" fill="rgb(214,217,220)" fill-opacity="0.501961" />
<polygon points="108,129 0,144 55,146" id="14" fill="rgb(55,92,39)" fill-opacity="0.501961" />
<polygon points="42,6 41,-21 0,6" id="15" fill="rgb(255,255,255)" fill-opacity="0.501961" />
<polygon points="121,91 138,45 179,54" id="16" fill="rgb(88,112,97)" fill-opacity="0.501961" />
<polygon points="192,56 215,20 256,48" id="17" fill="rgb(185,184,197)" fill-opacity="0.501961" />
<polygon points="104,133 196,133 106,117" id="18" fill="rgb(66,96,75)" fill-opacity="0.501961" />
<polygon points="22,116 0,113 10,76" id="19" fill="rgb(39,80,62)" fill-opacity="0.501961" />
<polygon points="189,62 125,71 228,67" id="20" fill="rgb(221,217,226)" fill-opacity="0.501961" />
<polygon points="116,146 88,136 70,146" id="21" fill="rgb(255,255,234)" fill-opacity="0.501961" />
<polygon points="83,6 256,0 0,0" id="22" fill="rgb(235,255,255)" fill-opacity="0.501961" />
<polygon points="191,115 217,118 92,122" id="23" fill="rgb(40,77,46)" fill-opacity="0.501961" />
<polygon points="97,70 94,89 118,90" id="24" fill="rgb(208,219,105)" fill-opacity="0.501961" />
<polygon points="229,141 256,123 251,149" id="25" fill="rgb(0,31,76)" fill-opacity="0.501961" />
<polygon points="16,61 41,86 0,75" id="26" fill="rgb(224,221,222)" fill-opacity="0.501961" />
<polygon points="256,6 256,0 8,6" id="27" fill="rgb(239,255,255)" fill-opacity="0.501961" />
<polygon points="132,14 256,14 239,21" id="28" fill="rgb(74,100,60)" fill-opacity="0.501961" />
<polygon points="73,49 73,46 42,46" id="29" fill="rgb(0,16,53)" fill-opacity="0.501961" />
<polygon points="214,126 226,110 200,113" id="30" fill="rgb(222,218,216)" fill-opacity="0.501961" />
<polygon points="132,62 97,58 130,53" id="31" fill="rgb(210,241,255)" fill-opacity="0.501961" />
<polygon points="63,64 63,82 57,76" id="32" fill="rgb(255,255,255)" fill-opacity="0.501961" />
<polygon points="18,141 70,124 0,126" id="33" fill="rgb(173,183,66)" fill-opacity="0.501961" />
<polygon points="55,7 0,8 0,41" id="34" fill="rgb(97,115,104)" fill-opacity="0.501961" />
<polygon points="216,79 256,78 239,74" id="35" fill="rgb(248,227,236)" fill-opacity="0.501961" />
<polygon points="46,87 69,87 43,73" id="36" fill="rgb(16,61,60)" fill-opacity="0.501961" />
<polygon points="203,76 226,75 202,62" id="37" fill="rgb(20,65,66)" fill-opacity="0.501961" />
<polygon points="248,27 259,58 240,51" id="38" fill="rgb(208,203,211)" fill-opacity="0.501961" />
<polygon points="132,24 113,52 149,27" id="39" fill="rgb(91,109,95)" fill-opacity="0.501961" />
<polygon points="199,75 193,73 156,75" id="40" fill="rgb(255,255,255)" fill-opacity="0.501961" />
<polygon points="8,53 22,59 -12,82" id="41" fill="rgb(64,99,66)" fill-opacity="0.501961" />
<polygon points="44,94 11,103 51,95" id="42" fill="rgb(255,239,197)" fill-opacity="0.501961" />
<polygon points="126,113 246,112 116,117" id="43" fill="rgb(213,212,232)" fill-opacity="0.501961" />
<polygon points="228,143 134,146 132,135" id="44" fill="rgb(235,226,233)" fill-opacity="0.501961" />
<polygon points="104,66 97,49 90,72" id="45" fill="rgb(39,72,97)" fill-opacity="0.501961" />
<polygon points="198,135 243,107 226,142" id="46" fill="rgb(40,85,113)" fill-opacity="0.501961" />
<polygon points="39,83 64,20 56,64" id="47" fill="rgb(185,187,190)" fill-opacity="0.501961" />
<polygon points="201,111 185,100 157,69" id="48" fill="rgb(1,52,91)" fill-opacity="0.501961" />
<polygon points="1,6 0,0 256,0" id="49" fill="rgb(226,248,255)" fill-opacity="0.501961" />
<polygon points="169,48 140,28 210,55" id="50" fill="rgb(188,195,213)" fill-opacity="0.501961" />
<polygon points="95,125 133,146 117,114" id="51" fill="rgb(67,100,86)" fill-opacity="0.501961" />
<polygon points="225,59 216,31 256,71" id="52" fill="rgb(66,99,111)" fill-opacity="0.501961" />
</svg>