<?xml version="1.0" standalone="no"?>
<svg xmlns="http://www.w3.org/2000/svg" version="1.2" baseProfile="tiny" width="256" height="170" viewBox="0 0 256 170">
<rect x="0" y="0" width="256" height="170" id="0" fill="rgb(107,112,112)" fill-opacity="1" />
<polygon points="17,101 212,51 30,170" id="1" fill="rgb(236,228,228)" fill-opacity="0.501961" />
<polygon points="256,91 135,0 204,0" id="2" fill="rgb(0,0,0)" fill-opacity="0.501961" />
<polygon points="58,11 156,9 158,90" id="3" fill="rgb(224,241,240)" fill-opacity="0.501961" />
<polygon points="0,0 0,123 90,51" id="4" fill="rgb(20,7,2)" fill-opacity="0.501961" />
<polygon points="244,35 244,170 173,170" id="5" fill="rgb(0,41,51)" fill-opacity="0.501961" />
<polygon points="90,170 8,117 24,170" id="6" fill="rgb(241,252,255)" fill-opacity="0.501961" />
<polygon points="146,140 160,54 217,55" id="7" fill="rgb(21,162,220)" fill-opacity="0.501961" />
<polygon points="124,49 108,116 34,45" id="8" fill="rgb(71,35,27)" fill-opacity="0.501961" />
<polygon points="78,0 78,41 124,48" id="9" fill="rgb(251,255,255)" fill-opacity="0.501961" />
<polygon points="88,170 113,145 77,130" id="10" fill="rgb(0,0,0)" fill-opacity="0.501961" />
<polygon points="167,134 116,159 71,65" id="11" fill="rgb(207,146,118)" fill-opacity="0.501961" />
<polygon points="164,170 212,170 220,78" id="12" fill="rgb(0,109,171)" fill-opacity="0.501961" />
<polygon points="248,55 234,91 187,0" id="13" fill="rgb(0,0,0)" fill-opacity="0.501961" />
<polygon points="195,85 252,106 194,47" id="14" fill="rgb(197,174,167)" fill-opacity="0.501961" />
</svg>