<?xml version="1.0" standalone="no"?>
<svg xmlns="http://www.w3.org/2000/svg" version="1.2" baseProfile="tiny" width="256" height="170" viewBox="0 0 256 170">
<rect x="0" y="0" width="256" height="170" id="0" fill="rgb(56,56,52)" fill-opacity="1" />
<polygon points="256,59 256,13 95,48" id="1" fill="rgb(198,209,208)" fill-opacity="0.501961" />
<polygon points="256,99 256,170 38,170" id="2" fill="rgb(0,0,0)" fill-opacity="0.501961" />
<polygon points="0,0 223,0 0,49" id="3" fill="rgb(0,0,0)" fill-opacity="0.501961" />
<polygon points="100,26 66,157 148,132" id="4" fill="rgb(149,150,143)" fill-opacity="0.501961" />
<polygon points="39,42 189,10 128,145" id="5" fill="rgb(90,94,74)" fill-opacity="0.501961" />
<polygon points="207,49 213,22 169,33" id="6" fill="rgb(255,237,224)" fill-opacity="0.501961" />
<polygon points="79,130 238,70 7,138" id="7" fill="rgb(5,0,0)" fill-opacity="0.501961" />
<polygon points="84,152 155,106 64,137" id="8" fill="rgb(200,184,195)" fill-opacity="0.501961" />
<polygon points="231,0 0,0 0,46" id="9" fill="rgb(0,0,0)" fill-opacity="0.501961" />
<polygon points="105,65 95,89 127,90" id="10" fill="rgb(255,255,162)" fill-opacity="0.501961" />
<polygon points="256,170 256,101 34,170" id="11" fill="rgb(0,0,0)" fill-opacity="0.501961" />
<polygon points="0,110 57,92 0,104" id="12" fill="rgb(222,230,243)" fill-opacity="0.501961" />
<polygon points="226,92 254,83 256,47" id="13" fill="rgb(171,170,170)" fill-opacity="0.501961" />
<polygon points="253,38 217,22 256,12" id="14" fill="rgb(238,237,230)" fill-opacity="0.501961" />
<polygon points="60,170 0,169 45,143" id="15" fill="rgb(0,0,0)" fill-opacity="0.501961" />
<polygon points="230,36 215,118 256,38" id="16" fill="rgb(51,62,58)" fill-opacity="0.501961" />
<polygon points="6,129 8,135 87,111" id="17" fill="rgb(159,178,190)" fill-opacity="0.501961" />
<polygon points="198,107 166,82 166,0" id="18" fill="rgb(46,8,2)" fill-opacity="0.501961" />
<polygon points="113,138 186,118 72,158" id="19" fill="rgb(179,171,173)" fill-opacity="0.501961" />
<polygon points="145,58 188,20 0,90" id="20" fill="rgb(64,99,105)" fill-opacity="0.501961" />
<polygon points="119,114 142,129 118,136" id="21" fill="rgb(0,7,17)" fill-opacity="0.501961" />
<polygon points="0,72 256,10 0,47" id="22" fill="rgb(100,80,32)" fill-opacity="0.501961" />
<polygon points="170,49 142,68 183,57" id="23" fill="rgb(231,97,74)" fill-opacity="0.501961" />
<polygon points="0,108 0,137 95,88" id="24" fill="rgb(22,75,92)" fill-opacity="0.501961" />
<polygon points="95,149 96,125 60,170" id="25" fill="rgb(81,73,76)" fill-opacity="0.501961" />
<polygon points="65,131 79,141 119,125" id="26" fill="rgb(206,202,213)" fill-opacity="0.501961" />
<polygon points="217,96 200,92 181,105" id="27" fill="rgb(180,185,191)" fill-opacity="0.501961" />
</svg>