<?xml version="1.0" standalone="no"?>
<svg xmlns="http://www.w3.org/2000/svg" version="1.2" baseProfile="tiny" width="256" height="143" viewBox="0 0 256 143">
<rect x="0" y="0" width="256" height="143" id="0" fill="rgb(98,102,102)" fill-opacity="1" />
<polygon points="0,0 256,0 63,57" id="1" fill="rgb(237,250,255)" fill-opacity="0.501961" />
<polygon points="211,36 222,143 0,127" id="2" fill="rgb(0,0,0)" fill-opacity="0.501961" />
<polygon points="178,0 132,143 114,29" id="3" fill="rgb(203,208,183)" fill-opacity="0.501961" />
<polygon points="216,111 8,53 9,107" id="4" fill="rgb(0,3,10)" fill-opacity="0.501961" />
<polygon points="247,1 184,15 243,93" id="5" fill="rgb(198,197,195)" fill-opacity="0.501961" />
<polygon points="35,34 0,0 0,62" id="6" fill="rgb(229,236,250)" fill-opacity="0.501961" />
<polygon points="208,143 256,143 256,102" id="7" fill="rgb(253,246,227)" fill-opacity="0.501961" />
<polygon points="151,54 164,161 241,90" id="8" fill="rgb(0,0,0)" fill-opacity="0.501961" />
<polygon points="62,143 43,14 30,143" id="9" fill="rgb(0,0,6)" fill-opacity="0.501961" />
<polygon points="147,100 121,130 146,143" id="10" fill="rgb(220,220,210)" fill-opacity="0.501961" />
<polygon points="129,143 100,32 76,143" id="11" fill="rgb(25,31,30)" fill-opacity="0.501961" />
<polygon points="59,136 74,141 76,107" id="12" fill="rgb(227,233,221)" fill-opacity="0.501961" />
<polygon points="0,143 32,143 0,107" id="13" fill="rgb(217,215,198)" fill-opacity="0.501961" />
<polygon points="211,0 0,20 162,51" id="14" fill="rgb(174,187,198)" fill-opacity="0.501961" />
<polygon points="213,143 141,143 219,58" id="15" fill="rgb(0,1,1)" fill-opacity="0.501961" />
<polygon points="59,49 81,130 129,54" id="16" fill="rgb(76,89,87)" fill-opacity="0.501961" />
<polygon points="143,91 122,87 126,57" id="17" fill="rgb(255,252,72)" fill-opacity="0.501961" />
<polygon points="256,112 224,110 213,143" id="18" fill="rgb(203,199,183)" fill-opacity="0.501961" />
<polygon points="29,143 26,112 19,117" id="19" fill="rgb(235,237,222)" fill-opacity="0.501961" />
<polygon points="99,39 89,56 124,53" id="20" fill="rgb(8,0,0)" fill-opacity="0.501961" />
<polygon points="189,28 134,97 224,78" id="21" fill="rgb(23,18,17)" fill-opacity="0.501961" />
</svg>