<?xml version="1.0" standalone="no"?>
<svg xmlns="http://www.w3.org/2000/svg" version="1.2" baseProfile="tiny" width="256" height="170" viewBox="0 0 256 170">
<rect x="0" y="0" width="256" height="170" id="0" fill="rgb(134,89,86)" fill-opacity="1" />
<polygon points="256,118 244,0 205,119" id="1" fill="rgb(166,225,255)" fill-opacity="0.501961" />
<polygon points="37,58 33,153 247,123" id="2" fill="rgb(140,0,10)" fill-opacity="0.501961" />
<polygon points="162,24 224,50 174,170" id="3" fill="rgb(159,0,0)" fill-opacity="0.501961" />
<polygon points="38,116 0,0 0,119" id="4" fill="rgb(141,202,245)" fill-opacity="0.501961" />
<polygon points="120,76 96,73 113,170" id="5" fill="rgb(126,241,233)" fill-opacity="0.501961" />
<polygon points="256,0 0,0 256,51" id="6" fill="rgb(129,165,166)" fill-opacity="0.501961" />
<polygon points="0,49 63,60 53,16" id="7" fill="rgb(30,0,3)" fill-opacity="0.501961" />
<polygon points="59,46 216,42 131,68" id="8" fill="rgb(174,0,12)" fill-opacity="0.501961" />
<polygon points="254,170 170,122 256,123" id="9" fill="rgb(105,176,58)" fill-opacity="0.501961" />
<polygon points="0,2 0,31 172,22" id="10" fill="rgb(138,151,154)" fill-opacity="0.501961" />
<polygon points="91,121 93,170 256,170" id="11" fill="rgb(91,120,50)" fill-opacity="0.501961" />
<polygon points="146,19 256,40 244,70" id="12" fill="rgb(85,69,63)" fill-opacity="0.501961" />
<polygon points="110,150 205,141 214,29" id="13" fill="rgb(146,2,20)" fill-opacity="0.501961" />
<polygon points="99,121 96,67 29,113" id="14" fill="rgb(182,0,2)" fill-opacity="0.501961" />
<polygon points="0,115 54,170 0,170" id="15" fill="rgb(73,169,47)" fill-opacity="0.501961" />
<polygon points="99,68 97,41 20,55" id="16" fill="rgb(241,26,66)" fill-opacity="0.501961" />
<polygon points="208,121 256,104 218,40" id="17" fill="rgb(178,197,232)" fill-opacity="0.501961" />
<polygon points="34,117 32,53 0,105" id="18" fill="rgb(186,203,243)" fill-opacity="0.501961" />
<polygon points="105,118 123,161 86,155" id="19" fill="rgb(145,220,120)" fill-opacity="0.501961" />
<polygon points="151,123 164,60 148,55" id="20" fill="rgb(161,194,214)" fill-opacity="0.501961" />
<polygon points="93,0 146,0 105,72" id="21" fill="rgb(158,160,156)" fill-opacity="0.501961" />
<polygon points="186,44 180,11 166,33" id="22" fill="rgb(0,0,0)" fill-opacity="0.501961" />
<polygon points="147,56 117,113 145,170" id="23" fill="rgb(169,0,9)" fill-opacity="0.501961" />
<polygon points="121,42 144,16 135,55" id="24" fill="rgb(0,6,5)" fill-opacity="0.501961" />
<polygon points="165,39 167,0 117,10" id="25" fill="rgb(173,171,167)" fill-opacity="0.501961" />
<polygon points="116,64 77,50 120,94" id="26" fill="rgb(217,200,186)" fill-opacity="0.501961" />
</svg>