<?xml version="1.0" standalone="no"?>
<svg xmlns="http://www.w3.org/2000/svg" version="1.2" baseProfile="tiny" width="256" height="143" viewBox="0 0 256 143">
<rect x="0" y="0" width="256" height="143" id="0" fill="rgb(138,89,72)" fill-opacity="1" />
<polygon points="203,21 256,0 55,0" id="1" fill="rgb(140,255,255)" fill-opacity="0.501961" />
<polygon points="189,143 72,86 168,39" id="2" fill="rgb(33,55,48)" fill-opacity="0.501961" />
<polygon points="0,16 106,17 13,143" id="3" fill="rgb(240,123,81)" fill-opacity="0.501961" />
<polygon points="195,94 256,143 256,5" id="4" fill="rgb(43,33,0)" fill-opacity="0.501961" />
<polygon points="77,0 148,21 256,0" id="5" fill="rgb(150,199,255)" fill-opacity="0.501961" />
<polygon points="103,81 170,77 170,63" id="6" fill="rgb(167,249,255)" fill-opacity="0.501961" />
<polygon points="256,143 0,143 52,92" id="7" fill="rgb(176,57,33)" fill-opacity="0.501961" />
<polygon points="159,110 128,96 161,97" id="8" fill="rgb(234,255,255)" fill-opacity="0.501961" />
<polygon points="130,43 155,48 120,58" id="9" fill="rgb(150,255,255)" fill-opacity="0.501961" />
<polygon points="157,77 195,94 93,95" id="10" fill="rgb(0,0,0)" fill-opacity="0.501961" />
<polygon points="147,6 78,31 92,120" id="11" fill="rgb(109,44,19)" fill-opacity="0.501961" />
<polygon points="137,15 207,42 256,22" id="12" fill="rgb(255,142,99)" fill-opacity="0.501961" />
<polygon points="86,0 0,10 68,16" id="13" fill="rgb(0,62,17)" fill-opacity="0.501961" />
<polygon points="79,17 114,0 85,0" id="14" fill="rgb(178,254,255)" fill-opacity="0.501961" />
<polygon points="66,128 0,116 97,18" id="15" fill="rgb(201,107,75)" fill-opacity="0.501961" />
<polygon points="175,74 186,49 151,47" id="16" fill="rgb(67,0,0)" fill-opacity="0.501961" />
<polygon points="169,142 240,59 180,15" id="17" fill="rgb(177,76,52)" fill-opacity="0.501961" />
<polygon points="256,72 250,143 209,59" id="18" fill="rgb(30,55,15)" fill-opacity="0.501961" />
<polygon points="88,112 50,134 101,138" id="19" fill="rgb(220,142,106)" fill-opacity="0.501961" />
<polygon points="48,0 48,13 0,0" id="20" fill="rgb(81,166,167)" fill-opacity="0.501961" />
<polygon points="207,0 256,25 229,0" id="21" fill="rgb(110,198,255)" fill-opacity="0.501961" />
</svg>