<?xml version="1.0" standalone="no"?>
<svg xmlns="http://www.w3.org/2000/svg" version="1.2" baseProfile="tiny" width="256" height="170" viewBox="0 0 256 170">
<rect x="0" y="0" width="256" height="170" id="0" fill="rgb(111,108,109)" fill-opacity="1" />
<polygon points="29,127 92,156 68,72" id="1" fill="rgb(0,0,0)" fill-opacity="0.501961" />
<polygon points="211,86 214,170 63,170" id="2" fill="rgb(169,168,171)" fill-opacity="0.501961" />
<polygon points="256,107 191,93 252,0" id="3" fill="rgb(28,25,17)" fill-opacity="0.501961" />
<polygon points="190,64 196,6 222,20" id="4" fill="rgb(211,221,255)" fill-opacity="0.501961" />
<polygon points="152,4 162,45 151,71" id="5" fill="rgb(255,255,255)" fill-opacity="0.501961" />
<polygon points="0,50 0,80 91,59" id="6" fill="rgb(0,4,9)" fill-opacity="0.501961" />
<polygon points="89,170 70,119 34,169" id="7" fill="rgb(71,59,43)" fill-opacity="0.501961" />
<polygon points="29,30 163,30 57,58" id="8" fill="rgb(199,185,166)" fill-opacity="0.501961" />
<polygon points="256,0 231,15 256,81" id="9" fill="rgb(8,6,3)" fill-opacity="0.501961" />
<polygon points="43,89 1,94 14,170" id="10" fill="rgb(159,167,189)" fill-opacity="0.501961" />
<polygon points="135,170 72,93 140,60" id="11" fill="rgb(156,152,150)" fill-opacity="0.501961" />
<polygon points="218,130 192,143 198,96" id="12" fill="rgb(201,208,251)" fill-opacity="0.501961" />
<polygon points="103,17 67,29 0,22" id="13" fill="rgb(36,35,22)" fill-opacity="0.501961" />
<polygon points="224,41 201,38 220,15" id="14" fill="rgb(47,52,255)" fill-opacity="0.501961" />
<polygon points="94,47 95,83 120,66" id="15" fill="rgb(41,39,33)" fill-opacity="0.501961" />
<polygon points="192,10 198,66 211,20" id="16" fill="rgb(221,223,255)" fill-opacity="0.501961" />
<polygon points="160,170 199,170 172,0" id="17" fill="rgb(129,118,96)" fill-opacity="0.501961" />
<polygon points="170,43 162,103 150,87" id="18" fill="rgb(26,44,18)" fill-opacity="0.501961" />
<polygon points="256,76 198,41 253,147" id="19" fill="rgb(91,86,80)" fill-opacity="0.501961" />
<polygon points="0,85 64,84 78,39" id="20" fill="rgb(70,74,78)" fill-opacity="0.501961" />
<polygon points="160,124 144,132 160,170" id="21" fill="rgb(208,211,218)" fill-opacity="0.501961" />
<polygon points="11,19 5,36 0,8" id="22" fill="rgb(189,207,226)" fill-opacity="0.501961" />
<polygon points="70,125 76,170 78,136" id="23" fill="rgb(190,167,138)" fill-opacity="0.501961" />
<polygon points="118,52 20,44 3,51" id="24" fill="rgb(184,171,165)" fill-opacity="0.501961" />
<polygon points="50,91 81,76 56,150" id="25" fill="rgb(23,21,23)" fill-opacity="0.501961" />
<polygon points="121,114 146,170 83,170" id="26" fill="rgb(146,153,173)" fill-opacity="0.501961" />
<polygon points="181,106 190,34 195,99" id="27" fill="rgb(80,70,58)" fill-opacity="0.501961" />
<polygon points="197,36 191,71 205,71" id="28" fill="rgb(217,207,182)" fill-opacity="0.501961" />
<polygon points="0,7 98,5 -9,-8" id="29" fill="rgb(39,61,87)" fill-opacity="0.501961" />
<polygon points="217,108 231,4 237,109" id="30" fill="rgb(118,105,94)" fill-opacity="0.501961" />
<polygon points="29,170 0,170 51,68" id="31" fill="rgb(123,127,140)" fill-opacity="0.501961" />
<polygon points="159,96 169,49 163,11" id="32" fill="rgb(15,59,28)" fill-opacity="0.501961" />
<polygon points="33,46 60,35 1,78" id="33" fill="rgb(54,49,45)" fill-opacity="0.501961" />
<polygon points="162,56 150,72 157,0" id="34" fill="rgb(213,227,247)" fill-opacity="0.501961" />
<polygon points="147,163 150,70 144,70" id="35" fill="rgb(78,65,51)" fill-opacity="0.501961" />
<polygon points="0,134 58,87 0,93" id="36" fill="rgb(147,153,170)" fill-opacity="0.501961" />
<polygon points="53,131 103,108 27,135" id="37" fill="rgb(6,0,0)" fill-opacity="0.501961" />
<polygon points="165,9 141,31 139,0" id="38" fill="rgb(70,67,51)" fill-opacity="0.501961" />
<polygon points="224,111 217,141 206,118" id="39" fill="rgb(112,120,214)" fill-opacity="0.501961" />
<polygon points="39,138 0,139 43,170" id="40" fill="rgb(90,88,91)" fill-opacity="0.501961" />
<polygon points="90,68 69,59 112,51" id="41" fill="rgb(39,30,35)" fill-opacity="0.501961" />
<polygon points="45,7 51,0 51,29" id="42" fill="rgb(3,7,10)" fill-opacity="0.501961" />
<polygon points="67,88 70,95 135,86" id="43" fill="rgb(173,157,143)" fill-opacity="0.501961" />
<polygon points="208,23 208,10 228,19" id="44" fill="rgb(49,62,216)" fill-opacity="0.501961" />
<polygon points="94,47 79,54 87,5" id="45" fill="rgb(183,174,161)" fill-opacity="0.501961" />
<polygon points="231,41 192,36 185,44" id="46" fill="rgb(222,205,192)" fill-opacity="0.501961" />
<polygon points="216,84 179,92 256,47" id="47" fill="rgb(41,39,36)" fill-opacity="0.501961" />
<polygon points="87,70 69,68 140,130" id="48" fill="rgb(163,153,144)" fill-opacity="0.501961" />
<polygon points="1,16 101,17 0,8" id="49" fill="rgb(124,145,189)" fill-opacity="0.501961" />
<polygon points="208,123 196,114 210,78" id="50" fill="rgb(174,167,165)" fill-opacity="0.501961" />
<polygon points="142,28 40,42 0,30" id="51" fill="rgb(175,162,146)" fill-opacity="0.501961" />
<polygon points="112,104 90,108 109,118" id="52" fill="rgb(55,48,42)" fill-opacity="0.501961" />
<polygon points="168,85 193,39 169,2" id="53" fill="rgb(144,134,125)" fill-opacity="0.501961" />
<polygon points="111,48 145,101 143,30" id="54" fill="rgb(144,132,113)" fill-opacity="0.501961" />
<polygon points="146,38 149,13 148,63" id="55" fill="rgb(20,12,3)" fill-opacity="0.501961" />
<polygon points="219,23 193,16 199,32" id="56" fill="rgb(218,233,255)" fill-opacity="0.501961" />
<polygon points="52,86 40,119 61,150" id="57" fill="rgb(12,17,22)" fill-opacity="0.501961" />
<polygon points="6,87 39,79 0,38" id="58" fill="rgb(44,44,48)" fill-opacity="0.501961" />
<polygon points="126,96 156,89 170,127" id="59" fill="rgb(101,95,83)" fill-opacity="0.501961" />
<polygon points="226,36 222,54 207,55" id="60" fill="rgb(50,43,31)" fill-opacity="0.501961" />
<polygon points="46,170 62,170 63,118" id="61" fill="rgb(41,38,35)" fill-opacity="0.501961" />
<polygon points="0,155 41,170 0,170" id="62" fill="rgb(136,153,186)" fill-opacity="0.501961" />
<polygon points="178,64 191,27 192,71" id="63" fill="rgb(92,86,79)" fill-opacity="0.501961" />
<polygon points="234,46 252,48 236,3" id="64" fill="rgb(18,13,10)" fill-opacity="0.501961" />
<polygon points="89,41 65,51 62,38" id="65" fill="rgb(101,88,75)" fill-opacity="0.501961" />
<polygon points="254,10 256,0 182,0" id="66" fill="rgb(92,91,97)" fill-opacity="0.501961" />
<polygon points="226,75 235,17 223,0" id="67" fill="rgb(127,112,91)" fill-opacity="0.501961" />
<polygon points="193,74 197,93 225,89" id="68" fill="rgb(54,50,41)" fill-opacity="0.501961" />
<polygon points="256,124 256,170 200,170" id="69" fill="rgb(104,94,84)" fill-opacity="0.501961" />
<polygon points="144,16 151,-11 228,15" id="70" fill="rgb(132,128,112)" fill-opacity="0.501961" />
<polygon points="90,112 74,116 59,111" id="71" fill="rgb(161,118,89)" fill-opacity="0.501961" />
<polygon points="95,87 105,41 129,70" id="72" fill="rgb(91,86,77)" fill-opacity="0.501961" />
<polygon points="85,117 154,158 88,148" id="73" fill="rgb(132,128,126)" fill-opacity="0.501961" />
<polygon points="107,19 137,9 91,7" id="74" fill="rgb(164,152,119)" fill-opacity="0.501961" />
<polygon points="78,166 62,131 78,126" id="75" fill="rgb(129,115,91)" fill-opacity="0.501961" />
<polygon points="60,69 0,55 114,55" id="76" fill="rgb(43,48,55)" fill-opacity="0.501961" />
<polygon points="47,61 77,98 30,82" id="77" fill="rgb(108,107,106)" fill-opacity="0.501961" />
<polygon points="91,102 92,74 79,104" id="78" fill="rgb(180,173,167)" fill-opacity="0.501961" />
<polygon points="193,76 226,64 210,55" id="79" fill="rgb(142,151,153)" fill-opacity="0.501961" />
<polygon points="200,42 256,83 256,60" id="80" fill="rgb(48,48,51)" fill-opacity="0.501961" />
<polygon points="158,66 155,18 149,15" id="81" fill="rgb(195,200,221)" fill-opacity="0.501961" />
<polygon points="23,125 23,120 61,128" id="82" fill="rgb(41,35,23)" fill-opacity="0.501961" />
<polygon points="135,144 103,110 129,115" id="83" fill="rgb(151,156,169)" fill-opacity="0.501961" />
<polygon points="150,114 127,90 148,167" id="84" fill="rgb(122,113,104)" fill-opacity="0.501961" />
<polygon points="243,122 255,107 218,54" id="85" fill="rgb(73,66,59)" fill-opacity="0.501961" />
<polygon points="48,94 37,114 7,130" id="86" fill="rgb(157,167,190)" fill-opacity="0.501961" />
<polygon points="173,3 168,112 178,150" id="87" fill="rgb(153,141,132)" fill-opacity="0.501961" />
<polygon points="162,7 165,50 157,-18" id="88" fill="rgb(11,42,19)" fill-opacity="0.501961" />
<polygon points="11,25 42,30 54,18" id="89" fill="rgb(67,52,16)" fill-opacity="0.501961" />
<polygon points="87,81 53,65 30,74" id="90" fill="rgb(116,108,103)" fill-opacity="0.501961" />
<polygon points="81,117 84,126 57,123" id="91" fill="rgb(0,0,0)" fill-opacity="0.501961" />
<polygon points="222,100 218,111 209,100" id="92" fill="rgb(59,55,51)" fill-opacity="0.501961" />
<polygon points="0,41 121,42 0,44" id="93" fill="rgb(99,85,70)" fill-opacity="0.501961" />
<polygon points="130,93 138,100 149,95" id="94" fill="rgb(41,32,24)" fill-opacity="0.501961" />
<polygon points="227,117 245,69 204,121" id="95" fill="rgb(112,109,109)" fill-opacity="0.501961" />
<polygon points="15,7 0,19 0,5" id="96" fill="rgb(78,98,144)" fill-opacity="0.501961" />
<polygon points="152,76 158,118 152,118" id="97" fill="rgb(154,142,136)" fill-opacity="0.501961" />
<polygon points="35,19 36,24 11,19" id="98" fill="rgb(18,20,25)" fill-opacity="0.501961" />
<polygon points="194,138 193,107 211,129" id="99" fill="rgb(200,204,222)" fill-opacity="0.501961" />
<polygon points="84,169 84,120 78,136" id="100" fill="rgb(4,1,0)" fill-opacity="0.501961" />
<polygon points="192,46 193,16 198,25" id="101" fill="rgb(138,148,231)" fill-opacity="0.501961" />
<polygon points="152,117 157,170 159,127" id="102" fill="rgb(201,207,217)" fill-opacity="0.501961" />
<polygon points="209,36 224,35 222,12" id="103" fill="rgb(22,41,233)" fill-opacity="0.501961" />
<polygon points="116,20 149,32 150,15" id="104" fill="rgb(77,71,51)" fill-opacity="0.501961" />
<polygon points="47,162 29,146 29,162" id="105" fill="rgb(116,124,145)" fill-opacity="0.501961" />
<polygon points="105,7 118,0 99,0" id="106" fill="rgb(33,51,76)" fill-opacity="0.501961" />
<polygon points="55,17 76,18 53,0" id="107" fill="rgb(126,141,169)" fill-opacity="0.501961" />
<polygon points="203,34 212,42 196,41" id="108" fill="rgb(246,250,255)" fill-opacity="0.501961" />
<polygon points="17,90 45,86 37,123" id="109" fill="rgb(156,156,164)" fill-opacity="0.501961" />
<polygon points="141,19 145,0 138,0" id="110" fill="rgb(14,20,21)" fill-opacity="0.501961" />
<polygon points="176,170 187,112 196,170" id="111" fill="rgb(115,104,98)" fill-opacity="0.501961" />
<polygon points="82,77 6,90 0,71" id="112" fill="rgb(74,76,81)" fill-opacity="0.501961" />
<polygon points="138,0 111,0 137,18" id="113" fill="rgb(110,128,148)" fill-opacity="0.501961" />
<polygon points="224,0 223,23 223,82" id="114" fill="rgb(49,41,24)" fill-opacity="0.501961" />
<polygon points="48,55 36,52 83,35" id="115" fill="rgb(193,187,185)" fill-opacity="0.501961" />
</svg>