<?xml version="1.0" standalone="no"?>
<svg xmlns="http://www.w3.org/2000/svg" version="1.2" baseProfile="tiny" width="256" height="133" viewBox="0 0 256 133">
<rect x="0" y="0" width="256" height="133" id="0" fill="rgb(64,51,54)" fill-opacity="1" />
<polygon points="91,99 185,93 93,8" id="1" fill="rgb(255,255,255)" fill-opacity="0.501961" />
<polygon points="231,23 227,123 256,121" id="2" fill="rgb(255,255,255)" fill-opacity="0.501961" />
<polygon points="174,133 256,0 163,0" id="3" fill="rgb(0,0,0)" fill-opacity="0.501961" />
<polygon points="168,29 165,133 107,15" id="4" fill="rgb(195,220,244)" fill-opacity="0.501961" />
<polygon points="44,0 0,133 118,133" id="5" fill="rgb(0,0,0)" fill-opacity="0.501961" />
<polygon points="19,92 21,0 -30,82" id="6" fill="rgb(255,238,241)" fill-opacity="0.501961" />
<polygon points="227,71 117,133 229,133" id="7" fill="rgb(0,0,0)" fill-opacity="0.501961" />
<polygon points="256,38 227,38 256,120" id="8" fill="rgb(255,207,216)" fill-opacity="0.501961" />
<polygon points="164,118 92,100 93,4" id="9" fill="rgb(255,182,189)" fill-opacity="0.501961" />
<polygon points="73,133 97,0 12,0" id="10" fill="rgb(0,0,0)" fill-opacity="0.501961" />
<polygon points="0,0 256,37 256,0" id="11" fill="rgb(0,0,0)" fill-opacity="0.501961" />
<polygon points="99,65 158,19 106,13" id="12" fill="rgb(255,101,95)" fill-opacity="0.501961" />
<polygon points="0,133 0,82 245,133" id="13" fill="rgb(0,0,0)" fill-opacity="0.501961" />
<polygon points="167,27 109,115 166,110" id="14" fill="rgb(115,201,228)" fill-opacity="0.501961" />
<polygon points="19,16 20,102 -17,3" id="15" fill="rgb(255,161,162)" fill-opacity="0.501961" />
<polygon points="228,126 144,133 228,3" id="16" fill="rgb(0,0,0)" fill-opacity="0.501961" />
<polygon points="119,33 135,114 147,36" id="17" fill="rgb(112,65,77)" fill-opacity="0.501961" />
<polygon points="228,120 256,109 235,37" id="18" fill="rgb(255,173,174)" fill-opacity="0.501961" />
<polygon points="119,0 20,2 27,67" id="19" fill="rgb(0,0,0)" fill-opacity="0.501961" />
<polygon points="93,0 0,117 85,130" id="20" fill="rgb(0,0,0)" fill-opacity="0.501961" />
<polygon points="133,16 92,18 167,38" id="21" fill="rgb(255,215,214)" fill-opacity="0.501961" />
<polygon points="227,133 158,54 229,0" id="22" fill="rgb(0,0,0)" fill-opacity="0.501961" />
<polygon points="172,0 256,5 168,112" id="23" fill="rgb(0,0,0)" fill-opacity="0.501961" />
<polygon points="142,112 168,61 167,112" id="24" fill="rgb(160,246,255)" fill-opacity="0.501961" />
<polygon points="130,105 92,17 96,100" id="25" fill="rgb(255,180,178)" fill-opacity="0.501961" />
<polygon points="21,10 -24,71 21,64" id="26" fill="rgb(255,163,161)" fill-opacity="0.501961" />
<polygon points="138,37 123,16 98,53" id="27" fill="rgb(255,37,37)" fill-opacity="0.501961" />
</svg>