<?xml version="1.0" standalone="no"?>
<svg xmlns="http://www.w3.org/2000/svg" version="1.2" baseProfile="tiny" width="256" height="170" viewBox="0 0 256 170">
<rect x="0" y="0" width="256" height="170" id="0" fill="rgb(50,43,35)" fill-opacity="1" />
<polygon points="159,0 95,57 0,0" id="1" fill="rgb(246,228,178)" fill-opacity="0.501961" />
<polygon points="117,59 172,102 97,120" id="2" fill="rgb(218,168,129)" fill-opacity="0.501961" />
<polygon points="125,170 256,169 202,0" id="3" fill="rgb(0,0,0)" fill-opacity="0.501961" />
<polygon points="252,66 256,0 187,0" id="4" fill="rgb(206,158,115)" fill-opacity="0.501961" />
<polygon points="0,169 169,170 8,33" id="5" fill="rgb(0,0,0)" fill-opacity="0.501961" />
<polygon points="56,29 0,0 0,37" id="6" fill="rgb(186,171,129)" fill-opacity="0.501961" />
<polygon points="199,4 256,136 117,35" id="7" fill="rgb(0,0,0)" fill-opacity="0.501961" />
<polygon points="136,39 182,106 104,131" id="8" fill="rgb(132,100,77)" fill-opacity="0.501961" />
<polygon points="70,34 0,129 123,159" id="9" fill="rgb(0,0,0)" fill-opacity="0.501961" />
<polygon points="136,14 160,0 199,0" id="10" fill="rgb(203,188,146)" fill-opacity="0.501961" />
<polygon points="256,53 256,153 111,145" id="11" fill="rgb(0,0,0)" fill-opacity="0.501961" />
<polygon points="136,91 115,61 100,96" id="12" fill="rgb(214,176,136)" fill-opacity="0.501961" />
<polygon points="128,0 64,56 114,51" id="13" fill="rgb(157,146,115)" fill-opacity="0.501961" />
</svg>