<?xml version="1.0" standalone="no"?>
<svg xmlns="http://www.w3.org/2000/svg" version="1.2" baseProfile="tiny" width="256" height="160" viewBox="0 0 256 160">
<rect x="0" y="0" width="256" height="160" id="0" fill="rgb(147,140,139)" fill-opacity="1" />
<polygon points="242,0 137,34 52,0" id="1" fill="rgb(0,0,0)" fill-opacity="0.501961" />
<polygon points="16,95 132,127 129,18" id="2" fill="rgb(244,251,255)" fill-opacity="0.501961" />
<polygon points="170,149 142,64 127,151" id="3" fill="rgb(0,0,0)" fill-opacity="0.501961" />
<polygon points="256,129 205,68 256,0" id="4" fill="rgb(250,253,255)" fill-opacity="0.501961" />
<polygon points="71,0 201,0 211,37" id="5" fill="rgb(0,0,0)" fill-opacity="0.501961" />
<polygon points="0,15 28,94 0,160" id="6" fill="rgb(116,0,5)" fill-opacity="0.501961" />
<polygon points="184,142 146,73 198,82" id="7" fill="rgb(255,255,255)" fill-opacity="0.501961" />
<polygon points="33,140 22,44 210,22" id="8" fill="rgb(200,203,205)" fill-opacity="0.501961" />
<polygon points="207,124 208,35 185,0" id="9" fill="rgb(33,24,14)" fill-opacity="0.501961" />
<polygon points="95,0 224,0 63,29" id="10" fill="rgb(0,0,0)" fill-opacity="0.501961" />
<polygon points="88,125 87,7 59,0" id="11" fill="rgb(110,109,105)" fill-opacity="0.501961" />
<polygon points="232,0 256,124 256,0" id="12" fill="rgb(240,243,245)" fill-opacity="0.501961" />
<polygon points="9,15 25,30 19,157" id="13" fill="rgb(90,48,48)" fill-opacity="0.501961" />
<polygon points="233,12 163,80 158,67" id="14" fill="rgb(39,37,32)" fill-opacity="0.501961" />
<polygon points="52,16 5,-13 0,18" id="15" fill="rgb(227,233,255)" fill-opacity="0.501961" />
<polygon points="225,23 98,34 48,20" id="16" fill="rgb(136,135,120)" fill-opacity="0.501961" />
<polygon points="256,150 210,108 88,151" id="17" fill="rgb(127,120,107)" fill-opacity="0.501961" />
<polygon points="139,86 132,138 159,99" id="18" fill="rgb(0,0,0)" fill-opacity="0.501961" />
<polygon points="147,67 165,123 195,97" id="19" fill="rgb(232,238,249)" fill-opacity="0.501961" />
<polygon points="141,148 0,147 0,142" id="20" fill="rgb(44,45,35)" fill-opacity="0.501961" />
<polygon points="133,119 90,117 135,40" id="21" fill="rgb(235,237,246)" fill-opacity="0.501961" />
<polygon points="215,119 256,41 213,39" id="22" fill="rgb(171,165,165)" fill-opacity="0.501961" />
</svg>