<?xml version="1.0" standalone="no"?>
<svg xmlns="http://www.w3.org/2000/svg" version="1.2" baseProfile="tiny" width="256" height="170" viewBox="0 0 256 170">
<rect x="0" y="0" width="256" height="170" id="0" fill="rgb(100,85,88)" fill-opacity="1" />
<polygon points="248,0 0,70 0,0" id="1" fill="rgb(176,186,207)" fill-opacity="0.501961" />
<polygon points="0,96 256,159 0,170" id="2" fill="rgb(35,25,20)" fill-opacity="0.501961" />
<polygon points="112,40 164,0 164,164" id="3" fill="rgb(220,144,151)" fill-opacity="0.501961" />
<polygon points="176,169 255,26 256,170" id="4" fill="rgb(21,23,21)" fill-opacity="0.501961" />
<polygon points="256,89 256,0 193,0" id="5" fill="rgb(57,52,50)" fill-opacity="0.501961" />
<polygon points="51,0 201,41 198,0" id="6" fill="rgb(168,168,176)" fill-opacity="0.501961" />
<polygon points="25,67 0,170 80,72" id="7" fill="rgb(48,34,30)" fill-opacity="0.501961" />
<polygon points="76,46 123,18 99,105" id="8" fill="rgb(38,38,57)" fill-opacity="0.501961" />
<polygon points="256,58 194,58 195,87" id="9" fill="rgb(165,148,132)" fill-opacity="0.501961" />
<polygon points="155,62 174,140 115,96" id="10" fill="rgb(207,97,116)" fill-opacity="0.501961" />
<polygon points="84,96 84,65 64,41" id="11" fill="rgb(217,195,196)" fill-opacity="0.501961" />
<polygon points="168,108 256,113 255,170" id="12" fill="rgb(32,21,22)" fill-opacity="0.501961" />
<polygon points="87,133 86,93 38,96" id="13" fill="rgb(155,109,104)" fill-opacity="0.501961" />
<polygon points="212,170 220,91 125,170" id="14" fill="rgb(99,70,67)" fill-opacity="0.501961" />
<polygon points="256,34 207,43 256,2" id="15" fill="rgb(28,18,14)" fill-opacity="0.501961" />
<polygon points="54,45 57,52 0,92" id="16" fill="rgb(71,34,16)" fill-opacity="0.501961" />
<polygon points="164,88 191,112 191,0" id="17" fill="rgb(83,65,46)" fill-opacity="0.501961" />
<polygon points="159,133 111,139 112,78" id="18" fill="rgb(123,84,86)" fill-opacity="0.501961" />
<polygon points="256,93 256,110 183,106" id="19" fill="rgb(122,114,110)" fill-opacity="0.501961" />
<polygon points="132,170 84,145 90,95" id="20" fill="rgb(37,40,40)" fill-opacity="0.501961" />
<polygon points="125,96 108,25 191,0" id="21" fill="rgb(154,139,141)" fill-opacity="0.501961" />
<polygon points="85,107 118,70 101,21" id="22" fill="rgb(48,43,51)" fill-opacity="0.501961" />
<polygon points="150,35 190,44 155,49" id="23" fill="rgb(50,38,32)" fill-opacity="0.501961" />
<polygon points="57,65 93,75 64,44" id="24" fill="rgb(179,169,171)" fill-opacity="0.501961" />
<polygon points="0,170 0,137 75,139" id="25" fill="rgb(28,22,21)" fill-opacity="0.501961" />
<polygon points="2,71 21,63 26,73" id="26" fill="rgb(198,197,205)" fill-opacity="0.501961" />
<polygon points="81,131 0,61 0,101" id="27" fill="rgb(86,63,60)" fill-opacity="0.501961" />
<polygon points="149,121 124,142 154,154" id="28" fill="rgb(23,28,35)" fill-opacity="0.501961" />
<polygon points="166,113 170,141 155,126" id="29" fill="rgb(177,201,172)" fill-opacity="0.501961" />
<polygon points="216,128 235,170 225,79" id="30" fill="rgb(17,16,18)" fill-opacity="0.501961" />
<polygon points="79,71 71,96 33,74" id="31" fill="rgb(38,39,35)" fill-opacity="0.501961" />
<polygon points="240,118 228,107 238,77" id="32" fill="rgb(127,130,135)" fill-opacity="0.501961" />
<polygon points="181,0 201,0 218,109" id="33" fill="rgb(147,123,116)" fill-opacity="0.501961" />
<polygon points="124,0 145,61 158,65" id="34" fill="rgb(188,171,190)" fill-opacity="0.501961" />
<polygon points="209,47 256,71 256,54" id="35" fill="rgb(105,108,112)" fill-opacity="0.501961" />
<polygon points="94,81 84,36 140,77" id="36" fill="rgb(85,70,81)" fill-opacity="0.501961" />
<polygon points="63,170 158,115 123,170" id="37" fill="rgb(64,56,56)" fill-opacity="0.501961" />
<polygon points="103,90 110,113 100,114" id="38" fill="rgb(255,73,59)" fill-opacity="0.501961" />
<polygon points="252,170 205,110 189,140" id="39" fill="rgb(41,28,32)" fill-opacity="0.501961" />
<polygon points="172,129 123,165 160,167" id="40" fill="rgb(134,90,76)" fill-opacity="0.501961" />
<polygon points="67,114 7,133 132,136" id="41" fill="rgb(91,82,82)" fill-opacity="0.501961" />
<polygon points="128,61 134,125 163,115" id="42" fill="rgb(190,80,109)" fill-opacity="0.501961" />
<polygon points="50,38 70,53 101,22" id="43" fill="rgb(173,171,182)" fill-opacity="0.501961" />
<polygon points="97,22 94,51 74,2" id="44" fill="rgb(153,147,157)" fill-opacity="0.501961" />
<polygon points="29,79 54,75 39,48" id="45" fill="rgb(91,60,46)" fill-opacity="0.501961" />
<polygon points="63,32 0,10 0,39" id="46" fill="rgb(106,108,128)" fill-opacity="0.501961" />
<polygon points="164,0 13,0 146,21" id="47" fill="rgb(156,166,187)" fill-opacity="0.501961" />
<polygon points="110,107 111,126 97,123" id="48" fill="rgb(22,27,28)" fill-opacity="0.501961" />
<polygon points="127,31 111,29 113,52" id="49" fill="rgb(183,163,122)" fill-opacity="0.501961" />
<polygon points="3,69 19,75 58,28" id="50" fill="rgb(160,152,157)" fill-opacity="0.501961" />
<polygon points="159,61 168,112 176,94" id="51" fill="rgb(67,60,44)" fill-opacity="0.501961" />
<polygon points="236,13 232,0 177,0" id="52" fill="rgb(129,117,133)" fill-opacity="0.501961" />
<polygon points="104,98 127,51 124,93" id="53" fill="rgb(107,114,118)" fill-opacity="0.501961" />
<polygon points="189,46 199,40 203,43" id="54" fill="rgb(13,9,9)" fill-opacity="0.501961" />
<polygon points="162,71 152,46 214,50" id="55" fill="rgb(122,112,100)" fill-opacity="0.501961" />
<polygon points="85,95 87,68 82,109" id="56" fill="rgb(68,138,208)" fill-opacity="0.501961" />
</svg>