<?xml version="1.0" standalone="no"?>
<svg xmlns="http://www.w3.org/2000/svg" version="1.2" baseProfile="tiny" width="256" height="170" viewBox="0 0 256 170">
<rect x="0" y="0" width="256" height="170" id="0" fill="rgb(49,44,41)" fill-opacity="1" />
<polygon points="122,118 145,37 0,58" id="1" fill="rgb(113,87,63)" fill-opacity="0.501961" />
<polygon points="147,162 0,170 0,65" id="2" fill="rgb(9,15,21)" fill-opacity="0.501961" />
<polygon points="256,42 206,71 254,170" id="3" fill="rgb(0,1,20)" fill-opacity="0.501961" />
<polygon points="15,0 53,89 79,9" id="4" fill="rgb(100,96,81)" fill-opacity="0.501961" />
<polygon points="207,148 179,180 136,131" id="5" fill="rgb(130,82,13)" fill-opacity="0.501961" />
<polygon points="189,53 85,19 189,17" id="6" fill="rgb(1,0,0)" fill-opacity="0.501961" />
<polygon points="85,71 100,0 29,143" id="7" fill="rgb(3,6,18)" fill-opacity="0.501961" />
<polygon points="194,36 234,38 194,59" id="8" fill="rgb(162,115,105)" fill-opacity="0.501961" />
<polygon points="156,24 179,0 155,0" id="9" fill="rgb(171,121,142)" fill-opacity="0.501961" />
<polygon points="74,133 90,119 93,170" id="10" fill="rgb(124,95,41)" fill-opacity="0.501961" />
<polygon points="86,64 117,101 132,38" id="11" fill="rgb(136,91,26)" fill-opacity="0.501961" />
<polygon points="6,76 13,15 54,30" id="12" fill="rgb(29,36,8)" fill-opacity="0.501961" />
<polygon points="0,79 0,42 6,72" id="13" fill="rgb(124,142,149)" fill-opacity="0.501961" />
<polygon points="197,170 245,170 241,38" id="14" fill="rgb(12,23,32)" fill-opacity="0.501961" />
<polygon points="162,89 133,60 119,90" id="15" fill="rgb(12,22,31)" fill-opacity="0.501961" />
<polygon points="66,84 55,26 22,86" id="16" fill="rgb(115,86,81)" fill-opacity="0.501961" />
<polygon points="45,134 54,93 7,86" id="17" fill="rgb(0,0,0)" fill-opacity="0.501961" />
<polygon points="126,120 67,105 77,69" id="18" fill="rgb(46,61,82)" fill-opacity="0.501961" />
<polygon points="54,0 85,79 102,20" id="19" fill="rgb(28,26,31)" fill-opacity="0.501961" />
<polygon points="59,3 0,22 9,12" id="20" fill="rgb(119,130,116)" fill-opacity="0.501961" />
<polygon points="168,6 194,66 184,0" id="21" fill="rgb(0,0,1)" fill-opacity="0.501961" />
<polygon points="147,64 142,28 128,62" id="22" fill="rgb(102,98,100)" fill-opacity="0.501961" />
<polygon points="226,27 224,60 192,50" id="23" fill="rgb(117,87,76)" fill-opacity="0.501961" />
<polygon points="167,118 245,115 161,38" id="24" fill="rgb(60,56,57)" fill-opacity="0.501961" />
<polygon points="256,49 246,0 194,0" id="25" fill="rgb(47,61,75)" fill-opacity="0.501961" />
<polygon points="111,32 179,18 73,17" id="26" fill="rgb(16,6,0)" fill-opacity="0.501961" />
<polygon points="108,93 125,169 93,170" id="27" fill="rgb(9,13,21)" fill-opacity="0.501961" />
<polygon points="159,170 148,130 112,132" id="28" fill="rgb(69,71,67)" fill-opacity="0.501961" />
<polygon points="92,27 151,32 90,70" id="29" fill="rgb(90,58,21)" fill-opacity="0.501961" />
<polygon points="87,91 80,76 107,90" id="30" fill="rgb(108,116,125)" fill-opacity="0.501961" />
<polygon points="50,36 61,70 72,41" id="31" fill="rgb(127,110,107)" fill-opacity="0.501961" />
<polygon points="168,9 169,19 152,9" id="32" fill="rgb(147,133,141)" fill-opacity="0.501961" />
<polygon points="206,0 184,25 190,33" id="33" fill="rgb(101,82,73)" fill-opacity="0.501961" />
<polygon points="195,141 145,166 202,170" id="34" fill="rgb(105,70,23)" fill-opacity="0.501961" />
<polygon points="0,80 26,47 15,88" id="35" fill="rgb(3,3,6)" fill-opacity="0.501961" />
<polygon points="137,87 148,111 137,78" id="36" fill="rgb(106,95,99)" fill-opacity="0.501961" />
<polygon points="70,56 28,56 47,64" id="37" fill="rgb(146,120,110)" fill-opacity="0.501961" />
<polygon points="256,157 256,60 228,23" id="38" fill="rgb(3,9,15)" fill-opacity="0.501961" />
<polygon points="63,96 70,0 77,111" id="39" fill="rgb(30,42,56)" fill-opacity="0.501961" />
<polygon points="9,0 115,18 151,6" id="40" fill="rgb(61,53,63)" fill-opacity="0.501961" />
<polygon points="21,124 18,134 26,170" id="41" fill="rgb(83,84,77)" fill-opacity="0.501961" />
<polygon points="129,98 125,112 96,64" id="42" fill="rgb(134,93,35)" fill-opacity="0.501961" />
<polygon points="163,7 163,0 197,0" id="43" fill="rgb(120,61,79)" fill-opacity="0.501961" />
<polygon points="24,87 36,95 80,58" id="44" fill="rgb(73,57,53)" fill-opacity="0.501961" />
<polygon points="28,93 48,33 19,64" id="45" fill="rgb(98,77,67)" fill-opacity="0.501961" />
<polygon points="209,141 141,117 125,136" id="46" fill="rgb(33,30,28)" fill-opacity="0.501961" />
<polygon points="137,152 146,148 142,108" id="47" fill="rgb(90,91,84)" fill-opacity="0.501961" />
<polygon points="190,57 256,66 238,115" id="48" fill="rgb(10,20,37)" fill-opacity="0.501961" />
<polygon points="111,92 80,86 143,163" id="49" fill="rgb(51,55,65)" fill-opacity="0.501961" />
<polygon points="0,14 69,30 1,52" id="50" fill="rgb(50,55,29)" fill-opacity="0.501961" />
<polygon points="160,0 159,16 157,0" id="51" fill="rgb(150,190,192)" fill-opacity="0.501961" />
<polygon points="45,88 81,93 29,107" id="52" fill="rgb(0,2,4)" fill-opacity="0.501961" />
<polygon points="82,115 71,170 25,142" id="53" fill="rgb(33,36,40)" fill-opacity="0.501961" />
<polygon points="113,170 97,170 88,105" id="54" fill="rgb(4,6,8)" fill-opacity="0.501961" />
<polygon points="68,0 0,11 0,0" id="55" fill="rgb(21,43,64)" fill-opacity="0.501961" />
<polygon points="130,126 150,124 134,84" id="56" fill="rgb(23,20,26)" fill-opacity="0.501961" />
<polygon points="207,19 189,25 184,17" id="57" fill="rgb(107,86,76)" fill-opacity="0.501961" />
</svg>