<?xml version="1.0" standalone="no"?>
<svg xmlns="http://www.w3.org/2000/svg" version="1.2" baseProfile="tiny" width="256" height="144" viewBox="0 0 256 144">
<rect x="0" y="0" width="256" height="144" id="0" fill="rgb(79,75,173)" fill-opacity="1" />
<polygon points="96,32 199,60 139,144" id="1" fill="rgb(122,47,71)" fill-opacity="0.501961" />
<polygon points="140,142 120,119 169,113" id="2" fill="rgb(150,12,0)" fill-opacity="0.501961" />
<polygon points="208,103 181,111 256,120" id="3" fill="rgb(244,48,8)" fill-opacity="0.501961" />
<polygon points="0,0 173,104 0,144" id="4" fill="rgb(71,83,200)" fill-opacity="0.501961" />
<polygon points="182,68 172,99 151,88" id="5" fill="rgb(235,54,30)" fill-opacity="0.501961" />
<polygon points="15,82 24,104 9,96" id="6" fill="rgb(255,42,0)" fill-opacity="0.501961" />
<polygon points="111,97 138,48 163,46" id="7" fill="rgb(148,38,32)" fill-opacity="0.501961" />
<polygon points="128,39 148,81 105,67" id="8" fill="rgb(20,65,175)" fill-opacity="0.501961" />
<polygon points="117,66 133,58 176,75" id="9" fill="rgb(1,0,1)" fill-opacity="0.501961" />
<polygon points="141,26 256,0 256,124" id="10" fill="rgb(64,81,198)" fill-opacity="0.501961" />
<polygon points="162,113 116,118 157,124" id="11" fill="rgb(255,60,16)" fill-opacity="0.501961" />
<polygon points="55,144 157,58 114,144" id="12" fill="rgb(66,82,201)" fill-opacity="0.501961" />
<polygon points="102,47 127,26 104,67" id="13" fill="rgb(183,42,23)" fill-opacity="0.501961" />
<polygon points="180,33 149,7 172,0" id="14" fill="rgb(122,49,77)" fill-opacity="0.501961" />
<polygon points="149,131 141,144 126,131" id="15" fill="rgb(0,5,26)" fill-opacity="0.501961" />
<polygon points="40,49 30,71 47,47" id="16" fill="rgb(255,40,0)" fill-opacity="0.501961" />
<polygon points="76,68 157,0 0,0" id="17" fill="rgb(64,81,199)" fill-opacity="0.501961" />
<polygon points="188,113 256,115 256,117" id="18" fill="rgb(255,40,0)" fill-opacity="0.501961" />
<polygon points="108,84 133,72 134,84" id="19" fill="rgb(235,57,38)" fill-opacity="0.501961" />
<polygon points="176,41 166,62 151,75" id="20" fill="rgb(234,35,0)" fill-opacity="0.501961" />
<polygon points="102,28 104,43 122,7" id="21" fill="rgb(16,20,49)" fill-opacity="0.501961" />
<polygon points="157,128 169,123 160,112" id="22" fill="rgb(37,0,0)" fill-opacity="0.501961" />
<polygon points="256,144 168,137 163,99" id="23" fill="rgb(66,84,207)" fill-opacity="0.501961" />
<polygon points="209,109 180,109 182,105" id="24" fill="rgb(255,42,0)" fill-opacity="0.501961" />
<polygon points="231,113 231,0 164,62" id="25" fill="rgb(69,80,192)" fill-opacity="0.501961" />
<polygon points="125,84 191,64 67,132" id="26" fill="rgb(70,78,185)" fill-opacity="0.501961" />
<polygon points="187,7 87,93 144,12" id="27" fill="rgb(78,81,191)" fill-opacity="0.501961" />
<polygon points="148,9 197,-13 159,21" id="28" fill="rgb(165,68,106)" fill-opacity="0.501961" />
<polygon points="256,136 221,117 124,144" id="29" fill="rgb(69,83,200)" fill-opacity="0.501961" />
<polygon points="243,97 236,96 243,103" id="30" fill="rgb(0,0,0)" fill-opacity="0.501961" />
<polygon points="161,111 129,106 141,109" id="31" fill="rgb(0,0,0)" fill-opacity="0.501961" />
<polygon points="124,34 198,60 181,40" id="32" fill="rgb(61,57,131)" fill-opacity="0.501961" />
<polygon points="180,32 176,19 166,21" id="33" fill="rgb(0,6,33)" fill-opacity="0.501961" />
</svg>