<?xml version="1.0" standalone="no"?>
<svg xmlns="http://www.w3.org/2000/svg" version="1.2" baseProfile="tiny" width="256" height="144" viewBox="0 0 256 144">
<rect x="0" y="0" width="256" height="144" id="0" fill="rgb(150,134,110)" fill-opacity="1" />
<polygon points="78,144 0,52 182,48" id="1" fill="rgb(243,247,216)" fill-opacity="0.501961" />
<polygon points="164,144 256,126 193,0" id="2" fill="rgb(77,13,10)" fill-opacity="0.501961" />
<polygon points="256,58 79,0 256,10" id="3" fill="rgb(14,54,44)" fill-opacity="0.501961" />
<polygon points="73,144 0,108 0,38" id="4" fill="rgb(255,255,235)" fill-opacity="0.501961" />
<polygon points="256,109 122,39 202,144" id="5" fill="rgb(164,46,32)" fill-opacity="0.501961" />
<polygon points="42,45 28,24 116,39" id="6" fill="rgb(0,4,29)" fill-opacity="0.501961" />
<polygon points="95,73 91,108 36,112" id="7" fill="rgb(81,68,28)" fill-opacity="0.501961" />
<polygon points="256,70 197,52 236,95" id="8" fill="rgb(255,255,166)" fill-opacity="0.501961" />
<polygon points="189,8 250,29 186,86" id="9" fill="rgb(0,62,74)" fill-opacity="0.501961" />
<polygon points="69,89 179,123 127,123" id="10" fill="rgb(250,250,210)" fill-opacity="0.501961" />
<polygon points="119,102 86,144 33,131" id="11" fill="rgb(255,253,255)" fill-opacity="0.501961" />
<polygon points="56,144 0,108 16,144" id="12" fill="rgb(33,25,9)" fill-opacity="0.501961" />
<polygon points="194,114 204,79 240,144" id="13" fill="rgb(255,167,114)" fill-opacity="0.501961" />
<polygon points="176,144 231,144 153,79" id="14" fill="rgb(76,25,27)" fill-opacity="0.501961" />
<polygon points="95,127 164,129 113,144" id="15" fill="rgb(42,30,3)" fill-opacity="0.501961" />
<polygon points="116,31 130,15 59,11" id="16" fill="rgb(226,231,225)" fill-opacity="0.501961" />
<polygon points="0,107 106,55 86,42" id="17" fill="rgb(249,248,255)" fill-opacity="0.501961" />
<polygon points="145,16 185,82 184,0" id="18" fill="rgb(202,164,97)" fill-opacity="0.501961" />
<polygon points="256,114 120,92 167,78" id="19" fill="rgb(106,16,24)" fill-opacity="0.501961" />
<polygon points="86,59 115,65 87,67" id="20" fill="rgb(0,40,5)" fill-opacity="0.501961" />
<polygon points="55,54 11,32 4,109" id="21" fill="rgb(230,211,143)" fill-opacity="0.501961" />
<polygon points="210,78 256,94 228,101" id="22" fill="rgb(216,2,2)" fill-opacity="0.501961" />
<polygon points="151,66 154,89 68,70" id="23" fill="rgb(235,242,207)" fill-opacity="0.501961" />
<polygon points="99,105 117,95 58,105" id="24" fill="rgb(42,66,50)" fill-opacity="0.501961" />
<polygon points="130,99 63,150 31,125" id="25" fill="rgb(231,225,221)" fill-opacity="0.501961" />
<polygon points="160,131 223,144 167,144" id="26" fill="rgb(0,49,42)" fill-opacity="0.501961" />
<polygon points="256,96 202,55 256,62" id="27" fill="rgb(222,217,161)" fill-opacity="0.501961" />
<polygon points="111,34 43,6 34,20" id="28" fill="rgb(89,65,40)" fill-opacity="0.501961" />
<polygon points="162,47 117,22 137,66" id="29" fill="rgb(109,105,68)" fill-opacity="0.501961" />
<polygon points="224,46 200,0 246,0" id="30" fill="rgb(79,128,129)" fill-opacity="0.501961" />
<polygon points="0,43 19,50 0,95" id="31" fill="rgb(213,234,255)" fill-opacity="0.501961" />
<polygon points="189,79 212,79 191,13" id="32" fill="rgb(0,48,46)" fill-opacity="0.501961" />
<polygon points="211,78 220,127 275,125" id="33" fill="rgb(96,18,43)" fill-opacity="0.501961" />
<polygon points="83,24 68,21 63,0" id="34" fill="rgb(233,233,216)" fill-opacity="0.501961" />
<polygon points="143,125 183,136 179,108" id="35" fill="rgb(162,164,77)" fill-opacity="0.501961" />
<polygon points="87,50 125,51 135,78" id="36" fill="rgb(244,244,244)" fill-opacity="0.501961" />
<polygon points="246,136 225,130 235,144" id="37" fill="rgb(255,230,255)" fill-opacity="0.501961" />
<polygon points="200,0 173,32 68,0" id="38" fill="rgb(136,105,63)" fill-opacity="0.501961" />
<polygon points="0,30 37,0 81,0" id="39" fill="rgb(215,199,139)" fill-opacity="0.501961" />
<polygon points="83,33 22,37 74,49" id="40" fill="rgb(5,48,57)" fill-opacity="0.501961" />
<polygon points="173,66 168,80 215,102" id="41" fill="rgb(252,83,22)" fill-opacity="0.501961" />
<polygon points="186,64 154,62 164,49" id="42" fill="rgb(227,241,243)" fill-opacity="0.501961" />
<polygon points="123,89 161,77 154,119" id="43" fill="rgb(138,115,50)" fill-opacity="0.501961" />
<polygon points="222,61 170,17 218,26" id="44" fill="rgb(0,42,55)" fill-opacity="0.501961" />
<polygon points="177,112 234,144 195,108" id="45" fill="rgb(222,54,41)" fill-opacity="0.501961" />
<polygon points="71,64 61,94 112,89" id="46" fill="rgb(164,149,95)" fill-opacity="0.501961" />
<polygon points="136,130 154,118 109,103" id="47" fill="rgb(255,242,216)" fill-opacity="0.501961" />
<polygon points="74,40 94,7 105,49" id="48" fill="rgb(101,97,90)" fill-opacity="0.501961" />
<polygon points="88,144 117,113 135,144" id="49" fill="rgb(107,74,34)" fill-opacity="0.501961" />
<polygon points="42,8 46,23 104,0" id="50" fill="rgb(98,88,61)" fill-opacity="0.501961" />
<polygon points="211,108 219,116 215,127" id="51" fill="rgb(255,255,255)" fill-opacity="0.501961" />
<polygon points="0,99 14,64 0,129" id="52" fill="rgb(126,103,57)" fill-opacity="0.501961" />
<polygon points="224,10 246,30 199,0" id="53" fill="rgb(178,200,188)" fill-opacity="0.501961" />
<polygon points="227,43 248,12 256,49" id="54" fill="rgb(28,40,33)" fill-opacity="0.501961" />
<polygon points="118,44 147,15 146,51" id="55" fill="rgb(178,165,126)" fill-opacity="0.501961" />
<polygon points="233,0 236,14 204,0" id="56" fill="rgb(14,58,50)" fill-opacity="0.501961" />
<polygon points="151,70 113,93 94,68" id="57" fill="rgb(232,238,218)" fill-opacity="0.501961" />
<polygon points="71,50 0,109 23,43" id="58" fill="rgb(230,205,126)" fill-opacity="0.501961" />
<polygon points="0,144 0,117 35,144" id="59" fill="rgb(170,137,59)" fill-opacity="0.501961" />
<polygon points="106,112 55,144 88,144" id="60" fill="rgb(234,232,227)" fill-opacity="0.501961" />
<polygon points="146,134 130,144 163,144" id="61" fill="rgb(247,226,153)" fill-opacity="0.501961" />
<polygon points="57,63 68,92 0,107" id="62" fill="rgb(230,221,218)" fill-opacity="0.501961" />
<polygon points="232,67 209,80 236,99" id="63" fill="rgb(214,84,25)" fill-opacity="0.501961" />
<polygon points="177,68 184,72 182,79" id="64" fill="rgb(255,255,239)" fill-opacity="0.501961" />
<polygon points="129,54 135,65 175,75" id="65" fill="rgb(144,108,25)" fill-opacity="0.501961" />
</svg>