<?xml version="1.0" standalone="no"?>
<svg xmlns="http://www.w3.org/2000/svg" version="1.2" baseProfile="tiny" width="256" height="170" viewBox="0 0 256 170">
<rect x="0" y="0" width="256" height="170" id="0" fill="rgb(70,69,66)" fill-opacity="1" />
<polygon points="224,40 29,82 27,45" id="1" fill="rgb(162,170,171)" fill-opacity="0.501961" />
<polygon points="143,22 249,0 97,0" id="2" fill="rgb(255,250,165)" fill-opacity="0.501961" />
<polygon points="188,100 250,61 234,170" id="3" fill="rgb(0,0,0)" fill-opacity="0.501961" />
<polygon points="183,24 217,66 185,96" id="4" fill="rgb(182,187,194)" fill-opacity="0.501961" />
<polygon points="0,94 182,158 0,170" id="5" fill="rgb(21,18,19)" fill-opacity="0.501961" />
<polygon points="220,7 203,126 256,127" id="6" fill="rgb(0,0,0)" fill-opacity="0.501961" />
<polygon points="210,160 72,116 201,117" id="7" fill="rgb(129,133,139)" fill-opacity="0.501961" />
<polygon points="92,65 175,65 153,134" id="8" fill="rgb(11,17,25)" fill-opacity="0.501961" />
<polygon points="232,24 256,34 246,85" id="9" fill="rgb(171,174,173)" fill-opacity="0.501961" />
<polygon points="0,5 172,41 0,42" id="10" fill="rgb(6,16,26)" fill-opacity="0.501961" />
</svg>