<?xml version="1.0" standalone="no"?>
<svg xmlns="http://www.w3.org/2000/svg" version="1.2" baseProfile="tiny" width="256" height="170" viewBox="0 0 256 170">
<rect x="0" y="0" width="256" height="170" id="0" fill="rgb(88,90,89)" fill-opacity="1" />
<polygon points="251,119 0,4 0,48" id="1" fill="rgb(148,155,152)" fill-opacity="0.501961" />
<polygon points="201,23 256,121 250,22" id="2" fill="rgb(190,163,154)" fill-opacity="0.501961" />
<polygon points="165,28 256,0 153,0" id="3" fill="rgb(13,0,0)" fill-opacity="0.501961" />
<polygon points="4,111 11,32 92,118" id="4" fill="rgb(0,63,78)" fill-opacity="0.501961" />
<polygon points="139,170 0,170 0,146" id="5" fill="rgb(10,1,3)" fill-opacity="0.501961" />
<polygon points="177,63 84,30 109,72" id="6" fill="rgb(16,16,18)" fill-opacity="0.501961" />
<polygon points="198,112 111,137 167,156" id="7" fill="rgb(13,8,11)" fill-opacity="0.501961" />
<polygon points="139,10 236,42 123,53" id="8" fill="rgb(133,151,165)" fill-opacity="0.501961" />
<polygon points="136,75 186,107 174,73" id="9" fill="rgb(219,214,220)" fill-opacity="0.501961" />
<polygon points="40,141 108,135 103,170" id="10" fill="rgb(172,158,159)" fill-opacity="0.501961" />
<polygon points="247,91 193,47 190,106" id="11" fill="rgb(47,28,27)" fill-opacity="0.501961" />
<polygon points="138,99 89,83 120,106" id="12" fill="rgb(238,210,203)" fill-opacity="0.501961" />
<polygon points="173,89 160,132 146,101" id="13" fill="rgb(0,48,41)" fill-opacity="0.501961" />
<polygon points="256,78 158,170 256,170" id="14" fill="rgb(124,121,123)" fill-opacity="0.501961" />
<polygon points="256,22 141,16 256,0" id="15" fill="rgb(49,26,10)" fill-opacity="0.501961" />
<polygon points="107,22 50,80 20,20" id="16" fill="rgb(139,137,136)" fill-opacity="0.501961" />
<polygon points="0,48 34,99 34,42" id="17" fill="rgb(0,132,146)" fill-opacity="0.501961" />
<polygon points="15,170 117,19 0,136" id="18" fill="rgb(43,41,45)" fill-opacity="0.501961" />
<polygon points="132,132 119,128 129,113" id="19" fill="rgb(249,240,239)" fill-opacity="0.501961" />
<polygon points="95,105 123,118 48,115" id="20" fill="rgb(0,10,35)" fill-opacity="0.501961" />
<polygon points="14,0 -15,-18 0,60" id="21" fill="rgb(202,197,197)" fill-opacity="0.501961" />
<polygon points="101,150 124,178 207,98" id="22" fill="rgb(41,36,37)" fill-opacity="0.501961" />
<polygon points="178,10 52,0 10,15" id="23" fill="rgb(49,37,32)" fill-opacity="0.501961" />
<polygon points="187,54 29,95 139,86" id="24" fill="rgb(116,75,62)" fill-opacity="0.501961" />
<polygon points="33,158 31,141 58,141" id="25" fill="rgb(188,169,161)" fill-opacity="0.501961" />
<polygon points="113,57 96,75 90,61" id="26" fill="rgb(225,213,208)" fill-opacity="0.501961" />
<polygon points="170,103 206,80 172,112" id="27" fill="rgb(198,198,206)" fill-opacity="0.501961" />
<polygon points="127,54 93,55 101,4" id="28" fill="rgb(34,18,14)" fill-opacity="0.501961" />
<polygon points="193,107 256,97 256,111" id="29" fill="rgb(182,172,171)" fill-opacity="0.501961" />
</svg>