<?xml version="1.0" standalone="no"?>
<svg xmlns="http://www.w3.org/2000/svg" version="1.2" baseProfile="tiny" width="256" height="170" viewBox="0 0 256 170">
<rect x="0" y="0" width="256" height="170" id="0" fill="rgb(109,110,105)" fill-opacity="1" />
<polygon points="217,0 0,96 0,0" id="1" fill="rgb(226,218,193)" fill-opacity="0.501961" />
<polygon points="254,0 256,170 152,157" id="2" fill="rgb(0,5,14)" fill-opacity="0.501961" />
<polygon points="256,0 211,62 216,0" id="3" fill="rgb(0,0,0)" fill-opacity="0.501961" />
<polygon points="256,61 0,75 0,61" id="4" fill="rgb(42,31,17)" fill-opacity="0.501961" />
<polygon points="197,143 166,170 182,84" id="5" fill="rgb(180,187,171)" fill-opacity="0.501961" />
<polygon points="0,37 207,0 206,54" id="6" fill="rgb(181,182,167)" fill-opacity="0.501961" />
<polygon points="192,32 62,112 163,133" id="7" fill="rgb(51,64,75)" fill-opacity="0.501961" />
<polygon points="130,124 112,143 0,106" id="8" fill="rgb(206,195,171)" fill-opacity="0.501961" />
<polygon points="197,170 256,170 256,58" id="9" fill="rgb(20,24,25)" fill-opacity="0.501961" />
<polygon points="152,143 154,85 138,95" id="10" fill="rgb(202,196,197)" fill-opacity="0.501961" />
<polygon points="102,89 84,68 0,85" id="11" fill="rgb(203,190,163)" fill-opacity="0.501961" />
<polygon points="33,5 40,68 40,2" id="12" fill="rgb(26,27,7)" fill-opacity="0.501961" />
<polygon points="138,27 245,170 163,34" id="13" fill="rgb(34,45,59)" fill-opacity="0.501961" />
<polygon points="171,136 191,150 255,153" id="14" fill="rgb(186,175,156)" fill-opacity="0.501961" />
<polygon points="79,150 0,73 0,133" id="15" fill="rgb(170,162,144)" fill-opacity="0.501961" />
<polygon points="105,0 108,68 112,0" id="16" fill="rgb(22,17,5)" fill-opacity="0.501961" />
<polygon points="183,0 175,0 176,44" id="17" fill="rgb(31,19,5)" fill-opacity="0.501961" />
<polygon points="169,60 180,57 167,6" id="18" fill="rgb(203,242,252)" fill-opacity="0.501961" />
<polygon points="90,170 0,149 0,170" id="19" fill="rgb(31,38,52)" fill-opacity="0.501961" />
<polygon points="254,68 245,0 214,20" id="20" fill="rgb(0,0,1)" fill-opacity="0.501961" />
<polygon points="26,64 22,0 36,50" id="21" fill="rgb(251,252,234)" fill-opacity="0.501961" />
<polygon points="225,37 213,51 236,63" id="22" fill="rgb(81,154,195)" fill-opacity="0.501961" />
<polygon points="175,168 29,144 145,170" id="23" fill="rgb(22,30,48)" fill-opacity="0.501961" />
<polygon points="188,116 170,93 182,93" id="24" fill="rgb(255,255,255)" fill-opacity="0.501961" />
<polygon points="158,170 180,128 159,87" id="25" fill="rgb(33,33,36)" fill-opacity="0.501961" />
</svg>