<?xml version="1.0" standalone="no"?>
<svg xmlns="http://www.w3.org/2000/svg" version="1.2" baseProfile="tiny" width="256" height="170" viewBox="0 0 256 170">
<rect x="0" y="0" width="256" height="170" id="0" fill="rgb(77,71,64)" fill-opacity="1" />
<polygon points="0,170 0,96 128,170" id="1" fill="rgb(244,238,203)" fill-opacity="0.501961" />
<polygon points="174,0 0,0 0,62" id="2" fill="rgb(169,164,141)" fill-opacity="0.501961" />
<polygon points="229,170 256,155 67,96" id="3" fill="rgb(0,0,0)" fill-opacity="0.501961" />
<polygon points="32,170 36,59 0,79" id="4" fill="rgb(0,0,0)" fill-opacity="0.501961" />
<polygon points="25,54 232,-21 256,15" id="5" fill="rgb(0,0,0)" fill-opacity="0.501961" />
<polygon points="63,55 256,21 256,60" id="6" fill="rgb(8,0,0)" fill-opacity="0.501961" />
<polygon points="203,170 152,170 55,109" id="7" fill="rgb(0,0,0)" fill-opacity="0.501961" />
<polygon points="35,70 256,88 235,65" id="8" fill="rgb(0,0,0)" fill-opacity="0.501961" />
<polygon points="256,66 83,66 256,61" id="9" fill="rgb(255,255,255)" fill-opacity="0.501961" />
<polygon points="256,110 79,87 256,133" id="10" fill="rgb(0,0,0)" fill-opacity="0.501961" />
<polygon points="34,0 0,29 0,75" id="11" fill="rgb(253,239,201)" fill-opacity="0.501961" />
<polygon points="51,0 2,58 120,0" id="12" fill="rgb(53,49,44)" fill-opacity="0.501961" />
<polygon points="0,81 0,170 22,170" id="13" fill="rgb(252,249,230)" fill-opacity="0.501961" />
<polygon points="256,153 42,97 254,170" id="14" fill="rgb(0,0,0)" fill-opacity="0.501961" />
<polygon points="83,48 214,29 256,16" id="15" fill="rgb(255,255,255)" fill-opacity="0.501961" />
<polygon points="112,170 80,170 41,109" id="16" fill="rgb(226,216,184)" fill-opacity="0.501961" />
<polygon points="147,88 59,82 256,107" id="17" fill="rgb(206,204,200)" fill-opacity="0.501961" />
<polygon points="184,120 161,98 36,76" id="18" fill="rgb(0,0,0)" fill-opacity="0.501961" />
<polygon points="27,0 45,0 10,38" id="19" fill="rgb(242,245,244)" fill-opacity="0.501961" />
<polygon points="27,0 0,26 0,0" id="20" fill="rgb(7,5,0)" fill-opacity="0.501961" />
<polygon points="23,60 49,54 116,44" id="21" fill="rgb(255,255,255)" fill-opacity="0.501961" />
<polygon points="175,0 82,31 152,0" id="22" fill="rgb(231,225,207)" fill-opacity="0.501961" />
<polygon points="182,41 256,53 182,65" id="23" fill="rgb(136,105,91)" fill-opacity="0.501961" />
<polygon points="249,98 218,71 264,61" id="24" fill="rgb(4,0,0)" fill-opacity="0.501961" />
<polygon points="256,153 169,126 188,104" id="25" fill="rgb(133,109,94)" fill-opacity="0.501961" />
<polygon points="130,59 36,61 212,28" id="26" fill="rgb(0,0,0)" fill-opacity="0.501961" />
<polygon points="80,64 16,65 31,68" id="27" fill="rgb(208,204,194)" fill-opacity="0.501961" />
</svg>