<?xml version="1.0" standalone="no"?>
<svg xmlns="http://www.w3.org/2000/svg" version="1.2" baseProfile="tiny" width="256" height="151" viewBox="0 0 256 151">
<rect x="0" y="0" width="256" height="151" id="0" fill="rgb(25,41,51)" fill-opacity="1" />
<polygon points="112,47 86,136 184,109" id="1" fill="rgb(77,106,116)" fill-opacity="0.501961" />
<polygon points="97,104 24,10 0,88" id="2" fill="rgb(0,0,0)" fill-opacity="0.501961" />
<polygon points="205,16 181,83 250,41" id="3" fill="rgb(66,107,146)" fill-opacity="0.501961" />
<polygon points="139,99 148,13 244,0" id="4" fill="rgb(0,0,0)" fill-opacity="0.501961" />
<polygon points="0,119 0,144 82,105" id="5" fill="rgb(60,121,180)" fill-opacity="0.501961" />
<polygon points="145,114 256,110 216,151" id="6" fill="rgb(0,0,0)" fill-opacity="0.501961" />
<polygon points="6,146 92,17 43,50" id="7" fill="rgb(54,90,111)" fill-opacity="0.501961" />
<polygon points="186,104 118,149 160,151" id="8" fill="rgb(58,103,140)" fill-opacity="0.501961" />
<polygon points="122,45 134,74 88,78" id="9" fill="rgb(84,136,178)" fill-opacity="0.501961" />
<polygon points="153,26 130,0 106,29" id="10" fill="rgb(53,100,146)" fill-opacity="0.501961" />
<polygon points="196,20 185,72 222,28" id="11" fill="rgb(49,95,157)" fill-opacity="0.501961" />
<polygon points="51,0 25,102 0,47" id="12" fill="rgb(0,0,0)" fill-opacity="0.501961" />
<polygon points="225,92 190,151 258,125" id="13" fill="rgb(0,0,0)" fill-opacity="0.501961" />
<polygon points="223,31 188,0 256,0" id="14" fill="rgb(0,0,0)" fill-opacity="0.501961" />
<polygon points="177,102 176,117 135,72" id="15" fill="rgb(101,133,166)" fill-opacity="0.501961" />
<polygon points="193,41 166,10 115,109" id="16" fill="rgb(0,0,0)" fill-opacity="0.501961" />
<polygon points="36,89 45,99 40,65" id="17" fill="rgb(111,173,178)" fill-opacity="0.501961" />
<polygon points="34,87 58,106 0,96" id="18" fill="rgb(0,0,0)" fill-opacity="0.501961" />
<polygon points="21,26 10,5 -16,6" id="19" fill="rgb(89,144,138)" fill-opacity="0.501961" />
<polygon points="113,34 77,57 107,0" id="20" fill="rgb(0,0,0)" fill-opacity="0.501961" />
<polygon points="203,75 218,81 188,34" id="21" fill="rgb(66,139,187)" fill-opacity="0.501961" />
<polygon points="150,117 159,90 184,78" id="22" fill="rgb(0,0,0)" fill-opacity="0.501961" />
<polygon points="98,66 180,103 30,12" id="23" fill="rgb(67,103,115)" fill-opacity="0.501961" />
<polygon points="98,151 72,64 45,56" id="24" fill="rgb(0,0,0)" fill-opacity="0.501961" />
<polygon points="66,140 81,103 91,112" id="25" fill="rgb(54,111,161)" fill-opacity="0.501961" />
<polygon points="129,46 119,50 119,88" id="26" fill="rgb(101,179,236)" fill-opacity="0.501961" />
<polygon points="203,91 214,105 177,107" id="27" fill="rgb(82,122,158)" fill-opacity="0.501961" />
<polygon points="195,13 179,18 163,0" id="28" fill="rgb(62,106,161)" fill-opacity="0.501961" />
<polygon points="46,127 43,151 77,149" id="29" fill="rgb(0,0,0)" fill-opacity="0.501961" />
<polygon points="256,103 232,88 228,97" id="30" fill="rgb(86,137,198)" fill-opacity="0.501961" />
<polygon points="163,151 135,109 176,151" id="31" fill="rgb(62,129,176)" fill-opacity="0.501961" />
<polygon points="40,102 0,84 0,29" id="32" fill="rgb(0,0,0)" fill-opacity="0.501961" />
<polygon points="239,56 221,46 217,111" id="33" fill="rgb(0,0,0)" fill-opacity="0.501961" />
<polygon points="81,23 64,57 59,57" id="34" fill="rgb(86,143,237)" fill-opacity="0.501961" />
<polygon points="62,102 3,109 61,128" id="35" fill="rgb(61,99,126)" fill-opacity="0.501961" />
<polygon points="142,31 147,26 148,39" id="36" fill="rgb(100,212,255)" fill-opacity="0.501961" />
<polygon points="197,73 169,151 182,84" id="37" fill="rgb(0,0,0)" fill-opacity="0.501961" />
<polygon points="226,100 255,106 256,151" id="38" fill="rgb(0,0,0)" fill-opacity="0.501961" />
<polygon points="88,86 117,70 118,126" id="39" fill="rgb(46,53,32)" fill-opacity="0.501961" />
<polygon points="166,117 151,101 151,151" id="40" fill="rgb(1,11,21)" fill-opacity="0.501961" />
<polygon points="185,57 158,88 123,25" id="41" fill="rgb(0,0,0)" fill-opacity="0.501961" />
<polygon points="162,145 177,111 157,151" id="42" fill="rgb(141,183,247)" fill-opacity="0.501961" />
<polygon points="211,65 256,79 256,90" id="43" fill="rgb(50,99,131)" fill-opacity="0.501961" />
<polygon points="73,15 82,2 84,12" id="44" fill="rgb(80,154,230)" fill-opacity="0.501961" />
<polygon points="183,70 152,101 140,99" id="45" fill="rgb(83,117,169)" fill-opacity="0.501961" />
<polygon points="189,105 154,113 183,104" id="46" fill="rgb(188,195,190)" fill-opacity="0.501961" />
<polygon points="181,10 184,0 231,81" id="47" fill="rgb(1,5,14)" fill-opacity="0.501961" />
<polygon points="50,29 56,55 10,36" id="48" fill="rgb(0,0,0)" fill-opacity="0.501961" />
<polygon points="57,32 92,101 63,35" id="49" fill="rgb(94,122,156)" fill-opacity="0.501961" />
<polygon points="115,86 150,48 89,87" id="50" fill="rgb(79,112,120)" fill-opacity="0.501961" />
<polygon points="25,151 43,123 18,122" id="51" fill="rgb(26,38,19)" fill-opacity="0.501961" />
<polygon points="89,151 100,101 78,132" id="52" fill="rgb(1,0,0)" fill-opacity="0.501961" />
<polygon points="98,56 97,108 70,47" id="53" fill="rgb(12,10,0)" fill-opacity="0.501961" />
<polygon points="57,34 50,20 62,3" id="54" fill="rgb(48,108,165)" fill-opacity="0.501961" />
<polygon points="118,62 93,17 87,29" id="55" fill="rgb(0,0,0)" fill-opacity="0.501961" />
<polygon points="121,0 89,0 111,16" id="56" fill="rgb(0,0,0)" fill-opacity="0.501961" />
<polygon points="41,69 118,109 41,80" id="57" fill="rgb(0,0,0)" fill-opacity="0.501961" />
<polygon points="193,120 219,108 197,100" id="58" fill="rgb(58,80,99)" fill-opacity="0.501961" />
<polygon points="69,119 103,117 118,127" id="59" fill="rgb(87,131,140)" fill-opacity="0.501961" />
<polygon points="103,108 95,51 100,68" id="60" fill="rgb(137,158,116)" fill-opacity="0.501961" />
<polygon points="137,151 164,151 156,145" id="61" fill="rgb(64,155,254)" fill-opacity="0.501961" />
<polygon points="129,68 131,114 124,60" id="62" fill="rgb(97,135,159)" fill-opacity="0.501961" />
<polygon points="136,141 130,97 117,112" id="63" fill="rgb(79,110,118)" fill-opacity="0.501961" />
<polygon points="18,109 0,141 22,151" id="64" fill="rgb(36,103,146)" fill-opacity="0.501961" />
<polygon points="93,58 73,47 64,56" id="65" fill="rgb(0,0,0)" fill-opacity="0.501961" />
<polygon points="157,89 244,63 177,94" id="66" fill="rgb(3,1,2)" fill-opacity="0.501961" />
<polygon points="217,45 199,49 179,64" id="67" fill="rgb(90,152,207)" fill-opacity="0.501961" />
<polygon points="162,111 174,134 124,95" id="68" fill="rgb(5,13,31)" fill-opacity="0.501961" />
<polygon points="184,135 190,147 174,132" id="69" fill="rgb(116,185,230)" fill-opacity="0.501961" />
<polygon points="241,11 230,57 243,13" id="70" fill="rgb(88,142,142)" fill-opacity="0.501961" />
<polygon points="97,151 175,116 151,121" id="71" fill="rgb(60,96,111)" fill-opacity="0.501961" />
<polygon points="114,18 125,15 86,12" id="72" fill="rgb(109,135,127)" fill-opacity="0.501961" />
<polygon points="79,59 34,51 38,56" id="73" fill="rgb(92,125,145)" fill-opacity="0.501961" />
<polygon points="82,57 106,47 144,43" id="74" fill="rgb(62,94,141)" fill-opacity="0.501961" />
<polygon points="116,45 120,26 142,25" id="75" fill="rgb(3,1,0)" fill-opacity="0.501961" />
<polygon points="253,111 211,157 172,124" id="76" fill="rgb(0,0,0)" fill-opacity="0.501961" />
<polygon points="123,34 124,0 156,0" id="77" fill="rgb(46,83,119)" fill-opacity="0.501961" />
<polygon points="214,13 216,30 253,56" id="78" fill="rgb(61,81,78)" fill-opacity="0.501961" />
</svg>