<?xml version="1.0" standalone="no"?>
<svg xmlns="http://www.w3.org/2000/svg" version="1.2" baseProfile="tiny" width="256" height="170" viewBox="0 0 256 170">
<rect x="0" y="0" width="256" height="170" id="0" fill="rgb(102,16,18)" fill-opacity="1" />
<polygon points="0,170 0,32 96,170" id="1" fill="rgb(0,0,0)" fill-opacity="0.501961" />
<polygon points="171,130 137,146 0,14" id="2" fill="rgb(255,34,45)" fill-opacity="0.501961" />
<polygon points="253,123 143,0 216,142" id="3" fill="rgb(223,48,55)" fill-opacity="0.501961" />
<polygon points="236,170 106,170 190,127" id="4" fill="rgb(0,0,0)" fill-opacity="0.501961" />
<polygon points="46,12 133,105 201,106" id="5" fill="rgb(0,0,0)" fill-opacity="0.501961" />
<polygon points="148,0 0,0 138,50" id="6" fill="rgb(201,31,37)" fill-opacity="0.501961" />
<polygon points="0,47 73,65 0,170" id="7" fill="rgb(0,0,0)" fill-opacity="0.501961" />
<polygon points="35,14 0,45 0,0" id="8" fill="rgb(241,37,44)" fill-opacity="0.501961" />
<polygon points="183,13 153,45 196,53" id="9" fill="rgb(178,118,120)" fill-opacity="0.501961" />
<polygon points="25,21 68,15 79,56" id="10" fill="rgb(0,0,0)" fill-opacity="0.501961" />
<polygon points="161,75 256,107 255,0" id="11" fill="rgb(135,15,17)" fill-opacity="0.501961" />
<polygon points="88,74 67,122 34,116" id="12" fill="rgb(199,27,33)" fill-opacity="0.501961" />
<polygon points="254,170 227,134 256,121" id="13" fill="rgb(0,0,0)" fill-opacity="0.501961" />
<polygon points="184,119 99,88 87,135" id="14" fill="rgb(210,27,35)" fill-opacity="0.501961" />
<polygon points="217,148 248,89 196,87" id="15" fill="rgb(227,23,33)" fill-opacity="0.501961" />
<polygon points="78,60 0,12 34,58" id="16" fill="rgb(215,29,37)" fill-opacity="0.501961" />
<polygon points="177,33 124,0 256,0" id="17" fill="rgb(150,22,25)" fill-opacity="0.501961" />
<polygon points="122,87 64,73 64,102" id="18" fill="rgb(227,29,39)" fill-opacity="0.501961" />
<polygon points="83,170 138,144 134,127" id="19" fill="rgb(24,1,1)" fill-opacity="0.501961" />
<polygon points="166,114 62,61 199,74" id="20" fill="rgb(34,2,2)" fill-opacity="0.501961" />
<polygon points="85,123 88,160 106,148" id="21" fill="rgb(224,30,37)" fill-opacity="0.501961" />
<polygon points="0,170 83,170 89,111" id="22" fill="rgb(14,3,3)" fill-opacity="0.501961" />
<polygon points="186,62 103,0 206,134" id="23" fill="rgb(120,16,17)" fill-opacity="0.501961" />
<polygon points="169,22 162,48 173,40" id="24" fill="rgb(225,207,208)" fill-opacity="0.501961" />
</svg>