<?xml version="1.0" standalone="no"?>
<svg xmlns="http://www.w3.org/2000/svg" version="1.2" baseProfile="tiny" width="256" height="171" viewBox="0 0 256 171">
<rect x="0" y="0" width="256" height="171" id="0" fill="rgb(161,202,218)" fill-opacity="1" />
<polygon points="55,99 0,86 0,145" id="1" fill="rgb(0,105,176)" fill-opacity="0.501961" />
<polygon points="192,84 213,21 256,43" id="2" fill="rgb(0,100,173)" fill-opacity="0.501961" />
<polygon points="81,73 0,171 217,146" id="3" fill="rgb(202,227,236)" fill-opacity="0.501961" />
<polygon points="256,25 256,55 192,44" id="4" fill="rgb(0,127,189)" fill-opacity="0.501961" />
<polygon points="150,102 256,126 151,0" id="5" fill="rgb(210,219,222)" fill-opacity="0.501961" />
<polygon points="228,119 182,115 256,144" id="6" fill="rgb(53,119,148)" fill-opacity="0.501961" />
<polygon points="0,144 32,81 0,95" id="7" fill="rgb(0,132,191)" fill-opacity="0.501961" />
<polygon points="176,63 250,0 0,18" id="8" fill="rgb(189,221,233)" fill-opacity="0.501961" />
<polygon points="37,54 15,38 73,59" id="9" fill="rgb(26,98,129)" fill-opacity="0.501961" />
<polygon points="172,70 145,69 204,101" id="10" fill="rgb(228,129,99)" fill-opacity="0.501961" />
<polygon points="60,52 124,47 58,57" id="11" fill="rgb(0,71,106)" fill-opacity="0.501961" />
<polygon points="141,97 215,145 132,75" id="12" fill="rgb(77,142,170)" fill-opacity="0.501961" />
<polygon points="2,53 33,36 52,33" id="13" fill="rgb(0,85,139)" fill-opacity="0.501961" />
<polygon points="256,132 256,47 188,106" id="14" fill="rgb(199,227,238)" fill-opacity="0.501961" />
<polygon points="19,99 83,72 84,75" id="15" fill="rgb(27,68,102)" fill-opacity="0.501961" />
<polygon points="115,49 155,104 129,54" id="16" fill="rgb(67,129,155)" fill-opacity="0.501961" />
<polygon points="48,111 0,106 0,141" id="17" fill="rgb(1,136,190)" fill-opacity="0.501961" />
<polygon points="142,76 68,76 109,83" id="18" fill="rgb(34,126,167)" fill-opacity="0.501961" />
<polygon points="0,55 118,58 0,91" id="19" fill="rgb(204,227,235)" fill-opacity="0.501961" />
<polygon points="169,76 104,114 18,100" id="20" fill="rgb(200,223,231)" fill-opacity="0.501961" />
<polygon points="211,72 212,27 256,30" id="21" fill="rgb(2,137,190)" fill-opacity="0.501961" />
<polygon points="216,142 256,133 228,142" id="22" fill="rgb(0,57,120)" fill-opacity="0.501961" />
</svg>