<?xml version="1.0" standalone="no"?>
<svg xmlns="http://www.w3.org/2000/svg" version="1.2" baseProfile="tiny" width="256" height="144" viewBox="0 0 256 144">
<rect x="0" y="0" width="256" height="144" id="0" fill="rgb(96,69,52)" fill-opacity="1" />
<polygon points="224,0 87,55 22,0" id="1" fill="rgb(255,246,248)" fill-opacity="0.501961" />
<polygon points="256,53 0,138 256,144" id="2" fill="rgb(13,5,0)" fill-opacity="0.501961" />
<polygon points="135,0 136,42 190,42" id="3" fill="rgb(255,250,241)" fill-opacity="0.501961" />
<polygon points="0,7 0,144 84,144" id="4" fill="rgb(5,0,0)" fill-opacity="0.501961" />
<polygon points="20,82 26,1 106,74" id="5" fill="rgb(240,123,41)" fill-opacity="0.501961" />
<polygon points="163,47 95,44 117,115" id="6" fill="rgb(0,0,0)" fill-opacity="0.501961" />
<polygon points="213,0 171,0 140,144" id="7" fill="rgb(145,121,123)" fill-opacity="0.501961" />
<polygon points="129,135 141,107 103,108" id="8" fill="rgb(187,153,138)" fill-opacity="0.501961" />
<polygon points="73,87 65,111 25,34" id="9" fill="rgb(255,118,0)" fill-opacity="0.501961" />
<polygon points="79,97 76,7 108,89" id="10" fill="rgb(194,160,163)" fill-opacity="0.501961" />
<polygon points="122,41 76,0 125,0" id="11" fill="rgb(255,237,241)" fill-opacity="0.501961" />
<polygon points="148,61 156,95 0,135" id="12" fill="rgb(15,8,0)" fill-opacity="0.501961" />
<polygon points="256,144 256,81 76,143" id="13" fill="rgb(25,15,0)" fill-opacity="0.501961" />
</svg>