<?xml version="1.0" standalone="no"?>
<svg xmlns="http://www.w3.org/2000/svg" version="1.2" baseProfile="tiny" width="256" height="153" viewBox="0 0 256 153">
<rect x="0" y="0" width="256" height="153" id="0" fill="rgb(103,73,52)" fill-opacity="1" />
<polygon points="166,5 188,74 59,34" id="1" fill="rgb(251,206,168)" fill-opacity="0.501961" />
<polygon points="194,49 28,67 222,136" id="2" fill="rgb(173,51,57)" fill-opacity="0.501961" />
<polygon points="221,153 101,130 30,57" id="3" fill="rgb(36,0,3)" fill-opacity="0.501961" />
<polygon points="0,153 99,0 0,0" id="4" fill="rgb(42,71,27)" fill-opacity="0.501961" />
<polygon points="256,0 256,89 148,0" id="5" fill="rgb(38,67,23)" fill-opacity="0.501961" />
<polygon points="81,22 184,14 90,84" id="6" fill="rgb(206,168,136)" fill-opacity="0.501961" />
<polygon points="165,61 205,100 135,86" id="7" fill="rgb(41,0,8)" fill-opacity="0.501961" />
<polygon points="114,103 93,85 194,113" id="8" fill="rgb(255,102,77)" fill-opacity="0.501961" />
<polygon points="71,101 68,117 44,94" id="9" fill="rgb(255,153,125)" fill-opacity="0.501961" />
<polygon points="202,150 56,153 172,103" id="10" fill="rgb(105,21,37)" fill-opacity="0.501961" />
<polygon points="155,36 44,57 163,78" id="11" fill="rgb(167,79,71)" fill-opacity="0.501961" />
<polygon points="148,9 159,7 154,27" id="12" fill="rgb(0,0,0)" fill-opacity="0.501961" />
<polygon points="172,107 183,121 218,103" id="13" fill="rgb(227,166,114)" fill-opacity="0.501961" />
<polygon points="116,9 82,0 105,30" id="14" fill="rgb(0,17,16)" fill-opacity="0.501961" />
<polygon points="144,110 37,78 133,132" id="15" fill="rgb(16,0,0)" fill-opacity="0.501961" />
<polygon points="217,114 168,153 177,124" id="16" fill="rgb(7,0,0)" fill-opacity="0.501961" />
<polygon points="187,134 256,135 252,179" id="17" fill="rgb(98,127,123)" fill-opacity="0.501961" />
<polygon points="0,132 0,153 80,153" id="18" fill="rgb(92,127,133)" fill-opacity="0.501961" />
<polygon points="122,63 138,52 136,104" id="19" fill="rgb(255,112,105)" fill-opacity="0.501961" />
<polygon points="153,33 165,14 182,37" id="20" fill="rgb(251,238,199)" fill-opacity="0.501961" />
<polygon points="123,153 167,153 167,146" id="21" fill="rgb(255,105,97)" fill-opacity="0.501961" />
<polygon points="196,0 256,117 174,45" id="22" fill="rgb(68,86,36)" fill-opacity="0.501961" />
<polygon points="157,99 147,76 140,98" id="23" fill="rgb(0,0,0)" fill-opacity="0.501961" />
<polygon points="103,88 90,83 89,48" id="24" fill="rgb(227,210,159)" fill-opacity="0.501961" />
<polygon points="0,107 45,112 72,8" id="25" fill="rgb(104,100,47)" fill-opacity="0.501961" />
<polygon points="70,108 109,30 108,52" id="26" fill="rgb(111,48,49)" fill-opacity="0.501961" />
<polygon points="82,38 93,20 147,35" id="27" fill="rgb(229,209,165)" fill-opacity="0.501961" />
<polygon points="222,115 182,153 211,135" id="28" fill="rgb(255,127,96)" fill-opacity="0.501961" />
<polygon points="122,94 123,66 104,85" id="29" fill="rgb(29,0,7)" fill-opacity="0.501961" />
<polygon points="243,63 214,135 256,138" id="30" fill="rgb(49,70,26)" fill-opacity="0.501961" />
<polygon points="62,14 -9,5 19,-2" id="31" fill="rgb(0,0,14)" fill-opacity="0.501961" />
<polygon points="66,110 62,153 126,122" id="32" fill="rgb(120,24,39)" fill-opacity="0.501961" />
<polygon points="57,93 56,59 72,82" id="33" fill="rgb(0,0,0)" fill-opacity="0.501961" />
<polygon points="112,18 122,13 139,44" id="34" fill="rgb(239,230,200)" fill-opacity="0.501961" />
<polygon points="89,116 0,141 0,112" id="35" fill="rgb(46,59,25)" fill-opacity="0.501961" />
<polygon points="164,54 174,59 173,47" id="36" fill="rgb(255,255,210)" fill-opacity="0.501961" />
<polygon points="178,108 118,127 196,95" id="37" fill="rgb(20,0,2)" fill-opacity="0.501961" />
<polygon points="166,109 97,149 171,139" id="38" fill="rgb(137,62,65)" fill-opacity="0.501961" />
<polygon points="135,19 121,0 133,27" id="39" fill="rgb(0,28,45)" fill-opacity="0.501961" />
<polygon points="107,3 63,37 87,6" id="40" fill="rgb(0,0,7)" fill-opacity="0.501961" />
<polygon points="152,60 182,122 135,45" id="41" fill="rgb(203,107,91)" fill-opacity="0.501961" />
<polygon points="202,93 174,153 197,153" id="42" fill="rgb(113,30,33)" fill-opacity="0.501961" />
<polygon points="220,101 181,41 218,112" id="43" fill="rgb(210,129,91)" fill-opacity="0.501961" />
<polygon points="197,78 146,73 211,109" id="44" fill="rgb(66,14,20)" fill-opacity="0.501961" />
<polygon points="182,60 172,99 185,97" id="45" fill="rgb(215,78,70)" fill-opacity="0.501961" />
<polygon points="189,148 147,153 196,153" id="46" fill="rgb(255,88,79)" fill-opacity="0.501961" />
<polygon points="156,47 145,55 153,35" id="47" fill="rgb(23,29,11)" fill-opacity="0.501961" />
<polygon points="147,29 200,73 201,68" id="48" fill="rgb(249,145,123)" fill-opacity="0.501961" />
<polygon points="59,95 58,113 47,91" id="49" fill="rgb(255,59,62)" fill-opacity="0.501961" />
<polygon points="101,12 186,15 93,0" id="50" fill="rgb(84,94,71)" fill-opacity="0.501961" />
<polygon points="63,134 58,151 0,142" id="51" fill="rgb(82,114,111)" fill-opacity="0.501961" />
<polygon points="71,58 116,54 91,46" id="52" fill="rgb(74,37,21)" fill-opacity="0.501961" />
<polygon points="223,113 198,65 243,69" id="53" fill="rgb(97,103,39)" fill-opacity="0.501961" />
<polygon points="106,26 90,6 110,18" id="54" fill="rgb(0,0,0)" fill-opacity="0.501961" />
<polygon points="154,33 139,12 137,29" id="55" fill="rgb(254,239,202)" fill-opacity="0.501961" />
<polygon points="169,62 167,89 180,92" id="56" fill="rgb(0,0,0)" fill-opacity="0.501961" />
<polygon points="196,107 185,124 180,107" id="57" fill="rgb(207,208,140)" fill-opacity="0.501961" />
<polygon points="89,71 39,0 69,0" id="58" fill="rgb(67,62,37)" fill-opacity="0.501961" />
<polygon points="139,109 94,88 171,106" id="59" fill="rgb(255,92,74)" fill-opacity="0.501961" />
<polygon points="146,57 138,48 87,45" id="60" fill="rgb(228,172,129)" fill-opacity="0.501961" />
<polygon points="63,43 94,70 75,96" id="61" fill="rgb(165,69,77)" fill-opacity="0.501961" />
<polygon points="146,60 164,89 153,52" id="62" fill="rgb(222,105,100)" fill-opacity="0.501961" />
<polygon points="82,148 148,149 79,153" id="63" fill="rgb(38,4,8)" fill-opacity="0.501961" />
<polygon points="196,116 195,107 224,106" id="64" fill="rgb(255,67,49)" fill-opacity="0.501961" />
<polygon points="139,95 160,98 148,63" id="65" fill="rgb(45,7,13)" fill-opacity="0.501961" />
<polygon points="56,0 0,119 0,102" id="66" fill="rgb(117,107,46)" fill-opacity="0.501961" />
<polygon points="167,27 256,28 256,16" id="67" fill="rgb(33,37,25)" fill-opacity="0.501961" />
<polygon points="72,101 61,103 74,110" id="68" fill="rgb(245,214,164)" fill-opacity="0.501961" />
<polygon points="100,43 165,49 186,46" id="69" fill="rgb(91,79,37)" fill-opacity="0.501961" />
<polygon points="94,91 103,92 56,135" id="70" fill="rgb(13,0,0)" fill-opacity="0.501961" />
<polygon points="180,90 141,110 186,95" id="71" fill="rgb(247,79,66)" fill-opacity="0.501961" />
</svg>