<?xml version="1.0" standalone="no"?>
<svg xmlns="http://www.w3.org/2000/svg" version="1.2" baseProfile="tiny" width="256" height="170" viewBox="0 0 256 170">
<rect x="0" y="0" width="256" height="170" id="0" fill="rgb(88,89,90)" fill-opacity="1" />
<polygon points="254,170 256,0 155,17" id="1" fill="rgb(152,144,140)" fill-opacity="0.501961" />
<polygon points="0,34 83,0 0,0" id="2" fill="rgb(0,0,0)" fill-opacity="0.501961" />
<polygon points="110,84 136,49 114,52" id="3" fill="rgb(250,255,255)" fill-opacity="0.501961" />
<polygon points="199,96 189,63 94,90" id="4" fill="rgb(29,9,0)" fill-opacity="0.501961" />
<polygon points="18,170 24,139 157,170" id="5" fill="rgb(0,40,35)" fill-opacity="0.501961" />
<polygon points="85,114 58,68 0,114" id="6" fill="rgb(29,104,193)" fill-opacity="0.501961" />
<polygon points="135,155 193,114 192,155" id="7" fill="rgb(46,20,0)" fill-opacity="0.501961" />
<polygon points="89,111 18,119 4,140" id="8" fill="rgb(2,2,1)" fill-opacity="0.501961" />
<polygon points="23,130 5,185 0,152" id="9" fill="rgb(192,201,241)" fill-opacity="0.501961" />
<polygon points="147,54 156,104 131,47" id="10" fill="rgb(21,0,0)" fill-opacity="0.501961" />
<polygon points="252,170 170,170 224,119" id="11" fill="rgb(143,125,102)" fill-opacity="0.501961" />
<polygon points="174,126 206,92 96,123" id="12" fill="rgb(125,129,144)" fill-opacity="0.501961" />
<polygon points="93,71 180,80 164,121" id="13" fill="rgb(44,44,49)" fill-opacity="0.501961" />
<polygon points="189,93 237,87 210,120" id="14" fill="rgb(21,79,118)" fill-opacity="0.501961" />
<polygon points="73,132 86,142 78,170" id="15" fill="rgb(168,168,175)" fill-opacity="0.501961" />
<polygon points="87,0 54,86 0,28" id="16" fill="rgb(82,71,61)" fill-opacity="0.501961" />
<polygon points="108,170 126,108 165,154" id="17" fill="rgb(62,56,50)" fill-opacity="0.501961" />
<polygon points="126,144 149,123 147,109" id="18" fill="rgb(211,205,201)" fill-opacity="0.501961" />
<polygon points="126,49 116,67 132,76" id="19" fill="rgb(219,225,255)" fill-opacity="0.501961" />
<polygon points="106,32 78,13 80,53" id="20" fill="rgb(36,111,166)" fill-opacity="0.501961" />
<polygon points="0,141 0,122 88,117" id="21" fill="rgb(43,38,34)" fill-opacity="0.501961" />
<polygon points="68,94 65,103 11,84" id="22" fill="rgb(0,23,76)" fill-opacity="0.501961" />
<polygon points="0,119 18,77 20,120" id="23" fill="rgb(132,143,176)" fill-opacity="0.501961" />
<polygon points="73,135 5,154 74,170" id="24" fill="rgb(7,67,60)" fill-opacity="0.501961" />
<polygon points="139,104 135,134 148,121" id="25" fill="rgb(214,205,195)" fill-opacity="0.501961" />
<polygon points="186,43 151,83 193,80" id="26" fill="rgb(105,65,37)" fill-opacity="0.501961" />
<polygon points="66,0 0,25 0,0" id="27" fill="rgb(22,12,0)" fill-opacity="0.501961" />
<polygon points="0,170 21,176 1,139" id="28" fill="rgb(171,180,212)" fill-opacity="0.501961" />
<polygon points="198,78 204,39 190,53" id="29" fill="rgb(184,183,206)" fill-opacity="0.501961" />
<polygon points="195,148 219,170 134,170" id="30" fill="rgb(129,90,41)" fill-opacity="0.501961" />
<polygon points="118,18 135,23 160,-10" id="31" fill="rgb(0,43,82)" fill-opacity="0.501961" />
<polygon points="119,98 109,114 117,133" id="32" fill="rgb(183,187,192)" fill-opacity="0.501961" />
<polygon points="191,99 176,122 178,97" id="33" fill="rgb(200,186,196)" fill-opacity="0.501961" />
<polygon points="81,49 11,66 148,109" id="34" fill="rgb(103,94,88)" fill-opacity="0.501961" />
<polygon points="256,0 175,0 115,48" id="35" fill="rgb(119,110,102)" fill-opacity="0.501961" />
<polygon points="202,103 182,110 215,50" id="36" fill="rgb(92,73,61)" fill-opacity="0.501961" />
</svg>