<?xml version="1.0" standalone="no"?>
<svg xmlns="http://www.w3.org/2000/svg" version="1.2" baseProfile="tiny" width="256" height="170" viewBox="0 0 256 170">
<rect x="0" y="0" width="256" height="170" id="0" fill="rgb(68,82,52)" fill-opacity="1" />
<polygon points="225,170 185,170 208,130" id="1" fill="rgb(255,255,255)" fill-opacity="0.501961" />
<polygon points="122,115 0,170 191,170" id="2" fill="rgb(5,11,4)" fill-opacity="0.501961" />
<polygon points="0,54 0,75 101,87" id="3" fill="rgb(177,210,134)" fill-opacity="0.501961" />
<polygon points="256,64 168,107 165,63" id="4" fill="rgb(158,160,112)" fill-opacity="0.501961" />
<polygon points="0,23 121,24 131,105" id="5" fill="rgb(14,22,11)" fill-opacity="0.501961" />
<polygon points="191,0 255,0 250,170" id="6" fill="rgb(116,140,84)" fill-opacity="0.501961" />
<polygon points="107,89 120,114 65,103" id="7" fill="rgb(166,201,118)" fill-opacity="0.501961" />
<polygon points="0,102 37,170 65,92" id="8" fill="rgb(13,24,11)" fill-opacity="0.501961" />
<polygon points="219,82 236,154 180,116" id="9" fill="rgb(18,7,23)" fill-opacity="0.501961" />
<polygon points="128,91 159,157 146,86" id="10" fill="rgb(143,173,99)" fill-opacity="0.501961" />
<polygon points="52,10 89,0 97,52" id="11" fill="rgb(123,151,91)" fill-opacity="0.501961" />
<polygon points="0,8 83,34 0,62" id="12" fill="rgb(18,25,15)" fill-opacity="0.501961" />
<polygon points="172,0 97,43 96,0" id="13" fill="rgb(16,25,11)" fill-opacity="0.501961" />
<polygon points="254,52 177,55 256,69" id="14" fill="rgb(20,29,15)" fill-opacity="0.501961" />
<polygon points="219,145 196,133 221,170" id="15" fill="rgb(255,237,246)" fill-opacity="0.501961" />
<polygon points="154,70 246,26 145,6" id="16" fill="rgb(103,130,73)" fill-opacity="0.501961" />
<polygon points="222,111 184,68 171,170" id="17" fill="rgb(52,36,47)" fill-opacity="0.501961" />
<polygon points="34,52 68,94 9,70" id="18" fill="rgb(152,182,116)" fill-opacity="0.501961" />
<polygon points="246,149 256,135 228,102" id="19" fill="rgb(170,192,129)" fill-opacity="0.501961" />
<polygon points="94,97 69,35 142,61" id="20" fill="rgb(28,37,22)" fill-opacity="0.501961" />
<polygon points="244,170 221,169 231,113" id="21" fill="rgb(21,16,13)" fill-opacity="0.501961" />
<polygon points="256,17 223,0 256,0" id="22" fill="rgb(164,192,133)" fill-opacity="0.501961" />
<polygon points="0,100 2,84 27,94" id="23" fill="rgb(156,188,122)" fill-opacity="0.501961" />
<polygon points="208,144 186,162 200,170" id="24" fill="rgb(253,235,239)" fill-opacity="0.501961" />
<polygon points="119,141 118,64 145,133" id="25" fill="rgb(19,25,16)" fill-opacity="0.501961" />
<polygon points="172,48 170,105 185,84" id="26" fill="rgb(184,164,142)" fill-opacity="0.501961" />
</svg>