<?xml version="1.0" standalone="no"?>
<svg xmlns="http://www.w3.org/2000/svg" version="1.2" baseProfile="tiny" width="256" height="170" viewBox="0 0 256 170">
<rect x="0" y="0" width="256" height="170" id="0" fill="rgb(46,41,41)" fill-opacity="1" />
<polygon points="213,75 63,152 115,52" id="1" fill="rgb(156,144,145)" fill-opacity="0.501961" />
<polygon points="176,128 190,99 210,133" id="2" fill="rgb(255,255,255)" fill-opacity="0.501961" />
<polygon points="111,170 105,0 33,0" id="3" fill="rgb(0,0,0)" fill-opacity="0.501961" />
<polygon points="0,0 82,170 0,170" id="4" fill="rgb(0,0,0)" fill-opacity="0.501961" />
<polygon points="58,62 44,103 34,54" id="5" fill="rgb(239,243,243)" fill-opacity="0.501961" />
<polygon points="115,124 107,38 131,29" id="6" fill="rgb(207,209,208)" fill-opacity="0.501961" />
<polygon points="172,90 206,74 157,66" id="7" fill="rgb(246,250,247)" fill-opacity="0.501961" />
<polygon points="73,134 93,162 82,102" id="8" fill="rgb(237,241,246)" fill-opacity="0.501961" />
<polygon points="122,25 138,170 167,90" id="9" fill="rgb(44,13,12)" fill-opacity="0.501961" />
<polygon points="0,95 51,87 56,117" id="10" fill="rgb(122,130,132)" fill-opacity="0.501961" />
<polygon points="221,100 26,92 211,90" id="11" fill="rgb(119,133,137)" fill-opacity="0.501961" />
<polygon points="157,0 0,0 79,54" id="12" fill="rgb(0,0,0)" fill-opacity="0.501961" />
<polygon points="34,0 36,102 0,20" id="13" fill="rgb(0,0,0)" fill-opacity="0.501961" />
<polygon points="55,89 38,31 53,29" id="14" fill="rgb(181,183,182)" fill-opacity="0.501961" />
<polygon points="148,48 138,32 159,27" id="15" fill="rgb(210,210,210)" fill-opacity="0.501961" />
<polygon points="53,0 127,0 61,120" id="16" fill="rgb(0,0,0)" fill-opacity="0.501961" />
<polygon points="191,109 198,131 175,133" id="17" fill="rgb(251,254,254)" fill-opacity="0.501961" />
<polygon points="182,108 0,107 110,89" id="18" fill="rgb(27,25,24)" fill-opacity="0.501961" />
<polygon points="115,170 0,97 0,170" id="19" fill="rgb(0,0,0)" fill-opacity="0.501961" />
</svg>