<?xml version="1.0" standalone="no"?>
<svg xmlns="http://www.w3.org/2000/svg" version="1.2" baseProfile="tiny" width="256" height="170" viewBox="0 0 256 170">
<rect x="0" y="0" width="256" height="170" id="0" fill="rgb(40,27,16)" fill-opacity="1" />
<polygon points="123,22 96,170 179,61" id="1" fill="rgb(244,168,125)" fill-opacity="0.501961" />
<polygon points="54,170 124,159 120,121" id="2" fill="rgb(255,241,205)" fill-opacity="0.501961" />
<polygon points="0,0 137,117 0,170" id="3" fill="rgb(0,0,0)" fill-opacity="0.501961" />
<polygon points="142,170 174,0 256,153" id="4" fill="rgb(1,0,0)" fill-opacity="0.501961" />
<polygon points="160,29 112,37 155,78" id="5" fill="rgb(243,180,141)" fill-opacity="0.501961" />
<polygon points="154,0 66,91 0,0" id="6" fill="rgb(0,0,0)" fill-opacity="0.501961" />
<polygon points="43,170 97,170 108,126" id="7" fill="rgb(219,134,94)" fill-opacity="0.501961" />
<polygon points="114,170 130,122 91,132" id="8" fill="rgb(249,184,165)" fill-opacity="0.501961" />
<polygon points="35,114 68,44 143,98" id="9" fill="rgb(42,35,25)" fill-opacity="0.501961" />
<polygon points="165,72 204,70 126,126" id="10" fill="rgb(88,72,53)" fill-opacity="0.501961" />
<polygon points="98,62 150,97 161,39" id="11" fill="rgb(186,112,77)" fill-opacity="0.501961" />
<polygon points="63,146 45,159 113,166" id="12" fill="rgb(172,109,71)" fill-opacity="0.501961" />
<polygon points="0,0 51,170 0,170" id="13" fill="rgb(0,0,0)" fill-opacity="0.501961" />
<polygon points="256,28 107,170 222,170" id="14" fill="rgb(12,4,0)" fill-opacity="0.501961" />
<polygon points="0,0 130,0 97,72" id="15" fill="rgb(0,0,0)" fill-opacity="0.501961" />
<polygon points="173,79 195,0 150,15" id="16" fill="rgb(0,0,0)" fill-opacity="0.501961" />
<polygon points="147,116 150,99 107,98" id="17" fill="rgb(194,123,81)" fill-opacity="0.501961" />
<polygon points="112,124 180,122 85,103" id="18" fill="rgb(0,0,0)" fill-opacity="0.501961" />
<polygon points="113,52 148,28 159,46" id="19" fill="rgb(233,186,148)" fill-opacity="0.501961" />
</svg>