<?xml version="1.0" standalone="no"?>
<svg xmlns="http://www.w3.org/2000/svg" version="1.2" baseProfile="tiny" width="256" height="143" viewBox="0 0 256 143">
<rect x="0" y="0" width="256" height="143" id="0" fill="rgb(52,60,48)" fill-opacity="1" />
<polygon points="226,74 230,0 92,51" id="1" fill="rgb(189,194,189)" fill-opacity="0.501961" />
<polygon points="0,143 0,50 256,133" id="2" fill="rgb(0,0,0)" fill-opacity="0.501961" />
<polygon points="0,123 213,63 220,143" id="3" fill="rgb(0,0,0)" fill-opacity="0.501961" />
<polygon points="106,11 201,0 172,67" id="4" fill="rgb(135,173,130)" fill-opacity="0.501961" />
<polygon points="245,67 250,10 256,18" id="5" fill="rgb(255,255,255)" fill-opacity="0.501961" />
<polygon points="217,26 209,0 137,143" id="6" fill="rgb(23,19,15)" fill-opacity="0.501961" />
<polygon points="227,64 204,53 228,0" id="7" fill="rgb(230,232,248)" fill-opacity="0.501961" />
<polygon points="34,72 185,26 11,19" id="8" fill="rgb(90,103,73)" fill-opacity="0.501961" />
<polygon points="141,52 156,1 163,41" id="9" fill="rgb(35,17,18)" fill-opacity="0.501961" />
<polygon points="256,75 234,38 121,75" id="10" fill="rgb(112,106,105)" fill-opacity="0.501961" />
<polygon points="161,67 166,10 189,41" id="11" fill="rgb(202,211,205)" fill-opacity="0.501961" />
<polygon points="256,143 223,119 256,75" id="12" fill="rgb(0,0,0)" fill-opacity="0.501961" />
<polygon points="38,63 29,42 52,63" id="13" fill="rgb(239,239,255)" fill-opacity="0.501961" />
<polygon points="244,54 278,18 252,0" id="14" fill="rgb(188,255,210)" fill-opacity="0.501961" />
<polygon points="1,0 151,0 100,59" id="15" fill="rgb(43,90,36)" fill-opacity="0.501961" />
<polygon points="65,99 89,37 66,65" id="16" fill="rgb(126,121,111)" fill-opacity="0.501961" />
<polygon points="96,78 133,75 95,89" id="17" fill="rgb(138,141,156)" fill-opacity="0.501961" />
</svg>