<?xml version="1.0" standalone="no"?>
<svg xmlns="http://www.w3.org/2000/svg" version="1.2" baseProfile="tiny" width="256" height="172" viewBox="0 0 256 172">
<rect x="0" y="0" width="256" height="172" id="0" fill="rgb(88,79,69)" fill-opacity="1" />
<polygon points="256,0 82,69 0,0" id="1" fill="rgb(255,242,227)" fill-opacity="0.501961" />
<polygon points="256,170 0,172 0,65" id="2" fill="rgb(4,0,0)" fill-opacity="0.501961" />
<polygon points="256,29 256,0 88,31" id="3" fill="rgb(246,245,241)" fill-opacity="0.501961" />
<polygon points="256,87 122,99 254,172" id="4" fill="rgb(0,0,2)" fill-opacity="0.501961" />
<polygon points="0,36 40,33 0,2" id="5" fill="rgb(255,255,255)" fill-opacity="0.501961" />
<polygon points="75,111 9,49 174,32" id="6" fill="rgb(126,80,37)" fill-opacity="0.501961" />
<polygon points="109,154 144,79 111,0" id="7" fill="rgb(151,128,90)" fill-opacity="0.501961" />
<polygon points="57,11 95,13 95,67" id="8" fill="rgb(240,229,210)" fill-opacity="0.501961" />
<polygon points="133,34 163,172 256,172" id="9" fill="rgb(23,16,15)" fill-opacity="0.501961" />
<polygon points="0,34 0,66 93,44" id="10" fill="rgb(53,20,12)" fill-opacity="0.501961" />
<polygon points="253,135 118,36 256,41" id="11" fill="rgb(58,62,49)" fill-opacity="0.501961" />
<polygon points="256,35 124,9 243,0" id="12" fill="rgb(196,196,195)" fill-opacity="0.501961" />
<polygon points="129,0 102,0 121,26" id="13" fill="rgb(76,51,47)" fill-opacity="0.501961" />
<polygon points="74,131 113,123 108,73" id="14" fill="rgb(8,3,0)" fill-opacity="0.501961" />
<polygon points="0,147 0,79 69,73" id="15" fill="rgb(18,13,10)" fill-opacity="0.501961" />
<polygon points="117,115 136,114 108,42" id="16" fill="rgb(185,163,108)" fill-opacity="0.501961" />
<polygon points="87,73 62,60 115,28" id="17" fill="rgb(248,179,91)" fill-opacity="0.501961" />
<polygon points="83,110 95,92 46,86" id="18" fill="rgb(148,144,92)" fill-opacity="0.501961" />
<polygon points="191,155 128,97 139,86" id="19" fill="rgb(17,8,2)" fill-opacity="0.501961" />
<polygon points="219,102 226,85 196,59" id="20" fill="rgb(149,137,91)" fill-opacity="0.501961" />
<polygon points="0,18 67,46 55,9" id="21" fill="rgb(184,188,188)" fill-opacity="0.501961" />
<polygon points="0,11 0,0 187,0" id="22" fill="rgb(119,130,149)" fill-opacity="0.501961" />
<polygon points="140,8 126,38 256,18" id="23" fill="rgb(201,194,181)" fill-opacity="0.501961" />
<polygon points="83,59 93,54 91,43" id="24" fill="rgb(255,255,255)" fill-opacity="0.501961" />
<polygon points="196,118 117,65 169,26" id="25" fill="rgb(78,71,55)" fill-opacity="0.501961" />
<polygon points="100,70 48,85 123,94" id="26" fill="rgb(63,53,35)" fill-opacity="0.501961" />
<polygon points="112,122 121,158 103,141" id="27" fill="rgb(153,142,82)" fill-opacity="0.501961" />
<polygon points="78,45 33,53 78,80" id="28" fill="rgb(138,77,47)" fill-opacity="0.501961" />
<polygon points="73,37 108,30 102,10" id="29" fill="rgb(229,224,217)" fill-opacity="0.501961" />
<polygon points="256,172 156,130 256,103" id="30" fill="rgb(23,23,35)" fill-opacity="0.501961" />
<polygon points="180,139 187,172 187,140" id="31" fill="rgb(143,94,50)" fill-opacity="0.501961" />
</svg>