<?xml version="1.0" standalone="no"?>
<svg xmlns="http://www.w3.org/2000/svg" version="1.2" baseProfile="tiny" width="256" height="170" viewBox="0 0 256 170">
<rect x="0" y="0" width="256" height="170" id="0" fill="rgb(133,126,115)" fill-opacity="1" />
<polygon points="0,170 80,170 0,9" id="1" fill="rgb(0,0,0)" fill-opacity="0.501961" />
<polygon points="126,170 12,0 216,0" id="2" fill="rgb(172,187,212)" fill-opacity="0.501961" />
<polygon points="252,0 137,67 246,153" id="3" fill="rgb(204,134,0)" fill-opacity="0.501961" />
<polygon points="57,40 70,170 0,170" id="4" fill="rgb(0,0,5)" fill-opacity="0.501961" />
<polygon points="0,51 173,125 180,48" id="5" fill="rgb(106,120,143)" fill-opacity="0.501961" />
<polygon points="81,87 256,143 70,170" id="6" fill="rgb(142,167,196)" fill-opacity="0.501961" />
<polygon points="201,14 0,0 234,0" id="7" fill="rgb(227,241,255)" fill-opacity="0.501961" />
<polygon points="8,23 208,34 12,47" id="8" fill="rgb(228,227,227)" fill-opacity="0.501961" />
<polygon points="0,69 6,132 123,80" id="9" fill="rgb(69,27,31)" fill-opacity="0.501961" />
<polygon points="165,16 5,28 0,11" id="10" fill="rgb(82,81,79)" fill-opacity="0.501961" />
<polygon points="170,20 245,138 254,7" id="11" fill="rgb(182,138,14)" fill-opacity="0.501961" />
</svg>