<?xml version="1.0" standalone="no"?>
<svg xmlns="http://www.w3.org/2000/svg" version="1.2" baseProfile="tiny" width="256" height="144" viewBox="0 0 256 144">
<rect x="0" y="0" width="256" height="144" id="0" fill="rgb(183,167,133)" fill-opacity="1" />
<polygon points="142,0 0,114 0,0" id="1" fill="rgb(231,234,246)" fill-opacity="0.501961" />
<polygon points="231,27 208,51 43,84" id="2" fill="rgb(42,64,33)" fill-opacity="0.501961" />
<polygon points="245,144 0,143 233,32" id="3" fill="rgb(168,141,94)" fill-opacity="0.501961" />
<polygon points="0,71 12,144 196,4" id="4" fill="rgb(194,167,102)" fill-opacity="0.501961" />
<polygon points="234,24 239,144 244,144" id="5" fill="rgb(58,50,39)" fill-opacity="0.501961" />
<polygon points="130,51 52,89 235,36" id="6" fill="rgb(89,98,65)" fill-opacity="0.501961" />
<polygon points="245,142 233,0 256,0" id="7" fill="rgb(165,175,203)" fill-opacity="0.501961" />
<polygon points="0,124 94,42 0,52" id="8" fill="rgb(192,185,180)" fill-opacity="0.501961" />
<polygon points="235,64 76,144 100,64" id="9" fill="rgb(192,167,123)" fill-opacity="0.501961" />
<polygon points="5,37 152,0 -5,-3" id="10" fill="rgb(226,226,227)" fill-opacity="0.501961" />
<polygon points="0,128 25,144 114,25" id="11" fill="rgb(212,171,72)" fill-opacity="0.501961" />
<polygon points="253,83 256,144 154,131" id="12" fill="rgb(144,128,103)" fill-opacity="0.501961" />
<polygon points="100,81 69,74 96,65" id="13" fill="rgb(25,73,50)" fill-opacity="0.501961" />
<polygon points="206,66 217,144 228,29" id="14" fill="rgb(168,167,171)" fill-opacity="0.501961" />
<polygon points="134,144 158,144 191,0" id="15" fill="rgb(185,145,68)" fill-opacity="0.501961" />
<polygon points="112,144 90,144 168,15" id="16" fill="rgb(201,157,67)" fill-opacity="0.501961" />
<polygon points="229,33 128,0 215,0" id="17" fill="rgb(212,191,162)" fill-opacity="0.501961" />
<polygon points="138,0 60,144 111,83" id="18" fill="rgb(205,164,75)" fill-opacity="0.501961" />
<polygon points="172,75 176,138 198,51" id="19" fill="rgb(174,169,172)" fill-opacity="0.501961" />
<polygon points="79,58 211,29 141,0" id="20" fill="rgb(209,172,108)" fill-opacity="0.501961" />
<polygon points="103,45 87,57 101,69" id="21" fill="rgb(218,235,219)" fill-opacity="0.501961" />
<polygon points="230,37 104,60 156,65" id="22" fill="rgb(75,92,71)" fill-opacity="0.501961" />
<polygon points="195,141 206,30 174,144" id="23" fill="rgb(186,150,71)" fill-opacity="0.501961" />
<polygon points="223,34 206,39 221,44" id="24" fill="rgb(0,66,48)" fill-opacity="0.501961" />
<polygon points="184,21 111,144 132,144" id="25" fill="rgb(170,162,154)" fill-opacity="0.501961" />
<polygon points="22,88 176,127 21,86" id="26" fill="rgb(121,103,67)" fill-opacity="0.501961" />
<polygon points="234,0 256,0 256,110" id="27" fill="rgb(179,180,188)" fill-opacity="0.501961" />
<polygon points="209,55 207,84 201,113" id="28" fill="rgb(97,71,31)" fill-opacity="0.501961" />
<polygon points="180,66 153,144 154,144" id="29" fill="rgb(83,63,26)" fill-opacity="0.501961" />
<polygon points="132,46 140,61 122,62" id="30" fill="rgb(17,76,64)" fill-opacity="0.501961" />
<polygon points="126,63 140,68 70,144" id="31" fill="rgb(181,170,168)" fill-opacity="0.501961" />
<polygon points="244,144 227,67 227,144" id="32" fill="rgb(149,123,63)" fill-opacity="0.501961" />
</svg>