<?xml version="1.0" standalone="no"?>
<svg xmlns="http://www.w3.org/2000/svg" version="1.2" baseProfile="tiny" width="256" height="170" viewBox="0 0 256 170">
<rect x="0" y="0" width="256" height="170" id="0" fill="rgb(127,115,101)" fill-opacity="1" />
<polygon points="255,170 120,111 256,69" id="1" fill="rgb(0,3,1)" fill-opacity="0.501961" />
<polygon points="256,0 163,66 138,0" id="2" fill="rgb(255,244,235)" fill-opacity="0.501961" />
<polygon points="93,81 0,115 0,0" id="3" fill="rgb(194,200,175)" fill-opacity="0.501961" />
<polygon points="200,170 256,170 256,108" id="4" fill="rgb(0,0,0)" fill-opacity="0.501961" />
<polygon points="67,135 0,135 27,109" id="5" fill="rgb(0,0,12)" fill-opacity="0.501961" />
<polygon points="100,117 23,170 157,136" id="6" fill="rgb(180,192,194)" fill-opacity="0.501961" />
<polygon points="233,65 48,55 163,125" id="7" fill="rgb(82,46,29)" fill-opacity="0.501961" />
<polygon points="247,57 125,55 247,0" id="8" fill="rgb(212,174,151)" fill-opacity="0.501961" />
<polygon points="53,88 63,0 168,29" id="9" fill="rgb(170,82,47)" fill-opacity="0.501961" />
<polygon points="50,43 91,0 0,0" id="10" fill="rgb(190,192,156)" fill-opacity="0.501961" />
<polygon points="162,0 203,30 216,0" id="11" fill="rgb(255,255,255)" fill-opacity="0.501961" />
<polygon points="104,58 74,140 108,108" id="12" fill="rgb(68,48,0)" fill-opacity="0.501961" />
<polygon points="103,153 184,138 196,170" id="13" fill="rgb(51,55,56)" fill-opacity="0.501961" />
<polygon points="244,6 248,77 217,89" id="14" fill="rgb(165,186,171)" fill-opacity="0.501961" />
<polygon points="43,170 0,170 0,135" id="15" fill="rgb(184,186,171)" fill-opacity="0.501961" />
<polygon points="247,106 51,65 246,124" id="16" fill="rgb(115,124,105)" fill-opacity="0.501961" />
<polygon points="26,149 -11,121 68,111" id="17" fill="rgb(16,43,55)" fill-opacity="0.501961" />
</svg>