<?xml version="1.0" standalone="no"?>
<svg xmlns="http://www.w3.org/2000/svg" version="1.2" baseProfile="tiny" width="256" height="170" viewBox="0 0 256 170">
<rect x="0" y="0" width="256" height="170" id="0" fill="rgb(108,104,97)" fill-opacity="1" />
<polygon points="155,65 14,0 256,1" id="1" fill="rgb(221,233,231)" fill-opacity="0.501961" />
<polygon points="74,138 171,83 0,45" id="2" fill="rgb(30,11,12)" fill-opacity="0.501961" />
<polygon points="108,170 107,137 69,155" id="3" fill="rgb(255,255,255)" fill-opacity="0.501961" />
<polygon points="54,0 86,71 106,0" id="4" fill="rgb(244,230,217)" fill-opacity="0.501961" />
<polygon points="157,170 65,106 256,170" id="5" fill="rgb(18,23,19)" fill-opacity="0.501961" />
<polygon points="256,27 256,166 173,161" id="6" fill="rgb(49,51,38)" fill-opacity="0.501961" />
<polygon points="256,71 256,61 157,60" id="7" fill="rgb(255,255,246)" fill-opacity="0.501961" />
<polygon points="0,79 87,52 0,7" id="8" fill="rgb(81,39,1)" fill-opacity="0.501961" />
<polygon points="190,0 256,13 230,45" id="9" fill="rgb(232,230,217)" fill-opacity="0.501961" />
<polygon points="83,170 110,143 80,135" id="10" fill="rgb(255,255,255)" fill-opacity="0.501961" />
<polygon points="72,78 101,89 66,180" id="11" fill="rgb(0,0,15)" fill-opacity="0.501961" />
<polygon points="66,170 0,96 0,170" id="12" fill="rgb(27,37,52)" fill-opacity="0.501961" />
<polygon points="191,69 119,61 171,95" id="13" fill="rgb(6,7,0)" fill-opacity="0.501961" />
<polygon points="139,10 164,31 107,26" id="14" fill="rgb(0,74,119)" fill-opacity="0.501961" />
<polygon points="96,88 128,135 182,140" id="15" fill="rgb(186,171,157)" fill-opacity="0.501961" />
<polygon points="0,81 40,130 60,95" id="16" fill="rgb(163,167,185)" fill-opacity="0.501961" />
<polygon points="256,2 213,9 223,0" id="17" fill="rgb(0,0,47)" fill-opacity="0.501961" />
<polygon points="256,42 256,60 136,52" id="18" fill="rgb(25,26,18)" fill-opacity="0.501961" />
<polygon points="28,0 69,15 57,79" id="19" fill="rgb(167,117,62)" fill-opacity="0.501961" />
<polygon points="118,170 122,145 99,112" id="20" fill="rgb(0,0,0)" fill-opacity="0.501961" />
<polygon points="140,13 160,0 0,0" id="21" fill="rgb(236,245,244)" fill-opacity="0.501961" />
<polygon points="95,65 151,18 124,78" id="22" fill="rgb(171,171,157)" fill-opacity="0.501961" />
<polygon points="120,64 88,40 211,46" id="23" fill="rgb(124,122,112)" fill-opacity="0.501961" />
<polygon points="123,149 119,165 141,170" id="24" fill="rgb(236,239,229)" fill-opacity="0.501961" />
<polygon points="110,140 105,182 79,167" id="25" fill="rgb(255,255,255)" fill-opacity="0.501961" />
<polygon points="237,81 256,75 241,94" id="26" fill="rgb(235,230,215)" fill-opacity="0.501961" />
</svg>