<?xml version="1.0" standalone="no"?>
<svg xmlns="http://www.w3.org/2000/svg" version="1.2" baseProfile="tiny" width="256" height="170" viewBox="0 0 256 170">
<rect x="0" y="0" width="256" height="170" id="0" fill="rgb(109,93,90)" fill-opacity="1" />
<polygon points="68,0 49,105 136,91" id="1" fill="rgb(27,25,7)" fill-opacity="0.501961" />
<polygon points="249,155 12,170 256,169" id="2" fill="rgb(201,219,225)" fill-opacity="0.501961" />
<polygon points="211,0 89,0 195,123" id="3" fill="rgb(203,98,85)" fill-opacity="0.501961" />
<polygon points="147,139 126,124 207,118" id="4" fill="rgb(0,0,9)" fill-opacity="0.501961" />
<polygon points="133,70 116,33 116,157" id="5" fill="rgb(12,21,14)" fill-opacity="0.501961" />
<polygon points="15,170 149,170 106,129" id="6" fill="rgb(124,143,156)" fill-opacity="0.501961" />
<polygon points="89,122 14,120 -11,190" id="7" fill="rgb(31,53,68)" fill-opacity="0.501961" />
<polygon points="0,135 0,2 57,34" id="8" fill="rgb(132,143,133)" fill-opacity="0.501961" />
<polygon points="151,162 194,97 256,154" id="9" fill="rgb(54,74,87)" fill-opacity="0.501961" />
<polygon points="99,67 121,31 61,46" id="10" fill="rgb(150,129,107)" fill-opacity="0.501961" />
<polygon points="256,111 235,115 256,141" id="11" fill="rgb(191,210,222)" fill-opacity="0.501961" />
<polygon points="126,105 211,107 156,7" id="12" fill="rgb(174,102,95)" fill-opacity="0.501961" />
<polygon points="230,161 178,149 213,154" id="13" fill="rgb(244,252,255)" fill-opacity="0.501961" />
<polygon points="67,116 66,63 121,60" id="14" fill="rgb(21,18,8)" fill-opacity="0.501961" />
<polygon points="83,170 77,94 33,155" id="15" fill="rgb(77,85,90)" fill-opacity="0.501961" />
<polygon points="70,0 256,0 256,28" id="16" fill="rgb(142,68,59)" fill-opacity="0.501961" />
<polygon points="97,45 97,0 0,0" id="17" fill="rgb(73,71,60)" fill-opacity="0.501961" />
<polygon points="41,157 39,145 0,170" id="18" fill="rgb(0,0,0)" fill-opacity="0.501961" />
<polygon points="105,59 125,40 114,148" id="19" fill="rgb(48,49,43)" fill-opacity="0.501961" />
<polygon points="115,148 131,135 123,170" id="20" fill="rgb(187,188,189)" fill-opacity="0.501961" />
<polygon points="136,158 215,158 130,152" id="21" fill="rgb(12,16,12)" fill-opacity="0.501961" />
<polygon points="256,153 195,164 256,164" id="22" fill="rgb(198,205,213)" fill-opacity="0.501961" />
</svg>