<?xml version="1.0" standalone="no"?>
<svg xmlns="http://www.w3.org/2000/svg" version="1.2" baseProfile="tiny" width="256" height="170" viewBox="0 0 256 170">
<rect x="0" y="0" width="256" height="170" id="0" fill="rgb(63,60,58)" fill-opacity="1" />
<polygon points="115,17 65,43 102,81" id="1" fill="rgb(230,248,255)" fill-opacity="0.501961" />
<polygon points="69,0 18,0 60,28" id="2" fill="rgb(240,240,219)" fill-opacity="0.501961" />
<polygon points="150,66 181,67 141,27" id="3" fill="rgb(188,206,226)" fill-opacity="0.501961" />
<polygon points="216,170 0,170 42,20" id="4" fill="rgb(46,34,30)" fill-opacity="0.501961" />
<polygon points="256,70 210,170 215,123" id="5" fill="rgb(186,166,131)" fill-opacity="0.501961" />
<polygon points="121,19 95,67 64,61" id="6" fill="rgb(173,187,214)" fill-opacity="0.501961" />
<polygon points="148,33 82,29 122,21" id="7" fill="rgb(214,230,247)" fill-opacity="0.501961" />
<polygon points="37,163 89,0 22,39" id="8" fill="rgb(89,74,64)" fill-opacity="0.501961" />
<polygon points="83,51 150,46 132,28" id="9" fill="rgb(27,21,17)" fill-opacity="0.501961" />
<polygon points="0,54 0,0 37,20" id="10" fill="rgb(1,2,1)" fill-opacity="0.501961" />
<polygon points="81,170 196,83 218,149" id="11" fill="rgb(24,25,26)" fill-opacity="0.501961" />
<polygon points="256,0 114,0 160,45" id="12" fill="rgb(16,20,25)" fill-opacity="0.501961" />
<polygon points="118,109 89,163 91,112" id="13" fill="rgb(138,112,107)" fill-opacity="0.501961" />
<polygon points="222,25 151,46 154,79" id="14" fill="rgb(111,118,129)" fill-opacity="0.501961" />
<polygon points="204,170 239,78 240,170" id="15" fill="rgb(125,112,90)" fill-opacity="0.501961" />
<polygon points="81,32 74,58 124,26" id="16" fill="rgb(202,212,224)" fill-opacity="0.501961" />
<polygon points="24,30 10,90 42,29" id="17" fill="rgb(145,139,129)" fill-opacity="0.501961" />
<polygon points="99,22 102,76 103,23" id="18" fill="rgb(56,60,72)" fill-opacity="0.501961" />
<polygon points="77,17 64,32 65,0" id="19" fill="rgb(179,180,157)" fill-opacity="0.501961" />
</svg>