<?xml version="1.0" standalone="no"?>
<svg xmlns="http://www.w3.org/2000/svg" version="1.2" baseProfile="tiny" width="256" height="170" viewBox="0 0 256 170">
<rect x="0" y="0" width="256" height="170" id="0" fill="rgb(194,165,163)" fill-opacity="1" />
<polygon points="0,135 90,142 69,11" id="1" fill="rgb(255,255,255)" fill-opacity="0.501961" />
<polygon points="256,95 256,0 199,0" id="2" fill="rgb(84,67,0)" fill-opacity="0.501961" />
<polygon points="256,50 173,153 59,100" id="3" fill="rgb(255,98,110)" fill-opacity="0.501961" />
<polygon points="35,114 87,168 14,170" id="4" fill="rgb(53,145,137)" fill-opacity="0.501961" />
<polygon points="220,118 192,145 256,169" id="5" fill="rgb(77,67,58)" fill-opacity="0.501961" />
<polygon points="115,0 54,2 129,51" id="6" fill="rgb(55,94,120)" fill-opacity="0.501961" />
<polygon points="166,170 109,116 60,170" id="7" fill="rgb(215,240,248)" fill-opacity="0.501961" />
<polygon points="213,111 256,151 256,83" id="8" fill="rgb(255,255,255)" fill-opacity="0.501961" />
<polygon points="37,139 126,30 22,74" id="9" fill="rgb(254,247,247)" fill-opacity="0.501961" />
<polygon points="194,149 156,170 192,170" id="10" fill="rgb(10,42,79)" fill-opacity="0.501961" />
<polygon points="190,84 120,37 138,20" id="11" fill="rgb(250,255,240)" fill-opacity="0.501961" />
<polygon points="40,132 0,99 -11,165" id="12" fill="rgb(233,255,255)" fill-opacity="0.501961" />
<polygon points="222,7 214,99 131,0" id="13" fill="rgb(144,164,146)" fill-opacity="0.501961" />
<polygon points="110,56 2,22 68,54" id="14" fill="rgb(194,63,112)" fill-opacity="0.501961" />
<polygon points="241,90 256,69 226,84" id="15" fill="rgb(98,7,0)" fill-opacity="0.501961" />
<polygon points="32,0 67,0 101,72" id="16" fill="rgb(226,212,228)" fill-opacity="0.501961" />
<polygon points="137,137 185,85 176,142" id="17" fill="rgb(233,42,77)" fill-opacity="0.501961" />
<polygon points="157,164 114,144 204,141" id="18" fill="rgb(253,223,236)" fill-opacity="0.501961" />
<polygon points="215,29 254,0 256,18" id="19" fill="rgb(0,42,24)" fill-opacity="0.501961" />
<polygon points="71,117 154,148 102,30" id="20" fill="rgb(222,131,139)" fill-opacity="0.501961" />
<polygon points="132,42 173,45 109,134" id="21" fill="rgb(243,200,198)" fill-opacity="0.501961" />
<polygon points="233,99 223,19 202,42" id="22" fill="rgb(237,194,104)" fill-opacity="0.501961" />
<polygon points="75,30 0,59 40,9" id="23" fill="rgb(146,99,168)" fill-opacity="0.501961" />
<polygon points="206,37 152,0 165,37" id="24" fill="rgb(82,124,122)" fill-opacity="0.501961" />
</svg>