<?xml version="1.0" standalone="no"?>
<svg xmlns="http://www.w3.org/2000/svg" version="1.2" baseProfile="tiny" width="256" height="191" viewBox="0 0 256 191">
<rect x="0" y="0" width="256" height="191" id="0" fill="rgb(126,114,95)" fill-opacity="1" />
<polygon points="256,0 0,0 0,113" id="1" fill="rgb(252,235,209)" fill-opacity="0.501961" />
<polygon points="214,77 0,190 256,191" id="2" fill="rgb(0,0,0)" fill-opacity="0.501961" />
<polygon points="253,77 256,3 0,20" id="3" fill="rgb(224,213,195)" fill-opacity="0.501961" />
<polygon points="0,186 51,38 256,142" id="4" fill="rgb(82,67,44)" fill-opacity="0.501961" />
<polygon points="0,45 98,155 0,147" id="5" fill="rgb(147,131,78)" fill-opacity="0.501961" />
<polygon points="156,139 256,62 136,52" id="6" fill="rgb(165,151,105)" fill-opacity="0.501961" />
<polygon points="256,191 255,100 126,188" id="7" fill="rgb(27,15,21)" fill-opacity="0.501961" />
<polygon points="76,77 79,133 184,140" id="8" fill="rgb(14,8,25)" fill-opacity="0.501961" />
<polygon points="202,0 84,62 122,102" id="9" fill="rgb(188,174,148)" fill-opacity="0.501961" />
<polygon points="23,146 -6,61 99,54" id="10" fill="rgb(153,142,101)" fill-opacity="0.501961" />
<polygon points="154,105 110,159 133,83" id="11" fill="rgb(22,16,27)" fill-opacity="0.501961" />
<polygon points="214,102 256,137 256,47" id="12" fill="rgb(145,125,71)" fill-opacity="0.501961" />
<polygon points="0,62 158,0 0,0" id="13" fill="rgb(230,211,196)" fill-opacity="0.501961" />
<polygon points="253,0 2,49 256,53" id="14" fill="rgb(194,184,167)" fill-opacity="0.501961" />
<polygon points="100,100 96,148 103,120" id="15" fill="rgb(234,186,149)" fill-opacity="0.501961" />
<polygon points="0,152 234,188 0,189" id="16" fill="rgb(43,29,29)" fill-opacity="0.501961" />
<polygon points="107,80 92,135 49,89" id="17" fill="rgb(36,31,36)" fill-opacity="0.501961" />
<polygon points="223,95 209,109 194,64" id="18" fill="rgb(30,26,31)" fill-opacity="0.501961" />
<polygon points="200,104 175,119 200,79" id="19" fill="rgb(188,174,133)" fill-opacity="0.501961" />
<polygon points="56,40 101,75 109,57" id="20" fill="rgb(136,122,82)" fill-opacity="0.501961" />
<polygon points="181,152 172,122 145,151" id="21" fill="rgb(142,118,73)" fill-opacity="0.501961" />
<polygon points="251,142 256,179 201,150" id="22" fill="rgb(14,7,21)" fill-opacity="0.501961" />
<polygon points="218,130 215,86 246,90" id="23" fill="rgb(155,139,93)" fill-opacity="0.501961" />
<polygon points="94,100 117,79 128,93" id="24" fill="rgb(204,183,149)" fill-opacity="0.501961" />
<polygon points="50,164 -11,177 0,118" id="25" fill="rgb(114,90,52)" fill-opacity="0.501961" />
<polygon points="198,143 217,80 207,173" id="26" fill="rgb(0,0,21)" fill-opacity="0.501961" />
<polygon points="168,53 159,81 176,59" id="27" fill="rgb(50,36,27)" fill-opacity="0.501961" />
<polygon points="125,67 66,31 239,40" id="28" fill="rgb(198,185,170)" fill-opacity="0.501961" />
<polygon points="92,57 18,125 44,38" id="29" fill="rgb(166,151,110)" fill-opacity="0.501961" />
<polygon points="194,26 185,0 256,1" id="30" fill="rgb(159,153,141)" fill-opacity="0.501961" />
<polygon points="199,128 198,185 167,95" id="31" fill="rgb(59,61,56)" fill-opacity="0.501961" />
<polygon points="99,89 149,143 116,141" id="32" fill="rgb(17,11,26)" fill-opacity="0.501961" />
<polygon points="256,93 225,145 212,127" id="33" fill="rgb(97,75,53)" fill-opacity="0.501961" />
<polygon points="64,99 80,92 52,131" id="34" fill="rgb(35,26,30)" fill-opacity="0.501961" />
<polygon points="167,70 182,56 177,86" id="35" fill="rgb(206,208,184)" fill-opacity="0.501961" />
<polygon points="82,121 0,167 123,154" id="36" fill="rgb(100,82,58)" fill-opacity="0.501961" />
<polygon points="90,81 95,107 135,123" id="37" fill="rgb(80,58,48)" fill-opacity="0.501961" />
<polygon points="99,75 75,102 105,88" id="38" fill="rgb(5,4,23)" fill-opacity="0.501961" />
<polygon points="57,133 64,148 80,83" id="39" fill="rgb(149,135,87)" fill-opacity="0.501961" />
<polygon points="101,83 143,84 136,78" id="40" fill="rgb(70,59,39)" fill-opacity="0.501961" />
<polygon points="0,129 59,48 0,71" id="41" fill="rgb(149,134,98)" fill-opacity="0.501961" />
<polygon points="125,63 154,102 209,91" id="42" fill="rgb(146,135,93)" fill-opacity="0.501961" />
<polygon points="178,96 153,131 138,67" id="43" fill="rgb(139,122,80)" fill-opacity="0.501961" />
<polygon points="86,88 94,111 61,94" id="44" fill="rgb(21,12,27)" fill-opacity="0.501961" />
<polygon points="200,151 176,166 88,143" id="45" fill="rgb(88,75,56)" fill-opacity="0.501961" />
<polygon points="225,115 201,51 256,54" id="46" fill="rgb(157,144,105)" fill-opacity="0.501961" />
<polygon points="228,181 0,179 0,191" id="47" fill="rgb(29,23,31)" fill-opacity="0.501961" />
<polygon points="157,139 127,141 143,104" id="48" fill="rgb(10,6,25)" fill-opacity="0.501961" />
<polygon points="48,122 63,102 6,98" id="49" fill="rgb(166,153,113)" fill-opacity="0.501961" />
<polygon points="214,80 110,0 199,0" id="50" fill="rgb(192,178,161)" fill-opacity="0.501961" />
<polygon points="14,0 58,45 190,12" id="51" fill="rgb(213,198,181)" fill-opacity="0.501961" />
<polygon points="104,119 140,85 151,127" id="52" fill="rgb(42,38,38)" fill-opacity="0.501961" />
<polygon points="126,88 103,52 38,54" id="53" fill="rgb(151,137,96)" fill-opacity="0.501961" />
<polygon points="116,83 123,99 115,99" id="54" fill="rgb(236,218,184)" fill-opacity="0.501961" />
<polygon points="200,126 213,90 218,166" id="55" fill="rgb(9,2,24)" fill-opacity="0.501961" />
<polygon points="168,168 256,157 256,183" id="56" fill="rgb(59,47,40)" fill-opacity="0.501961" />
<polygon points="207,82 256,71 256,105" id="57" fill="rgb(123,113,73)" fill-opacity="0.501961" />
<polygon points="188,108 187,91 204,86" id="58" fill="rgb(194,177,137)" fill-opacity="0.501961" />
<polygon points="180,142 170,152 116,145" id="59" fill="rgb(129,108,68)" fill-opacity="0.501961" />
<polygon points="159,107 101,124 129,92" id="60" fill="rgb(51,42,41)" fill-opacity="0.501961" />
<polygon points="254,130 240,131 254,191" id="61" fill="rgb(37,29,28)" fill-opacity="0.501961" />
<polygon points="59,88 74,96 87,73" id="62" fill="rgb(104,87,61)" fill-opacity="0.501961" />
<polygon points="38,144 12,142 60,102" id="63" fill="rgb(150,137,86)" fill-opacity="0.501961" />
<polygon points="20,35 0,12 63,4" id="64" fill="rgb(229,212,189)" fill-opacity="0.501961" />
<polygon points="98,150 168,135 143,123" id="65" fill="rgb(20,13,27)" fill-opacity="0.501961" />
<polygon points="67,164 108,106 98,144" id="66" fill="rgb(138,114,82)" fill-opacity="0.501961" />
<polygon points="152,184 42,163 179,163" id="67" fill="rgb(54,45,40)" fill-opacity="0.501961" />
<polygon points="208,97 185,63 195,65" id="68" fill="rgb(67,76,59)" fill-opacity="0.501961" />
<polygon points="178,120 197,173 203,107" id="69" fill="rgb(58,65,59)" fill-opacity="0.501961" />
<polygon points="84,71 116,78 139,61" id="70" fill="rgb(186,165,120)" fill-opacity="0.501961" />
<polygon points="149,109 167,131 148,119" id="71" fill="rgb(147,128,80)" fill-opacity="0.501961" />
<polygon points="90,106 95,93 104,92" id="72" fill="rgb(170,113,81)" fill-opacity="0.501961" />
<polygon points="77,108 91,108 95,77" id="73" fill="rgb(11,6,26)" fill-opacity="0.501961" />
<polygon points="195,182 182,132 180,168" id="74" fill="rgb(27,25,33)" fill-opacity="0.501961" />
<polygon points="59,87 61,120 73,97" id="75" fill="rgb(48,40,41)" fill-opacity="0.501961" />
<polygon points="62,171 61,147 15,191" id="76" fill="rgb(72,60,47)" fill-opacity="0.501961" />
<polygon points="33,127 0,131 0,143" id="77" fill="rgb(92,80,54)" fill-opacity="0.501961" />
<polygon points="208,76 256,64 191,54" id="78" fill="rgb(183,160,123)" fill-opacity="0.501961" />
<polygon points="177,77 185,77 184,94" id="79" fill="rgb(58,61,53)" fill-opacity="0.501961" />
<polygon points="85,64 110,63 94,49" id="80" fill="rgb(115,105,80)" fill-opacity="0.501961" />
<polygon points="135,0 225,53 256,30" id="81" fill="rgb(194,186,165)" fill-opacity="0.501961" />
<polygon points="157,67 98,58 128,35" id="82" fill="rgb(189,174,152)" fill-opacity="0.501961" />
<polygon points="98,139 80,161 34,126" id="83" fill="rgb(112,98,65)" fill-opacity="0.501961" />
<polygon points="254,154 236,145 170,167" id="84" fill="rgb(13,5,22)" fill-opacity="0.501961" />
<polygon points="223,147 214,135 216,93" id="85" fill="rgb(95,76,53)" fill-opacity="0.501961" />
<polygon points="166,0 256,0 256,23" id="86" fill="rgb(167,163,147)" fill-opacity="0.501961" />
<polygon points="175,105 183,116 170,112" id="87" fill="rgb(53,23,25)" fill-opacity="0.501961" />
<polygon points="0,9 26,1 0,0" id="88" fill="rgb(182,170,156)" fill-opacity="0.501961" />
<polygon points="179,147 183,115 163,63" id="89" fill="rgb(99,78,53)" fill-opacity="0.501961" />
<polygon points="210,91 198,114 187,72" id="90" fill="rgb(134,130,97)" fill-opacity="0.501961" />
<polygon points="75,43 92,69 66,44" id="91" fill="rgb(156,143,102)" fill-opacity="0.501961" />
<polygon points="134,114 119,114 133,121" id="92" fill="rgb(85,86,62)" fill-opacity="0.501961" />
<polygon points="95,145 106,146 79,187" id="93" fill="rgb(51,39,39)" fill-opacity="0.501961" />
<polygon points="173,59 182,56 219,52" id="94" fill="rgb(140,145,106)" fill-opacity="0.501961" />
<polygon points="132,91 136,83 113,93" id="95" fill="rgb(201,187,149)" fill-opacity="0.501961" />
<polygon points="49,94 55,103 58,87" id="96" fill="rgb(63,97,116)" fill-opacity="0.501961" />
<polygon points="55,145 0,123 0,91" id="97" fill="rgb(150,133,87)" fill-opacity="0.501961" />
<polygon points="62,119 49,134 76,127" id="98" fill="rgb(155,138,93)" fill-opacity="0.501961" />
<polygon points="179,136 204,107 164,128" id="99" fill="rgb(61,55,48)" fill-opacity="0.501961" />
<polygon points="184,140 117,145 74,160" id="100" fill="rgb(106,88,60)" fill-opacity="0.501961" />
<polygon points="171,85 176,42 181,103" id="101" fill="rgb(179,179,156)" fill-opacity="0.501961" />
<polygon points="123,69 157,98 149,63" id="102" fill="rgb(154,140,98)" fill-opacity="0.501961" />
<polygon points="107,79 82,74 69,92" id="103" fill="rgb(86,72,52)" fill-opacity="0.501961" />
<polygon points="135,26 47,0 82,52" id="104" fill="rgb(213,199,181)" fill-opacity="0.501961" />
<polygon points="0,59 49,64 52,109" id="105" fill="rgb(156,143,109)" fill-opacity="0.501961" />
<polygon points="183,109 167,144 165,120" id="106" fill="rgb(127,104,64)" fill-opacity="0.501961" />
<polygon points="179,52 189,73 186,92" id="107" fill="rgb(157,159,132)" fill-opacity="0.501961" />
<polygon points="203,75 215,86 215,118" id="108" fill="rgb(36,26,31)" fill-opacity="0.501961" />
<polygon points="216,187 256,167 204,162" id="109" fill="rgb(62,49,42)" fill-opacity="0.501961" />
<polygon points="240,122 240,102 252,108" id="110" fill="rgb(72,50,40)" fill-opacity="0.501961" />
<polygon points="158,80 168,57 176,61" id="111" fill="rgb(67,53,43)" fill-opacity="0.501961" />
<polygon points="250,86 205,76 256,63" id="112" fill="rgb(147,136,97)" fill-opacity="0.501961" />
<polygon points="203,105 200,110 224,163" id="113" fill="rgb(18,14,28)" fill-opacity="0.501961" />
<polygon points="158,68 174,104 154,128" id="114" fill="rgb(137,121,81)" fill-opacity="0.501961" />
<polygon points="175,124 151,125 146,110" id="115" fill="rgb(141,123,80)" fill-opacity="0.501961" />
<polygon points="133,70 140,77 139,59" id="116" fill="rgb(132,115,73)" fill-opacity="0.501961" />
<polygon points="169,0 256,45 177,55" id="117" fill="rgb(191,181,163)" fill-opacity="0.501961" />
<polygon points="145,106 137,80 133,80" id="118" fill="rgb(34,19,28)" fill-opacity="0.501961" />
<polygon points="167,169 150,153 133,152" id="119" fill="rgb(48,39,37)" fill-opacity="0.501961" />
<polygon points="37,177 87,177 106,170" id="120" fill="rgb(80,63,47)" fill-opacity="0.501961" />
<polygon points="208,80 206,86 193,67" id="121" fill="rgb(33,35,37)" fill-opacity="0.501961" />
<polygon points="34,58 21,30 2,57" id="122" fill="rgb(202,183,168)" fill-opacity="0.501961" />
<polygon points="147,179 163,173 89,172" id="123" fill="rgb(75,60,47)" fill-opacity="0.501961" />
<polygon points="77,102 74,134 94,135" id="124" fill="rgb(46,49,44)" fill-opacity="0.501961" />
<polygon points="77,92 74,114 98,118" id="125" fill="rgb(22,20,31)" fill-opacity="0.501961" />
<polygon points="22,172 74,149 14,152" id="126" fill="rgb(95,74,52)" fill-opacity="0.501961" />
<polygon points="144,140 143,144 181,133" id="127" fill="rgb(50,40,37)" fill-opacity="0.501961" />
<polygon points="109,168 92,154 122,144" id="128" fill="rgb(90,74,56)" fill-opacity="0.501961" />
<polygon points="135,90 117,130 115,117" id="129" fill="rgb(23,23,33)" fill-opacity="0.501961" />
<polygon points="219,112 252,131 226,144" id="130" fill="rgb(73,59,46)" fill-opacity="0.501961" />
<polygon points="184,9 109,0 124,44" id="131" fill="rgb(202,186,173)" fill-opacity="0.501961" />
<polygon points="31,74 72,90 54,42" id="132" fill="rgb(158,143,106)" fill-opacity="0.501961" />
<polygon points="185,93 185,113 204,104" id="133" fill="rgb(174,161,118)" fill-opacity="0.501961" />
<polygon points="138,83 145,105 143,89" id="134" fill="rgb(19,15,27)" fill-opacity="0.501961" />
<polygon points="159,98 169,68 160,118" id="135" fill="rgb(134,119,79)" fill-opacity="0.501961" />
<polygon points="256,34 256,54 121,43" id="136" fill="rgb(187,180,165)" fill-opacity="0.501961" />
<polygon points="25,135 32,123 0,128" id="137" fill="rgb(123,110,67)" fill-opacity="0.501961" />
<polygon points="0,66 37,60 0,59" id="138" fill="rgb(149,146,120)" fill-opacity="0.501961" />
<polygon points="172,83 183,107 156,71" id="139" fill="rgb(131,127,90)" fill-opacity="0.501961" />
<polygon points="0,140 -13,168 16,171" id="140" fill="rgb(122,95,60)" fill-opacity="0.501961" />
<polygon points="199,109 179,118 201,158" id="141" fill="rgb(66,71,60)" fill-opacity="0.501961" />
<polygon points="245,176 232,188 272,187" id="142" fill="rgb(24,18,29)" fill-opacity="0.501961" />
<polygon points="108,134 164,128 113,138" id="143" fill="rgb(20,13,28)" fill-opacity="0.501961" />
<polygon points="24,91 0,97 0,60" id="144" fill="rgb(144,132,96)" fill-opacity="0.501961" />
<polygon points="48,184 86,179 124,191" id="145" fill="rgb(26,20,29)" fill-opacity="0.501961" />
<polygon points="226,82 215,110 238,107" id="146" fill="rgb(153,138,94)" fill-opacity="0.501961" />
<polygon points="0,146 84,145 70,135" id="147" fill="rgb(129,113,72)" fill-opacity="0.501961" />
<polygon points="121,94 128,97 133,89" id="148" fill="rgb(132,132,93)" fill-opacity="0.501961" />
<polygon points="183,146 178,101 190,148" id="149" fill="rgb(42,38,40)" fill-opacity="0.501961" />
<polygon points="87,128 92,133 42,137" id="150" fill="rgb(76,67,53)" fill-opacity="0.501961" />
<polygon points="110,82 81,101 99,78" id="151" fill="rgb(28,25,33)" fill-opacity="0.501961" />
<polygon points="157,185 171,170 196,170" id="152" fill="rgb(27,21,30)" fill-opacity="0.501961" />
<polygon points="40,72 92,75 28,74" id="153" fill="rgb(141,124,86)" fill-opacity="0.501961" />
<polygon points="192,54 272,67 228,52" id="154" fill="rgb(148,145,114)" fill-opacity="0.501961" />
<polygon points="120,56 153,55 106,69" id="155" fill="rgb(194,176,144)" fill-opacity="0.501961" />
<polygon points="0,99 0,118 54,89" id="156" fill="rgb(166,149,113)" fill-opacity="0.501961" />
<polygon points="236,78 200,86 222,84" id="157" fill="rgb(125,115,78)" fill-opacity="0.501961" />
<polygon points="122,191 127,164 163,184" id="158" fill="rgb(41,33,35)" fill-opacity="0.501961" />
<polygon points="131,72 149,95 167,92" id="159" fill="rgb(155,144,105)" fill-opacity="0.501961" />
<polygon points="192,117 216,94 216,104" id="160" fill="rgb(24,19,31)" fill-opacity="0.501961" />
<polygon points="204,69 176,57 243,62" id="161" fill="rgb(187,164,127)" fill-opacity="0.501961" />
<polygon points="45,42 89,4 -11,26" id="162" fill="rgb(217,199,181)" fill-opacity="0.501961" />
<polygon points="166,55 177,9 251,15" id="163" fill="rgb(191,179,158)" fill-opacity="0.501961" />
<polygon points="244,190 194,191 80,190" id="164" fill="rgb(68,51,45)" fill-opacity="0.501961" />
<polygon points="0,136 0,139 17,137" id="165" fill="rgb(73,60,48)" fill-opacity="0.501961" />
<polygon points="229,74 256,54 280,67" id="166" fill="rgb(165,148,111)" fill-opacity="0.501961" />
<polygon points="52,129 68,97 63,119" id="167" fill="rgb(49,38,37)" fill-opacity="0.501961" />
<polygon points="140,0 244,0 256,0" id="168" fill="rgb(163,154,136)" fill-opacity="0.501961" />
<polygon points="183,181 243,172 178,164" id="169" fill="rgb(51,40,37)" fill-opacity="0.501961" />
<polygon points="73,104 75,126 60,125" id="170" fill="rgb(158,142,92)" fill-opacity="0.501961" />
<polygon points="145,108 113,112 98,104" id="171" fill="rgb(37,34,38)" fill-opacity="0.501961" />
<polygon points="159,65 154,71 141,65" id="172" fill="rgb(196,172,124)" fill-opacity="0.501961" />
<polygon points="216,156 208,146 214,125" id="173" fill="rgb(10,3,22)" fill-opacity="0.501961" />
<polygon points="179,138 162,133 180,148" id="174" fill="rgb(123,104,66)" fill-opacity="0.501961" />
<polygon points="109,58 99,64 103,71" id="175" fill="rgb(108,97,82)" fill-opacity="0.501961" />
<polygon points="256,111 240,110 256,114" id="176" fill="rgb(140,122,72)" fill-opacity="0.501961" />
<polygon points="186,88 192,104 199,90" id="177" fill="rgb(186,168,131)" fill-opacity="0.501961" />
<polygon points="100,110 97,129 99,128" id="178" fill="rgb(231,195,172)" fill-opacity="0.501961" />
<polygon points="102,76 136,71 50,63" id="179" fill="rgb(165,149,109)" fill-opacity="0.501961" />
<polygon points="123,125 141,116 126,113" id="180" fill="rgb(71,69,54)" fill-opacity="0.501961" />
<polygon points="74,161 0,191 26,171" id="181" fill="rgb(60,47,40)" fill-opacity="0.501961" />
<polygon points="207,147 256,147 183,167" id="182" fill="rgb(21,13,26)" fill-opacity="0.501961" />
<polygon points="101,55 88,33 183,55" id="183" fill="rgb(192,180,168)" fill-opacity="0.501961" />
<polygon points="66,172 104,169 98,159" id="184" fill="rgb(40,33,36)" fill-opacity="0.501961" />
<polygon points="84,69 33,61 69,80" id="185" fill="rgb(166,150,114)" fill-opacity="0.501961" />
<polygon points="77,48 81,52 114,50" id="186" fill="rgb(197,177,156)" fill-opacity="0.501961" />
<polygon points="190,155 131,166 199,157" id="187" fill="rgb(82,72,53)" fill-opacity="0.501961" />
<polygon points="179,73 173,56 186,63" id="188" fill="rgb(159,152,121)" fill-opacity="0.501961" />
<polygon points="153,103 134,105 160,112" id="189" fill="rgb(77,57,45)" fill-opacity="0.501961" />
<polygon points="78,40 56,62 56,44" id="190" fill="rgb(180,158,115)" fill-opacity="0.501961" />
<polygon points="28,142 53,124 47,112" id="191" fill="rgb(151,135,90)" fill-opacity="0.501961" />
<polygon points="126,88 115,99 108,88" id="192" fill="rgb(202,188,161)" fill-opacity="0.501961" />
<polygon points="0,180 67,171 8,171" id="193" fill="rgb(82,58,45)" fill-opacity="0.501961" />
<polygon points="182,108 169,111 182,110" id="194" fill="rgb(32,17,29)" fill-opacity="0.501961" />
<polygon points="151,124 172,83 170,123" id="195" fill="rgb(133,116,78)" fill-opacity="0.501961" />
<polygon points="31,119 60,103 0,104" id="196" fill="rgb(158,142,103)" fill-opacity="0.501961" />
<polygon points="187,104 163,103 168,98" id="197" fill="rgb(133,119,81)" fill-opacity="0.501961" />
<polygon points="232,92 272,117 256,70" id="198" fill="rgb(129,113,74)" fill-opacity="0.501961" />
<polygon points="118,176 107,177 114,181" id="199" fill="rgb(18,15,26)" fill-opacity="0.501961" />
<polygon points="110,86 107,83 136,60" id="200" fill="rgb(166,147,103)" fill-opacity="0.501961" />
<polygon points="76,63 74,49 51,58" id="201" fill="rgb(140,128,85)" fill-opacity="0.501961" />
<polygon points="77,136 0,139 0,153" id="202" fill="rgb(130,115,72)" fill-opacity="0.501961" />
<polygon points="111,96 91,111 111,107" id="203" fill="rgb(63,41,41)" fill-opacity="0.501961" />
<polygon points="179,15 141,21 126,68" id="204" fill="rgb(196,181,166)" fill-opacity="0.501961" />
<polygon points="166,75 93,74 168,81" id="205" fill="rgb(154,141,104)" fill-opacity="0.501961" />
<polygon points="103,145 21,168 65,145" id="206" fill="rgb(102,84,58)" fill-opacity="0.501961" />
<polygon points="225,128 215,116 218,144" id="207" fill="rgb(104,84,59)" fill-opacity="0.501961" />
<polygon points="256,137 225,145 256,149" id="208" fill="rgb(48,39,36)" fill-opacity="0.501961" />
<polygon points="38,61 -19,24 11,58" id="209" fill="rgb(198,181,166)" fill-opacity="0.501961" />
<polygon points="52,175 13,175 29,191" id="210" fill="rgb(54,44,38)" fill-opacity="0.501961" />
<polygon points="217,139 221,145 234,139" id="211" fill="rgb(99,82,56)" fill-opacity="0.501961" />
<polygon points="86,83 89,74 83,68" id="212" fill="rgb(143,112,74)" fill-opacity="0.501961" />
<polygon points="52,106 0,97 47,95" id="213" fill="rgb(165,151,115)" fill-opacity="0.501961" />
<polygon points="52,46 24,79 42,45" id="214" fill="rgb(174,153,114)" fill-opacity="0.501961" />
<polygon points="97,181 100,156 107,191" id="215" fill="rgb(59,49,42)" fill-opacity="0.501961" />
<polygon points="157,77 166,63 157,66" id="216" fill="rgb(133,120,69)" fill-opacity="0.501961" />
<polygon points="162,58 107,58 173,55" id="217" fill="rgb(168,157,125)" fill-opacity="0.501961" />
<polygon points="89,154 89,177 84,156" id="218" fill="rgb(60,53,44)" fill-opacity="0.501961" />
<polygon points="239,58 256,26 226,44" id="219" fill="rgb(187,185,166)" fill-opacity="0.501961" />
<polygon points="61,0 102,47 39,31" id="220" fill="rgb(212,197,180)" fill-opacity="0.501961" />
<polygon points="168,99 134,63 139,64" id="221" fill="rgb(135,122,83)" fill-opacity="0.501961" />
<polygon points="0,111 0,102 51,139" id="222" fill="rgb(146,131,88)" fill-opacity="0.501961" />
<polygon points="232,111 275,107 255,106" id="223" fill="rgb(80,62,47)" fill-opacity="0.501961" />
<polygon points="246,109 248,116 256,112" id="224" fill="rgb(135,115,69)" fill-opacity="0.501961" />
<polygon points="198,159 201,104 191,158" id="225" fill="rgb(80,84,68)" fill-opacity="0.501961" />
<polygon points="200,118 185,133 181,120" id="226" fill="rgb(76,80,66)" fill-opacity="0.501961" />
<polygon points="201,142 194,155 206,191" id="227" fill="rgb(43,37,36)" fill-opacity="0.501961" />
<polygon points="98,171 119,166 200,169" id="228" fill="rgb(44,36,35)" fill-opacity="0.501961" />
<polygon points="144,62 135,59 144,41" id="229" fill="rgb(204,185,157)" fill-opacity="0.501961" />
<polygon points="193,121 180,173 193,141" id="230" fill="rgb(37,37,38)" fill-opacity="0.501961" />
<polygon points="74,152 28,145 88,134" id="231" fill="rgb(119,104,69)" fill-opacity="0.501961" />
<polygon points="76,43 66,46 82,71" id="232" fill="rgb(148,136,97)" fill-opacity="0.501961" />
<polygon points="233,162 196,161 209,143" id="233" fill="rgb(18,10,26)" fill-opacity="0.501961" />
<polygon points="114,66 119,87 116,90" id="234" fill="rgb(159,145,118)" fill-opacity="0.501961" />
<polygon points="143,146 181,136 168,154" id="235" fill="rgb(114,97,62)" fill-opacity="0.501961" />
<polygon points="73,118 77,113 82,134" id="236" fill="rgb(77,74,57)" fill-opacity="0.501961" />
<polygon points="182,117 209,91 205,102" id="237" fill="rgb(148,138,92)" fill-opacity="0.501961" />
<polygon points="136,117 146,102 145,135" id="238" fill="rgb(23,17,30)" fill-opacity="0.501961" />
<polygon points="95,119 98,95 99,92" id="239" fill="rgb(122,81,61)" fill-opacity="0.501961" />
<polygon points="145,76 176,96 169,77" id="240" fill="rgb(128,119,82)" fill-opacity="0.501961" />
<polygon points="161,77 114,80 109,74" id="241" fill="rgb(161,144,110)" fill-opacity="0.501961" />
<polygon points="165,175 92,168 146,177" id="242" fill="rgb(67,53,44)" fill-opacity="0.501961" />
<polygon points="189,178 154,205 256,151" id="243" fill="rgb(50,40,38)" fill-opacity="0.501961" />
<polygon points="200,172 137,155 114,155" id="244" fill="rgb(64,54,45)" fill-opacity="0.501961" />
<polygon points="225,174 239,179 193,180" id="245" fill="rgb(64,51,42)" fill-opacity="0.501961" />
<polygon points="122,73 148,78 148,67" id="246" fill="rgb(141,128,90)" fill-opacity="0.501961" />
<polygon points="110,140 101,134 89,135" id="247" fill="rgb(151,122,92)" fill-opacity="0.501961" />
<polygon points="108,124 101,138 115,139" id="248" fill="rgb(47,37,39)" fill-opacity="0.501961" />
<polygon points="29,157 49,151 15,156" id="249" fill="rgb(76,56,46)" fill-opacity="0.501961" />
<polygon points="60,83 61,100 54,103" id="250" fill="rgb(53,64,70)" fill-opacity="0.501961" />
<polygon points="238,146 244,143 212,131" id="251" fill="rgb(38,34,36)" fill-opacity="0.501961" />
<polygon points="100,56 98,45 216,44" id="252" fill="rgb(189,177,163)" fill-opacity="0.501961" />
<polygon points="70,79 48,92 55,50" id="253" fill="rgb(157,145,112)" fill-opacity="0.501961" />
<polygon points="30,57 24,37 52,30" id="254" fill="rgb(209,188,174)" fill-opacity="0.501961" />
<polygon points="95,117 103,90 88,131" id="255" fill="rgb(70,54,48)" fill-opacity="0.501961" />
<polygon points="95,140 91,110 96,119" id="256" fill="rgb(60,62,51)" fill-opacity="0.501961" />
<polygon points="162,148 175,140 131,146" id="257" fill="rgb(122,103,66)" fill-opacity="0.501961" />
<polygon points="102,77 108,85 89,96" id="258" fill="rgb(31,29,34)" fill-opacity="0.501961" />
<polygon points="205,87 174,75 189,75" id="259" fill="rgb(111,115,95)" fill-opacity="0.501961" />
<polygon points="166,108 165,121 157,111" id="260" fill="rgb(148,130,91)" fill-opacity="0.501961" />
<polygon points="208,129 198,109 209,102" id="261" fill="rgb(33,30,35)" fill-opacity="0.501961" />
<polygon points="183,15 199,0 256,19" id="262" fill="rgb(179,170,153)" fill-opacity="0.501961" />
<polygon points="226,99 218,104 218,94" id="263" fill="rgb(165,152,106)" fill-opacity="0.501961" />
<polygon points="55,166 12,163 79,177" id="264" fill="rgb(77,62,47)" fill-opacity="0.501961" />
<polygon points="55,83 0,93 36,91" id="265" fill="rgb(144,129,88)" fill-opacity="0.501961" />
<polygon points="83,83 82,97 67,99" id="266" fill="rgb(54,45,42)" fill-opacity="0.501961" />
<polygon points="241,108 259,109 248,107" id="267" fill="rgb(60,45,42)" fill-opacity="0.501961" />
<polygon points="107,161 138,160 140,167" id="268" fill="rgb(92,76,55)" fill-opacity="0.501961" />
<polygon points="40,152 71,152 70,166" id="269" fill="rgb(81,69,52)" fill-opacity="0.501961" />
<polygon points="14,176 0,173 0,181" id="270" fill="rgb(97,68,48)" fill-opacity="0.501961" />
<polygon points="93,103 77,107 93,113" id="271" fill="rgb(15,11,28)" fill-opacity="0.501961" />
<polygon points="209,79 193,55 193,63" id="272" fill="rgb(172,153,110)" fill-opacity="0.501961" />
<polygon points="158,127 165,125 198,108" id="273" fill="rgb(141,126,81)" fill-opacity="0.501961" />
<polygon points="185,28 171,0 119,0" id="274" fill="rgb(198,183,168)" fill-opacity="0.501961" />
<polygon points="39,173 61,166 57,159" id="275" fill="rgb(48,44,40)" fill-opacity="0.501961" />
<polygon points="65,99 63,98 48,136" id="276" fill="rgb(101,75,56)" fill-opacity="0.501961" />
<polygon points="23,162 8,149 -6,165" id="277" fill="rgb(104,77,54)" fill-opacity="0.501961" />
<polygon points="204,141 216,90 201,107" id="278" fill="rgb(24,19,30)" fill-opacity="0.501961" />
<polygon points="251,61 238,55 263,57" id="279" fill="rgb(139,139,99)" fill-opacity="0.501961" />
<polygon points="79,160 64,147 78,164" id="280" fill="rgb(118,103,66)" fill-opacity="0.501961" />
<polygon points="61,78 74,61 73,89" id="281" fill="rgb(152,137,98)" fill-opacity="0.501961" />
<polygon points="58,137 83,147 102,137" id="282" fill="rgb(127,112,74)" fill-opacity="0.501961" />
<polygon points="126,126 144,138 108,146" id="283" fill="rgb(18,11,27)" fill-opacity="0.501961" />
<polygon points="33,0 124,2 110,27" id="284" fill="rgb(214,199,180)" fill-opacity="0.501961" />
<polygon points="219,81 256,107 217,91" id="285" fill="rgb(140,127,85)" fill-opacity="0.501961" />
<polygon points="173,18 219,34 232,24" id="286" fill="rgb(199,186,160)" fill-opacity="0.501961" />
<polygon points="55,107 56,103 0,109" id="287" fill="rgb(161,147,109)" fill-opacity="0.501961" />
<polygon points="178,169 160,189 182,183" id="288" fill="rgb(22,17,30)" fill-opacity="0.501961" />
<polygon points="53,185 0,187 1,191" id="289" fill="rgb(39,30,32)" fill-opacity="0.501961" />
<polygon points="17,180 6,180 4,191" id="290" fill="rgb(36,29,30)" fill-opacity="0.501961" />
<polygon points="97,140 101,113 104,110" id="291" fill="rgb(187,156,128)" fill-opacity="0.501961" />
<polygon points="51,138 35,128 19,140" id="292" fill="rgb(151,135,89)" fill-opacity="0.501961" />
<polygon points="183,107 180,129 168,153" id="293" fill="rgb(67,48,40)" fill-opacity="0.501961" />
<polygon points="55,8 8,12 -17,36" id="294" fill="rgb(226,209,186)" fill-opacity="0.501961" />
<polygon points="240,59 240,68 230,58" id="295" fill="rgb(189,168,136)" fill-opacity="0.501961" />
<polygon points="255,149 230,130 256,135" id="296" fill="rgb(59,49,40)" fill-opacity="0.501961" />
<polygon points="35,64 0,82 11,70" id="297" fill="rgb(144,136,103)" fill-opacity="0.501961" />
<polygon points="97,152 99,138 76,164" id="298" fill="rgb(86,63,50)" fill-opacity="0.501961" />
<polygon points="256,166 212,168 198,164" id="299" fill="rgb(70,52,44)" fill-opacity="0.501961" />
<polygon points="74,126 89,133 95,131" id="300" fill="rgb(96,92,65)" fill-opacity="0.501961" />
<polygon points="183,116 176,135 170,133" id="301" fill="rgb(63,48,41)" fill-opacity="0.501961" />
<polygon points="136,63 120,67 137,68" id="302" fill="rgb(192,165,118)" fill-opacity="0.501961" />
<polygon points="168,91 168,66 167,63" id="303" fill="rgb(103,82,57)" fill-opacity="0.501961" />
<polygon points="111,125 112,102 130,129" id="304" fill="rgb(27,25,33)" fill-opacity="0.501961" />
<polygon points="172,58 171,65 165,69" id="305" fill="rgb(41,33,36)" fill-opacity="0.501961" />
<polygon points="122,94 120,103 132,85" id="306" fill="rgb(152,149,115)" fill-opacity="0.501961" />
<polygon points="165,103 174,99 171,82" id="307" fill="rgb(115,101,68)" fill-opacity="0.501961" />
<polygon points="172,134 167,133 171,124" id="308" fill="rgb(133,112,68)" fill-opacity="0.501961" />
<polygon points="58,139 65,128 71,137" id="309" fill="rgb(134,118,77)" fill-opacity="0.501961" />
<polygon points="186,1 184,0 240,0" id="310" fill="rgb(161,153,136)" fill-opacity="0.501961" />
<polygon points="106,78 110,75 109,55" id="311" fill="rgb(168,153,121)" fill-opacity="0.501961" />
<polygon points="195,114 203,107 185,116" id="312" fill="rgb(37,28,33)" fill-opacity="0.501961" />
<polygon points="168,112 173,149 168,72" id="313" fill="rgb(127,109,71)" fill-opacity="0.501961" />
<polygon points="130,121 161,138 143,114" id="314" fill="rgb(27,22,31)" fill-opacity="0.501961" />
<polygon points="35,155 51,159 34,165" id="315" fill="rgb(119,99,63)" fill-opacity="0.501961" />
<polygon points="73,32 48,34 62,46" id="316" fill="rgb(208,189,173)" fill-opacity="0.501961" />
<polygon points="62,179 98,179 52,191" id="317" fill="rgb(26,21,29)" fill-opacity="0.501961" />
<polygon points="169,89 141,86 154,98" id="318" fill="rgb(154,140,98)" fill-opacity="0.501961" />
<polygon points="41,132 53,129 46,134" id="319" fill="rgb(65,36,35)" fill-opacity="0.501961" />
<polygon points="256,43 256,23 209,8" id="320" fill="rgb(181,178,155)" fill-opacity="0.501961" />
<polygon points="244,127 256,125 218,111" id="321" fill="rgb(112,90,58)" fill-opacity="0.501961" />
<polygon points="102,95 115,99 125,128" id="322" fill="rgb(43,38,39)" fill-opacity="0.501961" />
<polygon points="172,78 183,66 169,74" id="323" fill="rgb(204,200,171)" fill-opacity="0.501961" />
<polygon points="57,144 20,146 99,155" id="324" fill="rgb(113,96,65)" fill-opacity="0.501961" />
<polygon points="0,122 43,132 54,117" id="325" fill="rgb(139,126,80)" fill-opacity="0.501961" />
<polygon points="251,183 228,158 233,167" id="326" fill="rgb(57,46,40)" fill-opacity="0.501961" />
<polygon points="239,171 256,181 245,170" id="327" fill="rgb(29,22,29)" fill-opacity="0.501961" />
<polygon points="87,95 98,114 76,109" id="328" fill="rgb(21,17,31)" fill-opacity="0.501961" />
<polygon points="220,57 222,61 180,57" id="329" fill="rgb(177,169,144)" fill-opacity="0.501961" />
<polygon points="249,104 240,105 241,114" id="330" fill="rgb(79,59,46)" fill-opacity="0.501961" />
<polygon points="204,105 161,127 152,127" id="331" fill="rgb(134,119,78)" fill-opacity="0.501961" />
<polygon points="176,72 183,83 188,81" id="332" fill="rgb(90,84,63)" fill-opacity="0.501961" />
<polygon points="3,67 88,64 58,62" id="333" fill="rgb(163,148,111)" fill-opacity="0.501961" />
<polygon points="256,91 241,85 256,101" id="334" fill="rgb(114,97,66)" fill-opacity="0.501961" />
<polygon points="76,77 0,74 61,85" id="335" fill="rgb(154,142,111)" fill-opacity="0.501961" />
<polygon points="146,78 150,82 168,52" id="336" fill="rgb(161,146,99)" fill-opacity="0.501961" />
<polygon points="247,124 256,120 256,135" id="337" fill="rgb(97,73,53)" fill-opacity="0.501961" />
<polygon points="256,50 213,51 256,55" id="338" fill="rgb(171,168,145)" fill-opacity="0.501961" />
<polygon points="135,146 140,155 113,145" id="339" fill="rgb(93,76,54)" fill-opacity="0.501961" />
<polygon points="256,106 244,85 212,78" id="340" fill="rgb(130,119,79)" fill-opacity="0.501961" />
<polygon points="93,46 73,22 79,51" id="341" fill="rgb(208,195,178)" fill-opacity="0.501961" />
<polygon points="101,60 69,61 113,57" id="342" fill="rgb(133,125,91)" fill-opacity="0.501961" />
<polygon points="223,90 271,81 254,70" id="343" fill="rgb(136,125,83)" fill-opacity="0.501961" />
<polygon points="196,157 159,164 171,151" id="344" fill="rgb(76,65,50)" fill-opacity="0.501961" />
<polygon points="171,137 159,141 165,133" id="345" fill="rgb(84,69,52)" fill-opacity="0.501961" />
<polygon points="43,68 27,71 25,72" id="346" fill="rgb(190,165,133)" fill-opacity="0.501961" />
<polygon points="29,8 0,0 26,3" id="347" fill="rgb(189,178,165)" fill-opacity="0.501961" />
<polygon points="98,120 103,121 105,116" id="348" fill="rgb(145,101,86)" fill-opacity="0.501961" />
<polygon points="194,66 201,83 192,64" id="349" fill="rgb(75,73,59)" fill-opacity="0.501961" />
<polygon points="37,128 45,153 52,138" id="350" fill="rgb(136,118,77)" fill-opacity="0.501961" />
<polygon points="97,97 104,97 93,110" id="351" fill="rgb(116,68,53)" fill-opacity="0.501961" />
<polygon points="74,191 0,190 36,191" id="352" fill="rgb(81,65,52)" fill-opacity="0.501961" />
<polygon points="115,132 143,127 115,127" id="353" fill="rgb(16,8,27)" fill-opacity="0.501961" />
<polygon points="188,140 179,106 178,107" id="354" fill="rgb(64,57,52)" fill-opacity="0.501961" />
<polygon points="176,47 165,54 107,57" id="355" fill="rgb(184,177,161)" fill-opacity="0.501961" />
<polygon points="146,174 167,191 130,165" id="356" fill="rgb(39,30,34)" fill-opacity="0.501961" />
<polygon points="54,92 52,87 74,80" id="357" fill="rgb(107,116,101)" fill-opacity="0.501961" />
<polygon points="167,55 157,80 165,64" id="358" fill="rgb(108,96,57)" fill-opacity="0.501961" />
<polygon points="215,12 237,0 256,8" id="359" fill="rgb(167,160,148)" fill-opacity="0.501961" />
<polygon points="162,91 135,79 159,70" id="360" fill="rgb(143,133,96)" fill-opacity="0.501961" />
<polygon points="127,39 165,55 191,52" id="361" fill="rgb(190,181,168)" fill-opacity="0.501961" />
<polygon points="187,145 181,140 185,158" id="362" fill="rgb(24,26,35)" fill-opacity="0.501961" />
<polygon points="203,76 192,77 189,85" id="363" fill="rgb(100,103,86)" fill-opacity="0.501961" />
<polygon points="207,71 208,77 256,67" id="364" fill="rgb(158,140,108)" fill-opacity="0.501961" />
<polygon points="246,184 256,146 251,139" id="365" fill="rgb(45,37,35)" fill-opacity="0.501961" />
<polygon points="162,110 161,124 160,113" id="366" fill="rgb(158,141,99)" fill-opacity="0.501961" />
<polygon points="23,111 43,140 40,112" id="367" fill="rgb(144,131,87)" fill-opacity="0.501961" />
<polygon points="52,37 0,59 14,60" id="368" fill="rgb(196,179,161)" fill-opacity="0.501961" />
<polygon points="238,120 237,107 227,114" id="369" fill="rgb(136,113,68)" fill-opacity="0.501961" />
<polygon points="162,38 220,9 178,44" id="370" fill="rgb(190,177,158)" fill-opacity="0.501961" />
<polygon points="210,81 256,64 211,71" id="371" fill="rgb(158,143,106)" fill-opacity="0.501961" />
<polygon points="49,38 57,56 47,67" id="372" fill="rgb(151,137,97)" fill-opacity="0.501961" />
<polygon points="186,177 182,178 187,184" id="373" fill="rgb(74,60,45)" fill-opacity="0.501961" />
<polygon points="179,73 165,78 174,84" id="374" fill="rgb(177,177,149)" fill-opacity="0.501961" />
<polygon points="142,114 129,125 119,107" id="375" fill="rgb(62,58,48)" fill-opacity="0.501961" />
<polygon points="130,84 124,81 133,79" id="376" fill="rgb(46,30,33)" fill-opacity="0.501961" />
<polygon points="171,80 166,79 172,92" id="377" fill="rgb(122,110,73)" fill-opacity="0.501961" />
<polygon points="82,58 78,53 91,50" id="378" fill="rgb(179,160,124)" fill-opacity="0.501961" />
<polygon points="110,170 117,183 132,188" id="379" fill="rgb(34,27,32)" fill-opacity="0.501961" />
<polygon points="186,88 181,101 180,92" id="380" fill="rgb(87,84,63)" fill-opacity="0.501961" />
<polygon points="126,67 131,58 143,52" id="381" fill="rgb(216,190,152)" fill-opacity="0.501961" />
<polygon points="121,104 133,92 123,101" id="382" fill="rgb(132,126,83)" fill-opacity="0.501961" />
<polygon points="172,164 170,137 169,136" id="383" fill="rgb(94,74,51)" fill-opacity="0.501961" />
<polygon points="74,86 87,83 85,81" id="384" fill="rgb(113,97,70)" fill-opacity="0.501961" />
<polygon points="46,143 68,157 72,141" id="385" fill="rgb(109,93,63)" fill-opacity="0.501961" />
<polygon points="176,115 157,108 170,118" id="386" fill="rgb(133,115,76)" fill-opacity="0.501961" />
<polygon points="60,147 39,161 38,150" id="387" fill="rgb(99,79,56)" fill-opacity="0.501961" />
<polygon points="104,15 116,0 142,17" id="388" fill="rgb(207,193,175)" fill-opacity="0.501961" />
<polygon points="216,128 232,130 219,123" id="389" fill="rgb(105,85,60)" fill-opacity="0.501961" />
<polygon points="10,121 -19,109 6,133" id="390" fill="rgb(141,125,78)" fill-opacity="0.501961" />
<polygon points="54,175 98,178 64,174" id="391" fill="rgb(81,64,47)" fill-opacity="0.501961" />
<polygon points="67,89 65,99 74,99" id="392" fill="rgb(53,36,38)" fill-opacity="0.501961" />
<polygon points="146,188 88,186 153,190" id="393" fill="rgb(46,37,37)" fill-opacity="0.501961" />
<polygon points="205,63 188,62 218,58" id="394" fill="rgb(165,151,120)" fill-opacity="0.501961" />
<polygon points="68,49 54,47 70,41" id="395" fill="rgb(186,164,126)" fill-opacity="0.501961" />
<polygon points="56,5 75,6 48,0" id="396" fill="rgb(200,187,173)" fill-opacity="0.501961" />
<polygon points="238,106 239,105 243,120" id="397" fill="rgb(66,44,39)" fill-opacity="0.501961" />
<polygon points="239,106 240,114 253,104" id="398" fill="rgb(85,64,49)" fill-opacity="0.501961" />
<polygon points="179,171 190,170 203,191" id="399" fill="rgb(35,27,32)" fill-opacity="0.501961" />
<polygon points="181,60 194,97 174,59" id="400" fill="rgb(161,154,122)" fill-opacity="0.501961" />
<polygon points="170,69 176,70 179,95" id="401" fill="rgb(202,200,174)" fill-opacity="0.501961" />
<polygon points="90,74 101,93 108,84" id="402" fill="rgb(45,44,44)" fill-opacity="0.501961" />
<polygon points="142,82 120,71 92,66" id="403" fill="rgb(163,147,109)" fill-opacity="0.501961" />
<polygon points="35,88 75,78 31,78" id="404" fill="rgb(160,146,113)" fill-opacity="0.501961" />
<polygon points="232,34 209,53 161,31" id="405" fill="rgb(187,178,163)" fill-opacity="0.501961" />
<polygon points="58,74 0,77 0,86" id="406" fill="rgb(149,137,103)" fill-opacity="0.501961" />
</svg>