<?xml version="1.0" standalone="no"?>
<svg xmlns="http://www.w3.org/2000/svg" version="1.2" baseProfile="tiny" width="256" height="206" viewBox="0 0 256 206">
<rect x="0" y="0" width="256" height="206" id="0" fill="rgb(157,136,97)" fill-opacity="1" />
<polygon points="160,0 18,95 165,191" id="1" fill="rgb(104,90,65)" fill-opacity="0.501961" />
<polygon points="256,66 131,206 252,206" id="2" fill="rgb(201,173,123)" fill-opacity="0.501961" />
<polygon points="0,129 46,0 48,206" id="3" fill="rgb(206,180,131)" fill-opacity="0.501961" />
<polygon points="73,181 209,156 189,41" id="4" fill="rgb(111,95,69)" fill-opacity="0.501961" />
<polygon points="123,0 256,97 256,0" id="5" fill="rgb(199,170,127)" fill-opacity="0.501961" />
<polygon points="219,206 0,205 29,160" id="6" fill="rgb(202,172,121)" fill-opacity="0.501961" />
<polygon points="110,194 105,12 41,114" id="7" fill="rgb(110,95,68)" fill-opacity="0.501961" />
<polygon points="0,81 145,0 17,0" id="8" fill="rgb(193,164,114)" fill-opacity="0.501961" />
<polygon points="80,34 163,24 211,89" id="9" fill="rgb(101,88,72)" fill-opacity="0.501961" />
<polygon points="188,153 59,154 130,0" id="10" fill="rgb(143,122,79)" fill-opacity="0.501961" />
<polygon points="129,20 73,39 54,92" id="11" fill="rgb(99,83,62)" fill-opacity="0.501961" />
<polygon points="234,140 200,80 236,56" id="12" fill="rgb(188,167,136)" fill-opacity="0.501961" />
</svg>