<?xml version="1.0" standalone="no"?>
<svg xmlns="http://www.w3.org/2000/svg" version="1.2" baseProfile="tiny" width="256" height="170" viewBox="0 0 256 170">
<rect x="0" y="0" width="256" height="170" id="0" fill="rgb(23,22,23)" fill-opacity="1" />
<polygon points="186,97 103,43 90,113" id="1" fill="rgb(255,255,255)" fill-opacity="0.501961" />
<polygon points="161,57 145,119 78,73" id="2" fill="rgb(201,202,202)" fill-opacity="0.501961" />
<polygon points="181,62 78,29 181,109" id="3" fill="rgb(77,74,77)" fill-opacity="0.501961" />
<polygon points="256,0 159,98 255,170" id="4" fill="rgb(0,0,0)" fill-opacity="0.501961" />
<polygon points="106,0 0,170 0,0" id="5" fill="rgb(0,0,0)" fill-opacity="0.501961" />
<polygon points="0,61 256,170 0,170" id="6" fill="rgb(0,0,0)" fill-opacity="0.501961" />
<polygon points="256,72 43,0 256,0" id="7" fill="rgb(0,0,0)" fill-opacity="0.501961" />
<polygon points="117,28 55,75 80,133" id="8" fill="rgb(63,61,63)" fill-opacity="0.501961" />
<polygon points="147,127 101,113 184,85" id="9" fill="rgb(99,95,95)" fill-opacity="0.501961" />
<polygon points="99,68 135,96 153,68" id="10" fill="rgb(236,237,237)" fill-opacity="0.501961" />
<polygon points="256,170 151,170 256,27" id="11" fill="rgb(0,0,0)" fill-opacity="0.501961" />
<polygon points="181,95 143,23 111,49" id="12" fill="rgb(77,75,76)" fill-opacity="0.501961" />
<polygon points="87,87 124,87 96,113" id="13" fill="rgb(96,96,96)" fill-opacity="0.501961" />
<polygon points="100,99 127,72 105,75" id="14" fill="rgb(255,255,255)" fill-opacity="0.501961" />
<polygon points="78,132 163,124 45,79" id="15" fill="rgb(39,36,39)" fill-opacity="0.501961" />
<polygon points="256,0 212,42 0,0" id="16" fill="rgb(0,0,0)" fill-opacity="0.501961" />
<polygon points="123,47 61,94 87,17" id="17" fill="rgb(49,45,47)" fill-opacity="0.501961" />
<polygon points="108,59 92,91 94,58" id="18" fill="rgb(134,135,133)" fill-opacity="0.501961" />
<polygon points="175,161 0,114 0,170" id="19" fill="rgb(0,0,0)" fill-opacity="0.501961" />
<polygon points="159,69 124,63 153,111" id="20" fill="rgb(152,153,154)" fill-opacity="0.501961" />
<polygon points="7,26 87,79 67,9" id="21" fill="rgb(0,0,0)" fill-opacity="0.501961" />
<polygon points="186,128 148,26 169,132" id="22" fill="rgb(48,45,47)" fill-opacity="0.501961" />
</svg>