<?xml version="1.0" standalone="no"?>
<svg xmlns="http://www.w3.org/2000/svg" version="1.2" baseProfile="tiny" width="256" height="170" viewBox="0 0 256 170">
<rect x="0" y="0" width="256" height="170" id="0" fill="rgb(98,95,95)" fill-opacity="1" />
<polygon points="256,0 33,0 125,98" id="1" fill="rgb(255,255,255)" fill-opacity="0.501961" />
<polygon points="0,30 256,169 0,170" id="2" fill="rgb(10,7,2)" fill-opacity="0.501961" />
<polygon points="144,170 256,170 256,26" id="3" fill="rgb(19,16,13)" fill-opacity="0.501961" />
<polygon points="256,13 25,0 217,59" id="4" fill="rgb(226,230,252)" fill-opacity="0.501961" />
<polygon points="135,31 146,120 18,112" id="5" fill="rgb(120,110,96)" fill-opacity="0.501961" />
<polygon points="128,0 99,51 51,43" id="6" fill="rgb(255,255,255)" fill-opacity="0.501961" />
<polygon points="256,86 256,61 149,75" id="7" fill="rgb(0,0,0)" fill-opacity="0.501961" />
<polygon points="89,170 0,104 0,170" id="8" fill="rgb(2,3,6)" fill-opacity="0.501961" />
<polygon points="110,144 254,144 116,142" id="9" fill="rgb(255,255,255)" fill-opacity="0.501961" />
<polygon points="191,126 15,84 256,84" id="10" fill="rgb(110,100,84)" fill-opacity="0.501961" />
</svg>