<?xml version="1.0" standalone="no"?>
<svg xmlns="http://www.w3.org/2000/svg" version="1.2" baseProfile="tiny" width="256" height="170" viewBox="0 0 256 170">
<rect x="0" y="0" width="256" height="170" id="0" fill="rgb(113,113,112)" fill-opacity="1" />
<polygon points="5,76 0,0 256,0" id="1" fill="rgb(251,255,255)" fill-opacity="0.501961" />
<polygon points="86,170 237,100 0,88" id="2" fill="rgb(0,0,0)" fill-opacity="0.501961" />
<polygon points="256,28 256,0 0,0" id="3" fill="rgb(255,255,255)" fill-opacity="0.501961" />
<polygon points="87,170 0,170 0,90" id="4" fill="rgb(28,22,8)" fill-opacity="0.501961" />
<polygon points="187,68 67,83 38,46" id="5" fill="rgb(25,35,26)" fill-opacity="0.501961" />
<polygon points="248,64 48,170 187,137" id="6" fill="rgb(9,12,15)" fill-opacity="0.501961" />
<polygon points="189,155 243,114 206,185" id="7" fill="rgb(0,0,0)" fill-opacity="0.501961" />
<polygon points="127,18 0,26 3,99" id="8" fill="rgb(118,121,125)" fill-opacity="0.501961" />
<polygon points="8,170 0,150 160,119" id="9" fill="rgb(153,143,132)" fill-opacity="0.501961" />
<polygon points="211,85 75,14 256,18" id="10" fill="rgb(157,166,175)" fill-opacity="0.501961" />
<polygon points="256,112 234,93 164,157" id="11" fill="rgb(198,182,165)" fill-opacity="0.501961" />
<polygon points="256,0 0,0 0,20" id="12" fill="rgb(246,244,244)" fill-opacity="0.501961" />
<polygon points="176,98 59,99 23,70" id="13" fill="rgb(144,139,133)" fill-opacity="0.501961" />
<polygon points="120,122 0,120 1,144" id="14" fill="rgb(5,9,11)" fill-opacity="0.501961" />
<polygon points="256,0 256,16 0,56" id="15" fill="rgb(204,208,212)" fill-opacity="0.501961" />
<polygon points="179,90 198,129 229,74" id="16" fill="rgb(44,46,49)" fill-opacity="0.501961" />
<polygon points="92,170 135,170 238,113" id="17" fill="rgb(178,166,152)" fill-opacity="0.501961" />
<polygon points="171,39 207,56 118,84" id="18" fill="rgb(78,80,79)" fill-opacity="0.501961" />
<polygon points="83,170 26,170 168,124" id="19" fill="rgb(10,13,5)" fill-opacity="0.501961" />
<polygon points="212,142 198,111 220,105" id="20" fill="rgb(158,150,139)" fill-opacity="0.501961" />
<polygon points="227,54 229,71 118,96" id="21" fill="rgb(174,165,155)" fill-opacity="0.501961" />
<polygon points="19,80 20,100 125,115" id="22" fill="rgb(20,22,19)" fill-opacity="0.501961" />
<polygon points="148,47 69,0 70,57" id="23" fill="rgb(148,154,160)" fill-opacity="0.501961" />
<polygon points="192,129 215,77 83,170" id="24" fill="rgb(25,26,31)" fill-opacity="0.501961" />
<polygon points="144,48 34,74 143,81" id="25" fill="rgb(50,60,51)" fill-opacity="0.501961" />
<polygon points="208,170 238,115 178,177" id="26" fill="rgb(15,16,15)" fill-opacity="0.501961" />
<polygon points="250,157 239,144 256,152" id="27" fill="rgb(0,0,0)" fill-opacity="0.501961" />
<polygon points="256,77 256,22 188,16" id="28" fill="rgb(116,127,137)" fill-opacity="0.501961" />
<polygon points="236,91 235,58 256,80" id="29" fill="rgb(49,53,51)" fill-opacity="0.501961" />
<polygon points="97,16 264,-10 256,11" id="30" fill="rgb(248,246,244)" fill-opacity="0.501961" />
<polygon points="111,100 168,89 167,140" id="31" fill="rgb(68,68,67)" fill-opacity="0.501961" />
<polygon points="191,26 126,40 176,23" id="32" fill="rgb(243,240,234)" fill-opacity="0.501961" />
<polygon points="207,143 127,170 193,170" id="33" fill="rgb(92,82,67)" fill-opacity="0.501961" />
<polygon points="96,33 -11,46 13,30" id="34" fill="rgb(98,108,121)" fill-opacity="0.501961" />
<polygon points="256,152 251,121 238,138" id="35" fill="rgb(122,159,220)" fill-opacity="0.501961" />
</svg>