<?xml version="1.0" standalone="no"?>
<svg xmlns="http://www.w3.org/2000/svg" version="1.2" baseProfile="tiny" width="256" height="192" viewBox="0 0 256 192">
<rect x="0" y="0" width="256" height="192" id="0" fill="rgb(104,102,98)" fill-opacity="1" />
<polygon points="138,68 0,0 253,0" id="1" fill="rgb(255,255,255)" fill-opacity="0.501961" />
<polygon points="120,66 0,192 0,34" id="2" fill="rgb(0,0,0)" fill-opacity="0.501961" />
<polygon points="256,140 149,74 256,38" id="3" fill="rgb(0,0,0)" fill-opacity="0.501961" />
<polygon points="71,0 176,62 209,0" id="4" fill="rgb(252,255,255)" fill-opacity="0.501961" />
<polygon points="161,164 216,122 130,73" id="5" fill="rgb(212,189,167)" fill-opacity="0.501961" />
<polygon points="132,192 0,38 0,192" id="6" fill="rgb(37,31,23)" fill-opacity="0.501961" />
<polygon points="0,3 125,22 0,35" id="7" fill="rgb(187,207,228)" fill-opacity="0.501961" />
<polygon points="229,0 241,48 253,7" id="8" fill="rgb(255,255,255)" fill-opacity="0.501961" />
<polygon points="191,28 216,9 256,115" id="9" fill="rgb(11,35,61)" fill-opacity="0.501961" />
</svg>