<?xml version="1.0" standalone="no"?>
<svg xmlns="http://www.w3.org/2000/svg" version="1.2" baseProfile="tiny" width="256" height="169" viewBox="0 0 256 169">
<rect x="0" y="0" width="256" height="169" id="0" fill="rgb(132,132,129)" fill-opacity="1" />
<polygon points="70,158 124,101 91,82" id="1" fill="rgb(15,15,37)" fill-opacity="0.501961" />
<polygon points="0,0 17,65 62,0" id="2" fill="rgb(123,93,0)" fill-opacity="0.501961" />
<polygon points="228,24 227,91 74,77" id="3" fill="rgb(186,196,218)" fill-opacity="0.501961" />
<polygon points="60,109 74,81 27,87" id="4" fill="rgb(0,0,0)" fill-opacity="0.501961" />
<polygon points="18,113 58,169 65,116" id="5" fill="rgb(21,83,199)" fill-opacity="0.501961" />
<polygon points="85,129 140,122 139,169" id="6" fill="rgb(186,214,205)" fill-opacity="0.501961" />
<polygon points="18,76 0,87 45,118" id="7" fill="rgb(233,234,243)" fill-opacity="0.501961" />
<polygon points="156,34 106,16 97,49" id="8" fill="rgb(0,143,95)" fill-opacity="0.501961" />
<polygon points="256,129 256,153 117,148" id="9" fill="rgb(96,73,53)" fill-opacity="0.501961" />
<polygon points="181,73 204,102 159,99" id="10" fill="rgb(46,65,75)" fill-opacity="0.501961" />
<polygon points="224,0 235,38 235,0" id="11" fill="rgb(0,0,0)" fill-opacity="0.501961" />
<polygon points="172,35 186,40 172,0" id="12" fill="rgb(3,0,6)" fill-opacity="0.501961" />
<polygon points="173,39 162,31 164,-20" id="13" fill="rgb(255,255,255)" fill-opacity="0.501961" />
<polygon points="13,140 0,169 0,74" id="14" fill="rgb(44,45,38)" fill-opacity="0.501961" />
<polygon points="115,56 171,69 127,91" id="15" fill="rgb(96,160,255)" fill-opacity="0.501961" />
</svg>