<?xml version="1.0" standalone="no"?>
<svg xmlns="http://www.w3.org/2000/svg" version="1.2" baseProfile="tiny" width="256" height="159" viewBox="0 0 256 159">
<rect x="0" y="0" width="256" height="159" id="0" fill="rgb(95,93,90)" fill-opacity="1" />
<polygon points="211,0 97,0 138,72" id="1" fill="rgb(255,255,255)" fill-opacity="0.501961" />
<polygon points="149,95 217,0 220,136" id="2" fill="rgb(4,1,0)" fill-opacity="0.501961" />
<polygon points="0,90 148,121 72,0" id="3" fill="rgb(38,39,34)" fill-opacity="0.501961" />
<polygon points="0,0 26,56 0,68" id="4" fill="rgb(245,254,255)" fill-opacity="0.501961" />
<polygon points="141,103 125,0 167,0" id="5" fill="rgb(247,255,255)" fill-opacity="0.501961" />
<polygon points="0,150 26,173 128,151" id="6" fill="rgb(202,206,213)" fill-opacity="0.501961" />
<polygon points="36,3 18,0 43,155" id="7" fill="rgb(4,6,2)" fill-opacity="0.501961" />
<polygon points="42,121 70,130 67,0" id="8" fill="rgb(136,137,138)" fill-opacity="0.501961" />
<polygon points="0,0 16,0 0,60" id="9" fill="rgb(232,242,255)" fill-opacity="0.501961" />
<polygon points="162,118 174,19 256,138" id="10" fill="rgb(43,38,32)" fill-opacity="0.501961" />
<polygon points="47,151 -10,123 43,110" id="11" fill="rgb(15,18,16)" fill-opacity="0.501961" />
<polygon points="89,3 85,145 73,57" id="12" fill="rgb(10,10,3)" fill-opacity="0.501961" />
<polygon points="142,83 101,149 109,49" id="13" fill="rgb(35,33,26)" fill-opacity="0.501961" />
<polygon points="240,0 212,36 241,57" id="14" fill="rgb(167,158,141)" fill-opacity="0.501961" />
<polygon points="168,24 229,0 141,66" id="15" fill="rgb(117,117,118)" fill-opacity="0.501961" />
<polygon points="122,0 98,0 88,53" id="16" fill="rgb(163,166,171)" fill-opacity="0.501961" />
<polygon points="163,110 139,113 132,66" id="17" fill="rgb(146,153,152)" fill-opacity="0.501961" />
<polygon points="21,148 0,159 53,155" id="18" fill="rgb(233,241,254)" fill-opacity="0.501961" />
<polygon points="80,130 50,170 146,159" id="19" fill="rgb(122,121,117)" fill-opacity="0.501961" />
<polygon points="139,135 113,126 169,117" id="20" fill="rgb(15,13,9)" fill-opacity="0.501961" />
<polygon points="67,83 41,85 15,25" id="21" fill="rgb(18,19,12)" fill-opacity="0.501961" />
<polygon points="202,14 199,0 98,0" id="22" fill="rgb(220,230,249)" fill-opacity="0.501961" />
<polygon points="55,0 39,42 42,0" id="23" fill="rgb(169,173,179)" fill-opacity="0.501961" />
<polygon points="127,70 87,20 123,13" id="24" fill="rgb(94,96,95)" fill-opacity="0.501961" />
<polygon points="30,104 29,4 0,121" id="25" fill="rgb(105,107,108)" fill-opacity="0.501961" />
<polygon points="0,64 27,93 0,114" id="26" fill="rgb(56,57,55)" fill-opacity="0.501961" />
<polygon points="17,8 17,20 0,13" id="27" fill="rgb(241,249,255)" fill-opacity="0.501961" />
<polygon points="55,28 42,62 43,52" id="28" fill="rgb(195,196,202)" fill-opacity="0.501961" />
<polygon points="53,24 104,6 54,0" id="29" fill="rgb(43,45,43)" fill-opacity="0.501961" />
<polygon points="238,93 201,40 192,2" id="30" fill="rgb(62,55,46)" fill-opacity="0.501961" />
<polygon points="62,40 70,47 56,83" id="31" fill="rgb(188,189,191)" fill-opacity="0.501961" />
<polygon points="0,35 35,27 10,42" id="32" fill="rgb(43,42,41)" fill-opacity="0.501961" />
<polygon points="39,19 41,0 13,0" id="33" fill="rgb(21,23,20)" fill-opacity="0.501961" />
<polygon points="34,104 23,102 5,104" id="34" fill="rgb(255,255,255)" fill-opacity="0.501961" />
<polygon points="170,0 115,29 144,51" id="35" fill="rgb(232,237,251)" fill-opacity="0.501961" />
<polygon points="76,80 79,147 68,127" id="36" fill="rgb(150,149,145)" fill-opacity="0.501961" />
<polygon points="121,125 84,108 167,113" id="37" fill="rgb(121,118,117)" fill-opacity="0.501961" />
<polygon points="0,154 134,115 0,132" id="38" fill="rgb(70,66,59)" fill-opacity="0.501961" />
<polygon points="256,140 156,109 256,102" id="39" fill="rgb(57,50,44)" fill-opacity="0.501961" />
<polygon points="111,151 117,144 126,151" id="40" fill="rgb(254,254,249)" fill-opacity="0.501961" />
<polygon points="221,113 183,17 174,121" id="41" fill="rgb(40,39,34)" fill-opacity="0.501961" />
<polygon points="65,159 120,137 129,145" id="42" fill="rgb(72,67,60)" fill-opacity="0.501961" />
<polygon points="43,107 46,59 31,115" id="43" fill="rgb(6,8,1)" fill-opacity="0.501961" />
<polygon points="238,25 218,149 215,41" id="44" fill="rgb(87,77,66)" fill-opacity="0.501961" />
<polygon points="22,0 19,38 27,52" id="45" fill="rgb(12,13,8)" fill-opacity="0.501961" />
<polygon points="250,10 214,30 238,0" id="46" fill="rgb(167,160,144)" fill-opacity="0.501961" />
<polygon points="188,41 193,42 180,7" id="47" fill="rgb(26,26,22)" fill-opacity="0.501961" />
<polygon points="29,52 30,0 45,79" id="48" fill="rgb(9,10,4)" fill-opacity="0.501961" />
<polygon points="194,20 182,0 190,33" id="49" fill="rgb(226,232,241)" fill-opacity="0.501961" />
<polygon points="128,64 148,80 115,10" id="50" fill="rgb(168,168,169)" fill-opacity="0.501961" />
<polygon points="151,84 167,119 226,8" id="51" fill="rgb(38,38,33)" fill-opacity="0.501961" />
<polygon points="225,76 219,97 256,98" id="52" fill="rgb(133,123,107)" fill-opacity="0.501961" />
<polygon points="54,0 54,53 59,39" id="53" fill="rgb(0,0,0)" fill-opacity="0.501961" />
<polygon points="156,62 242,60 163,121" id="54" fill="rgb(41,39,34)" fill-opacity="0.501961" />
<polygon points="62,103 9,102 0,90" id="55" fill="rgb(48,48,45)" fill-opacity="0.501961" />
<polygon points="102,48 138,85 110,121" id="56" fill="rgb(35,34,27)" fill-opacity="0.501961" />
<polygon points="91,151 98,159 87,159" id="57" fill="rgb(15,3,0)" fill-opacity="0.501961" />
<polygon points="244,52 256,99 249,0" id="58" fill="rgb(143,132,115)" fill-opacity="0.501961" />
<polygon points="106,0 88,7 90,0" id="59" fill="rgb(149,151,153)" fill-opacity="0.501961" />
<polygon points="88,151 110,149 60,148" id="60" fill="rgb(171,172,174)" fill-opacity="0.501961" />
<polygon points="220,15 209,25 200,0" id="61" fill="rgb(103,99,91)" fill-opacity="0.501961" />
<polygon points="38,42 41,45 53,13" id="62" fill="rgb(183,186,190)" fill-opacity="0.501961" />
<polygon points="25,0 29,28 23,25" id="63" fill="rgb(150,151,154)" fill-opacity="0.501961" />
<polygon points="0,101 -10,102 29,105" id="64" fill="rgb(223,228,233)" fill-opacity="0.501961" />
<polygon points="80,67 71,10 68,104" id="65" fill="rgb(49,45,39)" fill-opacity="0.501961" />
<polygon points="100,61 94,51 95,73" id="66" fill="rgb(151,152,152)" fill-opacity="0.501961" />
<polygon points="105,146 123,142 205,155" id="67" fill="rgb(60,52,42)" fill-opacity="0.501961" />
<polygon points="103,13 102,7 95,13" id="68" fill="rgb(255,255,255)" fill-opacity="0.501961" />
<polygon points="34,10 34,0 31,0" id="69" fill="rgb(200,202,205)" fill-opacity="0.501961" />
<polygon points="183,145 188,149 178,159" id="70" fill="rgb(186,184,181)" fill-opacity="0.501961" />
<polygon points="166,39 176,47 236,39" id="71" fill="rgb(90,88,83)" fill-opacity="0.501961" />
<polygon points="243,143 232,144 203,159" id="72" fill="rgb(169,169,168)" fill-opacity="0.501961" />
<polygon points="230,132 228,69 231,113" id="73" fill="rgb(6,6,5)" fill-opacity="0.501961" />
<polygon points="70,157 19,151 65,150" id="74" fill="rgb(177,180,185)" fill-opacity="0.501961" />
<polygon points="135,107 156,116 153,54" id="75" fill="rgb(129,133,132)" fill-opacity="0.501961" />
<polygon points="115,120 132,121 155,121" id="76" fill="rgb(255,255,255)" fill-opacity="0.501961" />
<polygon points="89,33 99,0 95,0" id="77" fill="rgb(32,33,27)" fill-opacity="0.501961" />
<polygon points="142,113 164,121 134,141" id="78" fill="rgb(73,69,63)" fill-opacity="0.501961" />
<polygon points="132,41 89,43 65,67" id="79" fill="rgb(53,52,48)" fill-opacity="0.501961" />
<polygon points="117,122 144,126 126,131" id="80" fill="rgb(0,0,0)" fill-opacity="0.501961" />
<polygon points="66,1 35,56 75,0" id="81" fill="rgb(14,15,11)" fill-opacity="0.501961" />
<polygon points="190,159 256,145 256,149" id="82" fill="rgb(40,37,31)" fill-opacity="0.501961" />
<polygon points="2,4 0,64 17,64" id="83" fill="rgb(185,188,195)" fill-opacity="0.501961" />
<polygon points="246,66 245,67 251,159" id="84" fill="rgb(26,21,16)" fill-opacity="0.501961" />
<polygon points="170,159 185,159 158,157" id="85" fill="rgb(244,240,233)" fill-opacity="0.501961" />
<polygon points="16,107 16,119 3,118" id="86" fill="rgb(157,164,171)" fill-opacity="0.501961" />
<polygon points="41,129 23,119 -12,127" id="87" fill="rgb(3,10,13)" fill-opacity="0.501961" />
<polygon points="196,37 211,110 222,73" id="88" fill="rgb(26,24,19)" fill-opacity="0.501961" />
<polygon points="136,149 151,152 122,159" id="89" fill="rgb(166,164,162)" fill-opacity="0.501961" />
<polygon points="104,112 107,117 86,108" id="90" fill="rgb(197,200,198)" fill-opacity="0.501961" />
<polygon points="220,105 224,43 225,101" id="91" fill="rgb(142,131,115)" fill-opacity="0.501961" />
<polygon points="251,11 256,31 261,-6" id="92" fill="rgb(8,0,0)" fill-opacity="0.501961" />
</svg>