<?xml version="1.0" standalone="no"?>
<svg xmlns="http://www.w3.org/2000/svg" version="1.2" baseProfile="tiny" width="256" height="170" viewBox="0 0 256 170">
<rect x="0" y="0" width="256" height="170" id="0" fill="rgb(38,55,82)" fill-opacity="1" />
<polygon points="116,170 239,17 215,170" id="1" fill="rgb(105,161,226)" fill-opacity="0.501961" />
<polygon points="0,0 181,61 256,0" id="2" fill="rgb(0,0,0)" fill-opacity="0.501961" />
<polygon points="96,117 44,66 24,120" id="3" fill="rgb(239,137,98)" fill-opacity="0.501961" />
<polygon points="61,105 146,170 6,170" id="4" fill="rgb(14,0,0)" fill-opacity="0.501961" />
<polygon points="256,75 193,74 255,33" id="5" fill="rgb(230,211,184)" fill-opacity="0.501961" />
<polygon points="160,49 80,86 176,121" id="6" fill="rgb(128,139,164)" fill-opacity="0.501961" />
<polygon points="256,22 0,84 0,0" id="7" fill="rgb(0,3,37)" fill-opacity="0.501961" />
<polygon points="209,30 237,45 209,64" id="8" fill="rgb(255,250,216)" fill-opacity="0.501961" />
<polygon points="92,0 256,157 256,97" id="9" fill="rgb(13,41,84)" fill-opacity="0.501961" />
<polygon points="186,105 139,170 196,170" id="10" fill="rgb(102,169,243)" fill-opacity="0.501961" />
<polygon points="158,133 18,170 132,90" id="11" fill="rgb(0,5,23)" fill-opacity="0.501961" />
<polygon points="32,0 265,-4 249,40" id="12" fill="rgb(0,0,12)" fill-opacity="0.501961" />
<polygon points="42,111 61,96 43,72" id="13" fill="rgb(255,229,177)" fill-opacity="0.501961" />
<polygon points="30,104 0,52 0,170" id="14" fill="rgb(3,68,157)" fill-opacity="0.501961" />
<polygon points="256,120 256,81 219,73" id="15" fill="rgb(0,0,0)" fill-opacity="0.501961" />
<polygon points="162,58 211,159 144,111" id="16" fill="rgb(79,133,203)" fill-opacity="0.501961" />
<polygon points="149,92 129,71 160,62" id="17" fill="rgb(52,12,0)" fill-opacity="0.501961" />
<polygon points="208,45 141,0 205,80" id="18" fill="rgb(0,0,9)" fill-opacity="0.501961" />
<polygon points="66,126 30,123 31,98" id="19" fill="rgb(180,0,0)" fill-opacity="0.501961" />
<polygon points="68,0 10,70 118,78" id="20" fill="rgb(0,12,41)" fill-opacity="0.501961" />
</svg>