<?xml version="1.0" standalone="no"?>
<svg xmlns="http://www.w3.org/2000/svg" version="1.2" baseProfile="tiny" width="256" height="170" viewBox="0 0 256 170">
<rect x="0" y="0" width="256" height="170" id="0" fill="rgb(41,34,32)" fill-opacity="1" />
<polygon points="161,60 109,0 94,88" id="1" fill="rgb(166,139,111)" fill-opacity="0.501961" />
<polygon points="250,95 174,95 234,3" id="2" fill="rgb(142,91,24)" fill-opacity="0.501961" />
<polygon points="91,170 121,72 256,170" id="3" fill="rgb(0,8,18)" fill-opacity="0.501961" />
<polygon points="150,43 19,60 156,80" id="4" fill="rgb(108,95,90)" fill-opacity="0.501961" />
<polygon points="47,170 0,88 97,58" id="5" fill="rgb(0,8,29)" fill-opacity="0.501961" />
<polygon points="30,112 42,0 0,0" id="6" fill="rgb(0,0,1)" fill-opacity="0.501961" />
<polygon points="104,31 108,0 208,0" id="7" fill="rgb(16,18,21)" fill-opacity="0.501961" />
<polygon points="133,0 120,18 73,0" id="8" fill="rgb(128,98,65)" fill-opacity="0.501961" />
<polygon points="101,54 147,52 114,31" id="9" fill="rgb(193,162,157)" fill-opacity="0.501961" />
<polygon points="246,6 191,144 256,136" id="10" fill="rgb(73,44,5)" fill-opacity="0.501961" />
<polygon points="122,170 0,60 0,170" id="11" fill="rgb(10,17,28)" fill-opacity="0.501961" />
<polygon points="216,170 256,170 256,88" id="12" fill="rgb(3,0,0)" fill-opacity="0.501961" />
<polygon points="160,0 152,91 194,0" id="13" fill="rgb(5,11,20)" fill-opacity="0.501961" />
<polygon points="163,155 185,77 140,123" id="14" fill="rgb(40,51,69)" fill-opacity="0.501961" />
<polygon points="56,168 125,147 86,58" id="15" fill="rgb(24,39,53)" fill-opacity="0.501961" />
<polygon points="245,24 208,147 215,6" id="16" fill="rgb(105,72,32)" fill-opacity="0.501961" />
<polygon points="41,108 32,140 17,96" id="17" fill="rgb(77,63,71)" fill-opacity="0.501961" />
<polygon points="152,93 154,49 110,59" id="18" fill="rgb(102,78,46)" fill-opacity="0.501961" />
<polygon points="194,108 184,87 220,22" id="19" fill="rgb(136,96,47)" fill-opacity="0.501961" />
<polygon points="14,65 63,4 71,23" id="20" fill="rgb(93,27,49)" fill-opacity="0.501961" />
<polygon points="44,77 87,65 40,52" id="21" fill="rgb(57,72,105)" fill-opacity="0.501961" />
<polygon points="99,55 7,0 4,51" id="22" fill="rgb(13,3,17)" fill-opacity="0.501961" />
<polygon points="114,55 105,63 177,60" id="23" fill="rgb(36,31,40)" fill-opacity="0.501961" />
<polygon points="93,46 95,85 106,11" id="24" fill="rgb(102,90,38)" fill-opacity="0.501961" />
<polygon points="256,33 234,-18 229,8" id="25" fill="rgb(0,0,0)" fill-opacity="0.501961" />
<polygon points="141,134 103,169 172,170" id="26" fill="rgb(0,0,0)" fill-opacity="0.501961" />
<polygon points="193,22 195,33 150,26" id="27" fill="rgb(74,74,85)" fill-opacity="0.501961" />
<polygon points="152,46 135,27 147,76" id="28" fill="rgb(138,121,74)" fill-opacity="0.501961" />
<polygon points="227,0 205,0 197,17" id="29" fill="rgb(59,73,101)" fill-opacity="0.501961" />
<polygon points="52,118 12,63 98,85" id="30" fill="rgb(1,11,24)" fill-opacity="0.501961" />
<polygon points="138,94 214,151 175,84" id="31" fill="rgb(20,26,28)" fill-opacity="0.501961" />
<polygon points="66,29 0,47 96,40" id="32" fill="rgb(72,0,16)" fill-opacity="0.501961" />
<polygon points="106,89 132,69 109,64" id="33" fill="rgb(129,100,105)" fill-opacity="0.501961" />
<polygon points="102,4 209,17 196,0" id="34" fill="rgb(8,7,9)" fill-opacity="0.501961" />
<polygon points="238,150 273,52 232,68" id="35" fill="rgb(46,29,8)" fill-opacity="0.501961" />
<polygon points="95,35 129,23 140,36" id="36" fill="rgb(97,82,16)" fill-opacity="0.501961" />
<polygon points="101,24 92,52 112,27" id="37" fill="rgb(36,55,101)" fill-opacity="0.501961" />
<polygon points="104,65 126,149 98,91" id="38" fill="rgb(22,18,12)" fill-opacity="0.501961" />
<polygon points="126,23 99,47 108,33" id="39" fill="rgb(177,144,0)" fill-opacity="0.501961" />
<polygon points="205,143 236,107 197,85" id="40" fill="rgb(78,49,14)" fill-opacity="0.501961" />
<polygon points="147,92 152,91 153,41" id="41" fill="rgb(140,116,0)" fill-opacity="0.501961" />
<polygon points="167,100 147,32 177,83" id="42" fill="rgb(34,43,54)" fill-opacity="0.501961" />
<polygon points="106,134 126,140 118,149" id="43" fill="rgb(101,78,68)" fill-opacity="0.501961" />
<polygon points="76,0 122,2 128,0" id="44" fill="rgb(155,125,88)" fill-opacity="0.501961" />
<polygon points="43,15 64,38 65,8" id="45" fill="rgb(75,71,64)" fill-opacity="0.501961" />
<polygon points="18,32 51,0 8,0" id="46" fill="rgb(0,0,0)" fill-opacity="0.501961" />
<polygon points="64,133 70,105 101,95" id="47" fill="rgb(43,58,78)" fill-opacity="0.501961" />
<polygon points="143,170 103,116 122,74" id="48" fill="rgb(7,8,14)" fill-opacity="0.501961" />
<polygon points="167,113 142,112 169,160" id="49" fill="rgb(46,52,71)" fill-opacity="0.501961" />
<polygon points="158,64 181,34 145,29" id="50" fill="rgb(5,8,10)" fill-opacity="0.501961" />
<polygon points="222,6 256,41 201,56" id="51" fill="rgb(95,66,29)" fill-opacity="0.501961" />
<polygon points="249,25 256,1 256,46" id="52" fill="rgb(0,0,0)" fill-opacity="0.501961" />
<polygon points="0,170 0,62 16,68" id="53" fill="rgb(9,9,7)" fill-opacity="0.501961" />
<polygon points="111,92 95,85 125,66" id="54" fill="rgb(112,91,74)" fill-opacity="0.501961" />
<polygon points="130,62 129,72 126,67" id="55" fill="rgb(214,179,209)" fill-opacity="0.501961" />
<polygon points="81,37 135,13 108,0" id="56" fill="rgb(57,43,40)" fill-opacity="0.501961" />
<polygon points="192,170 174,123 173,167" id="57" fill="rgb(10,0,0)" fill-opacity="0.501961" />
<polygon points="91,58 74,53 0,60" id="58" fill="rgb(61,71,99)" fill-opacity="0.501961" />
<polygon points="130,57 142,35 106,41" id="59" fill="rgb(163,132,130)" fill-opacity="0.501961" />
<polygon points="93,68 97,98 78,70" id="60" fill="rgb(8,6,9)" fill-opacity="0.501961" />
<polygon points="227,28 208,37 208,83" id="61" fill="rgb(123,87,44)" fill-opacity="0.501961" />
<polygon points="31,55 40,41 80,52" id="62" fill="rgb(0,26,52)" fill-opacity="0.501961" />
<polygon points="32,170 51,170 73,99" id="63" fill="rgb(0,7,14)" fill-opacity="0.501961" />
<polygon points="210,53 194,55 154,0" id="64" fill="rgb(31,31,32)" fill-opacity="0.501961" />
<polygon points="21,55 55,32 40,33" id="65" fill="rgb(106,0,30)" fill-opacity="0.501961" />
<polygon points="40,71 17,23 43,130" id="66" fill="rgb(22,2,13)" fill-opacity="0.501961" />
<polygon points="169,22 166,30 142,26" id="67" fill="rgb(71,83,104)" fill-opacity="0.501961" />
</svg>