<?xml version="1.0" standalone="no"?>
<svg xmlns="http://www.w3.org/2000/svg" version="1.2" baseProfile="tiny" width="256" height="170" viewBox="0 0 256 170">
<rect x="0" y="0" width="256" height="170" id="0" fill="rgb(63,49,34)" fill-opacity="1" />
<polygon points="58,77 0,56 256,77" id="1" fill="rgb(255,254,206)" fill-opacity="0.501961" />
<polygon points="0,0 255,49 256,0" id="2" fill="rgb(0,0,0)" fill-opacity="0.501961" />
<polygon points="0,88 256,101 1,153" id="3" fill="rgb(0,0,0)" fill-opacity="0.501961" />
<polygon points="256,87 256,55 126,78" id="4" fill="rgb(182,162,123)" fill-opacity="0.501961" />
<polygon points="141,32 141,62 163,34" id="5" fill="rgb(224,239,197)" fill-opacity="0.501961" />
<polygon points="245,113 256,168 73,170" id="6" fill="rgb(133,91,55)" fill-opacity="0.501961" />
<polygon points="91,0 0,73 0,0" id="7" fill="rgb(0,0,0)" fill-opacity="0.501961" />
<polygon points="72,22 43,43 85,45" id="8" fill="rgb(202,217,173)" fill-opacity="0.501961" />
<polygon points="234,0 53,0 104,51" id="9" fill="rgb(0,0,0)" fill-opacity="0.501961" />
<polygon points="138,42 248,75 6,56" id="10" fill="rgb(120,84,47)" fill-opacity="0.501961" />
<polygon points="218,44 256,100 213,102" id="11" fill="rgb(42,25,16)" fill-opacity="0.501961" />
<polygon points="244,151 202,117 240,137" id="12" fill="rgb(228,205,174)" fill-opacity="0.501961" />
<polygon points="242,56 256,70 238,69" id="13" fill="rgb(255,255,255)" fill-opacity="0.501961" />
<polygon points="55,145 227,134 0,110" id="14" fill="rgb(9,4,4)" fill-opacity="0.501961" />
<polygon points="234,42 196,62 194,45" id="15" fill="rgb(148,159,119)" fill-opacity="0.501961" />
<polygon points="65,116 66,54 105,129" id="16" fill="rgb(80,53,34)" fill-opacity="0.501961" />
<polygon points="0,36 48,73 51,47" id="17" fill="rgb(110,65,30)" fill-opacity="0.501961" />
<polygon points="37,58 21,72 20,57" id="18" fill="rgb(255,255,223)" fill-opacity="0.501961" />
<polygon points="203,89 215,80 214,59" id="19" fill="rgb(255,248,225)" fill-opacity="0.501961" />
<polygon points="211,165 245,157 154,170" id="20" fill="rgb(217,162,109)" fill-opacity="0.501961" />
<polygon points="190,79 75,75 74,66" id="21" fill="rgb(237,206,173)" fill-opacity="0.501961" />
<polygon points="90,68 90,132 99,57" id="22" fill="rgb(56,21,6)" fill-opacity="0.501961" />
<polygon points="121,53 104,91 117,92" id="23" fill="rgb(116,78,48)" fill-opacity="0.501961" />
<polygon points="256,0 92,22 256,46" id="24" fill="rgb(1,0,2)" fill-opacity="0.501961" />
<polygon points="136,45 83,44 42,29" id="25" fill="rgb(16,18,6)" fill-opacity="0.501961" />
<polygon points="131,91 140,80 138,32" id="26" fill="rgb(75,50,26)" fill-opacity="0.501961" />
<polygon points="119,65 183,71 120,67" id="27" fill="rgb(249,233,210)" fill-opacity="0.501961" />
<polygon points="190,38 251,79 181,61" id="28" fill="rgb(92,75,44)" fill-opacity="0.501961" />
<polygon points="98,110 253,104 208,121" id="29" fill="rgb(7,8,13)" fill-opacity="0.501961" />
<polygon points="256,117 174,124 256,120" id="30" fill="rgb(223,178,142)" fill-opacity="0.501961" />
<polygon points="215,143 227,121 235,150" id="31" fill="rgb(29,17,7)" fill-opacity="0.501961" />
<polygon points="185,90 191,46 227,135" id="32" fill="rgb(90,66,50)" fill-opacity="0.501961" />
<polygon points="76,111 58,104 78,99" id="33" fill="rgb(189,149,117)" fill-opacity="0.501961" />
<polygon points="76,40 44,38 72,46" id="34" fill="rgb(255,255,215)" fill-opacity="0.501961" />
<polygon points="28,84 0,102 13,45" id="35" fill="rgb(97,67,40)" fill-opacity="0.501961" />
<polygon points="155,66 139,137 160,66" id="36" fill="rgb(50,27,15)" fill-opacity="0.501961" />
<polygon points="0,106 19,0 0,0" id="37" fill="rgb(0,0,0)" fill-opacity="0.501961" />
<polygon points="192,139 118,142 87,146" id="38" fill="rgb(165,124,89)" fill-opacity="0.501961" />
<polygon points="43,0 50,98 36,65" id="39" fill="rgb(64,42,21)" fill-opacity="0.501961" />
<polygon points="212,70 206,75 215,91" id="40" fill="rgb(255,255,255)" fill-opacity="0.501961" />
<polygon points="222,132 256,129 240,121" id="41" fill="rgb(0,0,0)" fill-opacity="0.501961" />
<polygon points="139,48 136,50 156,52" id="42" fill="rgb(246,255,240)" fill-opacity="0.501961" />
<polygon points="0,146 152,170 0,170" id="43" fill="rgb(99,59,28)" fill-opacity="0.501961" />
<polygon points="106,96 169,89 37,73" id="44" fill="rgb(98,66,47)" fill-opacity="0.501961" />
<polygon points="194,31 171,31 171,83" id="45" fill="rgb(43,36,18)" fill-opacity="0.501961" />
<polygon points="104,92 141,131 46,84" id="46" fill="rgb(8,1,4)" fill-opacity="0.501961" />
<polygon points="107,68 57,64 123,65" id="47" fill="rgb(248,225,197)" fill-opacity="0.501961" />
<polygon points="175,102 169,95 169,86" id="48" fill="rgb(214,180,158)" fill-opacity="0.501961" />
<polygon points="182,148 193,146 191,129" id="49" fill="rgb(0,1,18)" fill-opacity="0.501961" />
<polygon points="7,40 8,71 42,40" id="50" fill="rgb(109,71,34)" fill-opacity="0.501961" />
<polygon points="251,59 235,63 256,76" id="51" fill="rgb(237,254,204)" fill-opacity="0.501961" />
<polygon points="153,43 152,36 144,41" id="52" fill="rgb(255,255,255)" fill-opacity="0.501961" />
<polygon points="183,125 134,126 172,119" id="53" fill="rgb(148,112,84)" fill-opacity="0.501961" />
<polygon points="56,60 61,76 51,73" id="54" fill="rgb(255,248,181)" fill-opacity="0.501961" />
<polygon points="117,66 41,43 232,60" id="55" fill="rgb(113,71,35)" fill-opacity="0.501961" />
<polygon points="0,106 67,97 33,130" id="56" fill="rgb(0,0,0)" fill-opacity="0.501961" />
<polygon points="34,73 18,58 38,55" id="57" fill="rgb(241,216,182)" fill-opacity="0.501961" />
<polygon points="9,130 28,129 0,129" id="58" fill="rgb(211,161,127)" fill-opacity="0.501961" />
<polygon points="207,92 253,91 257,65" id="59" fill="rgb(91,80,54)" fill-opacity="0.501961" />
<polygon points="38,72 37,34 37,83" id="60" fill="rgb(8,0,0)" fill-opacity="0.501961" />
<polygon points="193,56 217,58 192,51" id="61" fill="rgb(182,194,156)" fill-opacity="0.501961" />
</svg>