<?xml version="1.0" standalone="no"?>
<svg xmlns="http://www.w3.org/2000/svg" version="1.2" baseProfile="tiny" width="256" height="170" viewBox="0 0 256 170">
<rect x="0" y="0" width="256" height="170" id="0" fill="rgb(67,44,45)" fill-opacity="1" />
<polygon points="232,170 129,53 0,170" id="1" fill="rgb(207,88,0)" fill-opacity="0.501961" />
<polygon points="0,0 45,42 256,0" id="2" fill="rgb(0,70,255)" fill-opacity="0.501961" />
<polygon points="165,87 256,170 241,0" id="3" fill="rgb(0,0,0)" fill-opacity="0.501961" />
<polygon points="99,44 110,137 0,4" id="4" fill="rgb(0,0,31)" fill-opacity="0.501961" />
<polygon points="52,0 235,0 195,27" id="5" fill="rgb(69,112,251)" fill-opacity="0.501961" />
<polygon points="98,63 0,119 0,11" id="6" fill="rgb(0,0,26)" fill-opacity="0.501961" />
<polygon points="81,170 138,137 0,129" id="7" fill="rgb(235,108,24)" fill-opacity="0.501961" />
<polygon points="246,23 126,25 256,141" id="8" fill="rgb(0,1,16)" fill-opacity="0.501961" />
<polygon points="162,80 182,129 95,53" id="9" fill="rgb(252,137,48)" fill-opacity="0.501961" />
<polygon points="41,141 51,92 0,132" id="10" fill="rgb(227,98,12)" fill-opacity="0.501961" />
<polygon points="138,161 158,115 184,168" id="11" fill="rgb(12,0,0)" fill-opacity="0.501961" />
<polygon points="0,0 0,36 222,28" id="12" fill="rgb(0,30,140)" fill-opacity="0.501961" />
<polygon points="148,67 150,86 189,72" id="13" fill="rgb(156,189,164)" fill-opacity="0.501961" />
<polygon points="197,48 183,140 239,170" id="14" fill="rgb(19,10,0)" fill-opacity="0.501961" />
<polygon points="256,9 169,0 256,0" id="15" fill="rgb(210,169,194)" fill-opacity="0.501961" />
<polygon points="127,59 130,170 102,56" id="16" fill="rgb(218,109,40)" fill-opacity="0.501961" />
<polygon points="16,148 58,162 31,179" id="17" fill="rgb(0,0,0)" fill-opacity="0.501961" />
<polygon points="98,22 37,134 97,144" id="18" fill="rgb(65,48,11)" fill-opacity="0.501961" />
<polygon points="97,20 21,0 189,0" id="19" fill="rgb(0,52,234)" fill-opacity="0.501961" />
<polygon points="207,49 187,7 218,0" id="20" fill="rgb(86,107,180)" fill-opacity="0.501961" />
<polygon points="134,34 256,52 256,139" id="21" fill="rgb(0,9,9)" fill-opacity="0.501961" />
<polygon points="83,140 71,135 64,85" id="22" fill="rgb(197,187,84)" fill-opacity="0.501961" />
<polygon points="15,124 0,65 78,57" id="23" fill="rgb(0,7,0)" fill-opacity="0.501961" />
<polygon points="107,42 187,14 141,71" id="24" fill="rgb(2,9,26)" fill-opacity="0.501961" />
<polygon points="55,170 160,79 138,155" id="25" fill="rgb(197,89,32)" fill-opacity="0.501961" />
<polygon points="71,86 30,125 29,104" id="26" fill="rgb(235,111,34)" fill-opacity="0.501961" />
<polygon points="109,126 109,97 41,65" id="27" fill="rgb(0,5,1)" fill-opacity="0.501961" />
<polygon points="153,34 182,0 127,0" id="28" fill="rgb(69,97,200)" fill-opacity="0.501961" />
<polygon points="204,114 256,130 220,141" id="29" fill="rgb(111,62,25)" fill-opacity="0.501961" />
<polygon points="256,16 228,5 209,34" id="30" fill="rgb(0,0,1)" fill-opacity="0.501961" />
<polygon points="0,112 0,170 38,161" id="31" fill="rgb(51,36,28)" fill-opacity="0.501961" />
<polygon points="94,25 66,71 0,41" id="32" fill="rgb(21,27,62)" fill-opacity="0.501961" />
<polygon points="151,83 256,55 213,130" id="33" fill="rgb(11,13,11)" fill-opacity="0.501961" />
<polygon points="175,128 111,54 122,78" id="34" fill="rgb(95,25,4)" fill-opacity="0.501961" />
<polygon points="256,156 256,170 92,170" id="35" fill="rgb(176,69,0)" fill-opacity="0.501961" />
<polygon points="141,73 174,134 194,120" id="36" fill="rgb(233,114,29)" fill-opacity="0.501961" />
<polygon points="256,2 216,6 256,12" id="37" fill="rgb(39,64,147)" fill-opacity="0.501961" />
<polygon points="199,39 139,70 134,17" id="38" fill="rgb(10,11,18)" fill-opacity="0.501961" />
<polygon points="217,3 256,15 216,59" id="39" fill="rgb(0,0,10)" fill-opacity="0.501961" />
<polygon points="27,130 83,168 37,156" id="40" fill="rgb(230,121,39)" fill-opacity="0.501961" />
<polygon points="45,105 68,111 52,132" id="41" fill="rgb(5,0,0)" fill-opacity="0.501961" />
<polygon points="71,63 84,48 113,75" id="42" fill="rgb(0,0,3)" fill-opacity="0.501961" />
<polygon points="88,56 113,21 85,37" id="43" fill="rgb(129,73,80)" fill-opacity="0.501961" />
<polygon points="154,112 166,133 209,170" id="44" fill="rgb(234,86,3)" fill-opacity="0.501961" />
<polygon points="245,29 255,52 256,22" id="45" fill="rgb(164,147,113)" fill-opacity="0.501961" />
<polygon points="73,124 112,120 92,138" id="46" fill="rgb(15,9,0)" fill-opacity="0.501961" />
<polygon points="149,12 146,39 190,0" id="47" fill="rgb(60,80,173)" fill-opacity="0.501961" />
<polygon points="218,6 205,0 249,0" id="48" fill="rgb(247,187,165)" fill-opacity="0.501961" />
<polygon points="182,25 204,18 170,12" id="49" fill="rgb(117,143,182)" fill-opacity="0.501961" />
<polygon points="123,55 110,57 176,113" id="50" fill="rgb(239,124,36)" fill-opacity="0.501961" />
<polygon points="172,130 248,162 201,127" id="51" fill="rgb(13,3,0)" fill-opacity="0.501961" />
<polygon points="0,28 0,0 126,19" id="52" fill="rgb(0,31,149)" fill-opacity="0.501961" />
<polygon points="187,164 148,160 156,116" id="53" fill="rgb(34,16,2)" fill-opacity="0.501961" />
<polygon points="175,16 154,28 204,104" id="54" fill="rgb(1,7,14)" fill-opacity="0.501961" />
<polygon points="27,102 41,140 73,156" id="55" fill="rgb(173,53,4)" fill-opacity="0.501961" />
<polygon points="120,114 112,137 115,92" id="56" fill="rgb(255,108,13)" fill-opacity="0.501961" />
<polygon points="113,94 99,54 113,124" id="57" fill="rgb(59,28,2)" fill-opacity="0.501961" />
<polygon points="70,82 0,117 0,57" id="58" fill="rgb(4,8,5)" fill-opacity="0.501961" />
<polygon points="143,8 129,32 93,23" id="59" fill="rgb(37,69,179)" fill-opacity="0.501961" />
<polygon points="177,73 149,77 153,79" id="60" fill="rgb(211,254,255)" fill-opacity="0.501961" />
<polygon points="97,60 110,25 130,32" id="61" fill="rgb(0,17,75)" fill-opacity="0.501961" />
<polygon points="252,21 246,37 256,20" id="62" fill="rgb(255,241,144)" fill-opacity="0.501961" />
<polygon points="81,158 97,196 53,169" id="63" fill="rgb(254,119,15)" fill-opacity="0.501961" />
<polygon points="184,79 153,73 169,68" id="64" fill="rgb(208,207,142)" fill-opacity="0.501961" />
<polygon points="71,83 71,102 52,92" id="65" fill="rgb(178,102,40)" fill-opacity="0.501961" />
<polygon points="92,151 123,137 128,149" id="66" fill="rgb(250,146,56)" fill-opacity="0.501961" />
<polygon points="172,145 134,157 142,170" id="67" fill="rgb(69,20,2)" fill-opacity="0.501961" />
<polygon points="147,24 136,21 132,58" id="68" fill="rgb(0,0,0)" fill-opacity="0.501961" />
<polygon points="156,114 252,170 212,152" id="69" fill="rgb(135,65,10)" fill-opacity="0.501961" />
<polygon points="119,170 155,130 133,64" id="70" fill="rgb(166,78,35)" fill-opacity="0.501961" />
<polygon points="20,170 0,157 20,125" id="71" fill="rgb(61,32,34)" fill-opacity="0.501961" />
<polygon points="172,93 112,37 133,45" id="72" fill="rgb(46,34,39)" fill-opacity="0.501961" />
<polygon points="177,78 162,79 192,123" id="73" fill="rgb(0,0,0)" fill-opacity="0.501961" />
</svg>