<?xml version="1.0" standalone="no"?>
<svg xmlns="http://www.w3.org/2000/svg" version="1.2" baseProfile="tiny" width="256" height="170" viewBox="0 0 256 170">
<rect x="0" y="0" width="256" height="170" id="0" fill="rgb(110,116,114)" fill-opacity="1" />
<polygon points="0,0 256,0 150,55" id="1" fill="rgb(186,193,200)" fill-opacity="0.501961" />
<polygon points="226,128 79,197 0,118" id="2" fill="rgb(57,60,55)" fill-opacity="0.501961" />
<polygon points="0,26 220,0 0,0" id="3" fill="rgb(185,191,199)" fill-opacity="0.501961" />
<polygon points="256,99 253,27 122,75" id="4" fill="rgb(78,84,82)" fill-opacity="0.501961" />
<polygon points="215,170 256,130 256,165" id="5" fill="rgb(37,37,24)" fill-opacity="0.501961" />
<polygon points="59,132 60,151 0,162" id="6" fill="rgb(18,24,29)" fill-opacity="0.501961" />
<polygon points="114,81 0,23 256,5" id="7" fill="rgb(129,137,139)" fill-opacity="0.501961" />
<polygon points="125,94 35,119 78,121" id="8" fill="rgb(45,53,46)" fill-opacity="0.501961" />
<polygon points="90,127 0,138 186,90" id="9" fill="rgb(151,153,146)" fill-opacity="0.501961" />
<polygon points="32,170 118,147 118,162" id="10" fill="rgb(22,30,24)" fill-opacity="0.501961" />
<polygon points="225,112 199,105 202,148" id="11" fill="rgb(173,174,160)" fill-opacity="0.501961" />
<polygon points="128,55 100,71 139,105" id="12" fill="rgb(167,171,162)" fill-opacity="0.501961" />
<polygon points="22,170 97,139 42,155" id="13" fill="rgb(169,165,160)" fill-opacity="0.501961" />
<polygon points="21,80 0,61 91,50" id="14" fill="rgb(64,77,83)" fill-opacity="0.501961" />
<polygon points="178,99 248,56 256,69" id="15" fill="rgb(42,51,47)" fill-opacity="0.501961" />
<polygon points="156,93 179,170 133,167" id="16" fill="rgb(63,67,62)" fill-opacity="0.501961" />
<polygon points="144,45 114,41 80,81" id="17" fill="rgb(75,87,81)" fill-opacity="0.501961" />
<polygon points="124,170 119,170 122,106" id="18" fill="rgb(164,163,155)" fill-opacity="0.501961" />
<polygon points="242,145 85,112 238,170" id="19" fill="rgb(106,107,95)" fill-opacity="0.501961" />
<polygon points="158,54 123,70 154,90" id="20" fill="rgb(61,69,69)" fill-opacity="0.501961" />
<polygon points="113,105 97,112 97,77" id="21" fill="rgb(46,56,51)" fill-opacity="0.501961" />
<polygon points="11,119 0,152 0,119" id="22" fill="rgb(34,41,47)" fill-opacity="0.501961" />
<polygon points="99,0 0,19 105,36" id="23" fill="rgb(160,168,172)" fill-opacity="0.501961" />
<polygon points="159,123 57,168 40,162" id="24" fill="rgb(116,114,110)" fill-opacity="0.501961" />
<polygon points="193,135 125,170 175,152" id="25" fill="rgb(18,29,22)" fill-opacity="0.501961" />
<polygon points="145,87 165,95 68,131" id="26" fill="rgb(146,151,142)" fill-opacity="0.501961" />
<polygon points="220,161 237,83 205,85" id="27" fill="rgb(128,130,120)" fill-opacity="0.501961" />
<polygon points="162,158 179,155 157,162" id="28" fill="rgb(244,241,232)" fill-opacity="0.501961" />
<polygon points="237,167 256,125 169,156" id="29" fill="rgb(100,102,89)" fill-opacity="0.501961" />
<polygon points="41,141 22,157 142,116" id="30" fill="rgb(40,48,45)" fill-opacity="0.501961" />
<polygon points="33,128 0,134 0,139" id="31" fill="rgb(158,159,159)" fill-opacity="0.501961" />
<polygon points="170,67 183,122 202,101" id="32" fill="rgb(86,89,85)" fill-opacity="0.501961" />
<polygon points="13,119 55,116 27,122" id="33" fill="rgb(15,23,34)" fill-opacity="0.501961" />
<polygon points="248,122 256,143 244,170" id="34" fill="rgb(28,38,32)" fill-opacity="0.501961" />
<polygon points="20,170 10,135 9,153" id="35" fill="rgb(173,170,169)" fill-opacity="0.501961" />
<polygon points="240,159 242,95 245,145" id="36" fill="rgb(178,178,163)" fill-opacity="0.501961" />
<polygon points="153,24 166,116 194,16" id="37" fill="rgb(120,125,125)" fill-opacity="0.501961" />
<polygon points="0,63 76,22 0,22" id="38" fill="rgb(119,131,139)" fill-opacity="0.501961" />
</svg>