<?xml version="1.0" standalone="no"?>
<svg xmlns="http://www.w3.org/2000/svg" version="1.2" baseProfile="tiny" width="256" height="141" viewBox="0 0 256 141">
<rect x="0" y="0" width="256" height="141" id="0" fill="rgb(118,119,104)" fill-opacity="1" />
<polygon points="256,0 0,65 0,0" id="1" fill="rgb(0,18,24)" fill-opacity="0.501961" />
<polygon points="0,82 256,58 2,133" id="2" fill="rgb(236,224,214)" fill-opacity="0.501961" />
<polygon points="256,61 187,99 256,122" id="3" fill="rgb(255,216,157)" fill-opacity="0.501961" />
<polygon points="256,141 51,139 232,99" id="4" fill="rgb(146,43,0)" fill-opacity="0.501961" />
<polygon points="144,107 0,106 90,132" id="5" fill="rgb(255,230,222)" fill-opacity="0.501961" />
<polygon points="256,61 256,0 105,1" id="6" fill="rgb(13,146,135)" fill-opacity="0.501961" />
<polygon points="0,49 119,0 0,0" id="7" fill="rgb(9,5,7)" fill-opacity="0.501961" />
<polygon points="138,133 246,37 26,74" id="8" fill="rgb(173,161,135)" fill-opacity="0.501961" />
<polygon points="199,120 256,119 256,95" id="9" fill="rgb(255,192,149)" fill-opacity="0.501961" />
<polygon points="51,141 0,121 0,141" id="10" fill="rgb(14,13,27)" fill-opacity="0.501961" />
<polygon points="256,119 256,141 160,141" id="11" fill="rgb(99,18,0)" fill-opacity="0.501961" />
<polygon points="152,6 0,89 256,57" id="12" fill="rgb(107,139,127)" fill-opacity="0.501961" />
<polygon points="146,141 221,74 129,94" id="13" fill="rgb(150,90,52)" fill-opacity="0.501961" />
<polygon points="163,94 179,103 149,111" id="14" fill="rgb(255,237,206)" fill-opacity="0.501961" />
</svg>