<?xml version="1.0" standalone="no"?>
<svg xmlns="http://www.w3.org/2000/svg" version="1.2" baseProfile="tiny" width="256" height="192" viewBox="0 0 256 192">
<rect x="0" y="0" width="256" height="192" id="0" fill="rgb(65,80,55)" fill-opacity="1" />
<polygon points="256,129 0,102 94,15" id="1" fill="rgb(218,216,101)" fill-opacity="0.501961" />
<polygon points="247,128 217,31 179,137" id="2" fill="rgb(255,142,186)" fill-opacity="0.501961" />
<polygon points="117,192 241,192 152,92" id="3" fill="rgb(0,0,16)" fill-opacity="0.501961" />
<polygon points="0,46 256,0 0,0" id="4" fill="rgb(0,0,12)" fill-opacity="0.501961" />
<polygon points="123,0 256,4 166,83" id="5" fill="rgb(0,0,20)" fill-opacity="0.501961" />
<polygon points="256,0 202,192 256,192" id="6" fill="rgb(0,0,31)" fill-opacity="0.501961" />
<polygon points="12,167 179,81 29,43" id="7" fill="rgb(160,196,76)" fill-opacity="0.501961" />
<polygon points="256,192 0,160 0,192" id="8" fill="rgb(0,0,18)" fill-opacity="0.501961" />
<polygon points="164,192 134,108 172,86" id="9" fill="rgb(0,0,31)" fill-opacity="0.501961" />
<polygon points="235,126 153,74 190,147" id="10" fill="rgb(255,151,172)" fill-opacity="0.501961" />
<polygon points="23,35 0,0 0,192" id="11" fill="rgb(0,0,18)" fill-opacity="0.501961" />
<polygon points="162,81 236,46 186,81" id="12" fill="rgb(250,253,255)" fill-opacity="0.501961" />
<polygon points="148,35 43,32 126,182" id="13" fill="rgb(155,186,71)" fill-opacity="0.501961" />
<polygon points="249,135 241,131 211,19" id="14" fill="rgb(228,255,248)" fill-opacity="0.501961" />
<polygon points="256,51 256,0 0,1" id="15" fill="rgb(0,11,33)" fill-opacity="0.501961" />
<polygon points="191,147 234,130 207,77" id="16" fill="rgb(255,95,91)" fill-opacity="0.501961" />
<polygon points="80,0 0,82 1,0" id="17" fill="rgb(0,7,32)" fill-opacity="0.501961" />
<polygon points="210,71 256,173 217,68" id="18" fill="rgb(0,16,23)" fill-opacity="0.501961" />
<polygon points="142,88 132,107 48,141" id="19" fill="rgb(200,183,242)" fill-opacity="0.501961" />
<polygon points="63,48 86,165 13,164" id="20" fill="rgb(104,131,49)" fill-opacity="0.501961" />
</svg>