<?xml version="1.0" standalone="no"?>
<svg xmlns="http://www.w3.org/2000/svg" version="1.2" baseProfile="tiny" width="256" height="170" viewBox="0 0 256 170">
<rect x="0" y="0" width="256" height="170" id="0" fill="rgb(71,70,69)" fill-opacity="1" />
<polygon points="150,170 60,0 147,0" id="1" fill="rgb(255,255,255)" fill-opacity="0.501961" />
<polygon points="0,0 117,144 0,170" id="2" fill="rgb(0,0,0)" fill-opacity="0.501961" />
<polygon points="0,170 0,0 80,0" id="3" fill="rgb(0,0,0)" fill-opacity="0.501961" />
<polygon points="155,170 102,170 125,0" id="4" fill="rgb(221,214,214)" fill-opacity="0.501961" />
<polygon points="214,0 256,152 144,156" id="5" fill="rgb(16,14,6)" fill-opacity="0.501961" />
<polygon points="155,40 137,0 256,0" id="6" fill="rgb(0,0,0)" fill-opacity="0.501961" />
<polygon points="150,37 116,0 95,89" id="7" fill="rgb(244,244,237)" fill-opacity="0.501961" />
<polygon points="215,153 256,170 0,170" id="8" fill="rgb(143,153,165)" fill-opacity="0.501961" />
<polygon points="0,33 0,156 132,160" id="9" fill="rgb(9,8,8)" fill-opacity="0.501961" />
<polygon points="89,78 152,63 153,114" id="10" fill="rgb(228,224,208)" fill-opacity="0.501961" />
<polygon points="57,0 94,170 99,28" id="11" fill="rgb(75,75,76)" fill-opacity="0.501961" />
<polygon points="160,170 152,83 191,65" id="12" fill="rgb(0,0,0)" fill-opacity="0.501961" />
<polygon points="244,12 138,0 159,42" id="13" fill="rgb(3,1,1)" fill-opacity="0.501961" />
<polygon points="75,0 133,0 155,48" id="14" fill="rgb(228,228,239)" fill-opacity="0.501961" />
<polygon points="188,50 196,33 148,47" id="15" fill="rgb(190,173,166)" fill-opacity="0.501961" />
<polygon points="184,153 256,77 210,1" id="16" fill="rgb(62,61,53)" fill-opacity="0.501961" />
<polygon points="57,0 59,98 0,0" id="17" fill="rgb(0,0,0)" fill-opacity="0.501961" />
<polygon points="241,16 245,47 223,20" id="18" fill="rgb(185,176,186)" fill-opacity="0.501961" />
<polygon points="94,98 117,169 179,170" id="19" fill="rgb(136,131,141)" fill-opacity="0.501961" />
<polygon points="231,41 256,41 256,154" id="20" fill="rgb(29,28,20)" fill-opacity="0.501961" />
<polygon points="151,66 151,133 116,128" id="21" fill="rgb(231,223,223)" fill-opacity="0.501961" />
<polygon points="81,111 35,162 127,140" id="22" fill="rgb(58,59,52)" fill-opacity="0.501961" />
<polygon points="119,27 65,68 48,68" id="23" fill="rgb(157,153,149)" fill-opacity="0.501961" />
<polygon points="131,54 154,41 170,66" id="24" fill="rgb(64,49,44)" fill-opacity="0.501961" />
<polygon points="87,70 121,117 120,65" id="25" fill="rgb(161,157,147)" fill-opacity="0.501961" />
<polygon points="203,90 156,76 157,158" id="26" fill="rgb(7,4,2)" fill-opacity="0.501961" />
</svg>