<?xml version="1.0" standalone="no"?>
<svg xmlns="http://www.w3.org/2000/svg" version="1.2" baseProfile="tiny" width="256" height="170" viewBox="0 0 256 170">
<rect x="0" y="0" width="256" height="170" id="0" fill="rgb(16,101,156)" fill-opacity="1" />
<polygon points="56,0 140,29 160,0" id="1" fill="rgb(255,255,255)" fill-opacity="0.501961" />
<polygon points="256,0 161,0 137,96" id="2" fill="rgb(48,0,0)" fill-opacity="0.501961" />
<polygon points="94,5 0,158 150,170" id="3" fill="rgb(5,164,234)" fill-opacity="0.501961" />
<polygon points="156,170 237,144 144,72" id="4" fill="rgb(0,0,40)" fill-opacity="0.501961" />
<polygon points="0,0 82,0 0,73" id="5" fill="rgb(0,198,255)" fill-opacity="0.501961" />
<polygon points="85,0 138,25 162,0" id="6" fill="rgb(255,255,255)" fill-opacity="0.501961" />
<polygon points="256,66 256,0 114,45" id="7" fill="rgb(21,17,54)" fill-opacity="0.501961" />
<polygon points="0,81 58,20 78,52" id="8" fill="rgb(0,15,44)" fill-opacity="0.501961" />
<polygon points="256,75 256,170 239,170" id="9" fill="rgb(0,135,255)" fill-opacity="0.501961" />
<polygon points="0,150 98,93 26,87" id="10" fill="rgb(36,185,241)" fill-opacity="0.501961" />
<polygon points="137,83 148,170 218,170" id="11" fill="rgb(0,40,80)" fill-opacity="0.501961" />
<polygon points="227,170 212,170 231,70" id="12" fill="rgb(0,138,232)" fill-opacity="0.501961" />
</svg>