<svg xmlns="http://www.w3.org/2000/svg" width="256" height="170" baseProfile="tiny" version="1.2" viewBox="0 0 256 170"><rect id="0" width="256" height="170" x="0" y="0" fill="#A99191" fill-opacity="1"/><polygon id="1" fill="#685F54" fill-opacity=".502" points="256 45 121 77 241 168"/><polygon id="2" fill="#FBF7FC" fill-opacity=".502" points="217 167 156 170 171 112"/><polygon id="3" fill="#EAA3B3" fill-opacity=".502" points="86 41 199 142 0 103"/><polygon id="4" fill="#FFF" fill-opacity=".502" points="35 170 0 115 0 170"/><polygon id="5" fill="#606452" fill-opacity=".502" points="73 56 106 4 0 49"/><polygon id="6" fill="#56594D" fill-opacity=".502" points="138 10 195 57 198 12"/><polygon id="7" fill="#E3C5CE" fill-opacity=".502" points="10 68 77 167 46 63"/><polygon id="8" fill="#444038" fill-opacity=".502" points="207 144 162 106 201 79"/><polygon id="9" fill="#F2E2E4" fill-opacity=".502" points="116 123 105 37 145 111"/></svg>