<?xml version="1.0" standalone="no"?>
<svg xmlns="http://www.w3.org/2000/svg" version="1.2" baseProfile="tiny" width="256" height="170" viewBox="0 0 256 170">
<rect x="0" y="0" width="256" height="170" id="0" fill="rgb(169,145,145)" fill-opacity="1" />
<polygon points="256,45 121,77 241,168" id="1" fill="rgb(104,95,84)" fill-opacity="0.501961" />
<polygon points="217,167 156,170 171,112" id="2" fill="rgb(251,247,252)" fill-opacity="0.501961" />
<polygon points="86,41 199,142 0,103" id="3" fill="rgb(234,163,179)" fill-opacity="0.501961" />
<polygon points="35,170 0,115 0,170" id="4" fill="rgb(255,255,255)" fill-opacity="0.501961" />
<polygon points="73,56 106,4 0,49" id="5" fill="rgb(96,100,82)" fill-opacity="0.501961" />
<polygon points="138,10 195,57 198,12" id="6" fill="rgb(86,89,77)" fill-opacity="0.501961" />
<polygon points="10,68 77,167 46,63" id="7" fill="rgb(227,197,206)" fill-opacity="0.501961" />
<polygon points="207,144 162,106 201,79" id="8" fill="rgb(68,64,56)" fill-opacity="0.501961" />
<polygon points="116,123 105,37 145,111" id="9" fill="rgb(242,226,228)" fill-opacity="0.501961" />
</svg>