<?xml version="1.0" standalone="no"?>
<svg xmlns="http://www.w3.org/2000/svg" version="1.2" baseProfile="tiny" width="256" height="170" viewBox="0 0 256 170">
<rect x="0" y="0" width="256" height="170" id="0" fill="rgb(84,78,73)" fill-opacity="1" />
<polygon points="59,96 141,128 59,47" id="1" fill="rgb(255,255,255)" fill-opacity="0.501961" />
<polygon points="226,0 191,84 123,39" id="2" fill="rgb(241,235,226)" fill-opacity="0.501961" />
<polygon points="74,149 19,112 26,56" id="3" fill="rgb(255,255,251)" fill-opacity="0.501961" />
<polygon points="193,0 253,0 198,29" id="4" fill="rgb(255,255,255)" fill-opacity="0.501961" />
<polygon points="256,170 84,170 256,20" id="5" fill="rgb(16,12,10)" fill-opacity="0.501961" />
<polygon points="161,0 0,72 0,0" id="6" fill="rgb(16,11,9)" fill-opacity="0.501961" />
<polygon points="192,43 192,0 156,30" id="7" fill="rgb(0,0,0)" fill-opacity="0.501961" />
<polygon points="128,73 202,79 149,5" id="8" fill="rgb(204,199,191)" fill-opacity="0.501961" />
<polygon points="115,91 58,72 140,143" id="9" fill="rgb(252,248,235)" fill-opacity="0.501961" />
<polygon points="66,77 69,137 50,143" id="10" fill="rgb(255,255,250)" fill-opacity="0.501961" />
<polygon points="74,170 28,107 24,170" id="11" fill="rgb(9,2,0)" fill-opacity="0.501961" />
<polygon points="18,170 15,0 -11,165" id="12" fill="rgb(7,1,0)" fill-opacity="0.501961" />
<polygon points="15,170 24,170 26,68" id="13" fill="rgb(227,221,204)" fill-opacity="0.501961" />
<polygon points="256,18 200,72 206,33" id="14" fill="rgb(14,8,10)" fill-opacity="0.501961" />
<polygon points="152,39 137,98 181,170" id="15" fill="rgb(47,42,41)" fill-opacity="0.501961" />
<polygon points="203,33 193,84 170,46" id="16" fill="rgb(255,252,240)" fill-opacity="0.501961" />
<polygon points="71,170 179,170 68,92" id="17" fill="rgb(49,44,39)" fill-opacity="0.501961" />
<polygon points="86,120 138,73 131,127" id="18" fill="rgb(174,172,166)" fill-opacity="0.501961" />
<polygon points="106,163 181,64 214,124" id="19" fill="rgb(65,60,57)" fill-opacity="0.501961" />
<polygon points="18,72 56,142 35,60" id="20" fill="rgb(247,240,223)" fill-opacity="0.501961" />
<polygon points="138,42 45,0 97,91" id="21" fill="rgb(50,45,44)" fill-opacity="0.501961" />
<polygon points="194,0 231,28 233,0" id="22" fill="rgb(244,235,218)" fill-opacity="0.501961" />
<polygon points="154,52 166,83 185,53" id="23" fill="rgb(255,253,242)" fill-opacity="0.501961" />
</svg>