<?xml version="1.0" standalone="no"?>
<svg xmlns="http://www.w3.org/2000/svg" version="1.2" baseProfile="tiny" width="256" height="170" viewBox="0 0 256 170">
<rect x="0" y="0" width="256" height="170" id="0" fill="rgb(55,59,63)" fill-opacity="1" />
<polygon points="248,57 0,54 106,-9" id="1" fill="rgb(8,107,192)" fill-opacity="0.501961" />
<polygon points="256,56 31,91 95,159" id="2" fill="rgb(166,123,88)" fill-opacity="0.501961" />
<polygon points="256,98 42,170 256,169" id="3" fill="rgb(0,0,0)" fill-opacity="0.501961" />
<polygon points="256,82 159,69 256,61" id="4" fill="rgb(247,200,121)" fill-opacity="0.501961" />
<polygon points="0,0 130,0 0,95" id="5" fill="rgb(0,28,86)" fill-opacity="0.501961" />
<polygon points="91,88 0,97 0,49" id="6" fill="rgb(10,0,0)" fill-opacity="0.501961" />
<polygon points="252,76 166,0 256,0" id="7" fill="rgb(63,27,0)" fill-opacity="0.501961" />
<polygon points="0,125 42,128 116,103" id="8" fill="rgb(206,162,122)" fill-opacity="0.501961" />
<polygon points="249,84 140,170 256,170" id="9" fill="rgb(6,0,0)" fill-opacity="0.501961" />
<polygon points="209,98 0,136 55,139" id="10" fill="rgb(0,14,90)" fill-opacity="0.501961" />
<polygon points="92,83 125,76 107,67" id="11" fill="rgb(255,222,144)" fill-opacity="0.501961" />
</svg>