<?xml version="1.0" standalone="no"?>
<svg xmlns="http://www.w3.org/2000/svg" version="1.2" baseProfile="tiny" width="256" height="196" viewBox="0 0 256 196">
<rect x="0" y="0" width="256" height="196" id="0" fill="rgb(140,152,161)" fill-opacity="1" />
<polygon points="204,196 0,170 249,88" id="1" fill="rgb(11,0,0)" fill-opacity="0.501961" />
<polygon points="0,0 256,44 0,138" id="2" fill="rgb(218,253,255)" fill-opacity="0.501961" />
<polygon points="160,196 256,120 152,85" id="3" fill="rgb(3,0,3)" fill-opacity="0.501961" />
<polygon points="112,191 0,196 0,115" id="4" fill="rgb(69,68,0)" fill-opacity="0.501961" />
<polygon points="0,91 190,0 126,136" id="5" fill="rgb(220,235,255)" fill-opacity="0.501961" />
<polygon points="256,0 256,103 54,0" id="6" fill="rgb(174,215,255)" fill-opacity="0.501961" />
<polygon points="153,172 160,196 72,196" id="7" fill="rgb(255,255,181)" fill-opacity="0.501961" />
<polygon points="219,128 267,184 208,196" id="8" fill="rgb(255,203,121)" fill-opacity="0.501961" />
<polygon points="0,0 203,0 0,59" id="9" fill="rgb(83,146,240)" fill-opacity="0.501961" />
<polygon points="171,154 256,93 256,148" id="10" fill="rgb(71,69,24)" fill-opacity="0.501961" />
<polygon points="210,98 256,94 195,16" id="11" fill="rgb(241,246,255)" fill-opacity="0.501961" />
<polygon points="158,196 210,196 178,74" id="12" fill="rgb(15,12,38)" fill-opacity="0.501961" />
<polygon points="17,121 213,164 0,196" id="13" fill="rgb(93,98,43)" fill-opacity="0.501961" />
</svg>