<?xml version="1.0" standalone="no"?>
<svg xmlns="http://www.w3.org/2000/svg" version="1.2" baseProfile="tiny" width="256" height="175" viewBox="0 0 256 175">
<rect x="0" y="0" width="256" height="175" id="0" fill="rgb(76,68,79)" fill-opacity="1" />
<polygon points="255,11 256,81 0,16" id="1" fill="rgb(253,234,238)" fill-opacity="0.501961" />
<polygon points="256,175 0,173 221,44" id="2" fill="rgb(0,0,0)" fill-opacity="0.501961" />
<polygon points="206,159 0,163 41,70" id="3" fill="rgb(0,0,0)" fill-opacity="0.501961" />
<polygon points="256,29 112,0 101,62" id="4" fill="rgb(228,211,216)" fill-opacity="0.501961" />
<polygon points="0,44 0,0 256,2" id="5" fill="rgb(127,126,155)" fill-opacity="0.501961" />
<polygon points="202,68 256,73 212,91" id="6" fill="rgb(236,197,173)" fill-opacity="0.501961" />
<polygon points="149,68 85,90 138,123" id="7" fill="rgb(196,145,124)" fill-opacity="0.501961" />
<polygon points="256,171 0,138 254,108" id="8" fill="rgb(0,0,0)" fill-opacity="0.501961" />
<polygon points="32,88 0,84 0,122" id="9" fill="rgb(246,186,137)" fill-opacity="0.501961" />
<polygon points="111,33 13,31 60,126" id="10" fill="rgb(63,53,80)" fill-opacity="0.501961" />
<polygon points="0,175 256,173 0,124" id="11" fill="rgb(0,13,48)" fill-opacity="0.501961" />
<polygon points="112,76 116,96 141,87" id="12" fill="rgb(255,231,187)" fill-opacity="0.501961" />
<polygon points="157,134 93,100 181,92" id="13" fill="rgb(90,49,60)" fill-opacity="0.501961" />
<polygon points="113,54 0,52 0,45" id="14" fill="rgb(158,149,165)" fill-opacity="0.501961" />
<polygon points="74,113 94,79 67,69" id="15" fill="rgb(0,0,0)" fill-opacity="0.501961" />
<polygon points="116,76 171,80 134,44" id="16" fill="rgb(36,25,37)" fill-opacity="0.501961" />
<polygon points="88,48 169,22 184,57" id="17" fill="rgb(230,209,202)" fill-opacity="0.501961" />
<polygon points="58,25 0,31 0,-5" id="18" fill="rgb(158,152,170)" fill-opacity="0.501961" />
<polygon points="167,81 221,55 220,43" id="19" fill="rgb(0,0,0)" fill-opacity="0.501961" />
<polygon points="39,97 72,92 43,85" id="20" fill="rgb(214,175,115)" fill-opacity="0.501961" />
<polygon points="221,51 256,132 256,68" id="21" fill="rgb(103,84,98)" fill-opacity="0.501961" />
<polygon points="256,164 256,123 0,129" id="22" fill="rgb(0,0,3)" fill-opacity="0.501961" />
<polygon points="21,127 32,108 7,108" id="23" fill="rgb(207,130,106)" fill-opacity="0.501961" />
<polygon points="256,17 109,15 256,2" id="24" fill="rgb(98,96,122)" fill-opacity="0.501961" />
<polygon points="124,61 17,90 0,56" id="25" fill="rgb(40,30,64)" fill-opacity="0.501961" />
<polygon points="78,112 143,154 0,154" id="26" fill="rgb(2,0,0)" fill-opacity="0.501961" />
<polygon points="20,86 -19,86 0,99" id="27" fill="rgb(255,248,195)" fill-opacity="0.501961" />
<polygon points="206,81 256,75 206,69" id="28" fill="rgb(225,195,169)" fill-opacity="0.501961" />
<polygon points="71,76 128,83 105,84" id="29" fill="rgb(0,0,0)" fill-opacity="0.501961" />
</svg>