<?xml version="1.0" standalone="no"?>
<svg xmlns="http://www.w3.org/2000/svg" version="1.2" baseProfile="tiny" width="256" height="170" viewBox="0 0 256 170">
<rect x="0" y="0" width="256" height="170" id="0" fill="rgb(77,71,73)" fill-opacity="1" />
<polygon points="218,109 256,23 69,131" id="1" fill="rgb(255,218,185)" fill-opacity="0.501961" />
<polygon points="0,32 57,123 92,67" id="2" fill="rgb(255,250,212)" fill-opacity="0.501961" />
<polygon points="256,170 0,100 0,170" id="3" fill="rgb(0,0,0)" fill-opacity="0.501961" />
<polygon points="224,20 144,31 250,82" id="4" fill="rgb(255,235,193)" fill-opacity="0.501961" />
<polygon points="256,80 256,170 103,170" id="5" fill="rgb(0,0,6)" fill-opacity="0.501961" />
<polygon points="47,0 206,0 95,74" id="6" fill="rgb(0,0,18)" fill-opacity="0.501961" />
<polygon points="0,40 79,37 43,11" id="7" fill="rgb(255,255,225)" fill-opacity="0.501961" />
<polygon points="155,139 191,114 101,122" id="8" fill="rgb(255,220,191)" fill-opacity="0.501961" />
<polygon points="256,32 126,0 256,0" id="9" fill="rgb(0,0,0)" fill-opacity="0.501961" />
<polygon points="0,62 80,140 93,84" id="10" fill="rgb(225,168,138)" fill-opacity="0.501961" />
<polygon points="94,75 171,82 194,46" id="11" fill="rgb(0,1,41)" fill-opacity="0.501961" />
<polygon points="29,22 61,24 84,92" id="12" fill="rgb(255,217,183)" fill-opacity="0.501961" />
<polygon points="0,70 0,170 112,170" id="13" fill="rgb(0,0,0)" fill-opacity="0.501961" />
<polygon points="256,4 3,0 8,18" id="14" fill="rgb(0,0,19)" fill-opacity="0.501961" />
<polygon points="256,33 256,92 150,91" id="15" fill="rgb(224,185,159)" fill-opacity="0.501961" />
<polygon points="248,75 256,170 132,170" id="16" fill="rgb(0,0,23)" fill-opacity="0.501961" />
<polygon points="119,93 211,110 138,110" id="17" fill="rgb(60,14,4)" fill-opacity="0.501961" />
<polygon points="209,16 155,29 256,48" id="18" fill="rgb(251,205,173)" fill-opacity="0.501961" />
<polygon points="29,82 0,15 0,91" id="19" fill="rgb(168,124,80)" fill-opacity="0.501961" />
<polygon points="135,101 56,0 133,0" id="20" fill="rgb(0,17,50)" fill-opacity="0.501961" />
<polygon points="247,32 215,101 256,100" id="21" fill="rgb(132,112,92)" fill-opacity="0.501961" />
<polygon points="55,70 67,50 19,32" id="22" fill="rgb(133,65,36)" fill-opacity="0.501961" />
<polygon points="79,131 88,185 213,144" id="23" fill="rgb(0,23,67)" fill-opacity="0.501961" />
<polygon points="32,82 64,92 20,38" id="24" fill="rgb(255,241,224)" fill-opacity="0.501961" />
<polygon points="151,119 72,131 32,89" id="25" fill="rgb(163,119,99)" fill-opacity="0.501961" />
<polygon points="76,0 256,0 176,27" id="26" fill="rgb(0,4,29)" fill-opacity="0.501961" />
<polygon points="163,92 229,47 217,80" id="27" fill="rgb(255,238,224)" fill-opacity="0.501961" />
<polygon points="149,56 138,42 90,132" id="28" fill="rgb(116,123,124)" fill-opacity="0.501961" />
<polygon points="12,25 69,0 5,0" id="29" fill="rgb(0,0,11)" fill-opacity="0.501961" />
<polygon points="117,164 0,170 12,91" id="30" fill="rgb(0,0,7)" fill-opacity="0.501961" />
<polygon points="199,68 108,93 193,42" id="31" fill="rgb(5,19,36)" fill-opacity="0.501961" />
<polygon points="167,0 78,60 100,103" id="32" fill="rgb(0,28,62)" fill-opacity="0.501961" />
<polygon points="0,32 77,29 0,59" id="33" fill="rgb(200,151,115)" fill-opacity="0.501961" />
<polygon points="93,94 106,94 66,31" id="34" fill="rgb(125,148,161)" fill-opacity="0.501961" />
<polygon points="150,138 212,105 119,133" id="35" fill="rgb(212,176,157)" fill-opacity="0.501961" />
<polygon points="256,33 193,13 256,0" id="36" fill="rgb(0,0,18)" fill-opacity="0.501961" />
<polygon points="111,86 58,114 88,112" id="37" fill="rgb(66,33,17)" fill-opacity="0.501961" />
<polygon points="245,64 156,32 256,32" id="38" fill="rgb(214,167,134)" fill-opacity="0.501961" />
<polygon points="208,20 157,27 169,49" id="39" fill="rgb(252,217,194)" fill-opacity="0.501961" />
<polygon points="256,95 168,144 255,170" id="40" fill="rgb(0,0,5)" fill-opacity="0.501961" />
<polygon points="89,108 148,109 65,134" id="41" fill="rgb(186,151,134)" fill-opacity="0.501961" />
<polygon points="146,96 139,85 212,76" id="42" fill="rgb(251,215,201)" fill-opacity="0.501961" />
<polygon points="32,14 23,31 84,36" id="43" fill="rgb(255,233,208)" fill-opacity="0.501961" />
<polygon points="217,103 256,101 256,67" id="44" fill="rgb(74,89,94)" fill-opacity="0.501961" />
<polygon points="45,0 151,33 54,24" id="45" fill="rgb(0,17,45)" fill-opacity="0.501961" />
<polygon points="67,49 56,71 94,89" id="46" fill="rgb(246,218,211)" fill-opacity="0.501961" />
<polygon points="23,13 232,0 183,25" id="47" fill="rgb(0,13,32)" fill-opacity="0.501961" />
<polygon points="107,170 224,170 59,129" id="48" fill="rgb(0,27,56)" fill-opacity="0.501961" />
<polygon points="170,129 207,111 189,90" id="49" fill="rgb(161,127,109)" fill-opacity="0.501961" />
<polygon points="91,82 63,100 78,79" id="50" fill="rgb(133,88,73)" fill-opacity="0.501961" />
<polygon points="197,55 135,43 202,48" id="51" fill="rgb(119,59,36)" fill-opacity="0.501961" />
<polygon points="196,53 159,50 132,85" id="52" fill="rgb(0,2,23)" fill-opacity="0.501961" />
<polygon points="122,69 163,0 39,0" id="53" fill="rgb(0,19,43)" fill-opacity="0.501961" />
<polygon points="136,116 81,107 138,124" id="54" fill="rgb(125,72,62)" fill-opacity="0.501961" />
<polygon points="103,94 83,70 77,57" id="55" fill="rgb(1,13,26)" fill-opacity="0.501961" />
<polygon points="55,0 1,27 14,28" id="56" fill="rgb(0,8,22)" fill-opacity="0.501961" />
<polygon points="74,105 31,44 21,67" id="57" fill="rgb(241,204,186)" fill-opacity="0.501961" />
<polygon points="154,53 142,28 141,72" id="58" fill="rgb(126,117,107)" fill-opacity="0.501961" />
<polygon points="175,77 192,73 192,55" id="59" fill="rgb(190,157,141)" fill-opacity="0.501961" />
<polygon points="182,152 256,72 130,167" id="60" fill="rgb(0,23,47)" fill-opacity="0.501961" />
<polygon points="0,103 91,158 26,90" id="61" fill="rgb(0,1,13)" fill-opacity="0.501961" />
<polygon points="16,49 26,31 73,56" id="62" fill="rgb(145,104,77)" fill-opacity="0.501961" />
<polygon points="108,124 138,139 123,120" id="63" fill="rgb(215,185,189)" fill-opacity="0.501961" />
<polygon points="96,92 63,105 85,85" id="64" fill="rgb(204,180,174)" fill-opacity="0.501961" />
<polygon points="212,75 224,44 198,56" id="65" fill="rgb(247,222,215)" fill-opacity="0.501961" />
<polygon points="36,36 55,76 63,78" id="66" fill="rgb(97,56,45)" fill-opacity="0.501961" />
<polygon points="87,111 79,101 140,97" id="67" fill="rgb(94,44,27)" fill-opacity="0.501961" />
<polygon points="219,23 240,65 256,39" id="68" fill="rgb(190,153,118)" fill-opacity="0.501961" />
</svg>