<?xml version="1.0" standalone="no"?>
<svg xmlns="http://www.w3.org/2000/svg" version="1.2" baseProfile="tiny" width="256" height="170" viewBox="0 0 256 170">
<rect x="0" y="0" width="256" height="170" id="0" fill="rgb(84,74,72)" fill-opacity="1" />
<polygon points="31,57 0,144 139,81" id="1" fill="rgb(223,221,222)" fill-opacity="0.501961" />
<polygon points="0,42 48,0 0,0" id="2" fill="rgb(255,255,255)" fill-opacity="0.501961" />
<polygon points="35,0 85,76 256,40" id="3" fill="rgb(0,0,35)" fill-opacity="0.501961" />
<polygon points="166,170 71,170 161,124" id="4" fill="rgb(219,189,215)" fill-opacity="0.501961" />
<polygon points="255,0 256,97 104,109" id="5" fill="rgb(50,18,0)" fill-opacity="0.501961" />
<polygon points="53,32 0,30 -3,-23" id="6" fill="rgb(255,255,255)" fill-opacity="0.501961" />
<polygon points="99,141 47,190 0,131" id="7" fill="rgb(0,0,0)" fill-opacity="0.501961" />
<polygon points="0,148 0,94 147,96" id="8" fill="rgb(155,117,98)" fill-opacity="0.501961" />
<polygon points="171,38 174,55 145,50" id="9" fill="rgb(243,255,255)" fill-opacity="0.501961" />
<polygon points="27,46 45,24 41,70" id="10" fill="rgb(255,255,0)" fill-opacity="0.501961" />
<polygon points="256,170 176,0 171,170" id="11" fill="rgb(46,18,15)" fill-opacity="0.501961" />
<polygon points="29,99 26,66 76,69" id="12" fill="rgb(234,255,255)" fill-opacity="0.501961" />
</svg>