<?xml version="1.0" standalone="no"?>
<svg xmlns="http://www.w3.org/2000/svg" version="1.2" baseProfile="tiny" width="256" height="170" viewBox="0 0 256 170">
<rect x="0" y="0" width="256" height="170" id="0" fill="rgb(145,156,170)" fill-opacity="1" />
<polygon points="0,169 256,168 256,96" id="1" fill="rgb(53,28,27)" fill-opacity="0.501961" />
<polygon points="0,102 204,0 256,99" id="2" fill="rgb(212,234,249)" fill-opacity="0.501961" />
<polygon points="0,110 207,108 0,170" id="3" fill="rgb(106,71,52)" fill-opacity="0.501961" />
<polygon points="256,0 0,98 0,0" id="4" fill="rgb(159,205,252)" fill-opacity="0.501961" />
<polygon points="161,149 101,90 105,153" id="5" fill="rgb(226,198,176)" fill-opacity="0.501961" />
<polygon points="256,84 256,0 0,46" id="6" fill="rgb(155,193,229)" fill-opacity="0.501961" />
<polygon points="0,85 53,56 79,162" id="7" fill="rgb(205,195,176)" fill-opacity="0.501961" />
<polygon points="0,170 0,111 28,110" id="8" fill="rgb(22,27,42)" fill-opacity="0.501961" />
<polygon points="256,155 134,156 256,100" id="9" fill="rgb(50,49,65)" fill-opacity="0.501961" />
<polygon points="34,84 202,112 256,74" id="10" fill="rgb(218,205,191)" fill-opacity="0.501961" />
<polygon points="140,118 156,110 236,110" id="11" fill="rgb(27,22,36)" fill-opacity="0.501961" />
<polygon points="8,166 101,138 42,145" id="12" fill="rgb(41,40,54)" fill-opacity="0.501961" />
<polygon points="0,143 0,135 53,139" id="13" fill="rgb(219,196,165)" fill-opacity="0.501961" />
<polygon points="254,161 71,169 256,169" id="14" fill="rgb(149,138,135)" fill-opacity="0.501961" />
<polygon points="177,92 256,47 256,99" id="15" fill="rgb(202,216,221)" fill-opacity="0.501961" />
<polygon points="63,155 169,150 158,124" id="16" fill="rgb(168,145,131)" fill-opacity="0.501961" />
<polygon points="256,60 256,0 0,0" id="17" fill="rgb(142,175,218)" fill-opacity="0.501961" />
<polygon points="0,152 10,170 122,170" id="18" fill="rgb(47,58,86)" fill-opacity="0.501961" />
<polygon points="85,133 101,166 103,88" id="19" fill="rgb(119,79,71)" fill-opacity="0.501961" />
<polygon points="238,109 220,85 209,109" id="20" fill="rgb(231,206,165)" fill-opacity="0.501961" />
<polygon points="119,115 100,119 107,145" id="21" fill="rgb(241,225,212)" fill-opacity="0.501961" />
<polygon points="0,67 198,101 0,110" id="22" fill="rgb(196,193,185)" fill-opacity="0.501961" />
<polygon points="81,143 18,122 91,124" id="23" fill="rgb(188,159,140)" fill-opacity="0.501961" />
<polygon points="131,114 162,101 115,139" id="24" fill="rgb(81,67,66)" fill-opacity="0.501961" />
<polygon points="169,155 230,151 96,155" id="25" fill="rgb(0,0,0)" fill-opacity="0.501961" />
<polygon points="75,115 105,118 90,106" id="26" fill="rgb(52,37,43)" fill-opacity="0.501961" />
</svg>