<svg xmlns="http://www.w3.org/2000/svg" width="256" height="170" baseProfile="tiny" version="1.2" viewBox="0 0 256 170"><rect id="0" width="256" height="170" x="0" y="0" fill="#7B6A63" fill-opacity="1"/><polygon id="1" fill="#C4D6E1" fill-opacity=".502" points="0 0 192 63 256 0"/><polygon id="2" fill="#070000" fill-opacity=".502" points="256 121 111 65 167 170"/><polygon id="3" fill="#B2AAA8" fill-opacity=".502" points="0 4 0 117 186 0"/><polygon id="4" fill="#4D372B" fill-opacity=".502" points="256 168 216 42 0 170"/><polygon id="5" fill="#000" fill-opacity=".502" points="256 120 256 156 214 146"/><polygon id="6" fill="#672D1F" fill-opacity=".502" points="122 111 1 170 0 117"/><polygon id="7" fill="#D49480" fill-opacity=".502" points="212 79 224 170 206 170"/><polygon id="8" fill="#846855" fill-opacity=".502" points="91 107 206 79 179 11"/><polygon id="9" fill="#B6AEB3" fill-opacity=".502" points="256 0 198 49 247 68"/><polygon id="10" fill="#FFF" fill-opacity=".502" points="111 53 105 -3 120 0"/><polygon id="11" fill="#8C5C44" fill-opacity=".502" points="190 52 72 88 24 53"/><polygon id="12" fill="#999571" fill-opacity=".502" points="123 105 169 170 100 170"/><polygon id="13" fill="#121514" fill-opacity=".502" points="190 170 130 122 191 84"/></svg>