<?xml version="1.0" standalone="no"?>
<svg xmlns="http://www.w3.org/2000/svg" version="1.2" baseProfile="tiny" width="256" height="170" viewBox="0 0 256 170">
<rect x="0" y="0" width="256" height="170" id="0" fill="rgb(116,98,80)" fill-opacity="1" />
<polygon points="181,0 1,77 0,0" id="1" fill="rgb(255,242,229)" fill-opacity="0.501961" />
<polygon points="67,170 256,49 256,169" id="2" fill="rgb(32,23,13)" fill-opacity="0.501961" />
<polygon points="146,114 0,170 0,48" id="3" fill="rgb(61,49,38)" fill-opacity="0.501961" />
<polygon points="50,52 164,0 152,107" id="4" fill="rgb(217,164,126)" fill-opacity="0.501961" />
<polygon points="61,147 256,168 0,170" id="5" fill="rgb(31,13,0)" fill-opacity="0.501961" />
<polygon points="91,157 120,12 192,139" id="6" fill="rgb(137,103,76)" fill-opacity="0.501961" />
<polygon points="111,60 106,0 82,68" id="7" fill="rgb(255,209,175)" fill-opacity="0.501961" />
<polygon points="232,170 184,0 162,0" id="8" fill="rgb(56,49,26)" fill-opacity="0.501961" />
<polygon points="73,59 0,52 57,0" id="9" fill="rgb(224,214,211)" fill-opacity="0.501961" />
<polygon points="33,151 19,128 71,124" id="10" fill="rgb(152,150,153)" fill-opacity="0.501961" />
<polygon points="0,131 155,110 0,88" id="11" fill="rgb(48,38,25)" fill-opacity="0.501961" />
<polygon points="256,14 228,60 248,0" id="12" fill="rgb(189,190,195)" fill-opacity="0.501961" />
<polygon points="0,74 73,69 72,102" id="13" fill="rgb(155,132,106)" fill-opacity="0.501961" />
<polygon points="189,0 208,76 207,32" id="14" fill="rgb(192,187,182)" fill-opacity="0.501961" />
<polygon points="115,149 132,49 143,143" id="15" fill="rgb(168,139,109)" fill-opacity="0.501961" />
<polygon points="155,156 178,77 256,51" id="16" fill="rgb(65,54,37)" fill-opacity="0.501961" />
<polygon points="142,64 123,0 189,34" id="17" fill="rgb(174,156,132)" fill-opacity="0.501961" />
<polygon points="0,56 57,0 0,22" id="18" fill="rgb(240,219,204)" fill-opacity="0.501961" />
<polygon points="191,0 252,0 210,42" id="19" fill="rgb(74,70,56)" fill-opacity="0.501961" />
<polygon points="71,63 70,78 0,57" id="20" fill="rgb(63,49,39)" fill-opacity="0.501961" />
<polygon points="155,143 256,162 69,170" id="21" fill="rgb(36,26,15)" fill-opacity="0.501961" />
<polygon points="230,127 202,60 223,156" id="22" fill="rgb(17,15,11)" fill-opacity="0.501961" />
<polygon points="83,53 45,63 58,0" id="23" fill="rgb(195,188,186)" fill-opacity="0.501961" />
<polygon points="220,149 169,144 207,115" id="24" fill="rgb(104,99,97)" fill-opacity="0.501961" />
<polygon points="241,127 249,114 228,36" id="25" fill="rgb(144,122,97)" fill-opacity="0.501961" />
<polygon points="88,115 143,150 94,151" id="26" fill="rgb(120,119,121)" fill-opacity="0.501961" />
<polygon points="125,122 110,66 63,136" id="27" fill="rgb(85,52,29)" fill-opacity="0.501961" />
<polygon points="84,26 64,91 88,85" id="28" fill="rgb(153,87,52)" fill-opacity="0.501961" />
<polygon points="161,53 135,62 143,26" id="29" fill="rgb(214,184,159)" fill-opacity="0.501961" />
<polygon points="5,112 29,57 0,53" id="30" fill="rgb(91,76,59)" fill-opacity="0.501961" />
<polygon points="94,130 85,116 111,114" id="31" fill="rgb(194,120,65)" fill-opacity="0.501961" />
<polygon points="109,31 139,0 138,87" id="32" fill="rgb(141,107,79)" fill-opacity="0.501961" />
<polygon points="171,70 171,128 152,121" id="33" fill="rgb(172,123,79)" fill-opacity="0.501961" />
<polygon points="172,77 0,77 157,65" id="34" fill="rgb(140,113,88)" fill-opacity="0.501961" />
<polygon points="212,19 233,54 254,54" id="35" fill="rgb(132,128,125)" fill-opacity="0.501961" />
<polygon points="167,29 152,72 206,64" id="36" fill="rgb(85,75,60)" fill-opacity="0.501961" />
<polygon points="256,55 223,113 211,55" id="37" fill="rgb(82,69,48)" fill-opacity="0.501961" />
<polygon points="82,56 81,69 105,68" id="38" fill="rgb(255,161,65)" fill-opacity="0.501961" />
<polygon points="125,0 102,62 55,0" id="39" fill="rgb(200,175,148)" fill-opacity="0.501961" />
<polygon points="162,77 110,89 87,79" id="40" fill="rgb(194,109,57)" fill-opacity="0.501961" />
<polygon points="4,148 197,136 0,131" id="41" fill="rgb(100,97,98)" fill-opacity="0.501961" />
<polygon points="63,133 62,68 59,100" id="42" fill="rgb(170,145,115)" fill-opacity="0.501961" />
<polygon points="67,146 91,162 78,86" id="43" fill="rgb(56,47,36)" fill-opacity="0.501961" />
<polygon points="169,158 256,168 160,170" id="44" fill="rgb(88,64,37)" fill-opacity="0.501961" />
<polygon points="136,59 165,60 152,28" id="45" fill="rgb(199,173,150)" fill-opacity="0.501961" />
<polygon points="105,70 113,53 181,72" id="46" fill="rgb(125,82,59)" fill-opacity="0.501961" />
<polygon points="184,1 195,31 191,2" id="47" fill="rgb(178,163,141)" fill-opacity="0.501961" />
<polygon points="135,124 142,145 60,153" id="48" fill="rgb(121,116,115)" fill-opacity="0.501961" />
<polygon points="201,55 201,49 177,-4" id="49" fill="rgb(40,35,12)" fill-opacity="0.501961" />
<polygon points="63,149 4,170 0,149" id="50" fill="rgb(67,47,25)" fill-opacity="0.501961" />
<polygon points="221,129 233,130 231,99" id="51" fill="rgb(13,12,10)" fill-opacity="0.501961" />
<polygon points="220,14 233,32 242,64" id="52" fill="rgb(77,65,49)" fill-opacity="0.501961" />
<polygon points="145,28 163,0 99,0" id="53" fill="rgb(180,153,123)" fill-opacity="0.501961" />
<polygon points="248,139 250,109 273,138" id="54" fill="rgb(20,15,9)" fill-opacity="0.501961" />
<polygon points="143,130 115,129 141,134" id="55" fill="rgb(201,195,198)" fill-opacity="0.501961" />
<polygon points="224,18 219,50 212,11" id="56" fill="rgb(147,138,132)" fill-opacity="0.501961" />
<polygon points="86,114 63,97 141,112" id="57" fill="rgb(35,34,30)" fill-opacity="0.501961" />
<polygon points="210,78 219,93 212,36" id="58" fill="rgb(38,34,21)" fill-opacity="0.501961" />
<polygon points="34,101 0,91 40,77" id="59" fill="rgb(93,79,60)" fill-opacity="0.501961" />
<polygon points="49,126 66,129 23,129" id="60" fill="rgb(206,194,189)" fill-opacity="0.501961" />
<polygon points="198,89 211,111 205,70" id="61" fill="rgb(118,99,75)" fill-opacity="0.501961" />
<polygon points="59,126 99,130 45,99" id="62" fill="rgb(57,49,38)" fill-opacity="0.501961" />
<polygon points="211,49 198,59 207,34" id="63" fill="rgb(188,183,185)" fill-opacity="0.501961" />
<polygon points="122,103 140,105 142,77" id="64" fill="rgb(222,152,83)" fill-opacity="0.501961" />
<polygon points="9,82 9,107 15,65" id="65" fill="rgb(157,132,104)" fill-opacity="0.501961" />
<polygon points="147,103 137,110 147,130" id="66" fill="rgb(34,27,21)" fill-opacity="0.501961" />
<polygon points="181,146 176,114 170,150" id="67" fill="rgb(49,41,32)" fill-opacity="0.501961" />
<polygon points="193,97 195,107 189,145" id="68" fill="rgb(135,117,98)" fill-opacity="0.501961" />
<polygon points="0,132 0,92 44,120" id="69" fill="rgb(44,39,30)" fill-opacity="0.501961" />
<polygon points="172,38 171,12 126,11" id="70" fill="rgb(148,130,107)" fill-opacity="0.501961" />
<polygon points="113,56 108,0 86,59" id="71" fill="rgb(215,186,164)" fill-opacity="0.501961" />
<polygon points="216,129 177,132 202,127" id="72" fill="rgb(163,154,147)" fill-opacity="0.501961" />
<polygon points="20,77 50,72 63,75" id="73" fill="rgb(196,172,140)" fill-opacity="0.501961" />
<polygon points="244,39 256,10 250,65" id="74" fill="rgb(81,79,69)" fill-opacity="0.501961" />
<polygon points="233,42 232,54 226,38" id="75" fill="rgb(187,182,183)" fill-opacity="0.501961" />
<polygon points="232,0 220,132 226,7" id="76" fill="rgb(84,73,56)" fill-opacity="0.501961" />
<polygon points="188,77 201,89 215,88" id="77" fill="rgb(32,26,10)" fill-opacity="0.501961" />
<polygon points="162,168 62,170 86,154" id="78" fill="rgb(21,15,10)" fill-opacity="0.501961" />
<polygon points="219,0 191,37 207,0" id="79" fill="rgb(80,68,47)" fill-opacity="0.501961" />
<polygon points="177,154 256,168 256,152" id="80" fill="rgb(52,37,15)" fill-opacity="0.501961" />
<polygon points="197,97 203,95 197,150" id="81" fill="rgb(40,33,21)" fill-opacity="0.501961" />
<polygon points="21,54 35,95 0,56" id="82" fill="rgb(86,73,60)" fill-opacity="0.501961" />
<polygon points="242,142 248,116 229,143" id="83" fill="rgb(96,87,80)" fill-opacity="0.501961" />
<polygon points="239,133 248,123 215,127" id="84" fill="rgb(30,24,19)" fill-opacity="0.501961" />
<polygon points="76,11 0,55 0,16" id="85" fill="rgb(218,199,183)" fill-opacity="0.501961" />
</svg>