<?xml version="1.0" standalone="no"?>
<svg xmlns="http://www.w3.org/2000/svg" version="1.2" baseProfile="tiny" width="256" height="174" viewBox="0 0 256 174">
<rect x="0" y="0" width="256" height="174" id="0" fill="rgb(108,97,83)" fill-opacity="1" />
<polygon points="46,89 191,170 34,174" id="1" fill="rgb(216,218,190)" fill-opacity="0.501961" />
<polygon points="206,138 190,93 131,119" id="2" fill="rgb(255,252,223)" fill-opacity="0.501961" />
<polygon points="58,18 0,71 0,13" id="3" fill="rgb(255,255,236)" fill-opacity="0.501961" />
<polygon points="148,48 135,0 177,3" id="4" fill="rgb(255,255,229)" fill-opacity="0.501961" />
<polygon points="0,88 107,0 256,104" id="5" fill="rgb(38,37,29)" fill-opacity="0.501961" />
<polygon points="69,110 87,142 207,0" id="6" fill="rgb(38,52,41)" fill-opacity="0.501961" />
<polygon points="205,98 48,153 234,121" id="7" fill="rgb(219,194,172)" fill-opacity="0.501961" />
<polygon points="255,0 256,49 221,31" id="8" fill="rgb(0,0,0)" fill-opacity="0.501961" />
<polygon points="1,14 0,0 149,0" id="9" fill="rgb(0,0,0)" fill-opacity="0.501961" />
<polygon points="164,174 159,121 256,174" id="10" fill="rgb(119,19,12)" fill-opacity="0.501961" />
<polygon points="0,44 51,155 0,174" id="11" fill="rgb(79,36,28)" fill-opacity="0.501961" />
</svg>