<?xml version="1.0" standalone="no"?>
<svg xmlns="http://www.w3.org/2000/svg" version="1.2" baseProfile="tiny" width="256" height="170" viewBox="0 0 256 170">
<rect x="0" y="0" width="256" height="170" id="0" fill="rgb(100,54,69)" fill-opacity="1" />
<polygon points="0,170 0,101 200,170" id="1" fill="rgb(165,255,255)" fill-opacity="0.501961" />
<polygon points="71,122 256,0 256,170" id="2" fill="rgb(55,0,0)" fill-opacity="0.501961" />
<polygon points="112,115 20,79 95,0" id="3" fill="rgb(226,174,152)" fill-opacity="0.501961" />
<polygon points="179,170 0,108 0,170" id="4" fill="rgb(157,233,255)" fill-opacity="0.501961" />
<polygon points="64,0 254,170 256,0" id="5" fill="rgb(85,0,0)" fill-opacity="0.501961" />
<polygon points="0,0 64,0 0,95" id="6" fill="rgb(55,0,0)" fill-opacity="0.501961" />
<polygon points="21,95 199,170 0,111" id="7" fill="rgb(13,59,173)" fill-opacity="0.501961" />
<polygon points="127,28 236,170 97,127" id="8" fill="rgb(78,0,0)" fill-opacity="0.501961" />
<polygon points="85,11 110,56 32,34" id="9" fill="rgb(212,174,152)" fill-opacity="0.501961" />
<polygon points="0,170 0,108 183,168" id="10" fill="rgb(143,193,255)" fill-opacity="0.501961" />
<polygon points="0,54 0,102 57,115" id="11" fill="rgb(11,0,0)" fill-opacity="0.501961" />
<polygon points="0,0 134,30 256,0" id="12" fill="rgb(80,0,0)" fill-opacity="0.501961" />
<polygon points="97,115 41,96 113,49" id="13" fill="rgb(188,136,134)" fill-opacity="0.501961" />
<polygon points="100,51 154,135 225,5" id="14" fill="rgb(123,3,8)" fill-opacity="0.501961" />
<polygon points="88,131 109,101 149,125" id="15" fill="rgb(0,0,12)" fill-opacity="0.501961" />
<polygon points="97,64 110,70 105,102" id="16" fill="rgb(255,237,239)" fill-opacity="0.501961" />
<polygon points="11,64 65,121 41,26" id="17" fill="rgb(112,71,56)" fill-opacity="0.501961" />
<polygon points="163,170 10,115 212,170" id="18" fill="rgb(76,117,220)" fill-opacity="0.501961" />
<polygon points="208,0 251,24 256,0" id="19" fill="rgb(0,5,54)" fill-opacity="0.501961" />
<polygon points="111,52 84,39 93,20" id="20" fill="rgb(229,200,197)" fill-opacity="0.501961" />
<polygon points="151,170 0,170 0,118" id="21" fill="rgb(166,213,255)" fill-opacity="0.501961" />
<polygon points="204,133 256,0 254,188" id="22" fill="rgb(63,0,0)" fill-opacity="0.501961" />
</svg>