<?xml version="1.0" standalone="no"?>
<svg xmlns="http://www.w3.org/2000/svg" version="1.2" baseProfile="tiny" width="256" height="166" viewBox="0 0 256 166">
<rect x="0" y="0" width="256" height="166" id="0" fill="rgb(106,97,89)" fill-opacity="1" />
<polygon points="164,117 0,22 189,13" id="1" fill="rgb(194,179,163)" fill-opacity="0.501961" />
<polygon points="166,119 232,166 240,55" id="2" fill="rgb(0,0,0)" fill-opacity="0.501961" />
<polygon points="36,33 0,20 25,75" id="3" fill="rgb(255,255,255)" fill-opacity="0.501961" />
<polygon points="58,153 31,48 174,151" id="4" fill="rgb(36,28,25)" fill-opacity="0.501961" />
<polygon points="0,140 100,47 0,77" id="5" fill="rgb(17,23,40)" fill-opacity="0.501961" />
<polygon points="197,68 256,6 194,0" id="6" fill="rgb(182,181,173)" fill-opacity="0.501961" />
<polygon points="38,34 66,24 28,86" id="7" fill="rgb(26,12,5)" fill-opacity="0.501961" />
<polygon points="66,121 93,127 53,137" id="8" fill="rgb(225,225,205)" fill-opacity="0.501961" />
<polygon points="161,146 187,53 256,158" id="9" fill="rgb(30,31,26)" fill-opacity="0.501961" />
<polygon points="119,18 178,126 142,131" id="10" fill="rgb(201,176,154)" fill-opacity="0.501961" />
<polygon points="148,53 83,85 86,61" id="11" fill="rgb(232,230,223)" fill-opacity="0.501961" />
<polygon points="51,29 102,59 129,0" id="12" fill="rgb(103,94,77)" fill-opacity="0.501961" />
<polygon points="96,85 30,86 83,96" id="13" fill="rgb(173,170,165)" fill-opacity="0.501961" />
<polygon points="30,55 20,34 42,32" id="14" fill="rgb(255,255,255)" fill-opacity="0.501961" />
<polygon points="101,119 76,136 160,153" id="15" fill="rgb(5,0,0)" fill-opacity="0.501961" />
<polygon points="40,42 75,62 8,159" id="16" fill="rgb(46,46,51)" fill-opacity="0.501961" />
</svg>