<?xml version="1.0" standalone="no"?>
<svg xmlns="http://www.w3.org/2000/svg" version="1.2" baseProfile="tiny" width="256" height="170" viewBox="0 0 256 170">
<rect x="0" y="0" width="256" height="170" id="0" fill="rgb(37,37,37)" fill-opacity="1" />
<polygon points="94,170 28,97 55,57" id="1" fill="rgb(132,121,111)" fill-opacity="0.501961" />
<polygon points="0,170 0,0 65,17" id="2" fill="rgb(0,0,0)" fill-opacity="0.501961" />
<polygon points="168,128 108,71 256,101" id="3" fill="rgb(82,79,81)" fill-opacity="0.501961" />
<polygon points="129,61 122,13 99,23" id="4" fill="rgb(102,111,134)" fill-opacity="0.501961" />
<polygon points="50,99 66,55 65,89" id="5" fill="rgb(0,0,0)" fill-opacity="0.501961" />
<polygon points="118,0 138,81 145,0" id="6" fill="rgb(0,0,4)" fill-opacity="0.501961" />
<polygon points="91,89 89,128 125,94" id="7" fill="rgb(0,0,0)" fill-opacity="0.501961" />
<polygon points="242,16 135,39 256,46" id="8" fill="rgb(61,60,66)" fill-opacity="0.501961" />
<polygon points="73,83 81,162 53,128" id="9" fill="rgb(111,105,98)" fill-opacity="0.501961" />
<polygon points="0,153 69,120 8,90" id="10" fill="rgb(21,20,18)" fill-opacity="0.501961" />
<polygon points="38,146 0,170 51,168" id="11" fill="rgb(0,0,0)" fill-opacity="0.501961" />
<polygon points="256,102 173,63 180,139" id="12" fill="rgb(59,58,61)" fill-opacity="0.501961" />
<polygon points="177,0 204,0 152,45" id="13" fill="rgb(8,2,0)" fill-opacity="0.501961" />
<polygon points="65,37 47,62 102,54" id="14" fill="rgb(81,72,65)" fill-opacity="0.501961" />
<polygon points="115,82 141,92 127,69" id="15" fill="rgb(134,109,107)" fill-opacity="0.501961" />
<polygon points="106,0 49,13 91,62" id="16" fill="rgb(16,16,17)" fill-opacity="0.501961" />
<polygon points="152,137 69,170 256,165" id="17" fill="rgb(23,23,23)" fill-opacity="0.501961" />
<polygon points="100,59 98,46 93,63" id="18" fill="rgb(145,118,119)" fill-opacity="0.501961" />
<polygon points="208,62 197,61 201,0" id="19" fill="rgb(9,4,0)" fill-opacity="0.501961" />
<polygon points="148,27 145,36 170,24" id="20" fill="rgb(102,97,101)" fill-opacity="0.501961" />
<polygon points="70,100 43,92 90,153" id="21" fill="rgb(116,109,103)" fill-opacity="0.501961" />
<polygon points="229,0 191,-28 247,4" id="22" fill="rgb(159,159,164)" fill-opacity="0.501961" />
<polygon points="148,63 164,66 96,8" id="23" fill="rgb(10,12,19)" fill-opacity="0.501961" />
<polygon points="0,121 0,14 55,39" id="24" fill="rgb(7,7,5)" fill-opacity="0.501961" />
<polygon points="122,55 117,109 91,18" id="25" fill="rgb(16,19,27)" fill-opacity="0.501961" />
<polygon points="117,0 80,0 108,18" id="26" fill="rgb(0,1,6)" fill-opacity="0.501961" />
<polygon points="75,50 70,84 67,72" id="27" fill="rgb(112,106,90)" fill-opacity="0.501961" />
<polygon points="165,34 193,40 194,23" id="28" fill="rgb(79,82,91)" fill-opacity="0.501961" />
<polygon points="121,102 172,46 167,83" id="29" fill="rgb(35,36,36)" fill-opacity="0.501961" />
<polygon points="39,78 53,97 63,38" id="30" fill="rgb(98,91,84)" fill-opacity="0.501961" />
</svg>