<?xml version="1.0" standalone="no"?>
<svg xmlns="http://www.w3.org/2000/svg" version="1.2" baseProfile="tiny" width="256" height="170" viewBox="0 0 256 170">
<rect x="0" y="0" width="256" height="170" id="0" fill="rgb(74,73,71)" fill-opacity="1" />
<polygon points="4,0 256,0 173,76" id="1" fill="rgb(240,244,248)" fill-opacity="0.501961" />
<polygon points="256,170 0,8 0,170" id="2" fill="rgb(0,0,0)" fill-opacity="0.501961" />
<polygon points="256,0 256,41 88,0" id="3" fill="rgb(224,228,233)" fill-opacity="0.501961" />
<polygon points="173,91 72,-17 38,106" id="4" fill="rgb(97,92,83)" fill-opacity="0.501961" />
<polygon points="256,170 0,168 256,64" id="5" fill="rgb(15,12,6)" fill-opacity="0.501961" />
<polygon points="61,70 239,0 246,76" id="6" fill="rgb(117,119,120)" fill-opacity="0.501961" />
<polygon points="154,37 202,0 105,0" id="7" fill="rgb(255,255,255)" fill-opacity="0.501961" />
<polygon points="82,10 84,33 0,31" id="8" fill="rgb(33,31,30)" fill-opacity="0.501961" />
<polygon points="63,12 61,-17 10,11" id="9" fill="rgb(229,245,255)" fill-opacity="0.501961" />
<polygon points="79,81 150,155 256,64" id="10" fill="rgb(53,51,47)" fill-opacity="0.501961" />
<polygon points="256,29 256,0 239,13" id="11" fill="rgb(255,255,255)" fill-opacity="0.501961" />
<polygon points="194,6 156,73 115,55" id="12" fill="rgb(178,178,174)" fill-opacity="0.501961" />
<polygon points="157,77 256,45 215,-12" id="13" fill="rgb(112,117,122)" fill-opacity="0.501961" />
<polygon points="65,102 112,0 71,0" id="14" fill="rgb(118,111,102)" fill-opacity="0.501961" />
<polygon points="131,146 0,102 0,167" id="15" fill="rgb(13,10,7)" fill-opacity="0.501961" />
<polygon points="256,112 94,170 256,170" id="16" fill="rgb(13,12,10)" fill-opacity="0.501961" />
</svg>