<?xml version="1.0" standalone="no"?>
<svg xmlns="http://www.w3.org/2000/svg" version="1.2" baseProfile="tiny" width="256" height="170" viewBox="0 0 256 170">
<rect x="0" y="0" width="256" height="170" id="0" fill="rgb(131,129,128)" fill-opacity="1" />
<polygon points="0,80 1,0 256,44" id="1" fill="rgb(255,255,255)" fill-opacity="0.501961" />
<polygon points="254,69 0,169 256,169" id="2" fill="rgb(17,7,0)" fill-opacity="0.501961" />
<polygon points="2,0 253,91 256,0" id="3" fill="rgb(238,246,253)" fill-opacity="0.501961" />
<polygon points="240,75 0,76 0,168" id="4" fill="rgb(46,40,31)" fill-opacity="0.501961" />
<polygon points="127,117 178,106 64,106" id="5" fill="rgb(220,218,219)" fill-opacity="0.501961" />
<polygon points="0,146 228,137 0,134" id="6" fill="rgb(183,178,177)" fill-opacity="0.501961" />
<polygon points="256,60 48,24 0,68" id="7" fill="rgb(241,244,249)" fill-opacity="0.501961" />
<polygon points="0,127 0,90 156,133" id="8" fill="rgb(21,19,17)" fill-opacity="0.501961" />
<polygon points="114,130 256,74 256,137" id="9" fill="rgb(32,31,29)" fill-opacity="0.501961" />
<polygon points="154,62 113,62 191,134" id="10" fill="rgb(54,56,57)" fill-opacity="0.501961" />
<polygon points="256,66 156,68 143,0" id="11" fill="rgb(229,231,234)" fill-opacity="0.501961" />
</svg>