<?xml version="1.0" standalone="no"?>
<svg xmlns="http://www.w3.org/2000/svg" version="1.2" baseProfile="tiny" width="256" height="170" viewBox="0 0 256 170">
<rect x="0" y="0" width="256" height="170" id="0" fill="rgb(117,118,121)" fill-opacity="1" />
<polygon points="6,49 58,141 0,159" id="1" fill="rgb(21,14,0)" fill-opacity="0.501961" />
<polygon points="142,170 11,170 161,85" id="2" fill="rgb(203,198,191)" fill-opacity="0.501961" />
<polygon points="256,56 256,158 161,128" id="3" fill="rgb(54,42,31)" fill-opacity="0.501961" />
<polygon points="197,0 27,0 160,170" id="4" fill="rgb(140,146,160)" fill-opacity="0.501961" />
<polygon points="256,117 229,103 218,116" id="5" fill="rgb(227,232,240)" fill-opacity="0.501961" />
<polygon points="80,132 0,116 0,162" id="6" fill="rgb(49,42,15)" fill-opacity="0.501961" />
<polygon points="136,84 256,93 256,0" id="7" fill="rgb(86,96,115)" fill-opacity="0.501961" />
<polygon points="60,128 7,0 0,118" id="8" fill="rgb(84,85,86)" fill-opacity="0.501961" />
<polygon points="130,116 123,78 126,0" id="9" fill="rgb(235,221,202)" fill-opacity="0.501961" />
<polygon points="50,36 58,50 51,75" id="10" fill="rgb(255,246,225)" fill-opacity="0.501961" />
<polygon points="256,158 209,101 157,117" id="11" fill="rgb(61,46,31)" fill-opacity="0.501961" />
<polygon points="76,114 103,162 148,112" id="12" fill="rgb(194,188,181)" fill-opacity="0.501961" />
<polygon points="0,96 5,30 0,0" id="13" fill="rgb(226,214,196)" fill-opacity="0.501961" />
<polygon points="231,124 220,101 256,100" id="14" fill="rgb(165,167,170)" fill-opacity="0.501961" />
<polygon points="47,118 59,62 26,117" id="15" fill="rgb(156,149,137)" fill-opacity="0.501961" />
<polygon points="133,23 127,107 139,106" id="16" fill="rgb(88,81,70)" fill-opacity="0.501961" />
<polygon points="19,13 178,13 133,32" id="17" fill="rgb(152,160,178)" fill-opacity="0.501961" />
<polygon points="9,79 5,0 11,0" id="18" fill="rgb(32,30,28)" fill-opacity="0.501961" />
<polygon points="110,170 200,170 153,105" id="19" fill="rgb(145,140,131)" fill-opacity="0.501961" />
<polygon points="218,0 175,123 136,41" id="20" fill="rgb(120,126,139)" fill-opacity="0.501961" />
</svg>