<?xml version="1.0" standalone="no"?>
<svg xmlns="http://www.w3.org/2000/svg" version="1.2" baseProfile="tiny" width="256" height="170" viewBox="0 0 256 170">
<rect x="0" y="0" width="256" height="170" id="0" fill="rgb(95,66,52)" fill-opacity="1" />
<polygon points="107,0 59,106 240,83" id="1" fill="rgb(206,181,150)" fill-opacity="0.501961" />
<polygon points="178,170 225,170 198,0" id="2" fill="rgb(255,81,90)" fill-opacity="0.501961" />
<polygon points="114,0 0,0 0,170" id="3" fill="rgb(0,3,0)" fill-opacity="0.501961" />
<polygon points="163,81 215,102 188,0" id="4" fill="rgb(255,115,108)" fill-opacity="0.501961" />
<polygon points="122,56 187,163 64,170" id="5" fill="rgb(25,41,33)" fill-opacity="0.501961" />
<polygon points="217,115 255,0 256,138" id="6" fill="rgb(0,0,0)" fill-opacity="0.501961" />
<polygon points="65,98 112,125 69,26" id="7" fill="rgb(215,194,162)" fill-opacity="0.501961" />
<polygon points="128,19 159,14 135,75" id="8" fill="rgb(255,255,209)" fill-opacity="0.501961" />
<polygon points="146,0 167,71 183,0" id="9" fill="rgb(11,0,0)" fill-opacity="0.501961" />
<polygon points="0,130 20,0 101,170" id="10" fill="rgb(12,14,12)" fill-opacity="0.501961" />
<polygon points="149,134 170,79 208,115" id="11" fill="rgb(0,11,28)" fill-opacity="0.501961" />
<polygon points="132,0 113,0 120,60" id="12" fill="rgb(5,0,0)" fill-opacity="0.501961" />
<polygon points="199,0 212,168 179,2" id="13" fill="rgb(255,133,110)" fill-opacity="0.501961" />
<polygon points="0,157 43,162 46,145" id="14" fill="rgb(255,205,126)" fill-opacity="0.501961" />
<polygon points="96,0 112,0 89,118" id="15" fill="rgb(131,207,191)" fill-opacity="0.501961" />
<polygon points="85,56 55,97 85,17" id="16" fill="rgb(20,3,0)" fill-opacity="0.501961" />
<polygon points="220,126 178,121 184,193" id="17" fill="rgb(255,61,60)" fill-opacity="0.501961" />
<polygon points="157,110 167,83 156,61" id="18" fill="rgb(249,255,255)" fill-opacity="0.501961" />
<polygon points="202,0 239,132 218,120" id="19" fill="rgb(43,19,0)" fill-opacity="0.501961" />
<polygon points="256,0 240,0 241,108" id="20" fill="rgb(1,4,1)" fill-opacity="0.501961" />
<polygon points="129,60 126,15 157,52" id="21" fill="rgb(255,247,190)" fill-opacity="0.501961" />
<polygon points="141,170 139,105 126,167" id="22" fill="rgb(194,119,59)" fill-opacity="0.501961" />
</svg>