<?xml version="1.0" standalone="no"?>
<svg xmlns="http://www.w3.org/2000/svg" version="1.2" baseProfile="tiny" width="256" height="170" viewBox="0 0 256 170">
<rect x="0" y="0" width="256" height="170" id="0" fill="rgb(69,68,66)" fill-opacity="1" />
<polygon points="134,0 31,116 131,73" id="1" fill="rgb(247,247,248)" fill-opacity="0.501961" />
<polygon points="152,0 210,144 192,0" id="2" fill="rgb(231,228,224)" fill-opacity="0.501961" />
<polygon points="256,0 256,67 203,0" id="3" fill="rgb(208,211,224)" fill-opacity="0.501961" />
<polygon points="117,0 0,0 0,170" id="4" fill="rgb(3,0,0)" fill-opacity="0.501961" />
<polygon points="114,72 256,160 95,170" id="5" fill="rgb(3,3,0)" fill-opacity="0.501961" />
<polygon points="64,41 34,135 61,148" id="6" fill="rgb(219,208,192)" fill-opacity="0.501961" />
<polygon points="136,143 131,28 120,39" id="7" fill="rgb(255,254,248)" fill-opacity="0.501961" />
<polygon points="256,70 181,13 254,170" id="8" fill="rgb(0,4,10)" fill-opacity="0.501961" />
<polygon points="92,136 98,76 101,146" id="9" fill="rgb(255,255,252)" fill-opacity="0.501961" />
<polygon points="159,1 225,125 191,112" id="10" fill="rgb(208,203,193)" fill-opacity="0.501961" />
<polygon points="138,79 155,0 193,120" id="11" fill="rgb(9,12,19)" fill-opacity="0.501961" />
<polygon points="62,131 74,71 47,115" id="12" fill="rgb(240,233,222)" fill-opacity="0.501961" />
<polygon points="52,60 97,75 91,146" id="13" fill="rgb(76,77,80)" fill-opacity="0.501961" />
<polygon points="256,150 0,146 1,170" id="14" fill="rgb(8,9,3)" fill-opacity="0.501961" />
<polygon points="256,156 215,108 229,178" id="15" fill="rgb(1,3,0)" fill-opacity="0.501961" />
<polygon points="56,80 39,112 77,0" id="16" fill="rgb(197,181,162)" fill-opacity="0.501961" />
<polygon points="49,102 17,170 0,0" id="17" fill="rgb(14,12,8)" fill-opacity="0.501961" />
<polygon points="256,168 134,165 138,170" id="18" fill="rgb(187,174,136)" fill-opacity="0.501961" />
<polygon points="237,0 152,0 170,22" id="19" fill="rgb(159,159,164)" fill-opacity="0.501961" />
<polygon points="143,0 79,51 101,91" id="20" fill="rgb(185,184,183)" fill-opacity="0.501961" />
<polygon points="101,89 133,169 105,170" id="21" fill="rgb(0,0,0)" fill-opacity="0.501961" />
</svg>