<?xml version="1.0" standalone="no"?>
<svg xmlns="http://www.w3.org/2000/svg" version="1.2" baseProfile="tiny" width="256" height="170" viewBox="0 0 256 170">
<rect x="0" y="0" width="256" height="170" id="0" fill="rgb(129,137,105)" fill-opacity="1" />
<polygon points="15,149 166,57 75,10" id="1" fill="rgb(255,245,238)" fill-opacity="0.501961" />
<polygon points="226,0 256,170 179,143" id="2" fill="rgb(0,22,10)" fill-opacity="0.501961" />
<polygon points="162,119 215,170 89,170" id="3" fill="rgb(255,255,255)" fill-opacity="0.501961" />
<polygon points="255,0 255,170 137,17" id="4" fill="rgb(62,69,54)" fill-opacity="0.501961" />
<polygon points="0,57 0,111 69,99" id="5" fill="rgb(65,61,0)" fill-opacity="0.501961" />
<polygon points="0,32 71,119 152,0" id="6" fill="rgb(221,194,181)" fill-opacity="0.501961" />
<polygon points="0,112 78,116 0,156" id="7" fill="rgb(255,252,221)" fill-opacity="0.501961" />
<polygon points="147,109 277,132 224,170" id="8" fill="rgb(0,10,0)" fill-opacity="0.501961" />
<polygon points="0,8 103,10 0,25" id="9" fill="rgb(0,15,0)" fill-opacity="0.501961" />
<polygon points="223,110 131,97 256,129" id="10" fill="rgb(232,223,207)" fill-opacity="0.501961" />
<polygon points="75,124 95,170 -14,159" id="11" fill="rgb(53,127,0)" fill-opacity="0.501961" />
<polygon points="68,72 59,66 59,113" id="12" fill="rgb(0,0,0)" fill-opacity="0.501961" />
<polygon points="169,94 244,0 137,77" id="13" fill="rgb(19,69,0)" fill-opacity="0.501961" />
<polygon points="256,103 248,61 82,23" id="14" fill="rgb(149,148,126)" fill-opacity="0.501961" />
<polygon points="77,142 127,109 163,158" id="15" fill="rgb(213,238,173)" fill-opacity="0.501961" />
<polygon points="216,79 185,74 87,170" id="16" fill="rgb(55,122,14)" fill-opacity="0.501961" />
<polygon points="200,120 256,137 252,196" id="17" fill="rgb(0,1,0)" fill-opacity="0.501961" />
</svg>