<?xml version="1.0" standalone="no"?>
<svg xmlns="http://www.w3.org/2000/svg" version="1.2" baseProfile="tiny" width="256" height="170" viewBox="0 0 256 170">
<rect x="0" y="0" width="256" height="170" id="0" fill="rgb(69,58,61)" fill-opacity="1" />
<polygon points="185,125 138,0 222,33" id="1" fill="rgb(255,215,218)" fill-opacity="0.501961" />
<polygon points="100,161 22,54 118,0" id="2" fill="rgb(203,183,174)" fill-opacity="0.501961" />
<polygon points="156,69 256,169 83,170" id="3" fill="rgb(0,0,0)" fill-opacity="0.501961" />
<polygon points="0,170 0,0 86,170" id="4" fill="rgb(0,0,0)" fill-opacity="0.501961" />
<polygon points="239,163 203,0 254,0" id="5" fill="rgb(0,0,0)" fill-opacity="0.501961" />
<polygon points="59,0 28,84 79,92" id="6" fill="rgb(243,164,153)" fill-opacity="0.501961" />
<polygon points="45,0 0,0 0,157" id="7" fill="rgb(0,0,0)" fill-opacity="0.501961" />
<polygon points="180,170 117,170 119,0" id="8" fill="rgb(0,0,0)" fill-opacity="0.501961" />
<polygon points="207,0 133,97 136,0" id="9" fill="rgb(157,153,144)" fill-opacity="0.501961" />
<polygon points="114,0 52,0 28,74" id="10" fill="rgb(134,139,129)" fill-opacity="0.501961" />
<polygon points="155,28 199,99 205,12" id="11" fill="rgb(255,177,172)" fill-opacity="0.501961" />
<polygon points="215,57 187,84 182,123" id="12" fill="rgb(190,213,255)" fill-opacity="0.501961" />
<polygon points="256,170 190,113 243,0" id="13" fill="rgb(18,8,29)" fill-opacity="0.501961" />
<polygon points="61,112 117,0 114,132" id="14" fill="rgb(96,116,115)" fill-opacity="0.501961" />
<polygon points="191,80 75,170 150,170" id="15" fill="rgb(0,0,0)" fill-opacity="0.501961" />
<polygon points="251,0 197,0 230,84" id="16" fill="rgb(1,0,0)" fill-opacity="0.501961" />
<polygon points="0,0 45,0 0,136" id="17" fill="rgb(0,0,0)" fill-opacity="0.501961" />
<polygon points="133,0 133,111 174,0" id="18" fill="rgb(100,108,105)" fill-opacity="0.501961" />
<polygon points="126,170 117,0 134,0" id="19" fill="rgb(0,0,0)" fill-opacity="0.501961" />
<polygon points="83,74 62,32 28,83" id="20" fill="rgb(240,161,152)" fill-opacity="0.501961" />
<polygon points="42,1 118,0 49,55" id="21" fill="rgb(110,113,107)" fill-opacity="0.501961" />
<polygon points="189,89 181,141 193,104" id="22" fill="rgb(135,137,245)" fill-opacity="0.501961" />
<polygon points="61,105 33,77 59,92" id="23" fill="rgb(243,237,255)" fill-opacity="0.501961" />
<polygon points="118,112 88,165 57,83" id="24" fill="rgb(100,111,114)" fill-opacity="0.501961" />
<polygon points="66,110 88,170 2,56" id="25" fill="rgb(8,6,23)" fill-opacity="0.501961" />
<polygon points="187,81 155,61 171,96" id="26" fill="rgb(112,113,107)" fill-opacity="0.501961" />
<polygon points="241,0 256,0 256,136" id="27" fill="rgb(83,24,0)" fill-opacity="0.501961" />
<polygon points="201,20 214,61 196,92" id="28" fill="rgb(248,209,205)" fill-opacity="0.501961" />
<polygon points="241,170 256,96 214,58" id="29" fill="rgb(53,42,66)" fill-opacity="0.501961" />
<polygon points="130,133 135,145 142,127" id="30" fill="rgb(134,140,147)" fill-opacity="0.501961" />
<polygon points="215,45 156,57 189,83" id="31" fill="rgb(242,132,114)" fill-opacity="0.501961" />
<polygon points="139,156 175,101 146,71" id="32" fill="rgb(0,0,0)" fill-opacity="0.501961" />
</svg>