<?xml version="1.0" standalone="no"?>
<svg xmlns="http://www.w3.org/2000/svg" version="1.2" baseProfile="tiny" width="256" height="170" viewBox="0 0 256 170">
<rect x="0" y="0" width="256" height="170" id="0" fill="rgb(109,100,88)" fill-opacity="1" />
<polygon points="3,156 231,170 0,170" id="1" fill="rgb(255,251,245)" fill-opacity="0.501961" />
<polygon points="73,0 -4,-1 0,156" id="2" fill="rgb(29,30,41)" fill-opacity="0.501961" />
<polygon points="131,99 223,139 115,155" id="3" fill="rgb(189,181,181)" fill-opacity="0.501961" />
<polygon points="256,170 219,170 256,0" id="4" fill="rgb(57,60,0)" fill-opacity="0.501961" />
<polygon points="234,124 256,47 170,32" id="5" fill="rgb(143,116,38)" fill-opacity="0.501961" />
<polygon points="256,22 244,47 219,25" id="6" fill="rgb(8,4,0)" fill-opacity="0.501961" />
<polygon points="127,138 0,138 24,154" id="7" fill="rgb(192,179,179)" fill-opacity="0.501961" />
<polygon points="145,66 159,147 69,0" id="8" fill="rgb(141,135,133)" fill-opacity="0.501961" />
<polygon points="215,0 213,130 223,139" id="9" fill="rgb(191,171,139)" fill-opacity="0.501961" />
<polygon points="70,87 68,24 0,86" id="10" fill="rgb(59,57,55)" fill-opacity="0.501961" />
<polygon points="185,45 186,2 118,2" id="11" fill="rgb(147,139,133)" fill-opacity="0.501961" />
<polygon points="30,0 0,72 0,0" id="12" fill="rgb(11,14,19)" fill-opacity="0.501961" />
<polygon points="25,148 44,3 0,97" id="13" fill="rgb(102,94,92)" fill-opacity="0.501961" />
<polygon points="107,100 176,113 102,114" id="14" fill="rgb(65,60,69)" fill-opacity="0.501961" />
<polygon points="208,18 222,41 219,0" id="15" fill="rgb(197,183,166)" fill-opacity="0.501961" />
<polygon points="224,108 256,170 256,105" id="16" fill="rgb(39,45,0)" fill-opacity="0.501961" />
<polygon points="130,126 10,124 74,115" id="17" fill="rgb(158,146,148)" fill-opacity="0.501961" />
<polygon points="109,148 63,158 38,152" id="18" fill="rgb(35,20,26)" fill-opacity="0.501961" />
<polygon points="97,0 1,25 95,32" id="19" fill="rgb(118,116,116)" fill-opacity="0.501961" />
<polygon points="210,132 173,146 120,137" id="20" fill="rgb(213,202,192)" fill-opacity="0.501961" />
<polygon points="84,66 91,28 77,32" id="21" fill="rgb(22,27,43)" fill-opacity="0.501961" />
<polygon points="163,89 193,92 180,54" id="22" fill="rgb(56,54,47)" fill-opacity="0.501961" />
<polygon points="130,106 144,97 224,98" id="23" fill="rgb(176,170,172)" fill-opacity="0.501961" />
<polygon points="37,44 66,0 46,71" id="24" fill="rgb(21,26,36)" fill-opacity="0.501961" />
<polygon points="217,74 256,81 222,170" id="25" fill="rgb(108,102,44)" fill-opacity="0.501961" />
<polygon points="103,138 134,142 86,159" id="26" fill="rgb(73,63,64)" fill-opacity="0.501961" />
<polygon points="224,16 205,12 256,13" id="27" fill="rgb(226,209,192)" fill-opacity="0.501961" />
<polygon points="196,164 232,170 196,94" id="28" fill="rgb(100,87,79)" fill-opacity="0.501961" />
<polygon points="50,134 0,116 0,138" id="29" fill="rgb(55,49,49)" fill-opacity="0.501961" />
<polygon points="231,118 170,118 165,122" id="30" fill="rgb(186,173,169)" fill-opacity="0.501961" />
<polygon points="10,87 5,26 30,77" id="31" fill="rgb(31,30,32)" fill-opacity="0.501961" />
<polygon points="78,56 128,92 106,139" id="32" fill="rgb(84,69,71)" fill-opacity="0.501961" />
<polygon points="171,165 101,170 218,168" id="33" fill="rgb(225,215,209)" fill-opacity="0.501961" />
<polygon points="66,146 84,146 81,71" id="34" fill="rgb(153,144,141)" fill-opacity="0.501961" />
<polygon points="30,104 61,89 -19,98" id="35" fill="rgb(135,126,128)" fill-opacity="0.501961" />
<polygon points="80,18 72,-5 70,100" id="36" fill="rgb(156,150,144)" fill-opacity="0.501961" />
<polygon points="43,13 31,87 29,0" id="37" fill="rgb(117,111,105)" fill-opacity="0.501961" />
<polygon points="222,36 234,164 239,36" id="38" fill="rgb(102,88,39)" fill-opacity="0.501961" />
<polygon points="157,163 61,158 57,170" id="39" fill="rgb(162,144,136)" fill-opacity="0.501961" />
<polygon points="69,73 51,8 68,35" id="40" fill="rgb(33,36,47)" fill-opacity="0.501961" />
<polygon points="0,156 49,148 -16,155" id="41" fill="rgb(221,215,212)" fill-opacity="0.501961" />
<polygon points="97,24 97,0 74,32" id="42" fill="rgb(159,152,146)" fill-opacity="0.501961" />
<polygon points="52,62 61,30 62,130" id="43" fill="rgb(114,104,97)" fill-opacity="0.501961" />
<polygon points="44,97 55,109 0,110" id="44" fill="rgb(49,48,54)" fill-opacity="0.501961" />
<polygon points="216,144 208,160 184,157" id="45" fill="rgb(49,43,41)" fill-opacity="0.501961" />
<polygon points="222,17 212,0 221,0" id="46" fill="rgb(195,185,175)" fill-opacity="0.501961" />
<polygon points="101,43 161,24 155,55" id="47" fill="rgb(86,81,81)" fill-opacity="0.501961" />
<polygon points="204,45 181,28 178,58" id="48" fill="rgb(168,141,78)" fill-opacity="0.501961" />
<polygon points="229,170 256,106 256,170" id="49" fill="rgb(51,48,1)" fill-opacity="0.501961" />
<polygon points="13,114 49,111 0,113" id="50" fill="rgb(197,185,180)" fill-opacity="0.501961" />
<polygon points="45,11 57,4 24,-19" id="51" fill="rgb(5,8,16)" fill-opacity="0.501961" />
<polygon points="126,146 156,142 99,143" id="52" fill="rgb(70,65,60)" fill-opacity="0.501961" />
<polygon points="0,151 0,170 6,170" id="53" fill="rgb(196,178,166)" fill-opacity="0.501961" />
<polygon points="153,94 24,60 66,93" id="54" fill="rgb(89,83,70)" fill-opacity="0.501961" />
<polygon points="3,92 63,79 0,58" id="55" fill="rgb(70,64,57)" fill-opacity="0.501961" />
<polygon points="110,61 129,95 158,54" id="56" fill="rgb(148,135,116)" fill-opacity="0.501961" />
<polygon points="225,146 225,117 177,147" id="57" fill="rgb(149,139,123)" fill-opacity="0.501961" />
<polygon points="47,146 0,154 0,146" id="58" fill="rgb(93,84,80)" fill-opacity="0.501961" />
<polygon points="223,159 229,170 152,165" id="59" fill="rgb(133,123,111)" fill-opacity="0.501961" />
<polygon points="91,142 82,62 91,20" id="60" fill="rgb(87,75,72)" fill-opacity="0.501961" />
<polygon points="66,121 124,121 5,116" id="61" fill="rgb(94,84,82)" fill-opacity="0.501961" />
<polygon points="218,21 200,16 246,19" id="62" fill="rgb(71,61,51)" fill-opacity="0.501961" />
<polygon points="87,161 88,156 159,148" id="63" fill="rgb(89,76,74)" fill-opacity="0.501961" />
<polygon points="25,5 28,43 0,16" id="64" fill="rgb(56,52,52)" fill-opacity="0.501961" />
<polygon points="242,20 255,58 256,15" id="65" fill="rgb(63,52,27)" fill-opacity="0.501961" />
<polygon points="0,144 113,133 66,146" id="66" fill="rgb(173,159,153)" fill-opacity="0.501961" />
<polygon points="134,0 97,0 108,51" id="67" fill="rgb(88,90,96)" fill-opacity="0.501961" />
</svg>