<?xml version="1.0" standalone="no"?>
<svg xmlns="http://www.w3.org/2000/svg" version="1.2" baseProfile="tiny" width="256" height="170" viewBox="0 0 256 170">
<rect x="0" y="0" width="256" height="170" id="0" fill="rgb(106,112,144)" fill-opacity="1" />
<polygon points="144,138 0,127 92,93" id="1" fill="rgb(23,31,44)" fill-opacity="0.501961" />
<polygon points="256,135 62,0 256,0" id="2" fill="rgb(151,171,218)" fill-opacity="0.501961" />
<polygon points="121,118 250,121 256,168" id="3" fill="rgb(105,62,28)" fill-opacity="0.501961" />
<polygon points="207,87 108,122 0,0" id="4" fill="rgb(44,72,148)" fill-opacity="0.501961" />
<polygon points="188,116 94,149 172,170" id="5" fill="rgb(219,175,133)" fill-opacity="0.501961" />
<polygon points="83,143 145,170 64,170" id="6" fill="rgb(75,37,0)" fill-opacity="0.501961" />
<polygon points="185,170 181,109 214,169" id="7" fill="rgb(26,10,0)" fill-opacity="0.501961" />
<polygon points="219,164 181,95 243,96" id="8" fill="rgb(199,175,148)" fill-opacity="0.501961" />
<polygon points="90,170 20,170 31,127" id="9" fill="rgb(199,166,120)" fill-opacity="0.501961" />
<polygon points="214,170 240,124 256,155" id="10" fill="rgb(25,27,29)" fill-opacity="0.501961" />
<polygon points="177,0 186,99 34,0" id="11" fill="rgb(103,122,181)" fill-opacity="0.501961" />
<polygon points="232,158 222,125 196,161" id="12" fill="rgb(176,142,127)" fill-opacity="0.501961" />
<polygon points="106,11 0,165 0,23" id="13" fill="rgb(60,81,140)" fill-opacity="0.501961" />
<polygon points="256,21 188,10 218,72" id="14" fill="rgb(169,186,217)" fill-opacity="0.501961" />
<polygon points="80,170 133,170 148,147" id="15" fill="rgb(36,22,19)" fill-opacity="0.501961" />
<polygon points="159,98 219,135 150,123" id="16" fill="rgb(107,60,56)" fill-opacity="0.501961" />
<polygon points="53,170 88,136 40,142" id="17" fill="rgb(209,173,136)" fill-opacity="0.501961" />
<polygon points="115,134 113,170 96,155" id="18" fill="rgb(218,192,176)" fill-opacity="0.501961" />
<polygon points="141,0 0,0 0,18" id="19" fill="rgb(137,150,195)" fill-opacity="0.501961" />
<polygon points="182,169 141,134 141,170" id="20" fill="rgb(221,184,156)" fill-opacity="0.501961" />
<polygon points="113,95 0,115 0,48" id="21" fill="rgb(97,117,174)" fill-opacity="0.501961" />
<polygon points="27,120 0,170 0,109" id="22" fill="rgb(69,69,59)" fill-opacity="0.501961" />
<polygon points="222,115 194,137 245,122" id="23" fill="rgb(84,62,67)" fill-opacity="0.501961" />
<polygon points="25,131 0,137 79,144" id="24" fill="rgb(170,179,179)" fill-opacity="0.501961" />
<polygon points="54,127 64,139 61,158" id="25" fill="rgb(20,13,16)" fill-opacity="0.501961" />
<polygon points="209,96 198,89 169,139" id="26" fill="rgb(210,190,169)" fill-opacity="0.501961" />
<polygon points="233,170 256,163 234,162" id="27" fill="rgb(255,254,220)" fill-opacity="0.501961" />
<polygon points="74,109 135,119 138,141" id="28" fill="rgb(45,48,63)" fill-opacity="0.501961" />
<polygon points="222,121 256,138 252,170" id="29" fill="rgb(35,38,47)" fill-opacity="0.501961" />
<polygon points="256,34 175,63 256,62" id="30" fill="rgb(168,176,202)" fill-opacity="0.501961" />
<polygon points="256,87 256,134 215,101" id="31" fill="rgb(188,174,147)" fill-opacity="0.501961" />
<polygon points="232,157 181,170 230,169" id="32" fill="rgb(51,34,23)" fill-opacity="0.501961" />
<polygon points="208,106 199,120 186,104" id="33" fill="rgb(226,231,230)" fill-opacity="0.501961" />
<polygon points="200,107 254,78 217,64" id="34" fill="rgb(92,106,153)" fill-opacity="0.501961" />
<polygon points="256,15 115,22 108,14" id="35" fill="rgb(160,174,207)" fill-opacity="0.501961" />
<polygon points="201,123 193,170 191,119" id="36" fill="rgb(0,4,16)" fill-opacity="0.501961" />
<polygon points="92,138 82,170 104,170" id="37" fill="rgb(28,24,28)" fill-opacity="0.501961" />
<polygon points="97,91 147,120 100,113" id="38" fill="rgb(112,119,148)" fill-opacity="0.501961" />
<polygon points="221,142 197,176 213,95" id="39" fill="rgb(146,121,113)" fill-opacity="0.501961" />
<polygon points="43,157 89,150 28,170" id="40" fill="rgb(148,91,56)" fill-opacity="0.501961" />
<polygon points="37,6 142,68 140,130" id="41" fill="rgb(55,75,136)" fill-opacity="0.501961" />
<polygon points="136,127 179,106 184,169" id="42" fill="rgb(178,126,104)" fill-opacity="0.501961" />
<polygon points="201,170 201,119 182,170" id="43" fill="rgb(37,35,40)" fill-opacity="0.501961" />
<polygon points="249,137 242,97 256,79" id="44" fill="rgb(120,116,122)" fill-opacity="0.501961" />
<polygon points="141,168 135,148 113,170" id="45" fill="rgb(25,28,34)" fill-opacity="0.501961" />
<polygon points="116,94 188,87 185,110" id="46" fill="rgb(54,79,146)" fill-opacity="0.501961" />
<polygon points="139,136 118,146 143,100" id="47" fill="rgb(72,77,93)" fill-opacity="0.501961" />
<polygon points="182,125 182,151 180,169" id="48" fill="rgb(255,202,153)" fill-opacity="0.501961" />
<polygon points="145,143 111,134 94,159" id="49" fill="rgb(167,177,184)" fill-opacity="0.501961" />
<polygon points="121,4 175,11 231,0" id="50" fill="rgb(88,103,160)" fill-opacity="0.501961" />
<polygon points="72,133 68,151 82,132" id="51" fill="rgb(206,206,202)" fill-opacity="0.501961" />
<polygon points="194,111 188,118 194,138" id="52" fill="rgb(19,6,10)" fill-opacity="0.501961" />
<polygon points="0,115 81,100 35,126" id="53" fill="rgb(89,96,119)" fill-opacity="0.501961" />
<polygon points="172,168 177,122 180,170" id="54" fill="rgb(113,91,79)" fill-opacity="0.501961" />
<polygon points="211,118 219,116 230,145" id="55" fill="rgb(103,69,71)" fill-opacity="0.501961" />
<polygon points="98,104 109,130 0,132" id="56" fill="rgb(48,56,72)" fill-opacity="0.501961" />
<polygon points="140,109 146,169 150,96" id="57" fill="rgb(140,125,122)" fill-opacity="0.501961" />
<polygon points="217,98 235,121 244,98" id="58" fill="rgb(200,204,212)" fill-opacity="0.501961" />
<polygon points="151,131 154,170 148,170" id="59" fill="rgb(227,220,216)" fill-opacity="0.501961" />
<polygon points="8,170 0,140 32,140" id="60" fill="rgb(86,97,95)" fill-opacity="0.501961" />
<polygon points="40,170 38,139 37,145" id="61" fill="rgb(6,16,30)" fill-opacity="0.501961" />
<polygon points="174,131 149,140 173,170" id="62" fill="rgb(187,172,162)" fill-opacity="0.501961" />
<polygon points="55,149 40,157 41,138" id="63" fill="rgb(231,225,214)" fill-opacity="0.501961" />
<polygon points="256,89 111,30 156,78" id="64" fill="rgb(114,130,181)" fill-opacity="0.501961" />
<polygon points="249,138 247,170 256,167" id="65" fill="rgb(72,74,78)" fill-opacity="0.501961" />
<polygon points="43,170 27,170 22,128" id="66" fill="rgb(131,148,163)" fill-opacity="0.501961" />
<polygon points="130,92 0,21 81,16" id="67" fill="rgb(60,77,135)" fill-opacity="0.501961" />
<polygon points="204,15 154,25 256,28" id="68" fill="rgb(166,188,221)" fill-opacity="0.501961" />
<polygon points="202,128 240,170 202,147" id="69" fill="rgb(181,153,140)" fill-opacity="0.501961" />
<polygon points="113,143 71,164 110,141" id="70" fill="rgb(87,113,118)" fill-opacity="0.501961" />
<polygon points="38,124 0,121 0,134" id="71" fill="rgb(24,28,51)" fill-opacity="0.501961" />
<polygon points="244,165 246,170 229,170" id="72" fill="rgb(255,246,219)" fill-opacity="0.501961" />
<polygon points="115,135 113,137 56,136" id="73" fill="rgb(176,193,216)" fill-opacity="0.501961" />
<polygon points="78,63 73,119 11,35" id="74" fill="rgb(84,102,159)" fill-opacity="0.501961" />
<polygon points="88,19 254,0 85,7" id="75" fill="rgb(97,113,166)" fill-opacity="0.501961" />
<polygon points="215,84 199,102 218,118" id="76" fill="rgb(143,136,127)" fill-opacity="0.501961" />
<polygon points="256,34 130,27 159,42" id="77" fill="rgb(106,124,177)" fill-opacity="0.501961" />
<polygon points="36,130 48,139 -6,138" id="78" fill="rgb(168,171,175)" fill-opacity="0.501961" />
<polygon points="94,137 96,170 84,143" id="79" fill="rgb(39,38,44)" fill-opacity="0.501961" />
<polygon points="256,151 231,162 232,120" id="80" fill="rgb(36,36,45)" fill-opacity="0.501961" />
<polygon points="244,64 256,91 185,67" id="81" fill="rgb(100,123,182)" fill-opacity="0.501961" />
<polygon points="166,126 173,124 173,115" id="82" fill="rgb(33,15,17)" fill-opacity="0.501961" />
<polygon points="192,110 209,123 186,95" id="83" fill="rgb(222,222,220)" fill-opacity="0.501961" />
<polygon points="123,144 112,133 142,113" id="84" fill="rgb(89,87,100)" fill-opacity="0.501961" />
<polygon points="204,89 113,83 163,109" id="85" fill="rgb(71,92,150)" fill-opacity="0.501961" />
<polygon points="81,149 76,136 67,142" id="86" fill="rgb(229,205,182)" fill-opacity="0.501961" />
<polygon points="69,108 89,130 45,137" id="87" fill="rgb(53,60,75)" fill-opacity="0.501961" />
<polygon points="0,119 89,127 78,107" id="88" fill="rgb(79,84,103)" fill-opacity="0.501961" />
<polygon points="2,88 74,105 -3,105" id="89" fill="rgb(107,124,172)" fill-opacity="0.501961" />
<polygon points="256,52 174,57 144,45" id="90" fill="rgb(114,132,184)" fill-opacity="0.501961" />
</svg>