<?xml version="1.0" standalone="no"?>
<svg xmlns="http://www.w3.org/2000/svg" version="1.2" baseProfile="tiny" width="256" height="170" viewBox="0 0 256 170">
<rect x="0" y="0" width="256" height="170" id="0" fill="rgb(106,108,108)" fill-opacity="1" />
<polygon points="154,102 49,0 254,0" id="1" fill="rgb(208,211,219)" fill-opacity="0.501961" />
<polygon points="0,170 94,120 0,0" id="2" fill="rgb(40,29,14)" fill-opacity="0.501961" />
<polygon points="168,73 229,0 166,0" id="3" fill="rgb(255,255,255)" fill-opacity="0.501961" />
<polygon points="217,110 256,170 47,124" id="4" fill="rgb(47,52,52)" fill-opacity="0.501961" />
<polygon points="71,134 95,0 190,76" id="5" fill="rgb(125,127,128)" fill-opacity="0.501961" />
<polygon points="67,0 63,128 2,0" id="6" fill="rgb(39,48,66)" fill-opacity="0.501961" />
<polygon points="35,132 108,170 0,169" id="7" fill="rgb(48,54,17)" fill-opacity="0.501961" />
<polygon points="166,0 87,0 164,160" id="8" fill="rgb(119,125,128)" fill-opacity="0.501961" />
<polygon points="68,0 68,46 93,0" id="9" fill="rgb(255,255,255)" fill-opacity="0.501961" />
<polygon points="256,50 187,46 191,0" id="10" fill="rgb(161,158,171)" fill-opacity="0.501961" />
<polygon points="52,128 0,137 118,90" id="11" fill="rgb(203,112,134)" fill-opacity="0.501961" />
<polygon points="219,0 207,43 224,42" id="12" fill="rgb(255,255,255)" fill-opacity="0.501961" />
<polygon points="178,112 88,0 85,109" id="13" fill="rgb(143,149,149)" fill-opacity="0.501961" />
<polygon points="256,60 162,69 186,165" id="14" fill="rgb(84,75,73)" fill-opacity="0.501961" />
<polygon points="192,0 164,0 175,63" id="15" fill="rgb(255,255,255)" fill-opacity="0.501961" />
<polygon points="201,110 256,137 256,109" id="16" fill="rgb(170,173,181)" fill-opacity="0.501961" />
<polygon points="222,89 202,0 176,83" id="17" fill="rgb(138,126,125)" fill-opacity="0.501961" />
<polygon points="95,150 218,146 130,157" id="18" fill="rgb(27,43,45)" fill-opacity="0.501961" />
<polygon points="221,0 252,0 256,83" id="19" fill="rgb(114,118,133)" fill-opacity="0.501961" />
<polygon points="225,138 256,139 256,159" id="20" fill="rgb(23,10,17)" fill-opacity="0.501961" />
<polygon points="112,0 140,6 129,120" id="21" fill="rgb(104,108,109)" fill-opacity="0.501961" />
<polygon points="15,56 12,100 43,87" id="22" fill="rgb(0,9,26)" fill-opacity="0.501961" />
<polygon points="249,60 207,94 245,109" id="23" fill="rgb(49,53,61)" fill-opacity="0.501961" />
<polygon points="85,28 89,0 65,0" id="24" fill="rgb(255,255,255)" fill-opacity="0.501961" />
<polygon points="93,150 89,139 113,147" id="25" fill="rgb(168,200,255)" fill-opacity="0.501961" />
<polygon points="13,0 11,93 6,0" id="26" fill="rgb(132,130,136)" fill-opacity="0.501961" />
<polygon points="85,87 76,27 85,21" id="27" fill="rgb(110,65,28)" fill-opacity="0.501961" />
<polygon points="185,130 103,144 105,106" id="28" fill="rgb(55,59,58)" fill-opacity="0.501961" />
<polygon points="235,25 239,67 239,0" id="29" fill="rgb(205,217,228)" fill-opacity="0.501961" />
<polygon points="189,57 166,60 183,0" id="30" fill="rgb(252,255,255)" fill-opacity="0.501961" />
</svg>