<?xml version="1.0" standalone="no"?>
<svg xmlns="http://www.w3.org/2000/svg" version="1.2" baseProfile="tiny" width="256" height="170" viewBox="0 0 256 170">
<rect x="0" y="0" width="256" height="170" id="0" fill="rgb(221,161,167)" fill-opacity="1" />
<polygon points="171,155 205,34 111,0" id="1" fill="rgb(234,222,223)" fill-opacity="0.501961" />
<polygon points="140,27 115,170 46,170" id="2" fill="rgb(219,94,120)" fill-opacity="0.501961" />
<polygon points="187,170 253,101 240,45" id="3" fill="rgb(215,84,108)" fill-opacity="0.501961" />
<polygon points="0,60 0,131 34,79" id="4" fill="rgb(237,254,252)" fill-opacity="0.501961" />
<polygon points="24,0 100,29 13,38" id="5" fill="rgb(208,85,110)" fill-opacity="0.501961" />
<polygon points="188,157 155,95 130,170" id="6" fill="rgb(239,220,223)" fill-opacity="0.501961" />
<polygon points="68,92 199,132 59,98" id="7" fill="rgb(240,248,248)" fill-opacity="0.501961" />
<polygon points="167,170 203,143 205,167" id="8" fill="rgb(209,39,69)" fill-opacity="0.501961" />
<polygon points="128,46 72,20 133,71" id="9" fill="rgb(219,61,90)" fill-opacity="0.501961" />
<polygon points="23,50 79,0 48,39" id="10" fill="rgb(225,248,247)" fill-opacity="0.501961" />
<polygon points="0,62 67,159 84,43" id="11" fill="rgb(222,197,178)" fill-opacity="0.501961" />
<polygon points="221,39 243,70 247,50" id="12" fill="rgb(208,35,66)" fill-opacity="0.501961" />
<polygon points="224,35 197,0 237,25" id="13" fill="rgb(214,56,85)" fill-opacity="0.501961" />
<polygon points="153,69 126,23 161,71" id="14" fill="rgb(122,77,47)" fill-opacity="0.501961" />
<polygon points="65,0 211,69 158,0" id="15" fill="rgb(234,206,205)" fill-opacity="0.501961" />
<polygon points="71,123 21,121 18,105" id="16" fill="rgb(158,146,57)" fill-opacity="0.501961" />
<polygon points="190,132 256,156 252,196" id="17" fill="rgb(223,215,219)" fill-opacity="0.501961" />
<polygon points="150,59 196,95 256,115" id="18" fill="rgb(231,221,228)" fill-opacity="0.501961" />
<polygon points="190,12 256,0 228,13" id="19" fill="rgb(239,249,248)" fill-opacity="0.501961" />
<polygon points="87,170 118,115 108,170" id="20" fill="rgb(208,53,87)" fill-opacity="0.501961" />
<polygon points="0,156 0,130 108,170" id="21" fill="rgb(210,112,115)" fill-opacity="0.501961" />
<polygon points="155,101 116,75 83,80" id="22" fill="rgb(192,78,95)" fill-opacity="0.501961" />
<polygon points="238,43 227,0 271,66" id="23" fill="rgb(245,222,225)" fill-opacity="0.501961" />
<polygon points="34,170 66,149 91,62" id="24" fill="rgb(222,208,232)" fill-opacity="0.501961" />
<polygon points="221,129 198,69 245,133" id="25" fill="rgb(204,78,102)" fill-opacity="0.501961" />
<polygon points="256,70 219,64 255,81" id="26" fill="rgb(244,235,230)" fill-opacity="0.501961" />
<polygon points="93,18 115,29 96,15" id="27" fill="rgb(81,51,17)" fill-opacity="0.501961" />
<polygon points="195,48 214,42 204,61" id="28" fill="rgb(211,34,73)" fill-opacity="0.501961" />
<polygon points="80,55 95,70 89,48" id="29" fill="rgb(203,15,51)" fill-opacity="0.501961" />
<polygon points="49,10 33,5 16,20" id="30" fill="rgb(186,24,54)" fill-opacity="0.501961" />
<polygon points="103,106 115,142 130,126" id="31" fill="rgb(218,43,80)" fill-opacity="0.501961" />
</svg>