<?xml version="1.0" standalone="no"?>
<svg xmlns="http://www.w3.org/2000/svg" version="1.2" baseProfile="tiny" width="256" height="161" viewBox="0 0 256 161">
<rect x="0" y="0" width="256" height="161" id="0" fill="rgb(151,49,50)" fill-opacity="1" />
<polygon points="94,0 89,161 181,120" id="1" fill="rgb(138,162,166)" fill-opacity="0.501961" />
<polygon points="177,161 120,0 201,0" id="2" fill="rgb(0,61,57)" fill-opacity="0.501961" />
<polygon points="54,0 5,161 90,132" id="3" fill="rgb(255,0,0)" fill-opacity="0.501961" />
<polygon points="256,161 246,0 174,124" id="4" fill="rgb(240,0,0)" fill-opacity="0.501961" />
<polygon points="150,97 131,161 222,161" id="5" fill="rgb(0,7,25)" fill-opacity="0.501961" />
<polygon points="38,0 9,161 109,5" id="6" fill="rgb(255,32,14)" fill-opacity="0.501961" />
<polygon points="93,161 129,161 143,117" id="7" fill="rgb(173,250,255)" fill-opacity="0.501961" />
<polygon points="87,131 28,161 95,161" id="8" fill="rgb(0,0,20)" fill-opacity="0.501961" />
<polygon points="0,0 34,0 0,161" id="9" fill="rgb(32,107,101)" fill-opacity="0.501961" />
<polygon points="201,0 256,0 187,143" id="10" fill="rgb(255,3,0)" fill-opacity="0.501961" />
<polygon points="142,46 93,45 116,115" id="11" fill="rgb(255,171,161)" fill-opacity="0.501961" />
<polygon points="154,45 88,39 113,24" id="12" fill="rgb(0,0,0)" fill-opacity="0.501961" />
<polygon points="81,11 116,-12 152,44" id="13" fill="rgb(66,102,93)" fill-opacity="0.501961" />
<polygon points="73,140 39,0 89,0" id="14" fill="rgb(255,18,6)" fill-opacity="0.501961" />
<polygon points="256,0 183,135 256,161" id="15" fill="rgb(195,0,3)" fill-opacity="0.501961" />
<polygon points="175,90 80,89 91,48" id="16" fill="rgb(203,135,130)" fill-opacity="0.501961" />
<polygon points="105,137 95,160 91,129" id="17" fill="rgb(211,255,255)" fill-opacity="0.501961" />
<polygon points="28,94 49,97 35,71" id="18" fill="rgb(255,247,36)" fill-opacity="0.501961" />
<polygon points="191,77 84,126 187,124" id="19" fill="rgb(82,58,52)" fill-opacity="0.501961" />
<polygon points="221,21 196,9 215,-9" id="20" fill="rgb(251,205,0)" fill-opacity="0.501961" />
<polygon points="145,120 128,161 230,161" id="21" fill="rgb(0,25,43)" fill-opacity="0.501961" />
<polygon points="125,146 101,148 108,161" id="22" fill="rgb(0,0,91)" fill-opacity="0.501961" />
<polygon points="74,22 95,17 81,0" id="23" fill="rgb(255,213,0)" fill-opacity="0.501961" />
<polygon points="128,161 115,157 145,115" id="24" fill="rgb(231,239,255)" fill-opacity="0.501961" />
<polygon points="256,160 238,92 214,161" id="25" fill="rgb(141,0,0)" fill-opacity="0.501961" />
<polygon points="88,128 95,161 42,161" id="26" fill="rgb(0,18,39)" fill-opacity="0.501961" />
<polygon points="82,57 64,49 76,72" id="27" fill="rgb(255,253,0)" fill-opacity="0.501961" />
<polygon points="0,161 8,161 22,62" id="28" fill="rgb(53,101,99)" fill-opacity="0.501961" />
<polygon points="103,27 121,31 83,52" id="29" fill="rgb(0,0,2)" fill-opacity="0.501961" />
<polygon points="6,161 24,161 24,81" id="30" fill="rgb(147,0,1)" fill-opacity="0.501961" />
<polygon points="212,146 190,138 210,10" id="31" fill="rgb(249,17,53)" fill-opacity="0.501961" />
<polygon points="31,19 73,0 56,131" id="32" fill="rgb(222,0,24)" fill-opacity="0.501961" />
<polygon points="159,93 84,109 82,76" id="33" fill="rgb(156,95,104)" fill-opacity="0.501961" />
<polygon points="205,77 192,88 194,70" id="34" fill="rgb(255,223,0)" fill-opacity="0.501961" />
<polygon points="129,45 157,99 100,43" id="35" fill="rgb(239,163,148)" fill-opacity="0.501961" />
<polygon points="253,0 256,156 206,17" id="36" fill="rgb(191,0,11)" fill-opacity="0.501961" />
<polygon points="24,161 51,45 47,149" id="37" fill="rgb(251,49,58)" fill-opacity="0.501961" />
</svg>