<?xml version="1.0" standalone="no"?>
<svg xmlns="http://www.w3.org/2000/svg" version="1.2" baseProfile="tiny" width="256" height="192" viewBox="0 0 256 192">
<rect x="0" y="0" width="256" height="192" id="0" fill="rgb(95,110,124)" fill-opacity="1" />
<polygon points="0,86 29,6 219,48" id="1" fill="rgb(238,252,255)" fill-opacity="0.501961" />
<polygon points="160,53 256,113 62,124" id="2" fill="rgb(0,0,0)" fill-opacity="0.501961" />
<polygon points="81,134 216,192 256,147" id="3" fill="rgb(0,0,0)" fill-opacity="0.501961" />
<polygon points="0,192 69,131 0,47" id="4" fill="rgb(234,243,255)" fill-opacity="0.501961" />
<polygon points="251,0 256,43 162,39" id="5" fill="rgb(0,0,0)" fill-opacity="0.501961" />
<polygon points="153,0 92,0 57,41" id="6" fill="rgb(0,0,4)" fill-opacity="0.501961" />
<polygon points="256,71 196,59 256,192" id="7" fill="rgb(0,7,10)" fill-opacity="0.501961" />
<polygon points="256,145 54,46 191,137" id="8" fill="rgb(185,207,217)" fill-opacity="0.501961" />
<polygon points="41,133 7,168 72,192" id="9" fill="rgb(20,46,84)" fill-opacity="0.501961" />
<polygon points="158,192 44,123 200,192" id="10" fill="rgb(232,241,253)" fill-opacity="0.501961" />
<polygon points="256,186 67,59 194,192" id="11" fill="rgb(0,15,25)" fill-opacity="0.501961" />
<polygon points="98,126 36,81 78,67" id="12" fill="rgb(0,1,18)" fill-opacity="0.501961" />
<polygon points="26,112 134,130 72,137" id="13" fill="rgb(213,232,251)" fill-opacity="0.501961" />
<polygon points="46,0 0,101 93,56" id="14" fill="rgb(220,231,252)" fill-opacity="0.501961" />
<polygon points="65,148 102,190 151,192" id="15" fill="rgb(0,0,13)" fill-opacity="0.501961" />
<polygon points="29,43 212,0 102,88" id="16" fill="rgb(166,184,202)" fill-opacity="0.501961" />
<polygon points="244,122 143,96 138,52" id="17" fill="rgb(0,0,4)" fill-opacity="0.501961" />
</svg>