<?xml version="1.0" standalone="no"?>
<svg xmlns="http://www.w3.org/2000/svg" version="1.2" baseProfile="tiny" width="256" height="170" viewBox="0 0 256 170">
<rect x="0" y="0" width="256" height="170" id="0" fill="rgb(175,176,177)" fill-opacity="1" />
<polygon points="195,0 158,0 78,170" id="1" fill="rgb(37,36,37)" fill-opacity="0.501961" />
<polygon points="256,117 256,99 0,61" id="2" fill="rgb(79,69,59)" fill-opacity="0.501961" />
<polygon points="41,170 82,170 141,35" id="3" fill="rgb(101,102,93)" fill-opacity="0.501961" />
<polygon points="0,65 106,89 26,170" id="4" fill="rgb(214,222,227)" fill-opacity="0.501961" />
<polygon points="0,99 0,115 229,150" id="5" fill="rgb(109,103,94)" fill-opacity="0.501961" />
<polygon points="245,170 80,170 105,137" id="6" fill="rgb(235,237,244)" fill-opacity="0.501961" />
<polygon points="56,72 154,18 18,0" id="7" fill="rgb(219,223,226)" fill-opacity="0.501961" />
<polygon points="106,119 256,155 256,116" id="8" fill="rgb(235,235,238)" fill-opacity="0.501961" />
<polygon points="256,102 196,0 157,80" id="9" fill="rgb(218,217,215)" fill-opacity="0.501961" />
<polygon points="12,65 171,100 154,71" id="10" fill="rgb(91,88,86)" fill-opacity="0.501961" />
<polygon points="152,40 156,52 256,64" id="11" fill="rgb(85,83,72)" fill-opacity="0.501961" />
<polygon points="0,15 141,41 76,38" id="12" fill="rgb(95,96,86)" fill-opacity="0.501961" />
<polygon points="121,70 0,48 0,22" id="13" fill="rgb(229,238,246)" fill-opacity="0.501961" />
<polygon points="245,170 256,157 102,122" id="14" fill="rgb(115,105,93)" fill-opacity="0.501961" />
<polygon points="145,125 223,112 153,96" id="15" fill="rgb(232,232,235)" fill-opacity="0.501961" />
<polygon points="256,36 256,30 161,12" id="16" fill="rgb(82,84,76)" fill-opacity="0.501961" />
<polygon points="55,145 78,155 163,170" id="17" fill="rgb(77,75,75)" fill-opacity="0.501961" />
<polygon points="0,160 0,170 37,170" id="18" fill="rgb(28,50,58)" fill-opacity="0.501961" />
<polygon points="170,0 137,46 148,0" id="19" fill="rgb(192,209,208)" fill-opacity="0.501961" />
<polygon points="0,114 61,155 0,158" id="20" fill="rgb(217,230,241)" fill-opacity="0.501961" />
<polygon points="256,35 256,63 181,28" id="21" fill="rgb(220,224,233)" fill-opacity="0.501961" />
<polygon points="73,117 0,69 96,83" id="22" fill="rgb(223,228,234)" fill-opacity="0.501961" />
<polygon points="144,79 169,93 256,111" id="23" fill="rgb(188,181,165)" fill-opacity="0.501961" />
<polygon points="250,132 153,113 123,105" id="24" fill="rgb(79,77,89)" fill-opacity="0.501961" />
<polygon points="82,110 24,121 168,150" id="25" fill="rgb(162,157,148)" fill-opacity="0.501961" />
<polygon points="94,76 122,48 9,26" id="26" fill="rgb(215,221,225)" fill-opacity="0.501961" />
</svg>