<svg xmlns="http://www.w3.org/2000/svg" width="256" height="170" baseProfile="tiny" version="1.2" viewBox="0 0 256 170"><rect id="0" width="256" height="170" x="0" y="0" fill="#151414" fill-opacity="1"/><polygon id="1" fill="#817A78" fill-opacity=".502" points="108 59 89 170 234 160"/><polygon id="2" fill="#C1B7B2" fill-opacity=".502" points="138 78 162 105 61 102"/><polygon id="3" fill="#000" fill-opacity=".502" points="17 0 256 0 195 123"/><polygon id="4" fill="#000" fill-opacity=".502" points="176 107 0 170 0 115"/><polygon id="5" fill="#545355" fill-opacity=".502" points="238 113 242 54 133 170"/><polygon id="6" fill="#000" fill-opacity=".502" points="204 0 0 170 0 0"/><polygon id="7" fill="#D8D0CF" fill-opacity=".502" points="158 118 169 170 150 127"/><polygon id="8" fill="#B8AFA9" fill-opacity=".502" points="113 84 79 111 155 88"/><polygon id="9" fill="#28282C" fill-opacity=".502" points="256 54 145 170 231 170"/></svg>