<svg xmlns="http://www.w3.org/2000/svg" width="256" height="170" baseProfile="tiny" version="1.2" viewBox="0 0 256 170"><rect id="0" width="256" height="170" x="0" y="0" fill="#281914" fill-opacity="1"/><polygon id="1" fill="#CBA17E" fill-opacity=".502" points="204 29 188 89 38 61"/><polygon id="2" fill="#746D76" fill-opacity=".502" points="38 155 230 147 111 181"/><polygon id="3" fill="#000" fill-opacity=".502" points="254 0 0 0 0 76"/><polygon id="4" fill="#A5836B" fill-opacity=".502" points="228 61 167 19 120 62"/><polygon id="5" fill="#E22D00" fill-opacity=".502" points="143 112 256 99 256 109"/><polygon id="6" fill="#403536" fill-opacity=".502" points="73 38 151 43 76 78"/><polygon id="7" fill="#000" fill-opacity=".502" points="0 147 256 107 256 150"/><polygon id="8" fill="#E23100" fill-opacity=".502" points="0 116 90 112 0 106"/><polygon id="9" fill="#000" fill-opacity=".502" points="256 0 149 0 256 77"/><polygon id="10" fill="#000" fill-opacity=".502" points="0 170 0 114 103 119"/><polygon id="11" fill="#C4966B" fill-opacity=".502" points="154 94 187 75 174 19"/><polygon id="12" fill="#566A7E" fill-opacity=".502" points="103 119 116 137 149 122"/><polygon id="13" fill="#4E403E" fill-opacity=".502" points="93 34 36 66 144 84"/><polygon id="14" fill="#020000" fill-opacity=".502" points="28 107 0 61 196 103"/><polygon id="15" fill="#000" fill-opacity=".502" points="176 93 256 98 256 42"/></svg>