<?xml version="1.0" standalone="no"?>
<svg xmlns="http://www.w3.org/2000/svg" version="1.2" baseProfile="tiny" width="256" height="170" viewBox="0 0 256 170">
<rect x="0" y="0" width="256" height="170" id="0" fill="rgb(81,80,79)" fill-opacity="1" />
<polygon points="60,0 -4,-1 25,138" id="1" fill="rgb(0,0,0)" fill-opacity="0.501961" />
<polygon points="217,144 256,170 0,170" id="2" fill="rgb(178,177,182)" fill-opacity="0.501961" />
<polygon points="256,13 157,0 40,28" id="3" fill="rgb(185,194,170)" fill-opacity="0.501961" />
<polygon points="0,170 89,168 5,110" id="4" fill="rgb(143,145,151)" fill-opacity="0.501961" />
<polygon points="133,152 143,84 0,80" id="5" fill="rgb(26,25,29)" fill-opacity="0.501961" />
<polygon points="238,60 256,125 216,76" id="6" fill="rgb(203,177,181)" fill-opacity="0.501961" />
<polygon points="205,17 256,17 171,160" id="7" fill="rgb(40,35,21)" fill-opacity="0.501961" />
<polygon points="181,132 132,170 161,60" id="8" fill="rgb(143,147,152)" fill-opacity="0.501961" />
<polygon points="50,109 0,105 0,0" id="9" fill="rgb(5,2,0)" fill-opacity="0.501961" />
<polygon points="52,0 130,12 133,0" id="10" fill="rgb(0,0,0)" fill-opacity="0.501961" />
<polygon points="110,44 126,22 152,46" id="11" fill="rgb(171,178,165)" fill-opacity="0.501961" />
<polygon points="180,160 246,170 256,50" id="12" fill="rgb(111,109,115)" fill-opacity="0.501961" />
<polygon points="226,42 177,30 171,34" id="13" fill="rgb(255,192,119)" fill-opacity="0.501961" />
<polygon points="212,71 232,82 244,58" id="14" fill="rgb(240,192,185)" fill-opacity="0.501961" />
<polygon points="106,4 67,59 44,30" id="15" fill="rgb(152,135,134)" fill-opacity="0.501961" />
<polygon points="41,166 50,135 59,165" id="16" fill="rgb(14,10,14)" fill-opacity="0.501961" />
<polygon points="256,59 154,80 256,12" id="17" fill="rgb(45,47,25)" fill-opacity="0.501961" />
<polygon points="28,126 61,100 72,127" id="18" fill="rgb(154,139,130)" fill-opacity="0.501961" />
<polygon points="168,51 189,49 222,64" id="19" fill="rgb(255,123,48)" fill-opacity="0.501961" />
<polygon points="88,11 110,170 116,141" id="20" fill="rgb(129,125,129)" fill-opacity="0.501961" />
<polygon points="129,22 100,54 92,26" id="21" fill="rgb(0,0,0)" fill-opacity="0.501961" />
<polygon points="255,14 256,2 202,5" id="22" fill="rgb(188,177,149)" fill-opacity="0.501961" />
<polygon points="174,91 217,103 179,112" id="23" fill="rgb(0,0,0)" fill-opacity="0.501961" />
<polygon points="168,66 141,33 156,78" id="24" fill="rgb(152,170,179)" fill-opacity="0.501961" />
<polygon points="38,10 77,4 55,17" id="25" fill="rgb(108,172,172)" fill-opacity="0.501961" />
<polygon points="6,0 80,0 10,17" id="26" fill="rgb(0,0,0)" fill-opacity="0.501961" />
<polygon points="190,20 128,24 169,39" id="27" fill="rgb(0,27,29)" fill-opacity="0.501961" />
<polygon points="4,131 8,0 -8,135" id="28" fill="rgb(20,10,12)" fill-opacity="0.501961" />
<polygon points="59,49 0,14 29,129" id="29" fill="rgb(19,22,23)" fill-opacity="0.501961" />
<polygon points="127,109 148,53 98,56" id="30" fill="rgb(32,33,37)" fill-opacity="0.501961" />
<polygon points="178,6 256,0 179,0" id="31" fill="rgb(5,16,0)" fill-opacity="0.501961" />
<polygon points="66,134 83,113 82,164" id="32" fill="rgb(19,16,23)" fill-opacity="0.501961" />
</svg>