<svg xmlns="http://www.w3.org/2000/svg" width="256" height="170" baseProfile="tiny" version="1.2" viewBox="0 0 256 170"><rect id="0" width="256" height="170" x="0" y="0" fill="#29272B" fill-opacity="1"/><polygon id="1" fill="#FFF3F1" fill-opacity=".502" points="229 102 220 170 96 142"/><polygon id="2" fill="#FFFCF1" fill-opacity=".502" points="153 70 165 170 130 170"/><polygon id="3" fill="#000810" fill-opacity=".502" points="140 146 0 170 29 0"/><polygon id="4" fill="#FFF" fill-opacity=".502" points="204 84 229 159 191 170"/><polygon id="5" fill="#170000" fill-opacity=".502" points="163 154 189 104 192 170"/><polygon id="6" fill="#E03831" fill-opacity=".502" points="256 89 173 141 112 114"/><polygon id="7" fill="#000" fill-opacity=".502" points="167 100 0 0 198 0"/><polygon id="8" fill="#D1B2A2" fill-opacity=".502" points="237 80 224 55 198 105"/><polygon id="9" fill="#000007" fill-opacity=".502" points="31 0 256 72 256 0"/><polygon id="10" fill="#FFF" fill-opacity=".502" points="177 92 171 80 186 59"/><polygon id="11" fill="#000" fill-opacity=".502" points="256 6 256 170 225 170"/><polygon id="12" fill="#FFF" fill-opacity=".502" points="221 170 194 170 221 101"/><polygon id="13" fill="#00070D" fill-opacity=".502" points="0 103 0 0 196 61"/><polygon id="14" fill="#000" fill-opacity=".502" points="6 170 133 119 133 170"/><polygon id="15" fill="#FF8B89" fill-opacity=".502" points="99 74 146 136 108 103"/><polygon id="16" fill="#FFF" fill-opacity=".502" points="162 125 162 170 134 162"/><polygon id="17" fill="#000" fill-opacity=".502" points="221 98 177 114 185 86"/><polygon id="18" fill="#000" fill-opacity=".502" points="192 148 165 170 165 137"/><polygon id="19" fill="#61D4FF" fill-opacity=".502" points="85 128 96 137 105 132"/><polygon id="20" fill="#CB2A27" fill-opacity=".502" points="236 78 240 107 179 117"/><polygon id="21" fill="#000001" fill-opacity=".502" points="235 96 192 27 222 94"/><polygon id="22" fill="#FAF5F2" fill-opacity=".502" points="219 170 189 114 225 116"/><polygon id="23" fill="#FFF" fill-opacity=".502" points="203 82 216 83 216 96"/><polygon id="24" fill="#283C49" fill-opacity=".502" points="70 60 0 106 66 118"/><polygon id="25" fill="#000F16" fill-opacity=".502" points="81 83 172 88 181 0"/><polygon id="26" fill="#E1D6DA" fill-opacity=".502" points="179 138 164 121 179 114"/><polygon id="27" fill="#F20B00" fill-opacity=".502" points="155 109 168 124 117 118"/><polygon id="28" fill="#EE1A1E" fill-opacity=".502" points="127 120 109 108 112 89"/><polygon id="29" fill="#D9EBE7" fill-opacity=".502" points="136 157 140 122 164 129"/><polygon id="30" fill="#13212A" fill-opacity=".502" points="111 100 135 170 31 59"/><polygon id="31" fill="#FE0A10" fill-opacity=".502" points="240 98 224 120 231 82"/><polygon id="32" fill="#FFECDC" fill-opacity=".502" points="175 83 186 43 174 115"/><polygon id="33" fill="#890000" fill-opacity=".502" points="165 145 165 122 190 141"/><polygon id="34" fill="#000" fill-opacity=".502" points="218 170 256 167 229 144"/><polygon id="35" fill="#00050A" fill-opacity=".502" points="139 52 256 55 232 0"/><polygon id="36" fill="#06020C" fill-opacity=".502" points="192 165 190 126 166 156"/><polygon id="37" fill="#00030A" fill-opacity=".502" points="183 115 226 54 164 109"/><polygon id="38" fill="#DFE3EB" fill-opacity=".502" points="191 152 198 127 230 95"/><polygon id="39" fill="#FFE8CE" fill-opacity=".502" points="139 99 150 96 162 106"/><polygon id="40" fill="#010C12" fill-opacity=".502" points="184 39 181 125 208 78"/><polygon id="41" fill="#D3210A" fill-opacity=".502" points="216 96 178 124 216 107"/><polygon id="42" fill="#303D41" fill-opacity=".502" points="76 144 8 91 66 96"/><polygon id="43" fill="#D4D8D9" fill-opacity=".502" points="133 126 138 170 164 126"/><polygon id="44" fill="#010F16" fill-opacity=".502" points="182 0 136 114 41 0"/><polygon id="45" fill="#FFF" fill-opacity=".502" points="105 85 122 101 100 89"/><polygon id="46" fill="#000C14" fill-opacity=".502" points="0 0 256 0 0 84"/><polygon id="47" fill="#000102" fill-opacity=".502" points="0 170 137 170 0 139"/><polygon id="48" fill="#A25035" fill-opacity=".502" points="192 58 182 49 172 62"/><polygon id="49" fill="#061921" fill-opacity=".502" points="223 80 194 0 189 79"/><polygon id="50" fill="#F0141A" fill-opacity=".502" points="185 123 193 132 170 142"/><polygon id="51" fill="#000D12" fill-opacity=".502" points="236 118 256 170 256 4"/><polygon id="52" fill="#000305" fill-opacity=".502" points="156 108 173 85 169 125"/></svg>