<?xml version="1.0" standalone="no"?>
<svg xmlns="http://www.w3.org/2000/svg" version="1.2" baseProfile="tiny" width="256" height="170" viewBox="0 0 256 170">
<rect x="0" y="0" width="256" height="170" id="0" fill="rgb(116,105,102)" fill-opacity="1" />
<polygon points="0,169 117,149 256,169" id="1" fill="rgb(255,255,255)" fill-opacity="0.501961" />
<polygon points="256,135 167,0 198,164" id="2" fill="rgb(0,0,10)" fill-opacity="0.501961" />
<polygon points="102,0 39,170 149,0" id="3" fill="rgb(0,0,22)" fill-opacity="0.501961" />
<polygon points="0,0 108,3 0,116" id="4" fill="rgb(221,195,168)" fill-opacity="0.501961" />
<polygon points="0,136 80,170 0,170" id="5" fill="rgb(255,255,255)" fill-opacity="0.501961" />
<polygon points="117,153 15,148 0,98" id="6" fill="rgb(5,11,15)" fill-opacity="0.501961" />
<polygon points="108,68 191,74 69,134" id="7" fill="rgb(250,200,186)" fill-opacity="0.501961" />
<polygon points="143,53 247,81 154,0" id="8" fill="rgb(0,15,39)" fill-opacity="0.501961" />
<polygon points="235,85 91,154 256,149" id="9" fill="rgb(22,24,27)" fill-opacity="0.501961" />
<polygon points="97,74 188,68 182,128" id="10" fill="rgb(216,178,164)" fill-opacity="0.501961" />
<polygon points="174,10 256,59 255,0" id="11" fill="rgb(229,181,139)" fill-opacity="0.501961" />
<polygon points="256,170 167,170 256,148" id="12" fill="rgb(255,255,238)" fill-opacity="0.501961" />
<polygon points="0,84 9,43 39,73" id="13" fill="rgb(11,11,7)" fill-opacity="0.501961" />
<polygon points="59,170 80,79 11,110" id="14" fill="rgb(9,22,31)" fill-opacity="0.501961" />
<polygon points="73,39 0,49 0,34" id="15" fill="rgb(255,255,235)" fill-opacity="0.501961" />
<polygon points="28,85 19,106 0,83" id="16" fill="rgb(255,255,255)" fill-opacity="0.501961" />
<polygon points="176,5 202,81 219,87" id="17" fill="rgb(97,143,195)" fill-opacity="0.501961" />
<polygon points="200,150 63,154 136,170" id="18" fill="rgb(255,240,213)" fill-opacity="0.501961" />
<polygon points="118,47 127,32 174,33" id="19" fill="rgb(0,0,0)" fill-opacity="0.501961" />
<polygon points="232,35 192,17 254,20" id="20" fill="rgb(67,11,0)" fill-opacity="0.501961" />
<polygon points="166,37 192,-31 147,3" id="21" fill="rgb(0,0,18)" fill-opacity="0.501961" />
<polygon points="186,17 177,0 256,14" id="22" fill="rgb(236,219,193)" fill-opacity="0.501961" />
<polygon points="63,141 123,144 93,93" id="23" fill="rgb(152,104,106)" fill-opacity="0.501961" />
<polygon points="118,94 115,132 95,129" id="24" fill="rgb(27,27,34)" fill-opacity="0.501961" />
<polygon points="222,131 245,96 166,55" id="25" fill="rgb(18,44,70)" fill-opacity="0.501961" />
<polygon points="201,73 256,83 256,96" id="26" fill="rgb(216,216,208)" fill-opacity="0.501961" />
<polygon points="87,16 100,4 0,8" id="27" fill="rgb(255,238,209)" fill-opacity="0.501961" />
<polygon points="256,39 211,36 232,56" id="28" fill="rgb(255,226,211)" fill-opacity="0.501961" />
<polygon points="170,107 125,129 180,138" id="29" fill="rgb(47,47,55)" fill-opacity="0.501961" />
<polygon points="139,170 0,151 0,170" id="30" fill="rgb(249,224,202)" fill-opacity="0.501961" />
<polygon points="0,147 57,170 0,129" id="31" fill="rgb(247,230,213)" fill-opacity="0.501961" />
<polygon points="58,46 65,77 85,37" id="32" fill="rgb(71,8,14)" fill-opacity="0.501961" />
<polygon points="245,84 256,51 192,48" id="33" fill="rgb(108,40,21)" fill-opacity="0.501961" />
<polygon points="138,10 103,2 68,130" id="34" fill="rgb(0,33,58)" fill-opacity="0.501961" />
<polygon points="256,145 196,161 187,105" id="35" fill="rgb(0,0,0)" fill-opacity="0.501961" />
<polygon points="165,54 220,44 202,38" id="36" fill="rgb(0,0,1)" fill-opacity="0.501961" />
<polygon points="62,81 38,97 51,71" id="37" fill="rgb(214,214,213)" fill-opacity="0.501961" />
<polygon points="75,131 0,101 0,126" id="38" fill="rgb(65,65,64)" fill-opacity="0.501961" />
<polygon points="215,114 256,151 256,94" id="39" fill="rgb(83,69,54)" fill-opacity="0.501961" />
<polygon points="0,48 0,74 41,51" id="40" fill="rgb(62,49,40)" fill-opacity="0.501961" />
<polygon points="182,85 84,107 187,109" id="41" fill="rgb(209,127,105)" fill-opacity="0.501961" />
<polygon points="233,47 242,86 228,78" id="42" fill="rgb(186,170,164)" fill-opacity="0.501961" />
<polygon points="234,29 212,38 186,31" id="43" fill="rgb(194,180,168)" fill-opacity="0.501961" />
<polygon points="7,2 0,0 0,46" id="44" fill="rgb(255,255,234)" fill-opacity="0.501961" />
<polygon points="143,149 154,151 146,138" id="45" fill="rgb(255,184,169)" fill-opacity="0.501961" />
<polygon points="256,170 183,25 212,74" id="46" fill="rgb(128,160,200)" fill-opacity="0.501961" />
<polygon points="18,25 0,17 34,17" id="47" fill="rgb(58,6,0)" fill-opacity="0.501961" />
<polygon points="27,47 65,48 68,21" id="48" fill="rgb(243,212,188)" fill-opacity="0.501961" />
</svg>