<?xml version="1.0" standalone="no"?>
<svg xmlns="http://www.w3.org/2000/svg" version="1.2" baseProfile="tiny" width="256" height="170" viewBox="0 0 256 170">
<rect x="0" y="0" width="256" height="170" id="0" fill="rgb(91,93,129)" fill-opacity="1" />
<polygon points="254,117 56,81 256,0" id="1" fill="rgb(107,139,217)" fill-opacity="0.501961" />
<polygon points="207,0 0,0 0,116" id="2" fill="rgb(13,27,117)" fill-opacity="0.501961" />
<polygon points="42,102 132,170 256,103" id="3" fill="rgb(177,147,115)" fill-opacity="0.501961" />
<polygon points="256,169 0,170 0,99" id="4" fill="rgb(126,98,60)" fill-opacity="0.501961" />
<polygon points="147,153 249,74 139,118" id="5" fill="rgb(179,178,198)" fill-opacity="0.501961" />
<polygon points="51,146 29,151 22,102" id="6" fill="rgb(218,184,184)" fill-opacity="0.501961" />
<polygon points="169,155 255,99 256,155" id="7" fill="rgb(94,60,12)" fill-opacity="0.501961" />
<polygon points="88,90 153,111 106,115" id="8" fill="rgb(24,30,18)" fill-opacity="0.501961" />
<polygon points="81,91 256,0 105,0" id="9" fill="rgb(54,79,176)" fill-opacity="0.501961" />
<polygon points="50,124 87,132 58,149" id="10" fill="rgb(6,0,0)" fill-opacity="0.501961" />
<polygon points="39,103 31,111 106,103" id="11" fill="rgb(255,255,255)" fill-opacity="0.501961" />
<polygon points="0,0 0,60 99,0" id="12" fill="rgb(29,22,59)" fill-opacity="0.501961" />
<polygon points="73,108 0,113 83,111" id="13" fill="rgb(13,0,0)" fill-opacity="0.501961" />
<polygon points="66,87 109,102 0,99" id="14" fill="rgb(44,40,0)" fill-opacity="0.501961" />
<polygon points="41,170 0,170 14,117" id="15" fill="rgb(53,42,35)" fill-opacity="0.501961" />
<polygon points="256,102 116,103 241,55" id="16" fill="rgb(137,154,192)" fill-opacity="0.501961" />
<polygon points="92,146 103,139 84,133" id="17" fill="rgb(255,255,255)" fill-opacity="0.501961" />
<polygon points="95,39 0,92 134,87" id="18" fill="rgb(81,96,154)" fill-opacity="0.501961" />
<polygon points="163,114 215,116 148,89" id="19" fill="rgb(94,94,104)" fill-opacity="0.501961" />
<polygon points="132,154 80,108 135,128" id="20" fill="rgb(92,59,47)" fill-opacity="0.501961" />
<polygon points="40,117 0,114 0,121" id="21" fill="rgb(255,255,255)" fill-opacity="0.501961" />
<polygon points="131,135 209,139 157,144" id="22" fill="rgb(210,199,216)" fill-opacity="0.501961" />
</svg>