<?xml version="1.0" standalone="no"?>
<svg xmlns="http://www.w3.org/2000/svg" version="1.2" baseProfile="tiny" width="256" height="170" viewBox="0 0 256 170">
<rect x="0" y="0" width="256" height="170" id="0" fill="rgb(151,146,144)" fill-opacity="1" />
<polygon points="105,5 78,170 240,170" id="1" fill="rgb(0,0,0)" fill-opacity="0.501961" />
<polygon points="256,0 128,0 255,170" id="2" fill="rgb(255,255,255)" fill-opacity="0.501961" />
<polygon points="0,116 90,0 78,170" id="3" fill="rgb(255,255,255)" fill-opacity="0.501961" />
<polygon points="183,51 75,170 231,170" id="4" fill="rgb(3,0,0)" fill-opacity="0.501961" />
<polygon points="0,0 102,0 0,170" id="5" fill="rgb(230,232,229)" fill-opacity="0.501961" />
<polygon points="128,44 177,135 180,20" id="6" fill="rgb(231,188,177)" fill-opacity="0.501961" />
<polygon points="208,170 77,159 126,56" id="7" fill="rgb(0,0,2)" fill-opacity="0.501961" />
<polygon points="229,123 221,170 256,170" id="8" fill="rgb(255,255,255)" fill-opacity="0.501961" />
<polygon points="0,170 96,50 73,170" id="9" fill="rgb(243,240,232)" fill-opacity="0.501961" />
<polygon points="163,128 168,106 230,34" id="10" fill="rgb(242,245,255)" fill-opacity="0.501961" />
<polygon points="133,36 127,11 81,23" id="11" fill="rgb(2,0,0)" fill-opacity="0.501961" />
<polygon points="197,96 107,170 226,137" id="12" fill="rgb(13,13,22)" fill-opacity="0.501961" />
<polygon points="130,51 152,72 139,0" id="13" fill="rgb(244,249,246)" fill-opacity="0.501961" />
<polygon points="97,96 87,25 140,44" id="14" fill="rgb(170,99,81)" fill-opacity="0.501961" />
<polygon points="151,153 168,49 190,58" id="15" fill="rgb(115,56,54)" fill-opacity="0.501961" />
<polygon points="0,170 103,66 12,35" id="16" fill="rgb(204,201,197)" fill-opacity="0.501961" />
<polygon points="42,0 126,0 166,17" id="17" fill="rgb(225,227,227)" fill-opacity="0.501961" />
<polygon points="220,124 223,170 204,103" id="18" fill="rgb(0,0,0)" fill-opacity="0.501961" />
<polygon points="80,170 196,170 85,101" id="19" fill="rgb(6,6,9)" fill-opacity="0.501961" />
</svg>