<?xml version="1.0" standalone="no"?>
<svg xmlns="http://www.w3.org/2000/svg" version="1.2" baseProfile="tiny" width="256" height="144" viewBox="0 0 256 144">
<rect x="0" y="0" width="256" height="144" id="0" fill="rgb(111,99,91)" fill-opacity="1" />
<polygon points="40,121 63,59 -27,73" id="1" fill="rgb(255,255,255)" fill-opacity="0.501961" />
<polygon points="100,44 254,30 256,101" id="2" fill="rgb(2,7,59)" fill-opacity="0.501961" />
<polygon points="148,130 84,23 79,99" id="3" fill="rgb(255,56,30)" fill-opacity="0.501961" />
<polygon points="93,0 191,44 217,0" id="4" fill="rgb(176,197,208)" fill-opacity="0.501961" />
<polygon points="134,42 99,55 156,131" id="5" fill="rgb(0,0,27)" fill-opacity="0.501961" />
<polygon points="144,101 153,71 233,89" id="6" fill="rgb(205,216,238)" fill-opacity="0.501961" />
<polygon points="75,1 0,4 80,107" id="7" fill="rgb(28,22,52)" fill-opacity="0.501961" />
<polygon points="228,63 191,88 222,35" id="8" fill="rgb(255,150,117)" fill-opacity="0.501961" />
<polygon points="188,144 222,110 143,106" id="9" fill="rgb(203,228,117)" fill-opacity="0.501961" />
<polygon points="204,144 0,144 0,100" id="10" fill="rgb(135,153,38)" fill-opacity="0.501961" />
<polygon points="227,109 230,0 256,104" id="11" fill="rgb(0,0,38)" fill-opacity="0.501961" />
<polygon points="0,60 66,64 0,113" id="12" fill="rgb(212,215,227)" fill-opacity="0.501961" />
<polygon points="46,19 212,32 87,40" id="13" fill="rgb(217,173,148)" fill-opacity="0.501961" />
<polygon points="55,144 99,34 108,85" id="14" fill="rgb(220,8,0)" fill-opacity="0.501961" />
<polygon points="0,61 0,32 79,48" id="15" fill="rgb(0,0,36)" fill-opacity="0.501961" />
<polygon points="87,101 116,100 142,144" id="16" fill="rgb(177,242,160)" fill-opacity="0.501961" />
<polygon points="256,6 213,45 227,-5" id="17" fill="rgb(0,7,71)" fill-opacity="0.501961" />
<polygon points="75,0 168,13 170,0" id="18" fill="rgb(255,238,219)" fill-opacity="0.501961" />
<polygon points="99,64 147,66 154,120" id="19" fill="rgb(0,16,49)" fill-opacity="0.501961" />
<polygon points="60,112 26,104 55,54" id="20" fill="rgb(225,148,140)" fill-opacity="0.501961" />
<polygon points="225,106 228,144 211,140" id="21" fill="rgb(0,0,53)" fill-opacity="0.501961" />
<polygon points="248,45 256,30 242,14" id="22" fill="rgb(222,249,255)" fill-opacity="0.501961" />
<polygon points="180,20 31,13 191,9" id="23" fill="rgb(66,58,52)" fill-opacity="0.501961" />
<polygon points="201,141 185,122 174,144" id="24" fill="rgb(234,236,255)" fill-opacity="0.501961" />
<polygon points="256,92 256,104 140,108" id="25" fill="rgb(4,11,29)" fill-opacity="0.501961" />
<polygon points="65,113 76,106 77,76" id="26" fill="rgb(195,203,179)" fill-opacity="0.501961" />
<polygon points="256,110 244,144 226,109" id="27" fill="rgb(176,199,63)" fill-opacity="0.501961" />
<polygon points="209,95 231,72 221,112" id="28" fill="rgb(177,179,190)" fill-opacity="0.501961" />
<polygon points="0,35 38,35 27,27" id="29" fill="rgb(249,229,187)" fill-opacity="0.501961" />
<polygon points="58,80 74,66 62,130" id="30" fill="rgb(0,0,14)" fill-opacity="0.501961" />
<polygon points="105,2 89,3 89,23" id="31" fill="rgb(0,0,0)" fill-opacity="0.501961" />
<polygon points="45,86 58,48 35,97" id="32" fill="rgb(173,23,2)" fill-opacity="0.501961" />
</svg>