<?xml version="1.0" standalone="no"?>
<svg xmlns="http://www.w3.org/2000/svg" version="1.2" baseProfile="tiny" width="256" height="170" viewBox="0 0 256 170">
<rect x="0" y="0" width="256" height="170" id="0" fill="rgb(51,46,42)" fill-opacity="1" />
<polygon points="80,0 0,0 0,121" id="1" fill="rgb(188,168,154)" fill-opacity="0.501961" />
<polygon points="118,62 143,0 150,63" id="2" fill="rgb(0,241,255)" fill-opacity="0.501961" />
<polygon points="210,45 35,170 242,170" id="3" fill="rgb(0,0,0)" fill-opacity="0.501961" />
<polygon points="13,0 129,0 111,65" id="4" fill="rgb(162,95,73)" fill-opacity="0.501961" />
<polygon points="145,61 21,78 96,170" id="5" fill="rgb(0,1,3)" fill-opacity="0.501961" />
<polygon points="54,53 0,60 0,96" id="6" fill="rgb(165,211,211)" fill-opacity="0.501961" />
<polygon points="153,24 140,64 238,85" id="7" fill="rgb(101,57,40)" fill-opacity="0.501961" />
<polygon points="0,44 68,0 94,70" id="8" fill="rgb(95,66,53)" fill-opacity="0.501961" />
<polygon points="128,95 149,92 134,109" id="9" fill="rgb(255,141,118)" fill-opacity="0.501961" />
<polygon points="4,58 59,61 59,53" id="10" fill="rgb(255,211,184)" fill-opacity="0.501961" />
<polygon points="25,74 0,93 8,132" id="11" fill="rgb(105,138,142)" fill-opacity="0.501961" />
<polygon points="106,40 114,52 101,59" id="12" fill="rgb(255,202,150)" fill-opacity="0.501961" />
<polygon points="32,170 105,62 16,83" id="13" fill="rgb(24,25,24)" fill-opacity="0.501961" />
<polygon points="46,170 128,170 140,101" id="14" fill="rgb(0,0,0)" fill-opacity="0.501961" />
<polygon points="50,143 58,149 47,159" id="15" fill="rgb(255,253,249)" fill-opacity="0.501961" />
<polygon points="138,63 265,94 243,170" id="16" fill="rgb(17,16,13)" fill-opacity="0.501961" />
<polygon points="40,50 87,43 57,33" id="17" fill="rgb(0,4,5)" fill-opacity="0.501961" />
<polygon points="156,28 143,37 165,36" id="18" fill="rgb(166,202,192)" fill-opacity="0.501961" />
<polygon points="22,54 0,131 0,59" id="19" fill="rgb(113,168,183)" fill-opacity="0.501961" />
<polygon points="133,20 121,62 154,29" id="20" fill="rgb(9,179,193)" fill-opacity="0.501961" />
<polygon points="152,13 153,170 132,134" id="21" fill="rgb(44,40,48)" fill-opacity="0.501961" />
<polygon points="240,107 228,107 236,115" id="22" fill="rgb(255,140,105)" fill-opacity="0.501961" />
<polygon points="183,121 196,126 187,132" id="23" fill="rgb(226,103,77)" fill-opacity="0.501961" />
<polygon points="146,53 157,65 165,49" id="24" fill="rgb(218,105,64)" fill-opacity="0.501961" />
<polygon points="163,43 256,91 255,0" id="25" fill="rgb(37,31,25)" fill-opacity="0.501961" />
<polygon points="17,75 20,64 90,53" id="26" fill="rgb(129,91,61)" fill-opacity="0.501961" />
<polygon points="145,122 171,170 256,170" id="27" fill="rgb(0,1,3)" fill-opacity="0.501961" />
<polygon points="92,49 105,29 117,34" id="28" fill="rgb(0,8,10)" fill-opacity="0.501961" />
<polygon points="76,0 123,28 70,31" id="29" fill="rgb(170,85,62)" fill-opacity="0.501961" />
<polygon points="97,45 129,129 77,91" id="30" fill="rgb(6,8,10)" fill-opacity="0.501961" />
<polygon points="114,0 45,26 202,0" id="31" fill="rgb(75,69,61)" fill-opacity="0.501961" />
<polygon points="52,5 0,6 17,19" id="32" fill="rgb(211,122,95)" fill-opacity="0.501961" />
<polygon points="21,167 27,155 30,170" id="33" fill="rgb(175,155,119)" fill-opacity="0.501961" />
<polygon points="63,61 27,73 61,162" id="34" fill="rgb(35,32,29)" fill-opacity="0.501961" />
<polygon points="0,55 0,17 52,55" id="35" fill="rgb(93,72,63)" fill-opacity="0.501961" />
</svg>