<?xml version="1.0" standalone="no"?>
<svg xmlns="http://www.w3.org/2000/svg" version="1.2" baseProfile="tiny" width="256" height="160" viewBox="0 0 256 160">
<rect x="0" y="0" width="256" height="160" id="0" fill="rgb(8,48,78)" fill-opacity="1" />
<polygon points="197,0 62,0 133,63" id="1" fill="rgb(17,230,255)" fill-opacity="0.501961" />
<polygon points="151,56 172,148 243,160" id="2" fill="rgb(12,216,251)" fill-opacity="0.501961" />
<polygon points="166,44 256,159 255,0" id="3" fill="rgb(0,0,0)" fill-opacity="0.501961" />
<polygon points="86,17 0,0 0,160" id="4" fill="rgb(1,0,0)" fill-opacity="0.501961" />
<polygon points="78,0 110,48 195,0" id="5" fill="rgb(16,176,255)" fill-opacity="0.501961" />
<polygon points="139,112 76,73 202,0" id="6" fill="rgb(14,75,143)" fill-opacity="0.501961" />
<polygon points="0,0 0,160 154,160" id="7" fill="rgb(13,4,21)" fill-opacity="0.501961" />
<polygon points="191,108 147,123 216,160" id="8" fill="rgb(13,208,234)" fill-opacity="0.501961" />
<polygon points="256,160 193,0 256,0" id="9" fill="rgb(0,0,0)" fill-opacity="0.501961" />
<polygon points="184,74 184,84 95,89" id="10" fill="rgb(19,244,248)" fill-opacity="0.501961" />
<polygon points="58,4 0,89 0,-17" id="11" fill="rgb(0,0,0)" fill-opacity="0.501961" />
<polygon points="119,142 179,107 137,97" id="12" fill="rgb(8,0,40)" fill-opacity="0.501961" />
<polygon points="144,72 79,6 51,160" id="13" fill="rgb(20,56,89)" fill-opacity="0.501961" />
<polygon points="141,70 194,82 209,0" id="14" fill="rgb(0,21,68)" fill-opacity="0.501961" />
<polygon points="98,160 141,116 201,157" id="15" fill="rgb(16,25,94)" fill-opacity="0.501961" />
<polygon points="98,42 94,0 176,0" id="16" fill="rgb(19,182,255)" fill-opacity="0.501961" />
<polygon points="140,55 178,-18 209,1" id="17" fill="rgb(0,82,203)" fill-opacity="0.501961" />
<polygon points="256,150 223,126 214,178" id="18" fill="rgb(5,70,112)" fill-opacity="0.501961" />
<polygon points="142,93 249,70 56,127" id="19" fill="rgb(2,12,53)" fill-opacity="0.501961" />
<polygon points="256,144 181,49 256,0" id="20" fill="rgb(0,0,0)" fill-opacity="0.501961" />
<polygon points="64,8 105,17 106,59" id="21" fill="rgb(15,75,149)" fill-opacity="0.501961" />
<polygon points="82,48 29,28 16,160" id="22" fill="rgb(7,3,30)" fill-opacity="0.501961" />
<polygon points="172,91 246,160 196,95" id="23" fill="rgb(5,99,140)" fill-opacity="0.501961" />
<polygon points="127,119 119,80 93,76" id="24" fill="rgb(24,105,150)" fill-opacity="0.501961" />
<polygon points="237,144 188,152 202,160" id="25" fill="rgb(10,137,178)" fill-opacity="0.501961" />
<polygon points="68,120 63,138 0,118" id="26" fill="rgb(0,0,10)" fill-opacity="0.501961" />
<polygon points="131,44 127,55 194,71" id="27" fill="rgb(11,138,176)" fill-opacity="0.501961" />
<polygon points="158,84 120,99 129,97" id="28" fill="rgb(27,255,255)" fill-opacity="0.501961" />
<polygon points="107,20 68,0 184,0" id="29" fill="rgb(9,189,255)" fill-opacity="0.501961" />
<polygon points="159,45 122,20 137,55" id="30" fill="rgb(20,131,203)" fill-opacity="0.501961" />
<polygon points="243,69 167,93 203,96" id="31" fill="rgb(0,0,18)" fill-opacity="0.501961" />
<polygon points="256,117 217,0 256,0" id="32" fill="rgb(0,0,0)" fill-opacity="0.501961" />
<polygon points="224,150 160,128 178,100" id="33" fill="rgb(13,183,207)" fill-opacity="0.501961" />
<polygon points="119,94 117,148 2,156" id="34" fill="rgb(13,38,58)" fill-opacity="0.501961" />
<polygon points="139,137 54,119 177,100" id="35" fill="rgb(9,23,54)" fill-opacity="0.501961" />
<polygon points="0,75 0,0 51,0" id="36" fill="rgb(0,0,0)" fill-opacity="0.501961" />
<polygon points="143,78 180,69 81,43" id="37" fill="rgb(11,29,72)" fill-opacity="0.501961" />
<polygon points="180,0 142,43 95,37" id="38" fill="rgb(14,134,221)" fill-opacity="0.501961" />
<polygon points="104,41 144,44 85,59" id="39" fill="rgb(15,70,121)" fill-opacity="0.501961" />
<polygon points="125,107 168,117 168,121" id="40" fill="rgb(2,23,71)" fill-opacity="0.501961" />
<polygon points="256,150 256,160 198,160" id="41" fill="rgb(3,31,74)" fill-opacity="0.501961" />
<polygon points="141,33 153,57 183,30" id="42" fill="rgb(4,54,121)" fill-opacity="0.501961" />
<polygon points="0,149 37,160 32,150" id="43" fill="rgb(71,68,71)" fill-opacity="0.501961" />
<polygon points="175,82 159,86 130,82" id="44" fill="rgb(17,255,255)" fill-opacity="0.501961" />
<polygon points="151,133 130,99 141,160" id="45" fill="rgb(11,13,33)" fill-opacity="0.501961" />
<polygon points="142,48 146,53 121,51" id="46" fill="rgb(13,243,250)" fill-opacity="0.501961" />
<polygon points="183,77 144,76 180,88" id="47" fill="rgb(9,182,204)" fill-opacity="0.501961" />
<polygon points="125,60 55,74 154,81" id="48" fill="rgb(19,56,90)" fill-opacity="0.501961" />
<polygon points="113,78 122,78 96,81" id="49" fill="rgb(55,248,253)" fill-opacity="0.501961" />
<polygon points="143,89 104,83 198,106" id="50" fill="rgb(19,158,197)" fill-opacity="0.501961" />
<polygon points="152,144 138,183 190,143" id="51" fill="rgb(13,44,107)" fill-opacity="0.501961" />
<polygon points="135,97 170,87 208,89" id="52" fill="rgb(2,10,63)" fill-opacity="0.501961" />
<polygon points="71,85 160,90 46,88" id="53" fill="rgb(24,61,94)" fill-opacity="0.501961" />
<polygon points="132,53 92,81 153,70" id="54" fill="rgb(13,38,79)" fill-opacity="0.501961" />
<polygon points="117,83 129,125 122,112" id="55" fill="rgb(20,147,200)" fill-opacity="0.501961" />
<polygon points="134,109 176,109 168,99" id="56" fill="rgb(5,3,55)" fill-opacity="0.501961" />
<polygon points="233,64 160,74 235,77" id="57" fill="rgb(0,0,19)" fill-opacity="0.501961" />
<polygon points="50,89 119,80 83,96" id="58" fill="rgb(21,81,106)" fill-opacity="0.501961" />
<polygon points="57,0 75,14 85,8" id="59" fill="rgb(0,106,168)" fill-opacity="0.501961" />
<polygon points="45,77 63,73 74,78" id="60" fill="rgb(60,87,100)" fill-opacity="0.501961" />
<polygon points="158,127 209,124 159,123" id="61" fill="rgb(14,229,242)" fill-opacity="0.501961" />
<polygon points="164,95 180,102 189,95" id="62" fill="rgb(11,223,238)" fill-opacity="0.501961" />
<polygon points="211,8 177,38 192,0" id="63" fill="rgb(0,43,118)" fill-opacity="0.501961" />
<polygon points="181,82 137,85 190,85" id="64" fill="rgb(13,251,255)" fill-opacity="0.501961" />
<polygon points="98,33 115,35 109,46" id="65" fill="rgb(21,190,212)" fill-opacity="0.501961" />
<polygon points="40,109 65,121 141,87" id="66" fill="rgb(18,53,79)" fill-opacity="0.501961" />
<polygon points="64,76 106,52 155,56" id="67" fill="rgb(13,61,104)" fill-opacity="0.501961" />
<polygon points="53,6 5,95 81,61" id="68" fill="rgb(5,6,36)" fill-opacity="0.501961" />
<polygon points="99,38 49,0 84,54" id="69" fill="rgb(13,26,64)" fill-opacity="0.501961" />
<polygon points="200,115 218,160 172,94" id="70" fill="rgb(10,144,178)" fill-opacity="0.501961" />
<polygon points="179,87 164,94 122,88" id="71" fill="rgb(7,54,115)" fill-opacity="0.501961" />
<polygon points="151,2 183,1 164,25" id="72" fill="rgb(0,147,238)" fill-opacity="0.501961" />
<polygon points="1,112 1,108 12,104" id="73" fill="rgb(139,86,83)" fill-opacity="0.501961" />
<polygon points="149,54 175,70 197,64" id="74" fill="rgb(8,85,124)" fill-opacity="0.501961" />
<polygon points="126,96 121,98 120,113" id="75" fill="rgb(23,214,244)" fill-opacity="0.501961" />
<polygon points="256,77 256,80 152,81" id="76" fill="rgb(0,0,20)" fill-opacity="0.501961" />
<polygon points="221,89 190,44 161,49" id="77" fill="rgb(3,13,46)" fill-opacity="0.501961" />
<polygon points="135,76 100,84 132,85" id="78" fill="rgb(13,26,65)" fill-opacity="0.501961" />
<polygon points="255,130 208,43 225,128" id="79" fill="rgb(0,1,26)" fill-opacity="0.501961" />
<polygon points="220,74 256,148 187,83" id="80" fill="rgb(0,6,28)" fill-opacity="0.501961" />
<polygon points="163,110 212,111 190,109" id="81" fill="rgb(6,56,104)" fill-opacity="0.501961" />
</svg>