<?xml version="1.0" standalone="no"?>
<svg xmlns="http://www.w3.org/2000/svg" version="1.2" baseProfile="tiny" width="256" height="170" viewBox="0 0 256 170">
<rect x="0" y="0" width="256" height="170" id="0" fill="rgb(160,161,156)" fill-opacity="1" />
<polygon points="169,0 256,0 255,170" id="1" fill="rgb(9,28,51)" fill-opacity="0.501961" />
<polygon points="174,0 0,1 0,170" id="2" fill="rgb(211,210,197)" fill-opacity="0.501961" />
<polygon points="137,170 165,0 231,127" id="3" fill="rgb(208,206,193)" fill-opacity="0.501961" />
<polygon points="170,170 254,170 232,123" id="4" fill="rgb(71,78,85)" fill-opacity="0.501961" />
<polygon points="74,0 47,139 35,71" id="5" fill="rgb(128,126,118)" fill-opacity="0.501961" />
<polygon points="21,101 89,170 13,170" id="6" fill="rgb(219,218,205)" fill-opacity="0.501961" />
<polygon points="247,170 200,68 256,92" id="7" fill="rgb(99,140,162)" fill-opacity="0.501961" />
<polygon points="87,129 69,66 159,102" id="8" fill="rgb(127,124,102)" fill-opacity="0.501961" />
<polygon points="82,133 121,145 168,109" id="9" fill="rgb(227,225,213)" fill-opacity="0.501961" />
<polygon points="101,90 135,30 79,38" id="10" fill="rgb(226,226,217)" fill-opacity="0.501961" />
<polygon points="255,0 224,0 256,93" id="11" fill="rgb(52,46,48)" fill-opacity="0.501961" />
<polygon points="143,79 141,108 153,66" id="12" fill="rgb(11,10,0)" fill-opacity="0.501961" />
<polygon points="85,136 60,99 76,80" id="13" fill="rgb(233,232,222)" fill-opacity="0.501961" />
<polygon points="133,36 169,0 135,91" id="14" fill="rgb(215,213,200)" fill-opacity="0.501961" />
<polygon points="57,62 111,0 71,13" id="15" fill="rgb(135,134,120)" fill-opacity="0.501961" />
<polygon points="0,19 83,0 4,85" id="16" fill="rgb(212,212,205)" fill-opacity="0.501961" />
<polygon points="0,0 0,19 45,0" id="17" fill="rgb(102,106,126)" fill-opacity="0.501961" />
<polygon points="75,146 53,118 55,79" id="18" fill="rgb(124,121,110)" fill-opacity="0.501961" />
<polygon points="108,116 83,110 99,123" id="19" fill="rgb(19,18,9)" fill-opacity="0.501961" />
<polygon points="224,130 163,170 106,170" id="20" fill="rgb(209,205,193)" fill-opacity="0.501961" />
<polygon points="173,39 182,115 139,10" id="21" fill="rgb(152,149,136)" fill-opacity="0.501961" />
<polygon points="59,78 126,134 153,133" id="22" fill="rgb(197,196,184)" fill-opacity="0.501961" />
<polygon points="123,74 101,20 58,67" id="23" fill="rgb(216,216,206)" fill-opacity="0.501961" />
<polygon points="115,0 83,27 153,21" id="24" fill="rgb(152,151,136)" fill-opacity="0.501961" />
<polygon points="156,151 180,109 103,156" id="25" fill="rgb(150,146,130)" fill-opacity="0.501961" />
<polygon points="25,52 50,138 0,99" id="26" fill="rgb(209,209,201)" fill-opacity="0.501961" />
<polygon points="130,123 133,44 121,53" id="27" fill="rgb(122,116,93)" fill-opacity="0.501961" />
<polygon points="134,0 199,70 170,0" id="28" fill="rgb(211,211,205)" fill-opacity="0.501961" />
<polygon points="46,121 94,166 62,143" id="29" fill="rgb(88,83,70)" fill-opacity="0.501961" />
<polygon points="59,99 102,134 80,130" id="30" fill="rgb(222,221,213)" fill-opacity="0.501961" />
<polygon points="166,90 155,50 148,119" id="31" fill="rgb(220,220,213)" fill-opacity="0.501961" />
<polygon points="62,156 90,170 131,170" id="32" fill="rgb(219,217,201)" fill-opacity="0.501961" />
<polygon points="144,74 151,56 143,114" id="33" fill="rgb(52,52,38)" fill-opacity="0.501961" />
<polygon points="95,58 98,80 166,134" id="34" fill="rgb(185,183,170)" fill-opacity="0.501961" />
<polygon points="43,47 45,60 65,19" id="35" fill="rgb(109,106,99)" fill-opacity="0.501961" />
<polygon points="256,0 176,11 171,0" id="36" fill="rgb(60,51,52)" fill-opacity="0.501961" />
</svg>