<?xml version="1.0" standalone="no"?>
<svg xmlns="http://www.w3.org/2000/svg" version="1.2" baseProfile="tiny" width="256" height="204" viewBox="0 0 256 204">
<rect x="0" y="0" width="256" height="204" id="0" fill="rgb(168,173,179)" fill-opacity="1" />
<polygon points="0,117 256,202 0,204" id="1" fill="rgb(0,0,0)" fill-opacity="0.501961" />
<polygon points="256,0 30,156 0,0" id="2" fill="rgb(255,255,255)" fill-opacity="0.501961" />
<polygon points="256,204 0,201 254,154" id="3" fill="rgb(0,0,0)" fill-opacity="0.501961" />
<polygon points="253,141 0,0 256,0" id="4" fill="rgb(255,255,255)" fill-opacity="0.501961" />
<polygon points="23,121 256,187 0,204" id="5" fill="rgb(45,48,61)" fill-opacity="0.501961" />
<polygon points="182,130 0,125 0,16" id="6" fill="rgb(225,229,236)" fill-opacity="0.501961" />
<polygon points="256,166 44,160 0,112" id="7" fill="rgb(134,146,162)" fill-opacity="0.501961" />
<polygon points="255,204 256,176 0,173" id="8" fill="rgb(7,6,8)" fill-opacity="0.501961" />
<polygon points="200,109 191,166 195,196" id="9" fill="rgb(5,12,26)" fill-opacity="0.501961" />
<polygon points="0,151 59,170 0,204" id="10" fill="rgb(10,11,15)" fill-opacity="0.501961" />
<polygon points="167,154 156,57 256,0" id="11" fill="rgb(232,238,245)" fill-opacity="0.501961" />
<polygon points="138,53 173,85 48,132" id="12" fill="rgb(178,183,191)" fill-opacity="0.501961" />
<polygon points="256,169 256,91 205,165" id="13" fill="rgb(165,177,191)" fill-opacity="0.501961" />
<polygon points="34,88 13,1 256,30" id="14" fill="rgb(235,241,248)" fill-opacity="0.501961" />
<polygon points="144,111 117,154 49,57" id="15" fill="rgb(220,222,226)" fill-opacity="0.501961" />
<polygon points="91,204 256,204 255,172" id="16" fill="rgb(22,23,28)" fill-opacity="0.501961" />
<polygon points="195,131 193,99 206,109" id="17" fill="rgb(85,90,103)" fill-opacity="0.501961" />
<polygon points="101,187 59,199 116,204" id="18" fill="rgb(101,96,96)" fill-opacity="0.501961" />
<polygon points="136,100 153,93 152,115" id="19" fill="rgb(71,83,101)" fill-opacity="0.501961" />
<polygon points="255,0 255,94 146,114" id="20" fill="rgb(224,230,237)" fill-opacity="0.501961" />
<polygon points="132,149 215,169 84,173" id="21" fill="rgb(97,108,124)" fill-opacity="0.501961" />
<polygon points="201,145 256,133 204,85" id="22" fill="rgb(199,205,212)" fill-opacity="0.501961" />
<polygon points="24,204 56,203 10,177" id="23" fill="rgb(100,94,94)" fill-opacity="0.501961" />
<polygon points="127,110 194,120 193,166" id="24" fill="rgb(183,188,196)" fill-opacity="0.501961" />
<polygon points="62,125 0,8 0,123" id="25" fill="rgb(213,216,221)" fill-opacity="0.501961" />
<polygon points="11,137 0,172 64,204" id="26" fill="rgb(27,29,35)" fill-opacity="0.501961" />
<polygon points="148,63 162,80 158,94" id="27" fill="rgb(124,129,136)" fill-opacity="0.501961" />
<polygon points="33,164 104,182 256,173" id="28" fill="rgb(51,56,68)" fill-opacity="0.501961" />
<polygon points="106,131 54,127 69,154" id="29" fill="rgb(129,137,149)" fill-opacity="0.501961" />
<polygon points="194,175 196,136 201,189" id="30" fill="rgb(13,15,21)" fill-opacity="0.501961" />
<polygon points="27,10 6,27 26,2" id="31" fill="rgb(147,155,169)" fill-opacity="0.501961" />
<polygon points="64,158 56,148 6,170" id="32" fill="rgb(54,61,76)" fill-opacity="0.501961" />
<polygon points="140,178 144,105 145,163" id="33" fill="rgb(187,184,182)" fill-opacity="0.501961" />
</svg>