<?xml version="1.0" standalone="no"?>
<svg xmlns="http://www.w3.org/2000/svg" version="1.2" baseProfile="tiny" width="256" height="204" viewBox="0 0 256 204">
<rect x="0" y="0" width="256" height="204" id="0" fill="rgb(157,157,158)" fill-opacity="1" />
<polygon points="1,78 256,202 0,204" id="1" fill="rgb(0,0,0)" fill-opacity="0.501961" />
<polygon points="0,0 256,0 240,159" id="2" fill="rgb(255,255,255)" fill-opacity="0.501961" />
<polygon points="235,129 0,179 256,204" id="3" fill="rgb(0,0,0)" fill-opacity="0.501961" />
<polygon points="256,0 0,0 2,94" id="4" fill="rgb(255,255,255)" fill-opacity="0.501961" />
<polygon points="97,149 59,157 104,14" id="5" fill="rgb(255,255,255)" fill-opacity="0.501961" />
<polygon points="256,0 236,158 115,2" id="6" fill="rgb(255,255,255)" fill-opacity="0.501961" />
<polygon points="0,119 48,112 0,148" id="7" fill="rgb(255,255,255)" fill-opacity="0.501961" />
<polygon points="2,77 4,0 118,78" id="8" fill="rgb(255,255,255)" fill-opacity="0.501961" />
<polygon points="98,204 185,136 276,179" id="9" fill="rgb(14,15,18)" fill-opacity="0.501961" />
<polygon points="229,117 6,116 37,72" id="10" fill="rgb(127,120,118)" fill-opacity="0.501961" />
<polygon points="191,204 5,190 129,129" id="11" fill="rgb(28,26,27)" fill-opacity="0.501961" />
<polygon points="50,111 0,170 75,197" id="12" fill="rgb(15,14,17)" fill-opacity="0.501961" />
<polygon points="65,21 108,0 105,27" id="13" fill="rgb(48,99,160)" fill-opacity="0.501961" />
<polygon points="256,123 66,117 68,133" id="14" fill="rgb(237,237,242)" fill-opacity="0.501961" />
</svg>