<?xml version="1.0" standalone="no"?>
<svg xmlns="http://www.w3.org/2000/svg" version="1.2" baseProfile="tiny" width="256" height="170" viewBox="0 0 256 170">
<rect x="0" y="0" width="256" height="170" id="0" fill="rgb(80,72,69)" fill-opacity="1" />
<polygon points="91,0 256,0 253,64" id="1" fill="rgb(255,255,255)" fill-opacity="0.501961" />
<polygon points="256,168 0,80 0,170" id="2" fill="rgb(0,0,0)" fill-opacity="0.501961" />
<polygon points="256,0 138,0 256,38" id="3" fill="rgb(255,255,255)" fill-opacity="0.501961" />
<polygon points="148,0 256,59 82,58" id="4" fill="rgb(135,128,127)" fill-opacity="0.501961" />
<polygon points="256,170 256,79 0,170" id="5" fill="rgb(23,10,7)" fill-opacity="0.501961" />
<polygon points="154,26 197,9 94,11" id="6" fill="rgb(34,22,20)" fill-opacity="0.501961" />
<polygon points="250,0 191,0 186,60" id="7" fill="rgb(255,255,255)" fill-opacity="0.501961" />
<polygon points="52,15 256,71 256,34" id="8" fill="rgb(125,119,119)" fill-opacity="0.501961" />
<polygon points="124,51 159,151 0,93" id="9" fill="rgb(68,49,42)" fill-opacity="0.501961" />
<polygon points="57,121 252,126 256,45" id="10" fill="rgb(75,62,56)" fill-opacity="0.501961" />
<polygon points="92,19 105,0 64,1" id="11" fill="rgb(193,196,198)" fill-opacity="0.501961" />
<polygon points="0,30 0,57 21,54" id="12" fill="rgb(148,159,172)" fill-opacity="0.501961" />
<polygon points="160,81 256,27 243,72" id="13" fill="rgb(110,105,106)" fill-opacity="0.501961" />
<polygon points="108,135 0,113 53,13" id="14" fill="rgb(62,52,47)" fill-opacity="0.501961" />
<polygon points="153,0 256,0 256,25" id="15" fill="rgb(255,255,255)" fill-opacity="0.501961" />
<polygon points="142,115 123,99 122,122" id="16" fill="rgb(226,118,77)" fill-opacity="0.501961" />
<polygon points="62,40 225,33 133,42" id="17" fill="rgb(174,171,169)" fill-opacity="0.501961" />
<polygon points="94,26 126,108 108,6" id="18" fill="rgb(60,45,41)" fill-opacity="0.501961" />
<polygon points="219,45 113,46 118,76" id="19" fill="rgb(132,129,127)" fill-opacity="0.501961" />
<polygon points="140,41 142,96 202,115" id="20" fill="rgb(64,54,52)" fill-opacity="0.501961" />
<polygon points="128,37 136,90 77,147" id="21" fill="rgb(52,41,37)" fill-opacity="0.501961" />
<polygon points="76,27 93,16 46,13" id="22" fill="rgb(157,155,156)" fill-opacity="0.501961" />
<polygon points="204,0 192,52 227,2" id="23" fill="rgb(255,255,255)" fill-opacity="0.501961" />
<polygon points="209,26 90,24 256,35" id="24" fill="rgb(195,190,187)" fill-opacity="0.501961" />
<polygon points="0,126 0,170 253,170" id="25" fill="rgb(23,12,6)" fill-opacity="0.501961" />
<polygon points="100,55 36,47 135,46" id="26" fill="rgb(140,133,130)" fill-opacity="0.501961" />
<polygon points="180,61 173,19 256,47" id="27" fill="rgb(153,147,145)" fill-opacity="0.501961" />
<polygon points="120,37 187,30 76,34" id="28" fill="rgb(53,33,25)" fill-opacity="0.501961" />
<polygon points="196,8 171,45 136,24" id="29" fill="rgb(121,112,112)" fill-opacity="0.501961" />
<polygon points="63,5 137,0 133,5" id="30" fill="rgb(217,233,238)" fill-opacity="0.501961" />
<polygon points="29,9 25,0 34,0" id="31" fill="rgb(190,200,204)" fill-opacity="0.501961" />
<polygon points="141,31 115,6 151,8" id="32" fill="rgb(63,56,53)" fill-opacity="0.501961" />
<polygon points="61,80 32,0 54,0" id="33" fill="rgb(66,47,42)" fill-opacity="0.501961" />
<polygon points="151,97 155,43 164,10" id="34" fill="rgb(165,162,160)" fill-opacity="0.501961" />
<polygon points="128,23 128,0 126,0" id="35" fill="rgb(21,6,1)" fill-opacity="0.501961" />
<polygon points="34,27 60,73 -4,30" id="36" fill="rgb(51,47,43)" fill-opacity="0.501961" />
<polygon points="25,84 -3,36 24,68" id="37" fill="rgb(46,35,34)" fill-opacity="0.501961" />
<polygon points="7,99 61,15 2,70" id="38" fill="rgb(90,85,84)" fill-opacity="0.501961" />
<polygon points="14,17 0,20 0,31" id="39" fill="rgb(143,165,165)" fill-opacity="0.501961" />
<polygon points="41,28 30,0 35,18" id="40" fill="rgb(184,179,179)" fill-opacity="0.501961" />
<polygon points="112,10 0,7 109,2" id="41" fill="rgb(114,109,108)" fill-opacity="0.501961" />
<polygon points="95,16 131,25 95,5" id="42" fill="rgb(52,38,35)" fill-opacity="0.501961" />
<polygon points="128,69 87,76 200,77" id="43" fill="rgb(107,100,97)" fill-opacity="0.501961" />
<polygon points="118,62 103,49 112,32" id="44" fill="rgb(47,34,32)" fill-opacity="0.501961" />
<polygon points="214,51 256,55 256,51" id="45" fill="rgb(47,37,36)" fill-opacity="0.501961" />
<polygon points="75,27 79,68 98,97" id="46" fill="rgb(116,106,103)" fill-opacity="0.501961" />
<polygon points="0,9 -18,16 54,13" id="47" fill="rgb(28,13,2)" fill-opacity="0.501961" />
<polygon points="0,131 179,123 256,165" id="48" fill="rgb(35,25,22)" fill-opacity="0.501961" />
<polygon points="122,55 140,58 138,52" id="49" fill="rgb(196,194,194)" fill-opacity="0.501961" />
<polygon points="131,134 146,37 160,143" id="50" fill="rgb(57,49,47)" fill-opacity="0.501961" />
<polygon points="242,170 237,170 211,80" id="51" fill="rgb(12,6,4)" fill-opacity="0.501961" />
<polygon points="238,25 256,4 217,0" id="52" fill="rgb(255,255,255)" fill-opacity="0.501961" />
<polygon points="81,26 97,39 5,33" id="53" fill="rgb(56,35,27)" fill-opacity="0.501961" />
<polygon points="189,90 212,170 223,64" id="54" fill="rgb(62,55,53)" fill-opacity="0.501961" />
<polygon points="31,88 39,69 61,77" id="55" fill="rgb(100,93,90)" fill-opacity="0.501961" />
<polygon points="11,82 17,80 0,66" id="56" fill="rgb(157,161,172)" fill-opacity="0.501961" />
<polygon points="31,64 14,65 100,64" id="57" fill="rgb(15,0,0)" fill-opacity="0.501961" />
<polygon points="129,105 80,86 152,88" id="58" fill="rgb(51,36,31)" fill-opacity="0.501961" />
<polygon points="11,0 0,23 0,0" id="59" fill="rgb(39,43,40)" fill-opacity="0.501961" />
<polygon points="98,0 65,4 104,5" id="60" fill="rgb(199,203,204)" fill-opacity="0.501961" />
<polygon points="13,46 135,44 15,42" id="61" fill="rgb(29,14,11)" fill-opacity="0.501961" />
<polygon points="23,44 43,25 32,55" id="62" fill="rgb(99,105,97)" fill-opacity="0.501961" />
<polygon points="26,27 0,85 0,89" id="63" fill="rgb(14,0,0)" fill-opacity="0.501961" />
<polygon points="127,0 130,47 128,58" id="64" fill="rgb(26,16,14)" fill-opacity="0.501961" />
<polygon points="13,44 -9,45 -19,44" id="65" fill="rgb(0,0,0)" fill-opacity="0.501961" />
<polygon points="78,54 72,34 62,7" id="66" fill="rgb(31,14,12)" fill-opacity="0.501961" />
<polygon points="225,36 223,21 250,30" id="67" fill="rgb(176,177,181)" fill-opacity="0.501961" />
<polygon points="60,106 98,170 5,23" id="68" fill="rgb(32,21,16)" fill-opacity="0.501961" />
<polygon points="44,114 73,115 30,85" id="69" fill="rgb(73,68,62)" fill-opacity="0.501961" />
<polygon points="166,9 126,0 209,7" id="70" fill="rgb(231,237,238)" fill-opacity="0.501961" />
<polygon points="248,136 231,91 256,160" id="71" fill="rgb(109,120,117)" fill-opacity="0.501961" />
<polygon points="7,60 -18,42 -6,43" id="72" fill="rgb(210,234,255)" fill-opacity="0.501961" />
<polygon points="51,1 63,0 24,0" id="73" fill="rgb(21,3,0)" fill-opacity="0.501961" />
<polygon points="78,7 88,29 89,-2" id="74" fill="rgb(100,91,90)" fill-opacity="0.501961" />
<polygon points="40,95 52,81 51,57" id="75" fill="rgb(35,17,14)" fill-opacity="0.501961" />
<polygon points="123,51 119,46 113,47" id="76" fill="rgb(255,255,255)" fill-opacity="0.501961" />
<polygon points="111,8 0,9 11,10" id="77" fill="rgb(139,144,141)" fill-opacity="0.501961" />
<polygon points="211,25 229,33 162,25" id="78" fill="rgb(226,222,218)" fill-opacity="0.501961" />
<polygon points="256,37 256,43 201,34" id="79" fill="rgb(86,79,77)" fill-opacity="0.501961" />
<polygon points="97,134 75,64 73,97" id="80" fill="rgb(88,81,75)" fill-opacity="0.501961" />
<polygon points="183,38 189,35 189,-9" id="81" fill="rgb(153,145,137)" fill-opacity="0.501961" />
<polygon points="4,52 -30,50 0,39" id="82" fill="rgb(36,26,22)" fill-opacity="0.501961" />
<polygon points="58,28 90,16 90,24" id="83" fill="rgb(150,147,145)" fill-opacity="0.501961" />
<polygon points="147,103 119,123 120,114" id="84" fill="rgb(179,109,67)" fill-opacity="0.501961" />
<polygon points="164,34 158,4 172,25" id="85" fill="rgb(103,95,95)" fill-opacity="0.501961" />
<polygon points="200,30 252,0 193,0" id="86" fill="rgb(255,255,255)" fill-opacity="0.501961" />
<polygon points="256,44 269,42 181,38" id="87" fill="rgb(176,178,182)" fill-opacity="0.501961" />
<polygon points="22,42 1,16 0,18" id="88" fill="rgb(23,14,12)" fill-opacity="0.501961" />
<polygon points="154,14 178,121 161,40" id="89" fill="rgb(65,49,49)" fill-opacity="0.501961" />
<polygon points="45,59 94,139 55,53" id="90" fill="rgb(49,38,32)" fill-opacity="0.501961" />
<polygon points="63,5 69,6 64,-3" id="91" fill="rgb(217,230,240)" fill-opacity="0.501961" />
<polygon points="13,45 42,0 3,64" id="92" fill="rgb(37,26,19)" fill-opacity="0.501961" />
<polygon points="68,42 84,42 131,39" id="93" fill="rgb(170,165,165)" fill-opacity="0.501961" />
<polygon points="256,0 216,0 235,36" id="94" fill="rgb(247,253,255)" fill-opacity="0.501961" />
<polygon points="20,50 0,22 31,63" id="95" fill="rgb(145,149,159)" fill-opacity="0.501961" />
<polygon points="136,93 140,65 131,42" id="96" fill="rgb(154,150,147)" fill-opacity="0.501961" />
<polygon points="147,120 131,94 136,62" id="97" fill="rgb(72,62,59)" fill-opacity="0.501961" />
<polygon points="201,44 181,25 202,53" id="98" fill="rgb(215,213,209)" fill-opacity="0.501961" />
<polygon points="84,15 63,116 85,0" id="99" fill="rgb(51,26,25)" fill-opacity="0.501961" />
<polygon points="13,65 1,57 14,72" id="100" fill="rgb(145,153,165)" fill-opacity="0.501961" />
<polygon points="206,90 166,58 211,57" id="101" fill="rgb(97,88,85)" fill-opacity="0.501961" />
<polygon points="256,55 201,110 256,70" id="102" fill="rgb(62,52,52)" fill-opacity="0.501961" />
<polygon points="91,0 93,19 88,22" id="103" fill="rgb(228,232,232)" fill-opacity="0.501961" />
<polygon points="7,63 17,76 -15,50" id="104" fill="rgb(29,20,23)" fill-opacity="0.501961" />
<polygon points="225,23 244,57 224,17" id="105" fill="rgb(90,85,87)" fill-opacity="0.501961" />
<polygon points="76,102 53,170 82,59" id="106" fill="rgb(51,36,30)" fill-opacity="0.501961" />
</svg>