<?xml version="1.0" standalone="no"?>
<svg xmlns="http://www.w3.org/2000/svg" version="1.2" baseProfile="tiny" width="256" height="170" viewBox="0 0 256 170">
<rect x="0" y="0" width="256" height="170" id="0" fill="rgb(80,75,71)" fill-opacity="1" />
<polygon points="84,66 256,43 38,0" id="1" fill="rgb(239,221,209)" fill-opacity="0.501961" />
<polygon points="256,170 251,53 88,168" id="2" fill="rgb(0,0,0)" fill-opacity="0.501961" />
<polygon points="256,21 0,33 0,8" id="3" fill="rgb(225,187,164)" fill-opacity="0.501961" />
<polygon points="0,34 38,138 80,64" id="4" fill="rgb(0,0,0)" fill-opacity="0.501961" />
<polygon points="5,126 27,97 0,64" id="5" fill="rgb(230,226,223)" fill-opacity="0.501961" />
<polygon points="145,123 102,156 117,45" id="6" fill="rgb(0,0,0)" fill-opacity="0.501961" />
<polygon points="165,78 140,112 110,0" id="7" fill="rgb(149,146,147)" fill-opacity="0.501961" />
<polygon points="98,0 50,0 90,87" id="8" fill="rgb(194,170,161)" fill-opacity="0.501961" />
<polygon points="33,99 89,97 70,27" id="9" fill="rgb(0,1,12)" fill-opacity="0.501961" />
<polygon points="199,146 252,170 238,54" id="10" fill="rgb(0,0,0)" fill-opacity="0.501961" />
<polygon points="167,121 207,119 201,4" id="11" fill="rgb(125,99,80)" fill-opacity="0.501961" />
<polygon points="221,77 221,53 235,85" id="12" fill="rgb(228,201,180)" fill-opacity="0.501961" />
<polygon points="115,44 144,50 113,76" id="13" fill="rgb(48,34,35)" fill-opacity="0.501961" />
<polygon points="95,57 190,18 103,18" id="14" fill="rgb(189,192,195)" fill-opacity="0.501961" />
<polygon points="102,0 99,20 132,17" id="15" fill="rgb(7,43,22)" fill-opacity="0.501961" />
<polygon points="151,132 172,33 176,81" id="16" fill="rgb(28,20,20)" fill-opacity="0.501961" />
<polygon points="100,46 146,33 256,51" id="17" fill="rgb(200,191,180)" fill-opacity="0.501961" />
<polygon points="125,170 25,118 256,170" id="18" fill="rgb(22,22,23)" fill-opacity="0.501961" />
<polygon points="240,15 256,19 134,22" id="19" fill="rgb(195,206,216)" fill-opacity="0.501961" />
<polygon points="86,32 84,88 121,66" id="20" fill="rgb(140,131,121)" fill-opacity="0.501961" />
<polygon points="256,49 127,0 127,33" id="21" fill="rgb(137,142,123)" fill-opacity="0.501961" />
<polygon points="0,32 3,56 0,56" id="22" fill="rgb(255,255,255)" fill-opacity="0.501961" />
<polygon points="209,77 209,170 250,98" id="23" fill="rgb(0,0,0)" fill-opacity="0.501961" />
<polygon points="79,9 87,80 71,27" id="24" fill="rgb(255,244,240)" fill-opacity="0.501961" />
<polygon points="172,101 131,64 149,59" id="25" fill="rgb(175,171,171)" fill-opacity="0.501961" />
<polygon points="116,129 54,93 53,117" id="26" fill="rgb(116,126,141)" fill-opacity="0.501961" />
<polygon points="134,17 256,15 256,0" id="27" fill="rgb(21,55,27)" fill-opacity="0.501961" />
<polygon points="104,82 131,77 123,154" id="28" fill="rgb(0,0,4)" fill-opacity="0.501961" />
<polygon points="0,39 0,6 96,0" id="29" fill="rgb(184,127,104)" fill-opacity="0.501961" />
<polygon points="35,112 45,67 4,59" id="30" fill="rgb(0,0,3)" fill-opacity="0.501961" />
<polygon points="87,137 84,161 58,74" id="31" fill="rgb(0,4,26)" fill-opacity="0.501961" />
<polygon points="216,17 193,36 256,45" id="32" fill="rgb(80,69,71)" fill-opacity="0.501961" />
<polygon points="256,66 242,51 212,70" id="33" fill="rgb(0,0,0)" fill-opacity="0.501961" />
<polygon points="0,127 33,121 0,93" id="34" fill="rgb(120,118,117)" fill-opacity="0.501961" />
<polygon points="49,0 97,0 96,5" id="35" fill="rgb(255,218,204)" fill-opacity="0.501961" />
<polygon points="212,101 124,150 135,103" id="36" fill="rgb(57,50,49)" fill-opacity="0.501961" />
<polygon points="240,44 219,69 225,21" id="37" fill="rgb(142,144,161)" fill-opacity="0.501961" />
<polygon points="8,99 13,71 0,68" id="38" fill="rgb(223,216,209)" fill-opacity="0.501961" />
<polygon points="59,0 84,6 63,14" id="39" fill="rgb(78,43,44)" fill-opacity="0.501961" />
<polygon points="53,69 0,58 77,39" id="40" fill="rgb(67,55,51)" fill-opacity="0.501961" />
<polygon points="20,47 7,39 0,71" id="41" fill="rgb(0,0,0)" fill-opacity="0.501961" />
<polygon points="125,45 117,64 182,61" id="42" fill="rgb(65,58,59)" fill-opacity="0.501961" />
<polygon points="256,44 215,50 256,53" id="43" fill="rgb(171,151,171)" fill-opacity="0.501961" />
<polygon points="176,133 209,150 182,170" id="44" fill="rgb(84,76,72)" fill-opacity="0.501961" />
<polygon points="178,63 211,74 180,75" id="45" fill="rgb(168,156,164)" fill-opacity="0.501961" />
<polygon points="203,170 242,91 212,69" id="46" fill="rgb(0,0,0)" fill-opacity="0.501961" />
<polygon points="34,0 45,8 45,0" id="47" fill="rgb(0,0,0)" fill-opacity="0.501961" />
<polygon points="68,116 50,106 70,146" id="48" fill="rgb(142,141,139)" fill-opacity="0.501961" />
<polygon points="52,0 82,30 16,27" id="49" fill="rgb(220,168,144)" fill-opacity="0.501961" />
</svg>