<?xml version="1.0" standalone="no"?>
<svg xmlns="http://www.w3.org/2000/svg" version="1.2" baseProfile="tiny" width="256" height="192" viewBox="0 0 256 192">
<rect x="0" y="0" width="256" height="192" id="0" fill="rgb(160,160,167)" fill-opacity="1" />
<polygon points="0,192 256,59 256,192" id="1" fill="rgb(71,69,74)" fill-opacity="0.501961" />
<polygon points="256,0 43,104 0,0" id="2" fill="rgb(255,255,255)" fill-opacity="0.501961" />
<polygon points="256,0 256,65 112,71" id="3" fill="rgb(238,239,249)" fill-opacity="0.501961" />
<polygon points="222,58 256,89 146,153" id="4" fill="rgb(60,45,51)" fill-opacity="0.501961" />
<polygon points="103,191 221,61 0,80" id="5" fill="rgb(156,157,163)" fill-opacity="0.501961" />
<polygon points="0,80 239,0 0,0" id="6" fill="rgb(224,224,237)" fill-opacity="0.501961" />
<polygon points="87,144 0,192 0,134" id="7" fill="rgb(107,107,116)" fill-opacity="0.501961" />
<polygon points="200,81 195,192 157,150" id="8" fill="rgb(50,53,54)" fill-opacity="0.501961" />
<polygon points="206,89 256,139 198,151" id="9" fill="rgb(153,155,163)" fill-opacity="0.501961" />
<polygon points="169,79 173,94 256,96" id="10" fill="rgb(71,61,67)" fill-opacity="0.501961" />
<polygon points="151,69 107,103 192,131" id="11" fill="rgb(172,173,178)" fill-opacity="0.501961" />
<polygon points="0,143 169,70 153,176" id="12" fill="rgb(153,154,159)" fill-opacity="0.501961" />
<polygon points="47,85 115,103 108,82" id="13" fill="rgb(109,100,109)" fill-opacity="0.501961" />
<polygon points="256,109 212,76 256,66" id="14" fill="rgb(75,47,59)" fill-opacity="0.501961" />
<polygon points="256,0 41,78 234,67" id="15" fill="rgb(206,205,216)" fill-opacity="0.501961" />
<polygon points="198,150 187,107 192,150" id="16" fill="rgb(0,0,0)" fill-opacity="0.501961" />
<polygon points="173,143 178,126 155,136" id="17" fill="rgb(0,0,0)" fill-opacity="0.501961" />
</svg>