<?xml version="1.0" standalone="no"?>
<svg xmlns="http://www.w3.org/2000/svg" version="1.2" baseProfile="tiny" width="256" height="144" viewBox="0 0 256 144">
<rect x="0" y="0" width="256" height="144" id="0" fill="rgb(31,35,30)" fill-opacity="1" />
<polygon points="92,144 256,144 239,46" id="1" fill="rgb(112,108,112)" fill-opacity="0.501961" />
<polygon points="138,0 144,125 0,0" id="2" fill="rgb(0,0,0)" fill-opacity="0.501961" />
<polygon points="69,128 134,126 123,103" id="3" fill="rgb(49,221,220)" fill-opacity="0.501961" />
<polygon points="0,0 0,144 128,0" id="4" fill="rgb(0,0,0)" fill-opacity="0.501961" />
<polygon points="215,0 208,12 133,12" id="5" fill="rgb(241,237,34)" fill-opacity="0.501961" />
<polygon points="0,1 82,144 0,144" id="6" fill="rgb(0,0,0)" fill-opacity="0.501961" />
<polygon points="201,77 231,88 226,104" id="7" fill="rgb(195,255,217)" fill-opacity="0.501961" />
<polygon points="133,121 112,140 94,144" id="8" fill="rgb(87,255,255)" fill-opacity="0.501961" />
<polygon points="78,115 77,142 98,118" id="9" fill="rgb(44,226,225)" fill-opacity="0.501961" />
<polygon points="148,107 141,12 217,97" id="10" fill="rgb(75,38,11)" fill-opacity="0.501961" />
<polygon points="224,113 203,102 183,106" id="11" fill="rgb(173,255,216)" fill-opacity="0.501961" />
<polygon points="246,143 198,144 225,117" id="12" fill="rgb(3,0,0)" fill-opacity="0.501961" />
<polygon points="159,92 216,80 219,74" id="13" fill="rgb(255,255,63)" fill-opacity="0.501961" />
<polygon points="246,129 228,117 250,144" id="14" fill="rgb(74,255,255)" fill-opacity="0.501961" />
<polygon points="158,103 140,144 211,144" id="15" fill="rgb(159,62,100)" fill-opacity="0.501961" />
<polygon points="88,73 39,99 78,58" id="16" fill="rgb(3,128,126)" fill-opacity="0.501961" />
<polygon points="66,104 93,91 70,110" id="17" fill="rgb(15,255,255)" fill-opacity="0.501961" />
<polygon points="163,32 147,36 131,7" id="18" fill="rgb(186,158,86)" fill-opacity="0.501961" />
<polygon points="138,144 150,121 128,103" id="19" fill="rgb(0,0,0)" fill-opacity="0.501961" />
<polygon points="170,90 159,12 204,6" id="20" fill="rgb(19,2,0)" fill-opacity="0.501961" />
<polygon points="0,144 82,144 0,9" id="21" fill="rgb(0,0,0)" fill-opacity="0.501961" />
<polygon points="86,127 120,117 119,126" id="22" fill="rgb(7,0,0)" fill-opacity="0.501961" />
<polygon points="160,111 220,100 179,106" id="23" fill="rgb(255,255,26)" fill-opacity="0.501961" />
<polygon points="238,91 218,85 209,95" id="24" fill="rgb(151,255,255)" fill-opacity="0.501961" />
<polygon points="0,19 122,75 150,18" id="25" fill="rgb(0,0,0)" fill-opacity="0.501961" />
<polygon points="74,127 91,144 82,143" id="26" fill="rgb(75,255,255)" fill-opacity="0.501961" />
<polygon points="126,144 121,144 104,115" id="27" fill="rgb(54,255,255)" fill-opacity="0.501961" />
<polygon points="64,51 43,73 66,77" id="28" fill="rgb(17,121,118)" fill-opacity="0.501961" />
<polygon points="222,101 256,144 256,78" id="29" fill="rgb(33,55,62)" fill-opacity="0.501961" />
<polygon points="130,78 140,88 119,125" id="30" fill="rgb(0,132,133)" fill-opacity="0.501961" />
<polygon points="228,23 199,66 256,103" id="31" fill="rgb(55,72,63)" fill-opacity="0.501961" />
<polygon points="139,144 127,143 148,88" id="32" fill="rgb(0,0,0)" fill-opacity="0.501961" />
<polygon points="89,90 75,64 57,107" id="33" fill="rgb(7,0,0)" fill-opacity="0.501961" />
<polygon points="201,103 206,83 102,108" id="34" fill="rgb(6,7,9)" fill-opacity="0.501961" />
<polygon points="167,112 164,103 147,119" id="35" fill="rgb(226,155,155)" fill-opacity="0.501961" />
<polygon points="227,26 200,35 204,12" id="36" fill="rgb(108,107,15)" fill-opacity="0.501961" />
<polygon points="143,28 153,21 147,72" id="37" fill="rgb(166,109,101)" fill-opacity="0.501961" />
</svg>