<?xml version="1.0" standalone="no"?>
<svg xmlns="http://www.w3.org/2000/svg" version="1.2" baseProfile="tiny" width="256" height="192" viewBox="0 0 256 192">
<rect x="0" y="0" width="256" height="192" id="0" fill="rgb(98,104,115)" fill-opacity="1" />
<polygon points="249,80 0,100 0,142" id="1" fill="rgb(255,255,255)" fill-opacity="0.501961" />
<polygon points="164,30 244,0 256,121" id="2" fill="rgb(0,0,0)" fill-opacity="0.501961" />
<polygon points="0,46 117,5 142,104" id="3" fill="rgb(132,181,255)" fill-opacity="0.501961" />
<polygon points="256,76 256,192 0,192" id="4" fill="rgb(36,39,54)" fill-opacity="0.501961" />
<polygon points="239,88 0,133 183,73" id="5" fill="rgb(255,249,238)" fill-opacity="0.501961" />
<polygon points="0,106 0,47 160,81" id="6" fill="rgb(25,79,166)" fill-opacity="0.501961" />
<polygon points="92,0 47,0 41,90" id="7" fill="rgb(203,201,228)" fill-opacity="0.501961" />
<polygon points="251,0 139,75 106,0" id="8" fill="rgb(87,69,40)" fill-opacity="0.501961" />
<polygon points="113,125 146,128 110,140" id="9" fill="rgb(255,255,255)" fill-opacity="0.501961" />
<polygon points="207,176 171,170 171,192" id="10" fill="rgb(225,208,219)" fill-opacity="0.501961" />
<polygon points="256,59 218,191 256,178" id="11" fill="rgb(15,17,15)" fill-opacity="0.501961" />
<polygon points="38,10 109,49 119,28" id="12" fill="rgb(236,219,222)" fill-opacity="0.501961" />
<polygon points="0,0 0,28 29,0" id="13" fill="rgb(6,0,0)" fill-opacity="0.501961" />
<polygon points="88,85 26,152 206,85" id="14" fill="rgb(198,203,203)" fill-opacity="0.501961" />
<polygon points="240,67 256,57 254,0" id="15" fill="rgb(217,191,145)" fill-opacity="0.501961" />
<polygon points="2,137 97,158 10,192" id="16" fill="rgb(59,69,52)" fill-opacity="0.501961" />
<polygon points="169,192 105,192 152,110" id="17" fill="rgb(26,60,139)" fill-opacity="0.501961" />
<polygon points="159,73 145,63 178,63" id="18" fill="rgb(255,255,250)" fill-opacity="0.501961" />
<polygon points="54,111 22,115 165,89" id="19" fill="rgb(17,31,48)" fill-opacity="0.501961" />
<polygon points="24,104 0,116 161,85" id="20" fill="rgb(255,255,255)" fill-opacity="0.501961" />
<polygon points="0,65 0,107 79,94" id="21" fill="rgb(21,48,88)" fill-opacity="0.501961" />
<polygon points="236,0 245,70 207,80" id="22" fill="rgb(9,6,1)" fill-opacity="0.501961" />
<polygon points="170,60 125,29 134,67" id="23" fill="rgb(14,19,40)" fill-opacity="0.501961" />
<polygon points="81,31 12,72 120,90" id="24" fill="rgb(75,125,199)" fill-opacity="0.501961" />
<polygon points="60,13 103,0 126,13" id="25" fill="rgb(70,46,26)" fill-opacity="0.501961" />
<polygon points="87,192 94,119 138,192" id="26" fill="rgb(115,113,123)" fill-opacity="0.501961" />
<polygon points="150,49 130,0 182,12" id="27" fill="rgb(149,133,97)" fill-opacity="0.501961" />
<polygon points="159,117 205,175 190,107" id="28" fill="rgb(28,26,31)" fill-opacity="0.501961" />
<polygon points="0,65 0,32 17,64" id="29" fill="rgb(132,178,249)" fill-opacity="0.501961" />
<polygon points="14,50 10,0 55,0" id="30" fill="rgb(116,92,49)" fill-opacity="0.501961" />
<polygon points="169,159 183,163 176,123" id="31" fill="rgb(193,169,96)" fill-opacity="0.501961" />
<polygon points="67,125 243,104 230,87" id="32" fill="rgb(116,111,104)" fill-opacity="0.501961" />
<polygon points="127,77 107,68 128,34" id="33" fill="rgb(11,71,161)" fill-opacity="0.501961" />
<polygon points="7,122 34,113 15,113" id="34" fill="rgb(9,8,5)" fill-opacity="0.501961" />
<polygon points="162,111 154,159 111,156" id="35" fill="rgb(8,27,68)" fill-opacity="0.501961" />
</svg>