<?xml version="1.0" standalone="no"?>
<svg xmlns="http://www.w3.org/2000/svg" version="1.2" baseProfile="tiny" width="256" height="170" viewBox="0 0 256 170">
<rect x="0" y="0" width="256" height="170" id="0" fill="rgb(162,132,102)" fill-opacity="1" />
<polygon points="165,53 77,115 159,138" id="1" fill="rgb(0,0,0)" fill-opacity="0.501961" />
<polygon points="100,170 256,41 256,170" id="2" fill="rgb(231,190,155)" fill-opacity="0.501961" />
<polygon points="130,0 80,32 256,98" id="3" fill="rgb(229,207,177)" fill-opacity="0.501961" />
<polygon points="114,45 131,141 173,79" id="4" fill="rgb(0,4,6)" fill-opacity="0.501961" />
<polygon points="78,135 176,138 173,170" id="5" fill="rgb(236,243,243)" fill-opacity="0.501961" />
<polygon points="60,68 61,103 97,153" id="6" fill="rgb(255,255,255)" fill-opacity="0.501961" />
<polygon points="182,36 197,77 186,129" id="7" fill="rgb(250,255,255)" fill-opacity="0.501961" />
<polygon points="95,0 49,82 13,0" id="8" fill="rgb(112,81,50)" fill-opacity="0.501961" />
<polygon points="73,147 51,58 0,138" id="9" fill="rgb(119,84,55)" fill-opacity="0.501961" />
<polygon points="59,77 70,43 98,23" id="10" fill="rgb(255,255,255)" fill-opacity="0.501961" />
<polygon points="93,114 161,78 136,138" id="11" fill="rgb(0,0,2)" fill-opacity="0.501961" />
<polygon points="136,27 99,28 73,57" id="12" fill="rgb(113,61,8)" fill-opacity="0.501961" />
<polygon points="84,56 96,74 154,66" id="13" fill="rgb(45,41,23)" fill-opacity="0.501961" />
<polygon points="173,170 249,170 224,0" id="14" fill="rgb(191,139,94)" fill-opacity="0.501961" />
<polygon points="146,15 113,16 187,46" id="15" fill="rgb(236,255,255)" fill-opacity="0.501961" />
<polygon points="145,144 197,95 166,157" id="16" fill="rgb(228,243,248)" fill-opacity="0.501961" />
<polygon points="129,152 95,147 65,114" id="17" fill="rgb(242,252,255)" fill-opacity="0.501961" />
<polygon points="83,51 71,101 71,64" id="18" fill="rgb(64,23,0)" fill-opacity="0.501961" />
<polygon points="181,68 179,117 128,148" id="19" fill="rgb(133,93,45)" fill-opacity="0.501961" />
<polygon points="69,112 113,87 81,66" id="20" fill="rgb(235,192,128)" fill-opacity="0.501961" />
<polygon points="151,17 154,0 99,9" id="21" fill="rgb(150,80,29)" fill-opacity="0.501961" />
<polygon points="85,32 148,16 101,17" id="22" fill="rgb(233,252,255)" fill-opacity="0.501961" />
<polygon points="102,70 156,26 100,37" id="23" fill="rgb(204,173,120)" fill-opacity="0.501961" />
<polygon points="151,24 176,34 194,70" id="24" fill="rgb(230,249,255)" fill-opacity="0.501961" />
<polygon points="8,170 28,104 115,155" id="25" fill="rgb(159,126,96)" fill-opacity="0.501961" />
</svg>