<?xml version="1.0" standalone="no"?>
<svg xmlns="http://www.w3.org/2000/svg" version="1.2" baseProfile="tiny" width="256" height="170" viewBox="0 0 256 170">
<rect x="0" y="0" width="256" height="170" id="0" fill="rgb(130,130,136)" fill-opacity="1" />
<polygon points="235,90 0,142 256,161" id="1" fill="rgb(34,34,38)" fill-opacity="0.501961" />
<polygon points="29,126 0,0 211,0" id="2" fill="rgb(200,201,209)" fill-opacity="0.501961" />
<polygon points="171,11 236,10 200,161" id="3" fill="rgb(67,65,71)" fill-opacity="0.501961" />
<polygon points="161,98 0,112 173,32" id="4" fill="rgb(195,195,199)" fill-opacity="0.501961" />
<polygon points="0,115 96,114 0,166" id="5" fill="rgb(46,48,54)" fill-opacity="0.501961" />
<polygon points="102,158 256,168 0,170" id="6" fill="rgb(204,201,214)" fill-opacity="0.501961" />
<polygon points="97,149 67,104 93,71" id="7" fill="rgb(69,74,82)" fill-opacity="0.501961" />
<polygon points="0,155 144,110 177,154" id="8" fill="rgb(56,58,65)" fill-opacity="0.501961" />
<polygon points="90,47 56,59 44,120" id="9" fill="rgb(240,240,240)" fill-opacity="0.501961" />
<polygon points="67,26 105,24 88,84" id="10" fill="rgb(86,95,115)" fill-opacity="0.501961" />
<polygon points="209,10 256,148 153,111" id="11" fill="rgb(96,96,97)" fill-opacity="0.501961" />
<polygon points="256,0 237,94 231,0" id="12" fill="rgb(176,174,180)" fill-opacity="0.501961" />
<polygon points="85,37 65,48 77,105" id="13" fill="rgb(237,236,235)" fill-opacity="0.501961" />
<polygon points="44,101 65,30 32,95" id="14" fill="rgb(69,90,107)" fill-opacity="0.501961" />
<polygon points="2,123 0,0 52,61" id="15" fill="rgb(155,154,161)" fill-opacity="0.501961" />
<polygon points="256,121 256,156 206,144" id="16" fill="rgb(55,53,56)" fill-opacity="0.501961" />
<polygon points="90,0 155,89 171,0" id="17" fill="rgb(190,187,192)" fill-opacity="0.501961" />
<polygon points="168,170 175,157 237,154" id="18" fill="rgb(183,180,193)" fill-opacity="0.501961" />
<polygon points="173,0 159,111 93,107" id="19" fill="rgb(170,169,175)" fill-opacity="0.501961" />
<polygon points="237,84 167,8 182,143" id="20" fill="rgb(94,94,98)" fill-opacity="0.501961" />
<polygon points="98,152 178,143 49,145" id="21" fill="rgb(134,128,125)" fill-opacity="0.501961" />
<polygon points="0,161 0,169 69,161" id="22" fill="rgb(195,194,210)" fill-opacity="0.501961" />
<polygon points="13,115 82,96 68,81" id="23" fill="rgb(222,220,225)" fill-opacity="0.501961" />
<polygon points="79,127 96,44 87,26" id="24" fill="rgb(92,96,101)" fill-opacity="0.501961" />
<polygon points="117,153 118,92 116,27" id="25" fill="rgb(80,85,96)" fill-opacity="0.501961" />
<polygon points="178,42 158,110 256,150" id="26" fill="rgb(103,102,105)" fill-opacity="0.501961" />
<polygon points="0,146 0,122 40,143" id="27" fill="rgb(40,41,48)" fill-opacity="0.501961" />
<polygon points="33,152 170,150 90,154" id="28" fill="rgb(38,34,34)" fill-opacity="0.501961" />
<polygon points="65,131 39,111 31,136" id="29" fill="rgb(122,123,130)" fill-opacity="0.501961" />
<polygon points="98,159 131,159 58,157" id="30" fill="rgb(42,41,42)" fill-opacity="0.501961" />
<polygon points="226,11 243,0 21,0" id="31" fill="rgb(182,180,185)" fill-opacity="0.501961" />
<polygon points="163,140 118,150 195,124" id="32" fill="rgb(144,141,139)" fill-opacity="0.501961" />
<polygon points="236,101 222,15 169,62" id="33" fill="rgb(85,84,91)" fill-opacity="0.501961" />
<polygon points="95,63 63,117 95,129" id="34" fill="rgb(105,106,111)" fill-opacity="0.501961" />
<polygon points="8,88 -2,84 0,117" id="35" fill="rgb(53,77,106)" fill-opacity="0.501961" />
<polygon points="59,111 9,100 0,110" id="36" fill="rgb(202,203,210)" fill-opacity="0.501961" />
<polygon points="174,113 50,137 155,136" id="37" fill="rgb(45,51,68)" fill-opacity="0.501961" />
<polygon points="226,34 256,0 256,109" id="38" fill="rgb(156,155,161)" fill-opacity="0.501961" />
<polygon points="223,162 224,145 206,144" id="39" fill="rgb(47,42,41)" fill-opacity="0.501961" />
<polygon points="101,29 70,27 75,43" id="40" fill="rgb(71,86,115)" fill-opacity="0.501961" />
<polygon points="0,85 0,0 41,105" id="41" fill="rgb(155,154,159)" fill-opacity="0.501961" />
</svg>