<?xml version="1.0" standalone="no"?>
<svg xmlns="http://www.w3.org/2000/svg" version="1.2" baseProfile="tiny" width="256" height="170" viewBox="0 0 256 170">
<rect x="0" y="0" width="256" height="170" id="0" fill="rgb(89,91,109)" fill-opacity="1" />
<polygon points="168,79 0,0 256,0" id="1" fill="rgb(221,230,253)" fill-opacity="0.501961" />
<polygon points="256,145 0,170 0,64" id="2" fill="rgb(0,0,0)" fill-opacity="0.501961" />
<polygon points="0,72 0,0 134,64" id="3" fill="rgb(222,212,226)" fill-opacity="0.501961" />
<polygon points="256,170 62,80 256,78" id="4" fill="rgb(0,0,10)" fill-opacity="0.501961" />
<polygon points="92,55 256,50 256,5" id="5" fill="rgb(180,201,237)" fill-opacity="0.501961" />
<polygon points="139,3 69,29 63,126" id="6" fill="rgb(89,84,89)" fill-opacity="0.501961" />
<polygon points="167,54 256,158 125,157" id="7" fill="rgb(39,34,47)" fill-opacity="0.501961" />
<polygon points="72,44 49,40 76,10" id="8" fill="rgb(59,36,21)" fill-opacity="0.501961" />
<polygon points="67,0 97,53 126,0" id="9" fill="rgb(200,198,216)" fill-opacity="0.501961" />
<polygon points="64,51 0,72 0,0" id="10" fill="rgb(197,194,216)" fill-opacity="0.501961" />
<polygon points="195,84 124,64 195,51" id="11" fill="rgb(77,84,129)" fill-opacity="0.501961" />
<polygon points="127,0 88,74 141,0" id="12" fill="rgb(89,47,1)" fill-opacity="0.501961" />
<polygon points="200,39 139,0 111,70" id="13" fill="rgb(194,203,227)" fill-opacity="0.501961" />
<polygon points="98,70 142,170 102,97" id="14" fill="rgb(80,127,180)" fill-opacity="0.501961" />
<polygon points="76,77 65,28 44,84" id="15" fill="rgb(157,152,170)" fill-opacity="0.501961" />
<polygon points="256,160 253,149 0,153" id="16" fill="rgb(21,9,7)" fill-opacity="0.501961" />
<polygon points="0,72 102,170 0,157" id="17" fill="rgb(18,18,33)" fill-opacity="0.501961" />
<polygon points="47,53 44,69 181,78" id="18" fill="rgb(119,102,114)" fill-opacity="0.501961" />
<polygon points="58,127 81,84 65,140" id="19" fill="rgb(68,124,186)" fill-opacity="0.501961" />
<polygon points="132,159 92,170 256,169" id="20" fill="rgb(110,138,175)" fill-opacity="0.501961" />
<polygon points="0,159 71,163 0,170" id="21" fill="rgb(81,103,135)" fill-opacity="0.501961" />
</svg>