<?xml version="1.0" encoding="utf-8"?>
<!-- Generator: Adobe Illustrator 25.2.3, SVG Export Plug-In . SVG Version: 6.00 Build 0)  -->
<svg version="1.1" id="Layer_1" xmlns="http://www.w3.org/2000/svg" xmlns:xlink="http://www.w3.org/1999/xlink" x="0px" y="0px"
	 viewBox="0 0 100 100" style="enable-background:new 0 0 100 100;" xml:space="preserve">
<style type="text/css">
	.st0{fill:#E20D15;}
</style>
<g>
	<g>
		<path class="st0" d="M100,74.67c-7.55-0.65-14.63-1.84-21.7-1.7c-7.89,0.15-15.78,1.36-23.63,2.38
			c-12.26,1.6-24.41,4.1-36.88,3.59C11.08,78.66,3.73,76.42,0,72.99c0.88-0.06,1.5-0.1,2.13-0.15c9.44-0.87,18.92-1.43,28.32-2.67
			c15.78-2.09,31.34-6.07,47.41-5.53c6.68,0.22,13.22,1.41,18.52,6.02C97.71,71.82,98.78,73.29,100,74.67z"/>
		<path class="st0" d="M25.87,28.31c0.8-0.17,1.29-0.39,1.76-0.35c8.85,0.75,16.98-2.26,25.22-4.76c5-1.52,10.07-3.07,15.36-1.62
			c1.81,0.5,3.53,1.41,5.18,2.34c1.92,1.08,1.86,2.61,0,3.53c-4.43,2.17-8.82,4.64-13.52,5.98c-7.8,2.23-15.82,3.55-23.97,1.5
			C31.88,33.92,28.17,32.47,25.87,28.31z"/>
	</g>
</g>
</svg>
