<?xml version="1.0" standalone="no"?>
<svg xmlns="http://www.w3.org/2000/svg" version="1.2" baseProfile="tiny" width="256" height="138" viewBox="0 0 256 138">
<rect x="0" y="0" width="256" height="138" id="0" fill="rgb(48,28,11)" fill-opacity="1" />
<polygon points="91,53 256,117 15,135" id="1" fill="rgb(151,69,42)" fill-opacity="0.501961" />
<polygon points="256,85 256,135 192,133" id="2" fill="rgb(195,141,58)" fill-opacity="0.501961" />
<polygon points="0,0 256,0 241,105" id="3" fill="rgb(0,0,0)" fill-opacity="0.501961" />
<polygon points="76,138 74,82 24,121" id="4" fill="rgb(193,134,116)" fill-opacity="0.501961" />
<polygon points="19,138 0,0 93,0" id="5" fill="rgb(0,1,0)" fill-opacity="0.501961" />
<polygon points="213,138 64,138 139,84" id="6" fill="rgb(23,17,0)" fill-opacity="0.501961" />
<polygon points="134,107 100,43 102,89" id="7" fill="rgb(221,73,56)" fill-opacity="0.501961" />
<polygon points="191,107 190,122 223,138" id="8" fill="rgb(218,183,155)" fill-opacity="0.501961" />
<polygon points="245,127 256,105 256,133" id="9" fill="rgb(128,236,215)" fill-opacity="0.501961" />
<polygon points="96,126 130,110 49,48" id="10" fill="rgb(69,0,0)" fill-opacity="0.501961" />
<polygon points="151,63 114,79 254,138" id="11" fill="rgb(77,28,0)" fill-opacity="0.501961" />
<polygon points="44,99 101,112 42,111" id="12" fill="rgb(193,144,139)" fill-opacity="0.501961" />
<polygon points="131,100 117,113 113,47" id="13" fill="rgb(164,0,0)" fill-opacity="0.501961" />
<polygon points="238,113 256,85 251,119" id="14" fill="rgb(237,153,0)" fill-opacity="0.501961" />
<polygon points="150,138 180,103 167,70" id="15" fill="rgb(123,63,29)" fill-opacity="0.501961" />
<polygon points="119,58 90,70 112,73" id="16" fill="rgb(190,165,161)" fill-opacity="0.501961" />
<polygon points="172,77 180,129 187,69" id="17" fill="rgb(0,2,0)" fill-opacity="0.501961" />
<polygon points="0,15 35,138 0,133" id="18" fill="rgb(19,34,13)" fill-opacity="0.501961" />
<polygon points="38,80 130,57 97,31" id="19" fill="rgb(82,33,0)" fill-opacity="0.501961" />
<polygon points="60,103 95,79 127,117" id="20" fill="rgb(86,6,0)" fill-opacity="0.501961" />
<polygon points="209,138 225,138 199,114" id="21" fill="rgb(192,151,125)" fill-opacity="0.501961" />
<polygon points="118,59 171,0 132,95" id="22" fill="rgb(7,13,3)" fill-opacity="0.501961" />
<polygon points="183,94 248,94 233,143" id="23" fill="rgb(106,43,3)" fill-opacity="0.501961" />
<polygon points="256,0 256,85 3,1" id="24" fill="rgb(9,11,1)" fill-opacity="0.501961" />
<polygon points="171,127 71,138 101,104" id="25" fill="rgb(23,23,3)" fill-opacity="0.501961" />
</svg>