<?xml version="1.0" standalone="no"?>
<svg xmlns="http://www.w3.org/2000/svg" version="1.2" baseProfile="tiny" width="256" height="170" viewBox="0 0 256 170">
<rect x="0" y="0" width="256" height="170" id="0" fill="rgb(81,88,93)" fill-opacity="1" />
<polygon points="202,108 200,0 71,0" id="1" fill="rgb(206,221,228)" fill-opacity="0.501961" />
<polygon points="223,99 256,170 0,170" id="2" fill="rgb(4,9,11)" fill-opacity="0.501961" />
<polygon points="255,0 224,40 256,155" id="3" fill="rgb(220,231,235)" fill-opacity="0.501961" />
<polygon points="0,18 0,170 132,86" id="4" fill="rgb(20,19,23)" fill-opacity="0.501961" />
<polygon points="157,31 106,75 135,0" id="5" fill="rgb(0,0,5)" fill-opacity="0.501961" />
<polygon points="50,5 0,24 0,1" id="6" fill="rgb(255,255,255)" fill-opacity="0.501961" />
<polygon points="152,139 57,139 174,44" id="7" fill="rgb(107,138,168)" fill-opacity="0.501961" />
<polygon points="45,110 39,46 56,69" id="8" fill="rgb(224,222,217)" fill-opacity="0.501961" />
<polygon points="57,31 89,87 87,55" id="9" fill="rgb(228,235,255)" fill-opacity="0.501961" />
<polygon points="222,0 221,170 203,0" id="10" fill="rgb(0,0,0)" fill-opacity="0.501961" />
<polygon points="246,165 246,40 240,170" id="11" fill="rgb(0,0,0)" fill-opacity="0.501961" />
<polygon points="14,27 0,123 63,0" id="12" fill="rgb(5,0,0)" fill-opacity="0.501961" />
<polygon points="195,21 73,13 64,0" id="13" fill="rgb(235,238,233)" fill-opacity="0.501961" />
<polygon points="203,91 148,46 189,0" id="14" fill="rgb(204,219,224)" fill-opacity="0.501961" />
<polygon points="231,0 237,148 242,0" id="15" fill="rgb(205,217,225)" fill-opacity="0.501961" />
<polygon points="0,170 89,149 0,94" id="16" fill="rgb(20,23,24)" fill-opacity="0.501961" />
<polygon points="121,17 131,128 104,102" id="17" fill="rgb(25,36,44)" fill-opacity="0.501961" />
<polygon points="144,110 173,101 141,44" id="18" fill="rgb(197,186,181)" fill-opacity="0.501961" />
<polygon points="167,85 127,0 142,0" id="19" fill="rgb(43,46,53)" fill-opacity="0.501961" />
<polygon points="248,81 243,89 245,0" id="20" fill="rgb(0,0,0)" fill-opacity="0.501961" />
<polygon points="252,0 246,47 256,158" id="21" fill="rgb(241,251,255)" fill-opacity="0.501961" />
<polygon points="40,4 0,19 40,14" id="22" fill="rgb(255,255,255)" fill-opacity="0.501961" />
<polygon points="235,163 220,170 109,37" id="23" fill="rgb(36,31,25)" fill-opacity="0.501961" />
<polygon points="62,100 31,47 41,116" id="24" fill="rgb(140,140,134)" fill-opacity="0.501961" />
<polygon points="68,38 66,7 55,43" id="25" fill="rgb(233,227,225)" fill-opacity="0.501961" />
<polygon points="18,48 -2,36 -4,54" id="26" fill="rgb(198,199,200)" fill-opacity="0.501961" />
<polygon points="232,21 191,46 230,88" id="27" fill="rgb(46,51,47)" fill-opacity="0.501961" />
<polygon points="52,53 82,121 82,58" id="28" fill="rgb(7,13,20)" fill-opacity="0.501961" />
<polygon points="64,143 133,132 70,121" id="29" fill="rgb(150,173,173)" fill-opacity="0.501961" />
<polygon points="75,14 69,41 122,55" id="30" fill="rgb(13,22,33)" fill-opacity="0.501961" />
<polygon points="80,50 88,48 86,92" id="31" fill="rgb(246,242,255)" fill-opacity="0.501961" />
<polygon points="145,0 49,8 33,0" id="32" fill="rgb(66,59,46)" fill-opacity="0.501961" />
<polygon points="207,29 159,0 141,62" id="33" fill="rgb(184,196,197)" fill-opacity="0.501961" />
<polygon points="90,89 89,122 183,147" id="34" fill="rgb(66,94,131)" fill-opacity="0.501961" />
<polygon points="96,49 118,22 110,74" id="35" fill="rgb(97,133,173)" fill-opacity="0.501961" />
<polygon points="173,62 173,27 170,22" id="36" fill="rgb(0,19,21)" fill-opacity="0.501961" />
<polygon points="193,20 212,18 196,-7" id="37" fill="rgb(56,53,36)" fill-opacity="0.501961" />
<polygon points="256,170 256,148 41,140" id="38" fill="rgb(26,28,28)" fill-opacity="0.501961" />
</svg>