<?xml version="1.0" standalone="no"?>
<svg xmlns="http://www.w3.org/2000/svg" version="1.2" baseProfile="tiny" width="256" height="107" viewBox="0 0 256 107">
<rect x="0" y="0" width="256" height="107" id="0" fill="rgb(127,124,70)" fill-opacity="1" />
<polygon points="65,0 51,37 16,0" id="1" fill="rgb(255,255,255)" fill-opacity="0.501961" />
<polygon points="44,107 0,20 0,107" id="2" fill="rgb(17,24,5)" fill-opacity="0.501961" />
<polygon points="198,22 16,15 66,83" id="3" fill="rgb(168,157,92)" fill-opacity="0.501961" />
<polygon points="207,8 256,11 256,85" id="4" fill="rgb(216,187,76)" fill-opacity="0.501961" />
<polygon points="190,0 60,0 144,28" id="5" fill="rgb(52,85,60)" fill-opacity="0.501961" />
<polygon points="23,72 11,107 233,107" id="6" fill="rgb(83,91,36)" fill-opacity="0.501961" />
<polygon points="19,7 0,0 4,12" id="7" fill="rgb(0,0,30)" fill-opacity="0.501961" />
<polygon points="62,0 23,0 18,17" id="8" fill="rgb(255,240,223)" fill-opacity="0.501961" />
<polygon points="237,81 177,37 256,64" id="9" fill="rgb(185,164,96)" fill-opacity="0.501961" />
<polygon points="38,69 47,0 41,0" id="10" fill="rgb(101,97,68)" fill-opacity="0.501961" />
<polygon points="87,72 45,30 4,66" id="11" fill="rgb(183,148,84)" fill-opacity="0.501961" />
<polygon points="20,4 0,89 27,54" id="12" fill="rgb(92,77,39)" fill-opacity="0.501961" />
<polygon points="62,43 53,25 88,25" id="13" fill="rgb(57,71,62)" fill-opacity="0.501961" />
<polygon points="188,39 208,21 232,49" id="14" fill="rgb(66,79,34)" fill-opacity="0.501961" />
<polygon points="0,107 11,0 0,25" id="15" fill="rgb(23,33,28)" fill-opacity="0.501961" />
<polygon points="219,85 148,57 243,75" id="16" fill="rgb(78,80,51)" fill-opacity="0.501961" />
<polygon points="59,20 45,0 54,-8" id="17" fill="rgb(255,255,255)" fill-opacity="0.501961" />
<polygon points="74,91 150,21 101,15" id="18" fill="rgb(159,153,85)" fill-opacity="0.501961" />
<polygon points="74,68 97,90 94,60" id="19" fill="rgb(99,109,58)" fill-opacity="0.501961" />
<polygon points="116,83 122,73 158,80" id="20" fill="rgb(55,73,28)" fill-opacity="0.501961" />
<polygon points="155,21 175,30 211,20" id="21" fill="rgb(199,199,101)" fill-opacity="0.501961" />
<polygon points="254,43 249,11 216,69" id="22" fill="rgb(209,181,82)" fill-opacity="0.501961" />
<polygon points="246,0 175,14 256,11" id="23" fill="rgb(91,104,74)" fill-opacity="0.501961" />
<polygon points="42,88 151,107 64,107" id="24" fill="rgb(64,83,32)" fill-opacity="0.501961" />
<polygon points="175,2 118,107 70,85" id="25" fill="rgb(132,129,68)" fill-opacity="0.501961" />
<polygon points="88,16 156,6 68,6" id="26" fill="rgb(49,69,52)" fill-opacity="0.501961" />
<polygon points="63,15 59,0 45,11" id="27" fill="rgb(255,254,235)" fill-opacity="0.501961" />
<polygon points="66,61 23,15 31,9" id="28" fill="rgb(221,182,110)" fill-opacity="0.501961" />
<polygon points="218,95 227,107 218,109" id="29" fill="rgb(15,23,34)" fill-opacity="0.501961" />
<polygon points="256,62 239,107 254,107" id="30" fill="rgb(92,91,60)" fill-opacity="0.501961" />
<polygon points="209,68 256,101 256,92" id="31" fill="rgb(175,167,90)" fill-opacity="0.501961" />
<polygon points="90,35 160,67 106,59" id="32" fill="rgb(176,157,93)" fill-opacity="0.501961" />
<polygon points="108,64 111,84 115,14" id="33" fill="rgb(191,156,110)" fill-opacity="0.501961" />
<polygon points="65,13 100,15 125,47" id="34" fill="rgb(162,161,87)" fill-opacity="0.501961" />
<polygon points="49,28 46,15 53,27" id="35" fill="rgb(255,255,255)" fill-opacity="0.501961" />
<polygon points="16,5 10,-13 3,10" id="36" fill="rgb(0,15,48)" fill-opacity="0.501961" />
<polygon points="209,93 206,83 215,82" id="37" fill="rgb(255,186,162)" fill-opacity="0.501961" />
<polygon points="55,53 70,53 81,89" id="38" fill="rgb(194,144,109)" fill-opacity="0.501961" />
<polygon points="80,13 90,7 65,9" id="39" fill="rgb(17,37,33)" fill-opacity="0.501961" />
<polygon points="199,80 224,84 162,54" id="40" fill="rgb(69,70,41)" fill-opacity="0.501961" />
<polygon points="65,50 46,8 78,52" id="41" fill="rgb(129,134,117)" fill-opacity="0.501961" />
<polygon points="34,79 0,74 0,94" id="42" fill="rgb(29,30,21)" fill-opacity="0.501961" />
<polygon points="195,93 149,15 173,87" id="43" fill="rgb(109,122,57)" fill-opacity="0.501961" />
<polygon points="208,72 232,24 230,42" id="44" fill="rgb(93,82,57)" fill-opacity="0.501961" />
<polygon points="6,85 10,31 29,61" id="45" fill="rgb(105,99,47)" fill-opacity="0.501961" />
<polygon points="74,82 31,63 47,82" id="46" fill="rgb(75,87,47)" fill-opacity="0.501961" />
<polygon points="37,21 18,0 40,0" id="47" fill="rgb(255,250,223)" fill-opacity="0.501961" />
<polygon points="227,4 205,0 233,0" id="48" fill="rgb(204,193,119)" fill-opacity="0.501961" />
<polygon points="12,90 28,105 40,83" id="49" fill="rgb(110,123,51)" fill-opacity="0.501961" />
<polygon points="75,22 117,44 59,26" id="50" fill="rgb(88,95,48)" fill-opacity="0.501961" />
<polygon points="37,33 0,29 39,42" id="51" fill="rgb(91,78,40)" fill-opacity="0.501961" />
<polygon points="111,82 130,76 142,83" id="52" fill="rgb(53,74,31)" fill-opacity="0.501961" />
<polygon points="136,60 123,43 140,29" id="53" fill="rgb(89,97,48)" fill-opacity="0.501961" />
<polygon points="226,104 225,95 242,117" id="54" fill="rgb(225,217,102)" fill-opacity="0.501961" />
<polygon points="45,25 43,13 40,21" id="55" fill="rgb(0,30,62)" fill-opacity="0.501961" />
<polygon points="31,0 40,0 5,0" id="56" fill="rgb(250,237,226)" fill-opacity="0.501961" />
<polygon points="56,57 25,74 55,22" id="57" fill="rgb(188,163,89)" fill-opacity="0.501961" />
<polygon points="250,0 256,5 256,0" id="58" fill="rgb(255,255,179)" fill-opacity="0.501961" />
<polygon points="256,27 224,62 239,84" id="59" fill="rgb(187,170,90)" fill-opacity="0.501961" />
<polygon points="188,96 184,107 198,104" id="60" fill="rgb(48,42,44)" fill-opacity="0.501961" />
<polygon points="149,101 155,42 195,23" id="61" fill="rgb(140,140,67)" fill-opacity="0.501961" />
<polygon points="59,58 73,99 58,69" id="62" fill="rgb(126,107,64)" fill-opacity="0.501961" />
<polygon points="249,99 275,121 243,99" id="63" fill="rgb(13,21,36)" fill-opacity="0.501961" />
<polygon points="90,47 73,41 110,28" id="64" fill="rgb(181,177,100)" fill-opacity="0.501961" />
<polygon points="238,34 256,31 221,24" id="65" fill="rgb(132,123,50)" fill-opacity="0.501961" />
<polygon points="193,101 217,85 218,107" id="66" fill="rgb(138,120,71)" fill-opacity="0.501961" />
<polygon points="16,1 20,6 0,6" id="67" fill="rgb(0,4,25)" fill-opacity="0.501961" />
<polygon points="122,38 131,36 125,25" id="68" fill="rgb(231,195,126)" fill-opacity="0.501961" />
<polygon points="77,81 86,73 77,93" id="69" fill="rgb(225,177,124)" fill-opacity="0.501961" />
<polygon points="142,61 160,76 142,66" id="70" fill="rgb(57,74,34)" fill-opacity="0.501961" />
<polygon points="58,42 65,62 65,0" id="71" fill="rgb(114,121,89)" fill-opacity="0.501961" />
<polygon points="41,12 53,-14 43,0" id="72" fill="rgb(66,90,98)" fill-opacity="0.501961" />
<polygon points="228,70 218,73 223,98" id="73" fill="rgb(77,81,55)" fill-opacity="0.501961" />
<polygon points="119,33 215,-24 213,5" id="74" fill="rgb(101,119,74)" fill-opacity="0.501961" />
<polygon points="157,38 157,22 160,67" id="75" fill="rgb(60,59,49)" fill-opacity="0.501961" />
<polygon points="21,14 36,20 20,0" id="76" fill="rgb(247,209,180)" fill-opacity="0.501961" />
<polygon points="51,85 60,96 33,107" id="77" fill="rgb(63,44,28)" fill-opacity="0.501961" />
<polygon points="54,73 42,47 35,25" id="78" fill="rgb(127,116,53)" fill-opacity="0.501961" />
<polygon points="235,78 234,107 246,97" id="79" fill="rgb(159,162,88)" fill-opacity="0.501961" />
<polygon points="55,107 91,93 110,91" id="80" fill="rgb(50,60,40)" fill-opacity="0.501961" />
<polygon points="97,90 118,107 152,81" id="81" fill="rgb(118,137,46)" fill-opacity="0.501961" />
<polygon points="20,107 3,76 0,107" id="82" fill="rgb(37,46,27)" fill-opacity="0.501961" />
<polygon points="63,4 122,0 64,0" id="83" fill="rgb(121,135,70)" fill-opacity="0.501961" />
</svg>