<?xml version="1.0" standalone="no"?>
<svg xmlns="http://www.w3.org/2000/svg" version="1.2" baseProfile="tiny" width="256" height="138" viewBox="0 0 256 138">
<rect x="0" y="0" width="256" height="138" id="0" fill="rgb(128,140,144)" fill-opacity="1" />
<polygon points="146,138 94,22 163,59" id="1" fill="rgb(106,0,0)" fill-opacity="0.501961" />
<polygon points="133,9 204,0 192,112" id="2" fill="rgb(147,255,255)" fill-opacity="0.501961" />
<polygon points="0,0 111,130 107,0" id="3" fill="rgb(184,228,250)" fill-opacity="0.501961" />
<polygon points="247,138 126,138 250,48" id="4" fill="rgb(36,51,48)" fill-opacity="0.501961" />
<polygon points="91,31 156,118 138,0" id="5" fill="rgb(120,15,0)" fill-opacity="0.501961" />
<polygon points="132,14 191,101 199,0" id="6" fill="rgb(150,234,255)" fill-opacity="0.501961" />
<polygon points="137,96 35,136 39,30" id="7" fill="rgb(205,176,145)" fill-opacity="0.501961" />
<polygon points="114,0 3,0 82,49" id="8" fill="rgb(115,237,255)" fill-opacity="0.501961" />
<polygon points="141,26 132,94 171,83" id="9" fill="rgb(36,0,0)" fill-opacity="0.501961" />
<polygon points="0,0 0,14 111,0" id="10" fill="rgb(240,252,255)" fill-opacity="0.501961" />
<polygon points="226,92 234,0 199,0" id="11" fill="rgb(76,84,87)" fill-opacity="0.501961" />
<polygon points="148,3 198,93 196,-4" id="12" fill="rgb(150,224,255)" fill-opacity="0.501961" />
<polygon points="7,116 139,127 99,30" id="13" fill="rgb(185,168,147)" fill-opacity="0.501961" />
<polygon points="28,0 46,36 94,32" id="14" fill="rgb(40,191,255)" fill-opacity="0.501961" />
<polygon points="129,18 153,0 111,0" id="15" fill="rgb(0,36,65)" fill-opacity="0.501961" />
<polygon points="42,50 0,51 0,26" id="16" fill="rgb(49,50,58)" fill-opacity="0.501961" />
<polygon points="134,28 95,25 117,12" id="17" fill="rgb(255,153,94)" fill-opacity="0.501961" />
<polygon points="167,82 200,138 182,138" id="18" fill="rgb(5,22,30)" fill-opacity="0.501961" />
<polygon points="192,0 171,20 202,25" id="19" fill="rgb(255,255,255)" fill-opacity="0.501961" />
<polygon points="175,103 211,85 169,64" id="20" fill="rgb(94,202,255)" fill-opacity="0.501961" />
<polygon points="236,138 206,91 174,102" id="21" fill="rgb(39,44,58)" fill-opacity="0.501961" />
<polygon points="199,80 255,0 256,138" id="22" fill="rgb(114,115,113)" fill-opacity="0.501961" />
<polygon points="131,80 134,127 159,127" id="23" fill="rgb(167,49,0)" fill-opacity="0.501961" />
<polygon points="27,138 36,101 32,53" id="24" fill="rgb(96,65,47)" fill-opacity="0.501961" />
<polygon points="124,15 29,12 94,0" id="25" fill="rgb(203,232,255)" fill-opacity="0.501961" />
<polygon points="136,32 196,0 154,0" id="26" fill="rgb(74,187,255)" fill-opacity="0.501961" />
<polygon points="130,91 132,126 15,11" id="27" fill="rgb(156,173,181)" fill-opacity="0.501961" />
<polygon points="201,59 204,23 180,26" id="28" fill="rgb(100,218,255)" fill-opacity="0.501961" />
<polygon points="54,25 114,3 79,46" id="29" fill="rgb(66,199,255)" fill-opacity="0.501961" />
<polygon points="24,8 -11,19 82,77" id="30" fill="rgb(119,136,157)" fill-opacity="0.501961" />
<polygon points="91,22 126,20 97,46" id="31" fill="rgb(226,98,63)" fill-opacity="0.501961" />
</svg>