<?xml version="1.0" standalone="no"?>
<svg xmlns="http://www.w3.org/2000/svg" version="1.2" baseProfile="tiny" width="256" height="128" viewBox="0 0 256 128">
<rect x="0" y="0" width="256" height="128" id="0" fill="rgb(50,30,14)" fill-opacity="1" />
<polygon points="81,84 102,0 187,55" id="1" fill="rgb(197,128,61)" fill-opacity="0.501961" />
<polygon points="132,126 255,0 256,128" id="2" fill="rgb(0,0,0)" fill-opacity="0.501961" />
<polygon points="124,0 94,0 102,24" id="3" fill="rgb(255,224,165)" fill-opacity="0.501961" />
<polygon points="63,128 0,128 0,0" id="4" fill="rgb(0,0,0)" fill-opacity="0.501961" />
<polygon points="130,0 142,64 248,81" id="5" fill="rgb(78,33,6)" fill-opacity="0.501961" />
<polygon points="40,6 18,0 16,73" id="6" fill="rgb(142,94,33)" fill-opacity="0.501961" />
<polygon points="85,103 148,0 72,31" id="7" fill="rgb(132,82,31)" fill-opacity="0.501961" />
<polygon points="256,0 159,0 195,59" id="8" fill="rgb(0,0,2)" fill-opacity="0.501961" />
<polygon points="170,128 156,61 256,100" id="9" fill="rgb(0,0,1)" fill-opacity="0.501961" />
<polygon points="98,0 89,96 13,77" id="10" fill="rgb(74,42,14)" fill-opacity="0.501961" />
<polygon points="98,83 149,78 90,0" id="11" fill="rgb(140,92,43)" fill-opacity="0.501961" />
<polygon points="134,128 133,95 155,128" id="12" fill="rgb(81,95,88)" fill-opacity="0.501961" />
<polygon points="26,58 91,128 33,17" id="13" fill="rgb(14,6,4)" fill-opacity="0.501961" />
<polygon points="56,57 28,0 60,21" id="14" fill="rgb(118,74,24)" fill-opacity="0.501961" />
<polygon points="111,0 98,11 114,26" id="15" fill="rgb(253,225,193)" fill-opacity="0.501961" />
<polygon points="154,0 118,0 107,37" id="16" fill="rgb(136,77,27)" fill-opacity="0.501961" />
<polygon points="77,103 136,128 77,129" id="17" fill="rgb(0,0,0)" fill-opacity="0.501961" />
<polygon points="39,73 57,89 66,127" id="18" fill="rgb(128,81,28)" fill-opacity="0.501961" />
<polygon points="114,68 78,33 131,59" id="19" fill="rgb(181,127,73)" fill-opacity="0.501961" />
<polygon points="0,128 0,0 17,0" id="20" fill="rgb(0,0,0)" fill-opacity="0.501961" />
<polygon points="109,71 120,112 170,60" id="21" fill="rgb(73,35,10)" fill-opacity="0.501961" />
<polygon points="175,42 228,31 72,17" id="22" fill="rgb(71,41,13)" fill-opacity="0.501961" />
<polygon points="256,128 256,69 179,128" id="23" fill="rgb(0,0,2)" fill-opacity="0.501961" />
<polygon points="65,128 37,80 0,128" id="24" fill="rgb(0,0,3)" fill-opacity="0.501961" />
<polygon points="95,62 30,83 100,22" id="25" fill="rgb(73,38,11)" fill-opacity="0.501961" />
<polygon points="167,59 241,90 233,60" id="26" fill="rgb(80,34,11)" fill-opacity="0.501961" />
<polygon points="235,0 256,0 255,128" id="27" fill="rgb(0,0,2)" fill-opacity="0.501961" />
<polygon points="86,107 89,98 111,115" id="28" fill="rgb(125,84,27)" fill-opacity="0.501961" />
<polygon points="191,107 191,0 204,113" id="29" fill="rgb(0,2,4)" fill-opacity="0.501961" />
<polygon points="161,85 141,81 143,0" id="30" fill="rgb(55,20,7)" fill-opacity="0.501961" />
<polygon points="190,65 162,44 158,57" id="31" fill="rgb(154,80,16)" fill-opacity="0.501961" />
<polygon points="162,0 131,3 84,0" id="32" fill="rgb(94,44,6)" fill-opacity="0.501961" />
<polygon points="55,61 125,40 51,53" id="33" fill="rgb(109,66,25)" fill-opacity="0.501961" />
<polygon points="219,70 209,97 212,49" id="34" fill="rgb(0,2,6)" fill-opacity="0.501961" />
<polygon points="107,53 123,58 108,66" id="35" fill="rgb(211,166,107)" fill-opacity="0.501961" />
<polygon points="112,15 101,11 108,2" id="36" fill="rgb(255,255,251)" fill-opacity="0.501961" />
<polygon points="56,0 73,49 77,0" id="37" fill="rgb(22,9,4)" fill-opacity="0.501961" />
<polygon points="74,128 132,123 131,108" id="38" fill="rgb(0,0,3)" fill-opacity="0.501961" />
<polygon points="112,39 108,22 118,-5" id="39" fill="rgb(179,133,80)" fill-opacity="0.501961" />
<polygon points="88,51 76,45 140,0" id="40" fill="rgb(117,67,22)" fill-opacity="0.501961" />
<polygon points="142,20 134,97 117,45" id="41" fill="rgb(129,77,43)" fill-opacity="0.501961" />
<polygon points="39,69 43,37 17,55" id="42" fill="rgb(0,0,2)" fill-opacity="0.501961" />
<polygon points="102,88 90,83 107,31" id="43" fill="rgb(150,107,48)" fill-opacity="0.501961" />
<polygon points="121,70 120,102 98,86" id="44" fill="rgb(35,25,9)" fill-opacity="0.501961" />
<polygon points="63,85 95,57 13,68" id="45" fill="rgb(46,26,11)" fill-opacity="0.501961" />
<polygon points="84,23 109,50 96,0" id="46" fill="rgb(109,69,24)" fill-opacity="0.501961" />
<polygon points="11,128 -12,99 14,42" id="47" fill="rgb(0,2,4)" fill-opacity="0.501961" />
<polygon points="118,22 140,0 128,25" id="48" fill="rgb(172,98,41)" fill-opacity="0.501961" />
<polygon points="27,76 42,79 46,84" id="49" fill="rgb(160,108,51)" fill-opacity="0.501961" />
<polygon points="102,112 137,100 118,112" id="50" fill="rgb(111,79,29)" fill-opacity="0.501961" />
<polygon points="18,0 31,33 16,54" id="51" fill="rgb(118,79,30)" fill-opacity="0.501961" />
<polygon points="116,0 122,18 136,1" id="52" fill="rgb(72,44,12)" fill-opacity="0.501961" />
<polygon points="131,24 173,33 178,-16" id="53" fill="rgb(43,22,9)" fill-opacity="0.501961" />
<polygon points="87,52 28,27 94,61" id="54" fill="rgb(47,22,9)" fill-opacity="0.501961" />
<polygon points="55,51 60,58 54,37" id="55" fill="rgb(163,107,59)" fill-opacity="0.501961" />
<polygon points="184,52 117,22 189,31" id="56" fill="rgb(75,41,14)" fill-opacity="0.501961" />
<polygon points="209,79 162,128 151,60" id="57" fill="rgb(15,8,6)" fill-opacity="0.501961" />
<polygon points="143,73 100,85 159,89" id="58" fill="rgb(86,38,9)" fill-opacity="0.501961" />
<polygon points="20,53 16,94 15,53" id="59" fill="rgb(81,50,22)" fill-opacity="0.501961" />
<polygon points="141,69 75,33 136,54" id="60" fill="rgb(141,87,49)" fill-opacity="0.501961" />
<polygon points="80,101 82,80 102,114" id="61" fill="rgb(99,66,22)" fill-opacity="0.501961" />
<polygon points="238,57 238,90 217,82" id="62" fill="rgb(78,30,10)" fill-opacity="0.501961" />
<polygon points="49,0 41,33 14,0" id="63" fill="rgb(89,51,15)" fill-opacity="0.501961" />
<polygon points="224,21 145,11 256,8" id="64" fill="rgb(6,6,4)" fill-opacity="0.501961" />
<polygon points="95,16 111,23 97,8" id="65" fill="rgb(181,124,66)" fill-opacity="0.501961" />
<polygon points="54,40 32,37 42,63" id="66" fill="rgb(9,6,4)" fill-opacity="0.501961" />
<polygon points="114,5 111,0 100,0" id="67" fill="rgb(205,139,68)" fill-opacity="0.501961" />
<polygon points="155,128 135,91 132,128" id="68" fill="rgb(61,60,51)" fill-opacity="0.501961" />
<polygon points="118,77 109,75 122,124" id="69" fill="rgb(29,21,12)" fill-opacity="0.501961" />
<polygon points="26,52 26,0 30,38" id="70" fill="rgb(121,81,29)" fill-opacity="0.501961" />
<polygon points="49,95 78,128 50,82" id="71" fill="rgb(105,65,22)" fill-opacity="0.501961" />
<polygon points="141,94 151,128 184,107" id="72" fill="rgb(25,15,11)" fill-opacity="0.501961" />
<polygon points="33,81 26,84 21,56" id="73" fill="rgb(77,47,17)" fill-opacity="0.501961" />
<polygon points="80,128 61,128 66,108" id="74" fill="rgb(64,34,11)" fill-opacity="0.501961" />
<polygon points="110,52 97,35 140,43" id="75" fill="rgb(111,71,24)" fill-opacity="0.501961" />
</svg>