<?xml version="1.0" standalone="no"?>
<svg xmlns="http://www.w3.org/2000/svg" version="1.2" baseProfile="tiny" width="256" height="112" viewBox="0 0 256 112">
<rect x="0" y="0" width="256" height="112" id="0" fill="rgb(93,70,61)" fill-opacity="1" />
<polygon points="0,0 78,35 256,1" id="1" fill="rgb(255,224,206)" fill-opacity="0.501961" />
<polygon points="72,31 256,111 0,111" id="2" fill="rgb(2,0,0)" fill-opacity="0.501961" />
<polygon points="256,112 254,53 134,107" id="3" fill="rgb(0,0,0)" fill-opacity="0.501961" />
<polygon points="20,36 0,12 176,0" id="4" fill="rgb(235,190,181)" fill-opacity="0.501961" />
<polygon points="223,0 118,86 116,17" id="5" fill="rgb(140,120,107)" fill-opacity="0.501961" />
<polygon points="111,0 145,0 133,39" id="6" fill="rgb(255,255,255)" fill-opacity="0.501961" />
<polygon points="256,0 148,0 211,77" id="7" fill="rgb(141,106,78)" fill-opacity="0.501961" />
<polygon points="0,103 84,32 32,19" id="8" fill="rgb(114,11,20)" fill-opacity="0.501961" />
<polygon points="86,35 114,-3 79,10" id="9" fill="rgb(255,255,255)" fill-opacity="0.501961" />
<polygon points="175,106 163,23 190,38" id="10" fill="rgb(91,134,123)" fill-opacity="0.501961" />
<polygon points="0,60 0,0 104,0" id="11" fill="rgb(166,118,100)" fill-opacity="0.501961" />
<polygon points="122,17 117,68 0,74" id="12" fill="rgb(78,45,50)" fill-opacity="0.501961" />
<polygon points="195,78 179,112 191,0" id="13" fill="rgb(20,16,11)" fill-opacity="0.501961" />
<polygon points="237,36 239,16 227,13" id="14" fill="rgb(255,251,218)" fill-opacity="0.501961" />
<polygon points="28,6 72,13 21,20" id="15" fill="rgb(255,226,213)" fill-opacity="0.501961" />
<polygon points="1,59 256,101 11,112" id="16" fill="rgb(35,18,15)" fill-opacity="0.501961" />
<polygon points="256,112 186,72 256,72" id="17" fill="rgb(15,5,0)" fill-opacity="0.501961" />
<polygon points="196,67 221,59 203,23" id="18" fill="rgb(160,141,132)" fill-opacity="0.501961" />
<polygon points="27,72 36,24 69,51" id="19" fill="rgb(165,16,30)" fill-opacity="0.501961" />
<polygon points="0,54 15,51 26,34" id="20" fill="rgb(249,210,177)" fill-opacity="0.501961" />
<polygon points="121,104 121,67 191,22" id="21" fill="rgb(55,65,77)" fill-opacity="0.501961" />
<polygon points="196,40 213,0 162,0" id="22" fill="rgb(111,67,45)" fill-opacity="0.501961" />
<polygon points="32,0 0,0 0,51" id="23" fill="rgb(111,83,59)" fill-opacity="0.501961" />
<polygon points="87,0 71,37 67,9" id="24" fill="rgb(129,90,73)" fill-opacity="0.501961" />
<polygon points="228,8 218,9 234,109" id="25" fill="rgb(64,36,11)" fill-opacity="0.501961" />
<polygon points="166,0 182,31 121,46" id="26" fill="rgb(156,123,103)" fill-opacity="0.501961" />
<polygon points="119,72 139,46 125,14" id="27" fill="rgb(146,113,115)" fill-opacity="0.501961" />
<polygon points="165,64 186,42 180,101" id="28" fill="rgb(126,105,87)" fill-opacity="0.501961" />
<polygon points="188,32 180,63 162,36" id="29" fill="rgb(40,122,123)" fill-opacity="0.501961" />
<polygon points="11,112 25,32 30,35" id="30" fill="rgb(29,25,17)" fill-opacity="0.501961" />
<polygon points="96,25 86,9 83,29" id="31" fill="rgb(255,255,255)" fill-opacity="0.501961" />
<polygon points="60,7 67,21 61,22" id="32" fill="rgb(255,255,255)" fill-opacity="0.501961" />
<polygon points="141,4 132,19 107,0" id="33" fill="rgb(255,255,255)" fill-opacity="0.501961" />
<polygon points="107,25 114,-11 117,0" id="34" fill="rgb(134,94,80)" fill-opacity="0.501961" />
<polygon points="95,106 104,100 92,97" id="35" fill="rgb(180,121,61)" fill-opacity="0.501961" />
<polygon points="193,59 251,112 173,112" id="36" fill="rgb(24,17,8)" fill-opacity="0.501961" />
<polygon points="56,38 43,19 56,0" id="37" fill="rgb(173,116,94)" fill-opacity="0.501961" />
<polygon points="18,34 26,11 29,28" id="38" fill="rgb(255,197,188)" fill-opacity="0.501961" />
<polygon points="38,63 129,65 50,58" id="39" fill="rgb(138,86,67)" fill-opacity="0.501961" />
<polygon points="91,31 106,19 155,13" id="40" fill="rgb(140,107,97)" fill-opacity="0.501961" />
<polygon points="230,12 153,17 154,22" id="41" fill="rgb(95,60,44)" fill-opacity="0.501961" />
<polygon points="131,18 135,31 136,0" id="42" fill="rgb(255,255,255)" fill-opacity="0.501961" />
<polygon points="68,0 95,0 96,11" id="43" fill="rgb(112,85,83)" fill-opacity="0.501961" />
<polygon points="221,53 218,15 216,67" id="44" fill="rgb(169,162,154)" fill-opacity="0.501961" />
<polygon points="111,40 86,112 56,99" id="45" fill="rgb(20,13,15)" fill-opacity="0.501961" />
<polygon points="256,66 225,55 256,0" id="46" fill="rgb(110,84,43)" fill-opacity="0.501961" />
<polygon points="149,60 138,67 151,51" id="47" fill="rgb(222,183,144)" fill-opacity="0.501961" />
<polygon points="103,13 96,5 115,-17" id="48" fill="rgb(255,255,255)" fill-opacity="0.501961" />
<polygon points="164,61 123,49 189,47" id="49" fill="rgb(47,70,60)" fill-opacity="0.501961" />
</svg>