<?xml version="1.0" standalone="no"?>
<svg xmlns="http://www.w3.org/2000/svg" version="1.2" baseProfile="tiny" width="256" height="179" viewBox="0 0 256 179">
<rect x="0" y="0" width="256" height="179" id="0" fill="rgb(133,134,142)" fill-opacity="1" />
<polygon points="150,98 0,81 0,179" id="1" fill="rgb(4,12,44)" fill-opacity="0.501961" />
<polygon points="0,0 57,155 128,0" id="2" fill="rgb(199,216,248)" fill-opacity="0.501961" />
<polygon points="137,0 99,76 193,34" id="3" fill="rgb(0,0,11)" fill-opacity="0.501961" />
<polygon points="231,179 228,117 48,160" id="4" fill="rgb(223,213,189)" fill-opacity="0.501961" />
<polygon points="256,93 182,95 187,0" id="5" fill="rgb(221,218,216)" fill-opacity="0.501961" />
<polygon points="148,98 100,143 0,82" id="6" fill="rgb(32,37,64)" fill-opacity="0.501961" />
<polygon points="0,76 158,101 0,23" id="7" fill="rgb(198,215,246)" fill-opacity="0.501961" />
<polygon points="256,169 188,88 256,106" id="8" fill="rgb(67,47,27)" fill-opacity="0.501961" />
<polygon points="155,0 229,48 223,0" id="9" fill="rgb(236,229,219)" fill-opacity="0.501961" />
<polygon points="105,39 165,0 174,92" id="10" fill="rgb(34,37,54)" fill-opacity="0.501961" />
<polygon points="0,169 42,170 1,120" id="11" fill="rgb(0,0,0)" fill-opacity="0.501961" />
<polygon points="152,111 147,52 132,137" id="12" fill="rgb(255,239,218)" fill-opacity="0.501961" />
<polygon points="38,164 136,138 24,135" id="13" fill="rgb(195,182,152)" fill-opacity="0.501961" />
<polygon points="256,0 223,0 256,67" id="14" fill="rgb(66,65,66)" fill-opacity="0.501961" />
<polygon points="166,88 142,133 235,119" id="15" fill="rgb(157,96,46)" fill-opacity="0.501961" />
<polygon points="186,47 183,126 192,93" id="16" fill="rgb(255,255,233)" fill-opacity="0.501961" />
<polygon points="140,135 216,179 242,118" id="17" fill="rgb(196,191,182)" fill-opacity="0.501961" />
<polygon points="60,73 24,0 141,0" id="18" fill="rgb(188,204,233)" fill-opacity="0.501961" />
<polygon points="16,159 0,82 61,89" id="19" fill="rgb(16,34,76)" fill-opacity="0.501961" />
<polygon points="141,92 40,118 127,135" id="20" fill="rgb(62,65,86)" fill-opacity="0.501961" />
<polygon points="149,146 28,150 36,164" id="21" fill="rgb(93,107,116)" fill-opacity="0.501961" />
</svg>