<?xml version="1.0" standalone="no"?>
<svg xmlns="http://www.w3.org/2000/svg" version="1.2" baseProfile="tiny" width="256" height="180" viewBox="0 0 256 180">
<rect x="0" y="0" width="256" height="180" id="0" fill="rgb(206,1,3)" fill-opacity="1" />
<polygon points="134,100 131,180 256,179" id="1" fill="rgb(0,0,0)" fill-opacity="0.501961" />
<polygon points="256,78 184,36 256,39" id="2" fill="rgb(0,0,0)" fill-opacity="0.501961" />
<polygon points="256,180 134,180 256,130" id="3" fill="rgb(0,0,0)" fill-opacity="0.501961" />
<polygon points="256,0 0,180 0,0" id="4" fill="rgb(255,0,1)" fill-opacity="0.501961" />
<polygon points="135,174 199,180 148,68" id="5" fill="rgb(5,25,25)" fill-opacity="0.501961" />
<polygon points="144,87 149,112 177,95" id="6" fill="rgb(255,208,209)" fill-opacity="0.501961" />
<polygon points="0,180 84,1 141,180" id="7" fill="rgb(255,0,1)" fill-opacity="0.501961" />
<polygon points="208,99 222,142 188,100" id="8" fill="rgb(0,0,0)" fill-opacity="0.501961" />
<polygon points="256,85 249,131 61,0" id="9" fill="rgb(255,0,1)" fill-opacity="0.501961" />
<polygon points="197,33 197,59 251,43" id="10" fill="rgb(0,1,1)" fill-opacity="0.501961" />
<polygon points="173,143 221,156 160,44" id="11" fill="rgb(229,0,0)" fill-opacity="0.501961" />
<polygon points="131,131 172,102 140,180" id="12" fill="rgb(0,0,0)" fill-opacity="0.501961" />
<polygon points="108,0 83,180 147,96" id="13" fill="rgb(255,0,2)" fill-opacity="0.501961" />
<polygon points="227,76 214,38 256,47" id="14" fill="rgb(19,1,1)" fill-opacity="0.501961" />
<polygon points="198,180 256,180 256,122" id="15" fill="rgb(74,1,2)" fill-opacity="0.501961" />
<polygon points="131,155 133,111 176,106" id="16" fill="rgb(0,0,0)" fill-opacity="0.501961" />
<polygon points="4,0 256,0 256,40" id="17" fill="rgb(255,0,1)" fill-opacity="0.501961" />
<polygon points="212,180 214,112 241,177" id="18" fill="rgb(139,1,2)" fill-opacity="0.501961" />
<polygon points="225,48 212,53 181,124" id="19" fill="rgb(255,0,1)" fill-opacity="0.501961" />
<polygon points="0,0 82,12 0,179" id="20" fill="rgb(255,0,2)" fill-opacity="0.501961" />
<polygon points="165,74 144,75 140,87" id="21" fill="rgb(15,0,0)" fill-opacity="0.501961" />
<polygon points="256,125 254,180 240,145" id="22" fill="rgb(0,1,1)" fill-opacity="0.501961" />
<polygon points="148,107 162,89 160,105" id="23" fill="rgb(255,255,255)" fill-opacity="0.501961" />
<polygon points="144,79 115,180 0,180" id="24" fill="rgb(254,0,2)" fill-opacity="0.501961" />
<polygon points="153,22 173,117 208,2" id="25" fill="rgb(254,0,1)" fill-opacity="0.501961" />
<polygon points="221,126 193,112 206,105" id="26" fill="rgb(0,1,2)" fill-opacity="0.501961" />
<polygon points="183,135 208,180 131,169" id="27" fill="rgb(26,0,0)" fill-opacity="0.501961" />
<polygon points="161,102 218,95 222,45" id="28" fill="rgb(238,0,0)" fill-opacity="0.501961" />
<polygon points="218,141 178,153 208,140" id="29" fill="rgb(66,42,44)" fill-opacity="0.501961" />
<polygon points="256,76 230,143 205,72" id="30" fill="rgb(255,0,2)" fill-opacity="0.501961" />
<polygon points="238,156 157,156 135,137" id="31" fill="rgb(81,0,0)" fill-opacity="0.501961" />
<polygon points="167,125 198,147 191,68" id="32" fill="rgb(225,0,2)" fill-opacity="0.501961" />
<polygon points="225,75 222,43 264,51" id="33" fill="rgb(35,1,1)" fill-opacity="0.501961" />
<polygon points="198,61 226,41 204,33" id="34" fill="rgb(15,0,1)" fill-opacity="0.501961" />
<polygon points="256,32 212,0 223,40" id="35" fill="rgb(255,0,2)" fill-opacity="0.501961" />
<polygon points="141,81 170,94 167,78" id="36" fill="rgb(84,4,5)" fill-opacity="0.501961" />
<polygon points="143,180 227,150 196,180" id="37" fill="rgb(2,0,0)" fill-opacity="0.501961" />
<polygon points="135,167 166,105 134,114" id="38" fill="rgb(7,0,0)" fill-opacity="0.501961" />
</svg>