<?xml version="1.0" standalone="no"?>
<svg xmlns="http://www.w3.org/2000/svg" version="1.2" baseProfile="tiny" width="256" height="188" viewBox="0 0 256 188">
<rect x="0" y="0" width="256" height="188" id="0" fill="rgb(63,61,60)" fill-opacity="1" />
<polygon points="209,0 165,151 72,43" id="1" fill="rgb(255,255,255)" fill-opacity="0.501961" />
<polygon points="117,0 0,188 0,0" id="2" fill="rgb(0,0,0)" fill-opacity="0.501961" />
<polygon points="213,36 69,104 146,4" id="3" fill="rgb(255,255,255)" fill-opacity="0.501961" />
<polygon points="256,188 256,0 148,112" id="4" fill="rgb(1,0,0)" fill-opacity="0.501961" />
<polygon points="43,0 96,188 0,188" id="5" fill="rgb(0,0,0)" fill-opacity="0.501961" />
<polygon points="85,185 80,53 201,137" id="6" fill="rgb(142,128,117)" fill-opacity="0.501961" />
<polygon points="111,0 256,38 256,0" id="7" fill="rgb(7,15,30)" fill-opacity="0.501961" />
<polygon points="232,153 46,188 256,188" id="8" fill="rgb(0,0,0)" fill-opacity="0.501961" />
<polygon points="153,10 82,55 215,42" id="9" fill="rgb(255,255,255)" fill-opacity="0.501961" />
<polygon points="0,188 109,0 0,0" id="10" fill="rgb(0,0,0)" fill-opacity="0.501961" />
<polygon points="178,163 95,166 185,69" id="11" fill="rgb(132,123,122)" fill-opacity="0.501961" />
<polygon points="71,69 0,188 85,188" id="12" fill="rgb(0,0,0)" fill-opacity="0.501961" />
<polygon points="74,79 98,35 177,86" id="13" fill="rgb(195,200,202)" fill-opacity="0.501961" />
<polygon points="113,128 129,141 129,100" id="14" fill="rgb(0,0,0)" fill-opacity="0.501961" />
</svg>