<?xml version="1.0" standalone="no"?>
<svg xmlns="http://www.w3.org/2000/svg" version="1.2" baseProfile="tiny" width="256" height="170" viewBox="0 0 256 170">
<rect x="0" y="0" width="256" height="170" id="0" fill="rgb(87,92,103)" fill-opacity="1" />
<polygon points="231,42 90,0 157,170" id="1" fill="rgb(177,177,181)" fill-opacity="0.501961" />
<polygon points="0,97 153,170 5,170" id="2" fill="rgb(0,0,0)" fill-opacity="0.501961" />
<polygon points="256,170 135,164 256,124" id="3" fill="rgb(0,0,0)" fill-opacity="0.501961" />
<polygon points="39,14 124,0 167,45" id="4" fill="rgb(217,203,186)" fill-opacity="0.501961" />
<polygon points="152,120 137,31 0,69" id="5" fill="rgb(105,78,75)" fill-opacity="0.501961" />
<polygon points="173,160 165,78 118,170" id="6" fill="rgb(204,183,142)" fill-opacity="0.501961" />
<polygon points="74,105 115,143 114,41" id="7" fill="rgb(165,148,168)" fill-opacity="0.501961" />
<polygon points="76,62 30,170 79,170" id="8" fill="rgb(8,2,0)" fill-opacity="0.501961" />
<polygon points="180,0 167,151 256,78" id="9" fill="rgb(71,113,162)" fill-opacity="0.501961" />
<polygon points="62,48 121,31 146,51" id="10" fill="rgb(37,23,17)" fill-opacity="0.501961" />
<polygon points="1,62 -6,102 48,65" id="11" fill="rgb(0,13,30)" fill-opacity="0.501961" />
<polygon points="77,0 48,113 22,101" id="12" fill="rgb(133,154,175)" fill-opacity="0.501961" />
<polygon points="221,170 252,0 256,170" id="13" fill="rgb(13,30,50)" fill-opacity="0.501961" />
<polygon points="256,25 256,6 155,23" id="14" fill="rgb(26,19,24)" fill-opacity="0.501961" />
<polygon points="168,100 153,104 145,10" id="15" fill="rgb(236,228,214)" fill-opacity="0.501961" />
<polygon points="69,24 0,20 0,33" id="16" fill="rgb(1,0,1)" fill-opacity="0.501961" />
<polygon points="106,102 151,81 92,81" id="17" fill="rgb(60,35,26)" fill-opacity="0.501961" />
<polygon points="203,0 212,136 177,133" id="18" fill="rgb(111,146,187)" fill-opacity="0.501961" />
<polygon points="138,159 180,170 195,128" id="19" fill="rgb(61,61,57)" fill-opacity="0.501961" />
<polygon points="0,117 12,170 112,170" id="20" fill="rgb(0,2,12)" fill-opacity="0.501961" />
<polygon points="256,136 255,170 179,151" id="21" fill="rgb(0,0,1)" fill-opacity="0.501961" />
<polygon points="124,67 94,52 73,101" id="22" fill="rgb(179,159,171)" fill-opacity="0.501961" />
<polygon points="89,13 42,23 47,-26" id="23" fill="rgb(57,112,169)" fill-opacity="0.501961" />
<polygon points="173,163 185,170 136,95" id="24" fill="rgb(202,193,177)" fill-opacity="0.501961" />
<polygon points="109,0 57,32 58,46" id="25" fill="rgb(222,188,152)" fill-opacity="0.501961" />
<polygon points="116,0 169,0 155,31" id="26" fill="rgb(112,131,150)" fill-opacity="0.501961" />
<polygon points="256,105 168,117 175,94" id="27" fill="rgb(54,77,107)" fill-opacity="0.501961" />
<polygon points="102,0 168,39 151,44" id="28" fill="rgb(244,239,228)" fill-opacity="0.501961" />
<polygon points="174,133 144,132 151,116" id="29" fill="rgb(250,250,238)" fill-opacity="0.501961" />
<polygon points="256,64 236,142 181,-18" id="30" fill="rgb(69,94,127)" fill-opacity="0.501961" />
<polygon points="110,168 149,99 140,138" id="31" fill="rgb(89,54,50)" fill-opacity="0.501961" />
<polygon points="89,16 50,95 77,113" id="32" fill="rgb(89,66,51)" fill-opacity="0.501961" />
<polygon points="89,116 96,134 118,113" id="33" fill="rgb(159,187,234)" fill-opacity="0.501961" />
<polygon points="123,153 0,118 0,96" id="34" fill="rgb(43,60,86)" fill-opacity="0.501961" />
<polygon points="255,60 226,0 256,0" id="35" fill="rgb(36,42,45)" fill-opacity="0.501961" />
<polygon points="179,84 209,95 211,50" id="36" fill="rgb(147,176,202)" fill-opacity="0.501961" />
<polygon points="32,138 56,107 41,23" id="37" fill="rgb(92,117,152)" fill-opacity="0.501961" />
<polygon points="83,0 70,23 163,50" id="38" fill="rgb(167,140,118)" fill-opacity="0.501961" />
<polygon points="189,170 256,167 169,135" id="39" fill="rgb(22,29,37)" fill-opacity="0.501961" />
</svg>