<?xml version="1.0" standalone="no"?>
<svg xmlns="http://www.w3.org/2000/svg" version="1.2" baseProfile="tiny" width="256" height="170" viewBox="0 0 256 170">
<rect x="0" y="0" width="256" height="170" id="0" fill="rgb(98,92,93)" fill-opacity="1" />
<polygon points="188,100 0,0 256,0" id="1" fill="rgb(255,255,255)" fill-opacity="0.501961" />
<polygon points="16,20 256,168 0,170" id="2" fill="rgb(0,0,0)" fill-opacity="0.501961" />
<polygon points="120,170 256,151 181,61" id="3" fill="rgb(4,0,0)" fill-opacity="0.501961" />
<polygon points="53,93 132,0 119,90" id="4" fill="rgb(205,191,190)" fill-opacity="0.501961" />
<polygon points="254,85 131,87 256,1" id="5" fill="rgb(179,177,190)" fill-opacity="0.501961" />
<polygon points="256,92 256,170 133,170" id="6" fill="rgb(0,0,0)" fill-opacity="0.501961" />
<polygon points="149,170 0,67 0,170" id="7" fill="rgb(1,0,0)" fill-opacity="0.501961" />
<polygon points="157,65 128,0 0,6" id="8" fill="rgb(243,231,231)" fill-opacity="0.501961" />
<polygon points="0,12 0,0 122,0" id="9" fill="rgb(255,255,255)" fill-opacity="0.501961" />
</svg>