<?xml version="1.0" standalone="no"?>
<svg xmlns="http://www.w3.org/2000/svg" version="1.2" baseProfile="tiny" width="256" height="170" viewBox="0 0 256 170">
<rect x="0" y="0" width="256" height="170" id="0" fill="rgb(148,149,153)" fill-opacity="1" />
<polygon points="0,72 212,170 0,167" id="1" fill="rgb(0,0,0)" fill-opacity="0.501961" />
<polygon points="0,0 256,97 189,170" id="2" fill="rgb(255,255,255)" fill-opacity="0.501961" />
<polygon points="22,0 215,39 256,95" id="3" fill="rgb(0,0,0)" fill-opacity="0.501961" />
<polygon points="0,69 162,144 0,1" id="4" fill="rgb(255,255,255)" fill-opacity="0.501961" />
<polygon points="256,57 256,0 111,0" id="5" fill="rgb(254,255,255)" fill-opacity="0.501961" />
<polygon points="108,0 256,96 25,0" id="6" fill="rgb(10,19,29)" fill-opacity="0.501961" />
<polygon points="112,170 0,115 0,167" id="7" fill="rgb(184,162,153)" fill-opacity="0.501961" />
<polygon points="256,95 256,170 196,167" id="8" fill="rgb(250,251,255)" fill-opacity="0.501961" />
<polygon points="113,170 209,167 0,102" id="9" fill="rgb(0,0,8)" fill-opacity="0.501961" />
<polygon points="93,69 230,133 256,136" id="10" fill="rgb(44,48,52)" fill-opacity="0.501961" />
<polygon points="104,0 256,58 256,96" id="11" fill="rgb(59,72,76)" fill-opacity="0.501961" />
<polygon points="195,72 0,0 18,0" id="12" fill="rgb(255,255,255)" fill-opacity="0.501961" />
<polygon points="200,0 256,26 255,20" id="13" fill="rgb(26,23,24)" fill-opacity="0.501961" />
<polygon points="138,170 0,115 0,86" id="14" fill="rgb(1,0,12)" fill-opacity="0.501961" />
<polygon points="127,88 105,73 2,29" id="15" fill="rgb(76,80,86)" fill-opacity="0.501961" />
<polygon points="233,133 34,46 214,170" id="16" fill="rgb(222,224,231)" fill-opacity="0.501961" />
<polygon points="142,164 214,170 147,138" id="17" fill="rgb(89,89,86)" fill-opacity="0.501961" />
<polygon points="140,40 108,0 256,62" id="18" fill="rgb(92,99,102)" fill-opacity="0.501961" />
<polygon points="256,97 10,0 256,138" id="19" fill="rgb(219,221,227)" fill-opacity="0.501961" />
</svg>