<?xml version="1.0" standalone="no"?>
<svg xmlns="http://www.w3.org/2000/svg" version="1.2" baseProfile="tiny" width="256" height="144" viewBox="0 0 256 144">
<rect x="0" y="0" width="256" height="144" id="0" fill="rgb(170,89,244)" fill-opacity="1" />
<polygon points="78,89 91,132 149,114" id="1" fill="rgb(255,255,0)" fill-opacity="0.501961" />
<polygon points="130,67 62,62 58,144" id="2" fill="rgb(255,185,255)" fill-opacity="0.501961" />
<polygon points="0,112 84,109 0,21" id="3" fill="rgb(142,0,255)" fill-opacity="0.501961" />
<polygon points="58,15 229,89 0,22" id="4" fill="rgb(137,0,255)" fill-opacity="0.501961" />
<polygon points="158,144 69,138 62,144" id="5" fill="rgb(255,113,0)" fill-opacity="0.501961" />
<polygon points="12,21 -12,-10 31,17" id="6" fill="rgb(0,255,255)" fill-opacity="0.501961" />
<polygon points="42,30 78,62 45,60" id="7" fill="rgb(11,197,255)" fill-opacity="0.501961" />
<polygon points="87,116 105,144 105,112" id="8" fill="rgb(255,255,0)" fill-opacity="0.501961" />
<polygon points="138,125 87,111 137,103" id="9" fill="rgb(255,181,0)" fill-opacity="0.501961" />
<polygon points="41,56 209,93 45,76" id="10" fill="rgb(255,94,255)" fill-opacity="0.501961" />
<polygon points="129,22 176,32 201,67" id="11" fill="rgb(148,0,255)" fill-opacity="0.501961" />
<polygon points="62,136 97,138 51,113" id="12" fill="rgb(190,255,227)" fill-opacity="0.501961" />
<polygon points="157,113 93,79 97,101" id="13" fill="rgb(162,103,255)" fill-opacity="0.501961" />
<polygon points="0,121 56,144 5,144" id="14" fill="rgb(164,0,255)" fill-opacity="0.501961" />
<polygon points="110,36 192,71 82,45" id="15" fill="rgb(190,0,255)" fill-opacity="0.501961" />
<polygon points="69,82 84,104 89,78" id="16" fill="rgb(255,255,237)" fill-opacity="0.501961" />
<polygon points="0,111 63,112 0,90" id="17" fill="rgb(93,0,255)" fill-opacity="0.501961" />
<polygon points="1,123 18,111 70,144" id="18" fill="rgb(255,144,255)" fill-opacity="0.501961" />
<polygon points="37,40 196,0 50,0" id="19" fill="rgb(150,106,255)" fill-opacity="0.501961" />
<polygon points="77,138 130,144 68,144" id="20" fill="rgb(255,98,0)" fill-opacity="0.501961" />
<polygon points="252,0 256,144 123,144" id="21" fill="rgb(159,96,255)" fill-opacity="0.501961" />
<polygon points="135,122 119,138 106,121" id="22" fill="rgb(148,89,255)" fill-opacity="0.501961" />
<polygon points="24,18 -5,11 3,-8" id="23" fill="rgb(0,210,255)" fill-opacity="0.501961" />
<polygon points="0,52 21,57 0,0" id="24" fill="rgb(157,137,255)" fill-opacity="0.501961" />
<polygon points="145,72 77,79 165,91" id="25" fill="rgb(255,73,255)" fill-opacity="0.501961" />
<polygon points="126,42 0,16 34,36" id="26" fill="rgb(113,0,255)" fill-opacity="0.501961" />
<polygon points="67,112 40,116 0,0" id="27" fill="rgb(155,6,255)" fill-opacity="0.501961" />
<polygon points="43,93 21,71 0,91" id="28" fill="rgb(193,130,255)" fill-opacity="0.501961" />
<polygon points="157,42 153,24 208,71" id="29" fill="rgb(160,0,255)" fill-opacity="0.501961" />
<polygon points="86,139 63,64 48,88" id="30" fill="rgb(198,90,255)" fill-opacity="0.501961" />
<polygon points="101,51 157,76 31,58" id="31" fill="rgb(153,149,253)" fill-opacity="0.501961" />
<polygon points="72,117 62,139 50,114" id="32" fill="rgb(170,255,255)" fill-opacity="0.501961" />
<polygon points="55,27 37,43 72,64" id="33" fill="rgb(51,155,255)" fill-opacity="0.501961" />
<polygon points="45,78 0,70 0,52" id="34" fill="rgb(128,0,255)" fill-opacity="0.501961" />
<polygon points="91,103 74,114 169,111" id="35" fill="rgb(255,153,72)" fill-opacity="0.501961" />
<polygon points="194,144 130,105 183,66" id="36" fill="rgb(185,96,251)" fill-opacity="0.501961" />
<polygon points="152,144 48,135 103,136" id="37" fill="rgb(255,163,219)" fill-opacity="0.501961" />
<polygon points="80,133 102,137 53,95" id="38" fill="rgb(171,71,255)" fill-opacity="0.501961" />
<polygon points="205,61 256,0 136,4" id="39" fill="rgb(158,104,255)" fill-opacity="0.501961" />
<polygon points="121,137 121,144 94,144" id="40" fill="rgb(255,108,0)" fill-opacity="0.501961" />
<polygon points="157,72 186,66 74,25" id="41" fill="rgb(170,0,255)" fill-opacity="0.501961" />
<polygon points="70,119 92,104 67,95" id="42" fill="rgb(255,125,246)" fill-opacity="0.501961" />
<polygon points="35,144 60,134 73,144" id="43" fill="rgb(255,72,242)" fill-opacity="0.501961" />
<polygon points="134,44 149,49 120,22" id="44" fill="rgb(240,137,156)" fill-opacity="0.501961" />
<polygon points="97,29 121,41 168,56" id="45" fill="rgb(155,195,255)" fill-opacity="0.501961" />
<polygon points="0,111 4,144 41,144" id="46" fill="rgb(154,0,255)" fill-opacity="0.501961" />
<polygon points="147,93 98,102 88,82" id="47" fill="rgb(149,87,255)" fill-opacity="0.501961" />
<polygon points="123,121 113,138 105,119" id="48" fill="rgb(157,92,255)" fill-opacity="0.501961" />
<polygon points="46,60 53,111 13,58" id="49" fill="rgb(169,0,255)" fill-opacity="0.501961" />
<polygon points="95,97 81,78 85,100" id="50" fill="rgb(253,255,152)" fill-opacity="0.501961" />
<polygon points="67,62 49,72 133,83" id="51" fill="rgb(255,153,255)" fill-opacity="0.501961" />
<polygon points="0,93 54,97 35,112" id="52" fill="rgb(104,0,255)" fill-opacity="0.501961" />
<polygon points="9,91 -19,69 9,74" id="53" fill="rgb(255,45,255)" fill-opacity="0.501961" />
<polygon points="37,38 68,35 59,0" id="54" fill="rgb(146,102,255)" fill-opacity="0.501961" />
<polygon points="142,71 160,88 132,90" id="55" fill="rgb(255,28,255)" fill-opacity="0.501961" />
<polygon points="134,124 95,104 141,112" id="56" fill="rgb(255,179,7)" fill-opacity="0.501961" />
<polygon points="131,46 129,59 96,47" id="57" fill="rgb(234,0,255)" fill-opacity="0.501961" />
<polygon points="85,123 111,114 101,133" id="58" fill="rgb(249,254,0)" fill-opacity="0.501961" />
<polygon points="139,76 99,57 117,71" id="59" fill="rgb(235,223,228)" fill-opacity="0.501961" />
<polygon points="216,117 169,64 250,49" id="60" fill="rgb(156,74,255)" fill-opacity="0.501961" />
<polygon points="42,97 68,80 78,99" id="61" fill="rgb(144,106,255)" fill-opacity="0.501961" />
</svg>