<?xml version="1.0" standalone="no"?>
<svg xmlns="http://www.w3.org/2000/svg" version="1.2" baseProfile="tiny" width="256" height="144" viewBox="0 0 256 144">
<rect x="0" y="0" width="256" height="144" id="0" fill="rgb(180,142,202)" fill-opacity="1" />
<polygon points="141,16 112,79 225,85" id="1" fill="rgb(252,20,0)" fill-opacity="0.501961" />
<polygon points="182,144 184,88 20,130" id="2" fill="rgb(37,52,255)" fill-opacity="0.501961" />
<polygon points="32,17 84,0 70,81" id="3" fill="rgb(255,70,0)" fill-opacity="0.501961" />
<polygon points="256,144 249,43 168,144" id="4" fill="rgb(238,242,255)" fill-opacity="0.501961" />
<polygon points="0,45 0,7 28,50" id="5" fill="rgb(255,10,0)" fill-opacity="0.501961" />
<polygon points="52,69 0,144 27,0" id="6" fill="rgb(255,255,255)" fill-opacity="0.501961" />
<polygon points="256,50 203,61 256,6" id="7" fill="rgb(57,3,255)" fill-opacity="0.501961" />
<polygon points="156,40 82,0 176,0" id="8" fill="rgb(80,207,129)" fill-opacity="0.501961" />
<polygon points="135,80 176,38 109,46" id="9" fill="rgb(255,28,0)" fill-opacity="0.501961" />
<polygon points="256,0 190,71 169,0" id="10" fill="rgb(163,182,255)" fill-opacity="0.501961" />
<polygon points="145,36 97,4 66,49" id="11" fill="rgb(205,243,254)" fill-opacity="0.501961" />
<polygon points="54,120 38,76 76,67" id="12" fill="rgb(170,43,79)" fill-opacity="0.501961" />
<polygon points="26,144 41,103 160,139" id="13" fill="rgb(94,131,255)" fill-opacity="0.501961" />
<polygon points="63,16 71,66 43,53" id="14" fill="rgb(255,0,0)" fill-opacity="0.501961" />
<polygon points="11,27 79,0 0,0" id="15" fill="rgb(255,251,247)" fill-opacity="0.501961" />
<polygon points="103,87 64,86 82,126" id="16" fill="rgb(255,255,255)" fill-opacity="0.501961" />
<polygon points="142,102 65,43 112,116" id="17" fill="rgb(88,149,255)" fill-opacity="0.501961" />
<polygon points="172,33 184,5 216,14" id="18" fill="rgb(54,5,255)" fill-opacity="0.501961" />
<polygon points="154,139 159,113 141,125" id="19" fill="rgb(255,72,33)" fill-opacity="0.501961" />
<polygon points="27,44 75,-7 109,14" id="20" fill="rgb(255,165,80)" fill-opacity="0.501961" />
<polygon points="150,25 111,53 187,48" id="21" fill="rgb(255,133,0)" fill-opacity="0.501961" />
<polygon points="225,84 256,85 256,66" id="22" fill="rgb(0,140,239)" fill-opacity="0.501961" />
<polygon points="28,144 0,92 0,144" id="23" fill="rgb(255,255,255)" fill-opacity="0.501961" />
<polygon points="128,117 95,163 85,105" id="24" fill="rgb(61,26,255)" fill-opacity="0.501961" />
<polygon points="191,105 160,113 158,90" id="25" fill="rgb(0,236,255)" fill-opacity="0.501961" />
<polygon points="64,126 62,151 89,144" id="26" fill="rgb(255,255,255)" fill-opacity="0.501961" />
<polygon points="118,10 116,47 147,2" id="27" fill="rgb(75,85,255)" fill-opacity="0.501961" />
<polygon points="165,59 147,60 141,88" id="28" fill="rgb(78,101,250)" fill-opacity="0.501961" />
<polygon points="121,144 135,155 123,113" id="29" fill="rgb(255,255,255)" fill-opacity="0.501961" />
<polygon points="39,26 61,32 4,63" id="30" fill="rgb(224,225,255)" fill-opacity="0.501961" />
<polygon points="7,48 26,47 0,15" id="31" fill="rgb(255,0,0)" fill-opacity="0.501961" />
<polygon points="67,12 66,35 29,13" id="32" fill="rgb(255,85,0)" fill-opacity="0.501961" />
<polygon points="256,114 170,120 197,88" id="33" fill="rgb(238,215,255)" fill-opacity="0.501961" />
<polygon points="256,0 179,85 223,0" id="34" fill="rgb(223,215,255)" fill-opacity="0.501961" />
<polygon points="115,118 160,90 141,125" id="35" fill="rgb(97,0,255)" fill-opacity="0.501961" />
<polygon points="110,75 83,68 90,87" id="36" fill="rgb(103,0,255)" fill-opacity="0.501961" />
<polygon points="158,0 195,68 256,79" id="37" fill="rgb(121,184,247)" fill-opacity="0.501961" />
<polygon points="0,120 32,0 45,106" id="38" fill="rgb(218,211,255)" fill-opacity="0.501961" />
<polygon points="186,136 160,144 153,106" id="39" fill="rgb(83,0,255)" fill-opacity="0.501961" />
<polygon points="131,19 170,5 167,20" id="40" fill="rgb(111,238,3)" fill-opacity="0.501961" />
<polygon points="25,69 0,55 0,71" id="41" fill="rgb(249,89,63)" fill-opacity="0.501961" />
<polygon points="55,77 69,124 91,144" id="42" fill="rgb(56,36,255)" fill-opacity="0.501961" />
<polygon points="250,40 195,89 248,63" id="43" fill="rgb(220,191,255)" fill-opacity="0.501961" />
<polygon points="148,22 221,18 160,37" id="44" fill="rgb(110,107,255)" fill-opacity="0.501961" />
<polygon points="169,56 165,71 190,65" id="45" fill="rgb(145,171,255)" fill-opacity="0.501961" />
<polygon points="150,84 113,90 90,74" id="46" fill="rgb(88,25,199)" fill-opacity="0.501961" />
<polygon points="115,88 71,124 91,88" id="47" fill="rgb(255,237,255)" fill-opacity="0.501961" />
<polygon points="138,68 103,47 180,46" id="48" fill="rgb(255,10,7)" fill-opacity="0.501961" />
<polygon points="26,70 72,74 58,60" id="49" fill="rgb(255,236,255)" fill-opacity="0.501961" />
<polygon points="157,131 155,140 133,144" id="50" fill="rgb(255,255,255)" fill-opacity="0.501961" />
<polygon points="256,81 256,144 180,136" id="51" fill="rgb(233,215,255)" fill-opacity="0.501961" />
<polygon points="75,40 90,44 62,0" id="52" fill="rgb(251,215,255)" fill-opacity="0.501961" />
<polygon points="13,129 21,104 52,133" id="53" fill="rgb(136,118,136)" fill-opacity="0.501961" />
<polygon points="243,80 197,65 191,88" id="54" fill="rgb(199,61,119)" fill-opacity="0.501961" />
<polygon points="89,66 77,107 74,61" id="55" fill="rgb(246,214,255)" fill-opacity="0.501961" />
<polygon points="46,56 58,34 76,66" id="56" fill="rgb(255,0,1)" fill-opacity="0.501961" />
<polygon points="134,98 153,87 135,111" id="57" fill="rgb(255,254,255)" fill-opacity="0.501961" />
<polygon points="88,0 109,0 101,13" id="58" fill="rgb(8,187,34)" fill-opacity="0.501961" />
<polygon points="66,3 88,20 84,0" id="59" fill="rgb(255,121,0)" fill-opacity="0.501961" />
<polygon points="248,6 226,61 256,30" id="60" fill="rgb(92,0,255)" fill-opacity="0.501961" />
<polygon points="24,35 0,20 0,42" id="61" fill="rgb(255,85,0)" fill-opacity="0.501961" />
<polygon points="233,37 245,12 154,37" id="62" fill="rgb(199,190,255)" fill-opacity="0.501961" />
<polygon points="205,5 190,19 221,19" id="63" fill="rgb(87,0,255)" fill-opacity="0.501961" />
</svg>