<?xml version="1.0" standalone="no"?>
<svg xmlns="http://www.w3.org/2000/svg" version="1.2" baseProfile="tiny" width="256" height="144" viewBox="0 0 256 144">
<rect x="0" y="0" width="256" height="144" id="0" fill="rgb(152,139,99)" fill-opacity="1" />
<polygon points="181,75 54,76 159,142" id="1" fill="rgb(167,179,255)" fill-opacity="0.501961" />
<polygon points="84,0 0,144 0,17" id="2" fill="rgb(0,191,148)" fill-opacity="0.501961" />
<polygon points="21,144 31,66 159,143" id="3" fill="rgb(186,72,0)" fill-opacity="0.501961" />
<polygon points="220,125 154,0 256,36" id="4" fill="rgb(253,131,0)" fill-opacity="0.501961" />
<polygon points="94,25 0,63 175,75" id="5" fill="rgb(255,227,61)" fill-opacity="0.501961" />
<polygon points="215,28 187,73 115,39" id="6" fill="rgb(55,0,31)" fill-opacity="0.501961" />
<polygon points="15,66 187,0 110,0" id="7" fill="rgb(216,217,255)" fill-opacity="0.501961" />
<polygon points="3,37 -9,-7 59,0" id="8" fill="rgb(255,239,255)" fill-opacity="0.501961" />
<polygon points="256,104 256,142 52,92" id="9" fill="rgb(113,120,239)" fill-opacity="0.501961" />
<polygon points="0,71 0,32 48,30" id="10" fill="rgb(0,33,7)" fill-opacity="0.501961" />
<polygon points="45,117 27,49 90,34" id="11" fill="rgb(255,227,58)" fill-opacity="0.501961" />
<polygon points="107,67 72,57 59,144" id="12" fill="rgb(96,32,48)" fill-opacity="0.501961" />
<polygon points="0,144 0,26 26,144" id="13" fill="rgb(0,205,133)" fill-opacity="0.501961" />
<polygon points="221,117 241,34 179,65" id="14" fill="rgb(249,194,0)" fill-opacity="0.501961" />
<polygon points="107,0 42,50 44,0" id="15" fill="rgb(0,190,150)" fill-opacity="0.501961" />
<polygon points="256,0 170,30 156,0" id="16" fill="rgb(255,191,0)" fill-opacity="0.501961" />
<polygon points="124,5 74,37 193,39" id="17" fill="rgb(134,99,232)" fill-opacity="0.501961" />
<polygon points="200,100 231,144 158,144" id="18" fill="rgb(102,44,6)" fill-opacity="0.501961" />
<polygon points="85,99 128,70 166,125" id="19" fill="rgb(202,215,255)" fill-opacity="0.501961" />
<polygon points="25,128 76,123 27,99" id="20" fill="rgb(89,0,0)" fill-opacity="0.501961" />
<polygon points="231,102 256,45 256,105" id="21" fill="rgb(47,0,122)" fill-opacity="0.501961" />
<polygon points="0,68 30,87 33,66" id="22" fill="rgb(0,12,0)" fill-opacity="0.501961" />
<polygon points="177,76 128,41 70,63" id="23" fill="rgb(255,177,0)" fill-opacity="0.501961" />
<polygon points="78,117 144,144 17,143" id="24" fill="rgb(219,160,0)" fill-opacity="0.501961" />
<polygon points="256,9 191,0 256,35" id="25" fill="rgb(223,188,205)" fill-opacity="0.501961" />
<polygon points="168,66 180,130 237,130" id="26" fill="rgb(88,98,192)" fill-opacity="0.501961" />
<polygon points="66,106 157,144 92,102" id="27" fill="rgb(73,14,0)" fill-opacity="0.501961" />
<polygon points="174,74 130,38 220,38" id="28" fill="rgb(84,0,33)" fill-opacity="0.501961" />
<polygon points="226,0 196,38 256,0" id="29" fill="rgb(207,72,0)" fill-opacity="0.501961" />
<polygon points="36,41 97,56 15,64" id="30" fill="rgb(244,211,192)" fill-opacity="0.501961" />
<polygon points="34,87 11,144 0,105" id="31" fill="rgb(0,195,135)" fill-opacity="0.501961" />
<polygon points="155,0 160,28 92,0" id="32" fill="rgb(212,221,229)" fill-opacity="0.501961" />
<polygon points="159,73 152,136 109,74" id="33" fill="rgb(185,196,251)" fill-opacity="0.501961" />
<polygon points="92,0 0,59 90,18" id="34" fill="rgb(0,127,83)" fill-opacity="0.501961" />
<polygon points="220,0 200,0 209,23" id="35" fill="rgb(192,227,255)" fill-opacity="0.501961" />
<polygon points="50,52 78,123 32,89" id="36" fill="rgb(247,199,4)" fill-opacity="0.501961" />
<polygon points="248,41 236,89 172,83" id="37" fill="rgb(232,170,0)" fill-opacity="0.501961" />
<polygon points="89,144 31,116 69,112" id="38" fill="rgb(100,15,0)" fill-opacity="0.501961" />
<polygon points="85,22 76,-8 17,32" id="39" fill="rgb(0,199,143)" fill-opacity="0.501961" />
<polygon points="57,0 0,0 0,35" id="40" fill="rgb(211,201,221)" fill-opacity="0.501961" />
<polygon points="35,92 0,86 0,102" id="41" fill="rgb(153,251,215)" fill-opacity="0.501961" />
<polygon points="204,23 232,87 242,28" id="42" fill="rgb(232,177,0)" fill-opacity="0.501961" />
</svg>