<?xml version="1.0" standalone="no"?>
<svg xmlns="http://www.w3.org/2000/svg" version="1.2" baseProfile="tiny" width="256" height="170" viewBox="0 0 256 170">
<rect x="0" y="0" width="256" height="170" id="0" fill="rgb(106,110,122)" fill-opacity="1" />
<polygon points="256,169 188,38 0,170" id="1" fill="rgb(0,12,35)" fill-opacity="0.501961" />
<polygon points="0,66 0,0 256,0" id="2" fill="rgb(254,244,227)" fill-opacity="0.501961" />
<polygon points="0,100 154,95 97,0" id="3" fill="rgb(184,183,181)" fill-opacity="0.501961" />
<polygon points="256,0 253,60 95,0" id="4" fill="rgb(227,219,206)" fill-opacity="0.501961" />
<polygon points="192,170 196,42 143,23" id="5" fill="rgb(0,5,28)" fill-opacity="0.501961" />
<polygon points="91,108 36,138 176,126" id="6" fill="rgb(125,147,185)" fill-opacity="0.501961" />
<polygon points="0,93 130,34 0,32" id="7" fill="rgb(124,131,147)" fill-opacity="0.501961" />
<polygon points="256,116 255,170 0,155" id="8" fill="rgb(37,44,62)" fill-opacity="0.501961" />
<polygon points="211,92 256,72 183,9" id="9" fill="rgb(160,166,176)" fill-opacity="0.501961" />
<polygon points="82,101 0,102 0,170" id="10" fill="rgb(40,67,113)" fill-opacity="0.501961" />
<polygon points="153,118 122,106 107,64" id="11" fill="rgb(196,187,171)" fill-opacity="0.501961" />
<polygon points="201,57 206,116 144,106" id="12" fill="rgb(3,5,15)" fill-opacity="0.501961" />
<polygon points="102,84 104,111 119,95" id="13" fill="rgb(0,0,0)" fill-opacity="0.501961" />
<polygon points="0,98 103,85 0,67" id="14" fill="rgb(182,180,178)" fill-opacity="0.501961" />
<polygon points="241,87 256,112 168,141" id="15" fill="rgb(58,87,134)" fill-opacity="0.501961" />
<polygon points="129,87 122,58 150,72" id="16" fill="rgb(222,211,198)" fill-opacity="0.501961" />
<polygon points="256,0 256,37 66,18" id="17" fill="rgb(198,191,183)" fill-opacity="0.501961" />
<polygon points="127,32 156,121 162,26" id="18" fill="rgb(78,74,72)" fill-opacity="0.501961" />
<polygon points="0,25 190,1 0,0" id="19" fill="rgb(215,205,193)" fill-opacity="0.501961" />
<polygon points="103,79 134,118 111,112" id="20" fill="rgb(5,6,11)" fill-opacity="0.501961" />
<polygon points="0,34 103,43 0,73" id="21" fill="rgb(118,124,139)" fill-opacity="0.501961" />
<polygon points="54,146 0,123 104,102" id="22" fill="rgb(89,112,151)" fill-opacity="0.501961" />
</svg>