<?xml version="1.0" standalone="no"?>
<svg xmlns="http://www.w3.org/2000/svg" version="1.2" baseProfile="tiny" width="256" height="170" viewBox="0 0 256 170">
<rect x="0" y="0" width="256" height="170" id="0" fill="rgb(99,95,94)" fill-opacity="1" />
<polygon points="211,29 249,124 261,-20" id="1" fill="rgb(255,255,255)" fill-opacity="0.501961" />
<polygon points="256,170 0,157 256,108" id="2" fill="rgb(25,23,19)" fill-opacity="0.501961" />
<polygon points="256,0 227,0 232,133" id="3" fill="rgb(255,255,255)" fill-opacity="0.501961" />
<polygon points="54,58 99,143 105,0" id="4" fill="rgb(188,183,177)" fill-opacity="0.501961" />
<polygon points="6,0 0,170 45,170" id="5" fill="rgb(25,19,12)" fill-opacity="0.501961" />
<polygon points="72,170 228,0 228,86" id="6" fill="rgb(55,54,54)" fill-opacity="0.501961" />
<polygon points="256,116 227,0 256,0" id="7" fill="rgb(255,255,255)" fill-opacity="0.501961" />
<polygon points="182,42 188,0 115,0" id="8" fill="rgb(164,168,177)" fill-opacity="0.501961" />
<polygon points="80,48 0,143 0,21" id="9" fill="rgb(63,55,50)" fill-opacity="0.501961" />
<polygon points="9,8 90,21 26,29" id="10" fill="rgb(174,176,182)" fill-opacity="0.501961" />
<polygon points="16,108 125,58 106,117" id="11" fill="rgb(148,141,137)" fill-opacity="0.501961" />
<polygon points="205,25 238,127 207,135" id="12" fill="rgb(115,118,122)" fill-opacity="0.501961" />
<polygon points="193,71 203,0 192,0" id="13" fill="rgb(0,0,0)" fill-opacity="0.501961" />
<polygon points="0,125 147,144 0,139" id="14" fill="rgb(22,17,10)" fill-opacity="0.501961" />
<polygon points="121,64 0,39 132,85" id="15" fill="rgb(166,162,157)" fill-opacity="0.501961" />
<polygon points="142,45 128,141 156,160" id="16" fill="rgb(26,22,23)" fill-opacity="0.501961" />
<polygon points="121,148 25,150 28,143" id="17" fill="rgb(181,173,165)" fill-opacity="0.501961" />
<polygon points="230,102 230,0 256,73" id="18" fill="rgb(254,255,255)" fill-opacity="0.501961" />
<polygon points="161,116 155,71 163,13" id="19" fill="rgb(188,178,169)" fill-opacity="0.501961" />
<polygon points="154,45 93,44 62,0" id="20" fill="rgb(159,155,153)" fill-opacity="0.501961" />
<polygon points="256,109 256,163 167,157" id="21" fill="rgb(24,24,29)" fill-opacity="0.501961" />
</svg>