<?xml version="1.0" standalone="no"?>
<svg xmlns="http://www.w3.org/2000/svg" version="1.2" baseProfile="tiny" width="256" height="170" viewBox="0 0 256 170">
<rect x="0" y="0" width="256" height="170" id="0" fill="rgb(103,100,93)" fill-opacity="1" />
<polygon points="106,170 254,58 256,170" id="1" fill="rgb(16,15,9)" fill-opacity="0.501961" />
<polygon points="126,111 237,0 11,0" id="2" fill="rgb(174,167,159)" fill-opacity="0.501961" />
<polygon points="134,35 183,0 40,0" id="3" fill="rgb(176,183,194)" fill-opacity="0.501961" />
<polygon points="71,170 256,118 170,56" id="4" fill="rgb(73,72,66)" fill-opacity="0.501961" />
<polygon points="145,52 67,122 75,55" id="5" fill="rgb(82,78,69)" fill-opacity="0.501961" />
<polygon points="141,15 0,79 12,0" id="6" fill="rgb(132,130,124)" fill-opacity="0.501961" />
<polygon points="153,131 166,75 169,138" id="7" fill="rgb(174,160,155)" fill-opacity="0.501961" />
<polygon points="69,25 149,93 138,115" id="8" fill="rgb(177,166,141)" fill-opacity="0.501961" />
<polygon points="137,62 158,107 140,32" id="9" fill="rgb(49,48,42)" fill-opacity="0.501961" />
<polygon points="115,130 152,102 157,149" id="10" fill="rgb(33,38,34)" fill-opacity="0.501961" />
<polygon points="256,96 149,107 256,16" id="11" fill="rgb(83,81,75)" fill-opacity="0.501961" />
<polygon points="73,170 0,170 0,133" id="12" fill="rgb(64,67,59)" fill-opacity="0.501961" />
<polygon points="17,147 14,107 133,141" id="13" fill="rgb(136,129,121)" fill-opacity="0.501961" />
<polygon points="256,109 154,170 256,170" id="14" fill="rgb(37,34,25)" fill-opacity="0.501961" />
<polygon points="182,0 222,97 244,0" id="15" fill="rgb(121,114,101)" fill-opacity="0.501961" />
<polygon points="141,107 98,108 114,71" id="16" fill="rgb(157,161,135)" fill-opacity="0.501961" />
<polygon points="221,147 161,149 191,67" id="17" fill="rgb(55,54,46)" fill-opacity="0.501961" />
<polygon points="148,40 133,34 112,38" id="18" fill="rgb(49,29,21)" fill-opacity="0.501961" />
<polygon points="113,44 141,42 134,60" id="19" fill="rgb(228,159,138)" fill-opacity="0.501961" />
<polygon points="133,22 99,36 148,31" id="20" fill="rgb(211,214,199)" fill-opacity="0.501961" />
<polygon points="161,123 168,135 155,128" id="21" fill="rgb(255,235,231)" fill-opacity="0.501961" />
<polygon points="67,120 97,69 84,62" id="22" fill="rgb(50,51,46)" fill-opacity="0.501961" />
<polygon points="83,0 8,48 93,61" id="23" fill="rgb(141,134,126)" fill-opacity="0.501961" />
<polygon points="133,5 141,-26 183,3" id="24" fill="rgb(205,220,236)" fill-opacity="0.501961" />
<polygon points="161,13 143,54 164,96" id="25" fill="rgb(154,151,141)" fill-opacity="0.501961" />
<polygon points="115,47 113,67 155,66" id="26" fill="rgb(78,68,62)" fill-opacity="0.501961" />
<polygon points="156,54 234,23 134,14" id="27" fill="rgb(154,144,132)" fill-opacity="0.501961" />
<polygon points="118,108 82,129 170,122" id="28" fill="rgb(57,61,57)" fill-opacity="0.501961" />
<polygon points="150,62 44,95 256,59" id="29" fill="rgb(111,110,95)" fill-opacity="0.501961" />
<polygon points="95,94 105,69 113,75" id="30" fill="rgb(51,57,55)" fill-opacity="0.501961" />
</svg>