<?xml version="1.0" standalone="no"?>
<svg xmlns="http://www.w3.org/2000/svg" version="1.2" baseProfile="tiny" width="256" height="170" viewBox="0 0 256 170">
<rect x="0" y="0" width="256" height="170" id="0" fill="rgb(120,117,116)" fill-opacity="1" />
<polygon points="67,65 26,0 256,0" id="1" fill="rgb(255,255,255)" fill-opacity="0.501961" />
<polygon points="0,34 0,170 256,169" id="2" fill="rgb(50,46,42)" fill-opacity="0.501961" />
<polygon points="256,52 22,0 256,0" id="3" fill="rgb(255,255,255)" fill-opacity="0.501961" />
<polygon points="129,16 264,159 201,170" id="4" fill="rgb(52,49,45)" fill-opacity="0.501961" />
<polygon points="256,58 136,28 99,98" id="5" fill="rgb(71,63,56)" fill-opacity="0.501961" />
<polygon points="145,125 158,84 98,107" id="6" fill="rgb(223,216,205)" fill-opacity="0.501961" />
<polygon points="127,0 0,30 123,68" id="7" fill="rgb(220,223,226)" fill-opacity="0.501961" />
<polygon points="55,147 51,72 133,70" id="8" fill="rgb(43,39,32)" fill-opacity="0.501961" />
<polygon points="162,12 167,58 171,17" id="9" fill="rgb(47,27,25)" fill-opacity="0.501961" />
<polygon points="86,48 141,27 79,71" id="10" fill="rgb(107,104,96)" fill-opacity="0.501961" />
<polygon points="213,101 213,117 73,97" id="11" fill="rgb(174,168,160)" fill-opacity="0.501961" />
<polygon points="131,142 89,170 97,137" id="12" fill="rgb(158,161,169)" fill-opacity="0.501961" />
<polygon points="167,114 256,153 259,183" id="13" fill="rgb(21,20,20)" fill-opacity="0.501961" />
<polygon points="24,5 153,0 120,41" id="14" fill="rgb(241,244,249)" fill-opacity="0.501961" />
<polygon points="40,75 0,124 0,82" id="15" fill="rgb(21,15,6)" fill-opacity="0.501961" />
<polygon points="39,0 0,12 62,63" id="16" fill="rgb(160,158,167)" fill-opacity="0.501961" />
<polygon points="256,60 256,90 172,69" id="17" fill="rgb(67,63,56)" fill-opacity="0.501961" />
<polygon points="256,45 251,0 152,12" id="18" fill="rgb(212,219,227)" fill-opacity="0.501961" />
<polygon points="101,112 65,116 146,129" id="19" fill="rgb(0,1,3)" fill-opacity="0.501961" />
<polygon points="223,137 215,116 189,127" id="20" fill="rgb(1,0,0)" fill-opacity="0.501961" />
<polygon points="145,20 121,45 199,167" id="21" fill="rgb(97,93,91)" fill-opacity="0.501961" />
<polygon points="56,134 39,88 0,138" id="22" fill="rgb(122,116,110)" fill-opacity="0.501961" />
<polygon points="207,70 215,45 219,114" id="23" fill="rgb(179,168,152)" fill-opacity="0.501961" />
<polygon points="118,113 88,49 76,116" id="24" fill="rgb(96,92,88)" fill-opacity="0.501961" />
<polygon points="47,47 81,0 82,71" id="25" fill="rgb(232,231,230)" fill-opacity="0.501961" />
<polygon points="40,80 29,0 60,72" id="26" fill="rgb(123,113,108)" fill-opacity="0.501961" />
</svg>