<?xml version="1.0" standalone="no"?>
<svg xmlns="http://www.w3.org/2000/svg" version="1.2" baseProfile="tiny" width="256" height="171" viewBox="0 0 256 171">
<rect x="0" y="0" width="256" height="171" id="0" fill="rgb(70,70,76)" fill-opacity="1" />
<polygon points="256,103 0,0 256,0" id="1" fill="rgb(162,171,189)" fill-opacity="0.501961" />
<polygon points="39,26 256,169 -7,172" id="2" fill="rgb(10,7,7)" fill-opacity="0.501961" />
<polygon points="164,35 125,72 177,83" id="3" fill="rgb(255,197,65)" fill-opacity="0.501961" />
<polygon points="0,37 256,0 0,0" id="4" fill="rgb(124,144,174)" fill-opacity="0.501961" />
<polygon points="91,32 151,38 63,171" id="5" fill="rgb(34,21,19)" fill-opacity="0.501961" />
<polygon points="256,89 171,111 256,171" id="6" fill="rgb(17,19,27)" fill-opacity="0.501961" />
<polygon points="172,66 166,51 140,68" id="7" fill="rgb(255,255,217)" fill-opacity="0.501961" />
<polygon points="0,36 0,138 147,38" id="8" fill="rgb(42,44,49)" fill-opacity="0.501961" />
<polygon points="256,91 176,59 145,134" id="9" fill="rgb(80,81,95)" fill-opacity="0.501961" />
<polygon points="0,171 256,171 0,145" id="10" fill="rgb(13,13,13)" fill-opacity="0.501961" />
<polygon points="158,95 176,70 123,73" id="11" fill="rgb(148,50,24)" fill-opacity="0.501961" />
<polygon points="11,36 170,34 0,0" id="12" fill="rgb(100,113,138)" fill-opacity="0.501961" />
<polygon points="146,76 167,47 138,58" id="13" fill="rgb(255,206,53)" fill-opacity="0.501961" />
</svg>