<?xml version="1.0" standalone="no"?>
<svg xmlns="http://www.w3.org/2000/svg" version="1.2" baseProfile="tiny" width="256" height="171" viewBox="0 0 256 171">
<rect x="0" y="0" width="256" height="171" id="0" fill="rgb(87,100,123)" fill-opacity="1" />
<polygon points="81,36 169,0 256,2" id="1" fill="rgb(0,0,2)" fill-opacity="0.501961" />
<polygon points="256,126 173,152 256,92" id="2" fill="rgb(0,0,0)" fill-opacity="0.501961" />
<polygon points="238,88 0,62 17,171" id="3" fill="rgb(118,133,161)" fill-opacity="0.501961" />
<polygon points="115,153 159,171 79,171" id="4" fill="rgb(184,200,220)" fill-opacity="0.501961" />
<polygon points="48,0 0,0 0,35" id="5" fill="rgb(0,2,13)" fill-opacity="0.501961" />
<polygon points="110,68 87,62 166,37" id="6" fill="rgb(185,203,223)" fill-opacity="0.501961" />
<polygon points="111,0 57,14 42,0" id="7" fill="rgb(183,202,219)" fill-opacity="0.501961" />
<polygon points="171,67 260,27 219,0" id="8" fill="rgb(30,39,61)" fill-opacity="0.501961" />
<polygon points="21,0 104,21 132,47" id="9" fill="rgb(5,11,24)" fill-opacity="0.501961" />
<polygon points="211,78 189,75 144,122" id="10" fill="rgb(17,27,58)" fill-opacity="0.501961" />
<polygon points="90,92 20,80 0,42" id="11" fill="rgb(38,45,66)" fill-opacity="0.501961" />
<polygon points="145,160 117,147 157,131" id="12" fill="rgb(0,0,10)" fill-opacity="0.501961" />
<polygon points="88,112 90,90 47,125" id="13" fill="rgb(1,12,45)" fill-opacity="0.501961" />
<polygon points="198,135 231,149 256,117" id="14" fill="rgb(0,0,0)" fill-opacity="0.501961" />
<polygon points="142,124 113,120 156,89" id="15" fill="rgb(193,207,217)" fill-opacity="0.501961" />
<polygon points="142,76 146,68 71,68" id="16" fill="rgb(0,0,0)" fill-opacity="0.501961" />
<polygon points="145,12 100,20 144,-2" id="17" fill="rgb(189,209,229)" fill-opacity="0.501961" />
<polygon points="0,65 0,77 58,64" id="18" fill="rgb(181,197,215)" fill-opacity="0.501961" />
<polygon points="251,29 134,164 176,148" id="19" fill="rgb(135,149,172)" fill-opacity="0.501961" />
<polygon points="67,149 31,128 74,167" id="20" fill="rgb(0,2,22)" fill-opacity="0.501961" />
<polygon points="49,26 98,50 73,23" id="21" fill="rgb(170,188,209)" fill-opacity="0.501961" />
<polygon points="8,12 68,46 52,63" id="22" fill="rgb(154,168,184)" fill-opacity="0.501961" />
<polygon points="210,108 248,43 259,57" id="23" fill="rgb(17,23,48)" fill-opacity="0.501961" />
<polygon points="104,22 160,53 206,48" id="24" fill="rgb(151,164,181)" fill-opacity="0.501961" />
<polygon points="226,33 185,14 163,28" id="25" fill="rgb(150,168,193)" fill-opacity="0.501961" />
<polygon points="176,57 162,81 96,123" id="26" fill="rgb(28,40,71)" fill-opacity="0.501961" />
<polygon points="0,48 0,33 44,34" id="27" fill="rgb(173,189,207)" fill-opacity="0.501961" />
<polygon points="135,0 107,0 78,22" id="28" fill="rgb(8,20,41)" fill-opacity="0.501961" />
<polygon points="251,106 161,101 239,121" id="29" fill="rgb(45,53,80)" fill-opacity="0.501961" />
<polygon points="200,0 256,0 218,15" id="30" fill="rgb(0,0,1)" fill-opacity="0.501961" />
<polygon points="74,118 120,142 30,140" id="31" fill="rgb(150,165,188)" fill-opacity="0.501961" />
<polygon points="136,21 232,40 61,21" id="32" fill="rgb(19,28,44)" fill-opacity="0.501961" />
<polygon points="217,46 145,97 249,38" id="33" fill="rgb(152,169,192)" fill-opacity="0.501961" />
<polygon points="120,76 101,117 143,78" id="34" fill="rgb(170,187,204)" fill-opacity="0.501961" />
<polygon points="256,61 219,102 244,100" id="35" fill="rgb(150,166,189)" fill-opacity="0.501961" />
<polygon points="0,167 23,147 70,164" id="36" fill="rgb(157,169,185)" fill-opacity="0.501961" />
<polygon points="169,148 241,116 142,122" id="37" fill="rgb(111,124,145)" fill-opacity="0.501961" />
<polygon points="98,119 83,122 104,128" id="38" fill="rgb(0,0,0)" fill-opacity="0.501961" />
<polygon points="56,120 71,95 0,127" id="39" fill="rgb(155,172,195)" fill-opacity="0.501961" />
<polygon points="191,156 203,183 173,159" id="40" fill="rgb(183,196,214)" fill-opacity="0.501961" />
<polygon points="57,59 140,39 36,76" id="41" fill="rgb(28,38,57)" fill-opacity="0.501961" />
<polygon points="37,14 15,11 60,36" id="42" fill="rgb(0,4,17)" fill-opacity="0.501961" />
<polygon points="105,80 106,93 22,50" id="43" fill="rgb(163,176,193)" fill-opacity="0.501961" />
<polygon points="256,157 222,162 194,147" id="44" fill="rgb(163,178,198)" fill-opacity="0.501961" />
<polygon points="256,45 256,55 207,67" id="45" fill="rgb(11,16,29)" fill-opacity="0.501961" />
<polygon points="66,89 37,81 0,111" id="46" fill="rgb(156,171,194)" fill-opacity="0.501961" />
<polygon points="122,171 112,171 53,122" id="47" fill="rgb(27,39,76)" fill-opacity="0.501961" />
<polygon points="0,114 61,94 9,118" id="48" fill="rgb(16,27,68)" fill-opacity="0.501961" />
<polygon points="256,171 256,162 202,162" id="49" fill="rgb(12,17,41)" fill-opacity="0.501961" />
</svg>