<?xml version="1.0" standalone="no"?>
<svg xmlns="http://www.w3.org/2000/svg" version="1.2" baseProfile="tiny" width="256" height="170" viewBox="0 0 256 170">
<rect x="0" y="0" width="256" height="170" id="0" fill="rgb(83,71,49)" fill-opacity="1" />
<polygon points="172,0 174,163 148,38" id="1" fill="rgb(255,243,186)" fill-opacity="0.501961" />
<polygon points="43,0 75,85 51,139" id="2" fill="rgb(255,255,36)" fill-opacity="0.501961" />
<polygon points="175,170 23,170 105,64" id="3" fill="rgb(0,0,0)" fill-opacity="0.501961" />
<polygon points="23,30 0,0 0,161" id="4" fill="rgb(255,213,146)" fill-opacity="0.501961" />
<polygon points="121,21 71,123 66,10" id="5" fill="rgb(0,0,0)" fill-opacity="0.501961" />
<polygon points="256,0 189,0 256,164" id="6" fill="rgb(6,6,0)" fill-opacity="0.501961" />
<polygon points="256,170 212,126 178,148" id="7" fill="rgb(190,192,180)" fill-opacity="0.501961" />
<polygon points="209,13 198,103 180,0" id="8" fill="rgb(108,125,190)" fill-opacity="0.501961" />
<polygon points="16,48 51,170 34,0" id="9" fill="rgb(0,0,31)" fill-opacity="0.501961" />
<polygon points="232,61 243,104 226,95" id="10" fill="rgb(255,210,23)" fill-opacity="0.501961" />
<polygon points="197,131 183,95 155,170" id="11" fill="rgb(5,0,0)" fill-opacity="0.501961" />
<polygon points="0,49 0,148 36,150" id="12" fill="rgb(191,161,123)" fill-opacity="0.501961" />
<polygon points="172,0 151,0 170,125" id="13" fill="rgb(255,201,148)" fill-opacity="0.501961" />
<polygon points="71,121 29,-16 53,5" id="14" fill="rgb(250,205,48)" fill-opacity="0.501961" />
<polygon points="170,92 203,45 215,107" id="15" fill="rgb(184,151,98)" fill-opacity="0.501961" />
<polygon points="122,90 123,12 172,3" id="16" fill="rgb(151,122,91)" fill-opacity="0.501961" />
<polygon points="32,48 51,170 18,111" id="17" fill="rgb(6,1,0)" fill-opacity="0.501961" />
<polygon points="21,0 0,0 19,146" id="18" fill="rgb(191,143,83)" fill-opacity="0.501961" />
<polygon points="65,0 48,0 65,44" id="19" fill="rgb(0,11,158)" fill-opacity="0.501961" />
<polygon points="152,32 151,98 127,84" id="20" fill="rgb(23,8,0)" fill-opacity="0.501961" />
<polygon points="256,96 256,141 195,110" id="21" fill="rgb(6,7,1)" fill-opacity="0.501961" />
<polygon points="256,58 198,70 243,12" id="22" fill="rgb(0,0,0)" fill-opacity="0.501961" />
<polygon points="255,161 201,170 192,115" id="23" fill="rgb(147,144,129)" fill-opacity="0.501961" />
<polygon points="154,124 169,127 173,28" id="24" fill="rgb(223,201,174)" fill-opacity="0.501961" />
<polygon points="179,66 208,45 193,0" id="25" fill="rgb(30,63,174)" fill-opacity="0.501961" />
<polygon points="49,138 47,24 70,103" id="26" fill="rgb(248,203,46)" fill-opacity="0.501961" />
<polygon points="20,65 43,39 20,1" id="27" fill="rgb(16,50,102)" fill-opacity="0.501961" />
<polygon points="43,129 24,170 87,170" id="28" fill="rgb(5,0,0)" fill-opacity="0.501961" />
</svg>